{
 "cells": [
  {
   "cell_type": "code",
   "execution_count": 2,
   "metadata": {},
   "outputs": [],
   "source": [
    "import mido"
   ]
  },
  {
   "cell_type": "code",
   "execution_count": 1,
   "metadata": {},
   "outputs": [],
   "source": [
    "import librosa\n",
    "import librosa.display\n",
    "import numpy as np\n",
    "import IPython.display as ipd\n",
    "import matplotlib.pyplot as plt"
   ]
  },
  {
   "cell_type": "code",
   "execution_count": null,
   "metadata": {},
   "outputs": [],
   "source": [
    "y, sr = librosa.load('SlowAndCalm.wav')"
   ]
  },
  {
   "cell_type": "code",
   "execution_count": null,
   "metadata": {},
   "outputs": [],
   "source": [
    "D = librosa.stft(y)"
   ]
  },
  {
   "cell_type": "code",
   "execution_count": 292,
   "metadata": {},
   "outputs": [
    {
     "ename": "NameError",
     "evalue": "name 'D' is not defined",
     "output_type": "error",
     "traceback": [
      "\u001b[0;31m---------------------------------------------------------------------------\u001b[0m",
      "\u001b[0;31mNameError\u001b[0m                                 Traceback (most recent call last)",
      "\u001b[0;32m<ipython-input-292-39e0574a4abf>\u001b[0m in \u001b[0;36m<module>\u001b[0;34m\u001b[0m\n\u001b[0;32m----> 1\u001b[0;31m \u001b[0mD\u001b[0m\u001b[0;34m\u001b[0m\u001b[0;34m\u001b[0m\u001b[0m\n\u001b[0m",
      "\u001b[0;31mNameError\u001b[0m: name 'D' is not defined"
     ]
    }
   ],
   "source": [
    "D"
   ]
  },
  {
   "cell_type": "code",
   "execution_count": null,
   "metadata": {},
   "outputs": [],
   "source": [
    "\n",
    "\n",
    "y_hat2 = librosa.istft(np.abs(D.real))\n",
    "y_hat_sign = librosa.istft(np.abs(D) * np.sign(D))\n",
    "\n"
   ]
  },
  {
   "cell_type": "code",
   "execution_count": null,
   "metadata": {},
   "outputs": [],
   "source": [
    "#ipd.Audio(y_hat,rate=sr) # load a local WAV file\n",
    "ipd.Audio(y_hat_sign,rate=sr) # load a local WAV file"
   ]
  },
  {
   "cell_type": "code",
   "execution_count": null,
   "metadata": {},
   "outputs": [],
   "source": [
    "librosa.display.waveplot(y_hat_sign, sr=sr);\n",
    "librosa.display.waveplot(y_hat2, sr=sr)"
   ]
  },
  {
   "cell_type": "code",
   "execution_count": null,
   "metadata": {},
   "outputs": [],
   "source": [
    "noteDict={}\n",
    "mid = mido.MidiFile('4Beatsslow.mid')\n",
    "for i, track in enumerate(mid.tracks):\n",
    "    print('Track {}: {}'.format(i, track.name))\n",
    "    for msg in track:\n",
    "        print(msg.time)"
   ]
  },
  {
   "cell_type": "code",
   "execution_count": null,
   "metadata": {},
   "outputs": [],
   "source": [
    "120*24"
   ]
  },
  {
   "cell_type": "code",
   "execution_count": null,
   "metadata": {},
   "outputs": [],
   "source": [
    "bps = (60/(60000000/500000))\n",
    "ticktime = bps/(24)\n",
    "ticktime*240\n",
    "print(bpm,ticktime,(ticktime*240)/20)"
   ]
  },
  {
   "cell_type": "code",
   "execution_count": null,
   "metadata": {},
   "outputs": [],
   "source": [
    "for msg in mido.MidiFile('4Beats.mid').play():\n",
    "    print(msg)"
   ]
  },
  {
   "cell_type": "code",
   "execution_count": 51,
   "metadata": {},
   "outputs": [
    {
     "name": "stdout",
     "output_type": "stream",
     "text": [
      "48\n",
      "48\n",
      "48\n",
      "48\n",
      "48\n",
      "48\n",
      "48\n",
      "48\n"
     ]
    }
   ],
   "source": [
    "for msg in mido.MidiFile('4Beatsslow.mid'):\n",
    "    #time.sleep(msg.time)\n",
    "    if not msg.is_meta:\n",
    "        print(msg.note)"
   ]
  },
  {
   "cell_type": "code",
   "execution_count": 287,
   "metadata": {},
   "outputs": [],
   "source": [
    "midiArray=[]\n",
    "HopSize=0.023\n",
    "timeTracker=0.0\n",
    "totalTimeTracker=0.0\n",
    "MemoryArray=np.zeros(127)\n",
    "lasttime=0;\n",
    "for msg in mido.MidiFile('Dancing.Queen.mid'):\n",
    "    if not msg.is_meta:\n",
    "        totalTimeTracker+=msg.time\n",
    "        nextEventTime=lasttime+msg.time\n",
    "        while nextEventTime> timeTracker + HopSize:\n",
    "            midiArray.append(MemoryArray.copy())\n",
    "            timeTracker += HopSize;\n",
    "        if msg.type=='note_on':\n",
    "            MemoryArray[msg.note]+=1.0;\n",
    "        elif msg.type=='note_off':\n",
    "            MemoryArray[msg.note]-=1.0;\n",
    "        if(timeTracker+msg.time >= timeTracker + HopSize):\n",
    "            midiArray.append(MemoryArray.copy())\n",
    "            timeTracker += HopSize\n",
    "        lasttime += msg.time\n",
    "        "
   ]
  },
  {
   "cell_type": "code",
   "execution_count": 297,
   "metadata": {},
   "outputs": [
    {
     "data": {
      "text/plain": [
       "0.013955937534205987"
      ]
     },
     "execution_count": 297,
     "metadata": {},
     "output_type": "execute_result"
    }
   ],
   "source": [
    "totalTimeTracker-timeTracker"
   ]
  },
  {
   "cell_type": "code",
   "execution_count": 9,
   "metadata": {},
   "outputs": [
    {
     "name": "stdout",
     "output_type": "stream",
     "text": [
      "Track 0: DANCING QUEEN                   ;Benny Andersson / Bjorn Ulvaeus / Stig Anderson\n",
      "<meta message track_name name='DANCING QUEEN                   ;Benny Andersson / Bjorn Ulvaeus / Stig Anderson' time=0>\n",
      "<meta message copyright text=\"(C) 1994 Tune 1000 Corporation  ;EMI Grove Park Music, Inc. Int'l Rights Secured.\" time=0>\n",
      "<meta message time_signature numerator=4 denominator=4 clocks_per_click=24 notated_32nd_notes_per_beat=8 time=0>\n",
      "<meta message set_tempo tempo=588235 time=0>\n",
      "<meta message key_signature key='A' time=0>\n",
      "sysex data=(126,127,9,1) time=0\n",
      "<meta message text text='Back Vocal' time=0>\n",
      "<meta message lyrics text='ALL rights reserved. Not for broadcast or ' time=0>\n",
      "<meta message lyrics text='\\r' time=0>\n",
      "<meta message lyrics text='transmission of any kind. ' time=0>\n",
      "<meta message lyrics text='\\r' time=0>\n",
      "<meta message lyrics text='DO NOT DUPLICATE. NOT FOR RENTAL. ' time=0>\n",
      "<meta message lyrics text='\\r' time=0>\n",
      "program_change channel=0 program=1 time=98\n",
      "control_change channel=0 control=7 value=105 time=1\n",
      "control_change channel=0 control=10 value=64 time=0\n",
      "control_change channel=0 control=11 value=127 time=0\n",
      "control_change channel=0 control=91 value=65 time=1\n",
      "control_change channel=0 control=93 value=0 time=0\n",
      "program_change channel=1 program=35 time=3\n",
      "control_change channel=1 control=7 value=105 time=1\n",
      "control_change channel=1 control=10 value=64 time=0\n",
      "control_change channel=1 control=11 value=127 time=0\n",
      "control_change channel=1 control=91 value=25 time=1\n",
      "control_change channel=1 control=93 value=40 time=0\n",
      "program_change channel=2 program=62 time=3\n",
      "control_change channel=2 control=7 value=95 time=1\n",
      "control_change channel=2 control=10 value=74 time=0\n",
      "control_change channel=2 control=11 value=127 time=0\n",
      "control_change channel=2 control=91 value=70 time=1\n",
      "control_change channel=2 control=93 value=20 time=0\n",
      "program_change channel=3 program=24 time=3\n",
      "control_change channel=3 control=7 value=100 time=1\n",
      "control_change channel=3 control=10 value=78 time=0\n",
      "control_change channel=3 control=11 value=127 time=0\n",
      "control_change channel=3 control=91 value=60 time=1\n",
      "control_change channel=3 control=93 value=16 time=0\n",
      "program_change channel=4 program=4 time=3\n",
      "control_change channel=4 control=7 value=100 time=1\n",
      "control_change channel=4 control=10 value=64 time=0\n",
      "control_change channel=4 control=11 value=127 time=0\n",
      "control_change channel=4 control=91 value=60 time=1\n",
      "control_change channel=4 control=93 value=26 time=0\n",
      "program_change channel=5 program=52 time=3\n",
      "control_change channel=5 control=7 value=90 time=1\n",
      "control_change channel=5 control=10 value=64 time=0\n",
      "control_change channel=5 control=11 value=127 time=0\n",
      "control_change channel=5 control=91 value=50 time=1\n",
      "control_change channel=5 control=93 value=0 time=0\n",
      "program_change channel=6 program=27 time=3\n",
      "control_change channel=6 control=7 value=85 time=1\n",
      "control_change channel=6 control=10 value=94 time=0\n",
      "control_change channel=6 control=11 value=127 time=0\n",
      "control_change channel=6 control=91 value=40 time=1\n",
      "control_change channel=6 control=93 value=40 time=0\n",
      "program_change channel=7 program=48 time=3\n",
      "control_change channel=7 control=7 value=105 time=1\n",
      "control_change channel=7 control=10 value=64 time=0\n",
      "control_change channel=7 control=11 value=127 time=0\n",
      "control_change channel=7 control=91 value=60 time=1\n",
      "control_change channel=7 control=93 value=10 time=0\n",
      "program_change channel=8 program=48 time=3\n",
      "control_change channel=8 control=7 value=105 time=1\n",
      "control_change channel=8 control=10 value=64 time=0\n",
      "control_change channel=8 control=11 value=127 time=0\n",
      "control_change channel=8 control=91 value=60 time=1\n",
      "control_change channel=8 control=93 value=10 time=0\n",
      "control_change channel=9 control=7 value=105 time=4\n",
      "control_change channel=9 control=11 value=127 time=0\n",
      "control_change channel=9 control=91 value=60 time=1\n",
      "control_change channel=9 control=93 value=0 time=0\n",
      "program_change channel=10 program=27 time=3\n",
      "control_change channel=10 control=7 value=77 time=1\n",
      "control_change channel=10 control=10 value=44 time=0\n",
      "control_change channel=10 control=11 value=127 time=0\n",
      "control_change channel=10 control=91 value=40 time=1\n",
      "control_change channel=10 control=93 value=40 time=0\n",
      "program_change channel=11 program=28 time=3\n",
      "control_change channel=11 control=7 value=85 time=1\n",
      "control_change channel=11 control=10 value=34 time=0\n",
      "control_change channel=11 control=11 value=127 time=0\n",
      "control_change channel=11 control=91 value=40 time=1\n",
      "control_change channel=11 control=93 value=40 time=0\n",
      "program_change channel=12 program=64 time=3\n",
      "control_change channel=12 control=7 value=85 time=1\n",
      "control_change channel=12 control=10 value=34 time=0\n",
      "control_change channel=12 control=11 value=127 time=0\n",
      "control_change channel=12 control=91 value=60 time=1\n",
      "control_change channel=12 control=93 value=30 time=0\n",
      "program_change channel=13 program=29 time=3\n",
      "control_change channel=13 control=7 value=90 time=1\n",
      "control_change channel=13 control=10 value=24 time=0\n",
      "control_change channel=13 control=11 value=127 time=0\n",
      "control_change channel=13 control=91 value=60 time=1\n",
      "control_change channel=13 control=93 value=60 time=0\n",
      "<meta message time_signature numerator=4 denominator=4 clocks_per_click=24 notated_32nd_notes_per_beat=8 time=219>\n",
      "note_on channel=0 note=96 velocity=127 time=283\n",
      "control_change channel=0 control=1 value=0 time=1\n",
      "pitchwheel channel=0 pitch=0 time=0\n",
      "note_on channel=9 note=40 velocity=90 time=4\n",
      "note_on channel=9 note=69 velocity=36 time=0\n",
      "note_off channel=9 note=69 velocity=64 time=0\n",
      "control_change channel=9 control=1 value=0 time=1\n",
      "pitchwheel channel=9 pitch=0 time=0\n",
      "note_on channel=0 note=95 velocity=80 time=2\n",
      "note_off channel=0 note=96 velocity=64 time=1\n",
      "note_on channel=0 note=93 velocity=114 time=4\n",
      "note_off channel=0 note=95 velocity=64 time=2\n",
      "note_off channel=9 note=40 velocity=64 time=1\n",
      "note_on channel=0 note=91 velocity=110 time=2\n",
      "note_off channel=0 note=93 velocity=64 time=1\n",
      "note_off channel=0 note=91 velocity=64 time=6\n",
      "note_on channel=0 note=89 velocity=83 time=0\n",
      "note_on channel=9 note=69 velocity=41 time=4\n",
      "note_off channel=9 note=69 velocity=64 time=0\n",
      "note_off channel=0 note=89 velocity=64 time=4\n",
      "note_on channel=0 note=88 velocity=89 time=0\n",
      "note_on channel=0 note=86 velocity=99 time=6\n",
      "note_off channel=0 note=88 velocity=64 time=2\n",
      "note_on channel=0 note=84 velocity=92 time=5\n",
      "note_off channel=0 note=86 velocity=64 time=1\n",
      "note_on channel=9 note=69 velocity=59 time=5\n",
      "note_off channel=9 note=69 velocity=64 time=0\n",
      "note_on channel=0 note=83 velocity=91 time=1\n",
      "note_off channel=0 note=84 velocity=64 time=1\n",
      "note_on channel=0 note=81 velocity=83 time=5\n",
      "note_off channel=0 note=83 velocity=64 time=2\n",
      "note_on channel=0 note=79 velocity=78 time=6\n",
      "note_off channel=0 note=81 velocity=64 time=1\n",
      "note_on channel=0 note=77 velocity=82 time=6\n",
      "note_off channel=0 note=79 velocity=64 time=1\n",
      "note_on channel=9 note=69 velocity=49 time=1\n",
      "note_off channel=9 note=69 velocity=64 time=0\n",
      "note_on channel=0 note=76 velocity=85 time=4\n",
      "note_off channel=0 note=77 velocity=64 time=1\n",
      "note_on channel=0 note=74 velocity=77 time=5\n",
      "note_off channel=0 note=76 velocity=64 time=1\n",
      "note_on channel=0 note=72 velocity=77 time=5\n",
      "note_off channel=0 note=74 velocity=64 time=1\n",
      "note_off channel=0 note=72 velocity=64 time=6\n",
      "note_on channel=4 note=73 velocity=113 time=2\n",
      "note_on channel=5 note=73 velocity=113 time=0\n",
      "note_on channel=9 note=36 velocity=112 time=0\n",
      "note_off channel=9 note=36 velocity=64 time=0\n",
      "note_on channel=9 note=42 velocity=54 time=0\n",
      "note_off channel=9 note=42 velocity=64 time=0\n",
      "note_on channel=9 note=69 velocity=38 time=0\n",
      "note_off channel=9 note=69 velocity=64 time=0\n",
      "note_on channel=1 note=33 velocity=114 time=0\n",
      "note_on channel=6 note=57 velocity=67 time=0\n",
      "note_on channel=10 note=52 velocity=59 time=0\n",
      "note_on channel=7 note=57 velocity=70 time=0\n",
      "note_on channel=7 note=61 velocity=68 time=0\n",
      "note_on channel=7 note=52 velocity=73 time=0\n",
      "pitchwheel channel=4 pitch=0 time=1\n",
      "control_change channel=4 control=1 value=0 time=0\n",
      "control_change channel=5 control=1 value=0 time=0\n",
      "pitchwheel channel=5 pitch=0 time=0\n",
      "control_change channel=1 control=1 value=0 time=0\n",
      "pitchwheel channel=1 pitch=0 time=0\n",
      "control_change channel=6 control=1 value=0 time=0\n",
      "pitchwheel channel=6 pitch=0 time=0\n",
      "control_change channel=10 control=1 value=0 time=0\n",
      "pitchwheel channel=10 pitch=0 time=0\n",
      "control_change channel=7 control=1 value=0 time=0\n",
      "pitchwheel channel=7 pitch=0 time=0\n",
      "note_on channel=12 note=73 velocity=100 time=1\n",
      "control_change channel=12 control=1 value=0 time=1\n",
      "pitchwheel channel=12 pitch=0 time=0\n",
      "note_on channel=6 note=69 velocity=74 time=19\n",
      "note_on channel=6 note=61 velocity=62 time=0\n",
      "note_on channel=6 note=64 velocity=73 time=0\n",
      "note_on channel=9 note=42 velocity=25 time=1\n",
      "note_off channel=9 note=42 velocity=64 time=0\n",
      "note_on channel=9 note=69 velocity=41 time=0\n",
      "note_off channel=9 note=69 velocity=64 time=0\n",
      "note_on channel=0 note=69 velocity=73 time=2\n",
      "note_on channel=0 note=61 velocity=64 time=0\n",
      "note_on channel=10 note=57 velocity=63 time=0\n",
      "note_on channel=10 note=61 velocity=60 time=0\n",
      "note_off channel=6 note=57 velocity=64 time=7\n",
      "note_off channel=6 note=64 velocity=64 time=1\n",
      "note_off channel=10 note=52 velocity=64 time=3\n",
      "note_off channel=6 note=61 velocity=64 time=1\n",
      "note_off channel=10 note=61 velocity=64 time=0\n",
      "note_off channel=10 note=57 velocity=64 time=0\n",
      "note_off channel=6 note=69 velocity=64 time=4\n",
      "note_off channel=0 note=61 velocity=64 time=5\n",
      "note_on channel=6 note=69 velocity=62 time=0\n",
      "note_on channel=6 note=61 velocity=55 time=0\n",
      "note_on channel=9 note=46 velocity=45 time=1\n",
      "note_off channel=9 note=46 velocity=64 time=0\n",
      "note_on channel=9 note=69 velocity=48 time=0\n",
      "note_off channel=9 note=69 velocity=64 time=0\n",
      "note_on channel=9 note=54 velocity=44 time=0\n",
      "note_off channel=9 note=54 velocity=64 time=0\n",
      "note_off channel=0 note=69 velocity=64 time=0\n",
      "note_on channel=6 note=64 velocity=74 time=0\n",
      "note_on channel=10 note=57 velocity=58 time=1\n",
      "note_on channel=10 note=61 velocity=62 time=0\n",
      "note_off channel=1 note=33 velocity=64 time=2\n",
      "note_on channel=9 note=69 velocity=49 time=21\n",
      "note_off channel=9 note=69 velocity=64 time=0\n",
      "note_on channel=6 note=57 velocity=62 time=0\n",
      "note_on channel=9 note=36 velocity=88 time=1\n",
      "note_off channel=9 note=36 velocity=64 time=0\n",
      "note_on channel=9 note=54 velocity=28 time=0\n",
      "note_off channel=9 note=54 velocity=64 time=0\n",
      "note_on channel=1 note=33 velocity=100 time=0\n",
      "note_on channel=10 note=52 velocity=53 time=0\n",
      "note_off channel=10 note=57 velocity=64 time=3\n",
      "note_off channel=10 note=61 velocity=64 time=1\n",
      "note_off channel=6 note=69 velocity=64 time=2\n",
      "note_off channel=6 note=64 velocity=64 time=1\n",
      "note_off channel=6 note=61 velocity=64 time=2\n",
      "note_off channel=1 note=33 velocity=64 time=7\n",
      "note_off channel=6 note=57 velocity=64 time=0\n",
      "note_off channel=10 note=52 velocity=64 time=5\n",
      "note_on channel=9 note=69 velocity=41 time=2\n",
      "note_off channel=9 note=69 velocity=64 time=0\n",
      "note_on channel=9 note=40 velocity=107 time=1\n",
      "note_off channel=9 note=40 velocity=64 time=0\n",
      "note_on channel=9 note=42 velocity=48 time=0\n",
      "note_off channel=9 note=42 velocity=64 time=0\n",
      "note_on channel=1 note=33 velocity=103 time=0\n",
      "note_on channel=0 note=61 velocity=68 time=0\n",
      "note_on channel=0 note=69 velocity=73 time=0\n",
      "note_on channel=6 note=61 velocity=59 time=0\n",
      "note_on channel=6 note=69 velocity=67 time=0\n",
      "note_on channel=6 note=64 velocity=75 time=0\n",
      "note_on channel=10 note=57 velocity=60 time=0\n",
      "note_on channel=10 note=61 velocity=55 time=0\n",
      "control_change channel=12 control=1 value=1 time=16\n",
      "control_change channel=12 control=1 value=2 time=1\n",
      "control_change channel=12 control=1 value=3 time=2\n",
      "note_off channel=6 note=69 velocity=64 time=1\n",
      "control_change channel=12 control=1 value=4 time=0\n",
      "control_change channel=12 control=1 value=5 time=1\n",
      "note_on channel=9 note=69 velocity=47 time=2\n",
      "note_off channel=9 note=69 velocity=64 time=0\n",
      "control_change channel=12 control=1 value=6 time=0\n",
      "note_off channel=10 note=57 velocity=64 time=1\n",
      "note_on channel=10 note=52 velocity=60 time=0\n",
      "control_change channel=12 control=1 value=7 time=0\n",
      "note_on channel=6 note=57 velocity=54 time=1\n",
      "note_off channel=10 note=61 velocity=64 time=0\n",
      "control_change channel=12 control=1 value=8 time=0\n",
      "note_off channel=6 note=64 velocity=64 time=1\n",
      "control_change channel=12 control=1 value=9 time=1\n",
      "note_off channel=6 note=61 velocity=64 time=2\n",
      "note_off channel=1 note=33 velocity=64 time=1\n",
      "control_change channel=12 control=1 value=10 time=0\n",
      "note_off channel=0 note=69 velocity=64 time=2\n",
      "control_change channel=12 control=1 value=11 time=0\n",
      "control_change channel=12 control=1 value=12 time=4\n",
      "control_change channel=12 control=1 value=13 time=1\n",
      "control_change channel=12 control=1 value=14 time=2\n",
      "note_off channel=0 note=61 velocity=64 time=1\n",
      "control_change channel=12 control=1 value=15 time=0\n",
      "note_off channel=6 note=57 velocity=64 time=1\n",
      "control_change channel=12 control=1 value=16 time=0\n",
      "note_off channel=10 note=52 velocity=64 time=2\n",
      "control_change channel=12 control=1 value=17 time=0\n",
      "control_change channel=12 control=1 value=19 time=1\n",
      "control_change channel=12 control=1 value=20 time=2\n",
      "note_on channel=9 note=54 velocity=56 time=1\n",
      "note_off channel=9 note=54 velocity=64 time=0\n",
      "note_on channel=9 note=36 velocity=90 time=1\n",
      "note_off channel=9 note=36 velocity=64 time=0\n",
      "note_on channel=9 note=46 velocity=42 time=0\n",
      "note_off channel=9 note=46 velocity=64 time=0\n",
      "note_on channel=9 note=69 velocity=62 time=0\n",
      "note_off channel=9 note=69 velocity=64 time=0\n",
      "note_on channel=1 note=33 velocity=97 time=0\n",
      "note_on channel=6 note=61 velocity=62 time=0\n",
      "note_on channel=6 note=69 velocity=74 time=0\n",
      "note_on channel=10 note=61 velocity=63 time=0\n",
      "note_on channel=10 note=57 velocity=69 time=0\n",
      "control_change channel=12 control=1 value=21 time=0\n",
      "note_on channel=6 note=64 velocity=81 time=1\n",
      "control_change channel=12 control=1 value=22 time=1\n",
      "control_change channel=12 control=1 value=23 time=3\n",
      "control_change channel=12 control=1 value=24 time=3\n",
      "control_change channel=12 control=1 value=25 time=6\n",
      "note_off channel=10 note=57 velocity=64 time=2\n",
      "note_off channel=6 note=64 velocity=64 time=1\n",
      "note_off channel=6 note=69 velocity=64 time=2\n",
      "control_change channel=12 control=1 value=26 time=1\n",
      "note_on channel=10 note=57 velocity=51 time=3\n",
      "note_on channel=9 note=69 velocity=48 time=1\n",
      "note_off channel=9 note=69 velocity=64 time=0\n",
      "note_on channel=9 note=54 velocity=32 time=0\n",
      "note_off channel=9 note=54 velocity=64 time=0\n",
      "note_on channel=6 note=69 velocity=49 time=0\n",
      "control_change channel=12 control=1 value=27 time=0\n",
      "note_on channel=0 note=69 velocity=80 time=1\n",
      "note_on channel=0 note=61 velocity=69 time=0\n",
      "note_on channel=6 note=64 velocity=72 time=0\n",
      "control_change channel=12 control=1 value=28 time=3\n",
      "control_change channel=12 control=1 value=29 time=5\n",
      "control_change channel=12 control=1 value=30 time=3\n",
      "control_change channel=12 control=1 value=31 time=1\n",
      "control_change channel=12 control=1 value=32 time=3\n",
      "control_change channel=12 control=1 value=33 time=2\n",
      "control_change channel=12 control=1 value=34 time=2\n",
      "note_on channel=9 note=36 velocity=102 time=4\n",
      "note_off channel=9 note=36 velocity=64 time=0\n",
      "note_on channel=9 note=69 velocity=36 time=0\n",
      "note_off channel=9 note=69 velocity=64 time=0\n",
      "note_off channel=10 note=61 velocity=64 time=0\n",
      "note_on channel=10 note=52 velocity=59 time=0\n",
      "control_change channel=12 control=1 value=35 time=0\n",
      "note_on channel=9 note=42 velocity=54 time=1\n",
      "note_off channel=9 note=42 velocity=64 time=0\n",
      "note_on channel=6 note=57 velocity=61 time=0\n",
      "note_off channel=6 note=69 velocity=64 time=1\n",
      "note_off channel=6 note=61 velocity=64 time=2\n",
      "note_off channel=10 note=57 velocity=64 time=0\n",
      "control_change channel=12 control=1 value=36 time=0\n",
      "note_off channel=6 note=64 velocity=64 time=1\n",
      "note_off channel=1 note=33 velocity=64 time=2\n",
      "control_change channel=12 control=1 value=37 time=1\n",
      "note_off channel=10 note=52 velocity=64 time=3\n",
      "control_change channel=12 control=1 value=38 time=2\n",
      "note_off channel=6 note=57 velocity=64 time=2\n",
      "control_change channel=12 control=1 value=39 time=2\n",
      "control_change channel=12 control=1 value=40 time=2\n",
      "control_change channel=12 control=1 value=41 time=1\n",
      "note_on channel=10 note=57 velocity=62 time=2\n",
      "note_on channel=10 note=61 velocity=60 time=0\n",
      "note_on channel=9 note=69 velocity=48 time=2\n",
      "note_off channel=9 note=69 velocity=64 time=0\n",
      "note_on channel=6 note=61 velocity=58 time=0\n",
      "note_on channel=6 note=69 velocity=72 time=0\n",
      "control_change channel=12 control=1 value=42 time=0\n",
      "note_on channel=6 note=64 velocity=76 time=1\n",
      "control_change channel=12 control=1 value=43 time=0\n",
      "control_change channel=12 control=1 value=44 time=3\n",
      "control_change channel=12 control=1 value=45 time=2\n",
      "control_change channel=12 control=1 value=46 time=2\n",
      "note_off channel=10 note=61 velocity=64 time=4\n",
      "note_off channel=6 note=64 velocity=64 time=3\n",
      "note_off channel=10 note=57 velocity=64 time=2\n",
      "control_change channel=12 control=1 value=45 time=3\n",
      "note_on channel=10 note=57 velocity=58 time=1\n",
      "note_on channel=10 note=61 velocity=61 time=1\n",
      "control_change channel=12 control=1 value=43 time=0\n",
      "note_on channel=9 note=54 velocity=53 time=1\n",
      "note_off channel=9 note=54 velocity=64 time=0\n",
      "note_on channel=1 note=40 velocity=89 time=0\n",
      "note_on channel=6 note=64 velocity=61 time=0\n",
      "note_on channel=9 note=46 velocity=41 time=1\n",
      "note_off channel=9 note=46 velocity=64 time=0\n",
      "note_on channel=9 note=69 velocity=62 time=0\n",
      "note_off channel=9 note=69 velocity=64 time=0\n",
      "control_change channel=12 control=1 value=40 time=0\n",
      "control_change channel=12 control=1 value=39 time=1\n",
      "control_change channel=12 control=1 value=37 time=1\n",
      "control_change channel=12 control=1 value=35 time=1\n",
      "control_change channel=12 control=1 value=31 time=1\n",
      "control_change channel=12 control=1 value=29 time=1\n",
      "control_change channel=12 control=1 value=27 time=1\n",
      "control_change channel=12 control=1 value=26 time=1\n",
      "control_change channel=12 control=1 value=23 time=1\n",
      "control_change channel=12 control=1 value=22 time=1\n",
      "control_change channel=12 control=1 value=21 time=1\n",
      "control_change channel=12 control=1 value=20 time=2\n",
      "control_change channel=12 control=1 value=19 time=1\n",
      "control_change channel=12 control=1 value=18 time=2\n",
      "control_change channel=12 control=1 value=17 time=2\n",
      "note_off channel=1 note=40 velocity=64 time=2\n",
      "note_on channel=1 note=42 velocity=70 time=3\n",
      "control_change channel=12 control=1 value=16 time=1\n",
      "note_on channel=9 note=69 velocity=52 time=1\n",
      "note_off channel=9 note=69 velocity=64 time=0\n",
      "note_on channel=9 note=54 velocity=47 time=0\n",
      "note_off channel=9 note=54 velocity=64 time=0\n",
      "note_on channel=6 note=57 velocity=67 time=1\n",
      "note_on channel=10 note=52 velocity=63 time=0\n",
      "control_change channel=12 control=1 value=15 time=2\n",
      "note_off channel=6 note=61 velocity=64 time=1\n",
      "control_change channel=12 control=1 value=14 time=0\n",
      "note_off channel=6 note=69 velocity=64 time=4\n",
      "note_off channel=6 note=64 velocity=64 time=0\n",
      "note_off channel=10 note=57 velocity=64 time=0\n",
      "control_change channel=12 control=1 value=13 time=1\n",
      "note_off channel=10 note=61 velocity=64 time=1\n",
      "note_off channel=10 note=52 velocity=64 time=2\n",
      "control_change channel=12 control=1 value=12 time=2\n",
      "note_off channel=6 note=57 velocity=64 time=4\n",
      "control_change channel=12 control=1 value=11 time=0\n",
      "control_change channel=12 control=1 value=9 time=2\n",
      "note_off channel=5 note=73 velocity=64 time=1\n",
      "note_off channel=1 note=42 velocity=64 time=1\n",
      "note_off channel=12 note=73 velocity=64 time=0\n",
      "control_change channel=12 control=1 value=8 time=0\n",
      "note_off channel=4 note=73 velocity=64 time=1\n",
      "note_on channel=4 note=71 velocity=101 time=0\n",
      "note_on channel=5 note=71 velocity=101 time=0\n",
      "note_on channel=1 note=45 velocity=87 time=0\n",
      "note_on channel=10 note=57 velocity=62 time=0\n",
      "note_on channel=10 note=61 velocity=62 time=0\n",
      "control_change channel=12 control=1 value=7 time=0\n",
      "note_on channel=9 note=40 velocity=107 time=1\n",
      "note_off channel=9 note=40 velocity=64 time=0\n",
      "note_on channel=9 note=42 velocity=53 time=0\n",
      "note_off channel=9 note=42 velocity=64 time=0\n",
      "note_on channel=9 note=69 velocity=34 time=0\n",
      "note_off channel=9 note=69 velocity=64 time=0\n",
      "note_on channel=6 note=64 velocity=69 time=0\n",
      "note_on channel=12 note=71 velocity=79 time=0\n",
      "control_change channel=12 control=1 value=5 time=0\n",
      "note_on channel=6 note=69 velocity=68 time=1\n",
      "note_on channel=6 note=61 velocity=58 time=0\n",
      "control_change channel=12 control=1 value=4 time=0\n",
      "control_change channel=12 control=1 value=3 time=1\n",
      "control_change channel=12 control=1 value=2 time=1\n",
      "control_change channel=12 control=1 value=1 time=1\n",
      "control_change channel=12 control=1 value=0 time=19\n",
      "note_on channel=9 note=69 velocity=43 time=1\n",
      "note_off channel=9 note=69 velocity=64 time=0\n",
      "note_off channel=6 note=64 velocity=64 time=3\n",
      "note_off channel=6 note=61 velocity=64 time=11\n",
      "note_off channel=6 note=69 velocity=64 time=2\n",
      "note_off channel=10 note=57 velocity=64 time=4\n",
      "note_on channel=9 note=46 velocity=49 time=4\n",
      "note_off channel=9 note=46 velocity=64 time=0\n",
      "note_on channel=9 note=69 velocity=63 time=0\n",
      "note_off channel=9 note=69 velocity=64 time=0\n",
      "note_on channel=9 note=54 velocity=78 time=0\n",
      "note_off channel=9 note=54 velocity=64 time=0\n",
      "note_on channel=10 note=57 velocity=53 time=0\n",
      "note_off channel=0 note=61 velocity=64 time=9\n",
      "note_off channel=0 note=69 velocity=64 time=3\n",
      "note_on channel=9 note=69 velocity=59 time=12\n",
      "note_off channel=9 note=69 velocity=64 time=0\n",
      "note_on channel=9 note=54 velocity=31 time=1\n",
      "note_off channel=9 note=54 velocity=64 time=0\n",
      "note_off channel=1 note=45 velocity=64 time=8\n",
      "control_change channel=12 control=1 value=1 time=11\n",
      "note_on channel=9 note=36 velocity=111 time=3\n",
      "note_off channel=9 note=36 velocity=64 time=0\n",
      "note_on channel=9 note=69 velocity=36 time=0\n",
      "note_off channel=9 note=69 velocity=64 time=0\n",
      "note_on channel=6 note=57 velocity=64 time=0\n",
      "note_on channel=10 note=54 velocity=58 time=0\n",
      "control_change channel=12 control=1 value=2 time=0\n",
      "note_on channel=12 note=74 velocity=95 time=0\n",
      "note_off channel=5 note=71 velocity=64 time=1\n",
      "note_on channel=9 note=42 velocity=75 time=0\n",
      "note_off channel=9 note=42 velocity=64 time=0\n",
      "note_on channel=1 note=33 velocity=100 time=0\n",
      "note_off channel=10 note=57 velocity=64 time=0\n",
      "note_off channel=7 note=52 velocity=64 time=0\n",
      "note_off channel=7 note=61 velocity=64 time=0\n",
      "note_on channel=7 note=54 velocity=69 time=0\n",
      "note_on channel=7 note=62 velocity=69 time=0\n",
      "note_off channel=4 note=71 velocity=64 time=1\n",
      "note_on channel=4 note=74 velocity=124 time=0\n",
      "note_on channel=5 note=74 velocity=124 time=0\n",
      "note_off channel=12 note=71 velocity=64 time=0\n",
      "control_change channel=12 control=1 value=3 time=0\n",
      "note_off channel=10 note=61 velocity=64 time=2\n",
      "control_change channel=12 control=1 value=4 time=0\n",
      "control_change channel=12 control=1 value=5 time=1\n",
      "control_change channel=12 control=1 value=6 time=1\n",
      "control_change channel=12 control=1 value=7 time=1\n",
      "control_change channel=12 control=1 value=8 time=1\n",
      "control_change channel=12 control=1 value=10 time=1\n",
      "control_change channel=12 control=1 value=12 time=1\n",
      "control_change channel=12 control=1 value=14 time=2\n",
      "control_change channel=12 control=1 value=16 time=1\n",
      "control_change channel=12 control=1 value=17 time=2\n",
      "control_change channel=12 control=1 value=18 time=1\n",
      "control_change channel=12 control=1 value=19 time=1\n",
      "control_change channel=12 control=1 value=20 time=1\n",
      "control_change channel=12 control=1 value=21 time=1\n",
      "control_change channel=12 control=1 value=23 time=2\n",
      "control_change channel=12 control=1 value=24 time=1\n",
      "note_on channel=6 note=66 velocity=77 time=1\n",
      "control_change channel=12 control=1 value=25 time=0\n",
      "note_on channel=6 note=62 velocity=72 time=1\n",
      "note_on channel=6 note=69 velocity=62 time=0\n",
      "note_on channel=9 note=42 velocity=41 time=1\n",
      "note_off channel=9 note=42 velocity=64 time=0\n",
      "note_on channel=9 note=69 velocity=44 time=0\n",
      "note_off channel=9 note=69 velocity=64 time=0\n",
      "note_on channel=0 note=69 velocity=67 time=0\n",
      "note_on channel=0 note=66 velocity=70 time=0\n",
      "note_on channel=10 note=57 velocity=68 time=0\n",
      "note_on channel=10 note=62 velocity=69 time=0\n",
      "control_change channel=12 control=1 value=26 time=0\n",
      "note_off channel=6 note=57 velocity=64 time=1\n",
      "control_change channel=12 control=1 value=28 time=0\n",
      "control_change channel=12 control=1 value=29 time=1\n",
      "note_off channel=10 note=54 velocity=64 time=1\n",
      "control_change channel=12 control=1 value=31 time=0\n",
      "control_change channel=12 control=1 value=34 time=1\n",
      "control_change channel=12 control=1 value=36 time=2\n",
      "control_change channel=12 control=1 value=37 time=1\n",
      "control_change channel=12 control=1 value=40 time=1\n",
      "note_off channel=6 note=69 velocity=64 time=1\n",
      "control_change channel=12 control=1 value=42 time=0\n",
      "note_off channel=6 note=66 velocity=64 time=1\n",
      "control_change channel=12 control=1 value=43 time=0\n",
      "note_off channel=6 note=62 velocity=64 time=1\n",
      "control_change channel=12 control=1 value=44 time=0\n",
      "control_change channel=12 control=1 value=45 time=1\n",
      "control_change channel=12 control=1 value=46 time=1\n",
      "note_off channel=10 note=57 velocity=64 time=1\n",
      "control_change channel=12 control=1 value=47 time=0\n",
      "note_off channel=0 note=66 velocity=64 time=2\n",
      "control_change channel=12 control=1 value=48 time=0\n",
      "control_change channel=12 control=1 value=49 time=2\n",
      "note_off channel=1 note=33 velocity=64 time=1\n",
      "control_change channel=12 control=1 value=50 time=2\n",
      "note_on channel=6 note=62 velocity=70 time=1\n",
      "note_on channel=6 note=69 velocity=64 time=0\n",
      "note_on channel=6 note=66 velocity=81 time=1\n",
      "note_on channel=10 note=57 velocity=59 time=0\n",
      "note_on channel=9 note=46 velocity=45 time=1\n",
      "note_off channel=9 note=46 velocity=64 time=0\n",
      "note_on channel=9 note=69 velocity=71 time=0\n",
      "note_off channel=9 note=69 velocity=64 time=0\n",
      "note_on channel=9 note=54 velocity=70 time=0\n",
      "note_off channel=9 note=54 velocity=64 time=0\n",
      "note_off channel=0 note=69 velocity=64 time=1\n",
      "control_change channel=12 control=1 value=51 time=13\n",
      "control_change channel=12 control=1 value=52 time=3\n",
      "control_change channel=12 control=1 value=53 time=2\n",
      "control_change channel=12 control=1 value=54 time=1\n",
      "control_change channel=12 control=1 value=55 time=1\n",
      "note_on channel=9 note=69 velocity=44 time=2\n",
      "note_off channel=9 note=69 velocity=64 time=0\n",
      "note_on channel=6 note=57 velocity=60 time=0\n",
      "note_on channel=10 note=54 velocity=54 time=0\n",
      "note_on channel=9 note=36 velocity=101 time=1\n",
      "note_off channel=9 note=36 velocity=64 time=0\n",
      "note_on channel=1 note=33 velocity=86 time=0\n",
      "control_change channel=12 control=1 value=56 time=0\n",
      "note_on channel=9 note=54 velocity=33 time=1\n",
      "note_off channel=9 note=54 velocity=64 time=0\n",
      "note_off channel=6 note=66 velocity=64 time=0\n",
      "note_off channel=10 note=62 velocity=64 time=0\n",
      "note_off channel=6 note=62 velocity=64 time=1\n",
      "note_off channel=10 note=57 velocity=64 time=1\n",
      "control_change channel=12 control=1 value=57 time=0\n",
      "note_off channel=6 note=69 velocity=64 time=2\n",
      "note_off channel=10 note=54 velocity=64 time=9\n",
      "control_change channel=12 control=1 value=58 time=0\n",
      "control_change channel=12 control=1 value=59 time=2\n",
      "note_off channel=1 note=33 velocity=64 time=2\n",
      "note_off channel=6 note=57 velocity=64 time=0\n",
      "control_change channel=12 control=1 value=60 time=2\n",
      "note_on channel=6 note=66 velocity=71 time=2\n",
      "note_on channel=10 note=57 velocity=62 time=0\n",
      "note_on channel=9 note=40 velocity=104 time=1\n",
      "note_off channel=9 note=40 velocity=64 time=0\n",
      "note_on channel=0 note=66 velocity=74 time=0\n",
      "note_on channel=0 note=69 velocity=74 time=0\n",
      "note_on channel=6 note=62 velocity=66 time=0\n",
      "note_on channel=6 note=69 velocity=62 time=0\n",
      "note_on channel=10 note=62 velocity=58 time=0\n",
      "note_on channel=9 note=42 velocity=43 time=1\n",
      "note_off channel=9 note=42 velocity=64 time=0\n",
      "note_on channel=9 note=69 velocity=40 time=0\n",
      "note_off channel=9 note=69 velocity=64 time=0\n",
      "note_on channel=1 note=33 velocity=91 time=0\n",
      "control_change channel=12 control=1 value=59 time=11\n",
      "note_off channel=6 note=69 velocity=64 time=7\n",
      "note_off channel=6 note=66 velocity=64 time=2\n",
      "note_off channel=6 note=62 velocity=64 time=1\n",
      "note_off channel=10 note=62 velocity=64 time=0\n",
      "note_on channel=6 note=57 velocity=63 time=2\n",
      "note_on channel=10 note=54 velocity=47 time=0\n",
      "note_on channel=9 note=69 velocity=42 time=1\n",
      "note_off channel=9 note=69 velocity=64 time=0\n",
      "note_off channel=0 note=66 velocity=64 time=0\n",
      "note_off channel=1 note=33 velocity=64 time=1\n",
      "note_off channel=10 note=57 velocity=64 time=1\n",
      "note_off channel=0 note=69 velocity=64 time=6\n",
      "note_off channel=10 note=54 velocity=64 time=7\n",
      "note_off channel=6 note=57 velocity=64 time=1\n",
      "note_on channel=9 note=46 velocity=43 time=7\n",
      "note_off channel=9 note=46 velocity=64 time=0\n",
      "note_on channel=6 note=66 velocity=71 time=0\n",
      "note_on channel=10 note=62 velocity=76 time=0\n",
      "note_on channel=10 note=57 velocity=63 time=0\n",
      "note_on channel=9 note=36 velocity=102 time=1\n",
      "note_off channel=9 note=36 velocity=64 time=0\n",
      "note_on channel=9 note=69 velocity=66 time=0\n",
      "note_off channel=9 note=69 velocity=64 time=0\n",
      "note_on channel=9 note=54 velocity=70 time=0\n",
      "note_off channel=9 note=54 velocity=64 time=0\n",
      "note_on channel=1 note=33 velocity=93 time=0\n",
      "note_on channel=6 note=62 velocity=63 time=0\n",
      "note_on channel=6 note=69 velocity=63 time=0\n",
      "note_off channel=6 note=69 velocity=64 time=13\n",
      "note_off channel=6 note=62 velocity=64 time=2\n",
      "note_off channel=6 note=66 velocity=64 time=2\n",
      "note_on channel=6 note=66 velocity=53 time=6\n",
      "note_on channel=9 note=69 velocity=45 time=1\n",
      "note_off channel=9 note=69 velocity=64 time=0\n",
      "note_on channel=9 note=54 velocity=45 time=0\n",
      "note_off channel=9 note=54 velocity=64 time=0\n",
      "note_on channel=6 note=69 velocity=59 time=0\n",
      "note_on channel=6 note=62 velocity=63 time=0\n",
      "note_on channel=0 note=69 velocity=75 time=1\n",
      "note_on channel=0 note=66 velocity=81 time=0\n",
      "control_change channel=12 control=1 value=58 time=2\n",
      "note_off channel=1 note=33 velocity=64 time=5\n",
      "control_change channel=12 control=1 value=57 time=2\n",
      "control_change channel=12 control=1 value=56 time=3\n",
      "control_change channel=12 control=1 value=55 time=3\n",
      "control_change channel=12 control=1 value=54 time=1\n",
      "control_change channel=12 control=1 value=52 time=2\n",
      "control_change channel=12 control=1 value=51 time=1\n",
      "note_off channel=10 note=62 velocity=64 time=1\n",
      "control_change channel=12 control=1 value=50 time=0\n",
      "control_change channel=12 control=1 value=49 time=1\n",
      "note_on channel=9 note=36 velocity=88 time=1\n",
      "note_off channel=9 note=36 velocity=64 time=0\n",
      "note_on channel=9 note=42 velocity=57 time=0\n",
      "note_off channel=9 note=42 velocity=64 time=0\n",
      "note_on channel=10 note=54 velocity=54 time=0\n",
      "note_on channel=9 note=69 velocity=36 time=1\n",
      "note_off channel=9 note=69 velocity=64 time=0\n",
      "note_off channel=6 note=69 velocity=64 time=0\n",
      "note_on channel=6 note=57 velocity=61 time=0\n",
      "note_off channel=10 note=57 velocity=64 time=0\n",
      "control_change channel=12 control=1 value=46 time=0\n",
      "note_off channel=6 note=66 velocity=64 time=1\n",
      "control_change channel=12 control=1 value=45 time=0\n",
      "note_off channel=6 note=62 velocity=64 time=1\n",
      "control_change channel=12 control=1 value=44 time=0\n",
      "control_change channel=12 control=1 value=43 time=1\n",
      "control_change channel=12 control=1 value=41 time=1\n",
      "control_change channel=12 control=1 value=40 time=2\n",
      "control_change channel=12 control=1 value=39 time=1\n",
      "control_change channel=12 control=1 value=38 time=1\n",
      "note_off channel=10 note=54 velocity=64 time=1\n",
      "control_change channel=12 control=1 value=37 time=3\n",
      "note_off channel=6 note=57 velocity=64 time=4\n",
      "control_change channel=12 control=1 value=38 time=4\n",
      "note_on channel=6 note=69 velocity=63 time=2\n",
      "note_on channel=6 note=66 velocity=68 time=1\n",
      "note_on channel=6 note=62 velocity=67 time=0\n",
      "note_on channel=10 note=57 velocity=60 time=0\n",
      "note_on channel=9 note=40 velocity=107 time=1\n",
      "note_off channel=9 note=40 velocity=64 time=0\n",
      "note_on channel=9 note=69 velocity=41 time=0\n",
      "note_off channel=9 note=69 velocity=64 time=0\n",
      "note_on channel=1 note=33 velocity=78 time=0\n",
      "note_on channel=10 note=62 velocity=74 time=0\n",
      "control_change channel=12 control=1 value=39 time=0\n",
      "note_off channel=6 note=62 velocity=64 time=12\n",
      "note_off channel=10 note=57 velocity=64 time=3\n",
      "control_change channel=12 control=1 value=38 time=0\n",
      "control_change channel=12 control=1 value=37 time=1\n",
      "control_change channel=12 control=1 value=36 time=2\n",
      "control_change channel=12 control=1 value=35 time=1\n",
      "control_change channel=12 control=1 value=33 time=1\n",
      "note_off channel=5 note=74 velocity=64 time=1\n",
      "control_change channel=12 control=1 value=32 time=0\n",
      "note_off channel=1 note=33 velocity=64 time=1\n",
      "control_change channel=12 control=1 value=31 time=0\n",
      "note_on channel=9 note=54 velocity=68 time=1\n",
      "note_off channel=9 note=54 velocity=64 time=0\n",
      "note_on channel=1 note=28 velocity=73 time=0\n",
      "note_on channel=6 note=62 velocity=60 time=0\n",
      "note_on channel=10 note=57 velocity=60 time=0\n",
      "control_change channel=12 control=1 value=30 time=0\n",
      "note_on channel=9 note=69 velocity=71 time=1\n",
      "note_off channel=9 note=69 velocity=64 time=0\n",
      "control_change channel=12 control=1 value=28 time=0\n",
      "control_change channel=12 control=1 value=26 time=1\n",
      "control_change channel=12 control=1 value=25 time=1\n",
      "control_change channel=12 control=1 value=24 time=1\n",
      "control_change channel=12 control=1 value=22 time=1\n",
      "control_change channel=12 control=1 value=21 time=2\n",
      "control_change channel=12 control=1 value=20 time=2\n",
      "control_change channel=12 control=1 value=19 time=2\n",
      "control_change channel=12 control=1 value=18 time=2\n",
      "control_change channel=12 control=1 value=17 time=3\n",
      "control_change channel=12 control=1 value=16 time=1\n",
      "control_change channel=12 control=1 value=15 time=2\n",
      "note_off channel=6 note=62 velocity=64 time=1\n",
      "control_change channel=12 control=1 value=14 time=1\n",
      "note_on channel=9 note=69 velocity=52 time=3\n",
      "note_off channel=9 note=69 velocity=64 time=0\n",
      "note_off channel=1 note=28 velocity=64 time=0\n",
      "note_on channel=1 note=29 velocity=84 time=0\n",
      "note_off channel=6 note=69 velocity=64 time=0\n",
      "note_on channel=9 note=54 velocity=40 time=1\n",
      "note_off channel=9 note=54 velocity=64 time=0\n",
      "note_on channel=6 note=57 velocity=58 time=1\n",
      "note_off channel=10 note=62 velocity=64 time=0\n",
      "note_on channel=10 note=54 velocity=61 time=0\n",
      "control_change channel=12 control=1 value=13 time=1\n",
      "note_off channel=6 note=66 velocity=64 time=1\n",
      "note_off channel=10 note=57 velocity=64 time=6\n",
      "note_off channel=12 note=74 velocity=64 time=5\n",
      "note_off channel=1 note=29 velocity=64 time=3\n",
      "control_change channel=12 control=1 value=14 time=0\n",
      "note_off channel=10 note=54 velocity=64 time=1\n",
      "note_off channel=4 note=74 velocity=64 time=5\n",
      "note_on channel=4 note=73 velocity=127 time=0\n",
      "note_on channel=5 note=73 velocity=127 time=0\n",
      "note_on channel=9 note=40 velocity=102 time=0\n",
      "note_off channel=9 note=40 velocity=64 time=0\n",
      "note_on channel=6 note=66 velocity=74 time=0\n",
      "note_on channel=6 note=69 velocity=68 time=0\n",
      "note_on channel=12 note=73 velocity=98 time=0\n",
      "note_on channel=9 note=42 velocity=56 time=1\n",
      "note_off channel=9 note=42 velocity=64 time=0\n",
      "note_on channel=1 note=30 velocity=93 time=0\n",
      "note_on channel=6 note=62 velocity=67 time=0\n",
      "note_on channel=10 note=57 velocity=64 time=0\n",
      "note_on channel=10 note=62 velocity=76 time=0\n",
      "note_off channel=6 note=57 velocity=64 time=3\n",
      "note_off channel=5 note=73 velocity=64 time=20\n",
      "note_on channel=9 note=69 velocity=44 time=0\n",
      "note_off channel=9 note=69 velocity=64 time=0\n",
      "note_off channel=4 note=73 velocity=64 time=1\n",
      "note_on channel=4 note=71 velocity=110 time=0\n",
      "note_on channel=5 note=71 velocity=110 time=0\n",
      "note_off channel=10 note=62 velocity=64 time=0\n",
      "note_on channel=10 note=54 velocity=61 time=0\n",
      "note_on channel=12 note=71 velocity=83 time=1\n",
      "note_off channel=6 note=69 velocity=64 time=2\n",
      "note_off channel=6 note=66 velocity=64 time=1\n",
      "note_off channel=10 note=57 velocity=64 time=0\n",
      "note_off channel=12 note=73 velocity=64 time=1\n",
      "note_off channel=6 note=62 velocity=64 time=1\n",
      "note_off channel=10 note=54 velocity=64 time=6\n",
      "note_off channel=1 note=30 velocity=64 time=8\n",
      "note_on channel=9 note=46 velocity=47 time=3\n",
      "note_off channel=9 note=46 velocity=64 time=0\n",
      "note_on channel=9 note=69 velocity=69 time=0\n",
      "note_off channel=9 note=69 velocity=64 time=0\n",
      "note_on channel=9 note=54 velocity=68 time=0\n",
      "note_off channel=9 note=54 velocity=64 time=0\n",
      "note_on channel=1 note=33 velocity=84 time=0\n",
      "note_on channel=6 note=69 velocity=63 time=1\n",
      "note_on channel=6 note=66 velocity=72 time=0\n",
      "note_on channel=6 note=62 velocity=64 time=0\n",
      "note_on channel=10 note=57 velocity=61 time=0\n",
      "note_on channel=10 note=62 velocity=65 time=0\n",
      "note_off channel=7 note=57 velocity=64 time=0\n",
      "note_off channel=0 note=66 velocity=64 time=9\n",
      "note_off channel=0 note=69 velocity=64 time=4\n",
      "note_off channel=10 note=62 velocity=64 time=0\n",
      "note_off channel=10 note=57 velocity=64 time=2\n",
      "note_on channel=9 note=69 velocity=49 time=8\n",
      "note_off channel=9 note=69 velocity=64 time=0\n",
      "note_off channel=4 note=71 velocity=64 time=1\n",
      "note_on channel=4 note=69 velocity=94 time=0\n",
      "note_off channel=5 note=71 velocity=64 time=0\n",
      "note_on channel=5 note=69 velocity=94 time=0\n",
      "note_on channel=9 note=54 velocity=33 time=0\n",
      "note_off channel=9 note=54 velocity=64 time=0\n",
      "note_on channel=10 note=62 velocity=65 time=0\n",
      "note_on channel=10 note=57 velocity=61 time=0\n",
      "note_on channel=12 note=69 velocity=65 time=0\n",
      "note_off channel=12 note=71 velocity=64 time=1\n",
      "note_off channel=6 note=62 velocity=64 time=9\n",
      "note_off channel=1 note=33 velocity=64 time=1\n",
      "note_off channel=6 note=69 velocity=64 time=5\n",
      "note_off channel=6 note=66 velocity=64 time=1\n",
      "note_off channel=5 note=69 velocity=64 time=6\n",
      "note_on channel=1 note=33 velocity=97 time=0\n",
      "note_off channel=4 note=69 velocity=64 time=1\n",
      "note_on channel=4 note=71 velocity=120 time=0\n",
      "note_on channel=5 note=71 velocity=120 time=0\n",
      "note_on channel=9 note=36 velocity=112 time=0\n",
      "note_off channel=9 note=36 velocity=64 time=0\n",
      "note_on channel=9 note=42 velocity=73 time=0\n",
      "note_off channel=9 note=42 velocity=64 time=0\n",
      "note_on channel=9 note=69 velocity=35 time=0\n",
      "note_off channel=9 note=69 velocity=64 time=0\n",
      "note_on channel=6 note=57 velocity=59 time=0\n",
      "note_on channel=10 note=52 velocity=58 time=0\n",
      "note_off channel=7 note=62 velocity=64 time=0\n",
      "note_off channel=7 note=54 velocity=64 time=0\n",
      "note_on channel=7 note=57 velocity=72 time=0\n",
      "note_on channel=7 note=61 velocity=72 time=0\n",
      "note_on channel=7 note=64 velocity=72 time=0\n",
      "note_off channel=10 note=57 velocity=64 time=1\n",
      "note_on channel=12 note=71 velocity=98 time=1\n",
      "note_off channel=10 note=62 velocity=64 time=4\n",
      "note_off channel=12 note=69 velocity=64 time=2\n",
      "note_off channel=6 note=57 velocity=64 time=15\n",
      "note_on channel=9 note=42 velocity=41 time=1\n",
      "note_off channel=9 note=42 velocity=64 time=0\n",
      "note_on channel=9 note=69 velocity=43 time=0\n",
      "note_off channel=9 note=69 velocity=64 time=0\n",
      "note_on channel=0 note=61 velocity=64 time=0\n",
      "note_on channel=0 note=69 velocity=73 time=0\n",
      "note_on channel=6 note=69 velocity=65 time=0\n",
      "note_on channel=6 note=64 velocity=76 time=0\n",
      "note_on channel=6 note=61 velocity=58 time=0\n",
      "note_on channel=10 note=61 velocity=59 time=0\n",
      "note_on channel=10 note=57 velocity=55 time=0\n",
      "control_change channel=12 control=1 value=15 time=1\n",
      "control_change channel=12 control=1 value=16 time=6\n",
      "note_off channel=10 note=57 velocity=64 time=6\n",
      "note_off channel=10 note=52 velocity=64 time=0\n",
      "note_off channel=6 note=64 velocity=64 time=3\n",
      "note_off channel=1 note=33 velocity=64 time=5\n",
      "note_off channel=0 note=61 velocity=64 time=1\n",
      "note_on channel=9 note=54 velocity=68 time=1\n",
      "note_off channel=9 note=54 velocity=64 time=0\n",
      "note_off channel=0 note=69 velocity=64 time=0\n",
      "note_on channel=9 note=46 velocity=40 time=1\n",
      "note_off channel=9 note=46 velocity=64 time=0\n",
      "note_on channel=9 note=69 velocity=74 time=0\n",
      "note_off channel=9 note=69 velocity=64 time=0\n",
      "note_on channel=10 note=57 velocity=59 time=0\n",
      "note_on channel=6 note=64 velocity=81 time=1\n",
      "note_on channel=9 note=36 velocity=98 time=22\n",
      "note_off channel=9 note=36 velocity=64 time=0\n",
      "note_off channel=5 note=71 velocity=64 time=1\n",
      "note_on channel=9 note=69 velocity=39 time=0\n",
      "note_off channel=9 note=69 velocity=64 time=0\n",
      "note_on channel=9 note=54 velocity=34 time=0\n",
      "note_off channel=9 note=54 velocity=64 time=0\n",
      "note_on channel=1 note=33 velocity=91 time=0\n",
      "note_on channel=6 note=57 velocity=63 time=0\n",
      "note_on channel=10 note=52 velocity=61 time=0\n",
      "note_off channel=4 note=71 velocity=64 time=1\n",
      "note_on channel=4 note=73 velocity=118 time=0\n",
      "note_on channel=5 note=73 velocity=118 time=0\n",
      "note_off channel=6 note=69 velocity=64 time=0\n",
      "note_off channel=10 note=61 velocity=64 time=0\n",
      "note_off channel=12 note=71 velocity=64 time=1\n",
      "note_on channel=12 note=73 velocity=83 time=0\n",
      "note_off channel=6 note=61 velocity=64 time=3\n",
      "note_off channel=6 note=64 velocity=64 time=0\n",
      "note_off channel=10 note=57 velocity=64 time=0\n",
      "control_change channel=12 control=1 value=17 time=3\n",
      "control_change channel=12 control=1 value=18 time=4\n",
      "control_change channel=12 control=1 value=19 time=2\n",
      "note_off channel=1 note=33 velocity=64 time=1\n",
      "note_off channel=10 note=52 velocity=64 time=0\n",
      "note_off channel=6 note=57 velocity=64 time=1\n",
      "control_change channel=12 control=1 value=21 time=0\n",
      "control_change channel=12 control=1 value=22 time=1\n",
      "control_change channel=12 control=1 value=23 time=2\n",
      "control_change channel=12 control=1 value=25 time=1\n",
      "control_change channel=12 control=1 value=26 time=2\n",
      "note_on channel=9 note=40 velocity=104 time=1\n",
      "note_off channel=9 note=40 velocity=64 time=0\n",
      "note_on channel=9 note=42 velocity=59 time=0\n",
      "note_off channel=9 note=42 velocity=64 time=0\n",
      "note_on channel=0 note=69 velocity=81 time=0\n",
      "note_on channel=0 note=61 velocity=73 time=0\n",
      "note_on channel=1 note=33 velocity=96 time=1\n",
      "note_on channel=6 note=69 velocity=74 time=0\n",
      "note_on channel=6 note=64 velocity=74 time=0\n",
      "note_on channel=6 note=61 velocity=60 time=0\n",
      "note_on channel=10 note=57 velocity=66 time=0\n",
      "note_on channel=10 note=61 velocity=66 time=0\n",
      "control_change channel=12 control=1 value=28 time=0\n",
      "note_on channel=9 note=69 velocity=42 time=1\n",
      "note_off channel=9 note=69 velocity=64 time=0\n",
      "control_change channel=12 control=1 value=29 time=1\n",
      "control_change channel=12 control=1 value=30 time=1\n",
      "control_change channel=12 control=1 value=32 time=1\n",
      "control_change channel=12 control=1 value=33 time=2\n",
      "control_change channel=12 control=1 value=34 time=1\n",
      "control_change channel=12 control=1 value=36 time=1\n",
      "control_change channel=12 control=1 value=38 time=1\n",
      "control_change channel=12 control=1 value=39 time=2\n",
      "control_change channel=12 control=1 value=41 time=1\n",
      "control_change channel=12 control=1 value=42 time=2\n",
      "control_change channel=12 control=1 value=43 time=3\n",
      "control_change channel=12 control=1 value=44 time=2\n",
      "note_off channel=6 note=64 velocity=64 time=2\n",
      "note_off channel=10 note=57 velocity=64 time=0\n",
      "control_change channel=12 control=1 value=45 time=0\n",
      "note_off channel=6 note=69 velocity=64 time=1\n",
      "note_off channel=10 note=61 velocity=64 time=0\n",
      "note_on channel=6 note=57 velocity=63 time=1\n",
      "control_change channel=12 control=1 value=46 time=0\n",
      "note_on channel=10 note=52 velocity=53 time=1\n",
      "control_change channel=12 control=1 value=47 time=0\n",
      "note_on channel=9 note=69 velocity=36 time=1\n",
      "note_off channel=9 note=69 velocity=64 time=0\n",
      "note_off channel=6 note=61 velocity=64 time=0\n",
      "control_change channel=12 control=1 value=48 time=0\n",
      "note_off channel=1 note=33 velocity=64 time=1\n",
      "note_off channel=0 note=61 velocity=64 time=1\n",
      "note_off channel=0 note=69 velocity=64 time=1\n",
      "control_change channel=12 control=1 value=49 time=0\n",
      "control_change channel=12 control=1 value=50 time=2\n",
      "control_change channel=12 control=1 value=51 time=3\n",
      "control_change channel=12 control=1 value=52 time=4\n",
      "control_change channel=12 control=1 value=53 time=3\n",
      "control_change channel=12 control=1 value=54 time=3\n",
      "control_change channel=12 control=1 value=55 time=2\n",
      "note_off channel=6 note=57 velocity=64 time=1\n",
      "note_on channel=9 note=36 velocity=104 time=1\n",
      "note_off channel=9 note=36 velocity=64 time=0\n",
      "note_on channel=9 note=46 velocity=49 time=0\n",
      "note_off channel=9 note=46 velocity=64 time=0\n",
      "note_on channel=9 note=54 velocity=78 time=0\n",
      "note_off channel=9 note=54 velocity=64 time=0\n",
      "note_on channel=10 note=57 velocity=63 time=0\n",
      "note_on channel=10 note=61 velocity=63 time=0\n",
      "note_on channel=1 note=33 velocity=95 time=1\n",
      "note_on channel=6 note=64 velocity=74 time=0\n",
      "note_on channel=6 note=69 velocity=73 time=0\n",
      "note_on channel=6 note=61 velocity=59 time=0\n",
      "note_on channel=9 note=69 velocity=74 time=1\n",
      "note_off channel=9 note=69 velocity=64 time=0\n",
      "note_off channel=10 note=52 velocity=64 time=0\n",
      "control_change channel=12 control=1 value=56 time=2\n",
      "note_off channel=6 note=64 velocity=64 time=9\n",
      "note_off channel=10 note=57 velocity=64 time=3\n",
      "note_off channel=10 note=61 velocity=64 time=2\n",
      "note_on channel=0 note=61 velocity=70 time=6\n",
      "note_on channel=10 note=57 velocity=57 time=0\n",
      "note_on channel=10 note=61 velocity=49 time=0\n",
      "note_on channel=9 note=69 velocity=42 time=1\n",
      "note_off channel=9 note=69 velocity=64 time=0\n",
      "note_on channel=9 note=54 velocity=29 time=0\n",
      "note_off channel=9 note=54 velocity=64 time=0\n",
      "note_on channel=0 note=69 velocity=79 time=0\n",
      "note_on channel=6 note=64 velocity=70 time=0\n",
      "note_on channel=9 note=42 velocity=43 time=23\n",
      "note_off channel=9 note=42 velocity=64 time=0\n",
      "note_off channel=10 note=61 velocity=64 time=0\n",
      "note_off channel=10 note=57 velocity=64 time=0\n",
      "note_on channel=9 note=36 velocity=110 time=1\n",
      "note_off channel=9 note=36 velocity=64 time=0\n",
      "note_on channel=9 note=69 velocity=44 time=0\n",
      "note_off channel=9 note=69 velocity=64 time=0\n",
      "note_off channel=6 note=64 velocity=64 time=0\n",
      "note_off channel=6 note=61 velocity=64 time=0\n",
      "note_off channel=6 note=69 velocity=64 time=0\n",
      "note_on channel=6 note=57 velocity=59 time=0\n",
      "note_on channel=10 note=52 velocity=11 time=3\n",
      "note_off channel=10 note=52 velocity=64 time=8\n",
      "note_off channel=1 note=33 velocity=64 time=1\n",
      "note_off channel=6 note=57 velocity=64 time=4\n",
      "note_on channel=6 note=61 velocity=76 time=6\n",
      "note_on channel=6 note=69 velocity=76 time=0\n",
      "note_on channel=10 note=57 velocity=63 time=0\n",
      "note_on channel=6 note=64 velocity=76 time=1\n",
      "note_on channel=10 note=61 velocity=61 time=0\n",
      "note_on channel=9 note=69 velocity=41 time=1\n",
      "note_off channel=9 note=69 velocity=64 time=0\n",
      "control_change channel=12 control=1 value=55 time=0\n",
      "note_off channel=10 note=57 velocity=64 time=10\n",
      "note_off channel=10 note=61 velocity=64 time=3\n",
      "note_off channel=6 note=64 velocity=64 time=1\n",
      "note_off channel=6 note=69 velocity=64 time=0\n",
      "note_on channel=10 note=61 velocity=59 time=8\n",
      "note_on channel=10 note=57 velocity=63 time=0\n",
      "note_on channel=9 note=46 velocity=55 time=1\n",
      "note_off channel=9 note=46 velocity=64 time=0\n",
      "note_on channel=9 note=54 velocity=63 time=0\n",
      "note_off channel=9 note=54 velocity=64 time=0\n",
      "note_on channel=1 note=40 velocity=82 time=0\n",
      "note_on channel=6 note=69 velocity=63 time=0\n",
      "note_on channel=6 note=64 velocity=76 time=0\n",
      "note_on channel=9 note=69 velocity=66 time=1\n",
      "note_off channel=9 note=69 velocity=64 time=0\n",
      "note_off channel=0 note=69 velocity=64 time=3\n",
      "note_off channel=0 note=61 velocity=64 time=7\n",
      "note_off channel=6 note=64 velocity=64 time=9\n",
      "note_off channel=1 note=40 velocity=64 time=2\n",
      "note_on channel=9 note=69 velocity=39 time=2\n",
      "note_off channel=9 note=69 velocity=64 time=0\n",
      "note_on channel=9 note=54 velocity=35 time=1\n",
      "note_off channel=9 note=54 velocity=64 time=0\n",
      "note_on channel=1 note=42 velocity=70 time=0\n",
      "note_on channel=0 note=85 velocity=87 time=0\n",
      "note_on channel=0 note=88 velocity=87 time=0\n",
      "note_on channel=0 note=93 velocity=87 time=0\n",
      "note_on channel=6 note=57 velocity=62 time=0\n",
      "note_off channel=10 note=57 velocity=64 time=0\n",
      "note_on channel=10 note=52 velocity=58 time=0\n",
      "note_off channel=10 note=61 velocity=64 time=2\n",
      "control_change channel=12 control=1 value=54 time=1\n",
      "note_off channel=6 note=69 velocity=64 time=3\n",
      "note_off channel=6 note=61 velocity=64 time=0\n",
      "control_change channel=12 control=1 value=53 time=2\n",
      "note_off channel=0 note=85 velocity=64 time=3\n",
      "note_off channel=0 note=88 velocity=64 time=2\n",
      "note_off channel=0 note=93 velocity=64 time=1\n",
      "control_change channel=12 control=1 value=52 time=3\n",
      "note_off channel=10 note=52 velocity=64 time=3\n",
      "note_off channel=6 note=57 velocity=64 time=1\n",
      "note_on channel=6 note=69 velocity=65 time=2\n",
      "note_on channel=10 note=57 velocity=63 time=0\n",
      "note_on channel=10 note=61 velocity=60 time=0\n",
      "note_on channel=9 note=40 velocity=111 time=1\n",
      "note_off channel=9 note=40 velocity=64 time=0\n",
      "note_on channel=9 note=42 velocity=54 time=0\n",
      "note_off channel=9 note=42 velocity=64 time=0\n",
      "note_on channel=9 note=69 velocity=46 time=0\n",
      "note_off channel=9 note=69 velocity=64 time=0\n",
      "note_off channel=1 note=42 velocity=64 time=0\n",
      "note_on channel=1 note=45 velocity=87 time=0\n",
      "note_on channel=0 note=85 velocity=96 time=0\n",
      "note_on channel=0 note=88 velocity=96 time=0\n",
      "note_on channel=0 note=93 velocity=96 time=0\n",
      "note_on channel=6 note=64 velocity=77 time=0\n",
      "note_on channel=6 note=61 velocity=60 time=0\n",
      "note_off channel=6 note=69 velocity=64 time=22\n",
      "note_off channel=10 note=61 velocity=64 time=0\n",
      "note_off channel=10 note=57 velocity=64 time=1\n",
      "note_on channel=9 note=69 velocity=42 time=1\n",
      "note_off channel=9 note=69 velocity=64 time=0\n",
      "note_off channel=6 note=64 velocity=64 time=0\n",
      "note_on channel=10 note=52 velocity=56 time=0\n",
      "note_off channel=6 note=61 velocity=64 time=4\n",
      "note_off channel=10 note=52 velocity=64 time=8\n",
      "note_on channel=9 note=54 velocity=63 time=11\n",
      "note_off channel=9 note=54 velocity=64 time=0\n",
      "note_on channel=10 note=57 velocity=67 time=0\n",
      "note_on channel=9 note=46 velocity=48 time=1\n",
      "note_off channel=9 note=46 velocity=64 time=0\n",
      "note_on channel=9 note=69 velocity=65 time=0\n",
      "note_off channel=9 note=69 velocity=64 time=0\n",
      "note_on channel=6 note=61 velocity=60 time=0\n",
      "note_on channel=10 note=61 velocity=63 time=0\n",
      "note_on channel=6 note=64 velocity=70 time=1\n",
      "note_on channel=6 note=69 velocity=74 time=0\n",
      "note_off channel=0 note=93 velocity=64 time=1\n",
      "note_off channel=0 note=88 velocity=64 time=0\n",
      "note_off channel=0 note=85 velocity=64 time=3\n",
      "note_off channel=10 note=61 velocity=64 time=12\n",
      "note_off channel=10 note=57 velocity=64 time=3\n",
      "note_on channel=9 note=69 velocity=38 time=3\n",
      "note_off channel=9 note=69 velocity=64 time=0\n",
      "note_on channel=9 note=54 velocity=37 time=1\n",
      "note_off channel=9 note=54 velocity=64 time=0\n",
      "note_on channel=0 note=88 velocity=94 time=0\n",
      "note_on channel=10 note=57 velocity=59 time=0\n",
      "note_on channel=0 note=83 velocity=94 time=1\n",
      "note_on channel=0 note=92 velocity=94 time=0\n",
      "note_on channel=10 note=61 velocity=65 time=0\n",
      "note_off channel=6 note=64 velocity=64 time=3\n",
      "note_off channel=6 note=61 velocity=64 time=6\n",
      "note_off channel=0 note=92 velocity=64 time=2\n",
      "note_off channel=0 note=88 velocity=64 time=0\n",
      "note_off channel=0 note=83 velocity=64 time=1\n",
      "note_off channel=6 note=69 velocity=64 time=0\n",
      "note_off channel=1 note=45 velocity=64 time=9\n",
      "note_on channel=9 note=42 velocity=57 time=1\n",
      "note_off channel=9 note=42 velocity=64 time=0\n",
      "note_on channel=9 note=69 velocity=45 time=0\n",
      "note_off channel=9 note=69 velocity=64 time=0\n",
      "note_on channel=9 note=36 velocity=110 time=1\n",
      "note_off channel=9 note=36 velocity=64 time=0\n",
      "note_on channel=1 note=33 velocity=105 time=0\n",
      "note_off channel=7 note=64 velocity=64 time=0\n",
      "note_off channel=7 note=61 velocity=64 time=0\n",
      "note_on channel=7 note=54 velocity=65 time=0\n",
      "note_on channel=7 note=62 velocity=65 time=0\n",
      "note_on channel=0 note=92 velocity=93 time=1\n",
      "note_on channel=0 note=83 velocity=93 time=0\n",
      "note_on channel=0 note=88 velocity=93 time=0\n",
      "note_on channel=6 note=57 velocity=63 time=0\n",
      "note_on channel=10 note=54 velocity=61 time=0\n",
      "note_off channel=10 note=57 velocity=64 time=6\n",
      "note_off channel=10 note=61 velocity=64 time=3\n",
      "control_change channel=12 control=1 value=51 time=2\n",
      "note_off channel=10 note=54 velocity=64 time=10\n",
      "note_on channel=9 note=42 velocity=41 time=1\n",
      "note_off channel=9 note=42 velocity=64 time=0\n",
      "note_on channel=9 note=69 velocity=40 time=1\n",
      "note_off channel=9 note=69 velocity=64 time=0\n",
      "note_on channel=6 note=66 velocity=63 time=0\n",
      "note_on channel=6 note=62 velocity=63 time=1\n",
      "note_on channel=6 note=69 velocity=61 time=0\n",
      "note_on channel=10 note=62 velocity=83 time=0\n",
      "note_on channel=10 note=57 velocity=64 time=0\n",
      "control_change channel=12 control=1 value=50 time=0\n",
      "note_off channel=6 note=57 velocity=64 time=3\n",
      "control_change channel=12 control=1 value=49 time=0\n",
      "control_change channel=12 control=1 value=48 time=4\n",
      "control_change channel=12 control=1 value=47 time=4\n",
      "note_off channel=6 note=62 velocity=64 time=1\n",
      "note_off channel=1 note=33 velocity=64 time=1\n",
      "note_off channel=6 note=66 velocity=64 time=1\n",
      "note_off channel=10 note=57 velocity=64 time=1\n",
      "note_off channel=0 note=83 velocity=64 time=5\n",
      "control_change channel=12 control=1 value=46 time=0\n",
      "note_on channel=9 note=54 velocity=68 time=2\n",
      "note_off channel=9 note=54 velocity=64 time=0\n",
      "note_on channel=9 note=46 velocity=45 time=1\n",
      "note_off channel=9 note=46 velocity=64 time=0\n",
      "note_on channel=9 note=69 velocity=67 time=0\n",
      "note_off channel=9 note=69 velocity=64 time=0\n",
      "note_on channel=6 note=62 velocity=60 time=0\n",
      "note_on channel=6 note=66 velocity=71 time=0\n",
      "note_on channel=10 note=57 velocity=61 time=1\n",
      "control_change channel=12 control=1 value=45 time=0\n",
      "note_off channel=0 note=92 velocity=64 time=2\n",
      "control_change channel=12 control=1 value=44 time=1\n",
      "control_change channel=12 control=1 value=43 time=3\n",
      "note_off channel=0 note=88 velocity=64 time=2\n",
      "control_change channel=12 control=1 value=42 time=0\n",
      "control_change channel=12 control=1 value=41 time=3\n",
      "control_change channel=12 control=1 value=40 time=3\n",
      "note_off channel=6 note=62 velocity=64 time=1\n",
      "note_off channel=6 note=69 velocity=64 time=1\n",
      "note_off channel=6 note=66 velocity=64 time=2\n",
      "note_on channel=9 note=36 velocity=102 time=5\n",
      "note_off channel=9 note=36 velocity=64 time=0\n",
      "note_on channel=9 note=69 velocity=39 time=0\n",
      "note_off channel=9 note=69 velocity=64 time=0\n",
      "note_on channel=9 note=54 velocity=33 time=0\n",
      "note_off channel=9 note=54 velocity=64 time=0\n",
      "note_on channel=1 note=33 velocity=85 time=0\n",
      "note_on channel=6 note=57 velocity=61 time=0\n",
      "note_on channel=0 note=90 velocity=91 time=1\n",
      "note_on channel=0 note=81 velocity=91 time=0\n",
      "note_on channel=0 note=86 velocity=91 time=0\n",
      "note_off channel=10 note=57 velocity=64 time=0\n",
      "note_on channel=10 note=54 velocity=57 time=0\n",
      "note_off channel=10 note=62 velocity=64 time=2\n",
      "control_change channel=12 control=1 value=39 time=4\n",
      "note_off channel=0 note=86 velocity=64 time=4\n",
      "note_off channel=1 note=33 velocity=64 time=1\n",
      "note_off channel=0 note=81 velocity=64 time=1\n",
      "note_off channel=0 note=90 velocity=64 time=1\n",
      "control_change channel=12 control=1 value=38 time=0\n",
      "note_off channel=10 note=54 velocity=64 time=3\n",
      "control_change channel=12 control=1 value=37 time=1\n",
      "note_on channel=1 note=33 velocity=85 time=5\n",
      "note_on channel=9 note=40 velocity=98 time=1\n",
      "note_off channel=9 note=40 velocity=64 time=0\n",
      "note_on channel=9 note=42 velocity=56 time=0\n",
      "note_off channel=9 note=42 velocity=64 time=0\n",
      "note_on channel=9 note=69 velocity=51 time=0\n",
      "note_off channel=9 note=69 velocity=64 time=0\n",
      "note_on channel=0 note=81 velocity=98 time=0\n",
      "note_on channel=0 note=90 velocity=98 time=0\n",
      "note_on channel=0 note=86 velocity=98 time=0\n",
      "note_on channel=6 note=69 velocity=66 time=0\n",
      "note_on channel=6 note=62 velocity=63 time=0\n",
      "note_on channel=6 note=66 velocity=83 time=0\n",
      "note_off channel=6 note=57 velocity=64 time=1\n",
      "note_on channel=10 note=62 velocity=77 time=0\n",
      "note_on channel=10 note=57 velocity=63 time=0\n",
      "note_off channel=6 note=66 velocity=64 time=12\n",
      "note_off channel=6 note=62 velocity=64 time=2\n",
      "note_off channel=6 note=69 velocity=64 time=0\n",
      "note_off channel=10 note=57 velocity=64 time=4\n",
      "note_off channel=1 note=33 velocity=64 time=4\n",
      "note_off channel=10 note=62 velocity=64 time=0\n",
      "note_on channel=6 note=57 velocity=72 time=1\n",
      "note_on channel=9 note=69 velocity=48 time=1\n",
      "note_off channel=9 note=69 velocity=64 time=0\n",
      "control_change channel=12 control=1 value=36 time=5\n",
      "control_change channel=12 control=1 value=35 time=3\n",
      "control_change channel=12 control=1 value=34 time=3\n",
      "note_off channel=6 note=57 velocity=64 time=5\n",
      "note_on channel=6 note=66 velocity=75 time=5\n",
      "note_on channel=6 note=69 velocity=66 time=0\n",
      "note_on channel=6 note=62 velocity=76 time=0\n",
      "note_on channel=9 note=54 velocity=68 time=1\n",
      "note_off channel=9 note=54 velocity=64 time=0\n",
      "note_on channel=1 note=33 velocity=96 time=0\n",
      "note_on channel=9 note=36 velocity=98 time=1\n",
      "note_off channel=9 note=36 velocity=64 time=0\n",
      "note_on channel=9 note=46 velocity=52 time=0\n",
      "note_off channel=9 note=46 velocity=64 time=0\n",
      "note_on channel=9 note=69 velocity=62 time=0\n",
      "note_off channel=9 note=69 velocity=64 time=0\n",
      "note_on channel=10 note=57 velocity=63 time=0\n",
      "note_on channel=10 note=62 velocity=76 time=0\n",
      "note_off channel=6 note=62 velocity=64 time=11\n",
      "note_off channel=6 note=69 velocity=64 time=0\n",
      "note_off channel=6 note=66 velocity=64 time=1\n",
      "note_off channel=10 note=57 velocity=64 time=1\n",
      "note_off channel=10 note=62 velocity=64 time=3\n",
      "note_on channel=6 note=69 velocity=63 time=7\n",
      "note_on channel=6 note=62 velocity=64 time=0\n",
      "note_on channel=6 note=66 velocity=75 time=0\n",
      "control_change channel=12 control=1 value=33 time=0\n",
      "note_on channel=9 note=69 velocity=47 time=1\n",
      "note_off channel=9 note=69 velocity=64 time=0\n",
      "note_on channel=9 note=54 velocity=37 time=0\n",
      "note_off channel=9 note=54 velocity=64 time=0\n",
      "note_on channel=10 note=57 velocity=64 time=0\n",
      "note_on channel=10 note=62 velocity=61 time=1\n",
      "control_change channel=12 control=1 value=32 time=2\n",
      "control_change channel=12 control=1 value=31 time=2\n",
      "note_off channel=1 note=33 velocity=64 time=2\n",
      "control_change channel=12 control=1 value=30 time=0\n",
      "control_change channel=12 control=1 value=29 time=1\n",
      "control_change channel=12 control=1 value=28 time=1\n",
      "control_change channel=12 control=1 value=27 time=2\n",
      "control_change channel=12 control=1 value=24 time=1\n",
      "control_change channel=12 control=1 value=23 time=1\n",
      "control_change channel=12 control=1 value=21 time=1\n",
      "control_change channel=12 control=1 value=20 time=2\n",
      "control_change channel=12 control=1 value=19 time=4\n",
      "note_off channel=6 note=66 velocity=64 time=2\n",
      "control_change channel=12 control=1 value=18 time=0\n",
      "note_off channel=10 note=62 velocity=64 time=1\n",
      "note_off channel=10 note=57 velocity=64 time=0\n",
      "note_on channel=9 note=36 velocity=98 time=1\n",
      "note_off channel=9 note=36 velocity=64 time=0\n",
      "note_on channel=9 note=42 velocity=65 time=0\n",
      "note_off channel=9 note=42 velocity=64 time=0\n",
      "note_on channel=9 note=69 velocity=48 time=0\n",
      "note_off channel=9 note=69 velocity=64 time=0\n",
      "note_off channel=6 note=69 velocity=64 time=0\n",
      "note_on channel=6 note=57 velocity=59 time=0\n",
      "control_change channel=12 control=1 value=17 time=0\n",
      "note_off channel=6 note=62 velocity=64 time=1\n",
      "note_on channel=10 note=54 velocity=38 time=2\n",
      "control_change channel=12 control=1 value=16 time=0\n",
      "control_change channel=12 control=1 value=15 time=13\n",
      "note_off channel=10 note=54 velocity=64 time=2\n",
      "control_change channel=12 control=1 value=14 time=2\n",
      "note_off channel=6 note=57 velocity=64 time=2\n",
      "note_on channel=1 note=33 velocity=74 time=1\n",
      "note_on channel=6 note=69 velocity=73 time=0\n",
      "note_on channel=6 note=62 velocity=70 time=0\n",
      "note_on channel=6 note=66 velocity=81 time=0\n",
      "note_on channel=9 note=40 velocity=104 time=1\n",
      "note_off channel=9 note=40 velocity=64 time=0\n",
      "note_on channel=9 note=69 velocity=48 time=0\n",
      "note_off channel=9 note=69 velocity=64 time=0\n",
      "note_on channel=10 note=62 velocity=75 time=0\n",
      "note_on channel=10 note=57 velocity=67 time=0\n",
      "note_off channel=6 note=66 velocity=64 time=11\n",
      "note_off channel=6 note=62 velocity=64 time=0\n",
      "control_change channel=12 control=1 value=13 time=0\n",
      "control_change channel=12 control=1 value=12 time=1\n",
      "note_off channel=10 note=57 velocity=64 time=2\n",
      "control_change channel=12 control=1 value=11 time=0\n",
      "note_off channel=6 note=69 velocity=64 time=1\n",
      "control_change channel=12 control=1 value=10 time=0\n",
      "control_change channel=12 control=1 value=9 time=1\n",
      "control_change channel=12 control=1 value=8 time=1\n",
      "control_change channel=12 control=1 value=7 time=3\n",
      "note_off channel=1 note=33 velocity=64 time=2\n",
      "note_on channel=1 note=28 velocity=70 time=1\n",
      "note_on channel=6 note=62 velocity=63 time=0\n",
      "note_on channel=9 note=69 velocity=64 time=1\n",
      "note_off channel=9 note=69 velocity=64 time=0\n",
      "note_on channel=9 note=54 velocity=68 time=0\n",
      "note_off channel=9 note=54 velocity=64 time=0\n",
      "note_on channel=6 note=69 velocity=63 time=0\n",
      "note_on channel=6 note=66 velocity=81 time=0\n",
      "note_on channel=10 note=57 velocity=59 time=0\n",
      "control_change channel=12 control=1 value=6 time=4\n",
      "control_change channel=12 control=1 value=5 time=4\n",
      "control_change channel=12 control=1 value=4 time=3\n",
      "control_change channel=12 control=1 value=3 time=11\n",
      "note_off channel=1 note=28 velocity=64 time=1\n",
      "note_off channel=10 note=57 velocity=64 time=0\n",
      "note_off channel=10 note=62 velocity=64 time=0\n",
      "note_on channel=10 note=54 velocity=59 time=0\n",
      "note_on channel=9 note=69 velocity=45 time=1\n",
      "note_off channel=9 note=69 velocity=64 time=0\n",
      "note_on channel=9 note=54 velocity=38 time=0\n",
      "note_off channel=9 note=54 velocity=64 time=0\n",
      "note_on channel=1 note=29 velocity=74 time=0\n",
      "note_off channel=6 note=69 velocity=64 time=0\n",
      "note_on channel=6 note=57 velocity=64 time=0\n",
      "control_change channel=12 control=1 value=2 time=0\n",
      "control_change channel=12 control=1 value=1 time=1\n",
      "note_off channel=6 note=66 velocity=64 time=2\n",
      "note_off channel=6 note=62 velocity=64 time=0\n",
      "note_off channel=1 note=29 velocity=64 time=17\n",
      "note_on channel=6 note=69 velocity=71 time=3\n",
      "note_on channel=6 note=66 velocity=77 time=0\n",
      "note_on channel=6 note=62 velocity=69 time=0\n",
      "note_off channel=10 note=54 velocity=64 time=0\n",
      "note_on channel=9 note=40 velocity=107 time=1\n",
      "note_off channel=9 note=40 velocity=64 time=0\n",
      "note_on channel=9 note=42 velocity=67 time=0\n",
      "note_off channel=9 note=42 velocity=64 time=0\n",
      "note_on channel=9 note=69 velocity=55 time=0\n",
      "note_off channel=9 note=69 velocity=64 time=0\n",
      "note_on channel=1 note=30 velocity=79 time=0\n",
      "note_on channel=10 note=57 velocity=67 time=0\n",
      "note_on channel=10 note=62 velocity=71 time=0\n",
      "note_off channel=6 note=57 velocity=64 time=1\n",
      "note_off channel=5 note=73 velocity=64 time=3\n",
      "control_change channel=12 control=1 value=0 time=1\n",
      "note_off channel=10 note=62 velocity=64 time=15\n",
      "note_off channel=6 note=69 velocity=64 time=1\n",
      "note_off channel=6 note=66 velocity=64 time=0\n",
      "note_off channel=6 note=62 velocity=64 time=1\n",
      "note_off channel=10 note=57 velocity=64 time=0\n",
      "note_off channel=12 note=73 velocity=64 time=0\n",
      "note_on channel=9 note=69 velocity=40 time=2\n",
      "note_off channel=9 note=69 velocity=64 time=0\n",
      "note_on channel=10 note=54 velocity=60 time=0\n",
      "note_off channel=10 note=54 velocity=64 time=11\n",
      "note_off channel=4 note=73 velocity=64 time=1\n",
      "note_off channel=1 note=30 velocity=64 time=10\n",
      "note_on channel=9 note=54 velocity=63 time=1\n",
      "note_off channel=9 note=54 velocity=64 time=0\n",
      "note_on channel=6 note=66 velocity=77 time=0\n",
      "note_on channel=6 note=69 velocity=75 time=0\n",
      "note_on channel=10 note=57 velocity=65 time=0\n",
      "note_on channel=10 note=62 velocity=77 time=0\n",
      "note_on channel=9 note=46 velocity=47 time=1\n",
      "note_off channel=9 note=46 velocity=64 time=0\n",
      "note_on channel=9 note=69 velocity=65 time=0\n",
      "note_off channel=9 note=69 velocity=64 time=0\n",
      "note_on channel=1 note=28 velocity=76 time=0\n",
      "note_on channel=6 note=62 velocity=76 time=0\n",
      "note_off channel=0 note=81 velocity=64 time=8\n",
      "note_off channel=0 note=86 velocity=64 time=4\n",
      "note_off channel=0 note=90 velocity=64 time=0\n",
      "note_off channel=10 note=57 velocity=64 time=3\n",
      "note_on channel=10 note=57 velocity=58 time=8\n",
      "note_on channel=9 note=69 velocity=42 time=1\n",
      "note_off channel=9 note=69 velocity=64 time=0\n",
      "note_on channel=9 note=54 velocity=33 time=0\n",
      "note_off channel=9 note=54 velocity=64 time=0\n",
      "note_off channel=1 note=28 velocity=64 time=0\n",
      "note_on channel=1 note=30 velocity=75 time=0\n",
      "note_off channel=6 note=62 velocity=64 time=1\n",
      "note_off channel=6 note=66 velocity=64 time=10\n",
      "note_off channel=6 note=69 velocity=64 time=1\n",
      "note_off channel=1 note=30 velocity=64 time=4\n",
      "note_off channel=10 note=57 velocity=64 time=3\n",
      "note_on channel=4 note=73 velocity=116 time=4\n",
      "note_on channel=5 note=73 velocity=116 time=0\n",
      "note_on channel=1 note=33 velocity=86 time=0\n",
      "note_off channel=10 note=62 velocity=64 time=0\n",
      "note_on channel=10 note=52 velocity=61 time=0\n",
      "note_on channel=9 note=36 velocity=111 time=1\n",
      "note_off channel=9 note=36 velocity=64 time=0\n",
      "note_on channel=9 note=42 velocity=61 time=0\n",
      "note_off channel=9 note=42 velocity=64 time=0\n",
      "note_on channel=9 note=69 velocity=37 time=0\n",
      "note_off channel=9 note=69 velocity=64 time=0\n",
      "note_on channel=6 note=57 velocity=67 time=0\n",
      "note_off channel=7 note=62 velocity=64 time=0\n",
      "note_off channel=7 note=54 velocity=64 time=0\n",
      "note_on channel=7 note=52 velocity=76 time=0\n",
      "note_on channel=7 note=61 velocity=76 time=0\n",
      "note_on channel=12 note=73 velocity=90 time=0\n",
      "control_change channel=12 control=1 value=2 time=17\n",
      "control_change channel=12 control=1 value=4 time=1\n",
      "control_change channel=12 control=1 value=6 time=1\n",
      "control_change channel=12 control=1 value=11 time=1\n",
      "control_change channel=12 control=1 value=13 time=1\n",
      "note_on channel=10 note=57 velocity=67 time=1\n",
      "control_change channel=12 control=1 value=14 time=0\n",
      "note_on channel=10 note=61 velocity=61 time=1\n",
      "control_change channel=12 control=1 value=15 time=0\n",
      "note_on channel=9 note=42 velocity=40 time=1\n",
      "note_off channel=9 note=42 velocity=64 time=0\n",
      "note_on channel=9 note=69 velocity=40 time=0\n",
      "note_off channel=9 note=69 velocity=64 time=0\n",
      "note_on channel=0 note=69 velocity=73 time=0\n",
      "note_off channel=6 note=57 velocity=64 time=0\n",
      "note_on channel=6 note=64 velocity=77 time=0\n",
      "note_on channel=6 note=69 velocity=72 time=0\n",
      "note_on channel=6 note=61 velocity=59 time=0\n",
      "control_change channel=12 control=1 value=17 time=0\n",
      "note_on channel=0 note=64 velocity=79 time=1\n",
      "note_on channel=0 note=61 velocity=66 time=0\n",
      "control_change channel=12 control=1 value=18 time=1\n",
      "control_change channel=12 control=1 value=20 time=2\n",
      "control_change channel=12 control=1 value=22 time=2\n",
      "control_change channel=12 control=1 value=23 time=1\n",
      "control_change channel=12 control=1 value=26 time=1\n",
      "control_change channel=12 control=1 value=28 time=1\n",
      "control_change channel=12 control=1 value=29 time=1\n",
      "control_change channel=12 control=1 value=32 time=1\n",
      "note_off channel=6 note=64 velocity=64 time=1\n",
      "note_off channel=10 note=61 velocity=64 time=0\n",
      "note_off channel=10 note=57 velocity=64 time=0\n",
      "control_change channel=12 control=1 value=34 time=0\n",
      "control_change channel=12 control=1 value=35 time=1\n",
      "note_off channel=6 note=69 velocity=64 time=1\n",
      "control_change channel=12 control=1 value=37 time=0\n",
      "control_change channel=12 control=1 value=38 time=1\n",
      "note_off channel=0 note=64 velocity=64 time=1\n",
      "note_off channel=6 note=61 velocity=64 time=0\n",
      "note_off channel=10 note=52 velocity=64 time=0\n",
      "control_change channel=12 control=1 value=39 time=0\n",
      "control_change channel=12 control=1 value=40 time=1\n",
      "note_off channel=0 note=69 velocity=64 time=1\n",
      "control_change channel=12 control=1 value=41 time=0\n",
      "control_change channel=12 control=1 value=42 time=2\n",
      "note_on channel=10 note=57 velocity=66 time=2\n",
      "note_on channel=9 note=54 velocity=65 time=1\n",
      "note_off channel=9 note=54 velocity=64 time=0\n",
      "note_off channel=1 note=33 velocity=64 time=0\n",
      "note_on channel=6 note=69 velocity=59 time=0\n",
      "note_on channel=6 note=61 velocity=48 time=0\n",
      "note_on channel=10 note=61 velocity=61 time=0\n",
      "note_on channel=9 note=46 velocity=45 time=1\n",
      "note_off channel=9 note=46 velocity=64 time=0\n",
      "note_on channel=9 note=69 velocity=64 time=0\n",
      "note_off channel=9 note=69 velocity=64 time=0\n",
      "note_on channel=6 note=64 velocity=75 time=0\n",
      "control_change channel=12 control=1 value=43 time=7\n",
      "note_off channel=0 note=61 velocity=64 time=4\n",
      "note_on channel=9 note=54 velocity=40 time=12\n",
      "note_off channel=9 note=54 velocity=64 time=0\n",
      "note_off channel=10 note=61 velocity=64 time=0\n",
      "note_on channel=10 note=52 velocity=60 time=0\n",
      "note_on channel=9 note=36 velocity=102 time=1\n",
      "note_off channel=9 note=36 velocity=64 time=0\n",
      "note_on channel=9 note=69 velocity=39 time=0\n",
      "note_off channel=9 note=69 velocity=64 time=0\n",
      "note_on channel=1 note=33 velocity=82 time=0\n",
      "note_off channel=6 note=69 velocity=64 time=0\n",
      "note_on channel=6 note=57 velocity=65 time=0\n",
      "note_off channel=10 note=57 velocity=64 time=0\n",
      "note_off channel=6 note=64 velocity=64 time=3\n",
      "note_off channel=6 note=61 velocity=64 time=4\n",
      "note_off channel=1 note=33 velocity=64 time=9\n",
      "note_off channel=6 note=57 velocity=64 time=0\n",
      "note_off channel=10 note=52 velocity=64 time=3\n",
      "control_change channel=12 control=1 value=44 time=1\n",
      "note_on channel=0 note=69 velocity=82 time=3\n",
      "note_on channel=0 note=61 velocity=67 time=0\n",
      "note_on channel=9 note=40 velocity=102 time=1\n",
      "note_off channel=9 note=40 velocity=64 time=0\n",
      "note_on channel=9 note=42 velocity=56 time=0\n",
      "note_off channel=9 note=42 velocity=64 time=0\n",
      "note_on channel=9 note=69 velocity=53 time=0\n",
      "note_off channel=9 note=69 velocity=64 time=0\n",
      "note_on channel=1 note=33 velocity=97 time=0\n",
      "note_on channel=0 note=64 velocity=85 time=0\n",
      "note_on channel=6 note=64 velocity=79 time=0\n",
      "note_on channel=6 note=69 velocity=75 time=0\n",
      "note_on channel=6 note=61 velocity=60 time=0\n",
      "note_on channel=10 note=57 velocity=75 time=0\n",
      "note_on channel=10 note=61 velocity=69 time=0\n",
      "control_change channel=12 control=1 value=45 time=0\n",
      "note_off channel=6 note=69 velocity=64 time=19\n",
      "note_off channel=10 note=61 velocity=64 time=1\n",
      "note_off channel=10 note=57 velocity=64 time=0\n",
      "note_off channel=0 note=64 velocity=64 time=1\n",
      "note_off channel=6 note=64 velocity=64 time=1\n",
      "note_on channel=10 note=52 velocity=57 time=0\n",
      "note_off channel=6 note=61 velocity=64 time=1\n",
      "note_on channel=9 note=69 velocity=40 time=1\n",
      "note_off channel=9 note=69 velocity=64 time=0\n",
      "note_on channel=6 note=57 velocity=59 time=0\n",
      "note_off channel=1 note=33 velocity=64 time=5\n",
      "note_off channel=0 note=69 velocity=64 time=1\n",
      "note_off channel=0 note=61 velocity=64 time=3\n",
      "control_change channel=12 control=1 value=44 time=2\n",
      "note_off channel=6 note=57 velocity=64 time=6\n",
      "note_on channel=6 note=61 velocity=60 time=6\n",
      "note_on channel=9 note=36 velocity=101 time=1\n",
      "note_off channel=9 note=36 velocity=64 time=0\n",
      "note_on channel=9 note=46 velocity=43 time=0\n",
      "note_off channel=9 note=46 velocity=64 time=0\n",
      "note_on channel=9 note=69 velocity=63 time=0\n",
      "note_off channel=9 note=69 velocity=64 time=0\n",
      "note_on channel=9 note=54 velocity=68 time=0\n",
      "note_off channel=9 note=54 velocity=64 time=0\n",
      "note_on channel=1 note=33 velocity=108 time=0\n",
      "note_on channel=6 note=69 velocity=74 time=0\n",
      "note_on channel=6 note=64 velocity=79 time=0\n",
      "note_on channel=10 note=57 velocity=68 time=0\n",
      "note_on channel=10 note=61 velocity=62 time=0\n",
      "note_off channel=10 note=52 velocity=64 time=4\n",
      "note_off channel=10 note=57 velocity=64 time=8\n",
      "control_change channel=12 control=1 value=45 time=0\n",
      "note_off channel=6 note=64 velocity=64 time=2\n",
      "note_off channel=10 note=61 velocity=64 time=1\n",
      "note_off channel=6 note=61 velocity=64 time=1\n",
      "control_change channel=12 control=1 value=46 time=0\n",
      "note_on channel=9 note=69 velocity=39 time=8\n",
      "note_off channel=9 note=69 velocity=64 time=0\n",
      "note_on channel=9 note=54 velocity=41 time=0\n",
      "note_off channel=9 note=54 velocity=64 time=0\n",
      "note_on channel=6 note=61 velocity=54 time=0\n",
      "note_on channel=6 note=64 velocity=76 time=0\n",
      "note_on channel=10 note=57 velocity=62 time=0\n",
      "note_on channel=10 note=61 velocity=56 time=0\n",
      "note_on channel=0 note=69 velocity=80 time=1\n",
      "note_on channel=0 note=61 velocity=72 time=0\n",
      "note_on channel=0 note=64 velocity=89 time=0\n",
      "note_off channel=10 note=57 velocity=64 time=17\n",
      "note_off channel=10 note=61 velocity=64 time=2\n",
      "note_on channel=9 note=36 velocity=107 time=4\n",
      "note_off channel=9 note=36 velocity=64 time=0\n",
      "note_on channel=9 note=42 velocity=65 time=0\n",
      "note_off channel=9 note=42 velocity=64 time=0\n",
      "note_on channel=9 note=69 velocity=39 time=0\n",
      "note_off channel=9 note=69 velocity=64 time=0\n",
      "note_off channel=1 note=33 velocity=64 time=0\n",
      "note_off channel=6 note=64 velocity=64 time=0\n",
      "note_off channel=6 note=69 velocity=64 time=0\n",
      "note_on channel=6 note=57 velocity=58 time=0\n",
      "note_on channel=10 note=52 velocity=58 time=1\n",
      "note_off channel=6 note=61 velocity=64 time=1\n",
      "note_off channel=10 note=52 velocity=64 time=8\n",
      "control_change channel=12 control=1 value=45 time=4\n",
      "note_off channel=6 note=57 velocity=64 time=5\n",
      "control_change channel=12 control=1 value=44 time=1\n",
      "note_on channel=6 note=69 velocity=75 time=3\n",
      "note_on channel=6 note=61 velocity=59 time=0\n",
      "note_on channel=6 note=64 velocity=81 time=0\n",
      "note_on channel=10 note=57 velocity=74 time=0\n",
      "note_on channel=10 note=61 velocity=65 time=0\n",
      "control_change channel=12 control=1 value=43 time=0\n",
      "note_on channel=9 note=69 velocity=46 time=1\n",
      "note_off channel=9 note=69 velocity=64 time=0\n",
      "control_change channel=12 control=1 value=42 time=0\n",
      "control_change channel=12 control=1 value=41 time=1\n",
      "control_change channel=12 control=1 value=39 time=2\n",
      "control_change channel=12 control=1 value=35 time=1\n",
      "control_change channel=12 control=1 value=32 time=1\n",
      "control_change channel=12 control=1 value=29 time=1\n",
      "control_change channel=12 control=1 value=27 time=1\n",
      "control_change channel=12 control=1 value=22 time=1\n",
      "control_change channel=12 control=1 value=20 time=1\n",
      "control_change channel=12 control=1 value=19 time=1\n",
      "control_change channel=12 control=1 value=17 time=1\n",
      "note_off channel=10 note=61 velocity=64 time=1\n",
      "note_off channel=10 note=57 velocity=64 time=0\n",
      "control_change channel=12 control=1 value=14 time=0\n",
      "control_change channel=12 control=1 value=12 time=1\n",
      "note_off channel=6 note=64 velocity=64 time=1\n",
      "control_change channel=12 control=1 value=11 time=0\n",
      "control_change channel=12 control=1 value=10 time=1\n",
      "note_off channel=6 note=69 velocity=64 time=1\n",
      "control_change channel=12 control=1 value=8 time=0\n",
      "control_change channel=12 control=1 value=6 time=1\n",
      "control_change channel=12 control=1 value=5 time=1\n",
      "control_change channel=12 control=1 value=4 time=3\n",
      "note_on channel=1 note=40 velocity=89 time=2\n",
      "note_on channel=6 note=69 velocity=69 time=0\n",
      "note_on channel=10 note=57 velocity=61 time=0\n",
      "note_on channel=10 note=61 velocity=60 time=0\n",
      "note_on channel=9 note=46 velocity=42 time=1\n",
      "note_off channel=9 note=46 velocity=64 time=0\n",
      "note_on channel=9 note=69 velocity=64 time=0\n",
      "note_off channel=9 note=69 velocity=64 time=0\n",
      "note_on channel=9 note=54 velocity=57 time=0\n",
      "note_off channel=9 note=54 velocity=64 time=0\n",
      "note_on channel=6 note=64 velocity=71 time=0\n",
      "control_change channel=12 control=1 value=5 time=10\n",
      "control_change channel=12 control=1 value=6 time=2\n",
      "control_change channel=12 control=1 value=7 time=1\n",
      "control_change channel=12 control=1 value=8 time=1\n",
      "control_change channel=12 control=1 value=9 time=2\n",
      "control_change channel=12 control=1 value=10 time=3\n",
      "note_off channel=6 note=69 velocity=64 time=2\n",
      "note_on channel=9 note=54 velocity=33 time=2\n",
      "note_off channel=9 note=54 velocity=64 time=0\n",
      "note_off channel=1 note=40 velocity=64 time=0\n",
      "note_on channel=1 note=42 velocity=73 time=0\n",
      "note_off channel=10 note=57 velocity=64 time=0\n",
      "note_on channel=9 note=69 velocity=44 time=1\n",
      "note_off channel=9 note=69 velocity=64 time=0\n",
      "note_on channel=6 note=57 velocity=59 time=0\n",
      "note_on channel=10 note=52 velocity=58 time=0\n",
      "note_off channel=10 note=61 velocity=64 time=1\n",
      "note_off channel=6 note=61 velocity=64 time=2\n",
      "note_off channel=6 note=64 velocity=64 time=3\n",
      "control_change channel=12 control=1 value=9 time=6\n",
      "note_off channel=10 note=52 velocity=64 time=2\n",
      "note_off channel=5 note=73 velocity=64 time=9\n",
      "note_off channel=1 note=42 velocity=64 time=0\n",
      "note_on channel=6 note=61 velocity=60 time=0\n",
      "note_on channel=6 note=64 velocity=75 time=0\n",
      "note_on channel=6 note=69 velocity=75 time=0\n",
      "note_on channel=10 note=57 velocity=65 time=0\n",
      "note_on channel=10 note=61 velocity=61 time=0\n",
      "note_off channel=4 note=73 velocity=64 time=1\n",
      "note_on channel=4 note=71 velocity=118 time=0\n",
      "note_on channel=5 note=71 velocity=118 time=0\n",
      "note_on channel=9 note=40 velocity=110 time=0\n",
      "note_off channel=9 note=40 velocity=64 time=0\n",
      "note_on channel=9 note=42 velocity=54 time=0\n",
      "note_off channel=9 note=42 velocity=64 time=0\n",
      "note_on channel=9 note=69 velocity=46 time=0\n",
      "note_off channel=9 note=69 velocity=64 time=0\n",
      "note_on channel=1 note=45 velocity=84 time=0\n",
      "note_on channel=12 note=71 velocity=85 time=0\n",
      "control_change channel=12 control=1 value=8 time=1\n",
      "note_off channel=12 note=73 velocity=64 time=2\n",
      "note_off channel=6 note=57 velocity=64 time=1\n",
      "control_change channel=12 control=1 value=7 time=7\n",
      "note_off channel=6 note=69 velocity=64 time=9\n",
      "note_off channel=10 note=61 velocity=64 time=3\n",
      "note_off channel=10 note=57 velocity=64 time=0\n",
      "note_on channel=9 note=69 velocity=38 time=1\n",
      "note_off channel=9 note=69 velocity=64 time=0\n",
      "note_on channel=10 note=52 velocity=58 time=0\n",
      "note_off channel=6 note=61 velocity=64 time=3\n",
      "note_off channel=6 note=64 velocity=64 time=1\n",
      "note_off channel=10 note=52 velocity=64 time=10\n",
      "note_off channel=0 note=64 velocity=64 time=1\n",
      "note_on channel=9 note=54 velocity=56 time=8\n",
      "note_off channel=9 note=54 velocity=64 time=0\n",
      "note_off channel=0 note=61 velocity=64 time=0\n",
      "note_on channel=6 note=64 velocity=68 time=0\n",
      "note_on channel=6 note=69 velocity=77 time=0\n",
      "note_on channel=6 note=61 velocity=65 time=0\n",
      "note_on channel=10 note=57 velocity=72 time=0\n",
      "note_on channel=10 note=61 velocity=65 time=0\n",
      "note_on channel=9 note=46 velocity=47 time=1\n",
      "note_off channel=9 note=46 velocity=64 time=0\n",
      "note_on channel=9 note=69 velocity=65 time=0\n",
      "note_off channel=9 note=69 velocity=64 time=0\n",
      "note_off channel=7 note=57 velocity=64 time=0\n",
      "note_off channel=0 note=69 velocity=64 time=1\n",
      "note_off channel=10 note=61 velocity=64 time=10\n",
      "note_off channel=10 note=57 velocity=64 time=0\n",
      "note_on channel=9 note=54 velocity=46 time=12\n",
      "note_off channel=9 note=54 velocity=64 time=0\n",
      "note_on channel=10 note=57 velocity=65 time=0\n",
      "note_on channel=9 note=69 velocity=37 time=1\n",
      "note_off channel=9 note=69 velocity=64 time=0\n",
      "note_on channel=10 note=61 velocity=61 time=0\n",
      "note_off channel=6 note=61 velocity=64 time=7\n",
      "note_off channel=6 note=69 velocity=64 time=1\n",
      "note_off channel=6 note=64 velocity=64 time=4\n",
      "note_off channel=1 note=45 velocity=64 time=8\n",
      "note_off channel=5 note=71 velocity=64 time=2\n",
      "note_on channel=9 note=36 velocity=111 time=1\n",
      "note_off channel=9 note=36 velocity=64 time=0\n",
      "note_on channel=9 note=42 velocity=48 time=0\n",
      "note_off channel=9 note=42 velocity=64 time=0\n",
      "note_on channel=1 note=33 velocity=108 time=0\n",
      "note_on channel=6 note=57 velocity=61 time=0\n",
      "note_off channel=12 note=71 velocity=64 time=0\n",
      "note_on channel=12 note=74 velocity=95 time=0\n",
      "note_off channel=4 note=71 velocity=64 time=1\n",
      "note_on channel=4 note=74 velocity=118 time=0\n",
      "note_on channel=5 note=74 velocity=118 time=0\n",
      "note_on channel=9 note=69 velocity=39 time=0\n",
      "note_off channel=9 note=69 velocity=64 time=0\n",
      "note_on channel=10 note=54 velocity=58 time=0\n",
      "note_off channel=7 note=61 velocity=64 time=0\n",
      "note_off channel=7 note=52 velocity=64 time=0\n",
      "note_on channel=7 note=57 velocity=76 time=0\n",
      "note_on channel=7 note=62 velocity=76 time=0\n",
      "note_on channel=7 note=54 velocity=76 time=0\n",
      "note_off channel=10 note=57 velocity=64 time=2\n",
      "note_off channel=10 note=61 velocity=64 time=1\n",
      "control_change channel=12 control=1 value=8 time=15\n",
      "control_change channel=12 control=1 value=10 time=2\n",
      "control_change channel=12 control=1 value=11 time=1\n",
      "note_off channel=10 note=54 velocity=64 time=1\n",
      "control_change channel=12 control=1 value=12 time=0\n",
      "note_on channel=9 note=42 velocity=52 time=1\n",
      "note_off channel=9 note=42 velocity=64 time=0\n",
      "note_on channel=6 note=66 velocity=67 time=0\n",
      "control_change channel=12 control=1 value=13 time=0\n",
      "note_on channel=9 note=69 velocity=39 time=1\n",
      "note_off channel=9 note=69 velocity=64 time=0\n",
      "note_on channel=0 note=69 velocity=80 time=0\n",
      "note_on channel=0 note=62 velocity=83 time=0\n",
      "note_on channel=6 note=69 velocity=60 time=0\n",
      "note_on channel=6 note=62 velocity=69 time=0\n",
      "note_on channel=10 note=62 velocity=76 time=0\n",
      "note_on channel=10 note=57 velocity=65 time=0\n",
      "control_change channel=12 control=1 value=15 time=0\n",
      "note_on channel=0 note=66 velocity=75 time=1\n",
      "control_change channel=12 control=1 value=16 time=0\n",
      "control_change channel=12 control=1 value=17 time=1\n",
      "control_change channel=12 control=1 value=18 time=1\n",
      "control_change channel=12 control=1 value=20 time=1\n",
      "control_change channel=12 control=1 value=21 time=1\n",
      "control_change channel=12 control=1 value=22 time=1\n",
      "note_off channel=6 note=57 velocity=64 time=1\n",
      "control_change channel=12 control=1 value=23 time=0\n",
      "control_change channel=12 control=1 value=26 time=1\n",
      "control_change channel=12 control=1 value=27 time=1\n",
      "note_off channel=6 note=69 velocity=64 time=1\n",
      "control_change channel=12 control=1 value=28 time=0\n",
      "control_change channel=12 control=1 value=29 time=1\n",
      "note_off channel=0 note=62 velocity=64 time=1\n",
      "note_off channel=10 note=57 velocity=64 time=0\n",
      "control_change channel=12 control=1 value=31 time=0\n",
      "note_off channel=0 note=66 velocity=64 time=1\n",
      "note_off channel=6 note=66 velocity=64 time=0\n",
      "control_change channel=12 control=1 value=32 time=0\n",
      "note_off channel=6 note=62 velocity=64 time=1\n",
      "control_change channel=12 control=1 value=33 time=0\n",
      "control_change channel=12 control=1 value=34 time=1\n",
      "control_change channel=12 control=1 value=37 time=1\n",
      "note_off channel=10 note=62 velocity=64 time=1\n",
      "control_change channel=12 control=1 value=38 time=0\n",
      "note_off channel=1 note=33 velocity=64 time=1\n",
      "control_change channel=12 control=1 value=39 time=0\n",
      "control_change channel=12 control=1 value=40 time=1\n",
      "control_change channel=12 control=1 value=41 time=1\n",
      "control_change channel=12 control=1 value=42 time=1\n",
      "note_on channel=9 note=46 velocity=40 time=2\n",
      "note_off channel=9 note=46 velocity=64 time=0\n",
      "note_on channel=9 note=69 velocity=67 time=0\n",
      "note_off channel=9 note=69 velocity=64 time=0\n",
      "note_on channel=9 note=54 velocity=57 time=0\n",
      "note_off channel=9 note=54 velocity=64 time=0\n",
      "note_on channel=6 note=62 velocity=66 time=0\n",
      "note_on channel=6 note=66 velocity=67 time=0\n",
      "note_on channel=6 note=69 velocity=62 time=0\n",
      "note_on channel=10 note=57 velocity=65 time=1\n",
      "control_change channel=12 control=1 value=43 time=0\n",
      "note_off channel=0 note=69 velocity=64 time=1\n",
      "note_on channel=10 note=62 velocity=69 time=0\n",
      "control_change channel=12 control=1 value=44 time=1\n",
      "control_change channel=12 control=1 value=45 time=1\n",
      "control_change channel=12 control=1 value=46 time=1\n",
      "control_change channel=12 control=1 value=47 time=2\n",
      "control_change channel=12 control=1 value=48 time=2\n",
      "control_change channel=12 control=1 value=49 time=2\n",
      "control_change channel=12 control=1 value=50 time=2\n",
      "control_change channel=12 control=1 value=51 time=2\n",
      "control_change channel=12 control=1 value=52 time=3\n",
      "control_change channel=12 control=1 value=53 time=3\n",
      "note_off channel=10 note=57 velocity=64 time=2\n",
      "control_change channel=12 control=1 value=54 time=0\n",
      "note_on channel=9 note=69 velocity=42 time=1\n",
      "note_off channel=9 note=69 velocity=64 time=0\n",
      "note_on channel=9 note=54 velocity=37 time=0\n",
      "note_off channel=9 note=54 velocity=64 time=0\n",
      "note_on channel=1 note=33 velocity=85 time=0\n",
      "note_off channel=6 note=69 velocity=64 time=0\n",
      "note_off channel=6 note=66 velocity=64 time=0\n",
      "note_on channel=10 note=54 velocity=60 time=0\n",
      "note_on channel=9 note=36 velocity=90 time=1\n",
      "note_off channel=9 note=36 velocity=64 time=0\n",
      "note_off channel=6 note=62 velocity=64 time=0\n",
      "note_on channel=6 note=57 velocity=61 time=0\n",
      "note_off channel=10 note=62 velocity=64 time=1\n",
      "note_off channel=1 note=33 velocity=64 time=10\n",
      "control_change channel=12 control=1 value=55 time=5\n",
      "note_off channel=10 note=54 velocity=64 time=1\n",
      "note_off channel=6 note=57 velocity=64 time=3\n",
      "control_change channel=12 control=1 value=56 time=1\n",
      "note_on channel=9 note=40 velocity=94 time=2\n",
      "note_off channel=9 note=40 velocity=64 time=0\n",
      "note_on channel=1 note=33 velocity=85 time=0\n",
      "note_on channel=0 note=69 velocity=75 time=0\n",
      "note_on channel=0 note=62 velocity=83 time=0\n",
      "note_on channel=0 note=66 velocity=74 time=0\n",
      "note_on channel=6 note=69 velocity=74 time=0\n",
      "note_on channel=9 note=42 velocity=75 time=1\n",
      "note_off channel=9 note=42 velocity=64 time=0\n",
      "note_on channel=9 note=69 velocity=49 time=0\n",
      "note_off channel=9 note=69 velocity=64 time=0\n",
      "note_on channel=6 note=62 velocity=74 time=0\n",
      "note_on channel=6 note=66 velocity=77 time=0\n",
      "note_on channel=10 note=62 velocity=75 time=0\n",
      "note_on channel=10 note=57 velocity=64 time=0\n",
      "control_change channel=12 control=1 value=57 time=3\n",
      "note_off channel=6 note=66 velocity=64 time=17\n",
      "note_off channel=6 note=62 velocity=64 time=0\n",
      "note_off channel=10 note=62 velocity=64 time=0\n",
      "note_off channel=10 note=57 velocity=64 time=1\n",
      "note_off channel=1 note=33 velocity=64 time=2\n",
      "note_off channel=6 note=69 velocity=64 time=0\n",
      "note_on channel=9 note=69 velocity=47 time=1\n",
      "note_off channel=9 note=69 velocity=64 time=0\n",
      "note_on channel=6 note=57 velocity=63 time=0\n",
      "note_on channel=10 note=54 velocity=58 time=1\n",
      "note_off channel=0 note=66 velocity=64 time=5\n",
      "note_off channel=0 note=62 velocity=64 time=1\n",
      "note_off channel=10 note=54 velocity=64 time=6\n",
      "note_off channel=6 note=57 velocity=64 time=5\n",
      "note_on channel=9 note=36 velocity=110 time=5\n",
      "note_off channel=9 note=36 velocity=64 time=0\n",
      "note_on channel=9 note=54 velocity=70 time=0\n",
      "note_off channel=9 note=54 velocity=64 time=0\n",
      "note_on channel=1 note=33 velocity=100 time=0\n",
      "note_on channel=6 note=69 velocity=66 time=0\n",
      "note_on channel=6 note=62 velocity=69 time=0\n",
      "note_on channel=6 note=66 velocity=72 time=0\n",
      "note_on channel=10 note=57 velocity=62 time=0\n",
      "note_on channel=9 note=46 velocity=41 time=1\n",
      "note_off channel=9 note=46 velocity=64 time=0\n",
      "note_on channel=9 note=69 velocity=69 time=0\n",
      "note_off channel=9 note=69 velocity=64 time=0\n",
      "note_off channel=0 note=69 velocity=64 time=0\n",
      "note_on channel=10 note=62 velocity=75 time=0\n",
      "control_change channel=12 control=1 value=56 time=11\n",
      "note_off channel=10 note=57 velocity=64 time=1\n",
      "note_off channel=6 note=62 velocity=64 time=1\n",
      "note_off channel=6 note=66 velocity=64 time=1\n",
      "control_change channel=12 control=1 value=55 time=0\n",
      "note_off channel=10 note=62 velocity=64 time=1\n",
      "note_off channel=6 note=69 velocity=64 time=1\n",
      "control_change channel=12 control=1 value=54 time=1\n",
      "control_change channel=12 control=1 value=53 time=3\n",
      "control_change channel=12 control=1 value=52 time=1\n",
      "note_on channel=9 note=54 velocity=38 time=2\n",
      "note_off channel=9 note=54 velocity=64 time=0\n",
      "note_on channel=6 note=69 velocity=64 time=0\n",
      "note_on channel=6 note=62 velocity=68 time=0\n",
      "note_on channel=10 note=62 velocity=62 time=0\n",
      "control_change channel=12 control=1 value=51 time=0\n",
      "note_on channel=9 note=69 velocity=49 time=1\n",
      "note_off channel=9 note=69 velocity=64 time=0\n",
      "note_on channel=6 note=66 velocity=76 time=0\n",
      "note_on channel=10 note=57 velocity=63 time=0\n",
      "control_change channel=12 control=1 value=50 time=0\n",
      "note_on channel=0 note=69 velocity=85 time=1\n",
      "note_on channel=0 note=62 velocity=93 time=0\n",
      "note_on channel=0 note=66 velocity=78 time=0\n",
      "control_change channel=12 control=1 value=49 time=0\n",
      "control_change channel=12 control=1 value=48 time=1\n",
      "control_change channel=12 control=1 value=47 time=1\n",
      "control_change channel=12 control=1 value=42 time=1\n",
      "control_change channel=12 control=1 value=41 time=1\n",
      "control_change channel=12 control=1 value=38 time=1\n",
      "control_change channel=12 control=1 value=36 time=1\n",
      "control_change channel=12 control=1 value=32 time=1\n",
      "control_change channel=12 control=1 value=30 time=1\n",
      "control_change channel=12 control=1 value=29 time=1\n",
      "control_change channel=12 control=1 value=27 time=1\n",
      "control_change channel=12 control=1 value=26 time=1\n",
      "control_change channel=12 control=1 value=25 time=1\n",
      "control_change channel=12 control=1 value=24 time=1\n",
      "note_off channel=1 note=33 velocity=64 time=1\n",
      "control_change channel=12 control=1 value=23 time=1\n",
      "note_off channel=10 note=57 velocity=64 time=1\n",
      "control_change channel=12 control=1 value=22 time=0\n",
      "control_change channel=12 control=1 value=21 time=2\n",
      "note_off channel=10 note=62 velocity=64 time=1\n",
      "control_change channel=12 control=1 value=19 time=0\n",
      "control_change channel=12 control=1 value=18 time=1\n",
      "control_change channel=12 control=1 value=16 time=1\n",
      "note_off channel=6 note=66 velocity=64 time=1\n",
      "note_off channel=6 note=62 velocity=64 time=0\n",
      "note_off channel=6 note=69 velocity=64 time=0\n",
      "note_on channel=9 note=36 velocity=110 time=1\n",
      "note_off channel=9 note=36 velocity=64 time=0\n",
      "note_on channel=9 note=42 velocity=66 time=0\n",
      "note_off channel=9 note=42 velocity=64 time=0\n",
      "note_on channel=9 note=69 velocity=50 time=0\n",
      "note_off channel=9 note=69 velocity=64 time=0\n",
      "note_on channel=6 note=57 velocity=59 time=0\n",
      "note_on channel=10 note=54 velocity=60 time=0\n",
      "control_change channel=12 control=1 value=14 time=0\n",
      "control_change channel=12 control=1 value=13 time=1\n",
      "control_change channel=12 control=1 value=12 time=2\n",
      "control_change channel=12 control=1 value=11 time=1\n",
      "control_change channel=12 control=1 value=10 time=1\n",
      "control_change channel=12 control=1 value=9 time=2\n",
      "control_change channel=12 control=1 value=8 time=1\n",
      "control_change channel=12 control=1 value=7 time=3\n",
      "note_off channel=6 note=57 velocity=64 time=2\n",
      "control_change channel=12 control=1 value=6 time=0\n",
      "note_off channel=10 note=54 velocity=64 time=1\n",
      "control_change channel=12 control=1 value=5 time=1\n",
      "control_change channel=12 control=1 value=4 time=1\n",
      "control_change channel=12 control=1 value=3 time=1\n",
      "control_change channel=12 control=1 value=2 time=2\n",
      "note_off channel=5 note=74 velocity=64 time=1\n",
      "control_change channel=12 control=1 value=1 time=0\n",
      "note_on channel=1 note=33 velocity=80 time=2\n",
      "note_on channel=6 note=69 velocity=71 time=0\n",
      "note_on channel=6 note=62 velocity=70 time=0\n",
      "note_on channel=6 note=66 velocity=77 time=0\n",
      "note_on channel=10 note=62 velocity=74 time=0\n",
      "note_on channel=10 note=57 velocity=71 time=0\n",
      "control_change channel=12 control=1 value=0 time=0\n",
      "note_on channel=9 note=69 velocity=46 time=2\n",
      "note_off channel=9 note=69 velocity=64 time=0\n",
      "note_off channel=10 note=57 velocity=64 time=10\n",
      "note_off channel=6 note=66 velocity=64 time=1\n",
      "note_off channel=6 note=62 velocity=64 time=1\n",
      "note_off channel=10 note=62 velocity=64 time=3\n",
      "note_off channel=6 note=69 velocity=64 time=1\n",
      "note_off channel=1 note=33 velocity=64 time=6\n",
      "note_on channel=1 note=28 velocity=75 time=0\n",
      "note_on channel=9 note=54 velocity=65 time=1\n",
      "note_off channel=9 note=54 velocity=64 time=0\n",
      "note_on channel=6 note=62 velocity=68 time=0\n",
      "note_on channel=6 note=66 velocity=73 time=0\n",
      "note_on channel=6 note=69 velocity=65 time=0\n",
      "note_on channel=10 note=57 velocity=64 time=0\n",
      "note_on channel=10 note=62 velocity=75 time=0\n",
      "note_on channel=9 note=46 velocity=45 time=1\n",
      "note_off channel=9 note=46 velocity=64 time=0\n",
      "note_on channel=9 note=69 velocity=71 time=0\n",
      "note_off channel=9 note=69 velocity=64 time=0\n",
      "note_off channel=12 note=74 velocity=64 time=3\n",
      "note_off channel=6 note=66 velocity=64 time=18\n",
      "note_off channel=6 note=62 velocity=64 time=0\n",
      "note_off channel=1 note=28 velocity=64 time=1\n",
      "note_on channel=6 note=57 velocity=60 time=0\n",
      "note_off channel=10 note=62 velocity=64 time=0\n",
      "note_on channel=9 note=54 velocity=44 time=1\n",
      "note_off channel=9 note=54 velocity=64 time=0\n",
      "note_on channel=1 note=29 velocity=76 time=0\n",
      "note_off channel=6 note=69 velocity=64 time=0\n",
      "note_on channel=9 note=69 velocity=40 time=1\n",
      "note_off channel=9 note=69 velocity=64 time=0\n",
      "note_on channel=10 note=54 velocity=52 time=0\n",
      "note_off channel=10 note=57 velocity=64 time=2\n",
      "note_off channel=1 note=29 velocity=64 time=16\n",
      "note_off channel=10 note=54 velocity=64 time=1\n",
      "note_on channel=6 note=62 velocity=70 time=3\n",
      "note_on channel=6 note=66 velocity=76 time=0\n",
      "note_on channel=1 note=30 velocity=91 time=1\n",
      "note_on channel=6 note=69 velocity=71 time=0\n",
      "note_off channel=4 note=74 velocity=64 time=1\n",
      "note_on channel=4 note=73 velocity=108 time=0\n",
      "note_on channel=5 note=73 velocity=108 time=0\n",
      "note_on channel=9 note=40 velocity=104 time=0\n",
      "note_off channel=9 note=40 velocity=64 time=0\n",
      "note_on channel=9 note=42 velocity=55 time=0\n",
      "note_off channel=9 note=42 velocity=64 time=0\n",
      "note_on channel=9 note=69 velocity=52 time=0\n",
      "note_off channel=9 note=69 velocity=64 time=0\n",
      "note_on channel=10 note=57 velocity=71 time=0\n",
      "note_on channel=10 note=62 velocity=71 time=0\n",
      "note_on channel=12 note=73 velocity=81 time=0\n",
      "note_off channel=0 note=69 velocity=64 time=5\n",
      "note_off channel=0 note=66 velocity=64 time=1\n",
      "note_off channel=0 note=62 velocity=64 time=6\n",
      "note_off channel=6 note=62 velocity=64 time=8\n",
      "note_off channel=6 note=57 velocity=64 time=0\n",
      "note_off channel=10 note=62 velocity=64 time=0\n",
      "note_off channel=5 note=73 velocity=64 time=1\n",
      "note_off channel=4 note=73 velocity=64 time=2\n",
      "note_on channel=4 note=71 velocity=97 time=0\n",
      "note_on channel=5 note=71 velocity=97 time=0\n",
      "note_on channel=10 note=54 velocity=65 time=0\n",
      "note_on channel=9 note=69 velocity=43 time=1\n",
      "note_off channel=9 note=69 velocity=64 time=0\n",
      "note_off channel=10 note=57 velocity=64 time=0\n",
      "note_on channel=12 note=71 velocity=75 time=0\n",
      "note_off channel=6 note=66 velocity=64 time=1\n",
      "note_off channel=6 note=69 velocity=64 time=0\n",
      "note_off channel=12 note=73 velocity=64 time=7\n",
      "note_off channel=10 note=54 velocity=64 time=7\n",
      "note_on channel=9 note=54 velocity=63 time=8\n",
      "note_off channel=9 note=54 velocity=64 time=0\n",
      "note_off channel=1 note=30 velocity=64 time=0\n",
      "note_on channel=6 note=69 velocity=74 time=0\n",
      "note_on channel=6 note=62 velocity=77 time=0\n",
      "note_on channel=6 note=66 velocity=67 time=0\n",
      "note_on channel=10 note=57 velocity=63 time=0\n",
      "note_on channel=9 note=46 velocity=56 time=1\n",
      "note_off channel=9 note=46 velocity=64 time=0\n",
      "note_on channel=9 note=69 velocity=64 time=0\n",
      "note_off channel=9 note=69 velocity=64 time=0\n",
      "note_on channel=1 note=28 velocity=71 time=0\n",
      "note_on channel=10 note=62 velocity=64 time=0\n",
      "note_off channel=7 note=54 velocity=64 time=0\n",
      "note_off channel=10 note=62 velocity=64 time=8\n",
      "note_off channel=10 note=57 velocity=64 time=4\n",
      "note_off channel=5 note=71 velocity=64 time=11\n",
      "note_on channel=10 note=57 velocity=60 time=0\n",
      "note_off channel=4 note=71 velocity=64 time=1\n",
      "note_on channel=4 note=69 velocity=98 time=0\n",
      "note_on channel=5 note=69 velocity=98 time=0\n",
      "note_on channel=9 note=69 velocity=43 time=0\n",
      "note_off channel=9 note=69 velocity=64 time=0\n",
      "note_on channel=9 note=54 velocity=42 time=0\n",
      "note_off channel=9 note=54 velocity=64 time=0\n",
      "note_off channel=1 note=28 velocity=64 time=0\n",
      "note_on channel=1 note=30 velocity=86 time=0\n",
      "note_on channel=10 note=62 velocity=67 time=0\n",
      "note_on channel=12 note=69 velocity=77 time=2\n",
      "note_off channel=12 note=71 velocity=64 time=5\n",
      "note_off channel=6 note=62 velocity=64 time=1\n",
      "note_off channel=6 note=69 velocity=64 time=0\n",
      "note_off channel=6 note=66 velocity=64 time=4\n",
      "note_off channel=1 note=30 velocity=64 time=5\n",
      "note_off channel=10 note=57 velocity=64 time=2\n",
      "note_off channel=10 note=62 velocity=64 time=2\n",
      "note_on channel=9 note=36 velocity=112 time=2\n",
      "note_off channel=9 note=36 velocity=64 time=0\n",
      "note_off channel=12 note=69 velocity=64 time=0\n",
      "note_off channel=5 note=69 velocity=64 time=1\n",
      "note_on channel=9 note=42 velocity=41 time=0\n",
      "note_off channel=9 note=42 velocity=64 time=0\n",
      "note_on channel=1 note=33 velocity=97 time=0\n",
      "note_on channel=6 note=57 velocity=79 time=0\n",
      "note_on channel=10 note=56 velocity=49 time=0\n",
      "note_off channel=7 note=62 velocity=64 time=0\n",
      "note_off channel=7 note=57 velocity=64 time=0\n",
      "note_on channel=7 note=64 velocity=70 time=0\n",
      "note_on channel=7 note=59 velocity=70 time=0\n",
      "note_on channel=7 note=56 velocity=70 time=0\n",
      "note_off channel=4 note=69 velocity=64 time=1\n",
      "note_on channel=4 note=71 velocity=97 time=0\n",
      "note_on channel=5 note=71 velocity=97 time=0\n",
      "note_on channel=9 note=69 velocity=47 time=0\n",
      "note_off channel=9 note=69 velocity=64 time=0\n",
      "note_on channel=12 note=71 velocity=87 time=0\n",
      "note_off channel=6 note=57 velocity=64 time=11\n",
      "note_off channel=10 note=56 velocity=64 time=6\n",
      "note_on channel=0 note=68 velocity=69 time=5\n",
      "note_on channel=0 note=59 velocity=79 time=0\n",
      "note_on channel=6 note=59 velocity=81 time=0\n",
      "note_on channel=10 note=59 velocity=71 time=0\n",
      "note_on channel=10 note=64 velocity=64 time=0\n",
      "note_on channel=9 note=42 velocity=40 time=1\n",
      "note_off channel=9 note=42 velocity=64 time=0\n",
      "note_on channel=0 note=64 velocity=89 time=0\n",
      "note_on channel=6 note=68 velocity=58 time=0\n",
      "note_on channel=6 note=64 velocity=71 time=0\n",
      "note_on channel=9 note=69 velocity=45 time=1\n",
      "note_off channel=9 note=69 velocity=64 time=0\n",
      "note_off channel=10 note=59 velocity=64 time=11\n",
      "note_off channel=6 note=64 velocity=64 time=2\n",
      "note_off channel=10 note=64 velocity=64 time=0\n",
      "note_off channel=0 note=64 velocity=64 time=2\n",
      "note_off channel=6 note=59 velocity=64 time=3\n",
      "note_off channel=1 note=33 velocity=64 time=1\n",
      "note_on channel=9 note=54 velocity=70 time=3\n",
      "note_off channel=9 note=54 velocity=64 time=0\n",
      "note_on channel=10 note=59 velocity=61 time=0\n",
      "note_on channel=10 note=64 velocity=64 time=0\n",
      "note_on channel=9 note=46 velocity=50 time=1\n",
      "note_off channel=9 note=46 velocity=64 time=0\n",
      "note_on channel=9 note=69 velocity=66 time=0\n",
      "note_off channel=9 note=69 velocity=64 time=0\n",
      "note_off channel=0 note=68 velocity=64 time=0\n",
      "note_on channel=6 note=64 velocity=85 time=0\n",
      "note_on channel=6 note=59 velocity=53 time=0\n",
      "note_off channel=0 note=59 velocity=64 time=7\n",
      "note_off channel=5 note=71 velocity=64 time=15\n",
      "note_on channel=1 note=33 velocity=87 time=1\n",
      "note_off channel=10 note=64 velocity=64 time=0\n",
      "note_off channel=10 note=59 velocity=64 time=0\n",
      "note_off channel=4 note=71 velocity=64 time=1\n",
      "note_on channel=4 note=73 velocity=106 time=0\n",
      "note_on channel=5 note=73 velocity=106 time=0\n",
      "note_on channel=9 note=36 velocity=102 time=0\n",
      "note_off channel=9 note=36 velocity=64 time=0\n",
      "note_on channel=9 note=69 velocity=43 time=0\n",
      "note_off channel=9 note=69 velocity=64 time=0\n",
      "note_on channel=9 note=54 velocity=47 time=0\n",
      "note_off channel=9 note=54 velocity=64 time=0\n",
      "note_on channel=10 note=56 velocity=58 time=0\n",
      "note_on channel=6 note=57 velocity=64 time=1\n",
      "note_on channel=12 note=73 velocity=71 time=0\n",
      "note_off channel=6 note=59 velocity=64 time=3\n",
      "note_off channel=6 note=64 velocity=64 time=0\n",
      "note_off channel=12 note=71 velocity=64 time=1\n",
      "note_off channel=6 note=68 velocity=64 time=3\n",
      "note_off channel=6 note=57 velocity=64 time=4\n",
      "note_off channel=1 note=33 velocity=64 time=3\n",
      "note_on channel=0 note=68 velocity=73 time=7\n",
      "note_on channel=0 note=64 velocity=89 time=0\n",
      "note_on channel=0 note=59 velocity=79 time=0\n",
      "note_on channel=9 note=40 velocity=101 time=1\n",
      "note_off channel=9 note=40 velocity=64 time=0\n",
      "note_on channel=1 note=33 velocity=95 time=0\n",
      "note_off channel=10 note=56 velocity=64 time=0\n",
      "note_on channel=10 note=59 velocity=72 time=0\n",
      "note_on channel=10 note=64 velocity=70 time=0\n",
      "note_on channel=9 note=42 velocity=67 time=1\n",
      "note_off channel=9 note=42 velocity=64 time=0\n",
      "note_on channel=9 note=69 velocity=50 time=0\n",
      "note_off channel=9 note=69 velocity=64 time=0\n",
      "note_on channel=6 note=68 velocity=65 time=0\n",
      "note_on channel=6 note=64 velocity=79 time=0\n",
      "note_on channel=6 note=59 velocity=71 time=0\n",
      "note_off channel=10 note=59 velocity=64 time=11\n",
      "note_off channel=6 note=64 velocity=64 time=3\n",
      "note_off channel=10 note=64 velocity=64 time=1\n",
      "note_off channel=6 note=59 velocity=64 time=1\n",
      "note_off channel=6 note=68 velocity=64 time=0\n",
      "note_off channel=1 note=33 velocity=64 time=6\n",
      "note_on channel=10 note=56 velocity=56 time=0\n",
      "note_on channel=6 note=57 velocity=68 time=1\n",
      "note_on channel=9 note=69 velocity=46 time=1\n",
      "note_off channel=9 note=69 velocity=64 time=0\n",
      "control_change channel=12 control=1 value=1 time=8\n",
      "note_off channel=0 note=64 velocity=64 time=1\n",
      "control_change channel=12 control=1 value=2 time=0\n",
      "control_change channel=12 control=1 value=3 time=1\n",
      "control_change channel=12 control=1 value=4 time=1\n",
      "control_change channel=12 control=1 value=6 time=1\n",
      "note_off channel=6 note=57 velocity=64 time=1\n",
      "control_change channel=12 control=1 value=8 time=0\n",
      "control_change channel=12 control=1 value=9 time=1\n",
      "control_change channel=12 control=1 value=10 time=1\n",
      "control_change channel=12 control=1 value=12 time=1\n",
      "control_change channel=12 control=1 value=14 time=1\n",
      "control_change channel=12 control=1 value=16 time=2\n",
      "note_off channel=0 note=68 velocity=64 time=1\n",
      "control_change channel=12 control=1 value=18 time=0\n",
      "control_change channel=12 control=1 value=19 time=1\n",
      "note_on channel=10 note=59 velocity=75 time=1\n",
      "note_on channel=10 note=64 velocity=73 time=0\n",
      "control_change channel=12 control=1 value=20 time=0\n",
      "note_on channel=9 note=36 velocity=107 time=1\n",
      "note_off channel=9 note=36 velocity=64 time=0\n",
      "note_on channel=9 note=46 velocity=47 time=0\n",
      "note_off channel=9 note=46 velocity=64 time=0\n",
      "note_on channel=9 note=54 velocity=65 time=0\n",
      "note_off channel=9 note=54 velocity=64 time=0\n",
      "note_on channel=6 note=64 velocity=79 time=0\n",
      "note_on channel=6 note=59 velocity=60 time=0\n",
      "note_on channel=6 note=68 velocity=62 time=0\n",
      "control_change channel=12 control=1 value=21 time=0\n",
      "note_on channel=9 note=69 velocity=62 time=1\n",
      "note_off channel=9 note=69 velocity=64 time=0\n",
      "note_on channel=1 note=33 velocity=100 time=0\n",
      "note_off channel=0 note=59 velocity=64 time=0\n",
      "note_on channel=7 note=57 velocity=70 time=0\n",
      "note_on channel=7 note=61 velocity=70 time=0\n",
      "control_change channel=12 control=1 value=23 time=0\n",
      "control_change channel=12 control=1 value=24 time=1\n",
      "control_change channel=12 control=1 value=26 time=2\n",
      "control_change channel=12 control=1 value=28 time=1\n",
      "control_change channel=12 control=1 value=29 time=2\n",
      "control_change channel=12 control=1 value=30 time=1\n",
      "control_change channel=12 control=1 value=31 time=1\n",
      "control_change channel=12 control=1 value=32 time=1\n",
      "control_change channel=12 control=1 value=33 time=2\n",
      "control_change channel=12 control=1 value=34 time=1\n",
      "note_off channel=10 note=59 velocity=64 time=2\n",
      "control_change channel=12 control=1 value=35 time=0\n",
      "control_change channel=12 control=1 value=36 time=1\n",
      "note_off channel=6 note=68 velocity=64 time=1\n",
      "control_change channel=12 control=1 value=38 time=0\n",
      "control_change channel=12 control=1 value=39 time=1\n",
      "note_off channel=6 note=59 velocity=64 time=1\n",
      "control_change channel=12 control=1 value=40 time=1\n",
      "note_off channel=10 note=56 velocity=64 time=1\n",
      "control_change channel=12 control=1 value=42 time=0\n",
      "control_change channel=12 control=1 value=43 time=2\n",
      "note_on channel=10 note=57 velocity=72 time=1\n",
      "note_on channel=10 note=61 velocity=75 time=0\n",
      "note_on channel=9 note=69 velocity=47 time=1\n",
      "note_off channel=9 note=69 velocity=64 time=0\n",
      "note_on channel=9 note=54 velocity=39 time=0\n",
      "note_off channel=9 note=54 velocity=64 time=0\n",
      "note_on channel=0 note=69 velocity=75 time=0\n",
      "note_on channel=6 note=69 velocity=74 time=0\n",
      "control_change channel=12 control=1 value=44 time=0\n",
      "note_on channel=0 note=61 velocity=81 time=1\n",
      "control_change channel=12 control=1 value=45 time=0\n",
      "control_change channel=12 control=1 value=46 time=2\n",
      "control_change channel=12 control=1 value=47 time=1\n",
      "control_change channel=12 control=1 value=48 time=4\n",
      "control_change channel=12 control=1 value=49 time=4\n",
      "control_change channel=12 control=1 value=50 time=5\n",
      "note_off channel=1 note=33 velocity=64 time=1\n",
      "note_on channel=9 note=42 velocity=63 time=5\n",
      "note_off channel=9 note=42 velocity=64 time=0\n",
      "note_on channel=9 note=36 velocity=112 time=1\n",
      "note_off channel=9 note=36 velocity=64 time=0\n",
      "note_on channel=9 note=69 velocity=47 time=0\n",
      "note_off channel=9 note=69 velocity=64 time=0\n",
      "note_off channel=7 note=56 velocity=64 time=0\n",
      "note_off channel=7 note=59 velocity=64 time=0\n",
      "control_change channel=12 control=1 value=51 time=2\n",
      "control_change channel=12 control=1 value=52 time=10\n",
      "note_on channel=9 note=69 velocity=43 time=12\n",
      "note_off channel=9 note=69 velocity=64 time=0\n",
      "note_on channel=1 note=33 velocity=105 time=0\n",
      "note_off channel=1 note=33 velocity=64 time=12\n",
      "note_off channel=10 note=64 velocity=64 time=2\n",
      "control_change channel=12 control=1 value=51 time=2\n",
      "control_change channel=12 control=1 value=50 time=1\n",
      "note_off channel=10 note=57 velocity=64 time=1\n",
      "note_off channel=10 note=61 velocity=64 time=1\n",
      "control_change channel=12 control=1 value=49 time=0\n",
      "note_off channel=0 note=61 velocity=64 time=1\n",
      "control_change channel=12 control=1 value=48 time=0\n",
      "control_change channel=12 control=1 value=47 time=1\n",
      "note_off channel=0 note=69 velocity=64 time=1\n",
      "control_change channel=12 control=1 value=46 time=0\n",
      "note_on channel=9 note=46 velocity=52 time=1\n",
      "note_off channel=9 note=46 velocity=64 time=0\n",
      "note_on channel=9 note=54 velocity=57 time=0\n",
      "note_off channel=9 note=54 velocity=64 time=0\n",
      "note_on channel=9 note=69 velocity=71 time=1\n",
      "note_off channel=9 note=69 velocity=64 time=0\n",
      "note_on channel=1 note=33 velocity=91 time=0\n",
      "note_on channel=6 note=57 velocity=67 time=0\n",
      "note_on channel=10 note=57 velocity=53 time=0\n",
      "note_on channel=10 note=61 velocity=52 time=0\n",
      "note_on channel=10 note=64 velocity=62 time=0\n",
      "control_change channel=12 control=1 value=45 time=0\n",
      "control_change channel=12 control=1 value=44 time=1\n",
      "control_change channel=12 control=1 value=43 time=1\n",
      "note_off channel=6 note=69 velocity=64 time=2\n",
      "note_off channel=6 note=64 velocity=64 time=0\n",
      "control_change channel=12 control=1 value=42 time=0\n",
      "control_change channel=12 control=1 value=41 time=3\n",
      "control_change channel=12 control=1 value=40 time=2\n",
      "note_off channel=6 note=57 velocity=64 time=1\n",
      "control_change channel=12 control=1 value=39 time=2\n",
      "note_on channel=9 note=69 velocity=39 time=12\n",
      "note_off channel=9 note=69 velocity=64 time=0\n",
      "note_on channel=9 note=54 velocity=42 time=0\n",
      "note_off channel=9 note=54 velocity=64 time=0\n",
      "note_off channel=10 note=64 velocity=64 time=8\n",
      "note_off channel=1 note=33 velocity=64 time=4\n",
      "note_off channel=10 note=61 velocity=64 time=1\n",
      "control_change channel=12 control=1 value=38 time=3\n",
      "note_off channel=5 note=73 velocity=64 time=5\n",
      "note_on channel=9 note=42 velocity=63 time=1\n",
      "note_off channel=9 note=42 velocity=64 time=0\n",
      "note_off channel=4 note=73 velocity=64 time=1\n",
      "note_on channel=4 note=71 velocity=107 time=0\n",
      "note_on channel=5 note=71 velocity=107 time=0\n",
      "note_on channel=0 note=68 velocity=76 time=0\n",
      "note_on channel=6 note=68 velocity=73 time=0\n",
      "note_on channel=6 note=64 velocity=85 time=0\n",
      "note_on channel=6 note=59 velocity=79 time=0\n",
      "note_off channel=10 note=57 velocity=64 time=0\n",
      "note_on channel=9 note=40 velocity=104 time=1\n",
      "note_off channel=9 note=40 velocity=64 time=0\n",
      "note_on channel=9 note=69 velocity=52 time=0\n",
      "note_off channel=9 note=69 velocity=64 time=0\n",
      "note_on channel=1 note=32 velocity=100 time=0\n",
      "note_on channel=0 note=64 velocity=92 time=0\n",
      "note_on channel=10 note=56 velocity=74 time=0\n",
      "note_on channel=10 note=64 velocity=79 time=0\n",
      "note_off channel=7 note=61 velocity=64 time=0\n",
      "note_off channel=7 note=57 velocity=64 time=0\n",
      "note_on channel=7 note=56 velocity=71 time=0\n",
      "note_on channel=7 note=59 velocity=71 time=0\n",
      "note_on channel=12 note=71 velocity=90 time=0\n",
      "note_on channel=10 note=59 velocity=75 time=1\n",
      "note_off channel=12 note=73 velocity=64 time=4\n",
      "control_change channel=12 control=1 value=37 time=6\n",
      "control_change channel=12 control=1 value=36 time=5\n",
      "note_on channel=9 note=69 velocity=45 time=8\n",
      "note_off channel=9 note=69 velocity=64 time=0\n",
      "control_change channel=12 control=1 value=35 time=0\n",
      "note_off channel=6 note=59 velocity=64 time=19\n",
      "note_on channel=9 note=54 velocity=39 time=4\n",
      "note_off channel=9 note=54 velocity=64 time=0\n",
      "note_off channel=6 note=64 velocity=64 time=0\n",
      "note_on channel=9 note=46 velocity=52 time=1\n",
      "note_off channel=9 note=46 velocity=64 time=0\n",
      "note_on channel=9 note=69 velocity=67 time=0\n",
      "note_off channel=9 note=69 velocity=64 time=0\n",
      "note_on channel=6 note=57 velocity=65 time=0\n",
      "control_change channel=12 control=1 value=36 time=0\n",
      "control_change channel=12 control=1 value=37 time=1\n",
      "control_change channel=12 control=1 value=38 time=1\n",
      "control_change channel=12 control=1 value=39 time=1\n",
      "note_off channel=6 note=68 velocity=64 time=1\n",
      "control_change channel=12 control=1 value=42 time=0\n",
      "control_change channel=12 control=1 value=43 time=1\n",
      "control_change channel=12 control=1 value=44 time=1\n",
      "note_off channel=0 note=64 velocity=64 time=2\n",
      "note_off channel=6 note=57 velocity=64 time=0\n",
      "control_change channel=12 control=1 value=46 time=0\n",
      "control_change channel=12 control=1 value=47 time=1\n",
      "note_off channel=0 note=68 velocity=64 time=1\n",
      "control_change channel=12 control=1 value=48 time=1\n",
      "note_off channel=1 note=32 velocity=64 time=9\n",
      "note_on channel=9 note=54 velocity=41 time=3\n",
      "note_off channel=9 note=54 velocity=64 time=0\n",
      "note_on channel=9 note=69 velocity=41 time=1\n",
      "note_off channel=9 note=69 velocity=64 time=0\n",
      "note_off channel=10 note=64 velocity=64 time=3\n",
      "note_off channel=10 note=59 velocity=64 time=10\n",
      "control_change channel=12 control=1 value=47 time=3\n",
      "note_off channel=10 note=56 velocity=64 time=5\n",
      "note_off channel=5 note=71 velocity=64 time=2\n",
      "note_on channel=9 note=36 velocity=111 time=0\n",
      "note_off channel=9 note=36 velocity=64 time=0\n",
      "note_on channel=9 note=42 velocity=57 time=0\n",
      "note_off channel=9 note=42 velocity=64 time=0\n",
      "note_on channel=1 note=30 velocity=110 time=0\n",
      "note_off channel=4 note=71 velocity=64 time=1\n",
      "note_on channel=4 note=69 velocity=92 time=0\n",
      "note_on channel=5 note=69 velocity=92 time=0\n",
      "note_on channel=9 note=69 velocity=52 time=0\n",
      "note_off channel=9 note=69 velocity=64 time=0\n",
      "note_on channel=0 note=62 velocity=89 time=0\n",
      "note_on channel=0 note=66 velocity=73 time=0\n",
      "note_on channel=6 note=66 velocity=87 time=0\n",
      "note_on channel=10 note=54 velocity=61 time=0\n",
      "note_on channel=10 note=62 velocity=74 time=0\n",
      "note_on channel=10 note=57 velocity=70 time=0\n",
      "note_off channel=7 note=59 velocity=64 time=0\n",
      "note_off channel=7 note=56 velocity=64 time=0\n",
      "note_off channel=7 note=64 velocity=64 time=0\n",
      "note_on channel=7 note=54 velocity=73 time=0\n",
      "note_on channel=7 note=62 velocity=73 time=0\n",
      "note_on channel=7 note=57 velocity=73 time=0\n",
      "note_on channel=12 note=69 velocity=76 time=0\n",
      "note_on channel=6 note=62 velocity=79 time=1\n",
      "note_on channel=6 note=57 velocity=65 time=0\n",
      "note_off channel=12 note=71 velocity=64 time=3\n",
      "control_change channel=12 control=1 value=46 time=2\n",
      "control_change channel=12 control=1 value=45 time=6\n",
      "note_on channel=9 note=42 velocity=40 time=11\n",
      "note_off channel=9 note=42 velocity=64 time=0\n",
      "note_on channel=9 note=69 velocity=43 time=1\n",
      "note_off channel=9 note=69 velocity=64 time=0\n",
      "note_on channel=9 note=54 velocity=78 time=23\n",
      "note_off channel=9 note=54 velocity=64 time=0\n",
      "note_on channel=9 note=46 velocity=49 time=1\n",
      "note_off channel=9 note=46 velocity=64 time=0\n",
      "note_on channel=9 note=69 velocity=69 time=0\n",
      "note_off channel=9 note=69 velocity=64 time=0\n",
      "note_off channel=1 note=30 velocity=64 time=1\n",
      "control_change channel=12 control=1 value=46 time=2\n",
      "control_change channel=12 control=1 value=47 time=3\n",
      "<meta message lyrics text='\\n' time=4>\n",
      "note_off channel=10 note=54 velocity=64 time=1\n",
      "control_change channel=12 control=1 value=48 time=6\n",
      "control_change channel=12 control=1 value=49 time=3\n",
      "control_change channel=12 control=1 value=50 time=2\n",
      "note_on channel=1 note=30 velocity=110 time=1\n",
      "note_on channel=9 note=36 velocity=104 time=1\n",
      "note_off channel=9 note=36 velocity=64 time=0\n",
      "note_on channel=9 note=69 velocity=49 time=0\n",
      "note_off channel=9 note=69 velocity=64 time=0\n",
      "note_on channel=9 note=54 velocity=41 time=0\n",
      "note_off channel=9 note=54 velocity=64 time=0\n",
      "control_change channel=12 control=1 value=51 time=0\n",
      "control_change channel=12 control=1 value=52 time=3\n",
      "note_off channel=6 note=62 velocity=64 time=1\n",
      "control_change channel=12 control=1 value=53 time=1\n",
      "control_change channel=12 control=1 value=54 time=3\n",
      "note_off channel=1 note=30 velocity=64 time=1\n",
      "note_off channel=0 note=62 velocity=64 time=3\n",
      "note_off channel=0 note=66 velocity=64 time=3\n",
      "control_change channel=12 control=1 value=55 time=1\n",
      "note_on channel=10 note=54 velocity=59 time=5\n",
      "note_on channel=1 note=30 velocity=95 time=2\n",
      "note_on channel=9 note=40 velocity=98 time=1\n",
      "note_off channel=9 note=40 velocity=64 time=0\n",
      "note_on channel=9 note=42 velocity=66 time=0\n",
      "note_off channel=9 note=42 velocity=64 time=0\n",
      "note_on channel=9 note=69 velocity=50 time=0\n",
      "note_off channel=9 note=69 velocity=64 time=0\n",
      "note_off channel=10 note=57 velocity=64 time=2\n",
      "note_off channel=10 note=62 velocity=64 time=2\n",
      "note_off channel=6 note=66 velocity=64 time=4\n",
      "note_off channel=10 note=54 velocity=64 time=1\n",
      "note_on channel=9 note=69 velocity=43 time=15\n",
      "note_off channel=9 note=69 velocity=64 time=0\n",
      "note_off channel=1 note=30 velocity=64 time=2\n",
      "note_on channel=9 note=54 velocity=70 time=21\n",
      "note_off channel=9 note=54 velocity=64 time=0\n",
      "note_on channel=6 note=64 velocity=73 time=0\n",
      "note_on channel=10 note=52 velocity=62 time=0\n",
      "note_on channel=10 note=61 velocity=72 time=0\n",
      "note_on channel=10 note=57 velocity=70 time=0\n",
      "note_on channel=9 note=36 velocity=104 time=1\n",
      "note_off channel=9 note=36 velocity=64 time=0\n",
      "note_on channel=9 note=46 velocity=45 time=0\n",
      "note_off channel=9 note=46 velocity=64 time=0\n",
      "note_on channel=9 note=69 velocity=63 time=0\n",
      "note_off channel=9 note=69 velocity=64 time=0\n",
      "note_on channel=1 note=28 velocity=89 time=0\n",
      "note_on channel=6 note=61 velocity=74 time=0\n",
      "note_off channel=7 note=62 velocity=64 time=0\n",
      "note_off channel=7 note=54 velocity=64 time=0\n",
      "note_on channel=7 note=61 velocity=72 time=0\n",
      "note_on channel=7 note=52 velocity=72 time=0\n",
      "note_on channel=0 note=64 velocity=91 time=1\n",
      "note_on channel=0 note=61 velocity=78 time=0\n",
      "control_change channel=12 control=1 value=52 time=15\n",
      "control_change channel=12 control=1 value=51 time=1\n",
      "control_change channel=12 control=1 value=49 time=1\n",
      "control_change channel=12 control=1 value=48 time=1\n",
      "control_change channel=12 control=1 value=43 time=1\n",
      "control_change channel=12 control=1 value=42 time=1\n",
      "control_change channel=12 control=1 value=40 time=1\n",
      "control_change channel=12 control=1 value=38 time=1\n",
      "note_on channel=9 note=69 velocity=43 time=1\n",
      "note_off channel=9 note=69 velocity=64 time=0\n",
      "note_on channel=9 note=54 velocity=37 time=0\n",
      "note_off channel=9 note=54 velocity=64 time=0\n",
      "control_change channel=12 control=1 value=34 time=0\n",
      "control_change channel=12 control=1 value=32 time=1\n",
      "control_change channel=12 control=1 value=31 time=1\n",
      "control_change channel=12 control=1 value=29 time=1\n",
      "control_change channel=12 control=1 value=27 time=1\n",
      "control_change channel=12 control=1 value=26 time=1\n",
      "control_change channel=12 control=1 value=25 time=1\n",
      "control_change channel=12 control=1 value=24 time=1\n",
      "control_change channel=12 control=1 value=22 time=1\n",
      "control_change channel=12 control=1 value=20 time=1\n",
      "control_change channel=12 control=1 value=18 time=1\n",
      "control_change channel=12 control=1 value=16 time=1\n",
      "control_change channel=12 control=1 value=13 time=1\n",
      "control_change channel=12 control=1 value=12 time=1\n",
      "control_change channel=12 control=1 value=10 time=1\n",
      "control_change channel=12 control=1 value=9 time=1\n",
      "control_change channel=12 control=1 value=7 time=1\n",
      "control_change channel=12 control=1 value=6 time=1\n",
      "control_change channel=12 control=1 value=5 time=1\n",
      "control_change channel=12 control=1 value=4 time=1\n",
      "note_off channel=1 note=28 velocity=64 time=1\n",
      "control_change channel=12 control=1 value=3 time=0\n",
      "control_change channel=12 control=1 value=2 time=2\n",
      "note_on channel=9 note=36 velocity=107 time=2\n",
      "note_off channel=9 note=36 velocity=64 time=0\n",
      "note_on channel=9 note=42 velocity=59 time=0\n",
      "note_off channel=9 note=42 velocity=64 time=0\n",
      "note_on channel=9 note=69 velocity=49 time=0\n",
      "note_off channel=9 note=69 velocity=64 time=0\n",
      "control_change channel=12 control=1 value=1 time=0\n",
      "control_change channel=12 control=1 value=0 time=19\n",
      "note_on channel=1 note=28 velocity=87 time=4\n",
      "note_on channel=9 note=40 velocity=104 time=1\n",
      "note_off channel=9 note=40 velocity=64 time=0\n",
      "note_on channel=9 note=69 velocity=41 time=0\n",
      "note_off channel=9 note=69 velocity=64 time=0\n",
      "note_off channel=1 note=28 velocity=64 time=15\n",
      "note_on channel=9 note=54 velocity=70 time=8\n",
      "note_off channel=9 note=54 velocity=64 time=0\n",
      "note_on channel=1 note=28 velocity=96 time=0\n",
      "note_on channel=9 note=69 velocity=67 time=1\n",
      "note_off channel=9 note=69 velocity=64 time=0\n",
      "note_on channel=9 note=69 velocity=44 time=24\n",
      "note_off channel=9 note=69 velocity=64 time=0\n",
      "note_on channel=9 note=54 velocity=41 time=0\n",
      "note_off channel=9 note=54 velocity=64 time=0\n",
      "note_on channel=9 note=40 velocity=107 time=23\n",
      "note_off channel=9 note=40 velocity=64 time=0\n",
      "note_on channel=9 note=42 velocity=67 time=1\n",
      "note_off channel=9 note=42 velocity=64 time=0\n",
      "note_on channel=9 note=69 velocity=59 time=0\n",
      "note_off channel=9 note=69 velocity=64 time=0\n",
      "note_off channel=1 note=28 velocity=64 time=0\n",
      "note_on channel=1 note=35 velocity=103 time=0\n",
      "note_off channel=10 note=57 velocity=64 time=11\n",
      "note_off channel=10 note=52 velocity=64 time=0\n",
      "note_off channel=10 note=61 velocity=64 time=8\n",
      "note_on channel=9 note=69 velocity=47 time=5\n",
      "note_off channel=9 note=69 velocity=64 time=0\n",
      "note_off channel=1 note=35 velocity=64 time=20\n",
      "note_on channel=9 note=54 velocity=65 time=3\n",
      "note_off channel=9 note=54 velocity=64 time=0\n",
      "note_on channel=1 note=40 velocity=86 time=0\n",
      "note_on channel=9 note=46 velocity=45 time=1\n",
      "note_off channel=9 note=46 velocity=64 time=0\n",
      "note_on channel=9 note=69 velocity=68 time=0\n",
      "note_off channel=9 note=69 velocity=64 time=0\n",
      "note_off channel=6 note=57 velocity=64 time=9\n",
      "note_off channel=6 note=61 velocity=64 time=8\n",
      "note_off channel=12 note=69 velocity=64 time=3\n",
      "note_off channel=6 note=64 velocity=64 time=1\n",
      "note_on channel=9 note=69 velocity=41 time=3\n",
      "note_off channel=9 note=69 velocity=64 time=0\n",
      "note_on channel=9 note=54 velocity=49 time=0\n",
      "note_off channel=9 note=54 velocity=64 time=0\n",
      "note_off channel=0 note=64 velocity=64 time=2\n",
      "note_off channel=0 note=61 velocity=64 time=3\n",
      "note_off channel=5 note=69 velocity=64 time=10\n",
      "note_on channel=0 note=64 velocity=66 time=4\n",
      "note_on channel=0 note=56 velocity=71 time=1\n",
      "<meta message lyrics text='You ' time=4>\n",
      "note_on channel=3 note=73 velocity=106 time=0\n",
      "note_off channel=4 note=69 velocity=64 time=0\n",
      "note_on channel=4 note=68 velocity=73 time=0\n",
      "note_on channel=4 note=73 velocity=106 time=0\n",
      "note_on channel=9 note=36 velocity=107 time=0\n",
      "note_off channel=9 note=36 velocity=64 time=0\n",
      "note_on channel=9 note=42 velocity=59 time=0\n",
      "note_off channel=9 note=42 velocity=64 time=0\n",
      "note_on channel=9 note=69 velocity=38 time=0\n",
      "note_off channel=9 note=69 velocity=64 time=0\n",
      "note_off channel=1 note=40 velocity=64 time=0\n",
      "note_on channel=1 note=28 velocity=124 time=0\n",
      "note_on channel=6 note=64 velocity=75 time=0\n",
      "note_on channel=6 note=56 velocity=75 time=0\n",
      "note_on channel=6 note=59 velocity=75 time=0\n",
      "note_on channel=10 note=56 velocity=79 time=0\n",
      "note_on channel=10 note=59 velocity=85 time=0\n",
      "note_on channel=8 note=68 velocity=76 time=0\n",
      "note_on channel=8 note=80 velocity=76 time=0\n",
      "note_off channel=7 note=52 velocity=64 time=0\n",
      "note_off channel=7 note=61 velocity=64 time=0\n",
      "note_off channel=7 note=57 velocity=64 time=0\n",
      "note_on channel=7 note=64 velocity=69 time=0\n",
      "note_on channel=7 note=59 velocity=81 time=0\n",
      "note_on channel=7 note=56 velocity=71 time=0\n",
      "control_change channel=3 control=1 value=0 time=1\n",
      "pitchwheel channel=3 pitch=0 time=0\n",
      "control_change channel=8 control=1 value=0 time=0\n",
      "pitchwheel channel=8 pitch=0 time=0\n",
      "note_on channel=9 note=69 velocity=41 time=22\n",
      "note_off channel=9 note=69 velocity=64 time=0\n",
      "note_on channel=9 note=42 velocity=41 time=2\n",
      "note_off channel=9 note=42 velocity=64 time=0\n",
      "note_on channel=9 note=69 velocity=48 time=22\n",
      "note_off channel=9 note=69 velocity=64 time=0\n",
      "note_on channel=9 note=54 velocity=44 time=0\n",
      "note_off channel=9 note=54 velocity=64 time=0\n",
      "note_on channel=9 note=46 velocity=30 time=2\n",
      "note_off channel=9 note=46 velocity=64 time=0\n",
      "note_off channel=1 note=28 velocity=64 time=2\n",
      "note_off channel=0 note=56 velocity=64 time=5\n",
      "note_off channel=6 note=59 velocity=64 time=3\n",
      "note_off channel=6 note=64 velocity=64 time=0\n",
      "note_off channel=10 note=59 velocity=64 time=3\n",
      "note_off channel=10 note=56 velocity=64 time=1\n",
      "note_off channel=0 note=64 velocity=64 time=1\n",
      "note_off channel=6 note=56 velocity=64 time=4\n",
      "note_on channel=9 note=69 velocity=49 time=3\n",
      "note_off channel=9 note=69 velocity=64 time=0\n",
      "note_on channel=9 note=36 velocity=107 time=1\n",
      "note_off channel=9 note=36 velocity=64 time=0\n",
      "note_on channel=9 note=54 velocity=28 time=0\n",
      "note_off channel=9 note=54 velocity=64 time=0\n",
      "note_on channel=1 note=28 velocity=85 time=0\n",
      "note_on channel=0 note=56 velocity=73 time=0\n",
      "note_on channel=0 note=64 velocity=82 time=0\n",
      "note_on channel=10 note=59 velocity=93 time=0\n",
      "note_on channel=10 note=56 velocity=64 time=0\n",
      "note_on channel=6 note=59 velocity=69 time=2\n",
      "note_on channel=6 note=64 velocity=71 time=0\n",
      "note_on channel=6 note=56 velocity=48 time=1\n",
      "note_off channel=6 note=64 velocity=64 time=7\n",
      "note_off channel=6 note=59 velocity=64 time=0\n",
      "note_off channel=1 note=28 velocity=64 time=1\n",
      "note_off channel=10 note=59 velocity=64 time=4\n",
      "note_off channel=0 note=56 velocity=64 time=1\n",
      "note_off channel=0 note=64 velocity=64 time=1\n",
      "note_off channel=3 note=73 velocity=64 time=4\n",
      "<meta message lyrics text='can ' time=2>\n",
      "note_on channel=3 note=71 velocity=107 time=0\n",
      "note_off channel=4 note=68 velocity=64 time=0\n",
      "note_on channel=9 note=40 velocity=98 time=0\n",
      "note_off channel=9 note=40 velocity=64 time=0\n",
      "note_on channel=9 note=69 velocity=41 time=0\n",
      "note_off channel=9 note=69 velocity=64 time=0\n",
      "note_on channel=1 note=28 velocity=96 time=0\n",
      "note_off channel=4 note=73 velocity=64 time=1\n",
      "note_on channel=4 note=71 velocity=107 time=0\n",
      "note_on channel=4 note=68 velocity=74 time=0\n",
      "note_on channel=6 note=59 velocity=87 time=0\n",
      "note_on channel=6 note=64 velocity=72 time=0\n",
      "note_on channel=9 note=42 velocity=44 time=1\n",
      "note_off channel=9 note=42 velocity=64 time=0\n",
      "note_off channel=10 note=56 velocity=64 time=0\n",
      "note_off channel=6 note=64 velocity=64 time=10\n",
      "note_off channel=6 note=59 velocity=64 time=1\n",
      "note_off channel=6 note=56 velocity=64 time=2\n",
      "note_on channel=9 note=69 velocity=47 time=9\n",
      "note_off channel=9 note=69 velocity=64 time=0\n",
      "note_off channel=3 note=71 velocity=64 time=8\n",
      "note_off channel=1 note=28 velocity=64 time=4\n",
      "note_off channel=4 note=68 velocity=64 time=12\n",
      "note_off channel=4 note=71 velocity=64 time=0\n",
      "note_on channel=9 note=36 velocity=101 time=0\n",
      "note_off channel=9 note=36 velocity=64 time=0\n",
      "note_on channel=9 note=54 velocity=56 time=0\n",
      "note_off channel=9 note=54 velocity=64 time=0\n",
      "note_on channel=0 note=56 velocity=73 time=0\n",
      "note_on channel=0 note=64 velocity=76 time=0\n",
      "<meta message lyrics text='dance, ' time=1>\n",
      "note_on channel=3 note=71 velocity=107 time=0\n",
      "note_on channel=4 note=68 velocity=72 time=0\n",
      "note_on channel=4 note=71 velocity=107 time=0\n",
      "note_on channel=9 note=46 velocity=44 time=0\n",
      "note_off channel=9 note=46 velocity=64 time=0\n",
      "note_on channel=9 note=69 velocity=62 time=0\n",
      "note_off channel=9 note=69 velocity=64 time=0\n",
      "note_on channel=1 note=28 velocity=108 time=0\n",
      "note_on channel=6 note=59 velocity=86 time=0\n",
      "note_on channel=6 note=56 velocity=68 time=0\n",
      "note_on channel=6 note=64 velocity=74 time=0\n",
      "note_on channel=10 note=56 velocity=68 time=0\n",
      "note_on channel=10 note=59 velocity=87 time=0\n",
      "note_on channel=9 note=69 velocity=48 time=24\n",
      "note_off channel=9 note=69 velocity=64 time=0\n",
      "note_on channel=9 note=54 velocity=32 time=0\n",
      "note_off channel=9 note=54 velocity=64 time=0\n",
      "note_off channel=1 note=28 velocity=64 time=14\n",
      "note_on channel=9 note=36 velocity=110 time=10\n",
      "note_off channel=9 note=36 velocity=64 time=0\n",
      "note_on channel=9 note=69 velocity=36 time=0\n",
      "note_off channel=9 note=69 velocity=64 time=0\n",
      "note_off channel=6 note=64 velocity=64 time=0\n",
      "note_on channel=9 note=42 velocity=41 time=1\n",
      "note_off channel=9 note=42 velocity=64 time=0\n",
      "note_off channel=6 note=56 velocity=64 time=3\n",
      "note_off channel=6 note=59 velocity=64 time=0\n",
      "note_off channel=10 note=56 velocity=64 time=15\n",
      "note_off channel=10 note=59 velocity=64 time=1\n",
      "note_on channel=9 note=69 velocity=48 time=4\n",
      "note_off channel=9 note=69 velocity=64 time=0\n",
      "note_on channel=6 note=59 velocity=75 time=1\n",
      "note_on channel=6 note=64 velocity=74 time=0\n",
      "note_on channel=6 note=56 velocity=60 time=0\n",
      "note_off channel=6 note=59 velocity=64 time=12\n",
      "note_off channel=6 note=64 velocity=64 time=1\n",
      "note_off channel=8 note=80 velocity=64 time=7\n",
      "note_off channel=8 note=68 velocity=64 time=0\n",
      "note_on channel=8 note=76 velocity=75 time=1\n",
      "note_on channel=8 note=64 velocity=75 time=0\n",
      "note_on channel=9 note=54 velocity=53 time=1\n",
      "note_off channel=9 note=54 velocity=64 time=0\n",
      "note_on channel=1 note=40 velocity=93 time=0\n",
      "note_on channel=6 note=64 velocity=56 time=0\n",
      "note_on channel=6 note=59 velocity=95 time=0\n",
      "note_on channel=10 note=59 velocity=95 time=0\n",
      "note_on channel=10 note=56 velocity=71 time=0\n",
      "note_on channel=9 note=46 velocity=43 time=1\n",
      "note_off channel=9 note=46 velocity=64 time=0\n",
      "note_on channel=9 note=69 velocity=62 time=0\n",
      "note_off channel=9 note=69 velocity=64 time=0\n",
      "note_off channel=8 note=64 velocity=64 time=20\n",
      "note_off channel=8 note=76 velocity=64 time=0\n",
      "note_off channel=1 note=40 velocity=64 time=1\n",
      "note_on channel=8 note=78 velocity=67 time=0\n",
      "note_on channel=8 note=66 velocity=67 time=0\n",
      "note_on channel=1 note=35 velocity=73 time=2\n",
      "note_on channel=9 note=69 velocity=52 time=1\n",
      "note_off channel=9 note=69 velocity=64 time=0\n",
      "note_on channel=9 note=54 velocity=47 time=0\n",
      "note_off channel=9 note=54 velocity=64 time=0\n",
      "note_off channel=6 note=56 velocity=64 time=2\n",
      "note_off channel=6 note=64 velocity=64 time=1\n",
      "note_off channel=10 note=56 velocity=64 time=4\n",
      "note_off channel=6 note=59 velocity=64 time=1\n",
      "note_off channel=10 note=59 velocity=64 time=6\n",
      "note_off channel=8 note=66 velocity=64 time=7\n",
      "note_off channel=8 note=78 velocity=64 time=0\n",
      "note_off channel=1 note=35 velocity=64 time=1\n",
      "note_on channel=8 note=80 velocity=70 time=0\n",
      "note_on channel=8 note=68 velocity=70 time=0\n",
      "note_on channel=1 note=40 velocity=84 time=1\n",
      "note_on channel=9 note=40 velocity=104 time=1\n",
      "note_off channel=9 note=40 velocity=64 time=0\n",
      "note_on channel=9 note=69 velocity=34 time=0\n",
      "note_off channel=9 note=69 velocity=64 time=0\n",
      "note_on channel=6 note=64 velocity=86 time=0\n",
      "note_on channel=6 note=56 velocity=69 time=0\n",
      "note_on channel=6 note=59 velocity=86 time=0\n",
      "note_on channel=10 note=59 velocity=100 time=0\n",
      "note_on channel=10 note=56 velocity=74 time=0\n",
      "note_on channel=9 note=42 velocity=42 time=1\n",
      "note_off channel=9 note=42 velocity=64 time=0\n",
      "note_off channel=1 note=40 velocity=64 time=17\n",
      "note_off channel=8 note=68 velocity=64 time=3\n",
      "note_off channel=8 note=80 velocity=64 time=0\n",
      "note_on channel=1 note=35 velocity=69 time=1\n",
      "note_on channel=8 note=81 velocity=75 time=0\n",
      "note_on channel=8 note=69 velocity=75 time=0\n",
      "note_on channel=9 note=69 velocity=43 time=2\n",
      "note_off channel=9 note=69 velocity=64 time=0\n",
      "note_off channel=6 note=64 velocity=64 time=4\n",
      "note_off channel=6 note=56 velocity=64 time=3\n",
      "note_off channel=6 note=59 velocity=64 time=1\n",
      "note_off channel=1 note=35 velocity=64 time=6\n",
      "note_off channel=0 note=56 velocity=64 time=2\n",
      "note_off channel=3 note=71 velocity=64 time=4\n",
      "note_off channel=0 note=64 velocity=64 time=2\n",
      "note_off channel=10 note=56 velocity=64 time=0\n",
      "note_on channel=1 note=35 velocity=87 time=1\n",
      "note_on channel=6 note=56 velocity=62 time=0\n",
      "note_on channel=6 note=59 velocity=83 time=0\n",
      "note_on channel=9 note=46 velocity=47 time=1\n",
      "note_off channel=9 note=46 velocity=64 time=0\n",
      "note_on channel=9 note=69 velocity=63 time=0\n",
      "note_off channel=9 note=69 velocity=64 time=0\n",
      "note_on channel=9 note=54 velocity=78 time=0\n",
      "note_off channel=9 note=54 velocity=64 time=0\n",
      "note_on channel=6 note=64 velocity=70 time=0\n",
      "note_off channel=10 note=59 velocity=64 time=4\n",
      "note_off channel=6 note=59 velocity=64 time=8\n",
      "note_off channel=6 note=64 velocity=64 time=2\n",
      "note_off channel=1 note=35 velocity=64 time=1\n",
      "note_on channel=6 note=64 velocity=66 time=7\n",
      "note_on channel=1 note=36 velocity=85 time=1\n",
      "note_on channel=6 note=59 velocity=83 time=0\n",
      "note_on channel=9 note=69 velocity=59 time=1\n",
      "note_off channel=9 note=69 velocity=64 time=0\n",
      "note_on channel=9 note=54 velocity=31 time=1\n",
      "note_off channel=9 note=54 velocity=64 time=0\n",
      "note_off channel=6 note=59 velocity=64 time=10\n",
      "note_off channel=6 note=56 velocity=64 time=0\n",
      "note_off channel=6 note=64 velocity=64 time=2\n",
      "note_off channel=1 note=36 velocity=64 time=7\n",
      "note_off channel=8 note=69 velocity=64 time=2\n",
      "note_off channel=8 note=81 velocity=64 time=0\n",
      "note_off channel=4 note=68 velocity=64 time=1\n",
      "note_on channel=9 note=69 velocity=36 time=0\n",
      "note_off channel=9 note=69 velocity=64 time=0\n",
      "note_on channel=1 note=37 velocity=78 time=0\n",
      "note_on channel=6 note=61 velocity=85 time=0\n",
      "note_on channel=10 note=56 velocity=69 time=0\n",
      "note_on channel=10 note=61 velocity=77 time=0\n",
      "note_on channel=8 note=80 velocity=65 time=0\n",
      "note_on channel=8 note=68 velocity=65 time=0\n",
      "<meta message lyrics text='you ' time=1>\n",
      "note_on channel=3 note=73 velocity=104 time=0\n",
      "note_off channel=4 note=71 velocity=64 time=0\n",
      "note_on channel=4 note=68 velocity=75 time=0\n",
      "note_on channel=4 note=73 velocity=104 time=0\n",
      "note_on channel=9 note=36 velocity=107 time=0\n",
      "note_off channel=9 note=36 velocity=64 time=0\n",
      "note_on channel=9 note=42 velocity=48 time=0\n",
      "note_off channel=9 note=42 velocity=64 time=0\n",
      "note_on channel=0 note=65 velocity=73 time=0\n",
      "note_on channel=0 note=61 velocity=74 time=0\n",
      "note_off channel=7 note=59 velocity=64 time=0\n",
      "note_off channel=7 note=64 velocity=64 time=0\n",
      "note_on channel=7 note=61 velocity=64 time=0\n",
      "note_on channel=7 note=65 velocity=70 time=0\n",
      "note_on channel=6 note=65 velocity=66 time=2\n",
      "note_on channel=9 note=42 velocity=40 time=22\n",
      "note_off channel=9 note=42 velocity=64 time=0\n",
      "note_on channel=9 note=69 velocity=44 time=0\n",
      "note_off channel=9 note=69 velocity=64 time=0\n",
      "note_off channel=6 note=65 velocity=64 time=19\n",
      "note_on channel=9 note=46 velocity=40 time=5\n",
      "note_off channel=9 note=46 velocity=64 time=0\n",
      "note_on channel=9 note=69 velocity=71 time=0\n",
      "note_off channel=9 note=69 velocity=64 time=0\n",
      "note_on channel=9 note=54 velocity=70 time=0\n",
      "note_off channel=9 note=54 velocity=64 time=0\n",
      "note_off channel=6 note=61 velocity=64 time=0\n",
      "note_off channel=1 note=37 velocity=64 time=6\n",
      "note_off channel=0 note=61 velocity=64 time=0\n",
      "note_off channel=10 note=61 velocity=64 time=0\n",
      "note_off channel=10 note=56 velocity=64 time=0\n",
      "note_off channel=0 note=65 velocity=64 time=5\n",
      "note_on channel=6 note=65 velocity=74 time=11\n",
      "note_on channel=9 note=69 velocity=44 time=1\n",
      "note_off channel=9 note=69 velocity=64 time=0\n",
      "note_on channel=6 note=61 velocity=69 time=0\n",
      "note_on channel=6 note=56 velocity=69 time=0\n",
      "note_on channel=9 note=36 velocity=104 time=1\n",
      "note_off channel=9 note=36 velocity=64 time=0\n",
      "note_on channel=1 note=37 velocity=84 time=0\n",
      "note_on channel=10 note=56 velocity=67 time=0\n",
      "note_on channel=10 note=61 velocity=76 time=0\n",
      "note_on channel=9 note=54 velocity=33 time=1\n",
      "note_off channel=9 note=54 velocity=64 time=0\n",
      "note_on channel=0 note=61 velocity=73 time=0\n",
      "note_on channel=0 note=65 velocity=80 time=0\n",
      "note_off channel=6 note=56 velocity=64 time=10\n",
      "note_off channel=6 note=61 velocity=64 time=0\n",
      "note_off channel=6 note=65 velocity=64 time=1\n",
      "note_off channel=1 note=37 velocity=64 time=4\n",
      "note_off channel=0 note=61 velocity=64 time=1\n",
      "note_off channel=3 note=73 velocity=64 time=4\n",
      "note_on channel=6 note=65 velocity=71 time=0\n",
      "note_on channel=6 note=61 velocity=76 time=1\n",
      "note_on channel=6 note=56 velocity=59 time=0\n",
      "<meta message lyrics text='can ' time=1>\n",
      "note_on channel=3 note=71 velocity=106 time=0\n",
      "note_off channel=4 note=68 velocity=64 time=0\n",
      "note_off channel=0 note=65 velocity=64 time=0\n",
      "note_off channel=4 note=73 velocity=64 time=1\n",
      "note_on channel=4 note=71 velocity=106 time=0\n",
      "note_on channel=4 note=68 velocity=73 time=0\n",
      "note_on channel=9 note=40 velocity=101 time=0\n",
      "note_off channel=9 note=40 velocity=64 time=0\n",
      "note_on channel=9 note=42 velocity=48 time=0\n",
      "note_off channel=9 note=42 velocity=64 time=0\n",
      "note_on channel=9 note=69 velocity=40 time=0\n",
      "note_off channel=9 note=69 velocity=64 time=0\n",
      "note_on channel=1 note=37 velocity=84 time=0\n",
      "note_off channel=10 note=61 velocity=64 time=0\n",
      "note_off channel=10 note=56 velocity=64 time=2\n",
      "note_off channel=6 note=61 velocity=64 time=12\n",
      "note_off channel=6 note=65 velocity=64 time=4\n",
      "note_off channel=6 note=56 velocity=64 time=2\n",
      "note_off channel=3 note=71 velocity=64 time=3\n",
      "note_on channel=9 note=69 velocity=42 time=1\n",
      "note_off channel=9 note=69 velocity=64 time=0\n",
      "note_off channel=1 note=37 velocity=64 time=6\n",
      "note_on channel=6 note=65 velocity=77 time=16\n",
      "<meta message lyrics text='jive, ' time=1>\n",
      "<meta message lyrics text='\\r' time=0>\n",
      "note_on channel=3 note=71 velocity=109 time=0\n",
      "note_off channel=4 note=68 velocity=64 time=0\n",
      "note_off channel=4 note=71 velocity=64 time=0\n",
      "note_on channel=0 note=61 velocity=77 time=0\n",
      "note_on channel=0 note=65 velocity=80 time=0\n",
      "note_on channel=6 note=61 velocity=70 time=0\n",
      "note_on channel=6 note=56 velocity=75 time=0\n",
      "note_on channel=10 note=56 velocity=81 time=0\n",
      "note_on channel=10 note=61 velocity=83 time=0\n",
      "note_on channel=4 note=71 velocity=109 time=1\n",
      "note_on channel=4 note=68 velocity=74 time=0\n",
      "note_on channel=9 note=36 velocity=101 time=0\n",
      "note_off channel=9 note=36 velocity=64 time=0\n",
      "note_on channel=9 note=69 velocity=66 time=0\n",
      "note_off channel=9 note=69 velocity=64 time=0\n",
      "note_on channel=9 note=54 velocity=70 time=0\n",
      "note_off channel=9 note=54 velocity=64 time=0\n",
      "note_on channel=1 note=37 velocity=87 time=0\n",
      "note_on channel=9 note=46 velocity=41 time=1\n",
      "note_off channel=9 note=46 velocity=64 time=0\n",
      "note_on channel=9 note=69 velocity=45 time=23\n",
      "note_off channel=9 note=69 velocity=64 time=0\n",
      "note_on channel=9 note=54 velocity=45 time=0\n",
      "note_off channel=9 note=54 velocity=64 time=0\n",
      "note_off channel=1 note=37 velocity=64 time=19\n",
      "note_off channel=6 note=61 velocity=64 time=2\n",
      "note_on channel=9 note=36 velocity=110 time=3\n",
      "note_off channel=9 note=36 velocity=64 time=0\n",
      "note_on channel=9 note=69 velocity=36 time=0\n",
      "note_off channel=9 note=69 velocity=64 time=0\n",
      "note_off channel=6 note=65 velocity=64 time=0\n",
      "note_on channel=9 note=42 velocity=41 time=1\n",
      "note_off channel=9 note=42 velocity=64 time=0\n",
      "note_off channel=6 note=56 velocity=64 time=0\n",
      "note_off channel=10 note=61 velocity=64 time=6\n",
      "note_off channel=10 note=56 velocity=64 time=1\n",
      "note_off channel=8 note=68 velocity=64 time=3\n",
      "note_off channel=8 note=80 velocity=64 time=0\n",
      "note_on channel=9 note=69 velocity=41 time=13\n",
      "note_off channel=9 note=69 velocity=64 time=0\n",
      "note_on channel=6 note=61 velocity=71 time=1\n",
      "note_on channel=6 note=65 velocity=70 time=1\n",
      "note_on channel=6 note=56 velocity=59 time=1\n",
      "note_off channel=6 note=65 velocity=64 time=10\n",
      "note_off channel=6 note=61 velocity=64 time=0\n",
      "note_off channel=3 note=71 velocity=64 time=5\n",
      "note_on channel=10 note=56 velocity=66 time=3\n",
      "note_on channel=10 note=61 velocity=76 time=1\n",
      "note_on channel=8 note=80 velocity=71 time=0\n",
      "note_on channel=8 note=68 velocity=71 time=0\n",
      "note_on channel=9 note=54 velocity=68 time=1\n",
      "note_off channel=9 note=54 velocity=64 time=0\n",
      "note_on channel=6 note=65 velocity=74 time=0\n",
      "note_on channel=3 note=73 velocity=104 time=1\n",
      "note_off channel=4 note=68 velocity=64 time=0\n",
      "note_off channel=4 note=71 velocity=64 time=0\n",
      "note_on channel=4 note=69 velocity=86 time=0\n",
      "note_on channel=4 note=73 velocity=104 time=0\n",
      "note_on channel=9 note=46 velocity=45 time=0\n",
      "note_off channel=9 note=46 velocity=64 time=0\n",
      "note_on channel=9 note=69 velocity=71 time=0\n",
      "note_off channel=9 note=69 velocity=64 time=0\n",
      "note_on channel=1 note=38 velocity=96 time=0\n",
      "note_on channel=6 note=61 velocity=75 time=0\n",
      "note_off channel=8 note=68 velocity=64 time=21\n",
      "note_off channel=8 note=80 velocity=64 time=0\n",
      "note_off channel=1 note=38 velocity=64 time=1\n",
      "note_on channel=8 note=81 velocity=79 time=0\n",
      "note_on channel=8 note=69 velocity=79 time=0\n",
      "note_on channel=9 note=69 velocity=52 time=1\n",
      "note_off channel=9 note=69 velocity=64 time=0\n",
      "note_on channel=9 note=54 velocity=40 time=1\n",
      "note_off channel=9 note=54 velocity=64 time=0\n",
      "note_on channel=1 note=39 velocity=81 time=0\n",
      "note_off channel=6 note=56 velocity=64 time=1\n",
      "note_off channel=6 note=61 velocity=64 time=1\n",
      "note_off channel=6 note=65 velocity=64 time=5\n",
      "note_off channel=10 note=61 velocity=64 time=7\n",
      "note_off channel=10 note=56 velocity=64 time=0\n",
      "note_off channel=8 note=69 velocity=64 time=7\n",
      "note_off channel=8 note=81 velocity=64 time=0\n",
      "note_off channel=1 note=39 velocity=64 time=1\n",
      "note_on channel=8 note=83 velocity=86 time=0\n",
      "note_on channel=8 note=71 velocity=86 time=0\n",
      "note_on channel=1 note=40 velocity=83 time=1\n",
      "note_on channel=10 note=56 velocity=73 time=0\n",
      "note_on channel=9 note=40 velocity=102 time=1\n",
      "note_off channel=9 note=40 velocity=64 time=0\n",
      "note_on channel=6 note=65 velocity=79 time=0\n",
      "note_on channel=6 note=61 velocity=71 time=0\n",
      "note_on channel=6 note=56 velocity=72 time=0\n",
      "note_on channel=10 note=61 velocity=77 time=0\n",
      "note_on channel=9 note=42 velocity=39 time=1\n",
      "note_off channel=9 note=42 velocity=64 time=0\n",
      "note_off channel=1 note=40 velocity=64 time=21\n",
      "note_off channel=8 note=71 velocity=64 time=0\n",
      "note_off channel=8 note=83 velocity=64 time=0\n",
      "note_on channel=9 note=69 velocity=44 time=1\n",
      "note_off channel=9 note=69 velocity=64 time=0\n",
      "note_on channel=1 note=39 velocity=70 time=0\n",
      "note_on channel=8 note=85 velocity=79 time=0\n",
      "note_on channel=8 note=73 velocity=79 time=0\n",
      "note_off channel=6 note=61 velocity=64 time=3\n",
      "note_off channel=6 note=65 velocity=64 time=5\n",
      "note_off channel=6 note=56 velocity=64 time=1\n",
      "note_on channel=9 note=69 velocity=69 time=15\n",
      "note_off channel=9 note=69 velocity=64 time=0\n",
      "note_on channel=9 note=54 velocity=68 time=0\n",
      "note_off channel=9 note=54 velocity=64 time=0\n",
      "note_off channel=1 note=39 velocity=64 time=0\n",
      "note_on channel=1 note=40 velocity=84 time=0\n",
      "note_on channel=6 note=65 velocity=63 time=0\n",
      "note_on channel=9 note=46 velocity=42 time=1\n",
      "note_off channel=9 note=46 velocity=64 time=0\n",
      "note_on channel=6 note=56 velocity=60 time=0\n",
      "note_on channel=6 note=61 velocity=64 time=0\n",
      "note_off channel=0 note=65 velocity=64 time=1\n",
      "note_off channel=0 note=61 velocity=64 time=0\n",
      "note_off channel=6 note=61 velocity=64 time=11\n",
      "note_off channel=10 note=61 velocity=64 time=0\n",
      "note_off channel=10 note=56 velocity=64 time=1\n",
      "note_off channel=6 note=65 velocity=64 time=5\n",
      "note_on channel=9 note=69 velocity=49 time=5\n",
      "note_off channel=9 note=69 velocity=64 time=0\n",
      "note_off channel=1 note=40 velocity=64 time=0\n",
      "note_on channel=1 note=41 velocity=85 time=0\n",
      "note_on channel=9 note=54 velocity=33 time=1\n",
      "note_off channel=9 note=54 velocity=64 time=0\n",
      "note_on channel=6 note=61 velocity=62 time=0\n",
      "note_off channel=6 note=61 velocity=64 time=9\n",
      "note_off channel=6 note=56 velocity=64 time=0\n",
      "note_on channel=10 note=57 velocity=81 time=13\n",
      "note_off channel=8 note=73 velocity=64 time=0\n",
      "note_off channel=8 note=85 velocity=64 time=0\n",
      "note_off channel=3 note=73 velocity=64 time=1\n",
      "note_off channel=4 note=69 velocity=64 time=0\n",
      "note_on channel=9 note=42 velocity=47 time=0\n",
      "note_off channel=9 note=42 velocity=64 time=0\n",
      "note_off channel=1 note=41 velocity=64 time=0\n",
      "note_on channel=1 note=42 velocity=78 time=0\n",
      "note_on channel=0 note=66 velocity=71 time=0\n",
      "note_on channel=10 note=61 velocity=71 time=0\n",
      "note_on channel=8 note=81 velocity=81 time=0\n",
      "note_on channel=8 note=69 velocity=81 time=0\n",
      "<meta message lyrics text='hav' time=1>\n",
      "note_on channel=3 note=69 velocity=106 time=0\n",
      "note_off channel=4 note=73 velocity=64 time=0\n",
      "note_on channel=4 note=66 velocity=85 time=0\n",
      "note_on channel=4 note=69 velocity=106 time=0\n",
      "note_on channel=9 note=36 velocity=107 time=0\n",
      "note_off channel=9 note=36 velocity=64 time=0\n",
      "note_on channel=9 note=69 velocity=35 time=0\n",
      "note_off channel=9 note=69 velocity=64 time=0\n",
      "note_on channel=0 note=57 velocity=72 time=0\n",
      "note_on channel=6 note=66 velocity=98 time=0\n",
      "note_on channel=6 note=61 velocity=71 time=0\n",
      "note_on channel=6 note=57 velocity=85 time=0\n",
      "note_off channel=7 note=65 velocity=64 time=0\n",
      "note_off channel=7 note=56 velocity=64 time=0\n",
      "note_on channel=7 note=57 velocity=75 time=0\n",
      "note_on channel=7 note=66 velocity=60 time=0\n",
      "note_on channel=9 note=42 velocity=42 time=23\n",
      "note_off channel=9 note=42 velocity=64 time=0\n",
      "note_on channel=9 note=69 velocity=43 time=1\n",
      "note_off channel=9 note=69 velocity=64 time=0\n",
      "note_off channel=1 note=42 velocity=64 time=19\n",
      "note_on channel=9 note=46 velocity=47 time=4\n",
      "note_off channel=9 note=46 velocity=64 time=0\n",
      "note_on channel=9 note=54 velocity=68 time=0\n",
      "note_off channel=9 note=54 velocity=64 time=0\n",
      "note_on channel=9 note=69 velocity=74 time=1\n",
      "note_off channel=9 note=69 velocity=64 time=0\n",
      "note_off channel=10 note=57 velocity=64 time=1\n",
      "note_off channel=10 note=61 velocity=64 time=2\n",
      "note_off channel=6 note=61 velocity=64 time=1\n",
      "note_off channel=6 note=66 velocity=64 time=0\n",
      "note_off channel=6 note=57 velocity=64 time=4\n",
      "note_off channel=0 note=57 velocity=64 time=3\n",
      "note_off channel=0 note=66 velocity=64 time=0\n",
      "note_off channel=3 note=69 velocity=64 time=10\n",
      "note_off channel=8 note=69 velocity=64 time=1\n",
      "note_off channel=8 note=81 velocity=64 time=0\n",
      "<meta message lyrics text='ing ' time=1>\n",
      "note_on channel=3 note=71 velocity=106 time=0\n",
      "note_off channel=4 note=66 velocity=64 time=0\n",
      "note_on channel=8 note=83 velocity=83 time=0\n",
      "note_on channel=8 note=71 velocity=83 time=0\n",
      "note_off channel=4 note=69 velocity=64 time=1\n",
      "note_on channel=4 note=71 velocity=106 time=0\n",
      "note_on channel=4 note=66 velocity=86 time=0\n",
      "note_on channel=9 note=36 velocity=107 time=0\n",
      "note_off channel=9 note=36 velocity=64 time=0\n",
      "note_on channel=9 note=69 velocity=39 time=0\n",
      "note_off channel=9 note=69 velocity=64 time=0\n",
      "note_on channel=9 note=54 velocity=34 time=0\n",
      "note_off channel=9 note=54 velocity=64 time=0\n",
      "note_on channel=1 note=37 velocity=69 time=0\n",
      "note_on channel=6 note=66 velocity=74 time=0\n",
      "note_on channel=6 note=61 velocity=76 time=0\n",
      "note_on channel=6 note=57 velocity=70 time=0\n",
      "note_on channel=10 note=61 velocity=90 time=0\n",
      "note_on channel=10 note=57 velocity=83 time=0\n",
      "note_on channel=0 note=66 velocity=68 time=1\n",
      "note_on channel=0 note=57 velocity=67 time=0\n",
      "note_off channel=6 note=66 velocity=64 time=9\n",
      "note_off channel=6 note=61 velocity=64 time=1\n",
      "note_off channel=10 note=57 velocity=64 time=5\n",
      "note_off channel=0 note=66 velocity=64 time=5\n",
      "note_off channel=0 note=57 velocity=64 time=1\n",
      "note_on channel=6 note=66 velocity=74 time=0\n",
      "note_on channel=6 note=61 velocity=68 time=1\n",
      "note_on channel=9 note=40 velocity=101 time=1\n",
      "note_off channel=9 note=40 velocity=64 time=0\n",
      "note_on channel=9 note=42 velocity=39 time=0\n",
      "note_off channel=9 note=42 velocity=64 time=0\n",
      "note_off channel=1 note=37 velocity=64 time=0\n",
      "note_on channel=1 note=42 velocity=76 time=0\n",
      "note_on channel=9 note=69 velocity=42 time=1\n",
      "note_off channel=9 note=69 velocity=64 time=0\n",
      "note_off channel=10 note=61 velocity=64 time=5\n",
      "note_off channel=6 note=61 velocity=64 time=9\n",
      "note_off channel=6 note=66 velocity=64 time=4\n",
      "note_off channel=6 note=57 velocity=64 time=1\n",
      "note_on channel=9 note=69 velocity=36 time=5\n",
      "note_off channel=9 note=69 velocity=64 time=0\n",
      "note_off channel=1 note=42 velocity=64 time=2\n",
      "note_off channel=8 note=71 velocity=64 time=18\n",
      "note_off channel=8 note=83 velocity=64 time=0\n",
      "note_off channel=3 note=71 velocity=64 time=1\n",
      "note_on channel=8 note=80 velocity=70 time=0\n",
      "note_on channel=8 note=68 velocity=70 time=0\n",
      "<meta message lyrics text='the ' time=1>\n",
      "note_on channel=3 note=68 velocity=105 time=0\n",
      "note_off channel=4 note=66 velocity=64 time=0\n",
      "note_on channel=9 note=54 velocity=78 time=0\n",
      "note_off channel=9 note=54 velocity=64 time=0\n",
      "note_on channel=1 note=42 velocity=79 time=0\n",
      "note_on channel=0 note=57 velocity=79 time=0\n",
      "note_on channel=0 note=66 velocity=85 time=0\n",
      "note_on channel=6 note=66 velocity=87 time=0\n",
      "note_on channel=10 note=57 velocity=85 time=0\n",
      "note_off channel=4 note=71 velocity=64 time=1\n",
      "note_on channel=4 note=68 velocity=105 time=0\n",
      "note_on channel=4 note=66 velocity=85 time=0\n",
      "note_on channel=9 note=36 velocity=102 time=0\n",
      "note_off channel=9 note=36 velocity=64 time=0\n",
      "note_on channel=9 note=46 velocity=45 time=0\n",
      "note_off channel=9 note=46 velocity=64 time=0\n",
      "note_on channel=6 note=61 velocity=86 time=0\n",
      "note_on channel=6 note=57 velocity=87 time=0\n",
      "note_on channel=10 note=61 velocity=83 time=0\n",
      "note_on channel=9 note=69 velocity=74 time=1\n",
      "note_off channel=9 note=69 velocity=64 time=0\n",
      "note_on channel=9 note=69 velocity=42 time=23\n",
      "note_off channel=9 note=69 velocity=64 time=0\n",
      "note_on channel=9 note=54 velocity=29 time=0\n",
      "note_off channel=9 note=54 velocity=64 time=0\n",
      "note_off channel=1 note=42 velocity=64 time=10\n",
      "note_off channel=8 note=68 velocity=64 time=12\n",
      "note_off channel=8 note=80 velocity=64 time=0\n",
      "note_off channel=3 note=68 velocity=64 time=1\n",
      "note_off channel=4 note=66 velocity=64 time=0\n",
      "note_off channel=6 note=66 velocity=64 time=0\n",
      "note_on channel=8 note=81 velocity=87 time=0\n",
      "note_on channel=8 note=69 velocity=87 time=0\n",
      "<meta message lyrics text='time ' time=1>\n",
      "note_on channel=3 note=69 velocity=107 time=0\n",
      "note_off channel=4 note=68 velocity=64 time=0\n",
      "note_on channel=4 note=66 velocity=86 time=0\n",
      "note_on channel=4 note=69 velocity=107 time=0\n",
      "note_on channel=9 note=36 velocity=110 time=0\n",
      "note_off channel=9 note=36 velocity=64 time=0\n",
      "note_on channel=9 note=42 velocity=39 time=0\n",
      "note_off channel=9 note=42 velocity=64 time=0\n",
      "note_on channel=9 note=69 velocity=44 time=0\n",
      "note_off channel=9 note=69 velocity=64 time=0\n",
      "note_off channel=6 note=61 velocity=64 time=0\n",
      "note_off channel=6 note=57 velocity=64 time=1\n",
      "note_off channel=10 note=61 velocity=64 time=9\n"
     ]
    },
    {
     "name": "stdout",
     "output_type": "stream",
     "text": [
      "note_off channel=10 note=57 velocity=64 time=1\n",
      "note_on channel=9 note=69 velocity=41 time=13\n",
      "note_off channel=9 note=69 velocity=64 time=0\n",
      "note_on channel=1 note=37 velocity=79 time=0\n",
      "note_on channel=6 note=66 velocity=90 time=0\n",
      "note_on channel=6 note=61 velocity=87 time=0\n",
      "note_on channel=6 note=57 velocity=77 time=1\n",
      "note_off channel=6 note=61 velocity=64 time=7\n",
      "note_off channel=6 note=66 velocity=64 time=4\n",
      "note_off channel=1 note=37 velocity=64 time=10\n",
      "note_on channel=6 note=66 velocity=57 time=0\n",
      "note_on channel=9 note=54 velocity=63 time=1\n",
      "note_off channel=9 note=54 velocity=64 time=0\n",
      "note_on channel=6 note=61 velocity=69 time=0\n",
      "note_on channel=10 note=57 velocity=74 time=0\n",
      "note_on channel=10 note=61 velocity=83 time=0\n",
      "note_on channel=9 note=46 velocity=43 time=1\n",
      "note_off channel=9 note=46 velocity=64 time=0\n",
      "note_on channel=9 note=69 velocity=66 time=0\n",
      "note_off channel=9 note=69 velocity=64 time=0\n",
      "note_on channel=1 note=42 velocity=79 time=0\n",
      "note_off channel=6 note=61 velocity=64 time=18\n",
      "note_off channel=3 note=69 velocity=64 time=3\n",
      "note_off channel=8 note=69 velocity=64 time=0\n",
      "note_off channel=8 note=81 velocity=64 time=0\n",
      "note_on channel=8 note=83 velocity=92 time=1\n",
      "note_on channel=8 note=71 velocity=92 time=0\n",
      "<meta message lyrics text='of ' time=1>\n",
      "note_on channel=3 note=71 velocity=109 time=0\n",
      "note_off channel=4 note=66 velocity=64 time=0\n",
      "note_on channel=9 note=69 velocity=39 time=0\n",
      "note_off channel=9 note=69 velocity=64 time=0\n",
      "note_off channel=6 note=66 velocity=64 time=0\n",
      "note_off channel=4 note=69 velocity=64 time=1\n",
      "note_on channel=4 note=71 velocity=109 time=0\n",
      "note_on channel=4 note=66 velocity=87 time=0\n",
      "note_on channel=9 note=54 velocity=35 time=0\n",
      "note_off channel=9 note=54 velocity=64 time=0\n",
      "note_off channel=6 note=57 velocity=64 time=0\n",
      "note_off channel=1 note=42 velocity=64 time=8\n",
      "note_off channel=10 note=61 velocity=64 time=5\n",
      "note_off channel=10 note=57 velocity=64 time=1\n",
      "note_on channel=9 note=42 velocity=47 time=9\n",
      "note_off channel=9 note=42 velocity=64 time=0\n",
      "note_on channel=6 note=66 velocity=86 time=0\n",
      "note_on channel=6 note=57 velocity=75 time=0\n",
      "note_on channel=9 note=40 velocity=101 time=1\n",
      "note_off channel=9 note=40 velocity=64 time=0\n",
      "note_on channel=9 note=69 velocity=46 time=0\n",
      "note_off channel=9 note=69 velocity=64 time=0\n",
      "note_on channel=6 note=61 velocity=79 time=0\n",
      "note_on channel=10 note=57 velocity=74 time=0\n",
      "note_on channel=10 note=61 velocity=73 time=0\n",
      "note_on channel=9 note=42 velocity=40 time=23\n",
      "note_off channel=9 note=42 velocity=64 time=0\n",
      "note_on channel=1 note=42 velocity=78 time=0\n",
      "note_on channel=9 note=69 velocity=42 time=1\n",
      "note_off channel=9 note=69 velocity=64 time=0\n",
      "note_off channel=0 note=57 velocity=64 time=5\n",
      "note_off channel=6 note=61 velocity=64 time=2\n",
      "note_off channel=0 note=66 velocity=64 time=1\n",
      "note_off channel=6 note=66 velocity=64 time=1\n",
      "note_off channel=6 note=57 velocity=64 time=1\n",
      "note_off channel=10 note=61 velocity=64 time=10\n",
      "note_off channel=8 note=71 velocity=64 time=1\n",
      "note_off channel=8 note=83 velocity=64 time=0\n",
      "note_off channel=3 note=71 velocity=64 time=1\n",
      "note_on channel=8 note=80 velocity=63 time=0\n",
      "note_on channel=8 note=68 velocity=63 time=0\n",
      "<meta message lyrics text='your ' time=1>\n",
      "note_on channel=3 note=68 velocity=104 time=0\n",
      "note_off channel=4 note=66 velocity=64 time=0\n",
      "note_on channel=9 note=54 velocity=63 time=0\n",
      "note_off channel=9 note=54 velocity=64 time=0\n",
      "note_off channel=1 note=42 velocity=64 time=0\n",
      "note_on channel=1 note=40 velocity=93 time=0\n",
      "note_on channel=6 note=66 velocity=72 time=0\n",
      "note_on channel=6 note=61 velocity=68 time=0\n",
      "note_off channel=4 note=71 velocity=64 time=1\n",
      "note_on channel=4 note=68 velocity=104 time=0\n",
      "note_on channel=4 note=66 velocity=87 time=0\n",
      "note_on channel=9 note=46 velocity=40 time=0\n",
      "note_off channel=9 note=46 velocity=64 time=0\n",
      "note_on channel=9 note=69 velocity=65 time=0\n",
      "note_off channel=9 note=69 velocity=64 time=0\n",
      "note_on channel=6 note=57 velocity=64 time=0\n",
      "note_off channel=6 note=66 velocity=64 time=8\n",
      "note_off channel=10 note=57 velocity=64 time=3\n",
      "note_off channel=6 note=61 velocity=64 time=1\n",
      "note_off channel=6 note=57 velocity=64 time=5\n",
      "note_on channel=9 note=69 velocity=38 time=6\n",
      "note_off channel=9 note=69 velocity=64 time=0\n",
      "note_on channel=6 note=66 velocity=74 time=0\n",
      "note_on channel=6 note=57 velocity=53 time=0\n",
      "note_on channel=6 note=61 velocity=72 time=0\n",
      "note_on channel=9 note=54 velocity=37 time=1\n",
      "note_off channel=9 note=54 velocity=64 time=0\n",
      "note_off channel=6 note=66 velocity=64 time=11\n",
      "note_off channel=6 note=61 velocity=64 time=1\n",
      "note_off channel=6 note=57 velocity=64 time=2\n",
      "note_off channel=1 note=40 velocity=64 time=5\n",
      "note_off channel=8 note=68 velocity=64 time=3\n",
      "note_off channel=8 note=80 velocity=64 time=0\n",
      "note_off channel=3 note=68 velocity=64 time=1\n",
      "note_on channel=9 note=69 velocity=45 time=0\n",
      "note_off channel=9 note=69 velocity=64 time=0\n",
      "note_on channel=1 note=39 velocity=89 time=0\n",
      "note_on channel=0 note=57 velocity=80 time=0\n",
      "note_on channel=0 note=66 velocity=80 time=0\n",
      "note_on channel=6 note=57 velocity=65 time=0\n",
      "note_on channel=6 note=66 velocity=77 time=0\n",
      "note_on channel=6 note=63 velocity=67 time=0\n",
      "note_on channel=10 note=59 velocity=86 time=0\n",
      "note_on channel=10 note=63 velocity=86 time=0\n",
      "note_on channel=8 note=81 velocity=89 time=0\n",
      "note_on channel=8 note=69 velocity=89 time=0\n",
      "<meta message lyrics text='life. ' time=1>\n",
      "<meta message lyrics text='\\r' time=0>\n",
      "note_on channel=3 note=69 velocity=108 time=0\n",
      "note_off channel=4 note=66 velocity=64 time=0\n",
      "note_off channel=4 note=68 velocity=64 time=0\n",
      "note_on channel=4 note=63 velocity=86 time=0\n",
      "note_on channel=4 note=69 velocity=108 time=0\n",
      "note_on channel=9 note=36 velocity=110 time=0\n",
      "note_off channel=9 note=36 velocity=64 time=0\n",
      "note_on channel=9 note=42 velocity=43 time=0\n",
      "note_off channel=9 note=42 velocity=64 time=0\n",
      "note_off channel=7 note=57 velocity=64 time=0\n",
      "note_off channel=7 note=61 velocity=64 time=0\n",
      "note_on channel=7 note=63 velocity=63 time=0\n",
      "note_on channel=7 note=59 velocity=86 time=0\n",
      "note_off channel=3 note=69 velocity=64 time=21\n",
      "note_on channel=3 note=68 velocity=103 time=2\n",
      "note_off channel=4 note=69 velocity=64 time=1\n",
      "note_on channel=4 note=68 velocity=103 time=0\n",
      "note_on channel=9 note=69 velocity=40 time=0\n",
      "note_off channel=9 note=69 velocity=64 time=0\n",
      "note_on channel=9 note=42 velocity=43 time=1\n",
      "note_off channel=9 note=42 velocity=64 time=0\n",
      "note_off channel=3 note=68 velocity=64 time=22\n",
      "note_on channel=9 note=54 velocity=68 time=0\n",
      "note_off channel=9 note=54 velocity=64 time=0\n",
      "note_on channel=3 note=66 velocity=102 time=1\n",
      "note_off channel=4 note=68 velocity=64 time=0\n",
      "note_on channel=4 note=66 velocity=102 time=0\n",
      "note_on channel=9 note=46 velocity=46 time=0\n",
      "note_off channel=9 note=46 velocity=64 time=0\n",
      "note_on channel=9 note=69 velocity=67 time=0\n",
      "note_off channel=9 note=69 velocity=64 time=0\n",
      "note_off channel=1 note=39 velocity=64 time=0\n",
      "note_off channel=6 note=66 velocity=64 time=3\n",
      "note_off channel=6 note=63 velocity=64 time=1\n",
      "note_off channel=0 note=57 velocity=64 time=3\n",
      "note_off channel=6 note=57 velocity=64 time=0\n",
      "note_off channel=10 note=63 velocity=64 time=2\n",
      "note_off channel=0 note=66 velocity=64 time=1\n",
      "note_off channel=10 note=59 velocity=64 time=3\n",
      "<meta message lyrics text='\\n' time=3>\n",
      "note_on channel=6 note=66 velocity=75 time=6\n",
      "note_on channel=6 note=57 velocity=81 time=0\n",
      "note_on channel=6 note=63 velocity=63 time=0\n",
      "note_off channel=8 note=69 velocity=64 time=0\n",
      "note_off channel=8 note=81 velocity=64 time=0\n",
      "note_on channel=1 note=39 velocity=74 time=1\n",
      "note_on channel=8 note=83 velocity=87 time=0\n",
      "note_on channel=8 note=71 velocity=87 time=0\n",
      "note_on channel=9 note=36 velocity=107 time=1\n",
      "note_off channel=9 note=36 velocity=64 time=0\n",
      "note_on channel=9 note=69 velocity=39 time=0\n",
      "note_off channel=9 note=69 velocity=64 time=0\n",
      "note_on channel=9 note=54 velocity=33 time=0\n",
      "note_off channel=9 note=54 velocity=64 time=0\n",
      "note_on channel=0 note=57 velocity=69 time=0\n",
      "note_on channel=0 note=66 velocity=60 time=0\n",
      "note_on channel=10 note=59 velocity=74 time=0\n",
      "note_on channel=10 note=63 velocity=63 time=1\n",
      "note_off channel=6 note=63 velocity=64 time=8\n",
      "note_off channel=6 note=57 velocity=64 time=1\n",
      "note_off channel=6 note=66 velocity=64 time=0\n",
      "note_off channel=0 note=66 velocity=64 time=6\n",
      "note_off channel=0 note=57 velocity=64 time=1\n",
      "note_off channel=10 note=63 velocity=64 time=1\n",
      "note_off channel=1 note=39 velocity=64 time=1\n",
      "note_on channel=6 note=57 velocity=73 time=2\n",
      "note_on channel=6 note=66 velocity=81 time=0\n",
      "note_on channel=6 note=63 velocity=68 time=1\n",
      "note_off channel=10 note=59 velocity=64 time=0\n",
      "note_on channel=9 note=40 velocity=102 time=2\n",
      "note_off channel=9 note=40 velocity=64 time=0\n",
      "note_on channel=9 note=69 velocity=51 time=0\n",
      "note_off channel=9 note=69 velocity=64 time=0\n",
      "note_on channel=1 note=39 velocity=100 time=0\n",
      "note_on channel=9 note=42 velocity=42 time=1\n",
      "note_off channel=9 note=42 velocity=64 time=0\n",
      "note_off channel=6 note=63 velocity=64 time=9\n",
      "note_off channel=6 note=66 velocity=64 time=2\n",
      "note_off channel=6 note=57 velocity=64 time=9\n",
      "note_on channel=9 note=69 velocity=48 time=4\n",
      "note_off channel=9 note=69 velocity=64 time=0\n",
      "note_off channel=1 note=39 velocity=64 time=5\n",
      "note_off channel=8 note=71 velocity=64 time=13\n",
      "note_off channel=8 note=83 velocity=64 time=0\n",
      "note_on channel=6 note=66 velocity=86 time=2\n",
      "note_on channel=6 note=63 velocity=74 time=1\n",
      "note_on channel=6 note=57 velocity=87 time=0\n",
      "note_on channel=8 note=85 velocity=79 time=0\n",
      "note_on channel=8 note=73 velocity=79 time=0\n",
      "note_on channel=9 note=54 velocity=68 time=1\n",
      "note_off channel=9 note=54 velocity=64 time=0\n",
      "note_on channel=9 note=36 velocity=102 time=1\n",
      "note_off channel=9 note=36 velocity=64 time=0\n",
      "note_on channel=9 note=46 velocity=41 time=0\n",
      "note_off channel=9 note=46 velocity=64 time=0\n",
      "note_on channel=9 note=69 velocity=62 time=0\n",
      "note_off channel=9 note=69 velocity=64 time=0\n",
      "note_on channel=1 note=39 velocity=77 time=0\n",
      "note_on channel=0 note=66 velocity=75 time=0\n",
      "note_on channel=0 note=57 velocity=79 time=0\n",
      "note_on channel=10 note=59 velocity=79 time=0\n",
      "note_on channel=10 note=63 velocity=87 time=0\n",
      "note_on channel=9 note=69 velocity=47 time=24\n",
      "note_off channel=9 note=69 velocity=64 time=0\n",
      "note_on channel=9 note=54 velocity=37 time=0\n",
      "note_off channel=9 note=54 velocity=64 time=0\n",
      "note_off channel=3 note=66 velocity=64 time=5\n",
      "note_off channel=6 note=63 velocity=64 time=8\n",
      "note_off channel=6 note=66 velocity=64 time=1\n",
      "note_off channel=6 note=57 velocity=64 time=5\n",
      "note_off channel=1 note=39 velocity=64 time=2\n",
      "<meta message lyrics text='Ooh, ' time=2>\n",
      "note_on channel=3 note=73 velocity=104 time=0\n",
      "note_off channel=8 note=73 velocity=64 time=0\n",
      "note_off channel=8 note=85 velocity=64 time=0\n",
      "note_off channel=4 note=66 velocity=64 time=1\n",
      "note_on channel=4 note=73 velocity=104 time=0\n",
      "note_on channel=9 note=36 velocity=104 time=0\n",
      "note_off channel=9 note=36 velocity=64 time=0\n",
      "note_on channel=9 note=42 velocity=40 time=0\n",
      "note_off channel=9 note=42 velocity=64 time=0\n",
      "note_on channel=9 note=69 velocity=48 time=0\n",
      "note_off channel=9 note=69 velocity=64 time=0\n",
      "note_on channel=8 note=87 velocity=79 time=0\n",
      "note_on channel=8 note=75 velocity=79 time=0\n",
      "note_off channel=10 note=63 velocity=64 time=1\n",
      "note_off channel=10 note=59 velocity=64 time=1\n",
      "note_on channel=9 note=40 velocity=102 time=22\n",
      "note_off channel=9 note=40 velocity=64 time=0\n",
      "note_on channel=9 note=69 velocity=48 time=0\n",
      "note_off channel=9 note=69 velocity=64 time=0\n",
      "note_on channel=6 note=57 velocity=93 time=0\n",
      "note_on channel=6 note=66 velocity=64 time=0\n",
      "note_on channel=6 note=63 velocity=54 time=0\n",
      "note_off channel=6 note=63 velocity=64 time=8\n",
      "note_on channel=1 note=49 velocity=80 time=14\n",
      "note_on channel=6 note=63 velocity=69 time=0\n",
      "note_on channel=10 note=59 velocity=87 time=1\n",
      "note_on channel=10 note=63 velocity=93 time=0\n",
      "note_on channel=9 note=69 velocity=64 time=1\n",
      "note_off channel=9 note=69 velocity=64 time=0\n",
      "note_on channel=9 note=54 velocity=68 time=0\n",
      "note_off channel=9 note=54 velocity=64 time=0\n",
      "note_off channel=6 note=66 velocity=64 time=13\n",
      "note_off channel=6 note=63 velocity=64 time=2\n",
      "note_off channel=8 note=75 velocity=64 time=1\n",
      "note_off channel=8 note=87 velocity=64 time=0\n",
      "note_off channel=3 note=73 velocity=64 time=6\n",
      "note_off channel=1 note=49 velocity=64 time=0\n",
      "note_on channel=1 note=42 velocity=73 time=0\n",
      "note_on channel=8 note=88 velocity=76 time=0\n",
      "note_on channel=8 note=76 velocity=76 time=0\n",
      "note_on channel=3 note=71 velocity=108 time=1\n",
      "note_off channel=4 note=73 velocity=64 time=1\n",
      "note_on channel=4 note=71 velocity=108 time=0\n",
      "note_on channel=9 note=69 velocity=45 time=0\n",
      "note_off channel=9 note=69 velocity=64 time=0\n",
      "note_on channel=9 note=54 velocity=38 time=0\n",
      "note_off channel=9 note=54 velocity=64 time=0\n",
      "note_off channel=6 note=57 velocity=64 time=5\n",
      "note_off channel=10 note=63 velocity=64 time=9\n",
      "note_off channel=10 note=59 velocity=64 time=4\n",
      "note_off channel=1 note=42 velocity=64 time=3\n",
      "note_on channel=1 note=49 velocity=79 time=2\n",
      "note_on channel=6 note=66 velocity=87 time=0\n",
      "note_on channel=6 note=57 velocity=86 time=0\n",
      "note_on channel=6 note=63 velocity=71 time=0\n",
      "note_on channel=9 note=40 velocity=107 time=1\n",
      "note_off channel=9 note=40 velocity=64 time=0\n",
      "note_on channel=9 note=42 velocity=44 time=0\n",
      "note_off channel=9 note=42 velocity=64 time=0\n",
      "note_on channel=9 note=69 velocity=55 time=0\n",
      "note_off channel=9 note=69 velocity=64 time=0\n",
      "note_on channel=10 note=63 velocity=81 time=1\n",
      "note_on channel=10 note=59 velocity=83 time=0\n",
      "note_off channel=0 note=57 velocity=64 time=11\n",
      "note_off channel=0 note=66 velocity=64 time=0\n",
      "note_off channel=1 note=49 velocity=64 time=11\n",
      "note_on channel=1 note=39 velocity=77 time=0\n",
      "note_on channel=9 note=69 velocity=40 time=1\n",
      "note_off channel=9 note=69 velocity=64 time=0\n",
      "note_off channel=6 note=63 velocity=64 time=3\n",
      "note_off channel=6 note=66 velocity=64 time=4\n",
      "note_off channel=6 note=57 velocity=64 time=1\n",
      "note_off channel=10 note=63 velocity=64 time=9\n",
      "note_off channel=10 note=59 velocity=64 time=4\n",
      "note_off channel=8 note=76 velocity=64 time=0\n",
      "note_off channel=8 note=88 velocity=64 time=0\n",
      "note_off channel=3 note=71 velocity=64 time=1\n",
      "note_on channel=8 note=90 velocity=73 time=0\n",
      "note_on channel=8 note=78 velocity=73 time=0\n",
      "note_on channel=3 note=69 velocity=107 time=1\n",
      "note_on channel=9 note=46 velocity=44 time=0\n",
      "note_off channel=9 note=46 velocity=64 time=0\n",
      "note_on channel=9 note=54 velocity=63 time=0\n",
      "note_off channel=9 note=54 velocity=64 time=0\n",
      "note_on channel=6 note=66 velocity=87 time=0\n",
      "note_on channel=6 note=63 velocity=65 time=0\n",
      "note_on channel=6 note=57 velocity=74 time=0\n",
      "note_off channel=4 note=71 velocity=64 time=1\n",
      "note_on channel=4 note=69 velocity=107 time=0\n",
      "note_on channel=9 note=69 velocity=65 time=0\n",
      "note_off channel=9 note=69 velocity=64 time=0\n",
      "note_off channel=6 note=63 velocity=64 time=10\n",
      "note_off channel=6 note=66 velocity=64 time=2\n",
      "note_off channel=1 note=39 velocity=64 time=3\n",
      "note_on channel=6 note=66 velocity=83 time=7\n",
      "note_on channel=6 note=63 velocity=72 time=1\n",
      "note_on channel=9 note=69 velocity=42 time=1\n",
      "note_off channel=9 note=69 velocity=64 time=0\n",
      "note_on channel=9 note=54 velocity=33 time=0\n",
      "note_off channel=9 note=54 velocity=64 time=0\n",
      "note_on channel=1 note=39 velocity=84 time=0\n",
      "note_off channel=6 note=63 velocity=64 time=14\n",
      "note_off channel=6 note=66 velocity=64 time=0\n",
      "note_off channel=6 note=57 velocity=64 time=0\n",
      "note_off channel=1 note=39 velocity=64 time=6\n",
      "note_off channel=3 note=69 velocity=64 time=3\n",
      "note_on channel=9 note=42 velocity=49 time=0\n",
      "note_off channel=9 note=42 velocity=64 time=0\n",
      "<meta message lyrics text='see ' time=1>\n",
      "note_on channel=3 note=68 velocity=107 time=0\n",
      "note_off channel=4 note=69 velocity=64 time=0\n",
      "note_off channel=4 note=63 velocity=64 time=0\n",
      "note_on channel=4 note=62 velocity=78 time=0\n",
      "note_on channel=4 note=68 velocity=107 time=0\n",
      "note_on channel=9 note=36 velocity=110 time=0\n",
      "note_off channel=9 note=36 velocity=64 time=0\n",
      "note_on channel=9 note=69 velocity=37 time=0\n",
      "note_off channel=9 note=69 velocity=64 time=0\n",
      "note_on channel=1 note=38 velocity=91 time=0\n",
      "note_on channel=0 note=64 velocity=78 time=0\n",
      "note_on channel=0 note=69 velocity=78 time=0\n",
      "note_on channel=10 note=54 velocity=60 time=0\n",
      "note_off channel=8 note=78 velocity=64 time=0\n",
      "note_off channel=8 note=90 velocity=64 time=0\n",
      "note_off channel=7 note=59 velocity=64 time=0\n",
      "note_off channel=7 note=63 velocity=64 time=0\n",
      "note_off channel=7 note=66 velocity=64 time=0\n",
      "note_on channel=7 note=54 velocity=67 time=0\n",
      "note_on channel=7 note=57 velocity=81 time=0\n",
      "note_on channel=7 note=64 velocity=77 time=0\n",
      "note_on channel=8 note=88 velocity=73 time=1\n",
      "note_on channel=8 note=76 velocity=73 time=0\n",
      "note_off channel=10 note=54 velocity=64 time=19\n",
      "note_on channel=10 note=57 velocity=65 time=3\n",
      "note_on channel=10 note=64 velocity=67 time=0\n",
      "note_on channel=9 note=42 velocity=40 time=1\n",
      "note_off channel=9 note=42 velocity=64 time=0\n",
      "note_on channel=9 note=69 velocity=40 time=0\n",
      "note_off channel=9 note=69 velocity=64 time=0\n",
      "note_on channel=6 note=69 velocity=69 time=0\n",
      "note_on channel=6 note=66 velocity=93 time=0\n",
      "note_on channel=6 note=62 velocity=75 time=0\n",
      "note_off channel=6 note=66 velocity=64 time=13\n",
      "note_off channel=6 note=62 velocity=64 time=1\n",
      "note_on channel=9 note=54 velocity=65 time=9\n",
      "note_off channel=9 note=54 velocity=64 time=0\n",
      "note_off channel=1 note=38 velocity=64 time=0\n",
      "note_on channel=6 note=62 velocity=56 time=0\n",
      "note_on channel=6 note=66 velocity=75 time=0\n",
      "note_on channel=9 note=46 velocity=51 time=1\n",
      "note_off channel=9 note=46 velocity=64 time=0\n",
      "note_on channel=9 note=69 velocity=64 time=0\n",
      "note_off channel=9 note=69 velocity=64 time=0\n",
      "note_off channel=0 note=69 velocity=64 time=11\n",
      "note_off channel=0 note=64 velocity=64 time=5\n",
      "note_off channel=6 note=69 velocity=64 time=4\n",
      "note_off channel=3 note=68 velocity=64 time=1\n",
      "note_off channel=6 note=66 velocity=64 time=0\n",
      "<meta message lyrics text='that ' time=2>\n",
      "note_on channel=3 note=69 velocity=107 time=0\n",
      "note_on channel=9 note=54 velocity=40 time=0\n",
      "note_off channel=9 note=54 velocity=64 time=0\n",
      "note_off channel=10 note=64 velocity=64 time=0\n",
      "note_off channel=4 note=68 velocity=64 time=1\n",
      "note_off channel=4 note=62 velocity=64 time=0\n",
      "note_on channel=4 note=69 velocity=107 time=0\n",
      "note_on channel=4 note=64 velocity=83 time=0\n",
      "note_on channel=9 note=69 velocity=39 time=0\n",
      "note_off channel=9 note=69 velocity=64 time=0\n",
      "note_on channel=1 note=38 velocity=86 time=0\n",
      "note_on channel=6 note=57 velocity=71 time=0\n",
      "note_off channel=10 note=57 velocity=64 time=0\n",
      "note_on channel=9 note=36 velocity=104 time=1\n",
      "note_off channel=9 note=36 velocity=64 time=0\n",
      "note_on channel=0 note=64 velocity=72 time=0\n",
      "note_on channel=0 note=69 velocity=79 time=0\n",
      "note_on channel=10 note=54 velocity=58 time=0\n",
      "note_off channel=6 note=62 velocity=64 time=1\n",
      "note_off channel=10 note=54 velocity=64 time=14\n",
      "note_off channel=6 note=57 velocity=64 time=1\n",
      "note_off channel=1 note=38 velocity=64 time=1\n",
      "note_off channel=0 note=64 velocity=64 time=4\n",
      "note_on channel=9 note=40 velocity=101 time=1\n",
      "note_off channel=9 note=40 velocity=64 time=0\n",
      "note_off channel=0 note=69 velocity=64 time=0\n",
      "note_on channel=6 note=62 velocity=71 time=0\n",
      "note_on channel=10 note=64 velocity=68 time=0\n",
      "note_on channel=10 note=57 velocity=77 time=0\n",
      "note_on channel=9 note=69 velocity=53 time=1\n",
      "note_off channel=9 note=69 velocity=64 time=0\n",
      "note_on channel=1 note=38 velocity=91 time=0\n",
      "note_on channel=6 note=66 velocity=86 time=0\n",
      "note_on channel=6 note=69 velocity=74 time=0\n",
      "note_on channel=9 note=42 velocity=43 time=1\n",
      "note_off channel=9 note=42 velocity=64 time=0\n",
      "note_off channel=3 note=69 velocity=64 time=9\n",
      "note_on channel=10 note=54 velocity=54 time=13\n",
      "note_on channel=9 note=69 velocity=40 time=1\n",
      "note_off channel=9 note=69 velocity=64 time=0\n",
      "note_on channel=6 note=57 velocity=59 time=0\n",
      "note_off channel=6 note=66 velocity=64 time=1\n",
      "note_off channel=6 note=69 velocity=64 time=2\n",
      "note_off channel=10 note=57 velocity=64 time=0\n",
      "note_off channel=6 note=62 velocity=64 time=1\n",
      "note_off channel=10 note=64 velocity=64 time=1\n",
      "note_off channel=1 note=38 velocity=64 time=1\n",
      "note_off channel=10 note=54 velocity=64 time=8\n",
      "note_off channel=6 note=57 velocity=64 time=2\n",
      "<meta message lyrics text='girl, ' time=7>\n",
      "note_on channel=3 note=69 velocity=107 time=0\n",
      "note_off channel=4 note=64 velocity=64 time=0\n",
      "note_off channel=4 note=69 velocity=64 time=0\n",
      "note_on channel=0 note=69 velocity=73 time=0\n",
      "note_on channel=0 note=64 velocity=75 time=0\n",
      "note_on channel=6 note=69 velocity=67 time=0\n",
      "note_on channel=6 note=62 velocity=72 time=0\n",
      "note_on channel=6 note=66 velocity=81 time=0\n",
      "note_on channel=10 note=64 velocity=73 time=0\n",
      "note_on channel=10 note=57 velocity=69 time=0\n",
      "note_on channel=4 note=69 velocity=107 time=1\n",
      "note_on channel=4 note=64 velocity=85 time=0\n",
      "note_on channel=9 note=36 velocity=104 time=0\n",
      "note_off channel=9 note=36 velocity=64 time=0\n",
      "note_on channel=9 note=69 velocity=63 time=0\n",
      "note_off channel=9 note=69 velocity=64 time=0\n",
      "note_on channel=9 note=54 velocity=68 time=0\n",
      "note_off channel=9 note=54 velocity=64 time=0\n",
      "note_on channel=1 note=38 velocity=95 time=0\n",
      "note_on channel=9 note=46 velocity=41 time=1\n",
      "note_off channel=9 note=46 velocity=64 time=0\n",
      "note_off channel=6 note=66 velocity=64 time=10\n",
      "note_off channel=10 note=57 velocity=64 time=0\n",
      "note_off channel=6 note=62 velocity=64 time=1\n",
      "note_off channel=6 note=69 velocity=64 time=0\n",
      "note_on channel=6 note=62 velocity=65 time=11\n",
      "note_on channel=6 note=69 velocity=63 time=0\n",
      "note_on channel=6 note=66 velocity=75 time=0\n",
      "note_on channel=10 note=57 velocity=62 time=0\n",
      "note_on channel=9 note=69 velocity=39 time=1\n",
      "note_off channel=9 note=69 velocity=64 time=0\n",
      "note_on channel=9 note=54 velocity=41 time=0\n",
      "note_off channel=9 note=54 velocity=64 time=0\n",
      "note_off channel=1 note=38 velocity=64 time=19\n",
      "note_off channel=6 note=66 velocity=64 time=3\n",
      "note_off channel=6 note=69 velocity=64 time=1\n",
      "note_off channel=10 note=57 velocity=64 time=0\n",
      "note_off channel=10 note=64 velocity=64 time=0\n",
      "note_on channel=9 note=36 velocity=110 time=1\n",
      "note_off channel=9 note=36 velocity=64 time=0\n",
      "note_on channel=9 note=69 velocity=39 time=0\n",
      "note_off channel=9 note=69 velocity=64 time=0\n",
      "note_on channel=6 note=57 velocity=59 time=0\n",
      "note_on channel=9 note=42 velocity=40 time=1\n",
      "note_off channel=9 note=42 velocity=64 time=0\n",
      "note_off channel=6 note=62 velocity=64 time=0\n",
      "note_off channel=6 note=57 velocity=64 time=11\n",
      "note_on channel=10 note=57 velocity=72 time=11\n",
      "note_on channel=10 note=64 velocity=70 time=0\n",
      "note_on channel=9 note=69 velocity=46 time=1\n",
      "note_off channel=9 note=69 velocity=64 time=0\n",
      "note_on channel=1 note=33 velocity=76 time=0\n",
      "note_on channel=6 note=62 velocity=73 time=0\n",
      "note_on channel=6 note=69 velocity=75 time=0\n",
      "note_on channel=6 note=66 velocity=81 time=0\n",
      "note_off channel=10 note=57 velocity=64 time=13\n",
      "note_off channel=1 note=33 velocity=64 time=3\n",
      "note_off channel=10 note=64 velocity=64 time=2\n",
      "note_off channel=6 note=69 velocity=64 time=1\n",
      "note_off channel=6 note=62 velocity=64 time=0\n",
      "note_off channel=6 note=66 velocity=64 time=1\n",
      "note_on channel=6 note=57 velocity=58 time=3\n",
      "note_on channel=9 note=46 velocity=41 time=1\n",
      "note_off channel=9 note=46 velocity=64 time=0\n",
      "note_on channel=9 note=69 velocity=64 time=0\n",
      "note_off channel=9 note=69 velocity=64 time=0\n",
      "note_on channel=9 note=54 velocity=57 time=0\n",
      "note_off channel=9 note=54 velocity=64 time=0\n",
      "note_on channel=1 note=38 velocity=95 time=0\n",
      "note_off channel=6 note=57 velocity=64 time=7\n",
      "note_on channel=9 note=54 velocity=33 time=16\n",
      "note_off channel=9 note=54 velocity=64 time=0\n",
      "note_on channel=9 note=69 velocity=44 time=1\n",
      "note_off channel=9 note=69 velocity=64 time=0\n",
      "note_on channel=6 note=57 velocity=58 time=1\n",
      "note_off channel=6 note=57 velocity=64 time=20\n",
      "note_on channel=10 note=57 velocity=67 time=1\n",
      "note_on channel=6 note=62 velocity=95 time=1\n",
      "note_on channel=6 note=69 velocity=76 time=0\n",
      "note_on channel=10 note=64 velocity=68 time=0\n",
      "note_on channel=9 note=40 velocity=104 time=1\n",
      "note_off channel=9 note=40 velocity=64 time=0\n",
      "note_on channel=9 note=42 velocity=41 time=0\n",
      "note_off channel=9 note=42 velocity=64 time=0\n",
      "note_on channel=9 note=69 velocity=46 time=0\n",
      "note_off channel=9 note=69 velocity=64 time=0\n",
      "note_on channel=6 note=66 velocity=98 time=0\n",
      "note_off channel=1 note=38 velocity=64 time=3\n",
      "note_off channel=3 note=69 velocity=64 time=15\n",
      "note_on channel=9 note=42 velocity=40 time=6\n",
      "note_off channel=9 note=42 velocity=64 time=0\n",
      "note_on channel=9 note=69 velocity=38 time=0\n",
      "note_off channel=9 note=69 velocity=64 time=0\n",
      "note_on channel=1 note=37 velocity=80 time=0\n",
      "note_on channel=9 note=54 velocity=56 time=23\n",
      "note_off channel=9 note=54 velocity=64 time=0\n",
      "note_on channel=9 note=46 velocity=47 time=1\n",
      "note_off channel=9 note=46 velocity=64 time=0\n",
      "note_on channel=9 note=69 velocity=65 time=0\n",
      "note_off channel=9 note=69 velocity=64 time=0\n",
      "note_off channel=0 note=64 velocity=64 time=6\n",
      "note_off channel=0 note=69 velocity=64 time=5\n",
      "note_on channel=9 note=54 velocity=46 time=12\n",
      "note_off channel=9 note=54 velocity=64 time=0\n",
      "note_on channel=9 note=69 velocity=37 time=1\n",
      "note_off channel=9 note=69 velocity=64 time=0\n",
      "note_off channel=6 note=66 velocity=64 time=12\n",
      "note_off channel=6 note=69 velocity=64 time=2\n",
      "note_off channel=1 note=37 velocity=64 time=2\n",
      "note_off channel=6 note=62 velocity=64 time=0\n",
      "<meta message lyrics text='watch ' time=7>\n",
      "note_on channel=3 note=68 velocity=104 time=0\n",
      "note_off channel=4 note=64 velocity=64 time=0\n",
      "note_on channel=1 note=35 velocity=91 time=0\n",
      "note_off channel=4 note=69 velocity=64 time=1\n",
      "note_on channel=4 note=68 velocity=104 time=0\n",
      "note_on channel=4 note=62 velocity=77 time=0\n",
      "note_on channel=4 note=64 velocity=76 time=0\n",
      "note_on channel=9 note=36 velocity=107 time=0\n",
      "note_off channel=9 note=36 velocity=64 time=0\n",
      "note_on channel=9 note=42 velocity=46 time=0\n",
      "note_off channel=9 note=42 velocity=64 time=0\n",
      "note_on channel=9 note=69 velocity=39 time=0\n",
      "note_off channel=9 note=69 velocity=64 time=0\n",
      "note_on channel=0 note=69 velocity=73 time=0\n",
      "note_on channel=0 note=64 velocity=78 time=0\n",
      "note_off channel=7 note=64 velocity=64 time=0\n",
      "note_on channel=7 note=62 velocity=70 time=0\n",
      "note_off channel=10 note=57 velocity=64 time=1\n",
      "note_off channel=10 note=64 velocity=64 time=2\n",
      "note_on channel=6 note=69 velocity=68 time=20\n",
      "note_on channel=6 note=66 velocity=95 time=0\n",
      "note_on channel=6 note=62 velocity=87 time=0\n",
      "note_on channel=10 note=57 velocity=64 time=0\n",
      "note_on channel=10 note=64 velocity=65 time=0\n",
      "note_on channel=9 note=42 velocity=40 time=1\n",
      "note_off channel=9 note=42 velocity=64 time=0\n",
      "note_on channel=9 note=69 velocity=39 time=0\n",
      "note_off channel=9 note=69 velocity=64 time=0\n",
      "note_off channel=10 note=57 velocity=64 time=9\n",
      "note_off channel=6 note=66 velocity=64 time=1\n",
      "note_off channel=6 note=62 velocity=64 time=1\n",
      "note_off channel=6 note=69 velocity=64 time=0\n",
      "note_on channel=6 note=62 velocity=63 time=11\n",
      "note_on channel=6 note=66 velocity=81 time=0\n",
      "note_on channel=10 note=57 velocity=63 time=0\n",
      "note_on channel=9 note=69 velocity=67 time=1\n",
      "note_off channel=9 note=69 velocity=64 time=0\n",
      "note_on channel=9 note=54 velocity=57 time=0\n",
      "note_off channel=9 note=54 velocity=64 time=0\n",
      "note_on channel=6 note=69 velocity=63 time=0\n",
      "note_on channel=9 note=46 velocity=43 time=1\n",
      "note_off channel=9 note=46 velocity=64 time=0\n",
      "note_off channel=0 note=69 velocity=64 time=8\n",
      "note_off channel=0 note=64 velocity=64 time=4\n",
      "note_off channel=1 note=35 velocity=64 time=4\n",
      "note_off channel=3 note=68 velocity=64 time=6\n",
      "note_off channel=10 note=64 velocity=64 time=0\n",
      "<meta message lyrics text='that ' time=1>\n",
      "note_on channel=3 note=69 velocity=107 time=0\n",
      "note_off channel=4 note=62 velocity=64 time=0\n",
      "note_on channel=9 note=69 velocity=42 time=0\n",
      "note_off channel=9 note=69 velocity=64 time=0\n",
      "note_on channel=9 note=54 velocity=37 time=0\n",
      "note_off channel=9 note=54 velocity=64 time=0\n",
      "note_on channel=1 note=30 velocity=100 time=0\n",
      "note_off channel=4 note=68 velocity=64 time=1\n",
      "note_on channel=4 note=69 velocity=107 time=0\n",
      "note_on channel=4 note=62 velocity=78 time=0\n",
      "note_on channel=0 note=64 velocity=77 time=0\n",
      "note_on channel=0 note=69 velocity=69 time=0\n",
      "note_on channel=10 note=54 velocity=57 time=0\n",
      "note_on channel=9 note=36 velocity=107 time=1\n",
      "note_off channel=9 note=36 velocity=64 time=0\n",
      "note_off channel=6 note=69 velocity=64 time=0\n",
      "note_off channel=6 note=66 velocity=64 time=0\n",
      "note_on channel=6 note=57 velocity=63 time=0\n",
      "note_off channel=10 note=57 velocity=64 time=0\n",
      "note_off channel=6 note=62 velocity=64 time=5\n",
      "note_off channel=10 note=54 velocity=64 time=3\n",
      "note_off channel=1 note=30 velocity=64 time=3\n",
      "note_off channel=6 note=57 velocity=64 time=3\n",
      "note_off channel=0 note=64 velocity=64 time=1\n",
      "note_off channel=0 note=69 velocity=64 time=1\n",
      "note_on channel=6 note=69 velocity=68 time=5\n",
      "note_on channel=10 note=57 velocity=59 time=0\n",
      "note_on channel=10 note=64 velocity=65 time=0\n",
      "note_on channel=1 note=35 velocity=86 time=1\n",
      "note_on channel=6 note=62 velocity=73 time=0\n",
      "note_on channel=6 note=66 velocity=67 time=0\n",
      "note_on channel=9 note=40 velocity=94 time=1\n",
      "note_off channel=9 note=40 velocity=64 time=0\n",
      "note_on channel=9 note=42 velocity=39 time=0\n",
      "note_off channel=9 note=42 velocity=64 time=0\n",
      "note_on channel=9 note=69 velocity=49 time=0\n",
      "note_off channel=9 note=69 velocity=64 time=0\n",
      "note_off channel=3 note=69 velocity=64 time=8\n",
      "note_on channel=9 note=69 velocity=47 time=16\n",
      "note_off channel=9 note=69 velocity=64 time=0\n",
      "note_off channel=6 note=66 velocity=64 time=0\n",
      "note_on channel=6 note=57 velocity=56 time=0\n",
      "note_off channel=6 note=62 velocity=64 time=1\n",
      "note_off channel=6 note=69 velocity=64 time=0\n",
      "note_off channel=10 note=64 velocity=64 time=1\n",
      "note_off channel=1 note=35 velocity=64 time=2\n",
      "note_off channel=10 note=57 velocity=64 time=2\n",
      "note_off channel=6 note=57 velocity=64 time=12\n",
      "<meta message lyrics text='scene, ' time=5>\n",
      "<meta message lyrics text='\\r' time=0>\n",
      "note_on channel=3 note=69 velocity=106 time=0\n",
      "note_off channel=4 note=62 velocity=64 time=0\n",
      "note_off channel=4 note=69 velocity=64 time=0\n",
      "note_on channel=9 note=54 velocity=70 time=0\n",
      "note_off channel=9 note=54 velocity=64 time=0\n",
      "note_on channel=1 note=35 velocity=91 time=0\n",
      "note_on channel=0 note=64 velocity=80 time=0\n",
      "note_on channel=0 note=69 velocity=75 time=0\n",
      "note_on channel=6 note=69 velocity=65 time=0\n",
      "note_on channel=6 note=62 velocity=69 time=0\n",
      "note_on channel=6 note=66 velocity=76 time=0\n",
      "note_on channel=10 note=64 velocity=71 time=0\n",
      "note_on channel=10 note=57 velocity=66 time=0\n",
      "note_on channel=4 note=69 velocity=106 time=1\n",
      "note_on channel=4 note=62 velocity=79 time=0\n",
      "note_on channel=9 note=36 velocity=102 time=0\n",
      "note_off channel=9 note=36 velocity=64 time=0\n",
      "note_on channel=9 note=46 velocity=39 time=0\n",
      "note_off channel=9 note=46 velocity=64 time=0\n",
      "note_on channel=9 note=69 velocity=69 time=0\n",
      "note_off channel=9 note=69 velocity=64 time=0\n",
      "note_off channel=6 note=66 velocity=64 time=11\n",
      "note_off channel=6 note=62 velocity=64 time=0\n",
      "note_off channel=10 note=57 velocity=64 time=1\n",
      "note_off channel=6 note=69 velocity=64 time=2\n",
      "note_on channel=6 note=69 velocity=62 time=8\n",
      "note_on channel=6 note=66 velocity=79 time=0\n",
      "note_on channel=6 note=62 velocity=65 time=0\n",
      "note_on channel=9 note=54 velocity=38 time=1\n",
      "note_off channel=9 note=54 velocity=64 time=0\n",
      "note_on channel=10 note=57 velocity=63 time=0\n",
      "note_on channel=9 note=69 velocity=49 time=1\n",
      "note_off channel=9 note=69 velocity=64 time=0\n",
      "note_off channel=6 note=66 velocity=64 time=22\n",
      "note_off channel=6 note=69 velocity=64 time=0\n",
      "note_off channel=10 note=57 velocity=64 time=1\n",
      "note_on channel=9 note=36 velocity=102 time=1\n",
      "note_off channel=9 note=36 velocity=64 time=0\n",
      "note_on channel=9 note=42 velocity=40 time=0\n",
      "note_off channel=9 note=42 velocity=64 time=0\n",
      "note_on channel=9 note=69 velocity=50 time=0\n",
      "note_off channel=9 note=69 velocity=64 time=0\n",
      "note_on channel=6 note=57 velocity=59 time=0\n",
      "note_off channel=10 note=64 velocity=64 time=0\n",
      "note_off channel=6 note=62 velocity=64 time=1\n",
      "note_off channel=6 note=57 velocity=64 time=13\n",
      "note_on channel=6 note=62 velocity=79 time=9\n",
      "note_on channel=6 note=69 velocity=73 time=0\n",
      "note_on channel=6 note=66 velocity=75 time=0\n",
      "note_on channel=10 note=57 velocity=64 time=0\n",
      "note_on channel=10 note=64 velocity=72 time=0\n",
      "note_on channel=9 note=40 velocity=107 time=1\n",
      "note_off channel=9 note=40 velocity=64 time=0\n",
      "note_on channel=9 note=69 velocity=46 time=0\n",
      "note_off channel=9 note=69 velocity=64 time=0\n",
      "note_off channel=1 note=35 velocity=64 time=10\n",
      "note_off channel=10 note=57 velocity=64 time=4\n",
      "note_off channel=10 note=64 velocity=64 time=2\n",
      "note_off channel=6 note=62 velocity=64 time=2\n",
      "note_off channel=6 note=66 velocity=64 time=1\n",
      "note_off channel=6 note=69 velocity=64 time=0\n",
      "note_on channel=6 note=57 velocity=58 time=3\n",
      "note_on channel=9 note=54 velocity=65 time=1\n",
      "note_off channel=9 note=54 velocity=64 time=0\n",
      "note_on channel=1 note=30 velocity=103 time=0\n",
      "note_on channel=9 note=69 velocity=71 time=1\n",
      "note_off channel=9 note=69 velocity=64 time=0\n",
      "note_off channel=3 note=69 velocity=64 time=2\n",
      "note_off channel=6 note=57 velocity=64 time=2\n",
      "note_off channel=1 note=30 velocity=64 time=12\n",
      "note_on channel=9 note=54 velocity=44 time=7\n",
      "note_off channel=9 note=54 velocity=64 time=0\n",
      "note_on channel=1 note=35 velocity=89 time=0\n",
      "note_on channel=9 note=69 velocity=40 time=1\n",
      "note_off channel=9 note=69 velocity=64 time=0\n",
      "note_on channel=6 note=57 velocity=55 time=0\n",
      "note_on channel=10 note=54 velocity=48 time=1\n",
      "note_off channel=10 note=54 velocity=64 time=11\n",
      "note_off channel=4 note=62 velocity=64 time=11\n",
      "note_on channel=9 note=42 velocity=45 time=0\n",
      "note_off channel=9 note=42 velocity=64 time=0\n",
      "note_off channel=1 note=35 velocity=64 time=0\n",
      "note_on channel=1 note=28 velocity=89 time=0\n",
      "note_on channel=6 note=69 velocity=73 time=0\n",
      "note_on channel=6 note=62 velocity=90 time=0\n",
      "note_on channel=6 note=66 velocity=85 time=0\n",
      "note_on channel=10 note=64 velocity=72 time=0\n",
      "note_on channel=10 note=57 velocity=81 time=0\n",
      "<meta message lyrics text='dig ' time=1>\n",
      "note_on channel=3 note=71 velocity=105 time=0\n",
      "note_off channel=4 note=69 velocity=64 time=0\n",
      "note_on channel=4 note=62 velocity=79 time=0\n",
      "note_on channel=4 note=71 velocity=105 time=0\n",
      "note_on channel=9 note=40 velocity=102 time=0\n",
      "note_off channel=9 note=40 velocity=64 time=0\n",
      "note_on channel=9 note=69 velocity=52 time=0\n",
      "note_off channel=9 note=69 velocity=64 time=0\n",
      "note_off channel=6 note=57 velocity=64 time=2\n",
      "note_off channel=3 note=71 velocity=64 time=21\n",
      "note_off channel=4 note=62 velocity=64 time=0\n",
      "<meta message lyrics text='in ' time=1>\n",
      "note_on channel=3 note=69 velocity=103 time=0\n",
      "note_off channel=4 note=71 velocity=64 time=0\n",
      "note_on channel=4 note=62 velocity=79 time=0\n",
      "note_on channel=4 note=69 velocity=103 time=0\n",
      "note_on channel=9 note=69 velocity=43 time=0\n",
      "note_off channel=9 note=69 velocity=64 time=0\n",
      "note_on channel=9 note=46 velocity=39 time=23\n",
      "note_off channel=9 note=46 velocity=64 time=0\n",
      "note_on channel=9 note=54 velocity=63 time=0\n",
      "note_off channel=9 note=54 velocity=64 time=0\n",
      "note_off channel=1 note=28 velocity=64 time=0\n",
      "note_on channel=1 note=30 velocity=93 time=0\n",
      "note_on channel=9 note=69 velocity=64 time=1\n",
      "note_off channel=9 note=69 velocity=64 time=0\n",
      "note_off channel=7 note=54 velocity=64 time=0\n",
      "note_off channel=0 note=64 velocity=64 time=2\n",
      "note_off channel=0 note=69 velocity=64 time=1\n",
      "note_off channel=3 note=69 velocity=64 time=20\n",
      "note_off channel=4 note=62 velocity=64 time=0\n",
      "<meta message lyrics text='the ' time=1>\n",
      "note_on channel=3 note=68 velocity=104 time=0\n",
      "note_off channel=4 note=69 velocity=64 time=0\n",
      "note_on channel=4 note=62 velocity=78 time=0\n",
      "note_on channel=4 note=68 velocity=104 time=0\n",
      "note_on channel=9 note=69 velocity=43 time=0\n",
      "note_off channel=9 note=69 velocity=64 time=0\n",
      "note_on channel=9 note=54 velocity=42 time=0\n",
      "note_off channel=9 note=54 velocity=64 time=0\n",
      "note_off channel=6 note=69 velocity=64 time=15\n",
      "note_off channel=6 note=66 velocity=64 time=1\n",
      "note_off channel=3 note=68 velocity=64 time=2\n",
      "note_off channel=1 note=30 velocity=64 time=0\n",
      "note_off channel=6 note=62 velocity=64 time=0\n",
      "note_on channel=6 note=57 velocity=60 time=4\n",
      "note_off channel=4 note=68 velocity=64 time=1\n",
      "note_off channel=4 note=62 velocity=64 time=0\n",
      "note_on channel=9 note=42 velocity=46 time=0\n",
      "note_off channel=9 note=42 velocity=64 time=0\n",
      "note_on channel=1 note=33 velocity=71 time=0\n",
      "note_on channel=4 note=62 velocity=78 time=1\n",
      "note_on channel=4 note=68 velocity=105 time=0\n",
      "note_on channel=9 note=36 velocity=111 time=0\n",
      "note_off channel=9 note=36 velocity=64 time=0\n",
      "note_on channel=0 note=69 velocity=73 time=0\n",
      "note_on channel=0 note=64 velocity=80 time=0\n",
      "note_on channel=7 note=64 velocity=75 time=0\n",
      "<meta message lyrics text='danc' time=1>\n",
      "note_on channel=3 note=68 velocity=105 time=0\n",
      "note_on channel=9 note=69 velocity=47 time=0\n",
      "note_off channel=9 note=69 velocity=64 time=0\n",
      "note_off channel=10 note=57 velocity=64 time=1\n",
      "note_off channel=10 note=64 velocity=64 time=3\n",
      "note_off channel=6 note=57 velocity=64 time=18\n",
      "note_on channel=6 note=64 velocity=76 time=0\n",
      "note_on channel=6 note=69 velocity=74 time=0\n",
      "note_on channel=6 note=62 velocity=72 time=0\n",
      "note_on channel=10 note=62 velocity=74 time=0\n",
      "note_on channel=10 note=57 velocity=65 time=0\n",
      "note_on channel=9 note=42 velocity=38 time=1\n",
      "note_off channel=9 note=42 velocity=64 time=0\n",
      "note_on channel=9 note=69 velocity=45 time=1\n",
      "note_off channel=9 note=69 velocity=64 time=0\n",
      "note_off channel=6 note=64 velocity=64 time=10\n",
      "note_off channel=10 note=62 velocity=64 time=3\n",
      "note_on channel=10 note=62 velocity=58 time=8\n",
      "note_on channel=9 note=46 velocity=46 time=1\n",
      "note_off channel=9 note=46 velocity=64 time=0\n",
      "note_on channel=9 note=54 velocity=70 time=0\n",
      "note_off channel=9 note=54 velocity=64 time=0\n",
      "note_on channel=6 note=64 velocity=67 time=0\n",
      "note_on channel=9 note=69 velocity=66 time=1\n",
      "note_off channel=9 note=69 velocity=64 time=0\n",
      "note_off channel=0 note=69 velocity=64 time=6\n",
      "note_off channel=1 note=33 velocity=64 time=1\n",
      "note_off channel=0 note=64 velocity=64 time=3\n",
      "note_off channel=6 note=69 velocity=64 time=9\n",
      "note_off channel=6 note=62 velocity=64 time=3\n",
      "note_off channel=10 note=62 velocity=64 time=0\n",
      "note_off channel=10 note=57 velocity=64 time=1\n",
      "note_off channel=3 note=68 velocity=64 time=1\n",
      "note_off channel=4 note=68 velocity=64 time=0\n",
      "note_off channel=4 note=62 velocity=64 time=0\n",
      "note_on channel=4 note=61 velocity=78 time=0\n",
      "note_on channel=4 note=69 velocity=106 time=0\n",
      "note_on channel=9 note=69 velocity=43 time=0\n",
      "note_off channel=9 note=69 velocity=64 time=0\n",
      "note_on channel=9 note=54 velocity=47 time=0\n",
      "note_off channel=9 note=54 velocity=64 time=0\n",
      "note_on channel=1 note=33 velocity=77 time=0\n",
      "note_on channel=0 note=64 velocity=80 time=0\n",
      "note_on channel=0 note=57 velocity=76 time=0\n",
      "note_on channel=0 note=62 velocity=87 time=0\n",
      "note_on channel=0 note=69 velocity=71 time=0\n",
      "note_off channel=6 note=64 velocity=64 time=0\n",
      "note_on channel=6 note=57 velocity=59 time=0\n",
      "<meta message lyrics text='ing ' time=1>\n",
      "note_on channel=3 note=69 velocity=106 time=0\n",
      "note_on channel=9 note=36 velocity=101 time=0\n",
      "note_off channel=9 note=36 velocity=64 time=0\n",
      "note_off channel=1 note=33 velocity=64 time=12\n",
      "note_off channel=0 note=69 velocity=64 time=3\n",
      "note_off channel=6 note=57 velocity=64 time=1\n",
      "note_on channel=9 note=40 velocity=88 time=6\n",
      "note_off channel=9 note=40 velocity=64 time=0\n",
      "note_on channel=6 note=62 velocity=83 time=0\n",
      "note_on channel=6 note=69 velocity=77 time=0\n",
      "note_on channel=6 note=64 velocity=83 time=0\n",
      "note_on channel=10 note=57 velocity=69 time=0\n",
      "note_on channel=10 note=62 velocity=81 time=0\n",
      "note_on channel=9 note=69 velocity=50 time=1\n",
      "note_off channel=9 note=69 velocity=64 time=0\n",
      "note_on channel=1 note=33 velocity=85 time=0\n",
      "note_on channel=9 note=42 velocity=44 time=1\n",
      "note_off channel=9 note=42 velocity=64 time=0\n",
      "note_off channel=0 note=62 velocity=64 time=0\n",
      "note_off channel=3 note=69 velocity=64 time=5\n",
      "note_off channel=0 note=64 velocity=64 time=2\n",
      "note_off channel=6 note=64 velocity=64 time=8\n",
      "note_off channel=0 note=57 velocity=64 time=2\n",
      "note_off channel=6 note=69 velocity=64 time=1\n",
      "note_off channel=6 note=62 velocity=64 time=1\n",
      "note_on channel=9 note=69 velocity=46 time=4\n",
      "note_off channel=9 note=69 velocity=64 time=0\n",
      "note_on channel=6 note=57 velocity=60 time=0\n",
      "note_off channel=10 note=62 velocity=64 time=4\n",
      "note_off channel=1 note=33 velocity=64 time=3\n",
      "note_off channel=10 note=57 velocity=64 time=0\n",
      "note_off channel=6 note=57 velocity=64 time=10\n",
      "note_off channel=4 note=69 velocity=64 time=6\n",
      "note_off channel=4 note=61 velocity=64 time=0\n",
      "note_on channel=9 note=54 velocity=65 time=0\n",
      "note_off channel=9 note=54 velocity=64 time=0\n",
      "note_on channel=1 note=33 velocity=89 time=0\n",
      "note_on channel=0 note=64 velocity=87 time=0\n",
      "<meta message lyrics text='queen. ' time=1>\n",
      "<meta message lyrics text='\\r' time=0>\n",
      "note_on channel=3 note=69 velocity=105 time=0\n",
      "note_on channel=4 note=61 velocity=77 time=0\n",
      "note_on channel=4 note=69 velocity=105 time=0\n",
      "note_on channel=9 note=36 velocity=102 time=0\n",
      "note_off channel=9 note=36 velocity=64 time=0\n",
      "note_on channel=9 note=46 velocity=40 time=0\n",
      "note_off channel=9 note=46 velocity=64 time=0\n",
      "note_on channel=9 note=69 velocity=62 time=0\n",
      "note_off channel=9 note=69 velocity=64 time=0\n",
      "note_on channel=0 note=57 velocity=87 time=0\n",
      "note_on channel=0 note=61 velocity=79 time=0\n",
      "note_on channel=0 note=69 velocity=71 time=0\n",
      "note_on channel=10 note=61 velocity=64 time=0\n",
      "note_on channel=10 note=57 velocity=64 time=0\n",
      "note_off channel=7 note=62 velocity=64 time=0\n",
      "note_on channel=7 note=61 velocity=73 time=0\n",
      "note_on channel=6 note=64 velocity=90 time=1\n",
      "note_on channel=6 note=69 velocity=73 time=0\n",
      "note_on channel=6 note=61 velocity=67 time=0\n",
      "note_off channel=10 note=61 velocity=64 time=11\n",
      "note_off channel=6 note=64 velocity=64 time=5\n",
      "note_on channel=9 note=69 velocity=47 time=7\n",
      "note_off channel=9 note=69 velocity=64 time=0\n",
      "note_on channel=9 note=54 velocity=39 time=0\n",
      "note_off channel=9 note=54 velocity=64 time=0\n",
      "note_on channel=6 note=64 velocity=60 time=0\n",
      "note_on channel=10 note=61 velocity=64 time=0\n",
      "note_off channel=1 note=33 velocity=64 time=12\n",
      "note_off channel=6 note=69 velocity=64 time=8\n",
      "note_off channel=10 note=61 velocity=64 time=0\n",
      "note_off channel=6 note=64 velocity=64 time=1\n",
      "note_off channel=6 note=61 velocity=64 time=0\n",
      "note_off channel=10 note=57 velocity=64 time=0\n",
      "note_on channel=9 note=36 velocity=111 time=3\n",
      "note_off channel=9 note=36 velocity=64 time=0\n",
      "note_on channel=9 note=42 velocity=42 time=0\n",
      "note_off channel=9 note=42 velocity=64 time=0\n",
      "note_on channel=9 note=69 velocity=47 time=0\n",
      "note_off channel=9 note=69 velocity=64 time=0\n",
      "note_on channel=6 note=57 velocity=59 time=0\n",
      "note_off channel=6 note=57 velocity=64 time=15\n",
      "note_on channel=10 note=57 velocity=70 time=7\n",
      "note_on channel=10 note=61 velocity=79 time=0\n",
      "note_on channel=1 note=33 velocity=83 time=1\n",
      "note_on channel=6 note=69 velocity=74 time=0\n",
      "note_on channel=9 note=69 velocity=43 time=1\n",
      "note_off channel=9 note=69 velocity=64 time=0\n",
      "note_on channel=6 note=61 velocity=63 time=0\n",
      "note_on channel=6 note=64 velocity=86 time=0\n",
      "note_off channel=10 note=61 velocity=64 time=12\n",
      "note_off channel=10 note=57 velocity=64 time=5\n",
      "note_off channel=6 note=69 velocity=64 time=2\n",
      "note_off channel=6 note=64 velocity=64 time=2\n",
      "note_off channel=1 note=33 velocity=64 time=1\n",
      "note_on channel=1 note=40 velocity=82 time=0\n",
      "note_on channel=9 note=54 velocity=57 time=1\n",
      "note_off channel=9 note=54 velocity=64 time=0\n",
      "note_off channel=6 note=61 velocity=64 time=0\n",
      "note_on channel=9 note=46 velocity=40 time=1\n",
      "note_off channel=9 note=46 velocity=64 time=0\n",
      "note_on channel=9 note=69 velocity=71 time=0\n",
      "note_off channel=9 note=69 velocity=64 time=0\n",
      "note_on channel=6 note=57 velocity=58 time=0\n",
      "note_off channel=6 note=57 velocity=64 time=8\n",
      "note_off channel=0 note=57 velocity=64 time=7\n",
      "note_off channel=1 note=40 velocity=64 time=4\n",
      "note_off channel=0 note=61 velocity=64 time=0\n",
      "note_on channel=1 note=42 velocity=71 time=4\n",
      "note_on channel=9 note=69 velocity=39 time=1\n",
      "note_off channel=9 note=69 velocity=64 time=0\n",
      "note_on channel=9 note=54 velocity=42 time=0\n",
      "note_off channel=9 note=54 velocity=64 time=0\n",
      "note_off channel=0 note=64 velocity=64 time=0\n",
      "note_on channel=0 note=93 velocity=83 time=0\n",
      "note_on channel=0 note=88 velocity=120 time=0\n",
      "note_on channel=0 note=85 velocity=101 time=0\n",
      "note_on channel=10 note=52 velocity=58 time=0\n",
      "note_off channel=0 note=69 velocity=64 time=1\n",
      "note_on channel=6 note=57 velocity=56 time=1\n",
      "note_off channel=0 note=85 velocity=64 time=6\n",
      "note_off channel=10 note=52 velocity=64 time=3\n",
      "note_off channel=0 note=88 velocity=64 time=1\n",
      "note_off channel=6 note=57 velocity=64 time=3\n",
      "note_off channel=0 note=93 velocity=64 time=1\n",
      "note_off channel=1 note=42 velocity=64 time=4\n",
      "note_on channel=5 note=64 velocity=93 time=2\n",
      "note_on channel=1 note=45 velocity=79 time=1\n",
      "note_on channel=10 note=57 velocity=77 time=0\n",
      "note_on channel=10 note=61 velocity=85 time=0\n",
      "note_on channel=9 note=40 velocity=104 time=1\n",
      "note_off channel=9 note=40 velocity=64 time=0\n",
      "note_on channel=9 note=42 velocity=46 time=0\n",
      "note_off channel=9 note=42 velocity=64 time=0\n",
      "note_on channel=9 note=69 velocity=52 time=0\n",
      "note_off channel=9 note=69 velocity=64 time=0\n",
      "note_on channel=0 note=93 velocity=66 time=0\n",
      "note_on channel=0 note=88 velocity=99 time=0\n",
      "note_on channel=0 note=85 velocity=92 time=0\n",
      "note_on channel=6 note=69 velocity=81 time=0\n",
      "note_on channel=6 note=61 velocity=71 time=0\n",
      "note_on channel=6 note=64 velocity=90 time=0\n",
      "note_on channel=9 note=69 velocity=45 time=24\n",
      "note_off channel=9 note=69 velocity=64 time=0\n",
      "note_on channel=9 note=54 velocity=39 time=23\n",
      "note_off channel=9 note=54 velocity=64 time=0\n",
      "note_on channel=9 note=46 velocity=39 time=1\n",
      "note_off channel=9 note=46 velocity=64 time=0\n",
      "note_on channel=9 note=69 velocity=67 time=0\n",
      "note_off channel=9 note=69 velocity=64 time=0\n",
      "note_off channel=0 note=88 velocity=64 time=3\n",
      "note_off channel=0 note=85 velocity=64 time=1\n",
      "note_off channel=0 note=93 velocity=64 time=3\n",
      "note_on channel=9 note=54 velocity=41 time=16\n",
      "note_off channel=9 note=54 velocity=64 time=0\n",
      "note_on channel=9 note=69 velocity=41 time=1\n",
      "note_off channel=9 note=69 velocity=64 time=0\n",
      "note_on channel=0 note=83 velocity=106 time=0\n",
      "note_on channel=0 note=92 velocity=78 time=0\n",
      "note_on channel=0 note=88 velocity=81 time=0\n",
      "note_off channel=0 note=88 velocity=64 time=7\n",
      "note_off channel=0 note=92 velocity=64 time=4\n",
      "note_off channel=0 note=83 velocity=64 time=1\n",
      "note_off channel=6 note=64 velocity=64 time=4\n",
      "note_off channel=6 note=69 velocity=64 time=1\n",
      "note_off channel=8 note=76 velocity=64 time=1\n",
      "note_off channel=8 note=88 velocity=64 time=0\n",
      "note_off channel=1 note=45 velocity=64 time=1\n",
      "note_off channel=6 note=61 velocity=64 time=3\n",
      "note_off channel=4 note=69 velocity=64 time=1\n",
      "note_off channel=4 note=64 velocity=64 time=0\n",
      "note_on channel=9 note=42 velocity=48 time=0\n",
      "note_off channel=9 note=42 velocity=64 time=0\n",
      "note_off channel=4 note=61 velocity=64 time=1\n",
      "note_on channel=4 note=64 velocity=76 time=0\n",
      "note_on channel=4 note=69 velocity=76 time=0\n",
      "note_on channel=4 note=62 velocity=76 time=0\n",
      "note_on channel=5 note=62 velocity=96 time=0\n",
      "note_on channel=9 note=36 velocity=107 time=0\n",
      "note_off channel=9 note=36 velocity=64 time=0\n",
      "note_on channel=9 note=69 velocity=52 time=0\n",
      "note_off channel=9 note=69 velocity=64 time=0\n",
      "note_on channel=1 note=33 velocity=91 time=0\n",
      "note_on channel=6 note=57 velocity=62 time=0\n",
      "note_off channel=10 note=61 velocity=64 time=0\n",
      "note_off channel=7 note=61 velocity=64 time=0\n",
      "note_off channel=7 note=64 velocity=64 time=0\n",
      "note_on channel=7 note=66 velocity=71 time=0\n",
      "note_on channel=7 note=62 velocity=79 time=0\n",
      "note_on channel=0 note=92 velocity=99 time=1\n",
      "note_on channel=0 note=83 velocity=93 time=1\n",
      "note_on channel=0 note=88 velocity=106 time=0\n",
      "note_off channel=5 note=64 velocity=64 time=1\n",
      "note_off channel=10 note=57 velocity=64 time=1\n",
      "note_off channel=3 note=69 velocity=64 time=4\n",
      "note_on channel=9 note=42 velocity=39 time=15\n",
      "note_off channel=9 note=42 velocity=64 time=0\n",
      "note_on channel=9 note=69 velocity=43 time=1\n",
      "note_off channel=9 note=69 velocity=64 time=0\n",
      "note_on channel=6 note=62 velocity=73 time=0\n",
      "note_on channel=6 note=69 velocity=66 time=0\n",
      "note_on channel=6 note=66 velocity=63 time=0\n",
      "note_on channel=10 note=62 velocity=69 time=0\n",
      "note_on channel=10 note=57 velocity=64 time=0\n",
      "note_off channel=6 note=57 velocity=64 time=4\n",
      "note_off channel=6 note=66 velocity=64 time=7\n",
      "note_off channel=6 note=62 velocity=64 time=1\n",
      "note_off channel=10 note=62 velocity=64 time=1\n",
      "note_off channel=6 note=69 velocity=64 time=1\n",
      "note_off channel=1 note=33 velocity=64 time=8\n",
      "note_on channel=6 note=69 velocity=62 time=0\n",
      "note_on channel=9 note=54 velocity=78 time=1\n",
      "note_off channel=9 note=54 velocity=64 time=0\n",
      "note_on channel=6 note=62 velocity=74 time=0\n",
      "note_on channel=6 note=66 velocity=81 time=0\n",
      "note_on channel=10 note=62 velocity=66 time=0\n",
      "note_on channel=9 note=46 velocity=43 time=1\n",
      "note_off channel=9 note=46 velocity=64 time=0\n",
      "note_on channel=9 note=69 velocity=69 time=0\n",
      "note_off channel=9 note=69 velocity=64 time=0\n",
      "note_off channel=0 note=88 velocity=64 time=4\n",
      "note_off channel=0 note=83 velocity=64 time=1\n",
      "note_off channel=0 note=92 velocity=64 time=1\n",
      "note_off channel=6 note=66 velocity=64 time=16\n",
      "note_off channel=10 note=62 velocity=64 time=0\n",
      "note_off channel=10 note=57 velocity=64 time=0\n",
      "note_on channel=9 note=36 velocity=101 time=2\n",
      "note_off channel=9 note=36 velocity=64 time=0\n",
      "note_on channel=9 note=69 velocity=49 time=0\n",
      "note_off channel=9 note=69 velocity=64 time=0\n",
      "note_on channel=9 note=54 velocity=41 time=0\n",
      "note_off channel=9 note=54 velocity=64 time=0\n",
      "note_on channel=1 note=33 velocity=73 time=0\n",
      "note_on channel=10 note=54 velocity=52 time=0\n",
      "note_on channel=0 note=90 velocity=101 time=1\n",
      "note_on channel=0 note=86 velocity=99 time=0\n",
      "note_on channel=6 note=57 velocity=60 time=0\n",
      "note_on channel=0 note=81 velocity=92 time=1\n",
      "note_off channel=6 note=62 velocity=64 time=1\n",
      "note_off channel=6 note=69 velocity=64 time=2\n",
      "note_off channel=10 note=54 velocity=64 time=5\n",
      "note_off channel=0 note=86 velocity=64 time=2\n",
      "note_off channel=0 note=81 velocity=64 time=1\n",
      "note_off channel=0 note=90 velocity=64 time=0\n",
      "note_off channel=1 note=33 velocity=64 time=1\n",
      "note_off channel=6 note=57 velocity=64 time=3\n",
      "note_on channel=10 note=62 velocity=79 time=5\n",
      "note_on channel=10 note=57 velocity=69 time=0\n",
      "note_on channel=9 note=40 velocity=104 time=1\n",
      "note_off channel=9 note=40 velocity=64 time=0\n",
      "note_on channel=9 note=42 velocity=44 time=1\n",
      "note_off channel=9 note=42 velocity=64 time=0\n",
      "note_on channel=9 note=69 velocity=50 time=0\n",
      "note_off channel=9 note=69 velocity=64 time=0\n",
      "note_on channel=1 note=33 velocity=91 time=0\n",
      "note_on channel=6 note=69 velocity=76 time=0\n",
      "note_on channel=6 note=62 velocity=93 time=0\n",
      "note_on channel=6 note=66 velocity=86 time=0\n",
      "note_on channel=0 note=81 velocity=93 time=1\n",
      "note_on channel=0 note=86 velocity=114 time=0\n",
      "note_on channel=0 note=90 velocity=110 time=0\n",
      "note_off channel=6 note=66 velocity=64 time=19\n",
      "note_off channel=10 note=62 velocity=64 time=1\n",
      "note_off channel=10 note=57 velocity=64 time=1\n",
      "note_on channel=10 note=54 velocity=45 time=0\n",
      "note_on channel=9 note=69 velocity=43 time=2\n",
      "note_off channel=9 note=69 velocity=64 time=0\n",
      "note_on channel=6 note=57 velocity=59 time=0\n",
      "note_off channel=6 note=62 velocity=64 time=1\n",
      "note_off channel=6 note=69 velocity=64 time=1\n",
      "note_off channel=1 note=33 velocity=64 time=4\n",
      "note_off channel=10 note=54 velocity=64 time=4\n",
      "note_off channel=6 note=57 velocity=64 time=8\n",
      "note_on channel=10 note=62 velocity=74 time=4\n",
      "note_on channel=9 note=36 velocity=94 time=1\n",
      "note_off channel=9 note=36 velocity=64 time=0\n",
      "note_on channel=9 note=54 velocity=70 time=0\n",
      "note_off channel=9 note=54 velocity=64 time=0\n",
      "note_on channel=6 note=69 velocity=67 time=0\n",
      "note_on channel=6 note=62 velocity=70 time=0\n",
      "note_on channel=6 note=66 velocity=75 time=0\n",
      "note_on channel=10 note=57 velocity=67 time=0\n",
      "note_on channel=9 note=46 velocity=43 time=1\n",
      "note_off channel=9 note=46 velocity=64 time=0\n",
      "note_on channel=9 note=69 velocity=63 time=0\n",
      "note_off channel=9 note=69 velocity=64 time=0\n",
      "note_on channel=1 note=33 velocity=91 time=0\n",
      "note_off channel=6 note=66 velocity=64 time=9\n",
      "note_off channel=6 note=62 velocity=64 time=2\n",
      "note_off channel=6 note=69 velocity=64 time=0\n",
      "note_off channel=10 note=62 velocity=64 time=0\n",
      "note_off channel=10 note=57 velocity=64 time=3\n",
      "note_on channel=6 note=69 velocity=65 time=8\n",
      "note_on channel=6 note=66 velocity=77 time=1\n",
      "note_on channel=6 note=62 velocity=68 time=0\n",
      "note_on channel=10 note=57 velocity=63 time=0\n",
      "note_on channel=10 note=62 velocity=70 time=0\n",
      "note_on channel=9 note=69 velocity=43 time=1\n",
      "note_off channel=9 note=69 velocity=64 time=0\n",
      "note_on channel=9 note=54 velocity=37 time=0\n",
      "note_off channel=9 note=54 velocity=64 time=0\n",
      "note_off channel=1 note=33 velocity=64 time=3\n",
      "note_off channel=6 note=66 velocity=64 time=17\n",
      "note_off channel=6 note=62 velocity=64 time=2\n",
      "note_off channel=6 note=69 velocity=64 time=0\n",
      "note_off channel=10 note=62 velocity=64 time=0\n",
      "note_on channel=9 note=36 velocity=101 time=1\n",
      "note_off channel=9 note=36 velocity=64 time=0\n",
      "note_on channel=6 note=57 velocity=59 time=0\n",
      "note_on channel=9 note=42 velocity=41 time=1\n",
      "note_off channel=9 note=42 velocity=64 time=0\n",
      "note_on channel=9 note=69 velocity=49 time=0\n",
      "note_off channel=9 note=69 velocity=64 time=0\n",
      "note_off channel=10 note=57 velocity=64 time=1\n",
      "note_off channel=6 note=57 velocity=64 time=13\n",
      "note_on channel=1 note=33 velocity=84 time=8\n",
      "note_on channel=6 note=62 velocity=73 time=0\n",
      "note_on channel=6 note=69 velocity=74 time=0\n",
      "note_on channel=6 note=66 velocity=74 time=0\n",
      "note_on channel=10 note=57 velocity=67 time=0\n",
      "note_on channel=10 note=62 velocity=75 time=0\n",
      "note_on channel=9 note=69 velocity=41 time=2\n",
      "note_off channel=9 note=69 velocity=64 time=0\n",
      "note_off channel=10 note=62 velocity=64 time=10\n",
      "note_off channel=10 note=57 velocity=64 time=3\n",
      "note_off channel=1 note=33 velocity=64 time=5\n",
      "note_off channel=6 note=66 velocity=64 time=0\n",
      "note_off channel=6 note=69 velocity=64 time=2\n",
      "note_off channel=6 note=62 velocity=64 time=0\n",
      "note_on channel=1 note=28 velocity=74 time=1\n",
      "note_on channel=9 note=54 velocity=70 time=2\n",
      "note_off channel=9 note=54 velocity=64 time=0\n",
      "note_on channel=9 note=46 velocity=43 time=1\n",
      "note_off channel=9 note=46 velocity=64 time=0\n",
      "note_on channel=9 note=69 velocity=67 time=0\n",
      "note_off channel=9 note=69 velocity=64 time=0\n",
      "note_off channel=1 note=28 velocity=64 time=21\n",
      "note_on channel=1 note=29 velocity=84 time=1\n",
      "note_on channel=6 note=57 velocity=58 time=1\n",
      "note_on channel=10 note=54 velocity=59 time=0\n",
      "note_on channel=9 note=69 velocity=44 time=1\n",
      "note_off channel=9 note=69 velocity=64 time=0\n",
      "note_on channel=9 note=54 velocity=41 time=0\n",
      "note_off channel=9 note=54 velocity=64 time=0\n",
      "note_off channel=10 note=54 velocity=64 time=11\n",
      "note_off channel=6 note=57 velocity=64 time=6\n",
      "note_on channel=5 note=61 velocity=106 time=2\n",
      "note_off channel=1 note=29 velocity=64 time=0\n",
      "note_on channel=1 note=30 velocity=114 time=3\n",
      "note_on channel=10 note=57 velocity=77 time=0\n",
      "note_on channel=10 note=62 velocity=81 time=0\n",
      "note_off channel=5 note=62 velocity=64 time=1\n",
      "note_on channel=9 note=42 velocity=43 time=0\n",
      "note_off channel=9 note=42 velocity=64 time=0\n",
      "note_on channel=6 note=69 velocity=79 time=0\n",
      "note_on channel=6 note=66 velocity=100 time=0\n",
      "note_on channel=6 note=62 velocity=100 time=0\n",
      "note_on channel=9 note=40 velocity=98 time=1\n",
      "note_off channel=9 note=40 velocity=64 time=0\n",
      "note_on channel=9 note=69 velocity=59 time=0\n",
      "note_off channel=9 note=69 velocity=64 time=0\n",
      "note_off channel=0 note=81 velocity=64 time=2\n",
      "note_off channel=0 note=86 velocity=64 time=5\n",
      "note_off channel=0 note=90 velocity=64 time=4\n",
      "note_off channel=5 note=61 velocity=64 time=11\n",
      "note_on channel=9 note=42 velocity=38 time=1\n",
      "note_off channel=9 note=42 velocity=64 time=0\n",
      "note_on channel=5 note=59 velocity=84 time=1\n",
      "note_on channel=9 note=69 velocity=47 time=0\n",
      "note_off channel=9 note=69 velocity=64 time=0\n",
      "note_off channel=1 note=30 velocity=64 time=22\n",
      "note_on channel=9 note=54 velocity=65 time=1\n",
      "note_off channel=9 note=54 velocity=64 time=0\n",
      "note_on channel=1 note=33 velocity=89 time=0\n",
      "note_on channel=9 note=46 velocity=46 time=1\n",
      "note_off channel=9 note=46 velocity=64 time=0\n",
      "note_on channel=9 note=69 velocity=68 time=0\n",
      "note_off channel=9 note=69 velocity=64 time=0\n",
      "note_off channel=10 note=57 velocity=64 time=12\n",
      "note_off channel=10 note=62 velocity=64 time=8\n",
      "note_off channel=4 note=62 velocity=64 time=4\n",
      "note_off channel=4 note=69 velocity=64 time=0\n",
      "note_off channel=4 note=64 velocity=64 time=0\n",
      "note_on channel=9 note=69 velocity=41 time=0\n",
      "note_off channel=9 note=69 velocity=64 time=0\n",
      "note_on channel=9 note=54 velocity=49 time=0\n",
      "note_off channel=9 note=54 velocity=64 time=0\n",
      "note_off channel=5 note=59 velocity=64 time=2\n",
      "note_on channel=5 note=57 velocity=86 time=1\n",
      "note_off channel=1 note=33 velocity=64 time=5\n",
      "note_off channel=6 note=66 velocity=64 time=6\n",
      "note_off channel=6 note=62 velocity=64 time=1\n",
      "note_off channel=6 note=69 velocity=64 time=3\n",
      "note_on channel=9 note=36 velocity=104 time=5\n",
      "note_off channel=9 note=36 velocity=64 time=0\n",
      "note_on channel=9 note=42 velocity=43 time=0\n",
      "note_off channel=9 note=42 velocity=64 time=0\n",
      "note_on channel=11 note=45 velocity=74 time=0\n",
      "note_on channel=9 note=69 velocity=38 time=1\n",
      "note_off channel=9 note=69 velocity=64 time=0\n",
      "note_on channel=1 note=33 velocity=87 time=0\n",
      "control_change channel=11 control=1 value=0 time=0\n",
      "pitchwheel channel=11 pitch=0 time=0\n",
      "note_off channel=7 note=62 velocity=64 time=0\n",
      "note_off channel=7 note=66 velocity=64 time=0\n",
      "note_on channel=7 note=64 velocity=74 time=0\n",
      "note_on channel=7 note=61 velocity=58 time=0\n",
      "note_off channel=5 note=57 velocity=64 time=3\n",
      "note_on channel=5 note=59 velocity=103 time=1\n",
      "note_off channel=11 note=45 velocity=64 time=5\n",
      "note_on channel=9 note=69 velocity=41 time=14\n",
      "note_off channel=9 note=69 velocity=64 time=0\n",
      "note_on channel=11 note=45 velocity=68 time=0\n",
      "note_on channel=9 note=42 velocity=38 time=1\n",
      "note_off channel=9 note=42 velocity=64 time=0\n",
      "note_off channel=11 note=45 velocity=64 time=14\n",
      "note_on channel=11 note=57 velocity=74 time=8\n",
      "note_on channel=9 note=46 velocity=45 time=1\n",
      "note_off channel=9 note=46 velocity=64 time=0\n",
      "note_on channel=9 note=69 velocity=48 time=0\n",
      "note_off channel=9 note=69 velocity=64 time=0\n",
      "note_on channel=9 note=54 velocity=44 time=0\n",
      "note_off channel=9 note=54 velocity=64 time=0\n",
      "note_off channel=1 note=33 velocity=64 time=1\n",
      "note_off channel=11 note=57 velocity=64 time=20\n",
      "note_on channel=11 note=45 velocity=60 time=2\n",
      "note_on channel=9 note=36 velocity=101 time=1\n",
      "note_off channel=9 note=36 velocity=64 time=0\n",
      "note_on channel=9 note=69 velocity=49 time=0\n",
      "note_off channel=9 note=69 velocity=64 time=0\n",
      "note_on channel=9 note=54 velocity=28 time=1\n",
      "note_off channel=9 note=54 velocity=64 time=0\n",
      "note_on channel=1 note=45 velocity=85 time=0\n",
      "note_off channel=11 note=45 velocity=64 time=9\n",
      "note_on channel=11 note=57 velocity=74 time=13\n",
      "note_on channel=9 note=40 velocity=98 time=1\n",
      "note_off channel=9 note=40 velocity=64 time=0\n",
      "note_on channel=9 note=69 velocity=41 time=0\n",
      "note_off channel=9 note=69 velocity=64 time=0\n",
      "note_on channel=9 note=42 velocity=41 time=1\n",
      "note_off channel=9 note=42 velocity=64 time=0\n",
      "note_off channel=1 note=45 velocity=64 time=0\n",
      "note_on channel=1 note=40 velocity=72 time=0\n",
      "note_on channel=5 note=61 velocity=81 time=7\n",
      "note_off channel=11 note=57 velocity=64 time=4\n",
      "note_off channel=5 note=59 velocity=64 time=2\n",
      "note_on channel=9 note=69 velocity=47 time=10\n",
      "note_off channel=9 note=69 velocity=64 time=0\n",
      "note_off channel=1 note=40 velocity=64 time=1\n",
      "note_on channel=1 note=42 velocity=73 time=0\n",
      "note_on channel=11 note=45 velocity=63 time=0\n",
      "note_off channel=11 note=45 velocity=64 time=13\n",
      "note_off channel=1 note=42 velocity=64 time=8\n",
      "note_on channel=11 note=57 velocity=81 time=1\n",
      "note_on channel=9 note=54 velocity=56 time=1\n",
      "note_off channel=9 note=54 velocity=64 time=0\n",
      "note_on channel=9 note=36 velocity=104 time=1\n",
      "note_off channel=9 note=36 velocity=64 time=0\n",
      "note_on channel=9 note=46 velocity=42 time=0\n",
      "note_off channel=9 note=46 velocity=64 time=0\n",
      "note_on channel=9 note=69 velocity=62 time=0\n",
      "note_off channel=9 note=69 velocity=64 time=0\n",
      "note_on channel=1 note=45 velocity=83 time=0\n",
      "note_off channel=11 note=57 velocity=64 time=11\n",
      "note_on channel=11 note=57 velocity=68 time=11\n",
      "note_on channel=9 note=69 velocity=48 time=2\n",
      "note_off channel=9 note=69 velocity=64 time=0\n",
      "note_on channel=9 note=54 velocity=32 time=0\n",
      "note_off channel=9 note=54 velocity=64 time=0\n",
      "note_off channel=11 note=57 velocity=64 time=17\n",
      "note_on channel=11 note=45 velocity=58 time=5\n",
      "note_on channel=9 note=36 velocity=102 time=2\n",
      "note_off channel=9 note=36 velocity=64 time=0\n",
      "note_on channel=9 note=42 velocity=41 time=0\n",
      "note_off channel=9 note=42 velocity=64 time=0\n",
      "note_on channel=9 note=69 velocity=36 time=0\n",
      "note_off channel=9 note=69 velocity=64 time=0\n",
      "note_off channel=1 note=45 velocity=64 time=6\n",
      "note_off channel=11 note=45 velocity=64 time=0\n",
      "note_on channel=11 note=57 velocity=74 time=16\n",
      "note_on channel=9 note=40 velocity=101 time=2\n",
      "note_off channel=9 note=40 velocity=64 time=0\n",
      "note_on channel=9 note=69 velocity=48 time=0\n",
      "note_off channel=9 note=69 velocity=64 time=0\n",
      "note_on channel=1 note=33 velocity=89 time=0\n",
      "note_on channel=0 note=57 velocity=91 time=1\n",
      "note_on channel=6 note=57 velocity=68 time=1\n",
      "note_off channel=11 note=57 velocity=64 time=8\n",
      "note_off channel=6 note=57 velocity=64 time=4\n",
      "note_off channel=1 note=33 velocity=64 time=1\n",
      "note_on channel=11 note=45 velocity=53 time=7\n",
      "note_on channel=9 note=54 velocity=53 time=1\n",
      "note_off channel=9 note=54 velocity=64 time=0\n",
      "note_on channel=0 note=66 velocity=92 time=0\n",
      "note_on channel=0 note=62 velocity=82 time=0\n",
      "note_on channel=6 note=69 velocity=76 time=0\n",
      "note_on channel=6 note=66 velocity=79 time=0\n",
      "note_on channel=6 note=62 velocity=76 time=0\n",
      "note_on channel=9 note=69 velocity=62 time=1\n",
      "note_off channel=9 note=69 velocity=64 time=0\n",
      "note_on channel=1 note=33 velocity=87 time=0\n",
      "note_off channel=11 note=45 velocity=64 time=4\n",
      "note_on channel=9 note=69 velocity=52 time=20\n",
      "note_off channel=9 note=69 velocity=64 time=0\n",
      "note_on channel=9 note=54 velocity=47 time=0\n",
      "note_off channel=9 note=54 velocity=64 time=0\n",
      "note_on channel=11 note=45 velocity=61 time=0\n",
      "note_off channel=1 note=33 velocity=64 time=4\n",
      "note_off channel=0 note=57 velocity=64 time=2\n",
      "note_off channel=0 note=62 velocity=64 time=4\n",
      "note_off channel=0 note=66 velocity=64 time=0\n",
      "note_off channel=6 note=62 velocity=64 time=1\n",
      "note_off channel=6 note=66 velocity=64 time=0\n",
      "note_off channel=6 note=69 velocity=64 time=0\n",
      "note_off channel=11 note=45 velocity=64 time=4\n",
      "note_on channel=9 note=40 velocity=101 time=8\n",
      "note_off channel=9 note=40 velocity=64 time=0\n",
      "note_on channel=9 note=42 velocity=46 time=0\n",
      "note_off channel=9 note=42 velocity=64 time=0\n",
      "note_on channel=9 note=69 velocity=34 time=1\n",
      "note_off channel=9 note=69 velocity=64 time=0\n",
      "note_on channel=1 note=33 velocity=95 time=0\n",
      "note_on channel=0 note=66 velocity=96 time=0\n",
      "note_on channel=0 note=62 velocity=93 time=0\n",
      "note_on channel=0 note=57 velocity=85 time=0\n",
      "note_on channel=6 note=69 velocity=77 time=0\n",
      "note_on channel=6 note=66 velocity=87 time=0\n",
      "note_on channel=6 note=62 velocity=86 time=0\n",
      "note_on channel=11 note=57 velocity=93 time=0\n",
      "note_on channel=9 note=42 velocity=39 time=24\n",
      "note_off channel=9 note=42 velocity=64 time=0\n",
      "note_on channel=9 note=69 velocity=43 time=0\n",
      "note_off channel=9 note=69 velocity=64 time=0\n",
      "note_on channel=9 note=46 velocity=38 time=23\n",
      "note_off channel=9 note=46 velocity=64 time=0\n",
      "note_on channel=9 note=69 velocity=63 time=1\n",
      "note_off channel=9 note=69 velocity=64 time=0\n",
      "note_on channel=9 note=54 velocity=78 time=0\n",
      "note_off channel=9 note=54 velocity=64 time=0\n",
      "note_off channel=1 note=33 velocity=64 time=7\n",
      "note_off channel=0 note=57 velocity=64 time=2\n",
      "note_off channel=0 note=62 velocity=64 time=0\n",
      "note_off channel=6 note=62 velocity=64 time=0\n",
      "note_off channel=6 note=69 velocity=64 time=1\n",
      "note_off channel=0 note=66 velocity=64 time=2\n",
      "note_off channel=6 note=66 velocity=64 time=0\n",
      "note_on channel=9 note=69 velocity=59 time=12\n",
      "note_off channel=9 note=69 velocity=64 time=0\n",
      "note_on channel=9 note=54 velocity=31 time=1\n",
      "note_off channel=9 note=54 velocity=64 time=0\n",
      "note_off channel=5 note=61 velocity=64 time=22\n",
      "note_on channel=9 note=42 velocity=47 time=0\n",
      "note_off channel=9 note=42 velocity=64 time=0\n",
      "note_on channel=9 note=69 velocity=36 time=0\n",
      "note_off channel=9 note=69 velocity=64 time=0\n",
      "note_on channel=1 note=33 velocity=100 time=0\n",
      "note_on channel=11 note=45 velocity=67 time=0\n",
      "note_on channel=9 note=36 velocity=111 time=1\n",
      "note_off channel=9 note=36 velocity=64 time=0\n",
      "note_off channel=11 note=57 velocity=64 time=1\n",
      "note_off channel=11 note=45 velocity=64 time=8\n",
      "note_on channel=11 note=45 velocity=63 time=13\n",
      "note_on channel=9 note=42 velocity=47 time=2\n",
      "note_off channel=9 note=42 velocity=64 time=0\n",
      "note_on channel=9 note=69 velocity=44 time=0\n",
      "note_off channel=9 note=69 velocity=64 time=0\n",
      "note_off channel=11 note=45 velocity=64 time=16\n",
      "note_on channel=11 note=57 velocity=79 time=7\n",
      "note_on channel=9 note=46 velocity=48 time=1\n",
      "note_off channel=9 note=46 velocity=64 time=0\n",
      "note_on channel=9 note=69 velocity=71 time=0\n",
      "note_off channel=9 note=69 velocity=64 time=0\n",
      "note_on channel=9 note=54 velocity=70 time=0\n",
      "note_off channel=9 note=54 velocity=64 time=0\n",
      "note_off channel=1 note=33 velocity=64 time=6\n",
      "<meta message lyrics text='\\n' time=3>\n",
      "note_off channel=11 note=57 velocity=64 time=9\n",
      "note_on channel=11 note=45 velocity=56 time=4\n",
      "note_on channel=9 note=69 velocity=44 time=1\n",
      "note_off channel=9 note=69 velocity=64 time=0\n",
      "note_on channel=9 note=36 velocity=102 time=1\n",
      "note_off channel=9 note=36 velocity=64 time=0\n",
      "note_on channel=9 note=54 velocity=33 time=1\n",
      "note_off channel=9 note=54 velocity=64 time=0\n",
      "note_on channel=1 note=33 velocity=97 time=0\n",
      "note_off channel=11 note=45 velocity=64 time=11\n",
      "note_off channel=1 note=33 velocity=64 time=10\n",
      "note_on channel=11 note=57 velocity=77 time=0\n",
      "note_on channel=9 note=40 velocity=101 time=1\n",
      "note_off channel=9 note=40 velocity=64 time=0\n",
      "note_on channel=9 note=42 velocity=42 time=1\n",
      "note_off channel=9 note=42 velocity=64 time=0\n",
      "note_on channel=9 note=69 velocity=40 time=0\n",
      "note_off channel=9 note=69 velocity=64 time=0\n",
      "note_on channel=1 note=40 velocity=82 time=0\n",
      "note_off channel=11 note=57 velocity=64 time=10\n",
      "note_on channel=11 note=57 velocity=68 time=12\n",
      "note_on channel=9 note=69 velocity=42 time=2\n",
      "note_off channel=9 note=69 velocity=64 time=0\n",
      "note_off channel=1 note=40 velocity=64 time=0\n",
      "note_on channel=1 note=42 velocity=70 time=0\n",
      "note_off channel=1 note=42 velocity=64 time=20\n",
      "note_off channel=11 note=57 velocity=64 time=1\n",
      "note_on channel=11 note=45 velocity=58 time=2\n",
      "note_on channel=9 note=36 velocity=98 time=1\n",
      "note_off channel=9 note=36 velocity=64 time=0\n",
      "note_on channel=9 note=46 velocity=43 time=0\n",
      "note_off channel=9 note=46 velocity=64 time=0\n",
      "note_on channel=9 note=69 velocity=66 time=0\n",
      "note_off channel=9 note=69 velocity=64 time=0\n",
      "note_on channel=9 note=54 velocity=70 time=0\n",
      "note_off channel=9 note=54 velocity=64 time=0\n",
      "note_on channel=1 note=45 velocity=83 time=0\n",
      "note_off channel=11 note=45 velocity=64 time=11\n",
      "note_on channel=11 note=57 velocity=74 time=11\n",
      "note_on channel=9 note=69 velocity=45 time=2\n",
      "note_off channel=9 note=69 velocity=64 time=0\n",
      "note_on channel=9 note=54 velocity=45 time=0\n",
      "note_off channel=9 note=54 velocity=64 time=0\n",
      "note_off channel=11 note=57 velocity=64 time=12\n",
      "note_on channel=11 note=45 velocity=60 time=8\n",
      "note_on channel=9 note=36 velocity=104 time=4\n",
      "note_off channel=9 note=36 velocity=64 time=0\n",
      "note_on channel=9 note=42 velocity=51 time=0\n",
      "note_off channel=9 note=42 velocity=64 time=0\n",
      "note_on channel=9 note=69 velocity=36 time=0\n",
      "note_off channel=9 note=69 velocity=64 time=0\n",
      "note_off channel=11 note=45 velocity=64 time=4\n",
      "note_off channel=1 note=45 velocity=64 time=17\n",
      "note_on channel=11 note=57 velocity=71 time=2\n",
      "note_on channel=9 note=40 velocity=107 time=1\n",
      "note_off channel=9 note=40 velocity=64 time=0\n",
      "note_on channel=9 note=69 velocity=41 time=0\n",
      "note_off channel=9 note=69 velocity=64 time=0\n",
      "note_on channel=0 note=57 velocity=67 time=0\n",
      "note_on channel=1 note=33 velocity=105 time=1\n",
      "note_on channel=6 note=57 velocity=67 time=0\n",
      "note_off channel=6 note=57 velocity=64 time=11\n",
      "note_off channel=1 note=33 velocity=64 time=2\n",
      "note_off channel=11 note=57 velocity=64 time=1\n",
      "note_on channel=0 note=66 velocity=101 time=7\n",
      "note_on channel=6 note=69 velocity=70 time=0\n",
      "note_on channel=9 note=54 velocity=68 time=1\n",
      "note_off channel=9 note=54 velocity=64 time=0\n",
      "note_on channel=0 note=62 velocity=87 time=0\n",
      "note_on channel=6 note=62 velocity=76 time=0\n",
      "note_on channel=6 note=66 velocity=85 time=0\n",
      "note_on channel=11 note=45 velocity=65 time=0\n",
      "note_on channel=9 note=69 velocity=71 time=1\n",
      "note_off channel=9 note=69 velocity=64 time=0\n",
      "note_on channel=1 note=33 velocity=91 time=0\n",
      "note_off channel=11 note=45 velocity=64 time=4\n",
      "note_on channel=9 note=69 velocity=52 time=19\n",
      "note_off channel=9 note=69 velocity=64 time=0\n",
      "note_on channel=9 note=54 velocity=40 time=1\n",
      "note_off channel=9 note=54 velocity=64 time=0\n",
      "note_off channel=1 note=33 velocity=64 time=0\n",
      "note_on channel=11 note=45 velocity=60 time=0\n",
      "note_off channel=0 note=57 velocity=64 time=4\n",
      "note_off channel=0 note=62 velocity=64 time=2\n",
      "note_off channel=6 note=66 velocity=64 time=3\n",
      "note_off channel=6 note=62 velocity=64 time=0\n",
      "note_off channel=6 note=69 velocity=64 time=0\n",
      "note_off channel=0 note=66 velocity=64 time=1\n",
      "note_off channel=11 note=45 velocity=64 time=0\n",
      "note_on channel=9 note=40 velocity=107 time=13\n",
      "note_off channel=9 note=40 velocity=64 time=0\n",
      "note_on channel=9 note=42 velocity=54 time=0\n",
      "note_off channel=9 note=42 velocity=64 time=0\n",
      "note_on channel=11 note=57 velocity=95 time=0\n",
      "note_on channel=9 note=69 velocity=56 time=1\n",
      "note_off channel=9 note=69 velocity=64 time=0\n",
      "note_on channel=1 note=33 velocity=108 time=0\n",
      "note_on channel=0 note=57 velocity=91 time=0\n",
      "note_on channel=0 note=66 velocity=106 time=0\n",
      "note_on channel=0 note=62 velocity=92 time=0\n",
      "note_on channel=6 note=69 velocity=75 time=0\n",
      "note_on channel=6 note=66 velocity=87 time=0\n",
      "note_on channel=6 note=62 velocity=76 time=0\n",
      "note_on channel=9 note=69 velocity=44 time=23\n",
      "note_off channel=9 note=69 velocity=64 time=0\n",
      "note_off channel=6 note=62 velocity=64 time=17\n",
      "note_off channel=7 note=61 velocity=64 time=3\n",
      "note_off channel=0 note=57 velocity=64 time=2\n",
      "note_on channel=9 note=46 velocity=39 time=1\n",
      "note_off channel=9 note=46 velocity=64 time=0\n",
      "note_off channel=0 note=62 velocity=64 time=0\n",
      "note_off channel=6 note=66 velocity=64 time=0\n",
      "note_on channel=9 note=69 velocity=69 time=1\n",
      "note_off channel=9 note=69 velocity=64 time=0\n",
      "note_on channel=9 note=54 velocity=68 time=0\n",
      "note_off channel=9 note=54 velocity=64 time=0\n",
      "note_off channel=0 note=66 velocity=64 time=0\n",
      "note_off channel=6 note=69 velocity=64 time=1\n",
      "note_off channel=7 note=57 velocity=64 time=0\n",
      "note_off channel=1 note=33 velocity=64 time=7\n",
      "note_off channel=7 note=64 velocity=64 time=0\n",
      "note_off channel=11 note=57 velocity=64 time=15\n",
      "note_on channel=9 note=69 velocity=49 time=1\n",
      "note_off channel=9 note=69 velocity=64 time=0\n",
      "note_on channel=9 note=54 velocity=33 time=1\n",
      "note_off channel=9 note=54 velocity=64 time=0\n",
      "note_on channel=1 note=33 velocity=110 time=21\n",
      "note_on channel=11 note=57 velocity=87 time=0\n",
      "<meta message lyrics text='Fri' time=2>\n",
      "note_on channel=3 note=61 velocity=103 time=0\n",
      "note_on channel=4 note=61 velocity=51 time=0\n",
      "note_on channel=9 note=36 velocity=112 time=1\n",
      "note_off channel=9 note=36 velocity=64 time=0\n",
      "note_on channel=9 note=42 velocity=55 time=0\n",
      "note_off channel=9 note=42 velocity=64 time=0\n",
      "note_on channel=9 note=69 velocity=38 time=0\n",
      "note_off channel=9 note=69 velocity=64 time=0\n",
      "note_on channel=0 note=61 velocity=93 time=0\n",
      "note_on channel=0 note=57 velocity=78 time=0\n",
      "note_on channel=0 note=64 velocity=77 time=0\n",
      "note_on channel=6 note=52 velocity=58 time=0\n",
      "note_off channel=11 note=57 velocity=64 time=7\n",
      "note_on channel=9 note=42 velocity=35 time=15\n",
      "note_off channel=9 note=42 velocity=64 time=0\n",
      "note_on channel=9 note=69 velocity=41 time=1\n",
      "note_off channel=9 note=69 velocity=64 time=0\n",
      "note_on channel=6 note=57 velocity=58 time=0\n",
      "note_on channel=11 note=57 velocity=74 time=0\n",
      "note_on channel=6 note=61 velocity=55 time=1\n",
      "note_off channel=6 note=52 velocity=64 time=10\n",
      "note_off channel=11 note=57 velocity=64 time=3\n",
      "note_off channel=6 note=57 velocity=64 time=2\n",
      "<meta message lyrics text='day ' time=7>\n",
      "note_off channel=3 note=61 velocity=64 time=0\n",
      "note_on channel=3 note=64 velocity=103 time=0\n",
      "note_off channel=4 note=61 velocity=64 time=0\n",
      "note_on channel=4 note=64 velocity=51 time=0\n",
      "note_on channel=6 note=57 velocity=45 time=0\n",
      "note_on channel=9 note=46 velocity=41 time=1\n",
      "note_off channel=9 note=46 velocity=64 time=0\n",
      "note_on channel=9 note=69 velocity=48 time=0\n",
      "note_off channel=9 note=69 velocity=64 time=0\n",
      "note_on channel=9 note=54 velocity=44 time=0\n",
      "note_off channel=9 note=54 velocity=64 time=0\n",
      "note_on channel=11 note=61 velocity=85 time=1\n",
      "note_off channel=1 note=33 velocity=64 time=3\n",
      "note_off channel=0 note=57 velocity=64 time=5\n",
      "note_off channel=0 note=61 velocity=64 time=0\n",
      "note_off channel=11 note=61 velocity=64 time=3\n",
      "note_off channel=0 note=64 velocity=64 time=1\n",
      "note_off channel=3 note=64 velocity=64 time=3\n",
      "note_off channel=6 note=61 velocity=64 time=5\n",
      "note_off channel=6 note=57 velocity=64 time=2\n",
      "note_off channel=4 note=64 velocity=64 time=1\n",
      "note_on channel=9 note=69 velocity=49 time=0\n",
      "note_off channel=9 note=69 velocity=64 time=0\n",
      "note_on channel=1 note=33 velocity=84 time=0\n",
      "note_on channel=0 note=57 velocity=82 time=0\n",
      "note_on channel=0 note=64 velocity=78 time=0\n",
      "note_on channel=11 note=61 velocity=72 time=0\n",
      "<meta message lyrics text='night, ' time=1>\n",
      "note_on channel=3 note=64 velocity=104 time=0\n",
      "note_on channel=4 note=64 velocity=52 time=0\n",
      "note_on channel=9 note=36 velocity=104 time=0\n",
      "note_off channel=9 note=36 velocity=64 time=0\n",
      "note_on channel=9 note=54 velocity=28 time=0\n",
      "note_off channel=9 note=54 velocity=64 time=0\n",
      "note_on channel=0 note=61 velocity=73 time=0\n",
      "note_on channel=6 note=52 velocity=54 time=0\n",
      "note_off channel=1 note=33 velocity=64 time=10\n",
      "note_off channel=0 note=57 velocity=64 time=2\n",
      "note_off channel=0 note=61 velocity=64 time=1\n",
      "note_off channel=0 note=64 velocity=64 time=2\n",
      "note_off channel=6 note=52 velocity=64 time=1\n",
      "note_off channel=11 note=61 velocity=64 time=1\n",
      "note_on channel=1 note=33 velocity=89 time=5\n",
      "note_on channel=9 note=40 velocity=85 time=1\n",
      "note_off channel=9 note=40 velocity=64 time=0\n",
      "note_on channel=9 note=69 velocity=41 time=0\n",
      "note_off channel=9 note=69 velocity=64 time=0\n",
      "note_on channel=6 note=57 velocity=65 time=0\n",
      "note_on channel=6 note=61 velocity=59 time=0\n",
      "note_on channel=11 note=57 velocity=65 time=0\n",
      "note_on channel=9 note=42 velocity=47 time=1\n",
      "note_off channel=9 note=42 velocity=64 time=0\n",
      "note_off channel=3 note=64 velocity=64 time=7\n",
      "note_off channel=11 note=57 velocity=64 time=4\n",
      "note_off channel=4 note=64 velocity=64 time=12\n",
      "note_on channel=9 note=69 velocity=47 time=0\n",
      "note_off channel=9 note=69 velocity=64 time=0\n",
      "note_off channel=6 note=61 velocity=64 time=0\n",
      "note_off channel=6 note=57 velocity=64 time=0\n",
      "note_on channel=6 note=52 velocity=54 time=0\n",
      "<meta message lyrics text='and ' time=1>\n",
      "note_on channel=3 note=64 velocity=106 time=0\n",
      "note_on channel=4 note=64 velocity=53 time=0\n",
      "note_on channel=11 note=57 velocity=68 time=0\n",
      "note_off channel=1 note=33 velocity=64 time=5\n",
      "note_off channel=6 note=52 velocity=64 time=5\n",
      "note_off channel=11 note=57 velocity=64 time=8\n",
      "note_on channel=9 note=54 velocity=56 time=5\n",
      "note_off channel=9 note=54 velocity=64 time=0\n",
      "note_on channel=1 note=33 velocity=89 time=0\n",
      "note_on channel=0 note=64 velocity=76 time=0\n",
      "note_on channel=0 note=61 velocity=93 time=0\n",
      "note_on channel=0 note=57 velocity=89 time=0\n",
      "note_on channel=6 note=57 velocity=63 time=0\n",
      "note_on channel=6 note=61 velocity=57 time=0\n",
      "note_on channel=11 note=61 velocity=100 time=0\n",
      "note_on channel=9 note=36 velocity=101 time=1\n",
      "note_off channel=9 note=36 velocity=64 time=0\n",
      "note_on channel=9 note=46 velocity=51 time=0\n",
      "note_off channel=9 note=46 velocity=64 time=0\n",
      "note_on channel=9 note=69 velocity=62 time=0\n",
      "note_off channel=9 note=69 velocity=64 time=0\n",
      "note_off channel=3 note=64 velocity=64 time=6\n",
      "note_off channel=6 note=61 velocity=64 time=4\n",
      "note_off channel=11 note=61 velocity=64 time=1\n",
      "note_off channel=6 note=57 velocity=64 time=2\n",
      "note_on channel=6 note=57 velocity=56 time=9\n",
      "note_off channel=4 note=64 velocity=64 time=1\n",
      "note_on channel=6 note=61 velocity=55 time=0\n",
      "note_on channel=11 note=61 velocity=66 time=0\n",
      "<meta message lyrics text='the ' time=1>\n",
      "note_on channel=3 note=64 velocity=105 time=0\n",
      "note_on channel=4 note=64 velocity=52 time=0\n",
      "note_on channel=9 note=69 velocity=48 time=0\n",
      "note_off channel=9 note=69 velocity=64 time=0\n",
      "note_on channel=9 note=54 velocity=32 time=0\n",
      "note_off channel=9 note=54 velocity=64 time=0\n",
      "note_off channel=11 note=61 velocity=64 time=12\n",
      "note_off channel=3 note=64 velocity=64 time=2\n",
      "note_off channel=6 note=61 velocity=64 time=2\n",
      "note_off channel=6 note=57 velocity=64 time=2\n",
      "note_off channel=4 note=64 velocity=64 time=5\n",
      "<meta message lyrics text='lights ' time=1>\n",
      "note_on channel=3 note=64 velocity=106 time=0\n",
      "note_on channel=4 note=64 velocity=53 time=0\n",
      "note_on channel=9 note=36 velocity=107 time=0\n",
      "note_off channel=9 note=36 velocity=64 time=0\n",
      "note_on channel=9 note=42 velocity=49 time=0\n",
      "note_off channel=9 note=42 velocity=64 time=0\n",
      "note_on channel=9 note=69 velocity=36 time=0\n",
      "note_off channel=9 note=69 velocity=64 time=0\n",
      "note_on channel=11 note=57 velocity=68 time=0\n",
      "note_off channel=1 note=33 velocity=64 time=7\n",
      "note_off channel=11 note=57 velocity=64 time=6\n",
      "note_on channel=6 note=57 velocity=62 time=10\n",
      "note_on channel=6 note=61 velocity=61 time=0\n",
      "note_on channel=9 note=69 velocity=48 time=1\n",
      "note_off channel=9 note=69 velocity=64 time=0\n",
      "note_on channel=1 note=33 velocity=70 time=0\n",
      "note_on channel=11 note=57 velocity=70 time=1\n",
      "note_off channel=3 note=64 velocity=64 time=8\n",
      "note_off channel=6 note=57 velocity=64 time=2\n",
      "note_off channel=1 note=33 velocity=64 time=1\n",
      "note_off channel=6 note=61 velocity=64 time=0\n",
      "note_off channel=11 note=57 velocity=64 time=5\n",
      "note_off channel=4 note=64 velocity=64 time=6\n",
      "note_on channel=9 note=54 velocity=53 time=0\n",
      "note_off channel=9 note=54 velocity=64 time=0\n",
      "<meta message lyrics text='are ' time=1>\n",
      "note_on channel=3 note=64 velocity=107 time=0\n",
      "note_on channel=4 note=64 velocity=53 time=0\n",
      "note_on channel=9 note=46 velocity=42 time=0\n",
      "note_off channel=9 note=46 velocity=64 time=0\n",
      "note_on channel=9 note=69 velocity=62 time=0\n",
      "note_off channel=9 note=69 velocity=64 time=0\n",
      "note_on channel=1 note=33 velocity=100 time=0\n",
      "note_on channel=11 note=61 velocity=90 time=0\n",
      "note_off channel=11 note=61 velocity=64 time=11\n",
      "note_on channel=9 note=69 velocity=52 time=13\n",
      "note_off channel=9 note=69 velocity=64 time=0\n",
      "note_on channel=9 note=54 velocity=47 time=0\n",
      "note_off channel=9 note=54 velocity=64 time=0\n",
      "note_on channel=6 note=52 velocity=54 time=0\n",
      "note_on channel=11 note=61 velocity=68 time=0\n",
      "note_off channel=6 note=52 velocity=64 time=10\n",
      "note_off channel=11 note=61 velocity=64 time=4\n",
      "note_off channel=1 note=33 velocity=64 time=1\n",
      "note_on channel=9 note=40 velocity=107 time=8\n",
      "note_off channel=9 note=40 velocity=64 time=0\n",
      "note_on channel=9 note=42 velocity=46 time=0\n",
      "note_off channel=9 note=42 velocity=64 time=0\n",
      "note_on channel=1 note=40 velocity=79 time=0\n",
      "note_on channel=6 note=57 velocity=71 time=0\n",
      "note_on channel=6 note=61 velocity=66 time=0\n",
      "<meta message lyrics text='low; ' time=1>\n",
      "<meta message lyrics text='\\r' time=0>\n",
      "note_off channel=3 note=64 velocity=64 time=0\n",
      "note_on channel=3 note=66 velocity=110 time=0\n",
      "note_off channel=4 note=64 velocity=64 time=0\n",
      "note_on channel=4 note=66 velocity=55 time=0\n",
      "note_on channel=9 note=69 velocity=34 time=0\n",
      "note_off channel=9 note=69 velocity=64 time=0\n",
      "note_on channel=11 note=57 velocity=74 time=0\n",
      "note_off channel=11 note=57 velocity=64 time=14\n",
      "note_off channel=1 note=40 velocity=64 time=9\n",
      "note_on channel=1 note=42 velocity=77 time=0\n",
      "note_on channel=9 note=42 velocity=40 time=1\n",
      "note_off channel=9 note=42 velocity=64 time=0\n",
      "note_on channel=9 note=69 velocity=43 time=0\n",
      "note_off channel=9 note=69 velocity=64 time=0\n",
      "note_on channel=11 note=57 velocity=71 time=1\n",
      "note_off channel=6 note=61 velocity=64 time=11\n",
      "note_off channel=6 note=57 velocity=64 time=0\n",
      "note_off channel=1 note=42 velocity=64 time=3\n",
      "note_off channel=11 note=57 velocity=64 time=3\n",
      "note_on channel=1 note=45 velocity=81 time=4\n",
      "note_off channel=0 note=64 velocity=64 time=0\n",
      "note_off channel=0 note=61 velocity=64 time=1\n",
      "note_on channel=9 note=46 velocity=53 time=1\n",
      "note_off channel=9 note=46 velocity=64 time=0\n",
      "note_on channel=9 note=69 velocity=63 time=0\n",
      "note_off channel=9 note=69 velocity=64 time=0\n",
      "note_on channel=9 note=54 velocity=78 time=0\n",
      "note_off channel=9 note=54 velocity=64 time=0\n",
      "note_off channel=0 note=57 velocity=64 time=0\n",
      "note_on channel=6 note=57 velocity=61 time=0\n",
      "note_on channel=6 note=61 velocity=54 time=0\n",
      "note_on channel=11 note=61 velocity=94 time=0\n",
      "note_off channel=6 note=61 velocity=64 time=11\n",
      "note_off channel=11 note=61 velocity=64 time=0\n",
      "note_off channel=6 note=57 velocity=64 time=3\n",
      "note_on channel=9 note=69 velocity=59 time=10\n",
      "note_off channel=9 note=69 velocity=64 time=0\n",
      "note_on channel=6 note=57 velocity=54 time=0\n",
      "note_on channel=6 note=61 velocity=56 time=0\n",
      "note_on channel=11 note=61 velocity=66 time=0\n",
      "note_on channel=9 note=54 velocity=31 time=1\n",
      "note_off channel=9 note=54 velocity=64 time=0\n",
      "note_off channel=11 note=61 velocity=64 time=12\n",
      "note_off channel=6 note=61 velocity=64 time=6\n",
      "note_off channel=6 note=57 velocity=64 time=0\n",
      "note_on channel=9 note=69 velocity=36 time=4\n",
      "note_off channel=9 note=69 velocity=64 time=0\n",
      "note_off channel=1 note=45 velocity=64 time=0\n",
      "note_on channel=2 note=69 velocity=96 time=0\n",
      "note_on channel=9 note=36 velocity=107 time=1\n",
      "note_off channel=9 note=36 velocity=64 time=0\n",
      "note_on channel=1 note=33 velocity=105 time=0\n",
      "note_on channel=0 note=62 velocity=96 time=0\n",
      "note_on channel=0 note=57 velocity=89 time=0\n",
      "note_on channel=0 note=66 velocity=75 time=0\n",
      "control_change channel=2 control=1 value=0 time=0\n",
      "pitchwheel channel=2 pitch=0 time=0\n",
      "note_on channel=6 note=54 velocity=53 time=0\n",
      "note_on channel=11 note=54 velocity=93 time=0\n",
      "note_on channel=9 note=42 velocity=57 time=1\n",
      "note_off channel=9 note=42 velocity=64 time=0\n",
      "note_off channel=11 note=54 velocity=64 time=11\n",
      "note_off channel=6 note=54 velocity=64 time=8\n",
      "note_on channel=2 note=78 velocity=96 time=2\n",
      "note_off channel=2 note=69 velocity=64 time=1\n",
      "note_on channel=6 note=57 velocity=66 time=0\n",
      "note_on channel=9 note=69 velocity=44 time=1\n",
      "note_off channel=9 note=69 velocity=64 time=0\n",
      "note_on channel=6 note=62 velocity=63 time=0\n",
      "note_on channel=9 note=42 velocity=40 time=1\n",
      "note_off channel=9 note=42 velocity=64 time=0\n",
      "note_on channel=11 note=54 velocity=67 time=0\n",
      "note_off channel=6 note=62 velocity=64 time=11\n",
      "note_off channel=6 note=57 velocity=64 time=0\n",
      "note_off channel=11 note=54 velocity=64 time=5\n",
      "note_on channel=2 note=74 velocity=93 time=6\n",
      "note_on channel=9 note=46 velocity=40 time=1\n",
      "note_off channel=9 note=46 velocity=64 time=0\n",
      "note_on channel=9 note=69 velocity=71 time=0\n",
      "note_off channel=9 note=69 velocity=64 time=0\n",
      "note_on channel=9 note=54 velocity=70 time=0\n",
      "note_off channel=9 note=54 velocity=64 time=0\n",
      "note_on channel=6 note=57 velocity=53 time=0\n",
      "note_on channel=6 note=62 velocity=59 time=0\n",
      "note_on channel=11 note=57 velocity=85 time=0\n",
      "note_off channel=0 note=57 velocity=64 time=4\n",
      "note_off channel=0 note=62 velocity=64 time=0\n",
      "note_off channel=1 note=33 velocity=64 time=1\n",
      "note_off channel=2 note=78 velocity=64 time=1\n",
      "note_off channel=0 note=66 velocity=64 time=5\n",
      "note_off channel=11 note=57 velocity=64 time=3\n",
      "note_off channel=6 note=62 velocity=64 time=2\n",
      "note_off channel=6 note=57 velocity=64 time=3\n",
      "control_change channel=3 control=1 value=1 time=4\n",
      "control_change channel=4 control=1 value=1 time=0\n",
      "note_on channel=9 note=69 velocity=44 time=0\n",
      "note_off channel=9 note=69 velocity=64 time=0\n",
      "note_on channel=1 note=33 velocity=80 time=0\n",
      "note_on channel=2 note=69 velocity=81 time=0\n",
      "note_on channel=9 note=36 velocity=102 time=1\n",
      "note_off channel=9 note=36 velocity=64 time=0\n",
      "note_on channel=0 note=57 velocity=91 time=0\n",
      "note_on channel=0 note=66 velocity=73 time=0\n",
      "note_on channel=0 note=62 velocity=91 time=0\n",
      "note_on channel=6 note=54 velocity=53 time=0\n",
      "note_on channel=9 note=54 velocity=33 time=1\n",
      "note_off channel=9 note=54 velocity=64 time=0\n",
      "note_off channel=2 note=74 velocity=64 time=0\n",
      "note_on channel=11 note=57 velocity=67 time=0\n",
      "control_change channel=3 control=1 value=2 time=3\n",
      "control_change channel=4 control=1 value=2 time=0\n",
      "note_off channel=0 note=66 velocity=64 time=4\n",
      "note_off channel=0 note=57 velocity=64 time=2\n",
      "note_off channel=1 note=33 velocity=64 time=1\n",
      "note_off channel=0 note=62 velocity=64 time=0\n",
      "note_off channel=6 note=54 velocity=64 time=2\n",
      "control_change channel=3 control=1 value=3 time=1\n",
      "control_change channel=4 control=1 value=3 time=0\n",
      "note_off channel=11 note=57 velocity=64 time=0\n",
      "control_change channel=3 control=1 value=4 time=4\n",
      "control_change channel=4 control=1 value=4 time=0\n",
      "note_on channel=2 note=78 velocity=103 time=5\n",
      "note_on channel=6 note=57 velocity=67 time=0\n",
      "note_on channel=6 note=62 velocity=76 time=0\n",
      "note_on channel=9 note=40 velocity=101 time=1\n",
      "note_off channel=9 note=40 velocity=64 time=0\n",
      "note_on channel=9 note=42 velocity=40 time=0\n",
      "note_off channel=9 note=42 velocity=64 time=0\n",
      "note_on channel=9 note=69 velocity=40 time=0\n",
      "note_off channel=9 note=69 velocity=64 time=0\n",
      "note_on channel=1 note=33 velocity=97 time=0\n",
      "note_on channel=11 note=54 velocity=85 time=0\n",
      "note_off channel=2 note=69 velocity=64 time=5\n",
      "control_change channel=3 control=1 value=3 time=6\n",
      "control_change channel=4 control=1 value=3 time=0\n",
      "control_change channel=3 control=1 value=2 time=1\n",
      "control_change channel=4 control=1 value=2 time=0\n",
      "note_off channel=11 note=54 velocity=64 time=0\n",
      "control_change channel=3 control=1 value=1 time=2\n",
      "control_change channel=4 control=1 value=1 time=0\n",
      "note_off channel=6 note=62 velocity=64 time=0\n",
      "control_change channel=3 control=1 value=0 time=2\n",
      "control_change channel=4 control=1 value=0 time=0\n",
      "note_off channel=6 note=57 velocity=64 time=1\n",
      "note_on channel=6 note=54 velocity=56 time=5\n",
      "note_on channel=9 note=69 velocity=42 time=2\n",
      "note_off channel=9 note=69 velocity=64 time=0\n",
      "note_on channel=2 note=74 velocity=93 time=0\n",
      "note_on channel=11 note=54 velocity=70 time=1\n",
      "note_off channel=2 note=78 velocity=64 time=3\n",
      "note_off channel=1 note=33 velocity=64 time=2\n",
      "note_off channel=6 note=54 velocity=64 time=4\n",
      "note_off channel=11 note=54 velocity=64 time=7\n",
      "note_off channel=2 note=74 velocity=64 time=3\n",
      "note_on channel=0 note=57 velocity=87 time=3\n",
      "note_on channel=0 note=62 velocity=101 time=0\n",
      "note_on channel=0 note=66 velocity=80 time=0\n",
      "note_on channel=2 note=81 velocity=88 time=0\n",
      "note_on channel=9 note=46 velocity=44 time=1\n",
      "note_off channel=9 note=46 velocity=64 time=0\n",
      "note_on channel=9 note=69 velocity=66 time=0\n",
      "note_off channel=9 note=69 velocity=64 time=0\n",
      "note_on channel=9 note=54 velocity=70 time=0\n",
      "note_off channel=9 note=54 velocity=64 time=0\n",
      "note_on channel=1 note=33 velocity=100 time=0\n",
      "note_on channel=6 note=57 velocity=66 time=0\n",
      "note_on channel=6 note=62 velocity=67 time=0\n",
      "note_on channel=11 note=57 velocity=93 time=0\n",
      "note_on channel=9 note=36 velocity=102 time=1\n",
      "note_off channel=9 note=36 velocity=64 time=0\n",
      "note_off channel=11 note=57 velocity=64 time=12\n",
      "note_off channel=6 note=62 velocity=64 time=2\n",
      "note_off channel=6 note=57 velocity=64 time=1\n",
      "note_on channel=6 note=62 velocity=58 time=7\n",
      "note_on channel=6 note=57 velocity=54 time=0\n",
      "note_on channel=9 note=69 velocity=45 time=1\n",
      "note_off channel=9 note=69 velocity=64 time=0\n",
      "note_on channel=9 note=54 velocity=45 time=0\n",
      "note_off channel=9 note=54 velocity=64 time=0\n",
      "note_on channel=2 note=78 velocity=93 time=0\n",
      "note_on channel=11 note=57 velocity=67 time=0\n",
      "note_off channel=2 note=81 velocity=64 time=5\n",
      "note_off channel=3 note=66 velocity=64 time=4\n",
      "note_off channel=11 note=57 velocity=64 time=5\n",
      "note_off channel=6 note=57 velocity=64 time=5\n",
      "note_off channel=6 note=62 velocity=64 time=0\n",
      "note_off channel=4 note=66 velocity=64 time=4\n",
      "note_on channel=2 note=74 velocity=86 time=0\n",
      "note_on channel=9 note=69 velocity=36 time=1\n",
      "note_off channel=9 note=69 velocity=64 time=0\n",
      "note_off channel=2 note=78 velocity=64 time=0\n",
      "note_on channel=11 note=54 velocity=85 time=0\n",
      "note_on channel=9 note=36 velocity=110 time=1\n",
      "note_off channel=9 note=36 velocity=64 time=0\n",
      "note_on channel=9 note=42 velocity=52 time=0\n",
      "note_off channel=9 note=42 velocity=64 time=0\n",
      "note_off channel=1 note=33 velocity=64 time=1\n",
      "note_off channel=11 note=54 velocity=64 time=10\n",
      "note_on channel=1 note=28 velocity=75 time=11\n",
      "note_on channel=9 note=69 velocity=41 time=1\n",
      "note_off channel=9 note=69 velocity=64 time=0\n",
      "note_on channel=2 note=81 velocity=94 time=0\n",
      "note_on channel=6 note=57 velocity=65 time=0\n",
      "note_on channel=6 note=62 velocity=68 time=0\n",
      "note_on channel=11 note=54 velocity=76 time=0\n",
      "note_off channel=2 note=74 velocity=64 time=4\n",
      "note_off channel=6 note=62 velocity=64 time=10\n",
      "note_off channel=11 note=54 velocity=64 time=0\n",
      "note_off channel=6 note=57 velocity=64 time=1\n",
      "note_off channel=1 note=28 velocity=64 time=7\n",
      "note_on channel=1 note=29 velocity=83 time=0\n",
      "note_on channel=9 note=54 velocity=68 time=1\n",
      "note_off channel=9 note=54 velocity=64 time=0\n",
      "note_on channel=11 note=57 velocity=93 time=0\n",
      "note_on channel=9 note=46 velocity=47 time=1\n",
      "note_off channel=9 note=46 velocity=64 time=0\n",
      "note_on channel=9 note=69 velocity=71 time=0\n",
      "note_off channel=9 note=69 velocity=64 time=0\n",
      "note_on channel=2 note=78 velocity=84 time=0\n",
      "note_off channel=2 note=81 velocity=64 time=5\n",
      "note_off channel=11 note=57 velocity=64 time=7\n",
      "note_on channel=9 note=69 velocity=52 time=11\n",
      "note_off channel=9 note=69 velocity=64 time=0\n",
      "note_on channel=2 note=74 velocity=85 time=0\n",
      "note_on channel=11 note=57 velocity=67 time=0\n",
      "note_on channel=9 note=54 velocity=40 time=1\n",
      "note_off channel=9 note=54 velocity=64 time=0\n",
      "note_off channel=2 note=78 velocity=64 time=0\n",
      "note_on channel=6 note=54 velocity=52 time=0\n",
      "note_off channel=11 note=57 velocity=64 time=15\n",
      "note_off channel=6 note=54 velocity=64 time=1\n",
      "note_off channel=1 note=29 velocity=64 time=6\n",
      "note_on channel=1 note=30 velocity=86 time=1\n",
      "note_off channel=2 note=74 velocity=64 time=0\n",
      "note_on channel=6 note=57 velocity=71 time=0\n",
      "note_on channel=11 note=54 velocity=108 time=0\n",
      "note_on channel=9 note=40 velocity=104 time=1\n",
      "note_off channel=9 note=40 velocity=64 time=0\n",
      "note_on channel=2 note=81 velocity=92 time=0\n",
      "note_on channel=6 note=62 velocity=81 time=0\n",
      "note_on channel=9 note=42 velocity=43 time=1\n",
      "note_off channel=9 note=42 velocity=64 time=0\n",
      "note_off channel=11 note=54 velocity=64 time=10\n",
      "note_on channel=9 note=69 velocity=44 time=12\n",
      "note_off channel=9 note=69 velocity=64 time=0\n",
      "note_on channel=2 note=80 velocity=79 time=1\n",
      "note_on channel=11 note=54 velocity=77 time=0\n",
      "note_off channel=2 note=81 velocity=64 time=2\n",
      "note_off channel=6 note=62 velocity=64 time=10\n",
      "note_off channel=6 note=57 velocity=64 time=0\n",
      "note_off channel=11 note=54 velocity=64 time=2\n",
      "note_off channel=0 note=62 velocity=64 time=3\n",
      "note_off channel=1 note=30 velocity=64 time=1\n",
      "note_on channel=1 note=33 velocity=79 time=4\n",
      "note_on channel=9 note=69 velocity=69 time=1\n",
      "note_off channel=9 note=69 velocity=64 time=0\n",
      "note_on channel=9 note=54 velocity=68 time=0\n",
      "note_off channel=9 note=54 velocity=64 time=0\n",
      "note_on channel=11 note=57 velocity=100 time=0\n",
      "note_on channel=9 note=46 velocity=42 time=1\n",
      "note_off channel=9 note=46 velocity=64 time=0\n",
      "note_off channel=2 note=80 velocity=64 time=0\n",
      "note_on channel=2 note=76 velocity=90 time=0\n",
      "note_on channel=6 note=62 velocity=63 time=0\n",
      "note_on channel=6 note=57 velocity=60 time=0\n",
      "note_off channel=0 note=57 velocity=64 time=3\n",
      "note_off channel=0 note=66 velocity=64 time=6\n",
      "note_off channel=11 note=57 velocity=64 time=2\n",
      "note_off channel=6 note=57 velocity=64 time=3\n",
      "note_off channel=6 note=62 velocity=64 time=0\n",
      "note_off channel=1 note=33 velocity=64 time=8\n",
      "note_on channel=1 note=30 velocity=68 time=0\n",
      "note_on channel=9 note=69 velocity=49 time=1\n",
      "note_off channel=9 note=69 velocity=64 time=0\n",
      "note_on channel=9 note=54 velocity=33 time=1\n",
      "note_off channel=9 note=54 velocity=64 time=0\n",
      "note_on channel=6 note=62 velocity=60 time=0\n",
      "note_on channel=6 note=57 velocity=54 time=0\n",
      "note_on channel=11 note=57 velocity=65 time=0\n",
      "note_off channel=11 note=57 velocity=64 time=12\n",
      "note_off channel=6 note=57 velocity=64 time=4\n",
      "note_off channel=6 note=62 velocity=64 time=0\n",
      "note_off channel=1 note=30 velocity=64 time=6\n",
      "note_on channel=9 note=42 velocity=52 time=1\n",
      "note_off channel=9 note=42 velocity=64 time=0\n",
      "note_on channel=1 note=33 velocity=93 time=0\n",
      "note_on channel=0 note=57 velocity=72 time=0\n",
      "note_on channel=0 note=64 velocity=91 time=0\n",
      "<meta message lyrics text='look' time=1>\n",
      "note_on channel=3 note=61 velocity=104 time=0\n",
      "note_on channel=4 note=61 velocity=52 time=0\n",
      "note_on channel=9 note=36 velocity=107 time=0\n",
      "note_off channel=9 note=36 velocity=64 time=0\n",
      "note_on channel=9 note=69 velocity=35 time=0\n",
      "note_off channel=9 note=69 velocity=64 time=0\n",
      "note_on channel=0 note=61 velocity=80 time=0\n",
      "note_on channel=2 note=73 velocity=91 time=0\n",
      "note_on channel=6 note=52 velocity=57 time=0\n",
      "note_on channel=11 note=57 velocity=73 time=0\n",
      "note_off channel=2 note=76 velocity=64 time=3\n",
      "note_off channel=11 note=57 velocity=64 time=9\n",
      "note_off channel=6 note=52 velocity=64 time=6\n",
      "note_on channel=9 note=42 velocity=43 time=5\n",
      "note_off channel=9 note=42 velocity=64 time=0\n",
      "note_on channel=9 note=69 velocity=43 time=1\n",
      "note_off channel=9 note=69 velocity=64 time=0\n",
      "note_on channel=6 note=61 velocity=66 time=0\n",
      "note_on channel=6 note=57 velocity=60 time=0\n",
      "note_on channel=11 note=57 velocity=74 time=0\n",
      "note_off channel=11 note=57 velocity=64 time=13\n",
      "note_off channel=6 note=57 velocity=64 time=1\n",
      "note_off channel=6 note=61 velocity=64 time=0\n",
      "note_off channel=3 note=61 velocity=64 time=8\n",
      "note_on channel=11 note=61 velocity=100 time=0\n",
      "<meta message lyrics text=\"in' \" time=1>\n",
      "note_on channel=3 note=64 velocity=105 time=0\n",
      "note_off channel=4 note=61 velocity=64 time=0\n",
      "note_on channel=4 note=64 velocity=52 time=0\n",
      "note_on channel=9 note=46 velocity=45 time=0\n",
      "note_off channel=9 note=46 velocity=64 time=0\n",
      "note_on channel=9 note=54 velocity=68 time=0\n",
      "note_off channel=9 note=54 velocity=64 time=0\n",
      "note_on channel=9 note=69 velocity=74 time=1\n",
      "note_off channel=9 note=69 velocity=64 time=0\n",
      "note_on channel=6 note=57 velocity=67 time=0\n",
      "note_on channel=6 note=61 velocity=54 time=0\n",
      "note_off channel=1 note=33 velocity=64 time=2\n",
      "note_off channel=0 note=57 velocity=64 time=2\n",
      "note_off channel=0 note=61 velocity=64 time=4\n",
      "note_off channel=0 note=64 velocity=64 time=0\n",
      "note_off channel=11 note=61 velocity=64 time=2\n",
      "note_off channel=3 note=64 velocity=64 time=4\n",
      "note_off channel=6 note=57 velocity=64 time=4\n",
      "note_off channel=6 note=61 velocity=64 time=1\n",
      "note_on channel=1 note=33 velocity=89 time=4\n",
      "note_on channel=11 note=61 velocity=75 time=0\n",
      "note_off channel=4 note=64 velocity=64 time=1\n",
      "note_on channel=9 note=36 velocity=107 time=0\n",
      "note_off channel=9 note=36 velocity=64 time=0\n",
      "note_on channel=9 note=69 velocity=39 time=0\n",
      "note_off channel=9 note=69 velocity=64 time=0\n",
      "note_on channel=9 note=54 velocity=34 time=0\n",
      "note_off channel=9 note=54 velocity=64 time=0\n",
      "note_on channel=0 note=57 velocity=83 time=0\n",
      "note_on channel=0 note=64 velocity=85 time=0\n",
      "note_on channel=0 note=61 velocity=73 time=0\n",
      "note_on channel=6 note=52 velocity=54 time=0\n",
      "<meta message lyrics text='out ' time=1>\n",
      "note_on channel=3 note=64 velocity=105 time=0\n",
      "note_on channel=4 note=64 velocity=52 time=0\n",
      "note_off channel=2 note=73 velocity=64 time=7\n",
      "note_off channel=6 note=52 velocity=64 time=2\n",
      "note_off channel=11 note=61 velocity=64 time=1\n",
      "note_off channel=1 note=33 velocity=64 time=1\n",
      "note_off channel=0 note=64 velocity=64 time=3\n",
      "note_off channel=0 note=61 velocity=64 time=1\n",
      "note_off channel=0 note=57 velocity=64 time=0\n",
      "note_on channel=9 note=40 velocity=90 time=7\n",
      "note_off channel=9 note=40 velocity=64 time=0\n",
      "note_on channel=1 note=33 velocity=85 time=0\n",
      "note_on channel=6 note=61 velocity=67 time=0\n",
      "note_on channel=6 note=57 velocity=71 time=0\n",
      "note_on channel=11 note=57 velocity=74 time=0\n",
      "note_on channel=9 note=42 velocity=51 time=1\n",
      "note_off channel=9 note=42 velocity=64 time=0\n",
      "note_on channel=9 note=69 velocity=42 time=1\n",
      "note_off channel=9 note=69 velocity=64 time=0\n",
      "note_off channel=3 note=64 velocity=64 time=7\n",
      "note_off channel=11 note=57 velocity=64 time=3\n",
      "note_off channel=6 note=57 velocity=64 time=5\n",
      "note_off channel=6 note=61 velocity=64 time=3\n",
      "note_off channel=4 note=64 velocity=64 time=4\n",
      "note_on channel=6 note=52 velocity=47 time=0\n",
      "<meta message lyrics text='for ' time=1>\n",
      "note_on channel=3 note=64 velocity=106 time=0\n",
      "note_on channel=4 note=64 velocity=53 time=0\n",
      "note_on channel=11 note=57 velocity=73 time=0\n",
      "note_on channel=9 note=69 velocity=36 time=1\n",
      "note_off channel=9 note=69 velocity=64 time=0\n",
      "note_off channel=1 note=33 velocity=64 time=2\n",
      "note_off channel=6 note=52 velocity=64 time=4\n",
      "note_off channel=11 note=57 velocity=64 time=6\n",
      "note_on channel=1 note=33 velocity=81 time=9\n",
      "note_on channel=9 note=36 velocity=101 time=1\n",
      "note_off channel=9 note=36 velocity=64 time=0\n",
      "note_on channel=9 note=54 velocity=78 time=0\n",
      "note_off channel=9 note=54 velocity=64 time=0\n",
      "note_on channel=0 note=57 velocity=83 time=0\n",
      "note_on channel=0 note=64 velocity=91 time=0\n",
      "note_on channel=0 note=61 velocity=81 time=0\n",
      "note_on channel=6 note=57 velocity=66 time=0\n",
      "note_on channel=6 note=61 velocity=60 time=0\n",
      "note_on channel=11 note=61 velocity=102 time=0\n",
      "note_on channel=9 note=46 velocity=43 time=1\n",
      "note_off channel=9 note=46 velocity=64 time=0\n",
      "note_on channel=9 note=69 velocity=74 time=1\n",
      "note_off channel=9 note=69 velocity=64 time=0\n",
      "note_off channel=3 note=64 velocity=64 time=5\n",
      "note_off channel=11 note=61 velocity=64 time=4\n",
      "note_off channel=6 note=61 velocity=64 time=2\n",
      "note_off channel=6 note=57 velocity=64 time=0\n",
      "note_off channel=4 note=64 velocity=64 time=11\n",
      "note_on channel=6 note=61 velocity=56 time=0\n",
      "note_on channel=6 note=57 velocity=63 time=0\n",
      "<meta message lyrics text='a ' time=1>\n",
      "note_on channel=3 note=64 velocity=105 time=0\n",
      "note_on channel=4 note=64 velocity=52 time=0\n",
      "note_on channel=9 note=69 velocity=42 time=0\n",
      "note_off channel=9 note=69 velocity=64 time=0\n",
      "note_on channel=9 note=54 velocity=29 time=0\n",
      "note_off channel=9 note=54 velocity=64 time=0\n",
      "note_on channel=11 note=61 velocity=74 time=0\n",
      "note_off channel=3 note=64 velocity=64 time=12\n",
      "note_off channel=11 note=61 velocity=64 time=0\n",
      "note_off channel=6 note=57 velocity=64 time=4\n",
      "note_off channel=6 note=61 velocity=64 time=4\n",
      "note_off channel=4 note=64 velocity=64 time=3\n",
      "note_on channel=11 note=57 velocity=75 time=0\n",
      "<meta message lyrics text='place ' time=1>\n",
      "note_on channel=3 note=64 velocity=106 time=0\n",
      "note_on channel=4 note=64 velocity=53 time=0\n",
      "note_on channel=9 note=36 velocity=111 time=0\n",
      "note_off channel=9 note=36 velocity=64 time=0\n",
      "note_on channel=9 note=42 velocity=50 time=0\n",
      "note_off channel=9 note=42 velocity=64 time=0\n",
      "note_on channel=9 note=69 velocity=44 time=0\n",
      "note_off channel=9 note=69 velocity=64 time=0\n",
      "note_off channel=1 note=33 velocity=64 time=0\n",
      "note_on channel=6 note=52 velocity=52 time=0\n",
      "note_off channel=6 note=52 velocity=64 time=8\n",
      "note_off channel=11 note=57 velocity=64 time=3\n",
      "note_on channel=1 note=33 velocity=87 time=12\n",
      "note_on channel=6 note=57 velocity=65 time=0\n",
      "note_on channel=6 note=61 velocity=59 time=0\n",
      "note_on channel=9 note=69 velocity=41 time=1\n",
      "note_off channel=9 note=69 velocity=64 time=0\n",
      "note_on channel=11 note=57 velocity=72 time=0\n",
      "note_off channel=3 note=64 velocity=64 time=6\n",
      "note_off channel=1 note=33 velocity=64 time=5\n",
      "note_off channel=6 note=57 velocity=64 time=0\n",
      "note_off channel=6 note=61 velocity=64 time=2\n",
      "note_off channel=11 note=57 velocity=64 time=3\n",
      "note_off channel=4 note=64 velocity=64 time=7\n",
      "note_on channel=9 note=54 velocity=63 time=0\n",
      "note_off channel=9 note=54 velocity=64 time=0\n",
      "note_on channel=1 note=33 velocity=96 time=0\n",
      "note_on channel=11 note=61 velocity=112 time=0\n",
      "<meta message lyrics text='to ' time=1>\n",
      "note_on channel=3 note=64 velocity=107 time=0\n",
      "note_on channel=4 note=64 velocity=53 time=0\n",
      "note_on channel=9 note=46 velocity=43 time=0\n",
      "note_off channel=9 note=46 velocity=64 time=0\n",
      "note_on channel=9 note=69 velocity=66 time=0\n",
      "note_off channel=9 note=69 velocity=64 time=0\n",
      "note_off channel=11 note=61 velocity=64 time=10\n",
      "note_on channel=9 note=69 velocity=39 time=13\n",
      "note_off channel=9 note=69 velocity=64 time=0\n",
      "note_on channel=6 note=52 velocity=54 time=0\n",
      "note_on channel=11 note=61 velocity=65 time=0\n",
      "note_on channel=9 note=54 velocity=35 time=1\n",
      "note_off channel=9 note=54 velocity=64 time=0\n",
      "note_off channel=6 note=52 velocity=64 time=7\n",
      "note_off channel=11 note=61 velocity=64 time=4\n",
      "note_off channel=1 note=33 velocity=64 time=9\n",
      "note_on channel=1 note=40 velocity=78 time=3\n",
      "note_on channel=6 note=57 velocity=74 time=0\n",
      "note_on channel=6 note=61 velocity=81 time=0\n",
      "note_on channel=11 note=57 velocity=74 time=0\n",
      "note_off channel=3 note=64 velocity=64 time=1\n",
      "note_on channel=9 note=40 velocity=102 time=0\n",
      "note_off channel=9 note=40 velocity=64 time=0\n",
      "note_on channel=9 note=42 velocity=56 time=0\n",
      "note_off channel=9 note=42 velocity=64 time=0\n",
      "note_on channel=9 note=69 velocity=46 time=0\n",
      "note_off channel=9 note=69 velocity=64 time=0\n",
      "<meta message lyrics text='go, ' time=4>\n",
      "<meta message lyrics text='\\r' time=0>\n",
      "note_on channel=3 note=61 velocity=104 time=0\n",
      "note_off channel=4 note=64 velocity=64 time=0\n",
      "note_on channel=4 note=61 velocity=52 time=0\n",
      "note_off channel=11 note=57 velocity=64 time=7\n",
      "note_off channel=1 note=40 velocity=64 time=12\n",
      "note_on channel=1 note=42 velocity=73 time=0\n",
      "note_on channel=9 note=69 velocity=42 time=1\n",
      "note_off channel=9 note=69 velocity=64 time=0\n",
      "note_on channel=11 note=57 velocity=68 time=0\n",
      "note_off channel=0 note=61 velocity=64 time=15\n",
      "note_off channel=0 note=57 velocity=64 time=2\n",
      "note_off channel=11 note=57 velocity=64 time=0\n",
      "note_off channel=1 note=42 velocity=64 time=5\n",
      "note_on channel=9 note=46 velocity=42 time=1\n",
      "note_off channel=9 note=46 velocity=64 time=0\n",
      "note_on channel=9 note=54 velocity=63 time=0\n",
      "note_off channel=9 note=54 velocity=64 time=0\n",
      "note_on channel=1 note=45 velocity=78 time=0\n",
      "note_off channel=0 note=64 velocity=64 time=0\n",
      "note_on channel=6 note=52 velocity=57 time=0\n",
      "note_on channel=9 note=69 velocity=65 time=1\n",
      "note_off channel=9 note=69 velocity=64 time=0\n",
      "note_on channel=11 note=61 velocity=108 time=0\n",
      "note_off channel=6 note=52 velocity=64 time=7\n",
      "note_off channel=11 note=61 velocity=64 time=3\n",
      "note_on channel=9 note=69 velocity=38 time=13\n",
      "note_off channel=9 note=69 velocity=64 time=0\n",
      "note_on channel=9 note=54 velocity=37 time=1\n",
      "note_off channel=9 note=54 velocity=64 time=0\n",
      "note_on channel=11 note=61 velocity=72 time=0\n",
      "note_off channel=11 note=61 velocity=64 time=12\n",
      "note_off channel=6 note=61 velocity=64 time=5\n",
      "note_off channel=6 note=57 velocity=64 time=3\n",
      "note_on channel=9 note=36 velocity=104 time=3\n",
      "note_off channel=9 note=36 velocity=64 time=0\n",
      "note_on channel=9 note=42 velocity=47 time=0\n",
      "note_off channel=9 note=42 velocity=64 time=0\n",
      "note_on channel=9 note=69 velocity=45 time=0\n",
      "note_off channel=9 note=69 velocity=64 time=0\n",
      "note_on channel=0 note=57 velocity=89 time=0\n",
      "note_on channel=0 note=61 velocity=81 time=0\n",
      "note_on channel=0 note=66 velocity=79 time=0\n",
      "note_on channel=6 note=54 velocity=60 time=0\n",
      "note_on channel=11 note=54 velocity=104 time=0\n",
      "note_off channel=1 note=45 velocity=64 time=1\n",
      "note_on channel=1 note=42 velocity=84 time=0\n",
      "note_off channel=6 note=54 velocity=64 time=9\n",
      "note_off channel=11 note=54 velocity=64 time=2\n",
      "note_on channel=9 note=42 velocity=40 time=12\n",
      "note_off channel=9 note=42 velocity=64 time=0\n",
      "note_on channel=9 note=69 velocity=40 time=1\n",
      "note_off channel=9 note=69 velocity=64 time=0\n",
      "note_on channel=6 note=57 velocity=67 time=0\n",
      "note_on channel=6 note=54 velocity=48 time=0\n",
      "note_on channel=6 note=61 velocity=58 time=0\n",
      "note_on channel=11 note=54 velocity=61 time=0\n",
      "<meta message lyrics text='\\n' time=11>\n",
      "note_off channel=6 note=61 velocity=64 time=0\n",
      "note_off channel=6 note=54 velocity=64 time=1\n",
      "note_off channel=6 note=57 velocity=64 time=4\n",
      "note_off channel=11 note=54 velocity=64 time=0\n",
      "note_on channel=9 note=46 velocity=48 time=7\n",
      "note_off channel=9 note=46 velocity=64 time=0\n",
      "note_on channel=9 note=54 velocity=68 time=0\n",
      "note_off channel=9 note=54 velocity=64 time=0\n",
      "note_on channel=11 note=57 velocity=98 time=0\n",
      "note_on channel=9 note=69 velocity=67 time=1\n",
      "note_off channel=9 note=69 velocity=64 time=0\n",
      "note_on channel=6 note=57 velocity=62 time=0\n",
      "note_on channel=6 note=54 velocity=45 time=0\n",
      "note_on channel=6 note=61 velocity=59 time=0\n",
      "note_off channel=0 note=57 velocity=64 time=5\n",
      "note_off channel=0 note=61 velocity=64 time=3\n",
      "note_off channel=0 note=66 velocity=64 time=3\n",
      "note_off channel=11 note=57 velocity=64 time=0\n",
      "note_off channel=6 note=57 velocity=64 time=6\n",
      "note_off channel=6 note=61 velocity=64 time=1\n",
      "note_off channel=6 note=54 velocity=64 time=1\n",
      "note_off channel=1 note=42 velocity=64 time=1\n",
      "note_on channel=9 note=36 velocity=101 time=3\n",
      "note_off channel=9 note=36 velocity=64 time=0\n",
      "note_on channel=1 note=37 velocity=71 time=0\n",
      "note_on channel=9 note=69 velocity=39 time=1\n",
      "note_off channel=9 note=69 velocity=64 time=0\n",
      "note_on channel=9 note=54 velocity=33 time=0\n",
      "note_off channel=9 note=54 velocity=64 time=0\n",
      "note_on channel=0 note=66 velocity=82 time=0\n",
      "note_on channel=0 note=61 velocity=79 time=0\n",
      "note_on channel=0 note=57 velocity=82 time=0\n",
      "note_on channel=6 note=54 velocity=66 time=0\n",
      "note_on channel=11 note=57 velocity=65 time=0\n",
      "note_off channel=6 note=54 velocity=64 time=9\n",
      "note_off channel=0 note=57 velocity=64 time=2\n",
      "note_off channel=0 note=66 velocity=64 time=2\n",
      "note_off channel=11 note=57 velocity=64 time=0\n",
      "note_off channel=0 note=61 velocity=64 time=2\n",
      "note_on channel=9 note=40 velocity=104 time=7\n",
      "note_off channel=9 note=40 velocity=64 time=0\n",
      "note_on channel=11 note=54 velocity=87 time=0\n",
      "note_on channel=9 note=42 velocity=53 time=1\n",
      "note_off channel=9 note=42 velocity=64 time=0\n",
      "note_off channel=1 note=37 velocity=64 time=0\n",
      "note_on channel=1 note=42 velocity=72 time=0\n",
      "note_on channel=9 note=69 velocity=51 time=1\n",
      "note_off channel=9 note=69 velocity=64 time=0\n",
      "note_on channel=6 note=57 velocity=71 time=0\n",
      "note_on channel=6 note=54 velocity=57 time=0\n",
      "note_on channel=6 note=61 velocity=56 time=0\n",
      "note_off channel=11 note=54 velocity=64 time=10\n",
      "note_off channel=6 note=61 velocity=64 time=5\n",
      "note_off channel=6 note=54 velocity=64 time=1\n",
      "note_off channel=6 note=57 velocity=64 time=0\n",
      "note_on channel=11 note=54 velocity=81 time=7\n",
      "note_on channel=9 note=69 velocity=48 time=2\n",
      "note_off channel=9 note=69 velocity=64 time=0\n",
      "note_off channel=1 note=42 velocity=64 time=5\n",
      "note_off channel=11 note=54 velocity=64 time=9\n",
      "note_on channel=1 note=42 velocity=73 time=7\n",
      "note_on channel=9 note=36 velocity=98 time=1\n",
      "note_off channel=9 note=36 velocity=64 time=0\n",
      "note_on channel=9 note=46 velocity=44 time=0\n",
      "note_off channel=9 note=46 velocity=64 time=0\n",
      "note_on channel=9 note=54 velocity=68 time=0\n",
      "note_off channel=9 note=54 velocity=64 time=0\n",
      "note_on channel=0 note=57 velocity=91 time=0\n",
      "note_on channel=6 note=57 velocity=71 time=0\n",
      "note_on channel=11 note=57 velocity=93 time=0\n",
      "note_on channel=9 note=69 velocity=62 time=1\n",
      "note_off channel=9 note=69 velocity=64 time=0\n",
      "note_on channel=0 note=61 velocity=89 time=0\n",
      "note_on channel=0 note=66 velocity=80 time=0\n",
      "note_on channel=6 note=61 velocity=63 time=0\n",
      "note_on channel=6 note=54 velocity=53 time=0\n",
      "note_off channel=6 note=61 velocity=64 time=11\n",
      "note_off channel=11 note=57 velocity=64 time=0\n",
      "note_off channel=6 note=57 velocity=64 time=3\n",
      "note_off channel=6 note=54 velocity=64 time=3\n",
      "note_on channel=11 note=57 velocity=67 time=6\n",
      "note_on channel=9 note=69 velocity=47 time=1\n",
      "note_off channel=9 note=69 velocity=64 time=0\n",
      "note_on channel=9 note=54 velocity=37 time=0\n",
      "note_off channel=9 note=54 velocity=64 time=0\n",
      "note_on channel=6 note=57 velocity=69 time=0\n",
      "note_on channel=6 note=54 velocity=40 time=0\n",
      "note_on channel=6 note=61 velocity=65 time=0\n",
      "note_off channel=11 note=57 velocity=64 time=14\n",
      "note_off channel=3 note=61 velocity=64 time=5\n",
      "note_off channel=6 note=61 velocity=64 time=0\n",
      "note_off channel=6 note=54 velocity=64 time=1\n",
      "note_off channel=6 note=57 velocity=64 time=0\n",
      "note_on channel=11 note=54 velocity=95 time=2\n",
      "note_on channel=9 note=42 velocity=52 time=1\n",
      "note_off channel=9 note=42 velocity=64 time=0\n",
      "note_on channel=9 note=36 velocity=101 time=1\n",
      "note_off channel=9 note=36 velocity=64 time=0\n",
      "note_on channel=9 note=69 velocity=48 time=0\n",
      "note_off channel=9 note=69 velocity=64 time=0\n",
      "note_on channel=6 note=54 velocity=57 time=1\n",
      "note_off channel=11 note=54 velocity=64 time=7\n",
      "note_off channel=6 note=54 velocity=64 time=1\n",
      "note_off channel=4 note=61 velocity=64 time=2\n",
      "note_off channel=1 note=42 velocity=64 time=3\n",
      "note_on channel=9 note=40 velocity=102 time=9\n",
      "note_off channel=9 note=40 velocity=64 time=0\n",
      "note_on channel=11 note=54 velocity=90 time=0\n",
      "note_on channel=9 note=69 velocity=48 time=1\n",
      "note_off channel=9 note=69 velocity=64 time=0\n",
      "note_on channel=1 note=42 velocity=71 time=0\n",
      "note_on channel=6 note=57 velocity=76 time=0\n",
      "note_on channel=6 note=61 velocity=60 time=0\n",
      "note_on channel=6 note=54 velocity=57 time=0\n",
      "note_off channel=6 note=54 velocity=64 time=11\n",
      "note_off channel=6 note=61 velocity=64 time=1\n",
      "note_off channel=6 note=57 velocity=64 time=0\n",
      "note_off channel=11 note=54 velocity=64 time=1\n",
      "note_off channel=1 note=42 velocity=64 time=10\n",
      "note_on channel=11 note=57 velocity=98 time=0\n",
      "note_on channel=9 note=69 velocity=64 time=1\n",
      "note_off channel=9 note=69 velocity=64 time=0\n",
      "note_on channel=9 note=54 velocity=68 time=0\n",
      "note_off channel=9 note=54 velocity=64 time=0\n",
      "note_on channel=1 note=37 velocity=77 time=0\n",
      "note_off channel=11 note=57 velocity=64 time=11\n",
      "note_off channel=0 note=66 velocity=64 time=10\n",
      "note_on channel=9 note=69 velocity=45 time=3\n",
      "note_off channel=9 note=69 velocity=64 time=0\n",
      "note_on channel=9 note=54 velocity=38 time=0\n",
      "note_off channel=9 note=54 velocity=64 time=0\n",
      "note_on channel=0 note=81 velocity=85 time=0\n",
      "note_on channel=0 note=69 velocity=93 time=0\n",
      "note_on channel=6 note=54 velocity=55 time=0\n",
      "note_on channel=11 note=57 velocity=70 time=0\n",
      "note_off channel=6 note=54 velocity=64 time=5\n",
      "control_change channel=0 control=64 value=127 time=6\n",
      "note_off channel=0 note=69 velocity=64 time=4\n",
      "note_off channel=11 note=57 velocity=64 time=0\n",
      "note_off channel=1 note=37 velocity=64 time=1\n",
      "note_off channel=0 note=81 velocity=64 time=3\n",
      "<meta message lyrics text='mm, ' time=4>\n",
      "note_on channel=3 note=61 velocity=108 time=0\n",
      "note_on channel=4 note=61 velocity=54 time=0\n",
      "note_on channel=9 note=40 velocity=102 time=0\n",
      "note_off channel=9 note=40 velocity=64 time=0\n",
      "note_on channel=1 note=42 velocity=74 time=0\n",
      "note_on channel=6 note=57 velocity=85 time=0\n",
      "note_on channel=6 note=54 velocity=65 time=0\n",
      "note_on channel=6 note=61 velocity=56 time=0\n",
      "note_on channel=11 note=54 velocity=93 time=0\n",
      "note_on channel=9 note=42 velocity=59 time=1\n",
      "note_off channel=9 note=42 velocity=64 time=0\n",
      "note_on channel=9 note=69 velocity=55 time=0\n",
      "note_off channel=9 note=69 velocity=64 time=0\n",
      "note_off channel=11 note=54 velocity=64 time=11\n",
      "note_off channel=1 note=42 velocity=64 time=1\n",
      "note_off channel=0 note=57 velocity=64 time=8\n",
      "note_off channel=3 note=61 velocity=64 time=1\n",
      "note_off channel=0 note=61 velocity=64 time=1\n",
      "note_on channel=1 note=42 velocity=79 time=1\n",
      "note_on channel=3 note=59 velocity=106 time=1\n",
      "note_off channel=4 note=61 velocity=64 time=0\n",
      "note_on channel=4 note=59 velocity=53 time=0\n",
      "note_on channel=9 note=69 velocity=40 time=0\n",
      "note_off channel=9 note=69 velocity=64 time=0\n",
      "note_on channel=0 note=80 velocity=77 time=0\n",
      "note_on channel=0 note=68 velocity=99 time=0\n",
      "note_on channel=11 note=54 velocity=85 time=0\n",
      "note_off channel=0 note=68 velocity=64 time=9\n",
      "note_off channel=0 note=80 velocity=64 time=0\n",
      "note_off channel=11 note=54 velocity=64 time=7\n",
      "note_off channel=1 note=42 velocity=64 time=6\n",
      "note_on channel=1 note=37 velocity=69 time=0\n",
      "note_on channel=9 note=54 velocity=63 time=1\n",
      "note_off channel=9 note=54 velocity=64 time=0\n",
      "note_on channel=9 note=46 velocity=40 time=1\n",
      "note_off channel=9 note=46 velocity=64 time=0\n",
      "note_on channel=9 note=69 velocity=65 time=0\n",
      "note_off channel=9 note=69 velocity=64 time=0\n",
      "note_on channel=11 note=57 velocity=98 time=0\n",
      "note_off channel=6 note=54 velocity=64 time=6\n",
      "note_off channel=6 note=57 velocity=64 time=1\n",
      "note_off channel=11 note=57 velocity=64 time=5\n",
      "note_off channel=3 note=59 velocity=64 time=10\n",
      "note_off channel=1 note=37 velocity=64 time=0\n",
      "note_on channel=1 note=35 velocity=77 time=1\n",
      "note_on channel=3 note=57 velocity=104 time=1\n",
      "note_off channel=4 note=59 velocity=64 time=0\n",
      "note_on channel=4 note=57 velocity=52 time=0\n",
      "note_on channel=9 note=69 velocity=42 time=0\n",
      "note_off channel=9 note=69 velocity=64 time=0\n",
      "note_on channel=9 note=54 velocity=33 time=0\n",
      "note_off channel=9 note=54 velocity=64 time=0\n",
      "note_on channel=0 note=76 velocity=77 time=0\n",
      "note_on channel=0 note=64 velocity=80 time=0\n",
      "note_on channel=11 note=57 velocity=69 time=0\n",
      "note_off channel=6 note=61 velocity=64 time=4\n",
      "control_change channel=0 control=64 value=0 time=3\n",
      "note_off channel=0 note=76 velocity=64 time=1\n",
      "note_off channel=0 note=64 velocity=64 time=1\n",
      "note_off channel=11 note=57 velocity=64 time=4\n",
      "note_off channel=1 note=35 velocity=64 time=7\n",
      "note_on channel=6 note=56 velocity=63 time=2\n",
      "note_on channel=9 note=36 velocity=111 time=1\n",
      "note_off channel=9 note=36 velocity=64 time=0\n",
      "note_on channel=1 note=28 velocity=96 time=0\n",
      "note_on channel=0 note=76 velocity=85 time=0\n",
      "note_on channel=0 note=64 velocity=91 time=0\n",
      "note_on channel=6 note=52 velocity=58 time=0\n",
      "note_on channel=6 note=59 velocity=74 time=0\n",
      "note_on channel=13 note=40 velocity=79 time=0\n",
      "<meta message lyrics text='where ' time=1>\n",
      "note_off channel=3 note=57 velocity=64 time=0\n",
      "note_on channel=3 note=59 velocity=107 time=0\n",
      "note_off channel=4 note=57 velocity=64 time=0\n",
      "note_on channel=4 note=59 velocity=53 time=0\n",
      "note_on channel=9 note=42 velocity=56 time=0\n",
      "note_off channel=9 note=42 velocity=64 time=0\n",
      "note_on channel=9 note=69 velocity=37 time=0\n",
      "note_off channel=9 note=69 velocity=64 time=0\n",
      "note_on channel=0 note=59 velocity=85 time=0\n",
      "note_on channel=0 note=56 velocity=65 time=0\n",
      "note_on channel=0 note=68 velocity=73 time=0\n",
      "note_on channel=11 note=52 velocity=74 time=0\n",
      "control_change channel=13 control=1 value=0 time=0\n",
      "pitchwheel channel=13 pitch=0 time=0\n",
      "note_off channel=0 note=68 velocity=64 time=3\n",
      "note_off channel=11 note=52 velocity=64 time=9\n",
      "note_on channel=9 note=42 velocity=41 time=12\n",
      "note_off channel=9 note=42 velocity=64 time=0\n",
      "note_on channel=9 note=69 velocity=40 time=0\n",
      "note_off channel=9 note=69 velocity=64 time=0\n",
      "note_on channel=11 note=52 velocity=70 time=1\n",
      "note_off channel=11 note=52 velocity=64 time=7\n",
      "note_off channel=3 note=59 velocity=64 time=5\n",
      "note_off channel=13 note=40 velocity=64 time=2\n",
      "note_on channel=9 note=46 velocity=40 time=7\n",
      "note_off channel=9 note=46 velocity=64 time=0\n",
      "note_off channel=4 note=59 velocity=64 time=1\n",
      "note_on channel=9 note=54 velocity=65 time=0\n",
      "note_off channel=9 note=54 velocity=64 time=0\n",
      "<meta message lyrics text='they ' time=1>\n",
      "note_on channel=3 note=59 velocity=101 time=0\n",
      "note_on channel=4 note=59 velocity=50 time=0\n",
      "note_on channel=9 note=69 velocity=64 time=0\n",
      "note_off channel=9 note=69 velocity=64 time=0\n",
      "note_on channel=11 note=52 velocity=98 time=0\n",
      "note_on channel=13 note=40 velocity=75 time=0\n",
      "note_off channel=0 note=76 velocity=64 time=1\n",
      "note_off channel=6 note=52 velocity=64 time=6\n",
      "note_off channel=1 note=28 velocity=64 time=2\n",
      "note_off channel=0 note=64 velocity=64 time=1\n",
      "note_off channel=6 note=59 velocity=64 time=0\n",
      "note_off channel=13 note=40 velocity=64 time=0\n",
      "note_off channel=6 note=56 velocity=64 time=1\n",
      "note_off channel=11 note=52 velocity=64 time=0\n",
      "note_off channel=3 note=59 velocity=64 time=4\n",
      "note_off channel=4 note=59 velocity=64 time=8\n",
      "note_on channel=9 note=36 velocity=90 time=0\n",
      "note_off channel=9 note=36 velocity=64 time=0\n",
      "note_on channel=9 note=54 velocity=40 time=0\n",
      "note_off channel=9 note=54 velocity=64 time=0\n",
      "note_on channel=1 note=28 velocity=79 time=0\n",
      "note_on channel=0 note=64 velocity=80 time=0\n",
      "note_on channel=0 note=68 velocity=74 time=0\n",
      "note_on channel=0 note=76 velocity=82 time=0\n",
      "note_on channel=0 note=71 velocity=99 time=0\n",
      "note_on channel=13 note=40 velocity=74 time=0\n",
      "<meta message lyrics text='play ' time=1>\n",
      "note_on channel=3 note=59 velocity=105 time=0\n",
      "note_on channel=4 note=59 velocity=52 time=0\n",
      "note_on channel=9 note=69 velocity=39 time=0\n",
      "note_off channel=9 note=69 velocity=64 time=0\n",
      "note_on channel=6 note=56 velocity=61 time=0\n",
      "note_on channel=6 note=59 velocity=77 time=0\n",
      "note_on channel=6 note=52 velocity=56 time=0\n",
      "note_on channel=11 note=52 velocity=86 time=0\n",
      "note_off channel=6 note=52 velocity=64 time=10\n",
      "note_off channel=1 note=28 velocity=64 time=1\n",
      "note_off channel=6 note=59 velocity=64 time=0\n",
      "note_off channel=0 note=71 velocity=64 time=1\n",
      "note_off channel=11 note=52 velocity=64 time=0\n",
      "note_off channel=0 note=68 velocity=64 time=2\n",
      "note_off channel=6 note=56 velocity=64 time=4\n",
      "note_on channel=9 note=40 velocity=101 time=5\n",
      "note_off channel=9 note=40 velocity=64 time=0\n",
      "note_on channel=9 note=42 velocity=54 time=0\n",
      "note_off channel=9 note=42 velocity=64 time=0\n",
      "note_on channel=1 note=28 velocity=85 time=0\n",
      "note_on channel=9 note=69 velocity=53 time=1\n",
      "note_off channel=9 note=69 velocity=64 time=0\n",
      "note_on channel=11 note=52 velocity=79 time=0\n",
      "note_off channel=0 note=64 velocity=64 time=3\n",
      "note_off channel=0 note=76 velocity=64 time=5\n",
      "note_off channel=3 note=59 velocity=64 time=1\n",
      "note_off channel=11 note=52 velocity=64 time=0\n",
      "note_off channel=13 note=40 velocity=64 time=8\n",
      "note_on channel=13 note=40 velocity=87 time=6\n",
      "note_off channel=4 note=59 velocity=64 time=1\n",
      "note_on channel=9 note=69 velocity=40 time=0\n",
      "note_off channel=9 note=69 velocity=64 time=0\n",
      "note_on channel=11 note=52 velocity=81 time=0\n",
      "<meta message lyrics text='the ' time=1>\n",
      "note_on channel=3 note=59 velocity=103 time=0\n",
      "note_on channel=4 note=59 velocity=51 time=0\n",
      "note_off channel=1 note=28 velocity=64 time=2\n",
      "note_off channel=13 note=40 velocity=64 time=3\n",
      "note_off channel=11 note=52 velocity=64 time=3\n",
      "note_off channel=3 note=59 velocity=64 time=4\n",
      "note_on channel=1 note=32 velocity=97 time=10\n",
      "note_on channel=0 note=64 velocity=100 time=0\n",
      "note_on channel=0 note=76 velocity=100 time=0\n",
      "note_on channel=0 note=71 velocity=100 time=0\n",
      "note_on channel=0 note=68 velocity=100 time=0\n",
      "note_on channel=6 note=52 velocity=55 time=0\n",
      "note_on channel=6 note=56 velocity=63 time=0\n",
      "note_on channel=13 note=40 velocity=95 time=0\n",
      "note_off channel=4 note=59 velocity=64 time=1\n",
      "note_on channel=9 note=36 velocity=102 time=0\n",
      "note_off channel=9 note=36 velocity=64 time=0\n",
      "note_on channel=9 note=46 velocity=40 time=0\n",
      "note_off channel=9 note=46 velocity=64 time=0\n",
      "note_on channel=9 note=69 velocity=63 time=0\n",
      "note_off channel=9 note=69 velocity=64 time=0\n",
      "note_on channel=9 note=54 velocity=68 time=0\n",
      "note_off channel=9 note=54 velocity=64 time=0\n",
      "note_on channel=6 note=59 velocity=81 time=0\n",
      "note_on channel=11 note=52 velocity=114 time=0\n",
      "<meta message lyrics text='right ' time=1>\n",
      "note_on channel=3 note=59 velocity=105 time=0\n",
      "note_on channel=4 note=59 velocity=52 time=0\n",
      "note_off channel=11 note=52 velocity=64 time=9\n",
      "note_off channel=0 note=59 velocity=64 time=6\n",
      "note_on channel=9 note=69 velocity=39 time=8\n",
      "note_off channel=9 note=69 velocity=64 time=0\n",
      "note_on channel=9 note=54 velocity=41 time=0\n",
      "note_off channel=9 note=54 velocity=64 time=0\n",
      "note_on channel=11 note=52 velocity=90 time=0\n",
      "note_off channel=11 note=52 velocity=64 time=11\n",
      "note_off channel=6 note=59 velocity=64 time=3\n",
      "note_off channel=3 note=59 velocity=64 time=1\n",
      "note_off channel=6 note=56 velocity=64 time=0\n",
      "note_off channel=6 note=52 velocity=64 time=4\n",
      "note_off channel=1 note=32 velocity=64 time=4\n",
      "note_on channel=1 note=35 velocity=87 time=0\n",
      "control_change channel=0 control=64 value=127 time=0\n",
      "<meta message lyrics text='mu' time=1>\n",
      "note_on channel=3 note=61 velocity=108 time=0\n",
      "note_off channel=4 note=59 velocity=64 time=0\n",
      "note_on channel=4 note=61 velocity=54 time=0\n",
      "note_on channel=9 note=36 velocity=107 time=0\n",
      "note_off channel=9 note=36 velocity=64 time=0\n",
      "note_on channel=9 note=42 velocity=54 time=0\n",
      "note_off channel=9 note=42 velocity=64 time=0\n",
      "note_on channel=9 note=69 velocity=39 time=0\n",
      "note_off channel=9 note=69 velocity=64 time=0\n",
      "note_on channel=0 note=59 velocity=85 time=0\n",
      "note_on channel=11 note=52 velocity=81 time=0\n",
      "note_off channel=11 note=52 velocity=64 time=12\n",
      "note_on channel=9 note=69 velocity=46 time=12\n",
      "note_off channel=9 note=69 velocity=64 time=0\n",
      "note_on channel=6 note=57 velocity=74 time=0\n",
      "note_on channel=6 note=59 velocity=85 time=0\n",
      "note_on channel=6 note=52 velocity=55 time=0\n",
      "note_on channel=10 note=57 velocity=90 time=0\n",
      "note_on channel=10 note=59 velocity=95 time=0\n",
      "note_on channel=10 note=52 velocity=68 time=0\n",
      "note_on channel=11 note=52 velocity=73 time=0\n",
      "note_off channel=0 note=59 velocity=64 time=2\n",
      "note_off channel=0 note=64 velocity=64 time=3\n",
      "note_off channel=3 note=61 velocity=64 time=4\n",
      "note_off channel=11 note=52 velocity=64 time=0\n",
      "note_off channel=6 note=59 velocity=64 time=2\n",
      "note_off channel=6 note=57 velocity=64 time=2\n",
      "note_off channel=0 note=68 velocity=64 time=2\n",
      "note_off channel=0 note=71 velocity=64 time=1\n",
      "note_off channel=1 note=35 velocity=64 time=1\n",
      "note_off channel=0 note=76 velocity=64 time=2\n",
      "note_on channel=0 note=64 velocity=72 time=4\n",
      "note_off channel=4 note=61 velocity=64 time=1\n",
      "note_on channel=9 note=46 velocity=44 time=0\n",
      "note_off channel=9 note=46 velocity=64 time=0\n",
      "note_on channel=9 note=69 velocity=64 time=0\n",
      "note_off channel=9 note=69 velocity=64 time=0\n",
      "note_on channel=9 note=54 velocity=57 time=0\n",
      "note_off channel=9 note=54 velocity=64 time=0\n",
      "note_on channel=1 note=40 velocity=78 time=0\n",
      "note_on channel=6 note=57 velocity=66 time=0\n",
      "note_on channel=6 note=59 velocity=76 time=0\n",
      "note_on channel=11 note=52 velocity=117 time=0\n",
      "<meta message lyrics text='sic. ' time=1>\n",
      "<meta message lyrics text='\\r' time=0>\n",
      "note_on channel=3 note=61 velocity=108 time=0\n",
      "note_on channel=4 note=61 velocity=54 time=0\n",
      "control_change channel=0 control=64 value=0 time=7\n",
      "note_off channel=11 note=52 velocity=64 time=2\n",
      "note_off channel=6 note=59 velocity=64 time=2\n",
      "note_off channel=6 note=57 velocity=64 time=2\n",
      "note_off channel=10 note=52 velocity=64 time=1\n",
      "note_off channel=10 note=59 velocity=64 time=0\n",
      "note_off channel=10 note=57 velocity=64 time=1\n",
      "note_on channel=9 note=54 velocity=33 time=7\n",
      "note_off channel=9 note=54 velocity=64 time=0\n",
      "note_on channel=0 note=81 velocity=99 time=0\n",
      "note_on channel=9 note=69 velocity=44 time=1\n",
      "note_off channel=9 note=69 velocity=64 time=0\n",
      "note_on channel=0 note=69 velocity=81 time=0\n",
      "note_on channel=6 note=57 velocity=65 time=0\n",
      "note_on channel=6 note=59 velocity=72 time=0\n",
      "note_on channel=10 note=57 velocity=81 time=0\n",
      "note_on channel=10 note=59 velocity=86 time=0\n",
      "note_on channel=11 note=52 velocity=111 time=0\n",
      "note_on channel=10 note=52 velocity=74 time=1\n",
      "note_off channel=6 note=52 velocity=64 time=9\n",
      "note_off channel=6 note=59 velocity=64 time=1\n",
      "note_off channel=11 note=52 velocity=64 time=0\n",
      "note_off channel=6 note=57 velocity=64 time=3\n",
      "note_off channel=1 note=40 velocity=64 time=7\n",
      "note_off channel=0 note=81 velocity=64 time=0\n",
      "note_on channel=9 note=42 velocity=61 time=2\n",
      "note_off channel=9 note=42 velocity=64 time=0\n",
      "note_on channel=6 note=52 velocity=45 time=0\n",
      "note_on channel=9 note=69 velocity=46 time=1\n",
      "note_off channel=9 note=69 velocity=64 time=0\n",
      "note_on channel=1 note=42 velocity=70 time=0\n",
      "note_on channel=6 note=57 velocity=62 time=0\n",
      "note_on channel=11 note=52 velocity=83 time=0\n",
      "note_on channel=9 note=40 velocity=102 time=1\n",
      "note_off channel=9 note=40 velocity=64 time=0\n",
      "note_off channel=0 note=69 velocity=64 time=0\n",
      "note_on channel=6 note=59 velocity=69 time=0\n",
      "note_off channel=3 note=61 velocity=64 time=6\n",
      "note_off channel=10 note=57 velocity=64 time=1\n",
      "note_off channel=6 note=59 velocity=64 time=2\n",
      "note_off channel=10 note=52 velocity=64 time=1\n",
      "note_off channel=6 note=57 velocity=64 time=1\n",
      "note_off channel=11 note=52 velocity=64 time=0\n",
      "note_off channel=10 note=59 velocity=64 time=4\n",
      "note_off channel=1 note=42 velocity=64 time=4\n",
      "note_off channel=6 note=52 velocity=64 time=1\n",
      "note_off channel=4 note=61 velocity=64 time=2\n",
      "note_on channel=9 note=42 velocity=44 time=1\n",
      "note_off channel=9 note=42 velocity=64 time=0\n",
      "note_on channel=9 note=69 velocity=38 time=0\n",
      "note_off channel=9 note=69 velocity=64 time=0\n",
      "note_on channel=1 note=44 velocity=69 time=0\n",
      "note_on channel=0 note=80 velocity=93 time=0\n",
      "note_on channel=0 note=68 velocity=93 time=0\n",
      "note_on channel=0 note=59 velocity=93 time=0\n",
      "note_on channel=6 note=57 velocity=63 time=0\n",
      "note_on channel=6 note=59 velocity=69 time=0\n",
      "note_on channel=10 note=59 velocity=60 time=0\n",
      "note_on channel=10 note=56 velocity=71 time=0\n",
      "note_on channel=11 note=52 velocity=73 time=0\n",
      "note_on channel=6 note=52 velocity=55 time=1\n",
      "note_on channel=10 note=52 velocity=75 time=0\n",
      "note_off channel=0 note=64 velocity=64 time=3\n",
      "control_change channel=0 control=64 value=127 time=4\n",
      "note_off channel=6 note=59 velocity=64 time=1\n",
      "note_off channel=6 note=57 velocity=64 time=1\n",
      "note_off channel=11 note=52 velocity=64 time=1\n",
      "note_off channel=0 note=80 velocity=64 time=1\n",
      "note_off channel=0 note=68 velocity=64 time=1\n",
      "note_off channel=1 note=44 velocity=64 time=7\n",
      "note_on channel=9 note=54 velocity=56 time=3\n",
      "note_off channel=9 note=54 velocity=64 time=0\n",
      "note_on channel=1 note=47 velocity=75 time=0\n",
      "note_on channel=11 note=52 velocity=114 time=0\n",
      "note_on channel=9 note=46 velocity=46 time=1\n",
      "note_off channel=9 note=46 velocity=64 time=0\n",
      "note_on channel=9 note=69 velocity=65 time=0\n",
      "note_off channel=9 note=69 velocity=64 time=0\n",
      "note_on channel=6 note=56 velocity=64 time=0\n",
      "note_on channel=6 note=59 velocity=66 time=0\n",
      "note_off channel=11 note=52 velocity=64 time=10\n",
      "note_off channel=6 note=59 velocity=64 time=2\n",
      "note_off channel=0 note=56 velocity=64 time=3\n",
      "note_off channel=6 note=56 velocity=64 time=0\n",
      "note_off channel=0 note=59 velocity=64 time=1\n",
      "note_off channel=6 note=52 velocity=64 time=1\n",
      "note_on channel=9 note=54 velocity=46 time=6\n",
      "note_off channel=9 note=54 velocity=64 time=0\n",
      "note_on channel=9 note=69 velocity=37 time=1\n",
      "note_off channel=9 note=69 velocity=64 time=0\n",
      "note_on channel=0 note=76 velocity=81 time=0\n",
      "note_on channel=0 note=64 velocity=83 time=0\n",
      "note_on channel=11 note=52 velocity=90 time=0\n",
      "control_change channel=0 control=64 value=0 time=1\n",
      "note_off channel=13 note=40 velocity=64 time=2\n",
      "note_off channel=10 note=59 velocity=64 time=1\n",
      "note_off channel=10 note=52 velocity=64 time=1\n",
      "note_off channel=10 note=56 velocity=64 time=3\n",
      "note_off channel=0 note=76 velocity=64 time=2\n",
      "note_off channel=0 note=64 velocity=64 time=1\n",
      "note_off channel=11 note=52 velocity=64 time=0\n",
      "note_off channel=1 note=47 velocity=64 time=12\n",
      "note_on channel=11 note=52 velocity=81 time=0\n",
      "note_on channel=13 note=40 velocity=76 time=0\n",
      "<meta message lyrics text='Get' time=1>\n",
      "note_on channel=3 note=59 velocity=108 time=0\n",
      "note_on channel=4 note=59 velocity=54 time=0\n",
      "note_on channel=9 note=36 velocity=107 time=0\n",
      "note_off channel=9 note=36 velocity=64 time=0\n",
      "note_on channel=9 note=42 velocity=53 time=0\n",
      "note_off channel=9 note=42 velocity=64 time=0\n",
      "note_on channel=9 note=69 velocity=39 time=0\n",
      "note_off channel=9 note=69 velocity=64 time=0\n",
      "note_on channel=1 note=28 velocity=84 time=0\n",
      "note_on channel=0 note=76 velocity=87 time=0\n",
      "note_on channel=0 note=64 velocity=87 time=0\n",
      "note_on channel=0 note=59 velocity=87 time=0\n",
      "note_on channel=0 note=68 velocity=87 time=0\n",
      "note_on channel=0 note=56 velocity=87 time=0\n",
      "note_on channel=0 note=71 velocity=87 time=0\n",
      "note_on channel=6 note=52 velocity=65 time=0\n",
      "note_on channel=6 note=56 velocity=74 time=0\n",
      "note_on channel=6 note=59 velocity=83 time=0\n",
      "note_off channel=11 note=52 velocity=64 time=10\n",
      "note_on channel=9 note=69 velocity=39 time=14\n",
      "note_off channel=9 note=69 velocity=64 time=0\n",
      "note_on channel=11 note=52 velocity=69 time=0\n",
      "note_on channel=9 note=42 velocity=40 time=1\n",
      "note_off channel=9 note=42 velocity=64 time=0\n",
      "note_off channel=3 note=59 velocity=64 time=9\n",
      "note_off channel=11 note=52 velocity=64 time=0\n",
      "note_off channel=13 note=40 velocity=64 time=5\n",
      "note_on channel=9 note=69 velocity=67 time=8\n",
      "note_off channel=9 note=69 velocity=64 time=0\n",
      "note_on channel=9 note=54 velocity=57 time=0\n",
      "note_off channel=9 note=54 velocity=64 time=0\n",
      "note_on channel=11 note=52 velocity=114 time=0\n",
      "note_off channel=4 note=59 velocity=64 time=1\n",
      "note_on channel=9 note=46 velocity=49 time=0\n",
      "note_off channel=9 note=46 velocity=64 time=0\n",
      "note_on channel=13 note=40 velocity=71 time=0\n",
      "<meta message lyrics text='ting ' time=1>\n",
      "note_on channel=3 note=59 velocity=104 time=0\n",
      "note_on channel=4 note=59 velocity=52 time=0\n",
      "note_off channel=1 note=28 velocity=64 time=2\n",
      "note_off channel=0 note=59 velocity=64 time=1\n",
      "note_off channel=0 note=68 velocity=64 time=3\n",
      "note_off channel=11 note=52 velocity=64 time=1\n",
      "note_off channel=13 note=40 velocity=64 time=0\n",
      "note_off channel=0 note=71 velocity=64 time=1\n",
      "note_off channel=6 note=56 velocity=64 time=1\n",
      "note_off channel=6 note=59 velocity=64 time=1\n",
      "note_off channel=0 note=76 velocity=64 time=2\n",
      "note_off channel=6 note=52 velocity=64 time=1\n",
      "note_off channel=3 note=59 velocity=64 time=1\n",
      "note_off channel=0 note=64 velocity=64 time=1\n",
      "note_on channel=9 note=69 velocity=42 time=7\n",
      "note_off channel=9 note=69 velocity=64 time=0\n",
      "note_on channel=9 note=54 velocity=37 time=0\n",
      "note_off channel=9 note=54 velocity=64 time=0\n",
      "note_on channel=11 note=52 velocity=95 time=0\n",
      "note_on channel=9 note=36 velocity=88 time=1\n",
      "note_off channel=9 note=36 velocity=64 time=0\n",
      "note_on channel=1 note=28 velocity=73 time=0\n",
      "note_on channel=0 note=59 velocity=93 time=0\n",
      "note_on channel=0 note=68 velocity=82 time=0\n",
      "note_on channel=0 note=71 velocity=104 time=0\n",
      "note_on channel=0 note=64 velocity=81 time=0\n",
      "note_on channel=0 note=76 velocity=82 time=0\n",
      "note_on channel=13 note=40 velocity=85 time=0\n",
      "note_off channel=4 note=59 velocity=64 time=1\n",
      "note_on channel=6 note=56 velocity=56 time=0\n",
      "note_on channel=6 note=59 velocity=66 time=0\n",
      "note_on channel=6 note=52 velocity=66 time=0\n",
      "<meta message lyrics text='in ' time=1>\n",
      "note_on channel=3 note=59 velocity=105 time=0\n",
      "note_on channel=4 note=59 velocity=52 time=0\n",
      "note_off channel=11 note=52 velocity=64 time=8\n",
      "note_off channel=1 note=28 velocity=64 time=4\n",
      "note_off channel=6 note=59 velocity=64 time=1\n",
      "note_off channel=6 note=56 velocity=64 time=1\n",
      "note_off channel=0 note=71 velocity=64 time=1\n",
      "note_off channel=0 note=68 velocity=64 time=0\n",
      "note_off channel=0 note=76 velocity=64 time=3\n",
      "note_on channel=9 note=40 velocity=104 time=3\n",
      "note_off channel=9 note=40 velocity=64 time=0\n",
      "note_on channel=11 note=52 velocity=77 time=0\n",
      "note_on channel=9 note=42 velocity=42 time=1\n",
      "note_off channel=9 note=42 velocity=64 time=0\n",
      "note_on channel=9 note=69 velocity=49 time=0\n",
      "note_off channel=9 note=69 velocity=64 time=0\n",
      "note_on channel=1 note=28 velocity=77 time=0\n",
      "note_off channel=3 note=59 velocity=64 time=3\n",
      "note_off channel=0 note=64 velocity=64 time=0\n",
      "note_off channel=6 note=52 velocity=64 time=7\n",
      "note_off channel=11 note=52 velocity=64 time=0\n",
      "note_off channel=13 note=40 velocity=64 time=2\n",
      "note_on channel=11 note=52 velocity=73 time=11\n",
      "note_off channel=4 note=59 velocity=64 time=1\n",
      "note_on channel=9 note=69 velocity=47 time=0\n",
      "note_off channel=9 note=69 velocity=64 time=0\n",
      "note_on channel=13 note=40 velocity=86 time=0\n",
      "<meta message lyrics text='the ' time=1>\n",
      "note_on channel=3 note=59 velocity=104 time=0\n",
      "note_on channel=4 note=59 velocity=52 time=0\n",
      "note_off channel=13 note=40 velocity=64 time=7\n",
      "note_off channel=11 note=52 velocity=64 time=3\n",
      "note_off channel=1 note=28 velocity=64 time=6\n",
      "note_off channel=3 note=59 velocity=64 time=1\n",
      "note_on channel=11 note=52 velocity=114 time=4\n",
      "note_on channel=9 note=36 velocity=101 time=1\n",
      "note_off channel=9 note=36 velocity=64 time=0\n",
      "note_on channel=9 note=54 velocity=70 time=0\n",
      "note_off channel=9 note=54 velocity=64 time=0\n",
      "note_on channel=1 note=32 velocity=72 time=0\n",
      "note_on channel=9 note=46 velocity=44 time=1\n",
      "note_off channel=9 note=46 velocity=64 time=0\n",
      "note_on channel=9 note=69 velocity=69 time=0\n",
      "note_off channel=9 note=69 velocity=64 time=0\n",
      "note_on channel=0 note=76 velocity=96 time=0\n",
      "note_on channel=0 note=64 velocity=89 time=0\n",
      "note_on channel=0 note=68 velocity=78 time=0\n",
      "note_on channel=0 note=71 velocity=106 time=0\n",
      "note_on channel=6 note=52 velocity=63 time=0\n",
      "note_on channel=6 note=56 velocity=72 time=0\n",
      "note_on channel=6 note=59 velocity=72 time=0\n",
      "note_on channel=13 note=40 velocity=90 time=0\n",
      "<meta message lyrics text='swing, ' time=1>\n",
      "<meta message lyrics text='\\r' time=0>\n",
      "note_on channel=3 note=61 velocity=106 time=0\n",
      "note_off channel=4 note=59 velocity=64 time=0\n",
      "note_on channel=4 note=61 velocity=53 time=0\n",
      "note_off channel=11 note=52 velocity=64 time=7\n",
      "control_change channel=0 control=64 value=127 time=1\n",
      "note_on channel=11 note=52 velocity=95 time=13\n",
      "note_on channel=9 note=54 velocity=38 time=1\n",
      "note_off channel=9 note=54 velocity=64 time=0\n",
      "note_on channel=9 note=69 velocity=49 time=1\n",
      "note_off channel=9 note=69 velocity=64 time=0\n",
      "note_off channel=0 note=59 velocity=64 time=8\n",
      "note_off channel=11 note=52 velocity=64 time=1\n",
      "note_off channel=6 note=59 velocity=64 time=7\n",
      "note_off channel=6 note=56 velocity=64 time=2\n",
      "note_off channel=0 note=68 velocity=64 time=1\n",
      "note_off channel=6 note=52 velocity=64 time=0\n",
      "note_off channel=0 note=64 velocity=64 time=2\n",
      "note_on channel=11 note=52 velocity=87 time=1\n",
      "note_on channel=9 note=36 velocity=110 time=1\n",
      "note_off channel=9 note=36 velocity=64 time=0\n",
      "note_off channel=0 note=76 velocity=64 time=0\n",
      "note_off channel=0 note=71 velocity=64 time=0\n",
      "note_on channel=9 note=42 velocity=45 time=1\n",
      "note_off channel=9 note=42 velocity=64 time=0\n",
      "note_on channel=9 note=69 velocity=50 time=0\n",
      "note_off channel=9 note=69 velocity=64 time=0\n",
      "note_off channel=1 note=32 velocity=64 time=0\n",
      "note_on channel=1 note=35 velocity=89 time=0\n",
      "note_off channel=11 note=52 velocity=64 time=10\n",
      "note_off channel=0 note=56 velocity=64 time=9\n",
      "note_on channel=6 note=57 velocity=77 time=3\n",
      "note_on channel=0 note=76 velocity=80 time=1\n",
      "note_on channel=0 note=68 velocity=73 time=0\n",
      "note_on channel=6 note=59 velocity=77 time=0\n",
      "note_on channel=6 note=52 velocity=61 time=0\n",
      "note_on channel=10 note=57 velocity=86 time=0\n",
      "note_on channel=10 note=52 velocity=63 time=0\n",
      "note_on channel=10 note=59 velocity=86 time=0\n",
      "note_on channel=11 note=52 velocity=75 time=0\n",
      "note_on channel=9 note=69 velocity=46 time=1\n",
      "note_off channel=9 note=69 velocity=64 time=0\n",
      "note_on channel=0 note=71 velocity=85 time=0\n",
      "note_on channel=0 note=64 velocity=76 time=0\n",
      "note_off channel=3 note=61 velocity=64 time=6\n",
      "note_off channel=6 note=59 velocity=64 time=4\n",
      "note_off channel=6 note=57 velocity=64 time=0\n",
      "note_off channel=11 note=52 velocity=64 time=0\n",
      "note_off channel=1 note=35 velocity=64 time=8\n",
      "note_off channel=0 note=68 velocity=64 time=0\n",
      "note_off channel=0 note=76 velocity=64 time=4\n",
      "note_on channel=6 note=57 velocity=66 time=0\n",
      "note_on channel=11 note=52 velocity=120 time=0\n",
      "note_off channel=4 note=61 velocity=64 time=1\n",
      "note_on channel=9 note=54 velocity=65 time=0\n",
      "note_off channel=9 note=54 velocity=64 time=0\n",
      "note_off channel=0 note=71 velocity=64 time=0\n",
      "note_on channel=0 note=59 velocity=82 time=0\n",
      "note_on channel=6 note=59 velocity=69 time=0\n",
      "note_on channel=9 note=46 velocity=40 time=1\n"
     ]
    },
    {
     "name": "stdout",
     "output_type": "stream",
     "text": [
      "note_off channel=9 note=46 velocity=64 time=0\n",
      "note_on channel=9 note=69 velocity=71 time=0\n",
      "note_off channel=9 note=69 velocity=64 time=0\n",
      "note_on channel=1 note=40 velocity=75 time=0\n",
      "note_off channel=0 note=64 velocity=64 time=3\n",
      "note_off channel=10 note=52 velocity=64 time=6\n",
      "note_off channel=11 note=52 velocity=64 time=0\n",
      "note_off channel=6 note=59 velocity=64 time=1\n",
      "note_off channel=6 note=57 velocity=64 time=2\n",
      "note_off channel=0 note=59 velocity=64 time=1\n",
      "note_off channel=10 note=59 velocity=64 time=0\n",
      "note_off channel=10 note=57 velocity=64 time=1\n",
      "control_change channel=0 control=64 value=0 time=8\n",
      "note_on channel=9 note=54 velocity=44 time=1\n",
      "note_off channel=9 note=54 velocity=64 time=0\n",
      "note_on channel=6 note=57 velocity=63 time=0\n",
      "note_on channel=6 note=59 velocity=68 time=0\n",
      "note_on channel=11 note=52 velocity=86 time=0\n",
      "note_on channel=9 note=69 velocity=40 time=1\n",
      "note_off channel=9 note=69 velocity=64 time=0\n",
      "note_on channel=10 note=52 velocity=74 time=0\n",
      "note_on channel=10 note=57 velocity=79 time=0\n",
      "note_on channel=10 note=59 velocity=90 time=0\n",
      "note_on channel=0 note=59 velocity=85 time=1\n",
      "note_off channel=6 note=59 velocity=64 time=9\n",
      "note_off channel=11 note=52 velocity=64 time=0\n",
      "note_off channel=6 note=57 velocity=64 time=1\n",
      "note_off channel=6 note=52 velocity=64 time=9\n",
      "note_on channel=11 note=52 velocity=79 time=2\n",
      "note_on channel=9 note=40 velocity=104 time=1\n",
      "note_off channel=9 note=40 velocity=64 time=0\n",
      "note_on channel=9 note=42 velocity=49 time=0\n",
      "note_off channel=9 note=42 velocity=64 time=0\n",
      "note_on channel=0 note=64 velocity=110 time=0\n",
      "note_on channel=0 note=71 velocity=110 time=0\n",
      "note_on channel=0 note=68 velocity=110 time=0\n",
      "note_on channel=0 note=76 velocity=110 time=0\n",
      "note_on channel=6 note=52 velocity=52 time=0\n",
      "note_on channel=6 note=57 velocity=68 time=0\n",
      "<meta message lyrics text='you ' time=1>\n",
      "note_on channel=3 note=59 velocity=108 time=0\n",
      "note_on channel=4 note=59 velocity=54 time=0\n",
      "note_on channel=9 note=69 velocity=52 time=0\n",
      "note_off channel=9 note=69 velocity=64 time=0\n",
      "note_off channel=1 note=40 velocity=64 time=0\n",
      "note_on channel=1 note=42 velocity=73 time=0\n",
      "note_on channel=6 note=59 velocity=72 time=0\n",
      "note_off channel=10 note=57 velocity=64 time=5\n",
      "note_off channel=11 note=52 velocity=64 time=3\n",
      "note_off channel=10 note=59 velocity=64 time=1\n",
      "note_off channel=10 note=52 velocity=64 time=0\n",
      "note_off channel=0 note=59 velocity=64 time=1\n",
      "note_off channel=6 note=59 velocity=64 time=0\n",
      "note_off channel=6 note=57 velocity=64 time=2\n",
      "note_off channel=6 note=52 velocity=64 time=8\n",
      "note_on channel=11 note=52 velocity=74 time=2\n",
      "note_on channel=9 note=42 velocity=40 time=1\n",
      "note_off channel=9 note=42 velocity=64 time=0\n",
      "note_off channel=1 note=42 velocity=64 time=0\n",
      "note_on channel=1 note=44 velocity=71 time=0\n",
      "note_off channel=3 note=59 velocity=64 time=1\n",
      "note_on channel=9 note=69 velocity=43 time=0\n",
      "note_off channel=9 note=69 velocity=64 time=0\n",
      "note_on channel=6 note=57 velocity=66 time=0\n",
      "note_on channel=6 note=59 velocity=69 time=0\n",
      "note_on channel=6 note=52 velocity=56 time=0\n",
      "note_on channel=10 note=56 velocity=79 time=0\n",
      "note_on channel=10 note=59 velocity=79 time=0\n",
      "note_on channel=10 note=52 velocity=74 time=0\n",
      "<meta message lyrics text='come ' time=2>\n",
      "note_on channel=3 note=57 velocity=106 time=0\n",
      "note_off channel=4 note=59 velocity=64 time=0\n",
      "note_on channel=4 note=57 velocity=53 time=0\n",
      "note_off channel=11 note=52 velocity=64 time=7\n",
      "note_off channel=6 note=59 velocity=64 time=1\n",
      "note_off channel=6 note=57 velocity=64 time=0\n",
      "note_off channel=1 note=44 velocity=64 time=11\n",
      "note_on channel=11 note=52 velocity=117 time=1\n",
      "note_on channel=9 note=54 velocity=63 time=1\n",
      "note_off channel=9 note=54 velocity=64 time=0\n",
      "note_on channel=0 note=59 velocity=91 time=0\n",
      "note_on channel=9 note=46 velocity=47 time=1\n",
      "note_off channel=9 note=46 velocity=64 time=0\n",
      "note_on channel=9 note=69 velocity=64 time=0\n",
      "note_off channel=9 note=69 velocity=64 time=0\n",
      "note_on channel=1 note=47 velocity=78 time=0\n",
      "note_on channel=6 note=59 velocity=67 time=0\n",
      "note_on channel=6 note=56 velocity=71 time=0\n",
      "note_off channel=13 note=40 velocity=64 time=4\n",
      "note_off channel=0 note=68 velocity=64 time=4\n",
      "note_off channel=0 note=59 velocity=64 time=1\n",
      "note_off channel=6 note=59 velocity=64 time=1\n",
      "note_off channel=11 note=52 velocity=64 time=0\n",
      "note_off channel=0 note=64 velocity=64 time=1\n",
      "note_off channel=0 note=71 velocity=64 time=0\n",
      "note_off channel=6 note=52 velocity=64 time=0\n",
      "note_off channel=0 note=76 velocity=64 time=1\n",
      "note_off channel=6 note=56 velocity=64 time=2\n",
      "note_off channel=3 note=57 velocity=64 time=7\n",
      "note_on channel=0 note=59 velocity=91 time=2\n",
      "note_on channel=11 note=52 velocity=104 time=0\n",
      "<meta message lyrics text='to ' time=1>\n",
      "note_on channel=3 note=56 velocity=110 time=0\n",
      "note_off channel=4 note=57 velocity=64 time=0\n",
      "note_on channel=4 note=56 velocity=55 time=0\n",
      "note_on channel=9 note=69 velocity=43 time=0\n",
      "note_off channel=9 note=69 velocity=64 time=0\n",
      "note_on channel=9 note=54 velocity=42 time=0\n",
      "note_off channel=9 note=54 velocity=64 time=0\n",
      "note_off channel=10 note=52 velocity=64 time=4\n",
      "note_off channel=10 note=56 velocity=64 time=0\n",
      "note_off channel=10 note=59 velocity=64 time=3\n",
      "note_off channel=11 note=52 velocity=64 time=3\n",
      "note_off channel=0 note=59 velocity=64 time=5\n",
      "note_off channel=3 note=56 velocity=64 time=2\n",
      "control_change channel=0 control=64 value=127 time=2\n",
      "note_off channel=1 note=47 velocity=64 time=1\n",
      "note_on channel=0 note=64 velocity=78 time=2\n",
      "note_on channel=0 note=71 velocity=101 time=0\n",
      "note_on channel=0 note=68 velocity=85 time=0\n",
      "note_on channel=0 note=76 velocity=93 time=0\n",
      "note_on channel=9 note=42 velocity=47 time=1\n",
      "note_off channel=9 note=42 velocity=64 time=0\n",
      "note_on channel=1 note=28 velocity=78 time=0\n",
      "note_on channel=13 note=40 velocity=75 time=0\n",
      "<meta message lyrics text='look ' time=1>\n",
      "note_on channel=3 note=52 velocity=106 time=0\n",
      "note_off channel=4 note=56 velocity=64 time=0\n",
      "note_on channel=4 note=52 velocity=53 time=0\n",
      "note_on channel=9 note=36 velocity=104 time=0\n",
      "note_off channel=9 note=36 velocity=64 time=0\n",
      "note_on channel=6 note=52 velocity=57 time=0\n",
      "note_on channel=6 note=56 velocity=74 time=0\n",
      "note_on channel=6 note=59 velocity=85 time=0\n",
      "note_on channel=11 note=52 velocity=114 time=0\n",
      "note_on channel=9 note=69 velocity=47 time=1\n",
      "note_off channel=9 note=69 velocity=64 time=0\n",
      "note_on channel=9 note=42 velocity=38 time=22\n",
      "note_off channel=9 note=42 velocity=64 time=0\n",
      "note_on channel=9 note=69 velocity=45 time=2\n",
      "note_off channel=9 note=69 velocity=64 time=0\n",
      "note_off channel=0 note=64 velocity=64 time=5\n",
      "note_off channel=0 note=71 velocity=64 time=4\n",
      "note_off channel=0 note=76 velocity=64 time=0\n",
      "note_off channel=0 note=68 velocity=64 time=4\n",
      "note_on channel=0 note=59 velocity=82 time=8\n",
      "note_off channel=11 note=52 velocity=64 time=0\n",
      "note_on channel=9 note=54 velocity=70 time=1\n",
      "note_off channel=9 note=54 velocity=64 time=0\n",
      "note_on channel=9 note=46 velocity=47 time=1\n",
      "note_off channel=9 note=46 velocity=64 time=0\n",
      "note_on channel=9 note=69 velocity=66 time=0\n",
      "note_off channel=9 note=69 velocity=64 time=0\n",
      "note_off channel=6 note=56 velocity=64 time=2\n",
      "control_change channel=0 control=64 value=0 time=2\n",
      "note_off channel=0 note=59 velocity=64 time=2\n",
      "note_off channel=6 note=52 velocity=64 time=6\n",
      "note_off channel=6 note=59 velocity=64 time=7\n",
      "note_off channel=3 note=52 velocity=64 time=3\n",
      "<meta message lyrics text='for ' time=1>\n",
      "note_on channel=3 note=54 velocity=106 time=0\n",
      "note_off channel=4 note=52 velocity=64 time=0\n",
      "note_on channel=4 note=54 velocity=53 time=0\n",
      "note_off channel=1 note=28 velocity=64 time=0\n",
      "note_on channel=1 note=30 velocity=77 time=0\n",
      "note_on channel=0 note=78 velocity=91 time=0\n",
      "note_on channel=0 note=66 velocity=101 time=0\n",
      "note_off channel=13 note=40 velocity=64 time=0\n",
      "note_on channel=9 note=36 velocity=98 time=1\n",
      "note_off channel=9 note=36 velocity=64 time=0\n",
      "note_on channel=9 note=69 velocity=43 time=0\n",
      "note_off channel=9 note=69 velocity=64 time=0\n",
      "note_on channel=9 note=54 velocity=47 time=0\n",
      "note_off channel=9 note=54 velocity=64 time=0\n",
      "note_on channel=0 note=69 velocity=91 time=0\n",
      "note_on channel=0 note=73 velocity=82 time=0\n",
      "note_on channel=6 note=57 velocity=63 time=0\n",
      "note_on channel=6 note=54 velocity=69 time=0\n",
      "note_on channel=6 note=61 velocity=60 time=0\n",
      "note_on channel=11 note=54 velocity=98 time=0\n",
      "note_on channel=13 note=42 velocity=71 time=0\n",
      "note_off channel=0 note=69 velocity=64 time=12\n",
      "note_off channel=11 note=54 velocity=64 time=0\n",
      "note_off channel=0 note=78 velocity=64 time=3\n",
      "note_off channel=0 note=66 velocity=64 time=0\n",
      "note_off channel=0 note=73 velocity=64 time=2\n",
      "note_on channel=9 note=40 velocity=101 time=6\n",
      "note_off channel=9 note=40 velocity=64 time=0\n",
      "note_off channel=13 note=42 velocity=64 time=0\n",
      "note_on channel=9 note=42 velocity=54 time=1\n",
      "note_off channel=9 note=42 velocity=64 time=0\n",
      "note_on channel=9 note=69 velocity=50 time=0\n",
      "note_off channel=9 note=69 velocity=64 time=0\n",
      "note_off channel=1 note=30 velocity=64 time=0\n",
      "note_off channel=6 note=54 velocity=64 time=1\n",
      "note_off channel=6 note=61 velocity=64 time=2\n",
      "note_off channel=3 note=54 velocity=64 time=1\n",
      "note_off channel=4 note=54 velocity=64 time=0\n",
      "note_off channel=6 note=57 velocity=64 time=0\n",
      "<meta message lyrics text='a ' time=1>\n",
      "note_on channel=3 note=54 velocity=106 time=0\n",
      "note_on channel=4 note=54 velocity=53 time=0\n",
      "note_on channel=9 note=69 velocity=46 time=19\n",
      "note_off channel=9 note=69 velocity=64 time=0\n",
      "note_on channel=1 note=30 velocity=95 time=22\n",
      "note_off channel=3 note=54 velocity=64 time=1\n",
      "note_off channel=4 note=54 velocity=64 time=0\n",
      "note_on channel=9 note=36 velocity=104 time=0\n",
      "note_off channel=9 note=36 velocity=64 time=0\n",
      "note_on channel=9 note=54 velocity=65 time=0\n",
      "note_off channel=9 note=54 velocity=64 time=0\n",
      "note_on channel=6 note=54 velocity=78 time=0\n",
      "note_on channel=6 note=57 velocity=78 time=0\n",
      "note_on channel=6 note=61 velocity=85 time=0\n",
      "note_on channel=11 note=54 velocity=108 time=0\n",
      "note_on channel=13 note=42 velocity=86 time=0\n",
      "<meta message lyrics text='king. ' time=1>\n",
      "<meta message lyrics text='\\r' time=0>\n",
      "note_on channel=3 note=54 velocity=108 time=0\n",
      "note_on channel=4 note=54 velocity=54 time=0\n",
      "note_on channel=9 note=46 velocity=44 time=0\n",
      "note_off channel=9 note=46 velocity=64 time=0\n",
      "note_on channel=9 note=69 velocity=62 time=0\n",
      "note_off channel=9 note=69 velocity=64 time=0\n",
      "note_on channel=0 note=78 velocity=123 time=0\n",
      "note_on channel=0 note=66 velocity=114 time=0\n",
      "note_on channel=0 note=73 velocity=96 time=0\n",
      "note_on channel=0 note=69 velocity=114 time=0\n",
      "note_on channel=9 note=69 velocity=47 time=24\n",
      "note_off channel=9 note=69 velocity=64 time=0\n",
      "note_on channel=9 note=54 velocity=39 time=0\n",
      "note_off channel=9 note=54 velocity=64 time=0\n",
      "note_on channel=9 note=36 velocity=107 time=24\n",
      "note_off channel=9 note=36 velocity=64 time=0\n",
      "note_on channel=9 note=42 velocity=52 time=0\n",
      "note_off channel=9 note=42 velocity=64 time=0\n",
      "note_on channel=9 note=69 velocity=47 time=0\n",
      "note_off channel=9 note=69 velocity=64 time=0\n",
      "note_off channel=1 note=30 velocity=64 time=22\n",
      "note_on channel=9 note=40 velocity=94 time=2\n",
      "note_off channel=9 note=40 velocity=64 time=0\n",
      "note_on channel=9 note=69 velocity=43 time=0\n",
      "note_off channel=9 note=69 velocity=64 time=0\n",
      "control_change channel=0 control=64 value=127 time=19\n",
      "note_on channel=9 note=54 velocity=57 time=4\n",
      "note_off channel=9 note=54 velocity=64 time=0\n",
      "note_on channel=1 note=30 velocity=89 time=0\n",
      "note_on channel=9 note=69 velocity=71 time=1\n",
      "note_off channel=9 note=69 velocity=64 time=0\n",
      "note_off channel=1 note=30 velocity=64 time=11\n",
      "note_on channel=1 note=30 velocity=87 time=12\n",
      "note_on channel=9 note=69 velocity=39 time=1\n",
      "note_off channel=9 note=69 velocity=64 time=0\n",
      "note_on channel=9 note=54 velocity=42 time=0\n",
      "note_off channel=9 note=54 velocity=64 time=0\n",
      "note_off channel=11 note=54 velocity=64 time=7\n",
      "note_off channel=0 note=66 velocity=64 time=9\n",
      "note_off channel=0 note=69 velocity=64 time=5\n",
      "note_on channel=9 note=42 velocity=63 time=2\n",
      "note_off channel=9 note=42 velocity=64 time=0\n",
      "note_off channel=1 note=30 velocity=64 time=0\n",
      "note_on channel=1 note=42 velocity=75 time=0\n",
      "note_on channel=9 note=40 velocity=104 time=1\n",
      "note_off channel=9 note=40 velocity=64 time=0\n",
      "note_on channel=9 note=69 velocity=52 time=0\n",
      "note_off channel=9 note=69 velocity=64 time=0\n",
      "note_off channel=0 note=73 velocity=64 time=1\n",
      "note_off channel=0 note=78 velocity=64 time=5\n",
      "note_on channel=9 note=69 velocity=45 time=18\n",
      "note_off channel=9 note=69 velocity=64 time=0\n",
      "note_off channel=1 note=42 velocity=64 time=0\n",
      "note_on channel=1 note=37 velocity=75 time=0\n",
      "note_off channel=1 note=37 velocity=64 time=19\n",
      "note_off channel=6 note=54 velocity=64 time=1\n",
      "note_off channel=6 note=57 velocity=64 time=1\n",
      "note_on channel=9 note=54 velocity=39 time=2\n",
      "note_off channel=9 note=54 velocity=64 time=0\n",
      "note_on channel=1 note=30 velocity=100 time=0\n",
      "note_off channel=6 note=61 velocity=64 time=0\n",
      "note_on channel=9 note=46 velocity=48 time=1\n",
      "note_off channel=9 note=46 velocity=64 time=0\n",
      "note_on channel=9 note=69 velocity=67 time=0\n",
      "note_off channel=9 note=69 velocity=64 time=0\n",
      "control_change channel=0 control=64 value=0 time=3\n",
      "note_on channel=9 note=54 velocity=41 time=20\n",
      "note_off channel=9 note=54 velocity=64 time=0\n",
      "note_on channel=9 note=69 velocity=41 time=1\n",
      "note_off channel=9 note=69 velocity=64 time=0\n",
      "note_on channel=6 note=52 velocity=58 time=22\n",
      "note_on channel=9 note=36 velocity=107 time=1\n",
      "note_off channel=9 note=36 velocity=64 time=0\n",
      "note_on channel=9 note=42 velocity=52 time=0\n",
      "note_off channel=9 note=42 velocity=64 time=0\n",
      "note_off channel=1 note=30 velocity=64 time=0\n",
      "note_on channel=1 note=28 velocity=85 time=0\n",
      "note_on channel=0 note=76 velocity=101 time=0\n",
      "note_on channel=0 note=80 velocity=117 time=0\n",
      "note_on channel=0 note=83 velocity=120 time=0\n",
      "note_on channel=0 note=88 velocity=101 time=0\n",
      "note_on channel=6 note=56 velocity=66 time=0\n",
      "note_on channel=6 note=59 velocity=88 time=0\n",
      "note_on channel=9 note=69 velocity=52 time=1\n",
      "note_off channel=9 note=69 velocity=64 time=0\n",
      "note_on channel=7 note=64 velocity=85 time=0\n",
      "note_on channel=7 note=52 velocity=73 time=0\n",
      "note_off channel=3 note=54 velocity=64 time=5\n",
      "note_off channel=13 note=42 velocity=64 time=1\n",
      "control_change channel=0 control=64 value=127 time=2\n",
      "note_on channel=9 note=42 velocity=40 time=16\n",
      "note_off channel=9 note=42 velocity=64 time=0\n",
      "note_on channel=9 note=69 velocity=43 time=0\n",
      "note_off channel=9 note=69 velocity=64 time=0\n",
      "note_off channel=0 note=76 velocity=64 time=12\n",
      "note_off channel=0 note=83 velocity=64 time=1\n",
      "note_off channel=0 note=80 velocity=64 time=1\n",
      "note_off channel=0 note=88 velocity=64 time=1\n",
      "note_on channel=9 note=54 velocity=78 time=8\n",
      "note_off channel=9 note=54 velocity=64 time=0\n",
      "note_on channel=9 note=46 velocity=43 time=1\n",
      "note_off channel=9 note=46 velocity=64 time=0\n",
      "note_on channel=9 note=69 velocity=69 time=0\n",
      "note_off channel=9 note=69 velocity=64 time=0\n",
      "note_on channel=7 note=66 velocity=77 time=0\n",
      "note_on channel=7 note=54 velocity=73 time=0\n",
      "note_off channel=4 note=54 velocity=64 time=6\n",
      "<meta message lyrics text='\\n' time=4>\n",
      "control_change channel=0 control=64 value=0 time=10\n",
      "note_off channel=6 note=56 velocity=64 time=2\n",
      "note_off channel=6 note=59 velocity=64 time=1\n",
      "note_on channel=6 note=61 velocity=63 time=0\n",
      "note_on channel=6 note=57 velocity=66 time=0\n",
      "note_on channel=9 note=36 velocity=104 time=1\n",
      "note_off channel=9 note=36 velocity=64 time=0\n",
      "note_on channel=9 note=69 velocity=49 time=0\n",
      "note_off channel=9 note=69 velocity=64 time=0\n",
      "note_on channel=9 note=54 velocity=41 time=0\n",
      "note_off channel=9 note=54 velocity=64 time=0\n",
      "note_off channel=1 note=28 velocity=64 time=0\n",
      "note_on channel=1 note=30 velocity=85 time=0\n",
      "note_on channel=0 note=90 velocity=89 time=0\n",
      "note_on channel=0 note=78 velocity=110 time=0\n",
      "note_on channel=0 note=85 velocity=76 time=0\n",
      "note_on channel=0 note=81 velocity=91 time=0\n",
      "note_on channel=6 note=54 velocity=54 time=0\n",
      "note_off channel=6 note=52 velocity=64 time=4\n",
      "note_off channel=0 note=81 velocity=64 time=8\n",
      "note_off channel=6 note=54 velocity=64 time=0\n",
      "note_off channel=0 note=85 velocity=64 time=1\n",
      "note_off channel=6 note=57 velocity=64 time=0\n",
      "note_off channel=6 note=61 velocity=64 time=2\n",
      "note_off channel=0 note=78 velocity=64 time=4\n",
      "note_on channel=9 note=40 velocity=94 time=5\n",
      "note_off channel=9 note=40 velocity=64 time=0\n",
      "note_on channel=9 note=42 velocity=43 time=0\n",
      "note_off channel=9 note=42 velocity=64 time=0\n",
      "note_on channel=9 note=69 velocity=50 time=0\n",
      "note_off channel=9 note=69 velocity=64 time=0\n",
      "note_off channel=7 note=52 velocity=64 time=0\n",
      "note_off channel=7 note=64 velocity=64 time=0\n",
      "note_off channel=0 note=90 velocity=64 time=2\n",
      "note_off channel=1 note=30 velocity=64 time=2\n",
      "note_on channel=9 note=69 velocity=43 time=20\n",
      "note_off channel=9 note=69 velocity=64 time=0\n",
      "note_on channel=6 note=54 velocity=88 time=22\n",
      "note_on channel=6 note=57 velocity=66 time=0\n",
      "note_on channel=6 note=61 velocity=64 time=0\n",
      "note_on channel=9 note=54 velocity=70 time=1\n",
      "note_off channel=9 note=54 velocity=64 time=0\n",
      "note_on channel=0 note=81 velocity=118 time=0\n",
      "note_on channel=0 note=78 velocity=123 time=0\n",
      "note_on channel=0 note=90 velocity=106 time=0\n",
      "note_on channel=0 note=85 velocity=80 time=0\n",
      "note_on channel=9 note=69 velocity=63 time=1\n",
      "note_off channel=9 note=69 velocity=64 time=0\n",
      "note_on channel=1 note=30 velocity=103 time=0\n",
      "note_on channel=9 note=36 velocity=102 time=1\n",
      "note_off channel=9 note=36 velocity=64 time=0\n",
      "note_on channel=9 note=46 velocity=42 time=0\n",
      "note_off channel=9 note=46 velocity=64 time=0\n",
      "note_on channel=9 note=69 velocity=43 time=23\n",
      "note_off channel=9 note=69 velocity=64 time=0\n",
      "note_on channel=9 note=54 velocity=37 time=0\n",
      "note_off channel=9 note=54 velocity=64 time=0\n",
      "note_on channel=9 note=69 velocity=49 time=24\n",
      "note_off channel=9 note=69 velocity=64 time=0\n",
      "note_on channel=9 note=36 velocity=102 time=1\n",
      "note_off channel=9 note=36 velocity=64 time=0\n",
      "note_on channel=9 note=42 velocity=57 time=0\n",
      "note_off channel=9 note=42 velocity=64 time=0\n",
      "note_off channel=1 note=30 velocity=64 time=13\n",
      "note_on channel=1 note=28 velocity=79 time=8\n",
      "note_on channel=9 note=40 velocity=98 time=2\n",
      "note_off channel=9 note=40 velocity=64 time=0\n",
      "note_on channel=9 note=69 velocity=41 time=0\n",
      "note_off channel=9 note=69 velocity=64 time=0\n",
      "note_off channel=1 note=28 velocity=64 time=18\n",
      "note_on channel=1 note=29 velocity=95 time=4\n",
      "note_on channel=9 note=54 velocity=70 time=1\n",
      "note_off channel=9 note=54 velocity=64 time=0\n",
      "note_on channel=9 note=69 velocity=67 time=1\n",
      "note_off channel=9 note=69 velocity=64 time=0\n",
      "note_off channel=1 note=29 velocity=64 time=11\n",
      "note_on channel=1 note=29 velocity=87 time=12\n",
      "note_on channel=9 note=69 velocity=44 time=1\n",
      "note_off channel=9 note=69 velocity=64 time=0\n",
      "note_on channel=9 note=54 velocity=41 time=0\n",
      "note_off channel=9 note=54 velocity=64 time=0\n",
      "note_off channel=1 note=29 velocity=64 time=22\n",
      "note_on channel=1 note=30 velocity=95 time=0\n",
      "note_on channel=9 note=40 velocity=107 time=2\n",
      "note_off channel=9 note=40 velocity=64 time=0\n",
      "note_on channel=9 note=42 velocity=70 time=0\n",
      "note_off channel=9 note=42 velocity=64 time=0\n",
      "note_on channel=9 note=69 velocity=59 time=0\n",
      "note_off channel=9 note=69 velocity=64 time=0\n",
      "note_off channel=1 note=30 velocity=64 time=13\n",
      "note_off channel=6 note=57 velocity=64 time=5\n",
      "note_off channel=6 note=54 velocity=64 time=3\n",
      "note_on channel=1 note=30 velocity=83 time=1\n",
      "note_off channel=6 note=61 velocity=64 time=1\n",
      "note_on channel=9 note=69 velocity=47 time=1\n",
      "note_off channel=9 note=69 velocity=64 time=0\n",
      "note_off channel=1 note=30 velocity=64 time=22\n",
      "note_on channel=9 note=54 velocity=65 time=1\n",
      "note_off channel=9 note=54 velocity=64 time=0\n",
      "note_on channel=1 note=31 velocity=87 time=0\n",
      "note_on channel=9 note=46 velocity=42 time=1\n",
      "note_off channel=9 note=46 velocity=64 time=0\n",
      "note_on channel=9 note=69 velocity=68 time=0\n",
      "note_off channel=9 note=69 velocity=64 time=0\n",
      "note_off channel=0 note=78 velocity=64 time=11\n",
      "note_off channel=0 note=81 velocity=64 time=5\n",
      "note_off channel=0 note=85 velocity=64 time=3\n",
      "note_off channel=1 note=31 velocity=64 time=4\n",
      "note_on channel=1 note=32 velocity=85 time=0\n",
      "note_on channel=9 note=69 velocity=41 time=1\n",
      "note_off channel=9 note=69 velocity=64 time=0\n",
      "note_on channel=9 note=54 velocity=49 time=0\n",
      "note_off channel=9 note=54 velocity=64 time=0\n",
      "note_off channel=0 note=90 velocity=64 time=2\n",
      "note_off channel=1 note=32 velocity=64 time=21\n",
      "<meta message lyrics text='An' time=1>\n",
      "note_on channel=3 note=61 velocity=108 time=0\n",
      "note_on channel=4 note=61 velocity=54 time=0\n",
      "note_on channel=9 note=36 velocity=111 time=0\n",
      "note_off channel=9 note=36 velocity=64 time=0\n",
      "note_on channel=9 note=42 velocity=54 time=0\n",
      "note_off channel=9 note=42 velocity=64 time=0\n",
      "note_on channel=9 note=69 velocity=38 time=0\n",
      "note_off channel=9 note=69 velocity=64 time=0\n",
      "note_on channel=1 note=33 velocity=89 time=0\n",
      "note_on channel=0 note=61 velocity=93 time=0\n",
      "note_on channel=0 note=57 velocity=78 time=0\n",
      "note_on channel=0 note=64 velocity=77 time=0\n",
      "note_on channel=6 note=52 velocity=58 time=0\n",
      "note_on channel=11 note=57 velocity=83 time=0\n",
      "note_off channel=7 note=66 velocity=64 time=0\n",
      "note_off channel=7 note=54 velocity=64 time=0\n",
      "note_on channel=7 note=64 velocity=84 time=0\n",
      "note_on channel=7 note=61 velocity=73 time=0\n",
      "note_on channel=7 note=57 velocity=73 time=0\n",
      "note_off channel=11 note=57 velocity=64 time=11\n",
      "note_on channel=9 note=69 velocity=41 time=12\n",
      "note_off channel=9 note=69 velocity=64 time=0\n",
      "note_on channel=6 note=57 velocity=58 time=0\n",
      "note_on channel=11 note=57 velocity=71 time=0\n",
      "note_on channel=9 note=42 velocity=43 time=1\n",
      "note_off channel=9 note=42 velocity=64 time=0\n",
      "note_on channel=6 note=61 velocity=55 time=0\n",
      "note_off channel=6 note=52 velocity=64 time=10\n",
      "note_off channel=11 note=57 velocity=64 time=3\n",
      "note_off channel=6 note=57 velocity=64 time=2\n",
      "note_off channel=3 note=61 velocity=64 time=7\n",
      "note_on channel=6 note=57 velocity=45 time=0\n",
      "<meta message lyrics text='y' time=1>\n",
      "note_on channel=3 note=64 velocity=103 time=0\n",
      "note_off channel=4 note=61 velocity=64 time=0\n",
      "note_on channel=4 note=64 velocity=51 time=0\n",
      "note_on channel=9 note=46 velocity=47 time=0\n",
      "note_off channel=9 note=46 velocity=64 time=0\n",
      "note_on channel=9 note=69 velocity=48 time=0\n",
      "note_off channel=9 note=69 velocity=64 time=0\n",
      "note_on channel=9 note=54 velocity=44 time=0\n",
      "note_off channel=9 note=54 velocity=64 time=0\n",
      "note_on channel=11 note=61 velocity=90 time=0\n",
      "note_off channel=1 note=33 velocity=64 time=3\n",
      "note_off channel=0 note=57 velocity=64 time=6\n",
      "note_off channel=0 note=61 velocity=64 time=0\n",
      "note_off channel=11 note=61 velocity=64 time=2\n",
      "note_off channel=0 note=64 velocity=64 time=2\n",
      "note_off channel=3 note=64 velocity=64 time=6\n",
      "note_off channel=6 note=61 velocity=64 time=2\n",
      "note_off channel=6 note=57 velocity=64 time=2\n",
      "note_on channel=9 note=69 velocity=49 time=1\n",
      "note_off channel=9 note=69 velocity=64 time=0\n",
      "note_on channel=1 note=33 velocity=79 time=0\n",
      "note_on channel=0 note=57 velocity=82 time=0\n",
      "note_on channel=0 note=64 velocity=78 time=0\n",
      "note_on channel=11 note=61 velocity=60 time=0\n",
      "note_off channel=4 note=64 velocity=64 time=1\n",
      "note_on channel=9 note=36 velocity=98 time=0\n",
      "note_off channel=9 note=36 velocity=64 time=0\n",
      "note_on channel=9 note=54 velocity=28 time=0\n",
      "note_off channel=9 note=54 velocity=64 time=0\n",
      "note_on channel=0 note=61 velocity=73 time=0\n",
      "note_on channel=6 note=52 velocity=54 time=0\n",
      "<meta message lyrics text='bod' time=1>\n",
      "note_on channel=3 note=64 velocity=107 time=0\n",
      "note_on channel=4 note=64 velocity=53 time=0\n",
      "note_off channel=11 note=61 velocity=64 time=10\n",
      "note_off channel=0 note=57 velocity=64 time=1\n",
      "note_off channel=0 note=61 velocity=64 time=1\n",
      "note_off channel=1 note=33 velocity=64 time=2\n",
      "note_off channel=0 note=64 velocity=64 time=0\n",
      "note_off channel=6 note=52 velocity=64 time=1\n",
      "note_on channel=9 note=40 velocity=104 time=7\n",
      "note_off channel=9 note=40 velocity=64 time=0\n",
      "note_on channel=9 note=69 velocity=41 time=0\n",
      "note_off channel=9 note=69 velocity=64 time=0\n",
      "note_on channel=1 note=33 velocity=83 time=0\n",
      "note_on channel=6 note=57 velocity=65 time=0\n",
      "note_on channel=6 note=61 velocity=59 time=0\n",
      "note_on channel=11 note=57 velocity=65 time=0\n",
      "note_on channel=9 note=42 velocity=53 time=1\n",
      "note_off channel=9 note=42 velocity=64 time=0\n",
      "note_off channel=11 note=57 velocity=64 time=11\n",
      "note_off channel=3 note=64 velocity=64 time=9\n",
      "note_off channel=4 note=64 velocity=64 time=3\n",
      "note_on channel=9 note=69 velocity=47 time=0\n",
      "note_off channel=9 note=69 velocity=64 time=0\n",
      "note_off channel=6 note=61 velocity=64 time=0\n",
      "note_off channel=6 note=57 velocity=64 time=0\n",
      "note_on channel=6 note=52 velocity=54 time=0\n",
      "note_on channel=11 note=57 velocity=69 time=0\n",
      "<meta message lyrics text='y ' time=1>\n",
      "note_on channel=3 note=64 velocity=103 time=0\n",
      "note_on channel=4 note=64 velocity=51 time=0\n",
      "note_off channel=1 note=33 velocity=64 time=9\n",
      "note_off channel=6 note=52 velocity=64 time=1\n",
      "note_off channel=11 note=57 velocity=64 time=2\n",
      "note_off channel=3 note=64 velocity=64 time=3\n",
      "note_off channel=4 note=64 velocity=64 time=7\n",
      "<meta message lyrics text='could ' time=1>\n",
      "note_on channel=3 note=64 velocity=106 time=0\n",
      "note_on channel=4 note=64 velocity=53 time=0\n",
      "note_on channel=9 note=36 velocity=102 time=0\n",
      "note_off channel=9 note=36 velocity=64 time=0\n",
      "note_on channel=9 note=54 velocity=56 time=0\n",
      "note_off channel=9 note=54 velocity=64 time=0\n",
      "note_on channel=1 note=33 velocity=86 time=0\n",
      "note_on channel=0 note=64 velocity=76 time=0\n",
      "note_on channel=0 note=61 velocity=93 time=0\n",
      "note_on channel=0 note=57 velocity=89 time=0\n",
      "note_on channel=6 note=57 velocity=63 time=0\n",
      "note_on channel=6 note=61 velocity=57 time=0\n",
      "note_on channel=11 note=61 velocity=99 time=0\n",
      "note_on channel=9 note=46 velocity=44 time=1\n",
      "note_off channel=9 note=46 velocity=64 time=0\n",
      "note_on channel=9 note=69 velocity=62 time=0\n",
      "note_off channel=9 note=69 velocity=64 time=0\n",
      "note_off channel=6 note=61 velocity=64 time=10\n",
      "note_off channel=11 note=61 velocity=64 time=0\n",
      "note_off channel=6 note=57 velocity=64 time=3\n",
      "note_on channel=6 note=57 velocity=56 time=9\n",
      "note_on channel=6 note=61 velocity=55 time=1\n",
      "note_on channel=11 note=61 velocity=68 time=0\n",
      "note_on channel=9 note=69 velocity=48 time=1\n",
      "note_off channel=9 note=69 velocity=64 time=0\n",
      "note_on channel=9 note=54 velocity=32 time=0\n",
      "note_off channel=9 note=54 velocity=64 time=0\n",
      "note_off channel=3 note=64 velocity=64 time=3\n",
      "note_off channel=11 note=61 velocity=64 time=8\n",
      "note_off channel=1 note=33 velocity=64 time=5\n",
      "note_off channel=6 note=61 velocity=64 time=0\n",
      "note_off channel=6 note=57 velocity=64 time=2\n",
      "note_off channel=4 note=64 velocity=64 time=4\n",
      "<meta message lyrics text='be ' time=1>\n",
      "note_on channel=3 note=64 velocity=105 time=0\n",
      "note_on channel=4 note=64 velocity=52 time=0\n",
      "note_on channel=11 note=57 velocity=76 time=0\n",
      "note_on channel=9 note=36 velocity=110 time=1\n",
      "note_off channel=9 note=36 velocity=64 time=0\n",
      "note_on channel=9 note=42 velocity=55 time=0\n",
      "note_off channel=9 note=42 velocity=64 time=0\n",
      "note_on channel=9 note=69 velocity=36 time=0\n",
      "note_off channel=9 note=69 velocity=64 time=0\n",
      "note_off channel=11 note=57 velocity=64 time=11\n",
      "note_on channel=1 note=33 velocity=83 time=12\n",
      "note_on channel=6 note=57 velocity=62 time=0\n",
      "note_on channel=6 note=61 velocity=61 time=0\n",
      "note_on channel=9 note=69 velocity=48 time=1\n",
      "note_off channel=9 note=69 velocity=64 time=0\n",
      "note_on channel=11 note=57 velocity=68 time=0\n",
      "note_off channel=1 note=33 velocity=64 time=11\n",
      "note_off channel=6 note=57 velocity=64 time=0\n",
      "note_off channel=6 note=61 velocity=64 time=1\n",
      "note_off channel=11 note=57 velocity=64 time=4\n",
      "note_off channel=3 note=64 velocity=64 time=7\n",
      "note_on channel=9 note=54 velocity=53 time=0\n",
      "note_off channel=9 note=54 velocity=64 time=0\n",
      "note_on channel=1 note=33 velocity=93 time=0\n",
      "note_on channel=11 note=61 velocity=97 time=0\n",
      "<meta message lyrics text='that ' time=1>\n",
      "note_on channel=3 note=69 velocity=107 time=0\n",
      "note_off channel=4 note=64 velocity=64 time=0\n",
      "note_on channel=4 note=69 velocity=53 time=0\n",
      "note_on channel=9 note=46 velocity=41 time=0\n",
      "note_off channel=9 note=46 velocity=64 time=0\n",
      "note_on channel=9 note=69 velocity=62 time=0\n",
      "note_off channel=9 note=69 velocity=64 time=0\n",
      "note_off channel=11 note=61 velocity=64 time=10\n",
      "note_on channel=11 note=61 velocity=73 time=13\n",
      "note_on channel=9 note=69 velocity=52 time=1\n",
      "note_off channel=9 note=69 velocity=64 time=0\n",
      "note_on channel=9 note=54 velocity=47 time=0\n",
      "note_off channel=9 note=54 velocity=64 time=0\n",
      "note_on channel=6 note=52 velocity=54 time=0\n",
      "note_off channel=6 note=52 velocity=64 time=10\n",
      "note_off channel=11 note=61 velocity=64 time=1\n",
      "note_off channel=1 note=33 velocity=64 time=11\n",
      "note_on channel=9 note=42 velocity=50 time=1\n",
      "note_off channel=9 note=42 velocity=64 time=0\n",
      "note_on channel=1 note=40 velocity=77 time=0\n",
      "note_on channel=6 note=57 velocity=71 time=0\n",
      "note_on channel=6 note=61 velocity=66 time=0\n",
      "note_on channel=11 note=57 velocity=76 time=0\n",
      "note_on channel=9 note=40 velocity=101 time=1\n",
      "note_off channel=9 note=40 velocity=64 time=0\n",
      "note_on channel=9 note=69 velocity=34 time=0\n",
      "note_off channel=9 note=69 velocity=64 time=0\n",
      "note_off channel=11 note=57 velocity=64 time=11\n",
      "note_off channel=1 note=40 velocity=64 time=12\n",
      "note_on channel=1 note=42 velocity=73 time=0\n",
      "note_on channel=9 note=42 velocity=39 time=1\n",
      "note_off channel=9 note=42 velocity=64 time=0\n",
      "note_on channel=9 note=69 velocity=43 time=0\n",
      "note_off channel=9 note=69 velocity=64 time=0\n",
      "note_on channel=11 note=57 velocity=67 time=0\n",
      "note_off channel=6 note=61 velocity=64 time=12\n",
      "note_off channel=6 note=57 velocity=64 time=0\n",
      "note_off channel=11 note=57 velocity=64 time=4\n",
      "note_off channel=1 note=42 velocity=64 time=3\n",
      "note_off channel=0 note=64 velocity=64 time=3\n",
      "note_on channel=1 note=45 velocity=80 time=1\n",
      "note_off channel=0 note=61 velocity=64 time=0\n",
      "note_on channel=9 note=46 velocity=44 time=1\n",
      "note_off channel=9 note=46 velocity=64 time=0\n",
      "note_on channel=9 note=69 velocity=63 time=0\n",
      "note_off channel=9 note=69 velocity=64 time=0\n",
      "note_on channel=9 note=54 velocity=78 time=0\n",
      "note_off channel=9 note=54 velocity=64 time=0\n",
      "note_off channel=0 note=57 velocity=64 time=0\n",
      "note_on channel=6 note=57 velocity=61 time=0\n",
      "note_on channel=6 note=61 velocity=54 time=0\n",
      "note_on channel=11 note=61 velocity=108 time=0\n",
      "<meta message lyrics text='guy. ' time=1>\n",
      "<meta message lyrics text='\\r' time=0>\n",
      "note_off channel=3 note=69 velocity=64 time=0\n",
      "note_on channel=3 note=66 velocity=102 time=0\n",
      "note_off channel=4 note=69 velocity=64 time=0\n",
      "note_on channel=4 note=66 velocity=51 time=0\n",
      "note_off channel=11 note=61 velocity=64 time=9\n",
      "note_off channel=6 note=61 velocity=64 time=1\n",
      "note_off channel=6 note=57 velocity=64 time=3\n",
      "note_on channel=9 note=69 velocity=59 time=10\n",
      "note_off channel=9 note=69 velocity=64 time=0\n",
      "note_on channel=6 note=57 velocity=54 time=0\n",
      "note_on channel=6 note=61 velocity=56 time=0\n",
      "note_on channel=11 note=61 velocity=74 time=0\n",
      "note_on channel=9 note=54 velocity=31 time=1\n",
      "note_off channel=9 note=54 velocity=64 time=0\n",
      "note_off channel=11 note=61 velocity=64 time=11\n",
      "note_off channel=6 note=61 velocity=64 time=7\n",
      "note_off channel=6 note=57 velocity=64 time=0\n",
      "note_on channel=9 note=69 velocity=36 time=4\n",
      "note_off channel=9 note=69 velocity=64 time=0\n",
      "note_on channel=2 note=69 velocity=96 time=0\n",
      "note_on channel=11 note=54 velocity=100 time=0\n",
      "note_on channel=9 note=36 velocity=110 time=1\n",
      "note_off channel=9 note=36 velocity=64 time=0\n",
      "note_on channel=9 note=42 velocity=49 time=0\n",
      "note_off channel=9 note=42 velocity=64 time=0\n",
      "note_off channel=1 note=45 velocity=64 time=0\n",
      "note_on channel=1 note=33 velocity=100 time=0\n",
      "note_on channel=0 note=62 velocity=96 time=0\n",
      "note_on channel=0 note=57 velocity=89 time=0\n",
      "note_on channel=0 note=66 velocity=75 time=0\n",
      "note_on channel=6 note=54 velocity=53 time=0\n",
      "note_off channel=7 note=61 velocity=64 time=0\n",
      "note_off channel=7 note=64 velocity=64 time=0\n",
      "note_on channel=7 note=62 velocity=85 time=0\n",
      "note_on channel=7 note=66 velocity=79 time=0\n",
      "note_off channel=11 note=54 velocity=64 time=11\n",
      "note_off channel=6 note=54 velocity=64 time=9\n",
      "note_on channel=2 note=78 velocity=96 time=2\n",
      "note_off channel=2 note=69 velocity=64 time=1\n",
      "note_on channel=6 note=57 velocity=66 time=0\n",
      "note_on channel=9 note=42 velocity=43 time=1\n",
      "note_off channel=9 note=42 velocity=64 time=0\n",
      "note_on channel=9 note=69 velocity=44 time=0\n",
      "note_off channel=9 note=69 velocity=64 time=0\n",
      "note_on channel=6 note=62 velocity=63 time=0\n",
      "note_on channel=11 note=54 velocity=76 time=0\n",
      "note_off channel=6 note=62 velocity=64 time=12\n",
      "note_off channel=6 note=57 velocity=64 time=0\n",
      "note_off channel=11 note=54 velocity=64 time=1\n",
      "note_on channel=2 note=74 velocity=93 time=10\n",
      "note_on channel=9 note=46 velocity=45 time=1\n",
      "note_off channel=9 note=46 velocity=64 time=0\n",
      "note_on channel=9 note=69 velocity=71 time=0\n",
      "note_off channel=9 note=69 velocity=64 time=0\n",
      "note_on channel=9 note=54 velocity=70 time=0\n",
      "note_off channel=9 note=54 velocity=64 time=0\n",
      "note_off channel=1 note=33 velocity=64 time=0\n",
      "note_on channel=6 note=57 velocity=53 time=0\n",
      "note_on channel=6 note=62 velocity=59 time=0\n",
      "note_on channel=11 note=57 velocity=93 time=0\n",
      "note_off channel=0 note=57 velocity=64 time=4\n",
      "note_off channel=0 note=62 velocity=64 time=0\n",
      "note_off channel=2 note=78 velocity=64 time=2\n",
      "note_off channel=0 note=66 velocity=64 time=5\n",
      "note_off channel=11 note=57 velocity=64 time=2\n",
      "note_off channel=6 note=62 velocity=64 time=3\n",
      "note_off channel=6 note=57 velocity=64 time=3\n",
      "note_on channel=9 note=69 velocity=44 time=4\n",
      "note_off channel=9 note=69 velocity=64 time=0\n",
      "note_on channel=1 note=33 velocity=75 time=0\n",
      "note_on channel=2 note=69 velocity=81 time=0\n",
      "note_on channel=9 note=36 velocity=98 time=1\n",
      "note_off channel=9 note=36 velocity=64 time=0\n",
      "note_on channel=0 note=57 velocity=91 time=0\n",
      "note_on channel=0 note=66 velocity=73 time=0\n",
      "note_on channel=0 note=62 velocity=91 time=0\n",
      "note_on channel=6 note=54 velocity=53 time=0\n",
      "note_on channel=11 note=57 velocity=63 time=0\n",
      "note_on channel=9 note=54 velocity=33 time=1\n",
      "note_off channel=9 note=54 velocity=64 time=0\n",
      "note_off channel=2 note=74 velocity=64 time=0\n",
      "note_off channel=0 note=66 velocity=64 time=7\n",
      "note_off channel=1 note=33 velocity=64 time=1\n",
      "note_off channel=0 note=57 velocity=64 time=1\n",
      "note_off channel=0 note=62 velocity=64 time=1\n",
      "note_off channel=6 note=54 velocity=64 time=2\n",
      "note_off channel=11 note=57 velocity=64 time=0\n",
      "note_on channel=1 note=33 velocity=97 time=10\n",
      "note_on channel=2 note=78 velocity=103 time=0\n",
      "note_on channel=6 note=57 velocity=67 time=0\n",
      "note_on channel=6 note=62 velocity=76 time=0\n",
      "note_on channel=11 note=54 velocity=93 time=0\n",
      "note_on channel=9 note=40 velocity=110 time=1\n",
      "note_off channel=9 note=40 velocity=64 time=0\n",
      "note_on channel=9 note=42 velocity=40 time=0\n",
      "note_off channel=9 note=42 velocity=64 time=0\n",
      "note_on channel=9 note=69 velocity=40 time=0\n",
      "note_off channel=9 note=69 velocity=64 time=0\n",
      "note_off channel=2 note=69 velocity=64 time=5\n",
      "note_off channel=11 note=54 velocity=64 time=6\n",
      "note_off channel=6 note=62 velocity=64 time=3\n",
      "note_off channel=6 note=57 velocity=64 time=3\n",
      "note_on channel=6 note=54 velocity=56 time=5\n",
      "note_on channel=9 note=69 velocity=42 time=2\n",
      "note_off channel=9 note=69 velocity=64 time=0\n",
      "note_on channel=2 note=74 velocity=93 time=0\n",
      "note_on channel=11 note=54 velocity=66 time=0\n",
      "note_off channel=2 note=78 velocity=64 time=4\n",
      "note_off channel=1 note=33 velocity=64 time=5\n",
      "note_off channel=6 note=54 velocity=64 time=1\n",
      "note_off channel=11 note=54 velocity=64 time=6\n",
      "note_off channel=2 note=74 velocity=64 time=4\n",
      "note_on channel=0 note=57 velocity=87 time=3\n",
      "note_on channel=0 note=62 velocity=101 time=0\n",
      "note_on channel=0 note=66 velocity=80 time=0\n",
      "note_on channel=2 note=81 velocity=88 time=0\n",
      "note_on channel=9 note=36 velocity=101 time=1\n",
      "note_off channel=9 note=36 velocity=64 time=0\n",
      "note_on channel=9 note=46 velocity=44 time=0\n",
      "note_off channel=9 note=46 velocity=64 time=0\n",
      "note_on channel=9 note=69 velocity=66 time=0\n",
      "note_off channel=9 note=69 velocity=64 time=0\n",
      "note_on channel=9 note=54 velocity=70 time=0\n",
      "note_off channel=9 note=54 velocity=64 time=0\n",
      "note_on channel=1 note=33 velocity=95 time=0\n",
      "note_on channel=6 note=57 velocity=66 time=0\n",
      "note_on channel=6 note=62 velocity=67 time=0\n",
      "note_on channel=11 note=57 velocity=95 time=0\n",
      "note_off channel=11 note=57 velocity=64 time=14\n",
      "note_off channel=6 note=62 velocity=64 time=1\n",
      "note_off channel=6 note=57 velocity=64 time=1\n",
      "note_on channel=6 note=62 velocity=58 time=7\n",
      "note_on channel=6 note=57 velocity=54 time=0\n",
      "note_on channel=9 note=69 velocity=45 time=1\n",
      "note_off channel=9 note=69 velocity=64 time=0\n",
      "note_on channel=9 note=54 velocity=45 time=0\n",
      "note_off channel=9 note=54 velocity=64 time=0\n",
      "note_on channel=2 note=78 velocity=93 time=0\n",
      "note_on channel=11 note=57 velocity=62 time=0\n",
      "note_off channel=2 note=81 velocity=64 time=5\n",
      "note_off channel=11 note=57 velocity=64 time=9\n",
      "note_off channel=6 note=57 velocity=64 time=5\n",
      "note_off channel=6 note=62 velocity=64 time=0\n",
      "note_on channel=2 note=74 velocity=86 time=4\n",
      "note_on channel=11 note=54 velocity=90 time=0\n",
      "note_on channel=9 note=36 velocity=110 time=1\n",
      "note_off channel=9 note=36 velocity=64 time=0\n",
      "note_on channel=9 note=69 velocity=36 time=0\n",
      "note_off channel=9 note=69 velocity=64 time=0\n",
      "note_off channel=2 note=78 velocity=64 time=0\n",
      "note_on channel=9 note=42 velocity=54 time=1\n",
      "note_off channel=9 note=42 velocity=64 time=0\n",
      "note_off channel=11 note=54 velocity=64 time=10\n",
      "note_off channel=3 note=66 velocity=64 time=1\n",
      "note_off channel=1 note=33 velocity=64 time=5\n",
      "note_on channel=9 note=69 velocity=41 time=7\n",
      "note_off channel=9 note=69 velocity=64 time=0\n",
      "note_on channel=1 note=28 velocity=76 time=0\n",
      "note_on channel=2 note=81 velocity=94 time=0\n",
      "note_on channel=6 note=57 velocity=65 time=0\n",
      "note_on channel=6 note=62 velocity=68 time=0\n",
      "note_on channel=11 note=54 velocity=64 time=0\n",
      "note_off channel=2 note=74 velocity=64 time=4\n",
      "note_off channel=11 note=54 velocity=64 time=9\n",
      "note_off channel=6 note=62 velocity=64 time=1\n",
      "note_off channel=6 note=57 velocity=64 time=1\n",
      "note_off channel=1 note=28 velocity=64 time=7\n",
      "note_on channel=9 note=46 velocity=43 time=1\n",
      "note_off channel=9 note=46 velocity=64 time=0\n",
      "note_on channel=9 note=54 velocity=68 time=0\n",
      "note_off channel=9 note=54 velocity=64 time=0\n",
      "note_on channel=1 note=29 velocity=96 time=0\n",
      "note_on channel=9 note=69 velocity=71 time=1\n",
      "note_off channel=9 note=69 velocity=64 time=0\n",
      "note_on channel=2 note=78 velocity=84 time=0\n",
      "note_on channel=11 note=57 velocity=98 time=0\n",
      "note_off channel=4 note=66 velocity=64 time=5\n",
      "note_off channel=2 note=81 velocity=64 time=0\n",
      "note_off channel=11 note=57 velocity=64 time=7\n",
      "note_on channel=9 note=69 velocity=52 time=11\n",
      "note_off channel=9 note=69 velocity=64 time=0\n",
      "note_on channel=2 note=74 velocity=85 time=0\n",
      "note_on channel=9 note=54 velocity=40 time=1\n",
      "note_off channel=9 note=54 velocity=64 time=0\n",
      "note_off channel=2 note=78 velocity=64 time=0\n",
      "note_on channel=6 note=54 velocity=52 time=0\n",
      "note_on channel=11 note=57 velocity=67 time=0\n",
      "note_off channel=11 note=57 velocity=64 time=14\n",
      "note_off channel=6 note=54 velocity=64 time=2\n",
      "note_off channel=1 note=29 velocity=64 time=3\n",
      "note_on channel=1 note=30 velocity=96 time=4\n",
      "note_off channel=2 note=74 velocity=64 time=0\n",
      "note_on channel=6 note=57 velocity=71 time=0\n",
      "note_on channel=11 note=54 velocity=98 time=0\n",
      "note_on channel=9 note=40 velocity=98 time=1\n",
      "note_off channel=9 note=40 velocity=64 time=0\n",
      "note_on channel=9 note=42 velocity=49 time=0\n",
      "note_off channel=9 note=42 velocity=64 time=0\n",
      "note_on channel=2 note=81 velocity=92 time=0\n",
      "note_on channel=6 note=62 velocity=81 time=0\n",
      "note_off channel=11 note=54 velocity=64 time=10\n",
      "note_on channel=9 note=69 velocity=44 time=13\n",
      "note_off channel=9 note=69 velocity=64 time=0\n",
      "note_on channel=2 note=80 velocity=79 time=1\n",
      "note_on channel=11 note=54 velocity=73 time=0\n",
      "note_off channel=2 note=81 velocity=64 time=2\n",
      "note_off channel=6 note=62 velocity=64 time=10\n",
      "note_off channel=6 note=57 velocity=64 time=0\n",
      "note_off channel=11 note=54 velocity=64 time=4\n",
      "note_off channel=0 note=62 velocity=64 time=1\n",
      "note_on channel=9 note=69 velocity=69 time=6\n",
      "note_off channel=9 note=69 velocity=64 time=0\n",
      "note_on channel=9 note=54 velocity=68 time=0\n",
      "note_off channel=9 note=54 velocity=64 time=0\n",
      "note_off channel=1 note=30 velocity=64 time=0\n",
      "note_on channel=1 note=33 velocity=79 time=0\n",
      "note_on channel=11 note=57 velocity=90 time=0\n",
      "note_on channel=9 note=46 velocity=40 time=1\n",
      "note_off channel=9 note=46 velocity=64 time=0\n",
      "note_off channel=2 note=80 velocity=64 time=0\n",
      "note_on channel=2 note=76 velocity=90 time=0\n",
      "note_on channel=6 note=62 velocity=63 time=0\n",
      "note_on channel=6 note=57 velocity=60 time=0\n",
      "note_off channel=0 note=57 velocity=64 time=3\n",
      "note_off channel=0 note=66 velocity=64 time=6\n",
      "note_off channel=11 note=57 velocity=64 time=2\n",
      "note_off channel=6 note=57 velocity=64 time=3\n",
      "note_off channel=6 note=62 velocity=64 time=0\n",
      "note_on channel=9 note=69 velocity=49 time=9\n",
      "note_off channel=9 note=69 velocity=64 time=0\n",
      "note_off channel=1 note=33 velocity=64 time=0\n",
      "note_on channel=1 note=30 velocity=70 time=0\n",
      "note_on channel=11 note=57 velocity=67 time=0\n",
      "note_on channel=9 note=54 velocity=33 time=1\n",
      "note_off channel=9 note=54 velocity=64 time=0\n",
      "note_on channel=6 note=62 velocity=60 time=0\n",
      "note_on channel=6 note=57 velocity=54 time=0\n",
      "note_off channel=11 note=57 velocity=64 time=11\n",
      "note_off channel=6 note=57 velocity=64 time=5\n",
      "note_off channel=6 note=62 velocity=64 time=0\n",
      "<meta message lyrics text='Night ' time=7>\n",
      "note_on channel=3 note=61 velocity=108 time=0\n",
      "note_on channel=4 note=61 velocity=54 time=0\n",
      "note_off channel=1 note=30 velocity=64 time=0\n",
      "note_on channel=1 note=33 velocity=89 time=0\n",
      "note_on channel=0 note=57 velocity=72 time=0\n",
      "note_on channel=0 note=64 velocity=91 time=0\n",
      "note_on channel=9 note=36 velocity=107 time=1\n",
      "note_off channel=9 note=36 velocity=64 time=0\n",
      "note_on channel=9 note=42 velocity=70 time=0\n",
      "note_off channel=9 note=42 velocity=64 time=0\n",
      "note_on channel=9 note=69 velocity=35 time=0\n",
      "note_off channel=9 note=69 velocity=64 time=0\n",
      "note_on channel=0 note=61 velocity=80 time=0\n",
      "note_on channel=2 note=73 velocity=91 time=0\n",
      "note_on channel=6 note=52 velocity=57 time=0\n",
      "note_on channel=11 note=57 velocity=70 time=0\n",
      "note_off channel=7 note=66 velocity=64 time=0\n",
      "note_off channel=7 note=62 velocity=64 time=0\n",
      "note_on channel=7 note=61 velocity=69 time=0\n",
      "note_on channel=7 note=64 velocity=91 time=0\n",
      "note_off channel=2 note=76 velocity=64 time=3\n",
      "note_off channel=11 note=57 velocity=64 time=10\n",
      "note_off channel=6 note=52 velocity=64 time=5\n",
      "note_on channel=9 note=42 velocity=41 time=6\n",
      "note_off channel=9 note=42 velocity=64 time=0\n",
      "note_on channel=9 note=69 velocity=43 time=0\n",
      "note_off channel=9 note=69 velocity=64 time=0\n",
      "note_on channel=6 note=61 velocity=66 time=0\n",
      "note_on channel=6 note=57 velocity=60 time=0\n",
      "note_on channel=11 note=57 velocity=72 time=0\n",
      "note_off channel=6 note=57 velocity=64 time=14\n",
      "note_off channel=6 note=61 velocity=64 time=0\n",
      "note_off channel=11 note=57 velocity=64 time=1\n",
      "<meta message lyrics text='is ' time=8>\n",
      "note_off channel=3 note=61 velocity=64 time=0\n",
      "note_on channel=3 note=64 velocity=104 time=0\n",
      "note_off channel=4 note=61 velocity=64 time=0\n",
      "note_on channel=4 note=64 velocity=52 time=0\n",
      "note_on channel=9 note=46 velocity=46 time=0\n",
      "note_off channel=9 note=46 velocity=64 time=0\n",
      "note_on channel=9 note=54 velocity=68 time=0\n",
      "note_off channel=9 note=54 velocity=64 time=0\n",
      "note_on channel=9 note=69 velocity=74 time=1\n",
      "note_off channel=9 note=69 velocity=64 time=0\n",
      "note_on channel=6 note=57 velocity=67 time=0\n",
      "note_on channel=6 note=61 velocity=54 time=0\n",
      "note_on channel=11 note=61 velocity=98 time=0\n",
      "note_off channel=1 note=33 velocity=64 time=2\n",
      "note_off channel=0 note=57 velocity=64 time=2\n",
      "note_off channel=0 note=61 velocity=64 time=4\n",
      "note_off channel=0 note=64 velocity=64 time=0\n",
      "note_off channel=11 note=61 velocity=64 time=4\n",
      "note_off channel=3 note=64 velocity=64 time=6\n",
      "note_off channel=6 note=57 velocity=64 time=0\n",
      "note_off channel=6 note=61 velocity=64 time=1\n",
      "note_off channel=4 note=64 velocity=64 time=4\n",
      "<meta message lyrics text='young ' time=1>\n",
      "note_on channel=3 note=64 velocity=104 time=0\n",
      "note_on channel=4 note=64 velocity=52 time=0\n",
      "note_on channel=9 note=36 velocity=104 time=0\n",
      "note_off channel=9 note=36 velocity=64 time=0\n",
      "note_on channel=9 note=69 velocity=39 time=0\n",
      "note_off channel=9 note=69 velocity=64 time=0\n",
      "note_on channel=9 note=54 velocity=34 time=0\n",
      "note_off channel=9 note=54 velocity=64 time=0\n",
      "note_on channel=1 note=33 velocity=87 time=0\n",
      "note_on channel=0 note=57 velocity=83 time=0\n",
      "note_on channel=0 note=64 velocity=85 time=0\n",
      "note_on channel=0 note=61 velocity=73 time=0\n",
      "note_on channel=6 note=52 velocity=54 time=0\n",
      "note_on channel=11 note=61 velocity=64 time=0\n",
      "note_off channel=2 note=73 velocity=64 time=8\n",
      "note_off channel=6 note=52 velocity=64 time=2\n",
      "note_off channel=11 note=61 velocity=64 time=2\n",
      "note_off channel=1 note=33 velocity=64 time=3\n",
      "note_off channel=0 note=64 velocity=64 time=0\n",
      "note_off channel=0 note=61 velocity=64 time=1\n",
      "note_off channel=0 note=57 velocity=64 time=0\n",
      "note_on channel=9 note=40 velocity=90 time=7\n",
      "note_off channel=9 note=40 velocity=64 time=0\n",
      "note_on channel=6 note=61 velocity=67 time=0\n",
      "note_on channel=6 note=57 velocity=71 time=0\n",
      "note_on channel=11 note=57 velocity=74 time=0\n",
      "note_on channel=9 note=42 velocity=54 time=1\n",
      "note_off channel=9 note=42 velocity=64 time=0\n",
      "note_on channel=1 note=33 velocity=91 time=0\n",
      "note_on channel=9 note=69 velocity=42 time=1\n",
      "note_off channel=9 note=69 velocity=64 time=0\n",
      "note_off channel=3 note=64 velocity=64 time=1\n",
      "note_off channel=11 note=57 velocity=64 time=9\n",
      "note_off channel=6 note=57 velocity=64 time=5\n",
      "note_off channel=6 note=61 velocity=64 time=3\n",
      "note_off channel=4 note=64 velocity=64 time=3\n",
      "<meta message lyrics text='and ' time=1>\n",
      "note_on channel=3 note=64 velocity=106 time=0\n",
      "note_on channel=4 note=64 velocity=53 time=0\n",
      "note_on channel=6 note=52 velocity=47 time=0\n",
      "note_on channel=11 note=57 velocity=73 time=1\n",
      "note_on channel=9 note=69 velocity=36 time=1\n",
      "note_off channel=9 note=69 velocity=64 time=0\n",
      "note_off channel=1 note=33 velocity=64 time=1\n",
      "note_off channel=6 note=52 velocity=64 time=5\n",
      "note_off channel=11 note=57 velocity=64 time=11\n",
      "note_on channel=9 note=36 velocity=102 time=5\n",
      "note_off channel=9 note=36 velocity=64 time=0\n",
      "note_on channel=9 note=46 velocity=40 time=0\n",
      "note_off channel=9 note=46 velocity=64 time=0\n",
      "note_on channel=9 note=54 velocity=78 time=0\n",
      "note_off channel=9 note=54 velocity=64 time=0\n",
      "note_on channel=1 note=33 velocity=84 time=0\n",
      "note_on channel=0 note=57 velocity=83 time=0\n",
      "note_on channel=0 note=64 velocity=91 time=0\n",
      "note_on channel=0 note=61 velocity=81 time=0\n",
      "note_on channel=6 note=57 velocity=66 time=0\n",
      "note_on channel=6 note=61 velocity=60 time=0\n",
      "note_on channel=11 note=61 velocity=97 time=0\n",
      "note_on channel=9 note=69 velocity=74 time=2\n",
      "note_off channel=9 note=69 velocity=64 time=0\n",
      "note_off channel=11 note=61 velocity=64 time=10\n",
      "note_off channel=6 note=61 velocity=64 time=1\n",
      "note_off channel=6 note=57 velocity=64 time=0\n",
      "note_off channel=3 note=64 velocity=64 time=4\n",
      "note_on channel=6 note=61 velocity=56 time=7\n",
      "note_on channel=6 note=57 velocity=63 time=0\n",
      "note_on channel=11 note=61 velocity=64 time=0\n",
      "<meta message lyrics text='the ' time=1>\n",
      "note_on channel=3 note=61 velocity=103 time=0\n",
      "note_off channel=4 note=64 velocity=64 time=0\n",
      "note_on channel=4 note=61 velocity=51 time=0\n",
      "note_on channel=9 note=69 velocity=42 time=0\n",
      "note_off channel=9 note=69 velocity=64 time=0\n",
      "note_on channel=9 note=54 velocity=29 time=0\n",
      "note_off channel=9 note=54 velocity=64 time=0\n",
      "note_off channel=11 note=61 velocity=64 time=11\n",
      "note_off channel=6 note=57 velocity=64 time=5\n",
      "note_off channel=6 note=61 velocity=64 time=4\n",
      "note_off channel=1 note=33 velocity=64 time=1\n",
      "note_on channel=9 note=42 velocity=57 time=2\n",
      "note_off channel=9 note=42 velocity=64 time=0\n",
      "note_on channel=11 note=57 velocity=83 time=0\n",
      "<meta message lyrics text='mu' time=1>\n",
      "note_off channel=3 note=61 velocity=64 time=0\n",
      "note_on channel=3 note=64 velocity=106 time=0\n",
      "note_off channel=4 note=61 velocity=64 time=0\n",
      "note_on channel=4 note=64 velocity=53 time=0\n",
      "note_on channel=9 note=36 velocity=111 time=0\n",
      "note_off channel=9 note=36 velocity=64 time=0\n",
      "note_on channel=9 note=69 velocity=44 time=0\n",
      "note_off channel=9 note=69 velocity=64 time=0\n",
      "note_on channel=6 note=52 velocity=52 time=0\n",
      "note_off channel=6 note=52 velocity=64 time=8\n",
      "note_off channel=11 note=57 velocity=64 time=3\n",
      "note_on channel=1 note=33 velocity=95 time=12\n",
      "note_on channel=6 note=57 velocity=65 time=0\n",
      "note_on channel=6 note=61 velocity=59 time=0\n",
      "note_on channel=9 note=69 velocity=41 time=1\n",
      "note_off channel=9 note=69 velocity=64 time=0\n",
      "note_on channel=11 note=57 velocity=71 time=0\n",
      "note_off channel=3 note=64 velocity=64 time=4\n",
      "note_off channel=6 note=57 velocity=64 time=7\n",
      "note_off channel=6 note=61 velocity=64 time=2\n",
      "note_off channel=1 note=33 velocity=64 time=1\n",
      "note_off channel=11 note=57 velocity=64 time=2\n",
      "note_on channel=1 note=33 velocity=95 time=6\n",
      "note_off channel=4 note=64 velocity=64 time=1\n",
      "note_on channel=9 note=54 velocity=63 time=0\n",
      "note_off channel=9 note=54 velocity=64 time=0\n",
      "<meta message lyrics text=\"sic's \" time=1>\n",
      "note_on channel=3 note=64 velocity=108 time=0\n",
      "note_on channel=4 note=64 velocity=54 time=0\n",
      "note_on channel=9 note=46 velocity=38 time=0\n",
      "note_off channel=9 note=46 velocity=64 time=0\n",
      "note_on channel=9 note=69 velocity=66 time=0\n",
      "note_off channel=9 note=69 velocity=64 time=0\n",
      "note_on channel=11 note=61 velocity=111 time=0\n",
      "note_off channel=11 note=61 velocity=64 time=12\n",
      "note_on channel=9 note=69 velocity=39 time=11\n",
      "note_off channel=9 note=69 velocity=64 time=0\n",
      "note_on channel=6 note=52 velocity=54 time=0\n",
      "note_on channel=9 note=54 velocity=35 time=1\n",
      "note_off channel=9 note=54 velocity=64 time=0\n",
      "note_on channel=11 note=61 velocity=70 time=0\n",
      "note_off channel=6 note=52 velocity=64 time=7\n",
      "note_off channel=11 note=61 velocity=64 time=6\n",
      "note_off channel=1 note=33 velocity=64 time=2\n",
      "note_on channel=1 note=40 velocity=75 time=7\n",
      "note_on channel=9 note=42 velocity=52 time=1\n",
      "note_off channel=9 note=42 velocity=64 time=0\n",
      "note_on channel=6 note=57 velocity=74 time=0\n",
      "note_on channel=6 note=61 velocity=81 time=0\n",
      "note_on channel=9 note=40 velocity=107 time=1\n",
      "note_off channel=9 note=40 velocity=64 time=0\n",
      "note_on channel=9 note=69 velocity=46 time=0\n",
      "note_off channel=9 note=69 velocity=64 time=0\n",
      "note_on channel=11 note=57 velocity=87 time=0\n",
      "note_off channel=11 note=57 velocity=64 time=12\n",
      "note_off channel=3 note=64 velocity=64 time=4\n",
      "note_off channel=1 note=40 velocity=64 time=6\n",
      "note_on channel=9 note=42 velocity=45 time=1\n",
      "note_off channel=9 note=42 velocity=64 time=0\n",
      "note_on channel=1 note=42 velocity=71 time=0\n",
      "note_on channel=9 note=69 velocity=42 time=1\n",
      "note_off channel=9 note=69 velocity=64 time=0\n",
      "note_on channel=11 note=57 velocity=68 time=0\n",
      "note_off channel=0 note=61 velocity=64 time=15\n",
      "note_off channel=0 note=57 velocity=64 time=2\n",
      "note_off channel=11 note=57 velocity=64 time=2\n",
      "note_off channel=1 note=42 velocity=64 time=3\n",
      "note_on channel=9 note=54 velocity=63 time=1\n",
      "note_off channel=9 note=54 velocity=64 time=0\n",
      "note_on channel=1 note=45 velocity=80 time=0\n",
      "note_off channel=0 note=64 velocity=64 time=0\n",
      "note_on channel=6 note=52 velocity=57 time=0\n",
      "note_on channel=11 note=61 velocity=108 time=0\n",
      "note_on channel=9 note=46 velocity=48 time=1\n",
      "note_off channel=9 note=46 velocity=64 time=0\n",
      "note_on channel=9 note=69 velocity=65 time=0\n",
      "note_off channel=9 note=69 velocity=64 time=0\n",
      "note_off channel=7 note=61 velocity=64 time=0\n",
      "note_off channel=7 note=57 velocity=64 time=0\n",
      "note_off channel=6 note=52 velocity=64 time=7\n",
      "note_off channel=11 note=61 velocity=64 time=2\n",
      "note_on channel=9 note=69 velocity=38 time=14\n",
      "note_off channel=9 note=69 velocity=64 time=0\n",
      "note_on channel=11 note=61 velocity=73 time=0\n",
      "note_on channel=9 note=54 velocity=37 time=1\n",
      "note_off channel=9 note=54 velocity=64 time=0\n",
      "note_off channel=11 note=61 velocity=64 time=11\n",
      "note_off channel=6 note=61 velocity=64 time=6\n",
      "note_off channel=1 note=45 velocity=64 time=2\n",
      "note_off channel=6 note=57 velocity=64 time=1\n",
      "note_on channel=9 note=42 velocity=65 time=3\n",
      "note_off channel=9 note=42 velocity=64 time=0\n",
      "note_on channel=9 note=69 velocity=45 time=0\n",
      "note_off channel=9 note=69 velocity=64 time=0\n",
      "note_on channel=0 note=57 velocity=89 time=0\n",
      "note_on channel=0 note=61 velocity=81 time=0\n",
      "note_on channel=0 note=66 velocity=79 time=0\n",
      "note_on channel=6 note=54 velocity=60 time=0\n",
      "note_on channel=11 note=54 velocity=111 time=0\n",
      "<meta message lyrics text='high. ' time=1>\n",
      "<meta message lyrics text='\\r' time=0>\n",
      "note_on channel=3 note=61 velocity=107 time=0\n",
      "note_off channel=4 note=64 velocity=64 time=0\n",
      "note_on channel=4 note=66 velocity=78 time=0\n",
      "note_on channel=4 note=61 velocity=53 time=0\n",
      "note_on channel=9 note=36 velocity=110 time=0\n",
      "note_off channel=9 note=36 velocity=64 time=0\n",
      "note_on channel=1 note=42 velocity=72 time=0\n",
      "note_off channel=7 note=64 velocity=64 time=0\n",
      "note_on channel=7 note=61 velocity=69 time=0\n",
      "note_on channel=7 note=57 velocity=72 time=0\n",
      "note_on channel=7 note=54 velocity=71 time=0\n",
      "note_off channel=6 note=54 velocity=64 time=9\n",
      "note_off channel=11 note=54 velocity=64 time=2\n",
      "note_on channel=9 note=42 velocity=41 time=12\n",
      "note_off channel=9 note=42 velocity=64 time=0\n",
      "note_on channel=11 note=54 velocity=64 time=0\n",
      "note_on channel=9 note=69 velocity=40 time=1\n",
      "note_off channel=9 note=69 velocity=64 time=0\n",
      "note_on channel=6 note=57 velocity=67 time=0\n",
      "note_on channel=6 note=54 velocity=48 time=0\n",
      "note_on channel=6 note=61 velocity=58 time=0\n",
      "note_off channel=6 note=61 velocity=64 time=11\n",
      "note_off channel=6 note=54 velocity=64 time=1\n",
      "note_off channel=6 note=57 velocity=64 time=4\n",
      "note_off channel=11 note=54 velocity=64 time=3\n",
      "note_on channel=9 note=54 velocity=68 time=4\n",
      "note_off channel=9 note=54 velocity=64 time=0\n",
      "note_on channel=11 note=57 velocity=77 time=0\n",
      "note_on channel=11 note=55 velocity=75 time=0\n",
      "note_on channel=9 note=46 velocity=44 time=1\n",
      "note_off channel=9 note=46 velocity=64 time=0\n",
      "note_on channel=9 note=69 velocity=67 time=0\n",
      "note_off channel=9 note=69 velocity=64 time=0\n",
      "note_on channel=6 note=57 velocity=62 time=0\n",
      "note_on channel=6 note=54 velocity=45 time=0\n",
      "note_on channel=6 note=61 velocity=59 time=0\n",
      "note_off channel=0 note=57 velocity=64 time=5\n",
      "note_off channel=0 note=61 velocity=64 time=3\n",
      "note_off channel=11 note=55 velocity=64 time=0\n",
      "note_off channel=11 note=57 velocity=64 time=2\n",
      "note_off channel=0 note=66 velocity=64 time=1\n",
      "note_off channel=6 note=57 velocity=64 time=6\n",
      "note_off channel=6 note=61 velocity=64 time=1\n",
      "note_off channel=6 note=54 velocity=64 time=1\n",
      "note_on channel=11 note=57 velocity=74 time=4\n",
      "note_on channel=9 note=36 velocity=98 time=1\n",
      "note_off channel=9 note=36 velocity=64 time=0\n",
      "note_on channel=9 note=69 velocity=39 time=0\n",
      "note_off channel=9 note=69 velocity=64 time=0\n",
      "note_on channel=9 note=54 velocity=33 time=0\n",
      "note_off channel=9 note=54 velocity=64 time=0\n",
      "note_off channel=1 note=42 velocity=64 time=0\n",
      "note_on channel=1 note=37 velocity=71 time=0\n",
      "note_on channel=0 note=66 velocity=82 time=0\n",
      "note_on channel=0 note=61 velocity=79 time=0\n",
      "note_on channel=0 note=57 velocity=82 time=0\n",
      "note_on channel=6 note=54 velocity=66 time=0\n",
      "note_off channel=6 note=54 velocity=64 time=9\n",
      "note_off channel=0 note=57 velocity=64 time=2\n",
      "note_off channel=11 note=57 velocity=64 time=0\n",
      "note_off channel=0 note=66 velocity=64 time=2\n",
      "note_off channel=0 note=61 velocity=64 time=2\n",
      "note_on channel=11 note=54 velocity=100 time=8\n",
      "note_on channel=9 note=40 velocity=101 time=1\n",
      "note_off channel=9 note=40 velocity=64 time=0\n",
      "note_on channel=9 note=42 velocity=65 time=0\n",
      "note_off channel=9 note=42 velocity=64 time=0\n",
      "note_on channel=9 note=69 velocity=51 time=0\n",
      "note_off channel=9 note=69 velocity=64 time=0\n",
      "note_off channel=1 note=37 velocity=64 time=0\n",
      "note_on channel=1 note=42 velocity=77 time=0\n",
      "note_on channel=6 note=57 velocity=71 time=0\n",
      "note_on channel=6 note=54 velocity=57 time=0\n",
      "note_on channel=6 note=61 velocity=56 time=0\n",
      "note_off channel=11 note=54 velocity=64 time=11\n",
      "note_off channel=6 note=61 velocity=64 time=4\n",
      "note_off channel=6 note=54 velocity=64 time=1\n",
      "note_off channel=6 note=57 velocity=64 time=0\n",
      "note_on channel=11 note=54 velocity=85 time=8\n",
      "note_on channel=9 note=69 velocity=48 time=1\n",
      "note_off channel=9 note=69 velocity=64 time=0\n",
      "note_off channel=1 note=42 velocity=64 time=3\n",
      "<meta message lyrics text='\\n' time=4>\n",
      "note_off channel=11 note=54 velocity=64 time=6\n",
      "note_on channel=9 note=46 velocity=50 time=9\n",
      "note_off channel=9 note=46 velocity=64 time=0\n",
      "note_on channel=9 note=54 velocity=68 time=0\n",
      "note_off channel=9 note=54 velocity=64 time=0\n",
      "note_on channel=0 note=57 velocity=91 time=0\n",
      "note_on channel=6 note=57 velocity=71 time=0\n",
      "note_on channel=9 note=36 velocity=104 time=1\n",
      "note_off channel=9 note=36 velocity=64 time=0\n",
      "note_on channel=9 note=69 velocity=62 time=0\n",
      "note_off channel=9 note=69 velocity=64 time=0\n",
      "note_on channel=1 note=42 velocity=79 time=0\n",
      "note_on channel=0 note=61 velocity=89 time=0\n",
      "note_on channel=0 note=66 velocity=80 time=0\n",
      "note_on channel=6 note=61 velocity=63 time=0\n",
      "note_on channel=6 note=54 velocity=53 time=0\n",
      "note_on channel=11 note=57 velocity=98 time=0\n",
      "note_off channel=6 note=61 velocity=64 time=11\n",
      "note_off channel=11 note=57 velocity=64 time=1\n",
      "note_off channel=6 note=57 velocity=64 time=2\n",
      "note_off channel=6 note=54 velocity=64 time=3\n",
      "note_on channel=9 note=69 velocity=47 time=7\n",
      "note_off channel=9 note=69 velocity=64 time=0\n",
      "note_on channel=9 note=54 velocity=37 time=0\n",
      "note_off channel=9 note=54 velocity=64 time=0\n",
      "note_on channel=6 note=57 velocity=69 time=0\n",
      "note_on channel=6 note=54 velocity=40 time=0\n",
      "note_on channel=6 note=61 velocity=65 time=0\n",
      "note_on channel=11 note=57 velocity=69 time=0\n",
      "note_off channel=11 note=57 velocity=64 time=13\n",
      "note_off channel=1 note=42 velocity=64 time=3\n",
      "note_off channel=6 note=61 velocity=64 time=3\n",
      "note_off channel=6 note=54 velocity=64 time=1\n",
      "note_off channel=6 note=57 velocity=64 time=0\n",
      "note_on channel=11 note=54 velocity=90 time=3\n",
      "note_on channel=9 note=36 velocity=98 time=1\n",
      "note_off channel=9 note=36 velocity=64 time=0\n",
      "note_on channel=9 note=42 velocity=63 time=0\n",
      "note_off channel=9 note=42 velocity=64 time=0\n",
      "note_on channel=9 note=69 velocity=48 time=0\n",
      "note_off channel=9 note=69 velocity=64 time=0\n",
      "note_on channel=6 note=54 velocity=57 time=1\n",
      "note_off channel=6 note=54 velocity=64 time=8\n",
      "note_off channel=11 note=54 velocity=64 time=2\n",
      "note_on channel=9 note=40 velocity=94 time=12\n",
      "note_off channel=9 note=40 velocity=64 time=0\n",
      "note_on channel=9 note=69 velocity=48 time=1\n",
      "note_off channel=9 note=69 velocity=64 time=0\n",
      "note_on channel=6 note=57 velocity=76 time=0\n",
      "note_on channel=6 note=61 velocity=60 time=0\n",
      "note_on channel=6 note=54 velocity=57 time=0\n",
      "note_on channel=11 note=54 velocity=64 time=0\n",
      "note_off channel=6 note=54 velocity=64 time=11\n",
      "note_off channel=6 note=61 velocity=64 time=1\n",
      "note_off channel=6 note=57 velocity=64 time=0\n",
      "note_off channel=11 note=54 velocity=64 time=4\n",
      "note_on channel=1 note=42 velocity=79 time=6\n",
      "note_on channel=11 note=57 velocity=98 time=1\n",
      "note_on channel=9 note=69 velocity=64 time=1\n",
      "note_off channel=9 note=69 velocity=64 time=0\n",
      "note_on channel=9 note=54 velocity=68 time=0\n",
      "note_off channel=9 note=54 velocity=64 time=0\n",
      "note_off channel=11 note=57 velocity=64 time=11\n",
      "note_off channel=0 note=66 velocity=64 time=10\n",
      "note_off channel=3 note=61 velocity=64 time=1\n",
      "note_off channel=1 note=42 velocity=64 time=0\n",
      "note_on channel=1 note=37 velocity=70 time=1\n",
      "note_on channel=11 note=57 velocity=72 time=0\n",
      "note_on channel=9 note=69 velocity=45 time=1\n",
      "note_off channel=9 note=69 velocity=64 time=0\n",
      "note_on channel=9 note=54 velocity=38 time=0\n",
      "note_off channel=9 note=54 velocity=64 time=0\n",
      "note_on channel=0 note=81 velocity=85 time=0\n",
      "note_on channel=0 note=69 velocity=93 time=0\n",
      "note_on channel=6 note=54 velocity=55 time=0\n",
      "note_off channel=6 note=54 velocity=64 time=5\n",
      "control_change channel=0 control=64 value=127 time=6\n",
      "note_off channel=11 note=57 velocity=64 time=2\n",
      "note_off channel=0 note=69 velocity=64 time=2\n",
      "note_off channel=1 note=37 velocity=64 time=4\n",
      "note_off channel=0 note=81 velocity=64 time=0\n",
      "note_on channel=11 note=54 velocity=90 time=3\n",
      "note_on channel=1 note=42 velocity=73 time=1\n",
      "note_on channel=6 note=57 velocity=85 time=0\n",
      "note_on channel=6 note=54 velocity=65 time=0\n",
      "note_on channel=6 note=61 velocity=56 time=0\n",
      "note_off channel=4 note=61 velocity=64 time=1\n",
      "note_on channel=9 note=40 velocity=102 time=0\n",
      "note_off channel=9 note=40 velocity=64 time=0\n",
      "note_on channel=9 note=42 velocity=73 time=0\n",
      "note_off channel=9 note=42 velocity=64 time=0\n",
      "note_on channel=9 note=69 velocity=55 time=0\n",
      "note_off channel=9 note=69 velocity=64 time=0\n",
      "note_off channel=11 note=54 velocity=64 time=8\n",
      "note_off channel=1 note=42 velocity=64 time=4\n",
      "note_off channel=0 note=57 velocity=64 time=8\n",
      "note_off channel=0 note=61 velocity=64 time=2\n",
      "note_on channel=11 note=54 velocity=69 time=0\n",
      "note_on channel=1 note=42 velocity=76 time=1\n",
      "note_on channel=9 note=69 velocity=40 time=1\n",
      "note_off channel=9 note=69 velocity=64 time=0\n",
      "note_on channel=0 note=80 velocity=77 time=0\n",
      "note_on channel=0 note=68 velocity=99 time=0\n",
      "note_off channel=0 note=68 velocity=64 time=9\n",
      "note_off channel=0 note=80 velocity=64 time=0\n",
      "note_off channel=11 note=54 velocity=64 time=8\n",
      "note_on channel=11 note=57 velocity=93 time=5\n",
      "note_on channel=9 note=54 velocity=63 time=1\n",
      "note_off channel=9 note=54 velocity=64 time=0\n",
      "note_off channel=1 note=42 velocity=64 time=0\n",
      "note_on channel=1 note=37 velocity=70 time=0\n",
      "note_on channel=9 note=46 velocity=40 time=1\n",
      "note_off channel=9 note=46 velocity=64 time=0\n",
      "note_on channel=9 note=69 velocity=65 time=0\n",
      "note_off channel=9 note=69 velocity=64 time=0\n",
      "note_off channel=7 note=54 velocity=64 time=0\n",
      "note_off channel=7 note=57 velocity=64 time=0\n",
      "note_off channel=6 note=54 velocity=64 time=6\n",
      "note_off channel=6 note=57 velocity=64 time=1\n",
      "note_off channel=11 note=57 velocity=64 time=3\n",
      "note_off channel=4 note=66 velocity=64 time=1\n",
      "note_on channel=11 note=57 velocity=71 time=11\n",
      "note_off channel=1 note=37 velocity=64 time=1\n",
      "note_on channel=9 note=69 velocity=42 time=1\n",
      "note_off channel=9 note=69 velocity=64 time=0\n",
      "note_on channel=9 note=54 velocity=33 time=0\n",
      "note_off channel=9 note=54 velocity=64 time=0\n",
      "note_on channel=1 note=35 velocity=78 time=0\n",
      "note_on channel=0 note=76 velocity=77 time=0\n",
      "note_on channel=0 note=64 velocity=80 time=0\n",
      "note_off channel=6 note=61 velocity=64 time=4\n",
      "control_change channel=0 control=64 value=0 time=3\n",
      "note_off channel=0 note=76 velocity=64 time=1\n",
      "note_off channel=0 note=64 velocity=64 time=1\n",
      "note_off channel=11 note=57 velocity=64 time=2\n",
      "note_off channel=1 note=35 velocity=64 time=6\n",
      "note_on channel=6 note=56 velocity=63 time=5\n",
      "note_on channel=13 note=40 velocity=85 time=0\n",
      "note_on channel=9 note=36 velocity=112 time=1\n",
      "note_off channel=9 note=36 velocity=64 time=0\n",
      "note_on channel=1 note=28 velocity=84 time=0\n",
      "note_on channel=0 note=76 velocity=85 time=0\n",
      "note_on channel=0 note=64 velocity=91 time=0\n",
      "note_on channel=6 note=52 velocity=58 time=0\n",
      "note_on channel=6 note=59 velocity=74 time=0\n",
      "note_on channel=11 note=52 velocity=79 time=0\n",
      "<meta message lyrics text='With ' time=1>\n",
      "note_on channel=3 note=59 velocity=108 time=0\n",
      "note_on channel=4 note=59 velocity=54 time=0\n",
      "note_on channel=9 note=42 velocity=56 time=0\n",
      "note_off channel=9 note=42 velocity=64 time=0\n",
      "note_on channel=9 note=69 velocity=37 time=0\n",
      "note_off channel=9 note=69 velocity=64 time=0\n",
      "note_on channel=0 note=59 velocity=85 time=0\n",
      "note_on channel=0 note=56 velocity=65 time=0\n",
      "note_on channel=0 note=68 velocity=73 time=0\n",
      "note_off channel=7 note=61 velocity=64 time=0\n",
      "note_on channel=7 note=52 velocity=84 time=0\n",
      "note_off channel=0 note=68 velocity=64 time=3\n",
      "note_off channel=11 note=52 velocity=64 time=6\n",
      "note_on channel=9 note=42 velocity=43 time=15\n",
      "note_off channel=9 note=42 velocity=64 time=0\n",
      "note_on channel=9 note=69 velocity=40 time=0\n",
      "note_off channel=9 note=69 velocity=64 time=0\n",
      "note_on channel=11 note=52 velocity=61 time=0\n",
      "note_off channel=11 note=52 velocity=64 time=7\n",
      "note_off channel=13 note=40 velocity=64 time=8\n",
      "note_off channel=3 note=59 velocity=64 time=1\n",
      "note_off channel=4 note=59 velocity=64 time=7\n",
      "note_on channel=9 note=54 velocity=65 time=0\n",
      "note_off channel=9 note=54 velocity=64 time=0\n",
      "<meta message lyrics text='a ' time=1>\n",
      "note_on channel=3 note=59 velocity=102 time=0\n",
      "note_on channel=4 note=59 velocity=51 time=0\n",
      "note_on channel=9 note=46 velocity=47 time=0\n",
      "note_off channel=9 note=46 velocity=64 time=0\n",
      "note_on channel=9 note=69 velocity=64 time=0\n",
      "note_off channel=9 note=69 velocity=64 time=0\n",
      "note_on channel=11 note=52 velocity=95 time=0\n",
      "note_on channel=13 note=40 velocity=69 time=0\n",
      "note_off channel=0 note=76 velocity=64 time=1\n",
      "note_off channel=1 note=28 velocity=64 time=6\n",
      "note_off channel=6 note=52 velocity=64 time=0\n",
      "note_off channel=11 note=52 velocity=64 time=2\n",
      "note_off channel=0 note=64 velocity=64 time=1\n",
      "note_off channel=6 note=59 velocity=64 time=0\n",
      "note_off channel=6 note=56 velocity=64 time=1\n",
      "note_off channel=13 note=40 velocity=64 time=1\n",
      "note_off channel=3 note=59 velocity=64 time=5\n",
      "note_off channel=4 note=59 velocity=64 time=6\n",
      "note_on channel=9 note=54 velocity=40 time=0\n",
      "note_off channel=9 note=54 velocity=64 time=0\n",
      "note_on channel=0 note=64 velocity=80 time=0\n",
      "note_on channel=0 note=68 velocity=74 time=0\n",
      "note_on channel=0 note=76 velocity=82 time=0\n",
      "note_on channel=0 note=71 velocity=99 time=0\n",
      "note_on channel=11 note=52 velocity=98 time=0\n",
      "note_on channel=13 note=40 velocity=73 time=0\n",
      "<meta message lyrics text='bit ' time=1>\n",
      "note_on channel=3 note=59 velocity=108 time=0\n",
      "note_on channel=4 note=59 velocity=54 time=0\n",
      "note_on channel=9 note=36 velocity=102 time=0\n",
      "note_off channel=9 note=36 velocity=64 time=0\n",
      "note_on channel=9 note=69 velocity=39 time=0\n",
      "note_off channel=9 note=69 velocity=64 time=0\n",
      "note_on channel=1 note=28 velocity=72 time=0\n",
      "note_on channel=6 note=56 velocity=61 time=0\n",
      "note_on channel=6 note=59 velocity=77 time=0\n",
      "note_on channel=6 note=52 velocity=56 time=0\n",
      "note_off channel=6 note=52 velocity=64 time=10\n",
      "note_off channel=1 note=28 velocity=64 time=1\n",
      "note_off channel=6 note=59 velocity=64 time=0\n",
      "note_off channel=11 note=52 velocity=64 time=0\n",
      "note_off channel=0 note=71 velocity=64 time=1\n",
      "note_off channel=0 note=68 velocity=64 time=2\n",
      "note_off channel=6 note=56 velocity=64 time=4\n",
      "note_off channel=13 note=40 velocity=64 time=1\n",
      "note_on channel=9 note=40 velocity=101 time=4\n",
      "note_off channel=9 note=40 velocity=64 time=0\n",
      "note_on channel=9 note=42 velocity=65 time=1\n",
      "note_off channel=9 note=42 velocity=64 time=0\n",
      "note_on channel=9 note=69 velocity=53 time=0\n",
      "note_off channel=9 note=69 velocity=64 time=0\n",
      "note_on channel=1 note=28 velocity=83 time=0\n",
      "note_on channel=11 note=52 velocity=74 time=0\n",
      "note_off channel=0 note=64 velocity=64 time=3\n",
      "note_off channel=0 note=76 velocity=64 time=5\n",
      "note_off channel=11 note=52 velocity=64 time=4\n",
      "note_off channel=3 note=59 velocity=64 time=5\n",
      "note_off channel=4 note=59 velocity=64 time=7\n",
      "note_on channel=9 note=69 velocity=40 time=0\n",
      "note_off channel=9 note=69 velocity=64 time=0\n",
      "note_on channel=11 note=52 velocity=71 time=0\n",
      "note_on channel=13 note=40 velocity=76 time=0\n",
      "<meta message lyrics text='of ' time=1>\n",
      "note_on channel=3 note=59 velocity=101 time=0\n",
      "note_on channel=4 note=59 velocity=50 time=0\n",
      "note_off channel=1 note=28 velocity=64 time=2\n",
      "note_off channel=11 note=52 velocity=64 time=7\n",
      "note_off channel=13 note=40 velocity=64 time=2\n",
      "note_off channel=3 note=59 velocity=64 time=5\n",
      "note_on channel=9 note=46 velocity=38 time=6\n",
      "note_off channel=9 note=46 velocity=64 time=0\n",
      "note_on channel=1 note=28 velocity=86 time=0\n",
      "note_on channel=0 note=64 velocity=100 time=0\n",
      "note_on channel=0 note=76 velocity=100 time=0\n",
      "note_on channel=0 note=71 velocity=100 time=0\n",
      "note_on channel=0 note=68 velocity=100 time=0\n",
      "note_on channel=6 note=52 velocity=55 time=0\n",
      "note_on channel=6 note=56 velocity=63 time=0\n",
      "note_on channel=11 note=52 velocity=100 time=0\n",
      "note_on channel=13 note=40 velocity=75 time=0\n",
      "note_off channel=4 note=59 velocity=64 time=1\n",
      "note_on channel=9 note=36 velocity=98 time=0\n",
      "note_off channel=9 note=36 velocity=64 time=0\n",
      "note_on channel=9 note=69 velocity=63 time=0\n",
      "note_off channel=9 note=69 velocity=64 time=0\n",
      "note_on channel=9 note=54 velocity=68 time=0\n",
      "note_off channel=9 note=54 velocity=64 time=0\n",
      "note_on channel=6 note=59 velocity=81 time=0\n",
      "<meta message lyrics text='rock ' time=1>\n",
      "note_on channel=3 note=59 velocity=108 time=0\n",
      "note_on channel=4 note=59 velocity=54 time=0\n",
      "note_off channel=11 note=52 velocity=64 time=7\n",
      "note_off channel=0 note=59 velocity=64 time=8\n",
      "note_on channel=11 note=52 velocity=100 time=7\n",
      "note_on channel=9 note=69 velocity=39 time=1\n",
      "note_off channel=9 note=69 velocity=64 time=0\n",
      "note_on channel=9 note=54 velocity=41 time=0\n",
      "note_off channel=9 note=54 velocity=64 time=0\n",
      "note_off channel=11 note=52 velocity=64 time=9\n",
      "note_off channel=6 note=59 velocity=64 time=5\n",
      "note_off channel=6 note=56 velocity=64 time=1\n",
      "note_off channel=3 note=59 velocity=64 time=3\n",
      "note_off channel=1 note=28 velocity=64 time=1\n",
      "note_off channel=6 note=52 velocity=64 time=0\n",
      "note_on channel=9 note=42 velocity=59 time=4\n",
      "note_off channel=9 note=42 velocity=64 time=0\n",
      "control_change channel=0 control=64 value=127 time=0\n",
      "note_on channel=11 note=52 velocity=90 time=0\n",
      "note_on channel=9 note=36 velocity=111 time=1\n",
      "note_off channel=9 note=36 velocity=64 time=0\n",
      "note_on channel=9 note=69 velocity=39 time=0\n",
      "note_off channel=9 note=69 velocity=64 time=0\n",
      "note_on channel=1 note=35 velocity=70 time=0\n",
      "note_on channel=0 note=59 velocity=85 time=0\n",
      "<meta message lyrics text='mu' time=1>\n",
      "note_on channel=3 note=61 velocity=102 time=0\n",
      "note_off channel=4 note=59 velocity=64 time=0\n",
      "note_on channel=4 note=61 velocity=51 time=0\n",
      "note_off channel=11 note=52 velocity=64 time=11\n",
      "note_on channel=9 note=69 velocity=46 time=12\n",
      "note_off channel=9 note=69 velocity=64 time=0\n",
      "note_on channel=6 note=57 velocity=74 time=0\n",
      "note_on channel=6 note=59 velocity=85 time=0\n",
      "note_on channel=6 note=52 velocity=55 time=0\n",
      "note_on channel=10 note=57 velocity=90 time=0\n",
      "note_on channel=10 note=59 velocity=95 time=0\n",
      "note_on channel=10 note=52 velocity=68 time=0\n",
      "note_on channel=11 note=52 velocity=67 time=0\n",
      "note_off channel=0 note=59 velocity=64 time=2\n",
      "note_off channel=0 note=64 velocity=64 time=3\n",
      "note_off channel=3 note=61 velocity=64 time=5\n",
      "note_off channel=1 note=35 velocity=64 time=1\n",
      "note_off channel=6 note=59 velocity=64 time=0\n",
      "note_off channel=11 note=52 velocity=64 time=0\n",
      "note_off channel=6 note=57 velocity=64 time=2\n",
      "note_off channel=0 note=68 velocity=64 time=2\n",
      "note_off channel=0 note=71 velocity=64 time=1\n",
      "note_off channel=0 note=76 velocity=64 time=3\n",
      "note_on channel=0 note=64 velocity=72 time=4\n",
      "note_off channel=4 note=61 velocity=64 time=1\n",
      "note_on channel=9 note=46 velocity=43 time=0\n",
      "note_off channel=9 note=46 velocity=64 time=0\n",
      "note_on channel=9 note=69 velocity=64 time=0\n",
      "note_off channel=9 note=69 velocity=64 time=0\n",
      "note_on channel=9 note=54 velocity=57 time=0\n",
      "note_off channel=9 note=54 velocity=64 time=0\n",
      "note_on channel=1 note=40 velocity=74 time=0\n",
      "note_on channel=6 note=57 velocity=66 time=0\n",
      "note_on channel=6 note=59 velocity=76 time=0\n",
      "note_on channel=11 note=52 velocity=100 time=0\n",
      "<meta message lyrics text='sic, ' time=1>\n",
      "<meta message lyrics text='\\r' time=0>\n",
      "note_on channel=3 note=61 velocity=109 time=0\n",
      "note_on channel=4 note=61 velocity=54 time=0\n",
      "control_change channel=0 control=64 value=0 time=7\n",
      "note_off channel=11 note=52 velocity=64 time=0\n",
      "note_off channel=6 note=59 velocity=64 time=4\n",
      "note_off channel=6 note=57 velocity=64 time=2\n",
      "note_off channel=10 note=52 velocity=64 time=1\n",
      "note_off channel=10 note=59 velocity=64 time=0\n",
      "note_off channel=10 note=57 velocity=64 time=1\n",
      "note_on channel=9 note=54 velocity=33 time=7\n",
      "note_off channel=9 note=54 velocity=64 time=0\n",
      "note_on channel=0 note=81 velocity=99 time=0\n",
      "note_on channel=9 note=69 velocity=44 time=1\n",
      "note_off channel=9 note=69 velocity=64 time=0\n",
      "note_on channel=0 note=69 velocity=81 time=0\n",
      "note_on channel=6 note=57 velocity=65 time=0\n",
      "note_on channel=6 note=59 velocity=72 time=0\n",
      "note_on channel=10 note=57 velocity=81 time=0\n",
      "note_on channel=10 note=59 velocity=86 time=0\n",
      "note_on channel=11 note=52 velocity=95 time=0\n",
      "note_on channel=10 note=52 velocity=74 time=1\n",
      "note_off channel=1 note=40 velocity=64 time=7\n",
      "note_off channel=6 note=52 velocity=64 time=2\n",
      "note_off channel=11 note=52 velocity=64 time=0\n",
      "note_off channel=6 note=59 velocity=64 time=1\n",
      "note_off channel=6 note=57 velocity=64 time=3\n",
      "note_off channel=0 note=81 velocity=64 time=7\n",
      "note_on channel=9 note=40 velocity=98 time=2\n",
      "note_off channel=9 note=40 velocity=64 time=0\n",
      "note_on channel=9 note=42 velocity=54 time=0\n",
      "note_off channel=9 note=42 velocity=64 time=0\n",
      "note_on channel=6 note=52 velocity=45 time=0\n",
      "note_on channel=9 note=69 velocity=46 time=1\n",
      "note_off channel=9 note=69 velocity=64 time=0\n",
      "note_on channel=1 note=42 velocity=74 time=0\n",
      "note_on channel=6 note=57 velocity=62 time=0\n",
      "note_on channel=11 note=52 velocity=85 time=0\n",
      "note_off channel=0 note=69 velocity=64 time=1\n",
      "note_on channel=6 note=59 velocity=69 time=0\n",
      "note_off channel=10 note=57 velocity=64 time=7\n",
      "note_off channel=6 note=59 velocity=64 time=2\n",
      "note_off channel=11 note=52 velocity=64 time=0\n",
      "note_off channel=10 note=52 velocity=64 time=1\n",
      "note_off channel=6 note=57 velocity=64 time=1\n",
      "note_off channel=3 note=61 velocity=64 time=1\n",
      "note_off channel=10 note=59 velocity=64 time=3\n",
      "note_off channel=6 note=52 velocity=64 time=5\n",
      "note_on channel=9 note=42 velocity=43 time=2\n",
      "note_off channel=9 note=42 velocity=64 time=0\n",
      "note_on channel=9 note=69 velocity=38 time=1\n",
      "note_off channel=9 note=69 velocity=64 time=0\n",
      "note_off channel=1 note=42 velocity=64 time=0\n",
      "note_on channel=1 note=44 velocity=70 time=0\n",
      "note_on channel=0 note=80 velocity=93 time=0\n",
      "note_on channel=0 note=68 velocity=93 time=0\n",
      "note_on channel=0 note=59 velocity=93 time=0\n",
      "note_on channel=6 note=57 velocity=63 time=0\n",
      "note_on channel=6 note=59 velocity=69 time=0\n",
      "note_on channel=10 note=59 velocity=60 time=0\n",
      "note_on channel=10 note=56 velocity=71 time=0\n",
      "note_on channel=11 note=52 velocity=67 time=0\n",
      "note_on channel=6 note=52 velocity=55 time=1\n",
      "note_on channel=10 note=52 velocity=75 time=0\n",
      "note_off channel=0 note=64 velocity=64 time=3\n",
      "control_change channel=0 control=64 value=127 time=4\n",
      "note_off channel=11 note=52 velocity=64 time=0\n",
      "note_off channel=6 note=59 velocity=64 time=1\n",
      "note_off channel=6 note=57 velocity=64 time=1\n",
      "note_off channel=0 note=80 velocity=64 time=2\n",
      "note_off channel=0 note=68 velocity=64 time=1\n",
      "note_off channel=4 note=61 velocity=64 time=6\n",
      "note_off channel=1 note=44 velocity=64 time=1\n",
      "note_on channel=9 note=54 velocity=56 time=3\n",
      "note_off channel=9 note=54 velocity=64 time=0\n",
      "note_on channel=11 note=52 velocity=112 time=0\n",
      "note_on channel=9 note=46 velocity=41 time=1\n",
      "note_off channel=9 note=46 velocity=64 time=0\n",
      "note_on channel=9 note=69 velocity=65 time=0\n",
      "note_off channel=9 note=69 velocity=64 time=0\n",
      "note_on channel=1 note=47 velocity=79 time=0\n",
      "note_on channel=6 note=56 velocity=64 time=0\n",
      "note_on channel=6 note=59 velocity=66 time=0\n",
      "note_off channel=11 note=52 velocity=64 time=8\n",
      "note_off channel=13 note=40 velocity=64 time=1\n",
      "note_off channel=6 note=59 velocity=64 time=3\n",
      "note_off channel=0 note=56 velocity=64 time=3\n",
      "note_off channel=6 note=56 velocity=64 time=0\n",
      "note_off channel=0 note=59 velocity=64 time=1\n",
      "note_off channel=6 note=52 velocity=64 time=1\n",
      "note_on channel=9 note=54 velocity=46 time=6\n",
      "note_off channel=9 note=54 velocity=64 time=0\n",
      "note_on channel=11 note=52 velocity=93 time=0\n",
      "note_on channel=9 note=69 velocity=37 time=1\n",
      "note_off channel=9 note=69 velocity=64 time=0\n",
      "note_on channel=0 note=76 velocity=81 time=0\n",
      "note_on channel=0 note=64 velocity=83 time=0\n",
      "control_change channel=0 control=64 value=0 time=1\n",
      "note_off channel=10 note=59 velocity=64 time=3\n",
      "note_off channel=10 note=52 velocity=64 time=1\n",
      "note_off channel=10 note=56 velocity=64 time=3\n",
      "note_off channel=11 note=52 velocity=64 time=0\n",
      "note_off channel=0 note=76 velocity=64 time=2\n",
      "note_off channel=0 note=64 velocity=64 time=1\n",
      "note_on channel=13 note=40 velocity=87 time=11\n",
      "note_on channel=9 note=42 velocity=53 time=1\n",
      "note_off channel=9 note=42 velocity=64 time=0\n",
      "note_on channel=11 note=52 velocity=76 time=0\n",
      "<meta message lyrics text='ev' time=1>\n",
      "note_on channel=3 note=59 velocity=110 time=0\n",
      "note_on channel=4 note=59 velocity=55 time=0\n",
      "note_on channel=9 note=36 velocity=110 time=0\n",
      "note_off channel=9 note=36 velocity=64 time=0\n",
      "note_on channel=9 note=69 velocity=39 time=0\n",
      "note_off channel=9 note=69 velocity=64 time=0\n",
      "note_off channel=1 note=47 velocity=64 time=0\n",
      "note_on channel=1 note=28 velocity=96 time=0\n",
      "note_on channel=0 note=76 velocity=87 time=0\n",
      "note_on channel=0 note=64 velocity=87 time=0\n",
      "note_on channel=0 note=59 velocity=87 time=0\n",
      "note_on channel=0 note=68 velocity=87 time=0\n",
      "note_on channel=0 note=56 velocity=87 time=0\n",
      "note_on channel=0 note=71 velocity=87 time=0\n",
      "note_on channel=6 note=52 velocity=65 time=0\n",
      "note_on channel=6 note=56 velocity=74 time=0\n",
      "note_on channel=6 note=59 velocity=83 time=0\n",
      "note_off channel=11 note=52 velocity=64 time=11\n",
      "note_on channel=9 note=42 velocity=41 time=12\n",
      "note_off channel=9 note=42 velocity=64 time=0\n",
      "note_on channel=9 note=69 velocity=39 time=1\n",
      "note_off channel=9 note=69 velocity=64 time=0\n",
      "note_on channel=11 note=52 velocity=77 time=0\n",
      "note_off channel=11 note=52 velocity=64 time=10\n",
      "note_off channel=3 note=59 velocity=64 time=5\n",
      "note_off channel=13 note=40 velocity=64 time=2\n",
      "note_off channel=1 note=28 velocity=64 time=4\n",
      "note_off channel=4 note=59 velocity=64 time=1\n",
      "<meta message lyrics text=\"'ry\" time=1>\n",
      "note_on channel=3 note=59 velocity=101 time=0\n",
      "note_on channel=4 note=59 velocity=50 time=0\n",
      "note_on channel=9 note=46 velocity=44 time=0\n",
      "note_off channel=9 note=46 velocity=64 time=0\n",
      "note_on channel=9 note=69 velocity=67 time=0\n",
      "note_off channel=9 note=69 velocity=64 time=0\n",
      "note_on channel=9 note=54 velocity=57 time=0\n",
      "note_off channel=9 note=54 velocity=64 time=0\n",
      "note_on channel=13 note=40 velocity=63 time=0\n",
      "note_on channel=11 note=52 velocity=108 time=1\n",
      "note_off channel=0 note=59 velocity=64 time=4\n",
      "note_off channel=0 note=68 velocity=64 time=3\n",
      "note_off channel=0 note=71 velocity=64 time=2\n",
      "note_off channel=11 note=52 velocity=64 time=0\n",
      "note_off channel=6 note=56 velocity=64 time=1\n",
      "note_off channel=6 note=59 velocity=64 time=1\n",
      "note_off channel=13 note=40 velocity=64 time=0\n",
      "note_off channel=0 note=76 velocity=64 time=2\n",
      "note_off channel=3 note=59 velocity=64 time=1\n",
      "note_off channel=6 note=52 velocity=64 time=0\n",
      "note_off channel=0 note=64 velocity=64 time=2\n",
      "note_off channel=4 note=59 velocity=64 time=7\n",
      "note_on channel=9 note=69 velocity=42 time=0\n",
      "note_off channel=9 note=69 velocity=64 time=0\n",
      "note_on channel=9 note=54 velocity=37 time=0\n",
      "note_off channel=9 note=54 velocity=64 time=0\n",
      "<meta message lyrics text='thing ' time=1>\n",
      "note_on channel=3 note=59 velocity=108 time=0\n",
      "note_on channel=4 note=59 velocity=54 time=0\n",
      "note_on channel=9 note=36 velocity=102 time=0\n",
      "note_off channel=9 note=36 velocity=64 time=0\n",
      "note_on channel=1 note=28 velocity=75 time=0\n",
      "note_on channel=0 note=59 velocity=93 time=0\n",
      "note_on channel=0 note=68 velocity=82 time=0\n",
      "note_on channel=0 note=71 velocity=104 time=0\n",
      "note_on channel=0 note=64 velocity=81 time=0\n",
      "note_on channel=0 note=76 velocity=82 time=0\n",
      "note_on channel=11 note=52 velocity=100 time=0\n",
      "note_on channel=13 note=40 velocity=68 time=0\n",
      "note_on channel=6 note=56 velocity=56 time=1\n",
      "note_on channel=6 note=59 velocity=66 time=0\n",
      "note_on channel=6 note=52 velocity=66 time=0\n",
      "note_off channel=11 note=52 velocity=64 time=9\n",
      "note_off channel=1 note=28 velocity=64 time=1\n",
      "note_off channel=6 note=59 velocity=64 time=4\n",
      "note_off channel=6 note=56 velocity=64 time=1\n",
      "note_off channel=0 note=71 velocity=64 time=1\n",
      "note_off channel=0 note=68 velocity=64 time=0\n",
      "note_off channel=0 note=76 velocity=64 time=3\n",
      "note_on channel=11 note=52 velocity=85 time=2\n",
      "note_on channel=9 note=40 velocity=104 time=2\n",
      "note_off channel=9 note=40 velocity=64 time=0\n",
      "note_on channel=9 note=42 velocity=51 time=0\n",
      "note_off channel=9 note=42 velocity=64 time=0\n",
      "note_on channel=9 note=69 velocity=49 time=0\n",
      "note_off channel=9 note=69 velocity=64 time=0\n",
      "note_on channel=1 note=28 velocity=82 time=0\n",
      "note_off channel=0 note=64 velocity=64 time=3\n",
      "note_off channel=13 note=40 velocity=64 time=0\n",
      "note_off channel=11 note=52 velocity=64 time=6\n",
      "note_off channel=6 note=52 velocity=64 time=1\n",
      "note_off channel=3 note=59 velocity=64 time=4\n",
      "note_on channel=11 note=52 velocity=69 time=8\n",
      "note_off channel=4 note=59 velocity=64 time=2\n",
      "note_on channel=9 note=69 velocity=47 time=0\n",
      "note_off channel=9 note=69 velocity=64 time=0\n",
      "note_on channel=13 note=40 velocity=86 time=0\n",
      "<meta message lyrics text='is ' time=1>\n",
      "note_on channel=3 note=59 velocity=103 time=0\n",
      "note_on channel=4 note=59 velocity=51 time=0\n",
      "note_off channel=1 note=28 velocity=64 time=3\n",
      "note_off channel=11 note=52 velocity=64 time=4\n",
      "note_off channel=13 note=40 velocity=64 time=4\n",
      "note_off channel=3 note=59 velocity=64 time=6\n",
      "note_on channel=11 note=52 velocity=114 time=4\n",
      "<meta message lyrics text='fine. ' time=1>\n",
      "<meta message lyrics text='\\r' time=0>\n",
      "note_on channel=3 note=61 velocity=110 time=0\n",
      "note_off channel=4 note=59 velocity=64 time=0\n",
      "note_on channel=4 note=61 velocity=55 time=0\n",
      "note_on channel=9 note=54 velocity=70 time=0\n",
      "note_off channel=9 note=54 velocity=64 time=0\n",
      "note_on channel=1 note=32 velocity=70 time=0\n",
      "note_on channel=9 note=36 velocity=102 time=1\n",
      "note_off channel=9 note=36 velocity=64 time=0\n",
      "note_on channel=9 note=46 velocity=40 time=0\n",
      "note_off channel=9 note=46 velocity=64 time=0\n",
      "note_on channel=9 note=69 velocity=69 time=0\n",
      "note_off channel=9 note=69 velocity=64 time=0\n",
      "note_on channel=0 note=76 velocity=96 time=0\n",
      "note_on channel=0 note=64 velocity=89 time=0\n",
      "note_on channel=0 note=68 velocity=78 time=0\n",
      "note_on channel=0 note=71 velocity=106 time=0\n",
      "note_on channel=6 note=52 velocity=63 time=0\n",
      "note_on channel=6 note=56 velocity=72 time=0\n",
      "note_on channel=6 note=59 velocity=72 time=0\n",
      "note_on channel=13 note=40 velocity=74 time=0\n",
      "note_off channel=11 note=52 velocity=64 time=6\n",
      "control_change channel=0 control=64 value=127 time=3\n",
      "note_on channel=9 note=54 velocity=38 time=14\n",
      "note_off channel=9 note=54 velocity=64 time=0\n",
      "note_on channel=11 note=52 velocity=95 time=0\n",
      "note_on channel=9 note=69 velocity=49 time=1\n",
      "note_off channel=9 note=69 velocity=64 time=0\n",
      "note_off channel=0 note=59 velocity=64 time=8\n",
      "note_off channel=11 note=52 velocity=64 time=1\n",
      "note_off channel=6 note=59 velocity=64 time=7\n",
      "note_off channel=6 note=56 velocity=64 time=2\n",
      "note_off channel=0 note=68 velocity=64 time=1\n",
      "note_off channel=6 note=52 velocity=64 time=0\n",
      "note_off channel=1 note=32 velocity=64 time=1\n",
      "note_off channel=0 note=64 velocity=64 time=1\n",
      "note_on channel=11 note=52 velocity=90 time=1\n",
      "note_on channel=1 note=35 velocity=87 time=1\n",
      "note_off channel=0 note=76 velocity=64 time=0\n",
      "note_off channel=0 note=71 velocity=64 time=0\n",
      "<meta message lyrics text='\\n' time=1>\n",
      "note_on channel=9 note=36 velocity=104 time=0\n",
      "note_off channel=9 note=36 velocity=64 time=0\n",
      "note_on channel=9 note=42 velocity=55 time=0\n",
      "note_off channel=9 note=42 velocity=64 time=0\n",
      "note_on channel=9 note=69 velocity=50 time=0\n",
      "note_off channel=9 note=69 velocity=64 time=0\n",
      "note_off channel=11 note=52 velocity=64 time=10\n",
      "note_off channel=0 note=56 velocity=64 time=9\n",
      "note_on channel=6 note=57 velocity=77 time=3\n",
      "note_on channel=0 note=76 velocity=80 time=1\n",
      "note_on channel=0 note=68 velocity=73 time=0\n",
      "note_on channel=6 note=59 velocity=77 time=0\n",
      "note_on channel=6 note=52 velocity=61 time=0\n",
      "note_on channel=10 note=57 velocity=86 time=0\n",
      "note_on channel=10 note=52 velocity=63 time=0\n",
      "note_on channel=10 note=59 velocity=86 time=0\n",
      "note_on channel=9 note=69 velocity=46 time=1\n",
      "note_off channel=9 note=69 velocity=64 time=0\n",
      "note_on channel=0 note=71 velocity=85 time=0\n",
      "note_on channel=0 note=64 velocity=76 time=0\n",
      "note_on channel=11 note=52 velocity=75 time=0\n",
      "note_off channel=3 note=61 velocity=64 time=8\n",
      "note_off channel=11 note=52 velocity=64 time=1\n",
      "note_off channel=6 note=59 velocity=64 time=1\n",
      "note_off channel=6 note=57 velocity=64 time=0\n",
      "note_off channel=0 note=68 velocity=64 time=8\n",
      "note_off channel=0 note=76 velocity=64 time=4\n",
      "note_on channel=6 note=57 velocity=66 time=0\n",
      "note_on channel=9 note=54 velocity=65 time=1\n",
      "note_off channel=9 note=54 velocity=64 time=0\n",
      "note_off channel=1 note=35 velocity=64 time=0\n",
      "note_on channel=1 note=40 velocity=76 time=0\n",
      "note_off channel=0 note=71 velocity=64 time=0\n",
      "note_on channel=0 note=59 velocity=82 time=0\n",
      "note_on channel=6 note=59 velocity=69 time=0\n",
      "note_on channel=11 note=52 velocity=120 time=0\n",
      "note_on channel=9 note=46 velocity=43 time=1\n",
      "note_off channel=9 note=46 velocity=64 time=0\n",
      "note_on channel=9 note=69 velocity=71 time=0\n",
      "note_off channel=9 note=69 velocity=64 time=0\n",
      "note_off channel=0 note=64 velocity=64 time=3\n",
      "note_off channel=4 note=61 velocity=64 time=5\n",
      "note_off channel=11 note=52 velocity=64 time=0\n",
      "note_off channel=10 note=52 velocity=64 time=1\n",
      "note_off channel=6 note=59 velocity=64 time=1\n",
      "note_off channel=6 note=57 velocity=64 time=2\n",
      "note_off channel=0 note=59 velocity=64 time=1\n",
      "note_off channel=10 note=59 velocity=64 time=0\n",
      "note_off channel=10 note=57 velocity=64 time=1\n",
      "control_change channel=0 control=64 value=0 time=8\n",
      "note_on channel=9 note=54 velocity=44 time=1\n",
      "note_off channel=9 note=54 velocity=64 time=0\n",
      "note_on channel=6 note=57 velocity=63 time=0\n",
      "note_on channel=6 note=59 velocity=68 time=0\n",
      "note_on channel=9 note=69 velocity=40 time=1\n",
      "note_off channel=9 note=69 velocity=64 time=0\n",
      "note_on channel=10 note=52 velocity=74 time=0\n",
      "note_on channel=10 note=57 velocity=79 time=0\n",
      "note_on channel=10 note=59 velocity=90 time=0\n",
      "note_on channel=11 note=52 velocity=98 time=0\n",
      "note_on channel=0 note=59 velocity=85 time=1\n",
      "note_off channel=11 note=52 velocity=64 time=8\n",
      "note_off channel=6 note=59 velocity=64 time=1\n",
      "note_off channel=6 note=57 velocity=64 time=1\n",
      "note_off channel=1 note=40 velocity=64 time=8\n",
      "note_off channel=6 note=52 velocity=64 time=1\n",
      "note_on channel=1 note=42 velocity=70 time=3\n",
      "note_on channel=0 note=64 velocity=110 time=0\n",
      "note_on channel=0 note=71 velocity=110 time=0\n",
      "note_on channel=0 note=68 velocity=110 time=0\n",
      "note_on channel=0 note=76 velocity=110 time=0\n",
      "note_on channel=6 note=52 velocity=52 time=0\n",
      "note_on channel=6 note=57 velocity=68 time=0\n",
      "<meta message lyrics text=\"You're \" time=1>\n",
      "note_on channel=3 note=59 velocity=108 time=0\n",
      "note_on channel=4 note=59 velocity=54 time=0\n",
      "note_on channel=9 note=40 velocity=102 time=0\n",
      "note_off channel=9 note=40 velocity=64 time=0\n",
      "note_on channel=9 note=42 velocity=40 time=0\n",
      "note_off channel=9 note=42 velocity=64 time=0\n",
      "note_on channel=9 note=69 velocity=52 time=0\n",
      "note_off channel=9 note=69 velocity=64 time=0\n",
      "note_on channel=6 note=59 velocity=72 time=0\n",
      "note_on channel=11 note=52 velocity=71 time=0\n",
      "note_off channel=10 note=57 velocity=64 time=5\n",
      "note_off channel=10 note=59 velocity=64 time=4\n",
      "note_off channel=10 note=52 velocity=64 time=0\n",
      "note_off channel=0 note=59 velocity=64 time=1\n",
      "note_off channel=6 note=59 velocity=64 time=0\n",
      "note_off channel=11 note=52 velocity=64 time=1\n",
      "note_off channel=6 note=57 velocity=64 time=1\n",
      "note_off channel=1 note=42 velocity=64 time=8\n",
      "note_off channel=6 note=52 velocity=64 time=0\n",
      "note_on channel=9 note=69 velocity=43 time=4\n",
      "note_off channel=9 note=69 velocity=64 time=0\n",
      "note_on channel=1 note=44 velocity=74 time=0\n",
      "note_on channel=6 note=57 velocity=66 time=0\n",
      "note_on channel=6 note=59 velocity=69 time=0\n",
      "note_on channel=6 note=52 velocity=56 time=0\n",
      "note_on channel=10 note=56 velocity=79 time=0\n",
      "note_on channel=10 note=59 velocity=79 time=0\n",
      "note_on channel=10 note=52 velocity=74 time=0\n",
      "note_on channel=11 note=52 velocity=75 time=0\n",
      "<meta message lyrics text='in ' time=2>\n",
      "note_off channel=3 note=59 velocity=64 time=0\n",
      "note_on channel=3 note=57 velocity=106 time=0\n",
      "note_off channel=4 note=59 velocity=64 time=0\n",
      "note_on channel=4 note=57 velocity=53 time=0\n",
      "note_off channel=6 note=59 velocity=64 time=8\n",
      "note_off channel=6 note=57 velocity=64 time=0\n",
      "note_off channel=11 note=52 velocity=64 time=1\n",
      "note_on channel=9 note=54 velocity=63 time=12\n",
      "note_off channel=9 note=54 velocity=64 time=0\n",
      "note_off channel=1 note=44 velocity=64 time=0\n",
      "note_on channel=0 note=59 velocity=91 time=0\n",
      "note_on channel=9 note=69 velocity=64 time=1\n",
      "note_off channel=9 note=69 velocity=64 time=0\n",
      "note_on channel=1 note=47 velocity=87 time=0\n",
      "note_on channel=6 note=59 velocity=67 time=0\n",
      "note_on channel=6 note=56 velocity=71 time=0\n",
      "note_on channel=11 note=52 velocity=120 time=0\n",
      "note_off channel=7 note=52 velocity=64 time=0\n",
      "note_on channel=9 note=46 velocity=45 time=1\n",
      "note_off channel=9 note=46 velocity=64 time=0\n",
      "note_off channel=0 note=68 velocity=64 time=7\n",
      "note_off channel=0 note=59 velocity=64 time=1\n",
      "note_off channel=11 note=52 velocity=64 time=0\n",
      "note_off channel=6 note=59 velocity=64 time=1\n",
      "note_off channel=13 note=40 velocity=64 time=0\n",
      "note_off channel=0 note=64 velocity=64 time=1\n",
      "note_off channel=0 note=71 velocity=64 time=0\n",
      "note_off channel=6 note=52 velocity=64 time=0\n",
      "note_off channel=0 note=76 velocity=64 time=1\n",
      "note_off channel=6 note=56 velocity=64 time=2\n",
      "note_on channel=0 note=59 velocity=91 time=9\n",
      "note_on channel=9 note=69 velocity=43 time=1\n",
      "note_off channel=9 note=69 velocity=64 time=0\n",
      "note_on channel=9 note=54 velocity=42 time=0\n",
      "note_off channel=9 note=54 velocity=64 time=0\n",
      "note_on channel=11 note=52 velocity=100 time=0\n",
      "<meta message lyrics text='the ' time=1>\n",
      "note_off channel=3 note=57 velocity=64 time=0\n",
      "note_on channel=3 note=56 velocity=107 time=0\n",
      "note_off channel=4 note=57 velocity=64 time=0\n",
      "note_on channel=4 note=56 velocity=53 time=0\n",
      "note_off channel=10 note=52 velocity=64 time=3\n",
      "note_off channel=10 note=56 velocity=64 time=0\n",
      "note_off channel=10 note=59 velocity=64 time=3\n",
      "note_off channel=11 note=52 velocity=64 time=4\n",
      "note_off channel=0 note=59 velocity=64 time=4\n",
      "control_change channel=0 control=64 value=127 time=4\n",
      "note_off channel=1 note=47 velocity=64 time=2\n",
      "note_on channel=0 note=64 velocity=78 time=1\n",
      "note_on channel=0 note=71 velocity=101 time=0\n",
      "note_on channel=0 note=68 velocity=85 time=0\n",
      "note_on channel=0 note=76 velocity=93 time=0\n",
      "note_on channel=13 note=40 velocity=87 time=0\n",
      "note_on channel=9 note=36 velocity=110 time=1\n",
      "note_off channel=9 note=36 velocity=64 time=0\n",
      "note_on channel=9 note=42 velocity=55 time=0\n",
      "note_off channel=9 note=42 velocity=64 time=0\n",
      "note_on channel=1 note=28 velocity=86 time=1\n",
      "note_on channel=6 note=52 velocity=57 time=0\n",
      "note_on channel=6 note=56 velocity=74 time=0\n",
      "note_on channel=6 note=59 velocity=85 time=0\n",
      "note_on channel=11 note=52 velocity=117 time=0\n",
      "note_on channel=7 note=64 velocity=81 time=0\n",
      "note_on channel=7 note=52 velocity=75 time=0\n",
      "<meta message lyrics text='mood ' time=1>\n",
      "note_off channel=3 note=56 velocity=64 time=0\n",
      "note_on channel=3 note=52 velocity=103 time=0\n",
      "note_off channel=4 note=56 velocity=64 time=0\n",
      "note_on channel=4 note=52 velocity=51 time=0\n",
      "note_on channel=9 note=69 velocity=47 time=0\n",
      "note_off channel=9 note=69 velocity=64 time=0\n",
      "note_on channel=9 note=42 velocity=43 time=23\n",
      "note_off channel=9 note=42 velocity=64 time=0\n",
      "note_on channel=9 note=69 velocity=45 time=1\n",
      "note_off channel=9 note=69 velocity=64 time=0\n",
      "note_off channel=0 note=64 velocity=64 time=5\n",
      "note_off channel=0 note=71 velocity=64 time=4\n",
      "note_off channel=0 note=76 velocity=64 time=0\n",
      "note_off channel=11 note=52 velocity=64 time=2\n",
      "note_off channel=0 note=68 velocity=64 time=2\n",
      "note_on channel=0 note=59 velocity=82 time=8\n",
      "note_on channel=9 note=46 velocity=48 time=1\n",
      "note_off channel=9 note=46 velocity=64 time=0\n",
      "note_on channel=9 note=54 velocity=70 time=0\n",
      "note_off channel=9 note=54 velocity=64 time=0\n",
      "note_on channel=9 note=69 velocity=66 time=1\n",
      "note_off channel=9 note=69 velocity=64 time=0\n",
      "note_off channel=6 note=56 velocity=64 time=2\n",
      "control_change channel=0 control=64 value=0 time=2\n",
      "note_off channel=0 note=59 velocity=64 time=2\n",
      "note_off channel=3 note=52 velocity=64 time=1\n",
      "note_off channel=6 note=52 velocity=64 time=5\n",
      "note_off channel=6 note=59 velocity=64 time=7\n",
      "note_off channel=13 note=40 velocity=64 time=3\n",
      "note_off channel=1 note=28 velocity=64 time=1\n",
      "note_on channel=1 note=30 velocity=79 time=0\n",
      "note_on channel=0 note=78 velocity=91 time=0\n",
      "note_on channel=0 note=66 velocity=101 time=0\n",
      "note_on channel=13 note=42 velocity=66 time=0\n",
      "<meta message lyrics text='for ' time=1>\n",
      "note_on channel=3 note=54 velocity=109 time=0\n",
      "note_off channel=4 note=52 velocity=64 time=0\n",
      "note_on channel=4 note=54 velocity=54 time=0\n",
      "note_on channel=9 note=36 velocity=107 time=0\n",
      "note_off channel=9 note=36 velocity=64 time=0\n",
      "note_on channel=9 note=69 velocity=43 time=0\n",
      "note_off channel=9 note=69 velocity=64 time=0\n",
      "note_on channel=9 note=54 velocity=47 time=0\n",
      "note_off channel=9 note=54 velocity=64 time=0\n",
      "note_on channel=0 note=69 velocity=91 time=0\n",
      "note_on channel=0 note=73 velocity=82 time=0\n",
      "note_on channel=6 note=57 velocity=63 time=0\n",
      "note_on channel=6 note=54 velocity=69 time=0\n",
      "note_on channel=6 note=61 velocity=60 time=0\n",
      "note_on channel=11 note=54 velocity=100 time=0\n",
      "note_off channel=3 note=54 velocity=64 time=12\n",
      "note_off channel=0 note=69 velocity=64 time=0\n",
      "note_off channel=11 note=54 velocity=64 time=0\n",
      "note_off channel=0 note=78 velocity=64 time=3\n",
      "note_off channel=0 note=66 velocity=64 time=0\n",
      "note_off channel=0 note=73 velocity=64 time=2\n",
      "note_off channel=13 note=42 velocity=64 time=2\n",
      "note_off channel=1 note=30 velocity=64 time=2\n",
      "note_off channel=4 note=54 velocity=64 time=2\n",
      "note_on channel=9 note=42 velocity=49 time=0\n",
      "note_off channel=9 note=42 velocity=64 time=0\n",
      "<meta message lyrics text='a ' time=1>\n",
      "note_on channel=3 note=54 velocity=108 time=0\n",
      "note_on channel=4 note=54 velocity=54 time=0\n",
      "note_on channel=9 note=40 velocity=90 time=0\n",
      "note_off channel=9 note=40 velocity=64 time=0\n",
      "note_on channel=9 note=69 velocity=50 time=0\n",
      "note_off channel=9 note=69 velocity=64 time=0\n",
      "note_off channel=7 note=52 velocity=64 time=0\n",
      "note_off channel=7 note=64 velocity=64 time=0\n",
      "note_on channel=7 note=66 velocity=71 time=0\n",
      "note_on channel=7 note=54 velocity=70 time=0\n",
      "note_off channel=6 note=54 velocity=64 time=1\n",
      "note_off channel=6 note=61 velocity=64 time=2\n",
      "note_off channel=6 note=57 velocity=64 time=1\n",
      "note_on channel=9 note=69 velocity=46 time=20\n",
      "note_off channel=9 note=69 velocity=64 time=0\n",
      "note_off channel=3 note=54 velocity=64 time=11\n",
      "note_on channel=13 note=42 velocity=83 time=11\n",
      "note_on channel=9 note=46 velocity=40 time=1\n",
      "note_off channel=9 note=46 velocity=64 time=0\n",
      "note_on channel=9 note=54 velocity=65 time=0\n",
      "note_off channel=9 note=54 velocity=64 time=0\n",
      "note_on channel=6 note=54 velocity=78 time=0\n",
      "note_on channel=6 note=57 velocity=78 time=0\n",
      "note_on channel=6 note=61 velocity=85 time=0\n",
      "note_on channel=11 note=54 velocity=112 time=0\n",
      "note_on channel=9 note=36 velocity=107 time=1\n",
      "note_off channel=9 note=36 velocity=64 time=0\n",
      "note_on channel=9 note=69 velocity=62 time=0\n",
      "note_off channel=9 note=69 velocity=64 time=0\n",
      "note_on channel=1 note=30 velocity=105 time=0\n",
      "note_on channel=0 note=78 velocity=123 time=0\n",
      "note_on channel=0 note=66 velocity=114 time=0\n",
      "note_on channel=0 note=73 velocity=96 time=0\n",
      "note_on channel=0 note=69 velocity=114 time=0\n",
      "note_off channel=4 note=54 velocity=64 time=1\n",
      "<meta message lyrics text='dance. ' time=1>\n",
      "<meta message lyrics text='\\r' time=0>\n",
      "note_on channel=3 note=54 velocity=105 time=0\n",
      "note_on channel=4 note=54 velocity=52 time=0\n",
      "note_on channel=9 note=69 velocity=47 time=22\n",
      "note_off channel=9 note=69 velocity=64 time=0\n",
      "note_on channel=9 note=54 velocity=39 time=0\n",
      "note_off channel=9 note=54 velocity=64 time=0\n",
      "note_on channel=9 note=42 velocity=51 time=23\n",
      "note_off channel=9 note=42 velocity=64 time=0\n",
      "note_on channel=9 note=36 velocity=110 time=1\n",
      "note_off channel=9 note=36 velocity=64 time=0\n",
      "note_on channel=9 note=69 velocity=47 time=0\n",
      "note_off channel=9 note=69 velocity=64 time=0\n",
      "note_on channel=0 note=30 velocity=86 time=23\n",
      "note_on channel=9 note=40 velocity=80 time=1\n",
      "note_off channel=9 note=40 velocity=64 time=0\n",
      "note_on channel=9 note=69 velocity=43 time=0\n",
      "note_off channel=9 note=69 velocity=64 time=0\n",
      "note_off channel=1 note=30 velocity=64 time=3\n",
      "note_off channel=0 note=30 velocity=64 time=16\n",
      "control_change channel=0 control=64 value=127 time=0\n",
      "note_on channel=0 note=49 velocity=83 time=1\n",
      "note_on channel=1 note=30 velocity=85 time=2\n",
      "note_on channel=9 note=54 velocity=57 time=1\n",
      "note_off channel=9 note=54 velocity=64 time=0\n",
      "note_on channel=0 note=42 velocity=83 time=0\n",
      "note_on channel=9 note=69 velocity=71 time=1\n",
      "note_off channel=9 note=69 velocity=64 time=0\n",
      "note_off channel=11 note=54 velocity=64 time=4\n",
      "note_off channel=1 note=30 velocity=64 time=9\n",
      "note_on channel=0 note=54 velocity=81 time=7\n",
      "note_on channel=1 note=30 velocity=78 time=3\n",
      "note_on channel=0 note=30 velocity=81 time=0\n",
      "note_on channel=9 note=69 velocity=39 time=1\n",
      "note_off channel=9 note=69 velocity=64 time=0\n",
      "note_on channel=9 note=54 velocity=42 time=0\n",
      "note_off channel=9 note=54 velocity=64 time=0\n",
      "note_off channel=0 note=49 velocity=64 time=3\n",
      "note_off channel=0 note=42 velocity=64 time=2\n",
      "note_off channel=0 note=66 velocity=64 time=11\n",
      "note_off channel=0 note=69 velocity=64 time=5\n",
      "note_on channel=9 note=42 velocity=70 time=2\n",
      "note_off channel=9 note=42 velocity=64 time=0\n",
      "note_off channel=1 note=30 velocity=64 time=0\n",
      "note_on channel=1 note=42 velocity=93 time=0\n",
      "note_on channel=9 note=40 velocity=107 time=1\n",
      "note_off channel=9 note=40 velocity=64 time=0\n",
      "note_on channel=9 note=69 velocity=52 time=0\n",
      "note_off channel=9 note=69 velocity=64 time=0\n",
      "note_off channel=0 note=30 velocity=64 time=0\n",
      "note_on channel=0 note=42 velocity=83 time=0\n",
      "note_on channel=0 note=57 velocity=83 time=0\n",
      "note_off channel=0 note=73 velocity=64 time=1\n",
      "note_off channel=0 note=78 velocity=64 time=5\n",
      "note_off channel=0 note=54 velocity=64 time=2\n",
      "note_off channel=1 note=42 velocity=64 time=15\n",
      "note_on channel=1 note=37 velocity=73 time=0\n",
      "note_on channel=9 note=69 velocity=45 time=1\n",
      "note_off channel=9 note=69 velocity=64 time=0\n",
      "note_off channel=0 note=57 velocity=64 time=0\n",
      "note_on channel=0 note=30 velocity=86 time=0\n",
      "note_on channel=0 note=61 velocity=86 time=1\n",
      "note_off channel=0 note=42 velocity=64 time=2\n",
      "note_off channel=1 note=37 velocity=64 time=15\n",
      "note_off channel=6 note=54 velocity=64 time=2\n",
      "note_off channel=6 note=57 velocity=64 time=1\n",
      "note_on channel=1 note=30 velocity=89 time=1\n",
      "note_on channel=9 note=54 velocity=39 time=1\n",
      "note_off channel=9 note=54 velocity=64 time=0\n",
      "note_off channel=6 note=61 velocity=64 time=0\n",
      "note_on channel=9 note=46 velocity=43 time=1\n",
      "note_off channel=9 note=46 velocity=64 time=0\n",
      "note_on channel=9 note=69 velocity=67 time=0\n",
      "note_off channel=9 note=69 velocity=64 time=0\n",
      "note_on channel=0 note=42 velocity=92 time=0\n",
      "note_on channel=0 note=66 velocity=92 time=1\n",
      "note_off channel=0 note=30 velocity=64 time=1\n",
      "control_change channel=0 control=64 value=0 time=1\n",
      "note_off channel=0 note=61 velocity=64 time=4\n",
      "note_off channel=3 note=54 velocity=64 time=14\n",
      "note_on channel=9 note=54 velocity=41 time=2\n",
      "note_off channel=9 note=54 velocity=64 time=0\n",
      "note_on channel=0 note=30 velocity=96 time=0\n",
      "note_on channel=9 note=69 velocity=41 time=1\n",
      "note_off channel=9 note=69 velocity=64 time=0\n",
      "note_off channel=0 note=42 velocity=64 time=0\n",
      "note_off channel=0 note=66 velocity=64 time=2\n",
      "note_on channel=0 note=69 velocity=97 time=0\n",
      "note_off channel=4 note=54 velocity=64 time=20\n",
      "note_on channel=6 note=52 velocity=58 time=0\n",
      "note_on channel=9 note=36 velocity=110 time=1\n",
      "note_off channel=9 note=36 velocity=64 time=0\n",
      "note_off channel=1 note=30 velocity=64 time=0\n",
      "note_on channel=0 note=76 velocity=101 time=0\n",
      "note_on channel=0 note=80 velocity=117 time=0\n",
      "note_on channel=0 note=83 velocity=120 time=0\n",
      "note_on channel=0 note=88 velocity=101 time=0\n",
      "note_on channel=6 note=56 velocity=66 time=0\n",
      "note_on channel=6 note=59 velocity=88 time=0\n",
      "note_on channel=9 note=42 velocity=56 time=1\n",
      "note_off channel=9 note=42 velocity=64 time=0\n",
      "note_on channel=9 note=69 velocity=52 time=0\n",
      "note_off channel=9 note=69 velocity=64 time=0\n",
      "note_on channel=1 note=28 velocity=84 time=0\n",
      "note_off channel=0 note=30 velocity=64 time=2\n",
      "note_on channel=0 note=68 velocity=93 time=1\n",
      "note_off channel=13 note=42 velocity=64 time=0\n",
      "note_off channel=0 note=69 velocity=64 time=3\n",
      "control_change channel=0 control=64 value=127 time=2\n",
      "note_on channel=9 note=42 velocity=40 time=16\n",
      "note_off channel=9 note=42 velocity=64 time=0\n",
      "note_on channel=9 note=69 velocity=43 time=0\n",
      "note_off channel=9 note=69 velocity=64 time=0\n",
      "note_off channel=0 note=76 velocity=64 time=12\n",
      "note_off channel=0 note=83 velocity=64 time=1\n",
      "note_off channel=0 note=80 velocity=64 time=1\n",
      "note_off channel=0 note=88 velocity=64 time=1\n",
      "note_on channel=9 note=46 velocity=50 time=8\n",
      "note_off channel=9 note=46 velocity=64 time=0\n",
      "note_on channel=9 note=54 velocity=78 time=0\n",
      "note_off channel=9 note=54 velocity=64 time=0\n",
      "note_on channel=9 note=69 velocity=69 time=1\n",
      "note_off channel=9 note=69 velocity=64 time=0\n",
      "control_change channel=0 control=64 value=0 time=20\n",
      "note_off channel=1 note=28 velocity=64 time=2\n",
      "note_off channel=6 note=56 velocity=64 time=0\n",
      "note_on channel=9 note=36 velocity=104 time=1\n",
      "note_off channel=9 note=36 velocity=64 time=0\n",
      "note_off channel=6 note=59 velocity=64 time=0\n",
      "note_on channel=6 note=61 velocity=63 time=0\n",
      "note_on channel=6 note=57 velocity=66 time=0\n",
      "note_on channel=9 note=69 velocity=49 time=1\n",
      "note_off channel=9 note=69 velocity=64 time=0\n",
      "note_on channel=9 note=54 velocity=41 time=0\n",
      "note_off channel=9 note=54 velocity=64 time=0\n",
      "note_on channel=1 note=30 velocity=86 time=0\n",
      "note_on channel=0 note=90 velocity=89 time=0\n",
      "note_on channel=0 note=78 velocity=110 time=0\n",
      "note_on channel=0 note=85 velocity=76 time=0\n",
      "note_on channel=0 note=81 velocity=91 time=0\n",
      "note_on channel=6 note=54 velocity=54 time=0\n",
      "note_on channel=0 note=66 velocity=87 time=4\n",
      "note_off channel=6 note=52 velocity=64 time=0\n",
      "note_off channel=0 note=68 velocity=64 time=3\n",
      "note_off channel=0 note=81 velocity=64 time=5\n",
      "note_off channel=6 note=54 velocity=64 time=0\n",
      "note_off channel=0 note=85 velocity=64 time=1\n",
      "note_off channel=6 note=57 velocity=64 time=0\n",
      "note_off channel=6 note=61 velocity=64 time=2\n",
      "note_off channel=0 note=78 velocity=64 time=4\n",
      "note_on channel=9 note=40 velocity=107 time=3\n",
      "note_off channel=9 note=40 velocity=64 time=0\n",
      "note_off channel=1 note=30 velocity=64 time=1\n",
      "note_on channel=9 note=42 velocity=55 time=1\n",
      "note_off channel=9 note=42 velocity=64 time=0\n",
      "note_on channel=9 note=69 velocity=50 time=0\n",
      "note_off channel=9 note=69 velocity=64 time=0\n",
      "note_off channel=0 note=90 velocity=64 time=2\n",
      "note_off channel=0 note=66 velocity=64 time=0\n",
      "note_on channel=9 note=69 velocity=43 time=22\n",
      "note_off channel=9 note=69 velocity=64 time=0\n",
      "note_on channel=6 note=54 velocity=88 time=22\n",
      "note_on channel=6 note=57 velocity=66 time=0\n",
      "note_on channel=6 note=61 velocity=64 time=0\n",
      "note_on channel=9 note=36 velocity=107 time=1\n",
      "note_off channel=9 note=36 velocity=64 time=0\n",
      "note_on channel=9 note=54 velocity=70 time=0\n",
      "note_off channel=9 note=54 velocity=64 time=0\n",
      "note_on channel=1 note=30 velocity=121 time=0\n",
      "note_on channel=0 note=81 velocity=118 time=0\n",
      "note_on channel=0 note=78 velocity=123 time=0\n",
      "note_on channel=0 note=90 velocity=106 time=0\n",
      "note_on channel=0 note=85 velocity=80 time=0\n",
      "note_on channel=0 note=66 velocity=89 time=0\n",
      "note_on channel=9 note=46 velocity=41 time=1\n",
      "note_off channel=9 note=46 velocity=64 time=0\n",
      "note_on channel=9 note=69 velocity=63 time=0\n",
      "note_off channel=9 note=69 velocity=64 time=0\n",
      "note_on channel=9 note=69 velocity=43 time=24\n",
      "note_off channel=9 note=69 velocity=64 time=0\n",
      "note_on channel=9 note=54 velocity=37 time=0\n",
      "note_off channel=9 note=54 velocity=64 time=0\n",
      "<meta message lyrics text='And ' time=23>\n",
      "note_on channel=3 note=57 velocity=108 time=0\n",
      "note_on channel=4 note=57 velocity=54 time=0\n",
      "note_on channel=9 note=36 velocity=102 time=1\n",
      "note_off channel=9 note=36 velocity=64 time=0\n",
      "note_on channel=9 note=42 velocity=56 time=0\n",
      "note_off channel=9 note=42 velocity=64 time=0\n",
      "note_on channel=9 note=69 velocity=49 time=0\n",
      "note_off channel=9 note=69 velocity=64 time=0\n",
      "note_on channel=9 note=40 velocity=90 time=23\n",
      "note_off channel=9 note=40 velocity=64 time=0\n",
      "note_on channel=9 note=69 velocity=41 time=1\n",
      "note_off channel=9 note=69 velocity=64 time=0\n",
      "note_on channel=9 note=54 velocity=70 time=23\n",
      "note_off channel=9 note=54 velocity=64 time=0\n",
      "note_on channel=9 note=69 velocity=67 time=1\n",
      "note_off channel=9 note=69 velocity=64 time=0\n",
      "note_off channel=3 note=57 velocity=64 time=19\n",
      "<meta message lyrics text='when ' time=4>\n",
      "note_on channel=3 note=59 velocity=108 time=0\n",
      "note_off channel=4 note=57 velocity=64 time=0\n",
      "note_on channel=4 note=59 velocity=54 time=0\n",
      "note_on channel=9 note=69 velocity=44 time=1\n",
      "note_off channel=9 note=69 velocity=64 time=0\n",
      "note_on channel=9 note=54 velocity=41 time=0\n",
      "note_off channel=9 note=54 velocity=64 time=0\n",
      "note_on channel=9 note=40 velocity=102 time=23\n",
      "note_off channel=9 note=40 velocity=64 time=0\n",
      "note_on channel=9 note=42 velocity=63 time=1\n",
      "note_off channel=9 note=42 velocity=64 time=0\n",
      "note_on channel=9 note=69 velocity=59 time=0\n",
      "note_off channel=9 note=69 velocity=64 time=0\n",
      "note_off channel=0 note=66 velocity=64 time=9\n",
      "note_off channel=6 note=57 velocity=64 time=9\n",
      "note_off channel=6 note=54 velocity=64 time=3\n",
      "note_off channel=6 note=61 velocity=64 time=2\n",
      "note_on channel=9 note=69 velocity=47 time=1\n",
      "note_off channel=9 note=69 velocity=64 time=0\n",
      "note_off channel=1 note=30 velocity=64 time=18\n",
      "<meta message lyrics text='you ' time=4>\n",
      "note_off channel=3 note=59 velocity=64 time=0\n",
      "note_on channel=3 note=61 velocity=106 time=0\n",
      "note_off channel=4 note=59 velocity=64 time=0\n",
      "note_on channel=4 note=61 velocity=53 time=0\n",
      "note_on channel=9 note=54 velocity=65 time=1\n",
      "note_off channel=9 note=54 velocity=64 time=0\n",
      "note_on channel=9 note=46 velocity=42 time=1\n",
      "note_off channel=9 note=46 velocity=64 time=0\n",
      "note_on channel=9 note=69 velocity=68 time=0\n",
      "note_off channel=9 note=69 velocity=64 time=0\n",
      "note_off channel=0 note=78 velocity=64 time=11\n",
      "note_off channel=0 note=81 velocity=64 time=5\n",
      "note_off channel=0 note=85 velocity=64 time=3\n",
      "note_on channel=9 note=69 velocity=41 time=5\n",
      "note_off channel=9 note=69 velocity=64 time=0\n",
      "note_on channel=9 note=54 velocity=49 time=0\n",
      "note_off channel=9 note=54 velocity=64 time=0\n",
      "note_off channel=0 note=90 velocity=64 time=2\n",
      "note_off channel=3 note=61 velocity=64 time=6\n",
      "note_on channel=9 note=36 velocity=110 time=15\n",
      "note_off channel=9 note=36 velocity=64 time=0\n",
      "note_on channel=9 note=42 velocity=55 time=0\n",
      "note_off channel=9 note=42 velocity=64 time=0\n",
      "note_on channel=1 note=35 velocity=97 time=0\n",
      "note_off channel=4 note=61 velocity=64 time=1\n",
      "note_on channel=9 note=69 velocity=38 time=0\n",
      "note_off channel=9 note=69 velocity=64 time=0\n",
      "note_on channel=0 note=64 velocity=96 time=0\n",
      "note_on channel=0 note=61 velocity=82 time=0\n",
      "note_on channel=0 note=57 velocity=83 time=0\n",
      "note_on channel=6 note=57 velocity=66 time=0\n",
      "note_on channel=6 note=61 velocity=72 time=0\n",
      "note_on channel=6 note=64 velocity=75 time=0\n",
      "note_off channel=7 note=54 velocity=64 time=0\n",
      "note_off channel=7 note=66 velocity=64 time=0\n",
      "note_on channel=7 note=57 velocity=70 time=0\n",
      "note_on channel=7 note=64 velocity=81 time=0\n",
      "note_on channel=7 note=61 velocity=74 time=0\n",
      "<meta message lyrics text='get ' time=1>\n",
      "note_on channel=3 note=61 velocity=108 time=0\n",
      "note_on channel=4 note=61 velocity=54 time=0\n",
      "note_on channel=9 note=42 velocity=40 time=22\n",
      "note_off channel=9 note=42 velocity=64 time=0\n",
      "note_on channel=9 note=69 velocity=41 time=0\n",
      "note_off channel=9 note=69 velocity=64 time=0\n",
      "note_on channel=9 note=46 velocity=43 time=24\n",
      "note_off channel=9 note=46 velocity=64 time=0\n",
      "note_on channel=9 note=69 velocity=48 time=0\n",
      "note_off channel=9 note=69 velocity=64 time=0\n",
      "note_on channel=9 note=54 velocity=44 time=0\n",
      "note_off channel=9 note=54 velocity=64 time=0\n",
      "note_off channel=1 note=35 velocity=64 time=9\n",
      "note_off channel=3 note=61 velocity=64 time=4\n",
      "note_off channel=6 note=64 velocity=64 time=4\n",
      "<meta message lyrics text='the ' time=5>\n",
      "note_on channel=3 note=62 velocity=102 time=0\n",
      "note_off channel=4 note=61 velocity=64 time=0\n",
      "note_on channel=4 note=62 velocity=51 time=0\n",
      "note_on channel=9 note=69 velocity=49 time=2\n",
      "note_off channel=9 note=69 velocity=64 time=0\n",
      "note_on channel=1 note=35 velocity=87 time=0\n",
      "note_off channel=0 note=64 velocity=64 time=0\n",
      "note_on channel=9 note=36 velocity=104 time=1\n",
      "note_off channel=9 note=36 velocity=64 time=0\n",
      "note_on channel=9 note=54 velocity=28 time=0\n",
      "note_off channel=9 note=54 velocity=64 time=0\n",
      "note_on channel=6 note=66 velocity=63 time=0\n",
      "note_off channel=7 note=64 velocity=64 time=0\n",
      "note_on channel=7 note=66 velocity=74 time=0\n",
      "note_on channel=7 note=62 velocity=84 time=0\n",
      "note_on channel=0 note=62 velocity=104 time=1\n",
      "note_off channel=6 note=61 velocity=64 time=0\n",
      "note_on channel=6 note=62 velocity=79 time=0\n",
      "note_on channel=0 note=66 velocity=79 time=1\n",
      "note_off channel=0 note=61 velocity=64 time=3\n",
      "note_off channel=6 note=62 velocity=64 time=8\n",
      "note_off channel=1 note=35 velocity=64 time=2\n",
      "note_off channel=6 note=66 velocity=64 time=1\n",
      "note_on channel=9 note=40 velocity=90 time=7\n",
      "note_off channel=9 note=40 velocity=64 time=0\n",
      "note_on channel=9 note=69 velocity=41 time=0\n",
      "note_off channel=9 note=69 velocity=64 time=0\n",
      "note_on channel=1 note=35 velocity=96 time=0\n",
      "note_on channel=9 note=42 velocity=52 time=1\n",
      "note_off channel=9 note=42 velocity=64 time=0\n",
      "note_off channel=7 note=61 velocity=64 time=0\n",
      "note_off channel=0 note=66 velocity=64 time=5\n",
      "note_off channel=0 note=62 velocity=64 time=2\n",
      "note_off channel=0 note=57 velocity=64 time=10\n",
      "note_off channel=6 note=57 velocity=64 time=2\n",
      "note_off channel=3 note=62 velocity=64 time=3\n",
      "note_on channel=9 note=69 velocity=47 time=1\n",
      "note_off channel=9 note=69 velocity=64 time=0\n",
      "note_off channel=1 note=35 velocity=64 time=0\n",
      "note_off channel=4 note=62 velocity=64 time=24\n",
      "note_on channel=9 note=54 velocity=56 time=0\n",
      "note_off channel=9 note=54 velocity=64 time=0\n",
      "note_on channel=1 note=35 velocity=91 time=0\n",
      "<meta message lyrics text='chan-' time=1>\n",
      "note_on channel=3 note=62 velocity=107 time=0\n",
      "note_on channel=4 note=62 velocity=53 time=0\n",
      "note_on channel=9 note=36 velocity=98 time=0\n",
      "note_off channel=9 note=36 velocity=64 time=0\n",
      "note_on channel=9 note=46 velocity=41 time=0\n",
      "note_off channel=9 note=46 velocity=64 time=0\n",
      "note_on channel=9 note=69 velocity=62 time=0\n",
      "note_off channel=9 note=69 velocity=64 time=0\n",
      "note_on channel=0 note=66 velocity=101 time=0\n",
      "note_on channel=0 note=57 velocity=87 time=0\n",
      "note_on channel=0 note=62 velocity=101 time=0\n",
      "note_on channel=6 note=57 velocity=63 time=0\n",
      "note_on channel=6 note=66 velocity=74 time=0\n",
      "note_on channel=6 note=62 velocity=79 time=0\n",
      "note_on channel=9 note=69 velocity=48 time=24\n",
      "note_off channel=9 note=69 velocity=64 time=0\n",
      "note_on channel=9 note=54 velocity=32 time=0\n",
      "note_off channel=9 note=54 velocity=64 time=0\n",
      "note_on channel=9 note=36 velocity=110 time=24\n",
      "note_off channel=9 note=36 velocity=64 time=0\n",
      "note_on channel=9 note=42 velocity=59 time=0\n",
      "note_off channel=9 note=42 velocity=64 time=0\n",
      "note_on channel=9 note=69 velocity=36 time=0\n",
      "note_off channel=9 note=69 velocity=64 time=0\n",
      "note_off channel=1 note=35 velocity=64 time=20\n",
      "note_on channel=1 note=30 velocity=70 time=2\n",
      "note_on channel=9 note=69 velocity=48 time=2\n",
      "note_off channel=9 note=69 velocity=64 time=0\n",
      "note_off channel=1 note=30 velocity=64 time=20\n",
      "note_on channel=1 note=35 velocity=87 time=1\n",
      "note_on channel=9 note=54 velocity=53 time=2\n",
      "note_off channel=9 note=54 velocity=64 time=0\n",
      "note_on channel=9 note=46 velocity=45 time=1\n",
      "note_off channel=9 note=46 velocity=64 time=0\n",
      "note_on channel=9 note=69 velocity=62 time=0\n",
      "note_off channel=9 note=69 velocity=64 time=0\n",
      "note_off channel=1 note=35 velocity=64 time=22\n",
      "note_on channel=1 note=30 velocity=84 time=1\n",
      "note_on channel=9 note=69 velocity=52 time=1\n",
      "note_off channel=9 note=69 velocity=64 time=0\n",
      "note_on channel=9 note=54 velocity=47 time=0\n",
      "note_off channel=9 note=54 velocity=64 time=0\n",
      "note_off channel=6 note=62 velocity=64 time=16\n",
      "note_off channel=6 note=66 velocity=64 time=6\n",
      "note_on channel=9 note=42 velocity=54 time=1\n",
      "note_off channel=9 note=42 velocity=64 time=0\n",
      "note_off channel=1 note=30 velocity=64 time=0\n",
      "note_on channel=1 note=35 velocity=93 time=0\n",
      "note_off channel=6 note=57 velocity=64 time=0\n",
      "note_on channel=9 note=40 velocity=98 time=1\n",
      "note_off channel=9 note=40 velocity=64 time=0\n",
      "note_on channel=9 note=69 velocity=34 time=0\n",
      "note_off channel=9 note=69 velocity=64 time=0\n",
      "note_on channel=9 note=42 velocity=41 time=24\n",
      "note_off channel=9 note=42 velocity=64 time=0\n",
      "note_on channel=9 note=69 velocity=43 time=0\n",
      "note_off channel=9 note=69 velocity=64 time=0\n",
      "note_off channel=0 note=62 velocity=64 time=7\n",
      "note_off channel=0 note=57 velocity=64 time=3\n",
      "note_off channel=0 note=66 velocity=64 time=2\n",
      "note_off channel=1 note=35 velocity=64 time=11\n",
      "note_on channel=1 note=30 velocity=118 time=0\n",
      "note_on channel=9 note=46 velocity=49 time=1\n",
      "note_off channel=9 note=46 velocity=64 time=0\n",
      "note_on channel=9 note=69 velocity=63 time=0\n",
      "note_off channel=9 note=69 velocity=64 time=0\n",
      "note_on channel=9 note=54 velocity=78 time=0\n",
      "note_off channel=9 note=54 velocity=64 time=0\n",
      "note_off channel=3 note=62 velocity=64 time=21\n",
      "<meta message lyrics text='ance, ' time=1>\n",
      "<meta message lyrics text='\\r' time=0>\n",
      "note_on channel=3 note=61 velocity=104 time=0\n",
      "note_off channel=4 note=62 velocity=64 time=0\n",
      "note_on channel=4 note=61 velocity=52 time=0\n",
      "note_on channel=9 note=69 velocity=59 time=2\n",
      "note_off channel=9 note=69 velocity=64 time=0\n",
      "note_on channel=6 note=56 velocity=59 time=0\n",
      "note_on channel=9 note=54 velocity=31 time=1\n",
      "note_off channel=9 note=54 velocity=64 time=0\n",
      "note_off channel=1 note=30 velocity=64 time=19\n",
      "note_off channel=3 note=61 velocity=64 time=2\n",
      "note_on channel=3 note=59 velocity=106 time=1\n",
      "note_off channel=4 note=61 velocity=64 time=0\n",
      "note_on channel=4 note=59 velocity=53 time=0\n",
      "note_on channel=9 note=42 velocity=52 time=0\n",
      "note_off channel=9 note=42 velocity=64 time=0\n",
      "note_on channel=9 note=69 velocity=36 time=0\n",
      "note_off channel=9 note=69 velocity=64 time=0\n",
      "note_on channel=1 note=28 velocity=85 time=0\n",
      "note_on channel=6 note=64 velocity=81 time=0\n",
      "note_on channel=8 note=71 velocity=95 time=0\n",
      "note_on channel=9 note=36 velocity=107 time=1\n",
      "note_off channel=9 note=36 velocity=64 time=0\n",
      "note_on channel=0 note=64 velocity=93 time=0\n",
      "note_on channel=0 note=59 velocity=104 time=0\n",
      "note_on channel=0 note=56 velocity=79 time=0\n",
      "note_on channel=6 note=59 velocity=87 time=0\n",
      "note_off channel=7 note=57 velocity=64 time=0\n",
      "note_off channel=7 note=66 velocity=64 time=0\n",
      "note_off channel=7 note=62 velocity=64 time=0\n",
      "note_on channel=7 note=56 velocity=74 time=0\n",
      "note_on channel=7 note=64 velocity=76 time=0\n",
      "note_on channel=7 note=59 velocity=80 time=0\n",
      "note_on channel=9 note=42 velocity=40 time=23\n",
      "note_off channel=9 note=42 velocity=64 time=0\n",
      "note_on channel=9 note=69 velocity=44 time=1\n",
      "note_off channel=9 note=69 velocity=64 time=0\n",
      "note_on channel=8 note=73 velocity=85 time=2\n",
      "note_off channel=8 note=71 velocity=64 time=3\n",
      "note_off channel=6 note=64 velocity=64 time=4\n",
      "note_off channel=8 note=73 velocity=64 time=8\n",
      "note_off channel=6 note=59 velocity=64 time=4\n",
      "<meta message lyrics text='\\n' time=2>\n",
      "note_on channel=9 note=46 velocity=45 time=0\n",
      "note_off channel=9 note=46 velocity=64 time=0\n",
      "note_on channel=9 note=69 velocity=71 time=1\n",
      "note_off channel=9 note=69 velocity=64 time=0\n",
      "note_on channel=9 note=54 velocity=70 time=0\n",
      "note_off channel=9 note=54 velocity=64 time=0\n",
      "note_off channel=6 note=56 velocity=64 time=2\n",
      "note_on channel=8 note=73 velocity=67 time=0\n",
      "note_off channel=1 note=28 velocity=64 time=1\n",
      "note_off channel=8 note=73 velocity=64 time=11\n",
      "note_on channel=9 note=69 velocity=44 time=9\n",
      "note_off channel=9 note=69 velocity=64 time=0\n",
      "note_on channel=1 note=28 velocity=83 time=0\n",
      "note_on channel=8 note=73 velocity=73 time=0\n",
      "note_on channel=9 note=36 velocity=94 time=1\n",
      "note_off channel=9 note=36 velocity=64 time=0\n",
      "note_on channel=6 note=59 velocity=72 time=0\n",
      "note_on channel=6 note=64 velocity=67 time=0\n",
      "note_on channel=6 note=56 velocity=58 time=0\n",
      "note_on channel=9 note=54 velocity=33 time=1\n",
      "note_off channel=9 note=54 velocity=64 time=0\n",
      "note_off channel=6 note=64 velocity=64 time=8\n",
      "note_off channel=1 note=28 velocity=64 time=3\n",
      "note_off channel=6 note=56 velocity=64 time=0\n",
      "note_off channel=6 note=59 velocity=64 time=0\n",
      "note_off channel=8 note=73 velocity=64 time=0\n",
      "note_on channel=8 note=73 velocity=85 time=10\n",
      "note_on channel=9 note=40 velocity=101 time=1\n",
      "note_off channel=9 note=40 velocity=64 time=0\n",
      "note_on channel=1 note=28 velocity=84 time=0\n",
      "note_on channel=9 note=42 velocity=49 time=1\n",
      "note_off channel=9 note=42 velocity=64 time=0\n",
      "note_on channel=9 note=69 velocity=40 time=0\n",
      "note_off channel=9 note=69 velocity=64 time=0\n",
      "note_off channel=8 note=73 velocity=64 time=21\n",
      "note_on channel=8 note=74 velocity=102 time=1\n",
      "note_off channel=1 note=28 velocity=64 time=1\n",
      "note_on channel=9 note=69 velocity=42 time=1\n",
      "note_off channel=9 note=69 velocity=64 time=0\n",
      "note_off channel=8 note=74 velocity=64 time=12\n",
      "note_off channel=3 note=59 velocity=64 time=7\n",
      "note_on channel=1 note=28 velocity=84 time=3\n",
      "note_on channel=8 note=74 velocity=89 time=0\n",
      "note_on channel=9 note=36 velocity=104 time=2\n",
      "note_off channel=9 note=36 velocity=64 time=0\n",
      "note_on channel=9 note=46 velocity=43 time=0\n",
      "note_off channel=9 note=46 velocity=64 time=0\n",
      "note_on channel=9 note=69 velocity=66 time=0\n",
      "note_off channel=9 note=69 velocity=64 time=0\n",
      "note_on channel=9 note=54 velocity=70 time=0\n",
      "note_off channel=9 note=54 velocity=64 time=0\n",
      "note_on channel=6 note=59 velocity=77 time=1\n",
      "note_on channel=6 note=64 velocity=77 time=0\n",
      "note_on channel=6 note=56 velocity=60 time=0\n",
      "note_off channel=4 note=59 velocity=64 time=11\n",
      "note_off channel=8 note=74 velocity=64 time=2\n",
      "note_on channel=8 note=74 velocity=83 time=6\n",
      "note_on channel=9 note=69 velocity=45 time=4\n",
      "note_off channel=9 note=69 velocity=64 time=0\n",
      "note_on channel=9 note=54 velocity=45 time=0\n",
      "note_off channel=9 note=54 velocity=64 time=0\n",
      "note_off channel=8 note=74 velocity=64 time=11\n",
      "note_on channel=8 note=74 velocity=92 time=12\n",
      "note_on channel=4 note=62 velocity=84 time=1\n",
      "note_on channel=4 note=64 velocity=107 time=0\n",
      "note_on channel=9 note=36 velocity=107 time=0\n",
      "note_off channel=9 note=36 velocity=64 time=0\n",
      "note_on channel=9 note=42 velocity=59 time=0\n",
      "note_off channel=9 note=42 velocity=64 time=0\n",
      "note_on channel=9 note=69 velocity=36 time=0\n",
      "note_off channel=9 note=69 velocity=64 time=0\n",
      "<meta message lyrics text='you ' time=1>\n",
      "note_on channel=3 note=64 velocity=107 time=0\n",
      "note_off channel=1 note=28 velocity=64 time=2\n",
      "note_off channel=8 note=74 velocity=64 time=17\n",
      "note_on channel=8 note=76 velocity=83 time=1\n",
      "note_on channel=9 note=69 velocity=41 time=3\n",
      "note_off channel=9 note=69 velocity=64 time=0\n",
      "note_on channel=1 note=28 velocity=79 time=0\n",
      "note_off channel=8 note=76 velocity=64 time=9\n",
      "note_off channel=1 note=28 velocity=64 time=11\n",
      "note_on channel=1 note=30 velocity=87 time=2\n",
      "note_on channel=8 note=76 velocity=87 time=0\n",
      "note_on channel=9 note=54 velocity=68 time=1\n",
      "note_off channel=9 note=54 velocity=64 time=0\n",
      "note_on channel=9 note=46 velocity=45 time=1\n",
      "note_off channel=9 note=46 velocity=64 time=0\n",
      "note_on channel=9 note=69 velocity=71 time=0\n",
      "note_off channel=9 note=69 velocity=64 time=0\n",
      "note_off channel=8 note=76 velocity=64 time=18\n",
      "note_on channel=8 note=78 velocity=78 time=1\n",
      "note_off channel=4 note=62 velocity=64 time=4\n",
      "note_on channel=9 note=69 velocity=52 time=0\n",
      "note_off channel=9 note=69 velocity=64 time=0\n",
      "note_off channel=4 note=64 velocity=64 time=1\n",
      "note_on channel=4 note=62 velocity=84 time=0\n",
      "note_on channel=4 note=66 velocity=109 time=0\n",
      "note_on channel=9 note=54 velocity=40 time=0\n",
      "note_off channel=9 note=54 velocity=64 time=0\n",
      "<meta message lyrics text='are ' time=1>\n",
      "note_off channel=3 note=64 velocity=64 time=0\n",
      "note_on channel=3 note=66 velocity=109 time=0\n",
      "note_off channel=8 note=78 velocity=64 time=8\n",
      "note_on channel=8 note=78 velocity=90 time=12\n",
      "note_on channel=9 note=42 velocity=54 time=2\n",
      "note_off channel=9 note=42 velocity=64 time=0\n",
      "note_off channel=1 note=30 velocity=64 time=0\n",
      "note_on channel=9 note=40 velocity=102 time=1\n",
      "note_off channel=9 note=40 velocity=64 time=0\n",
      "note_on channel=9 note=69 velocity=56 time=0\n",
      "note_off channel=9 note=69 velocity=64 time=0\n",
      "note_on channel=1 note=32 velocity=103 time=0\n",
      "note_off channel=6 note=56 velocity=64 time=5\n",
      "note_off channel=6 note=59 velocity=64 time=0\n",
      "note_off channel=6 note=64 velocity=64 time=2\n",
      "note_off channel=8 note=78 velocity=64 time=12\n",
      "note_on channel=8 note=80 velocity=65 time=1\n",
      "note_on channel=9 note=42 velocity=40 time=3\n",
      "note_off channel=9 note=42 velocity=64 time=0\n",
      "note_on channel=9 note=69 velocity=44 time=0\n",
      "note_off channel=9 note=69 velocity=64 time=0\n",
      "note_off channel=0 note=56 velocity=64 time=0\n",
      "note_off channel=0 note=59 velocity=64 time=1\n",
      "note_off channel=0 note=64 velocity=64 time=1\n",
      "note_off channel=8 note=80 velocity=64 time=12\n",
      "note_off channel=1 note=32 velocity=64 time=7\n",
      "note_off channel=3 note=66 velocity=64 time=1\n",
      "note_on channel=8 note=80 velocity=73 time=0\n",
      "note_off channel=4 note=62 velocity=64 time=2\n",
      "note_on channel=9 note=69 velocity=69 time=0\n",
      "note_off channel=9 note=69 velocity=64 time=0\n",
      "note_on channel=9 note=54 velocity=68 time=0\n",
      "note_off channel=9 note=54 velocity=64 time=0\n",
      "note_on channel=1 note=28 velocity=84 time=0\n",
      "<meta message lyrics text='the ' time=1>\n",
      "note_on channel=3 note=68 velocity=102 time=0\n",
      "note_off channel=4 note=66 velocity=64 time=0\n",
      "note_on channel=4 note=62 velocity=85 time=0\n",
      "note_on channel=4 note=68 velocity=102 time=0\n",
      "note_on channel=9 note=46 velocity=47 time=0\n",
      "note_off channel=9 note=46 velocity=64 time=0\n",
      "note_off channel=8 note=80 velocity=64 time=11\n",
      "note_on channel=8 note=80 velocity=73 time=9\n",
      "note_on channel=9 note=69 velocity=49 time=3\n",
      "note_off channel=9 note=69 velocity=64 time=0\n",
      "note_on channel=9 note=54 velocity=33 time=1\n",
      "note_off channel=9 note=54 velocity=64 time=0\n",
      "note_off channel=3 note=68 velocity=64 time=9\n",
      "note_off channel=8 note=80 velocity=64 time=9\n",
      "note_off channel=4 note=68 velocity=64 time=5\n",
      "note_off channel=4 note=62 velocity=64 time=0\n",
      "note_off channel=1 note=28 velocity=64 time=0\n",
      "note_on channel=8 note=80 velocity=67 time=0\n",
      "note_off channel=7 note=59 velocity=64 time=0\n",
      "note_off channel=7 note=64 velocity=64 time=0\n",
      "note_off channel=7 note=56 velocity=64 time=0\n",
      "note_on channel=4 note=62 velocity=85 time=1\n",
      "note_on channel=4 note=68 velocity=107 time=0\n",
      "note_on channel=9 note=36 velocity=112 time=0\n",
      "note_off channel=9 note=36 velocity=64 time=0\n",
      "note_on channel=9 note=42 velocity=62 time=0\n",
      "note_off channel=9 note=42 velocity=64 time=0\n",
      "note_on channel=9 note=69 velocity=38 time=0\n",
      "note_off channel=9 note=69 velocity=64 time=0\n",
      "note_on channel=1 note=33 velocity=100 time=0\n",
      "note_on channel=0 note=56 velocity=77 time=0\n",
      "note_on channel=0 note=59 velocity=96 time=0\n",
      "note_on channel=0 note=64 velocity=85 time=0\n",
      "note_on channel=6 note=57 velocity=67 time=0\n",
      "note_on channel=10 note=52 velocity=59 time=0\n",
      "note_on channel=7 note=56 velocity=75 time=0\n",
      "note_on channel=7 note=64 velocity=84 time=0\n",
      "note_on channel=7 note=59 velocity=77 time=0\n",
      "<meta message lyrics text='danc' time=1>\n",
      "note_on channel=3 note=68 velocity=107 time=0\n",
      "note_on channel=6 note=68 velocity=74 time=21\n",
      "note_on channel=6 note=64 velocity=73 time=0\n",
      "note_on channel=9 note=69 velocity=41 time=1\n",
      "note_off channel=9 note=69 velocity=64 time=0\n",
      "note_on channel=9 note=42 velocity=47 time=1\n",
      "note_off channel=9 note=42 velocity=64 time=0\n",
      "note_on channel=10 note=59 velocity=60 time=1\n",
      "note_on channel=10 note=57 velocity=63 time=0\n",
      "note_off channel=6 note=57 velocity=64 time=7\n",
      "note_off channel=6 note=64 velocity=64 time=1\n",
      "note_off channel=10 note=52 velocity=64 time=3\n",
      "note_off channel=10 note=57 velocity=64 time=1\n",
      "note_off channel=10 note=59 velocity=64 time=0\n",
      "note_off channel=6 note=68 velocity=64 time=4\n",
      "note_on channel=6 note=68 velocity=62 time=5\n",
      "note_on channel=9 note=46 velocity=56 time=1\n",
      "note_off channel=9 note=46 velocity=64 time=0\n",
      "note_on channel=9 note=69 velocity=48 time=0\n",
      "note_off channel=9 note=69 velocity=64 time=0\n",
      "note_on channel=6 note=64 velocity=74 time=0\n",
      "note_on channel=10 note=57 velocity=58 time=1\n",
      "note_on channel=10 note=59 velocity=62 time=0\n",
      "note_off channel=1 note=33 velocity=64 time=4\n",
      "note_off channel=0 note=56 velocity=64 time=11\n",
      "note_off channel=3 note=68 velocity=64 time=2\n",
      "note_off channel=0 note=59 velocity=64 time=2\n",
      "note_on channel=9 note=69 velocity=49 time=4\n",
      "note_off channel=9 note=69 velocity=64 time=0\n",
      "note_on channel=6 note=57 velocity=62 time=0\n",
      "note_off channel=4 note=68 velocity=64 time=1\n",
      "note_off channel=4 note=62 velocity=64 time=0\n",
      "note_on channel=4 note=61 velocity=85 time=0\n",
      "note_on channel=4 note=69 velocity=103 time=0\n",
      "note_on channel=9 note=36 velocity=102 time=0\n",
      "note_off channel=9 note=36 velocity=64 time=0\n",
      "note_on channel=1 note=33 velocity=86 time=0\n",
      "note_on channel=10 note=52 velocity=53 time=0\n",
      "note_off channel=7 note=59 velocity=64 time=0\n",
      "note_off channel=7 note=56 velocity=64 time=0\n",
      "note_on channel=7 note=61 velocity=70 time=0\n",
      "note_on channel=7 note=57 velocity=85 time=0\n",
      "<meta message lyrics text='ing ' time=1>\n",
      "note_on channel=3 note=69 velocity=103 time=0\n",
      "note_on channel=0 note=57 velocity=91 time=0\n",
      "note_off channel=8 note=80 velocity=64 time=0\n",
      "note_on channel=0 note=61 velocity=75 time=1\n",
      "note_on channel=8 note=81 velocity=87 time=0\n",
      "note_off channel=10 note=57 velocity=64 time=1\n",
      "note_off channel=10 note=59 velocity=64 time=1\n",
      "note_off channel=6 note=68 velocity=64 time=2\n",
      "note_off channel=6 note=64 velocity=64 time=1\n",
      "note_off channel=1 note=33 velocity=64 time=5\n",
      "note_off channel=6 note=57 velocity=64 time=4\n",
      "note_off channel=10 note=52 velocity=64 time=5\n",
      "note_off channel=0 note=61 velocity=64 time=1\n",
      "note_on channel=9 note=40 velocity=102 time=1\n",
      "note_off channel=9 note=40 velocity=64 time=0\n",
      "note_on channel=9 note=42 velocity=54 time=0\n",
      "note_off channel=9 note=42 velocity=64 time=0\n",
      "note_on channel=9 note=69 velocity=41 time=0\n",
      "note_off channel=9 note=69 velocity=64 time=0\n",
      "note_on channel=1 note=33 velocity=87 time=0\n",
      "note_on channel=6 note=68 velocity=67 time=1\n",
      "note_on channel=6 note=64 velocity=75 time=0\n",
      "note_on channel=10 note=59 velocity=55 time=0\n",
      "note_on channel=10 note=57 velocity=60 time=0\n",
      "note_off channel=0 note=57 velocity=64 time=1\n",
      "note_off channel=0 note=64 velocity=64 time=2\n",
      "note_off channel=6 note=68 velocity=64 time=17\n",
      "note_off channel=3 note=69 velocity=64 time=2\n",
      "note_on channel=9 note=69 velocity=47 time=1\n",
      "note_off channel=9 note=69 velocity=64 time=0\n",
      "note_off channel=10 note=57 velocity=64 time=1\n",
      "note_on channel=10 note=52 velocity=60 time=0\n",
      "note_on channel=6 note=57 velocity=54 time=1\n",
      "note_off channel=10 note=59 velocity=64 time=0\n",
      "note_off channel=6 note=64 velocity=64 time=1\n",
      "note_off channel=1 note=33 velocity=64 time=5\n",
      "note_off channel=8 note=81 velocity=64 time=8\n",
      "note_off channel=6 note=57 velocity=64 time=2\n",
      "note_off channel=10 note=52 velocity=64 time=2\n",
      "note_off channel=4 note=69 velocity=64 time=4\n",
      "note_off channel=4 note=61 velocity=64 time=0\n",
      "note_on channel=9 note=46 velocity=49 time=0\n",
      "note_off channel=9 note=46 velocity=64 time=0\n",
      "note_on channel=1 note=33 velocity=84 time=0\n",
      "note_on channel=4 note=61 velocity=85 time=1\n",
      "note_on channel=4 note=69 velocity=108 time=0\n",
      "note_on channel=9 note=36 velocity=104 time=0\n",
      "note_off channel=9 note=36 velocity=64 time=0\n",
      "note_on channel=9 note=69 velocity=62 time=0\n",
      "note_off channel=9 note=69 velocity=64 time=0\n",
      "note_on channel=0 note=57 velocity=89 time=0\n",
      "note_on channel=0 note=61 velocity=87 time=0\n",
      "note_on channel=0 note=64 velocity=89 time=0\n",
      "note_on channel=6 note=69 velocity=74 time=0\n",
      "note_on channel=10 note=61 velocity=63 time=0\n",
      "note_on channel=10 note=57 velocity=69 time=0\n",
      "<meta message lyrics text='queen, ' time=1>\n",
      "<meta message lyrics text='\\r' time=0>\n",
      "note_on channel=3 note=69 velocity=108 time=0\n",
      "note_on channel=6 note=64 velocity=81 time=0\n",
      "note_on channel=8 note=81 velocity=81 time=6\n",
      "note_off channel=10 note=57 velocity=64 time=9\n",
      "note_off channel=6 note=64 velocity=64 time=1\n",
      "note_off channel=6 note=69 velocity=64 time=2\n",
      "note_on channel=10 note=57 velocity=51 time=4\n",
      "note_on channel=9 note=69 velocity=48 time=1\n",
      "note_off channel=9 note=69 velocity=64 time=0\n",
      "note_on channel=6 note=69 velocity=49 time=0\n",
      "note_on channel=6 note=64 velocity=72 time=1\n",
      "note_off channel=1 note=33 velocity=64 time=21\n",
      "note_on channel=9 note=36 velocity=110 time=2\n",
      "note_off channel=9 note=36 velocity=64 time=0\n",
      "note_on channel=9 note=42 velocity=46 time=0\n",
      "note_off channel=9 note=42 velocity=64 time=0\n",
      "note_on channel=9 note=69 velocity=36 time=0\n",
      "note_off channel=9 note=69 velocity=64 time=0\n",
      "note_off channel=10 note=61 velocity=64 time=0\n",
      "note_on channel=10 note=52 velocity=59 time=0\n",
      "note_on channel=6 note=57 velocity=61 time=1\n",
      "note_off channel=6 note=69 velocity=64 time=1\n",
      "note_off channel=10 note=57 velocity=64 time=2\n",
      "note_off channel=6 note=64 velocity=64 time=1\n",
      "note_off channel=10 note=52 velocity=64 time=6\n",
      "note_off channel=6 note=57 velocity=64 time=4\n",
      "note_on channel=10 note=57 velocity=62 time=7\n",
      "note_on channel=10 note=61 velocity=60 time=0\n",
      "note_on channel=1 note=33 velocity=89 time=1\n",
      "note_on channel=9 note=69 velocity=48 time=1\n",
      "note_off channel=9 note=69 velocity=64 time=0\n",
      "note_on channel=6 note=69 velocity=72 time=0\n",
      "note_on channel=6 note=64 velocity=76 time=1\n",
      "note_off channel=10 note=61 velocity=64 time=11\n",
      "note_off channel=6 note=64 velocity=64 time=3\n",
      "note_off channel=10 note=57 velocity=64 time=2\n",
      "note_off channel=1 note=33 velocity=64 time=2\n",
      "note_on channel=10 note=57 velocity=58 time=2\n",
      "note_on channel=1 note=40 velocity=73 time=1\n",
      "note_on channel=10 note=61 velocity=61 time=0\n",
      "note_on channel=6 note=64 velocity=61 time=1\n",
      "note_on channel=9 note=46 velocity=53 time=1\n",
      "note_off channel=9 note=46 velocity=64 time=0\n",
      "note_on channel=9 note=69 velocity=62 time=0\n",
      "note_off channel=9 note=69 velocity=64 time=0\n",
      "note_off channel=0 note=64 velocity=64 time=19\n",
      "note_off channel=0 note=61 velocity=64 time=0\n",
      "note_off channel=0 note=57 velocity=64 time=0\n",
      "note_off channel=1 note=40 velocity=64 time=3\n",
      "note_on channel=1 note=42 velocity=72 time=1\n",
      "note_on channel=9 note=69 velocity=52 time=1\n",
      "note_off channel=9 note=69 velocity=64 time=0\n",
      "note_on channel=0 note=93 velocity=82 time=1\n",
      "note_on channel=0 note=88 velocity=114 time=0\n",
      "note_on channel=6 note=57 velocity=67 time=0\n",
      "note_on channel=10 note=52 velocity=63 time=0\n",
      "note_on channel=0 note=85 velocity=101 time=1\n",
      "note_off channel=6 note=64 velocity=64 time=6\n",
      "note_off channel=6 note=69 velocity=64 time=0\n",
      "note_off channel=10 note=57 velocity=64 time=0\n",
      "note_off channel=10 note=61 velocity=64 time=2\n",
      "note_off channel=0 note=85 velocity=64 time=2\n",
      "note_off channel=0 note=88 velocity=64 time=0\n",
      "note_off channel=10 note=52 velocity=64 time=0\n",
      "note_off channel=0 note=93 velocity=64 time=3\n",
      "note_off channel=6 note=57 velocity=64 time=3\n",
      "note_off channel=1 note=42 velocity=64 time=2\n",
      "note_on channel=1 note=45 velocity=82 time=3\n",
      "note_on channel=10 note=57 velocity=62 time=0\n",
      "note_on channel=10 note=61 velocity=62 time=0\n",
      "note_on channel=9 note=40 velocity=110 time=1\n",
      "note_off channel=9 note=40 velocity=64 time=0\n",
      "note_on channel=9 note=42 velocity=56 time=0\n",
      "note_off channel=9 note=42 velocity=64 time=0\n",
      "note_on channel=9 note=69 velocity=34 time=0\n",
      "note_off channel=9 note=69 velocity=64 time=0\n",
      "note_on channel=6 note=64 velocity=69 time=0\n",
      "note_on channel=0 note=93 velocity=75 time=1\n",
      "note_on channel=0 note=85 velocity=91 time=0\n",
      "note_on channel=0 note=88 velocity=110 time=0\n",
      "note_on channel=6 note=69 velocity=68 time=0\n",
      "note_off channel=3 note=69 velocity=64 time=22\n",
      "note_on channel=9 note=69 velocity=43 time=1\n",
      "note_off channel=9 note=69 velocity=64 time=0\n",
      "note_off channel=6 note=64 velocity=64 time=3\n",
      "note_off channel=6 note=69 velocity=64 time=13\n",
      "note_off channel=10 note=57 velocity=64 time=4\n",
      "note_on channel=9 note=46 velocity=45 time=4\n",
      "note_off channel=9 note=46 velocity=64 time=0\n",
      "note_on channel=9 note=69 velocity=63 time=0\n",
      "note_off channel=9 note=69 velocity=64 time=0\n",
      "note_off channel=10 note=61 velocity=64 time=2\n",
      "note_on channel=9 note=69 velocity=59 time=22\n",
      "note_off channel=9 note=69 velocity=64 time=0\n",
      "note_off channel=0 note=88 velocity=64 time=16\n",
      "note_off channel=0 note=85 velocity=64 time=2\n",
      "note_off channel=0 note=93 velocity=64 time=1\n",
      "note_off channel=8 note=81 velocity=64 time=1\n",
      "note_on channel=8 note=80 velocity=71 time=1\n",
      "note_on channel=9 note=36 velocity=104 time=2\n",
      "note_off channel=9 note=36 velocity=64 time=0\n",
      "note_on channel=9 note=42 velocity=70 time=0\n",
      "note_off channel=9 note=42 velocity=64 time=0\n",
      "note_on channel=9 note=69 velocity=36 time=0\n",
      "note_off channel=9 note=69 velocity=64 time=0\n",
      "note_off channel=1 note=45 velocity=64 time=0\n",
      "note_on channel=1 note=33 velocity=96 time=0\n",
      "note_on channel=6 note=57 velocity=64 time=0\n",
      "note_on channel=10 note=54 velocity=58 time=0\n",
      "<meta message lyrics text='young ' time=1>\n",
      "note_on channel=3 note=68 velocity=107 time=0\n",
      "note_off channel=4 note=69 velocity=64 time=0\n",
      "note_off channel=4 note=61 velocity=64 time=0\n",
      "note_on channel=4 note=62 velocity=87 time=0\n",
      "note_on channel=4 note=68 velocity=107 time=0\n",
      "note_on channel=0 note=57 velocity=81 time=0\n",
      "note_on channel=0 note=66 velocity=78 time=0\n",
      "note_on channel=0 note=62 velocity=92 time=0\n",
      "note_off channel=7 note=61 velocity=64 time=0\n",
      "note_off channel=7 note=64 velocity=64 time=0\n",
      "note_on channel=7 note=66 velocity=73 time=0\n",
      "note_on channel=7 note=62 velocity=81 time=0\n",
      "note_on channel=6 note=66 velocity=77 time=22\n",
      "note_on channel=6 note=69 velocity=62 time=1\n",
      "note_on channel=9 note=42 velocity=45 time=1\n",
      "note_off channel=9 note=42 velocity=64 time=0\n",
      "note_on channel=9 note=69 velocity=44 time=0\n",
      "note_off channel=9 note=69 velocity=64 time=0\n",
      "note_on channel=10 note=57 velocity=68 time=0\n",
      "note_on channel=10 note=62 velocity=69 time=0\n",
      "note_off channel=6 note=57 velocity=64 time=1\n",
      "note_off channel=10 note=54 velocity=64 time=2\n",
      "note_off channel=6 note=69 velocity=64 time=6\n",
      "note_off channel=6 note=66 velocity=64 time=1\n",
      "note_off channel=10 note=57 velocity=64 time=4\n",
      "note_on channel=6 note=69 velocity=64 time=8\n",
      "note_on channel=6 note=66 velocity=81 time=1\n",
      "note_on channel=10 note=57 velocity=59 time=0\n",
      "note_on channel=9 note=46 velocity=46 time=1\n",
      "note_off channel=9 note=46 velocity=64 time=0\n",
      "note_on channel=9 note=69 velocity=71 time=0\n",
      "note_off channel=9 note=69 velocity=64 time=0\n",
      "note_off channel=1 note=33 velocity=64 time=3\n",
      "note_off channel=0 note=57 velocity=64 time=5\n",
      "note_off channel=0 note=62 velocity=64 time=3\n",
      "note_off channel=0 note=66 velocity=64 time=2\n",
      "note_off channel=3 note=68 velocity=64 time=4\n",
      "note_off channel=8 note=80 velocity=64 time=2\n",
      "note_on channel=8 note=81 velocity=88 time=1\n",
      "note_off channel=4 note=62 velocity=64 time=3\n",
      "note_on channel=9 note=69 velocity=44 time=0\n",
      "note_off channel=9 note=69 velocity=64 time=0\n",
      "note_on channel=1 note=33 velocity=105 time=0\n",
      "note_on channel=6 note=57 velocity=60 time=0\n",
      "note_on channel=10 note=54 velocity=54 time=0\n",
      "<meta message lyrics text='and ' time=1>\n",
      "note_on channel=3 note=69 velocity=104 time=0\n",
      "note_off channel=4 note=68 velocity=64 time=0\n",
      "note_on channel=4 note=62 velocity=87 time=0\n",
      "note_on channel=4 note=69 velocity=104 time=0\n",
      "note_on channel=9 note=36 velocity=107 time=0\n",
      "note_off channel=9 note=36 velocity=64 time=0\n",
      "note_on channel=0 note=62 velocity=92 time=1\n",
      "note_on channel=0 note=57 velocity=82 time=0\n",
      "note_on channel=0 note=66 velocity=71 time=0\n",
      "note_off channel=6 note=66 velocity=64 time=0\n"
     ]
    },
    {
     "name": "stdout",
     "output_type": "stream",
     "text": [
      "note_off channel=10 note=62 velocity=64 time=0\n",
      "note_off channel=10 note=57 velocity=64 time=2\n",
      "note_off channel=6 note=69 velocity=64 time=2\n",
      "note_off channel=10 note=54 velocity=64 time=9\n",
      "note_off channel=1 note=33 velocity=64 time=1\n",
      "note_off channel=6 note=57 velocity=64 time=3\n",
      "note_off channel=0 note=62 velocity=64 time=1\n",
      "note_off channel=0 note=57 velocity=64 time=1\n",
      "note_off channel=0 note=66 velocity=64 time=1\n",
      "note_on channel=6 note=66 velocity=71 time=1\n",
      "note_on channel=10 note=57 velocity=62 time=0\n",
      "note_on channel=9 note=40 velocity=101 time=1\n",
      "note_off channel=9 note=40 velocity=64 time=0\n",
      "note_on channel=1 note=33 velocity=89 time=0\n",
      "note_on channel=6 note=69 velocity=62 time=0\n",
      "note_on channel=10 note=62 velocity=58 time=0\n",
      "note_on channel=9 note=42 velocity=54 time=1\n",
      "note_off channel=9 note=42 velocity=64 time=0\n",
      "note_on channel=9 note=69 velocity=40 time=0\n",
      "note_off channel=9 note=69 velocity=64 time=0\n",
      "note_off channel=3 note=69 velocity=64 time=8\n",
      "note_off channel=6 note=69 velocity=64 time=10\n",
      "note_off channel=6 note=66 velocity=64 time=2\n",
      "note_off channel=10 note=62 velocity=64 time=1\n",
      "note_on channel=6 note=57 velocity=63 time=2\n",
      "note_on channel=10 note=54 velocity=47 time=0\n",
      "note_on channel=9 note=69 velocity=42 time=1\n",
      "note_off channel=9 note=69 velocity=64 time=0\n",
      "note_off channel=10 note=57 velocity=64 time=2\n",
      "note_off channel=1 note=33 velocity=64 time=1\n",
      "note_off channel=8 note=81 velocity=64 time=4\n",
      "note_off channel=10 note=54 velocity=64 time=8\n",
      "note_off channel=6 note=57 velocity=64 time=1\n",
      "note_on channel=1 note=33 velocity=95 time=6\n",
      "<meta message lyrics text='sweet, ' time=1>\n",
      "note_on channel=3 note=69 velocity=108 time=0\n",
      "note_off channel=4 note=69 velocity=64 time=0\n",
      "note_off channel=4 note=62 velocity=64 time=0\n",
      "note_on channel=6 note=66 velocity=71 time=0\n",
      "note_on channel=10 note=62 velocity=76 time=0\n",
      "note_on channel=10 note=57 velocity=63 time=0\n",
      "note_on channel=4 note=69 velocity=108 time=1\n",
      "note_on channel=4 note=62 velocity=87 time=0\n",
      "note_on channel=9 note=36 velocity=101 time=0\n",
      "note_off channel=9 note=36 velocity=64 time=0\n",
      "note_on channel=9 note=46 velocity=40 time=0\n",
      "note_off channel=9 note=46 velocity=64 time=0\n",
      "note_on channel=9 note=69 velocity=66 time=0\n",
      "note_off channel=9 note=69 velocity=64 time=0\n",
      "note_on channel=0 note=57 velocity=89 time=0\n",
      "note_on channel=0 note=66 velocity=80 time=0\n",
      "note_on channel=0 note=62 velocity=99 time=0\n",
      "note_on channel=6 note=69 velocity=63 time=0\n",
      "note_on channel=8 note=81 velocity=79 time=0\n",
      "note_off channel=6 note=69 velocity=64 time=13\n",
      "note_off channel=6 note=66 velocity=64 time=4\n",
      "note_on channel=6 note=66 velocity=53 time=6\n",
      "note_on channel=9 note=69 velocity=45 time=1\n",
      "note_off channel=9 note=69 velocity=64 time=0\n",
      "note_on channel=6 note=69 velocity=59 time=0\n",
      "note_off channel=1 note=33 velocity=64 time=18\n",
      "note_off channel=10 note=62 velocity=64 time=3\n",
      "note_on channel=10 note=54 velocity=54 time=2\n",
      "note_on channel=9 note=36 velocity=101 time=1\n",
      "note_off channel=9 note=36 velocity=64 time=0\n",
      "note_on channel=9 note=42 velocity=54 time=0\n",
      "note_off channel=9 note=42 velocity=64 time=0\n",
      "note_on channel=9 note=69 velocity=36 time=0\n",
      "note_off channel=9 note=69 velocity=64 time=0\n",
      "note_off channel=6 note=69 velocity=64 time=0\n",
      "note_on channel=6 note=57 velocity=61 time=0\n",
      "note_off channel=10 note=57 velocity=64 time=0\n",
      "note_off channel=6 note=66 velocity=64 time=1\n",
      "note_off channel=10 note=54 velocity=64 time=8\n",
      "note_off channel=6 note=57 velocity=64 time=7\n",
      "note_on channel=1 note=33 velocity=76 time=6\n",
      "note_on channel=6 note=69 velocity=63 time=0\n",
      "note_on channel=9 note=40 velocity=94 time=1\n",
      "note_off channel=9 note=40 velocity=64 time=0\n",
      "note_on channel=6 note=66 velocity=68 time=0\n",
      "note_on channel=10 note=57 velocity=60 time=0\n",
      "note_on channel=9 note=69 velocity=41 time=1\n",
      "note_off channel=9 note=69 velocity=64 time=0\n",
      "note_on channel=10 note=62 velocity=74 time=0\n",
      "note_off channel=3 note=69 velocity=64 time=13\n",
      "note_off channel=10 note=57 velocity=64 time=2\n",
      "note_off channel=8 note=81 velocity=64 time=3\n",
      "note_off channel=1 note=33 velocity=64 time=2\n",
      "note_on channel=8 note=83 velocity=81 time=0\n",
      "note_on channel=1 note=28 velocity=69 time=1\n",
      "<meta message lyrics text='on' time=1>\n",
      "note_on channel=3 note=71 velocity=105 time=0\n",
      "note_off channel=4 note=62 velocity=64 time=1\n",
      "note_on channel=10 note=57 velocity=60 time=0\n",
      "note_off channel=4 note=69 velocity=64 time=1\n",
      "note_on channel=4 note=71 velocity=105 time=0\n",
      "note_on channel=4 note=62 velocity=87 time=0\n",
      "note_on channel=9 note=69 velocity=71 time=0\n",
      "note_off channel=9 note=69 velocity=64 time=0\n",
      "note_off channel=0 note=62 velocity=64 time=3\n",
      "note_off channel=0 note=57 velocity=64 time=0\n",
      "note_off channel=0 note=66 velocity=64 time=4\n",
      "note_off channel=1 note=28 velocity=64 time=14\n",
      "note_on channel=1 note=29 velocity=78 time=0\n",
      "note_on channel=9 note=69 velocity=52 time=2\n",
      "note_off channel=9 note=69 velocity=64 time=0\n",
      "note_off channel=6 note=69 velocity=64 time=0\n",
      "note_on channel=0 note=90 velocity=114 time=1\n",
      "note_on channel=0 note=93 velocity=83 time=0\n",
      "note_on channel=0 note=86 velocity=104 time=0\n",
      "note_on channel=6 note=57 velocity=58 time=1\n",
      "note_off channel=10 note=62 velocity=64 time=0\n",
      "note_on channel=10 note=54 velocity=61 time=0\n",
      "note_off channel=6 note=66 velocity=64 time=2\n",
      "note_off channel=10 note=57 velocity=64 time=6\n",
      "note_off channel=0 note=86 velocity=64 time=2\n",
      "note_off channel=0 note=90 velocity=64 time=1\n",
      "note_off channel=0 note=93 velocity=64 time=1\n",
      "note_off channel=10 note=54 velocity=64 time=5\n",
      "note_on channel=9 note=42 velocity=70 time=4\n",
      "note_off channel=9 note=42 velocity=64 time=0\n",
      "note_off channel=1 note=29 velocity=64 time=0\n",
      "note_on channel=1 note=30 velocity=118 time=1\n",
      "note_on channel=6 note=66 velocity=74 time=0\n",
      "note_on channel=6 note=69 velocity=68 time=0\n",
      "note_on channel=9 note=40 velocity=111 time=1\n",
      "note_off channel=9 note=40 velocity=64 time=0\n",
      "note_on channel=0 note=93 velocity=91 time=0\n",
      "note_on channel=0 note=86 velocity=99 time=0\n",
      "note_on channel=0 note=90 velocity=91 time=0\n",
      "note_on channel=10 note=57 velocity=64 time=0\n",
      "note_on channel=10 note=62 velocity=76 time=0\n",
      "note_off channel=6 note=57 velocity=64 time=3\n",
      "note_off channel=1 note=30 velocity=64 time=8\n",
      "note_on channel=9 note=69 velocity=44 time=12\n",
      "note_off channel=9 note=69 velocity=64 time=0\n",
      "note_on channel=1 note=30 velocity=87 time=0\n",
      "note_off channel=10 note=62 velocity=64 time=1\n",
      "note_on channel=10 note=54 velocity=61 time=0\n",
      "note_off channel=6 note=69 velocity=64 time=3\n",
      "note_off channel=6 note=66 velocity=64 time=1\n",
      "note_off channel=10 note=57 velocity=64 time=0\n",
      "note_off channel=10 note=54 velocity=64 time=8\n",
      "note_off channel=3 note=71 velocity=64 time=10\n",
      "note_off channel=1 note=30 velocity=64 time=0\n",
      "<meta message lyrics text='ly ' time=1>\n",
      "note_on channel=3 note=69 velocity=107 time=0\n",
      "note_off channel=4 note=62 velocity=64 time=0\n",
      "note_on channel=9 note=46 velocity=53 time=0\n",
      "note_off channel=9 note=46 velocity=64 time=0\n",
      "note_on channel=9 note=69 velocity=69 time=0\n",
      "note_off channel=9 note=69 velocity=64 time=0\n",
      "note_on channel=1 note=33 velocity=77 time=0\n",
      "note_off channel=4 note=71 velocity=64 time=1\n",
      "note_on channel=4 note=69 velocity=107 time=0\n",
      "note_on channel=4 note=62 velocity=79 time=0\n",
      "note_on channel=6 note=69 velocity=63 time=0\n",
      "note_on channel=6 note=66 velocity=72 time=0\n",
      "note_on channel=10 note=57 velocity=61 time=0\n",
      "note_on channel=10 note=62 velocity=65 time=0\n",
      "note_off channel=8 note=83 velocity=64 time=3\n",
      "note_on channel=8 note=81 velocity=81 time=1\n",
      "note_off channel=10 note=62 velocity=64 time=9\n",
      "note_off channel=10 note=57 velocity=64 time=2\n",
      "note_on channel=9 note=69 velocity=49 time=8\n",
      "note_off channel=9 note=69 velocity=64 time=0\n",
      "note_off channel=1 note=33 velocity=64 time=0\n",
      "note_on channel=1 note=30 velocity=66 time=0\n",
      "note_on channel=10 note=62 velocity=65 time=1\n",
      "note_on channel=10 note=57 velocity=61 time=0\n",
      "note_off channel=6 note=69 velocity=64 time=16\n",
      "note_off channel=6 note=66 velocity=64 time=1\n",
      "note_off channel=7 note=57 velocity=64 time=2\n",
      "note_off channel=0 note=90 velocity=64 time=3\n",
      "note_off channel=0 note=86 velocity=64 time=0\n",
      "note_off channel=3 note=69 velocity=64 time=1\n",
      "note_on channel=9 note=42 velocity=55 time=0\n",
      "note_off channel=9 note=42 velocity=64 time=0\n",
      "note_off channel=1 note=30 velocity=64 time=0\n",
      "note_on channel=1 note=33 velocity=96 time=0\n",
      "note_off channel=0 note=93 velocity=64 time=0\n",
      "<meta message lyrics text='sev' time=1>\n",
      "note_on channel=3 note=68 velocity=108 time=0\n",
      "note_off channel=4 note=62 velocity=64 time=0\n",
      "note_off channel=4 note=69 velocity=64 time=0\n",
      "note_on channel=4 note=61 velocity=78 time=0\n",
      "note_on channel=4 note=68 velocity=108 time=0\n",
      "note_on channel=9 note=36 velocity=112 time=0\n",
      "note_off channel=9 note=36 velocity=64 time=0\n",
      "note_on channel=9 note=69 velocity=35 time=0\n",
      "note_off channel=9 note=69 velocity=64 time=0\n",
      "note_on channel=0 note=56 velocity=75 time=0\n",
      "note_on channel=0 note=64 velocity=83 time=0\n",
      "note_on channel=0 note=59 velocity=101 time=0\n",
      "note_on channel=6 note=57 velocity=59 time=0\n",
      "note_on channel=10 note=52 velocity=58 time=0\n",
      "note_on channel=8 note=80 velocity=65 time=0\n",
      "note_off channel=7 note=62 velocity=64 time=0\n",
      "note_off channel=7 note=66 velocity=64 time=0\n",
      "note_on channel=7 note=59 velocity=84 time=0\n",
      "note_on channel=7 note=64 velocity=79 time=0\n",
      "note_on channel=7 note=68 velocity=75 time=0\n",
      "note_off channel=10 note=57 velocity=64 time=1\n",
      "note_off channel=8 note=81 velocity=64 time=2\n",
      "note_off channel=10 note=62 velocity=64 time=3\n",
      "note_on channel=9 note=42 velocity=47 time=17\n",
      "note_off channel=9 note=42 velocity=64 time=0\n",
      "note_off channel=6 note=57 velocity=64 time=0\n",
      "note_on channel=9 note=69 velocity=43 time=1\n",
      "note_off channel=9 note=69 velocity=64 time=0\n",
      "note_on channel=6 note=68 velocity=65 time=0\n",
      "note_on channel=6 note=64 velocity=76 time=0\n",
      "note_on channel=10 note=59 velocity=59 time=0\n",
      "note_on channel=10 note=57 velocity=55 time=0\n",
      "note_off channel=10 note=57 velocity=64 time=13\n",
      "note_off channel=10 note=52 velocity=64 time=0\n",
      "note_off channel=6 note=64 velocity=64 time=3\n",
      "note_on channel=9 note=46 velocity=42 time=7\n",
      "note_off channel=9 note=46 velocity=64 time=0\n",
      "note_on channel=9 note=69 velocity=74 time=1\n",
      "note_off channel=9 note=69 velocity=64 time=0\n",
      "note_on channel=10 note=57 velocity=59 time=0\n",
      "note_on channel=6 note=64 velocity=81 time=1\n",
      "note_off channel=1 note=33 velocity=64 time=2\n",
      "note_off channel=0 note=59 velocity=64 time=10\n",
      "note_off channel=8 note=80 velocity=64 time=6\n",
      "note_on channel=8 note=81 velocity=87 time=1\n",
      "note_off channel=3 note=68 velocity=64 time=1\n",
      "note_on channel=1 note=33 velocity=84 time=1\n",
      "<meta message lyrics text='en' time=1>\n",
      "note_on channel=3 note=69 velocity=106 time=0\n",
      "note_off channel=4 note=61 velocity=64 time=0\n",
      "note_off channel=0 note=56 velocity=64 time=0\n",
      "note_off channel=4 note=68 velocity=64 time=1\n",
      "note_on channel=4 note=69 velocity=106 time=0\n",
      "note_on channel=4 note=61 velocity=87 time=0\n",
      "note_on channel=9 note=36 velocity=107 time=0\n",
      "note_off channel=9 note=36 velocity=64 time=0\n",
      "note_on channel=9 note=69 velocity=39 time=0\n",
      "note_off channel=9 note=69 velocity=64 time=0\n",
      "note_on channel=0 note=57 velocity=80 time=0\n",
      "note_on channel=0 note=61 velocity=69 time=0\n",
      "note_on channel=6 note=57 velocity=63 time=0\n",
      "note_on channel=10 note=52 velocity=61 time=0\n",
      "note_off channel=7 note=68 velocity=64 time=0\n",
      "note_off channel=7 note=59 velocity=64 time=0\n",
      "note_on channel=7 note=69 velocity=81 time=0\n",
      "note_on channel=7 note=61 velocity=73 time=0\n",
      "note_off channel=6 note=68 velocity=64 time=1\n",
      "note_off channel=10 note=59 velocity=64 time=0\n",
      "note_off channel=6 note=64 velocity=64 time=4\n",
      "note_off channel=10 note=57 velocity=64 time=0\n",
      "note_off channel=1 note=33 velocity=64 time=9\n",
      "note_off channel=10 note=52 velocity=64 time=1\n",
      "note_off channel=6 note=57 velocity=64 time=1\n",
      "note_on channel=1 note=33 velocity=93 time=6\n",
      "note_on channel=9 note=40 velocity=107 time=1\n",
      "note_off channel=9 note=40 velocity=64 time=0\n",
      "note_on channel=9 note=42 velocity=57 time=0\n",
      "note_off channel=9 note=42 velocity=64 time=0\n",
      "note_on channel=6 note=69 velocity=74 time=1\n",
      "note_on channel=6 note=64 velocity=74 time=0\n",
      "note_on channel=10 note=59 velocity=66 time=0\n",
      "note_on channel=10 note=57 velocity=66 time=0\n",
      "note_on channel=9 note=69 velocity=42 time=1\n",
      "note_off channel=9 note=69 velocity=64 time=0\n",
      "note_off channel=3 note=69 velocity=64 time=4\n",
      "note_off channel=0 note=61 velocity=64 time=1\n",
      "note_off channel=0 note=57 velocity=64 time=0\n",
      "note_off channel=0 note=64 velocity=64 time=14\n",
      "note_off channel=6 note=64 velocity=64 time=1\n",
      "note_off channel=10 note=57 velocity=64 time=0\n",
      "note_off channel=6 note=69 velocity=64 time=1\n",
      "note_off channel=10 note=59 velocity=64 time=0\n",
      "note_on channel=6 note=57 velocity=63 time=1\n",
      "note_on channel=10 note=52 velocity=53 time=1\n",
      "note_off channel=8 note=81 velocity=64 time=0\n",
      "note_on channel=9 note=69 velocity=36 time=1\n",
      "note_off channel=9 note=69 velocity=64 time=0\n",
      "note_off channel=1 note=33 velocity=64 time=9\n",
      "note_on channel=8 note=81 velocity=87 time=11\n",
      "note_off channel=6 note=57 velocity=64 time=1\n",
      "<meta message lyrics text='teen. ' time=1>\n",
      "<meta message lyrics text='\\r' time=0>\n",
      "note_on channel=3 note=69 velocity=110 time=0\n",
      "note_off channel=4 note=61 velocity=64 time=0\n",
      "note_off channel=4 note=69 velocity=64 time=0\n",
      "note_on channel=1 note=33 velocity=114 time=0\n",
      "note_on channel=10 note=57 velocity=63 time=0\n",
      "note_on channel=10 note=61 velocity=63 time=0\n",
      "note_on channel=4 note=69 velocity=110 time=1\n",
      "note_on channel=4 note=61 velocity=88 time=0\n",
      "note_on channel=9 note=36 velocity=102 time=0\n",
      "note_off channel=9 note=36 velocity=64 time=0\n",
      "note_on channel=9 note=46 velocity=40 time=0\n",
      "note_off channel=9 note=46 velocity=64 time=0\n",
      "note_on channel=6 note=64 velocity=74 time=0\n",
      "note_on channel=6 note=69 velocity=73 time=0\n",
      "note_on channel=9 note=69 velocity=74 time=1\n",
      "note_off channel=9 note=69 velocity=64 time=0\n",
      "note_on channel=0 note=64 velocity=91 time=0\n",
      "note_on channel=0 note=57 velocity=87 time=0\n",
      "note_on channel=0 note=61 velocity=81 time=0\n",
      "note_off channel=10 note=52 velocity=64 time=0\n",
      "note_off channel=6 note=64 velocity=64 time=11\n",
      "note_off channel=10 note=57 velocity=64 time=3\n",
      "note_off channel=10 note=61 velocity=64 time=2\n",
      "note_on channel=10 note=57 velocity=57 time=6\n",
      "note_on channel=10 note=61 velocity=49 time=0\n",
      "note_on channel=9 note=69 velocity=42 time=1\n",
      "note_off channel=9 note=69 velocity=64 time=0\n",
      "note_on channel=6 note=64 velocity=70 time=0\n",
      "note_off channel=1 note=33 velocity=64 time=23\n",
      "note_off channel=10 note=61 velocity=64 time=0\n",
      "note_off channel=10 note=57 velocity=64 time=0\n",
      "note_on channel=9 note=36 velocity=111 time=1\n",
      "note_off channel=9 note=36 velocity=64 time=0\n",
      "note_on channel=9 note=42 velocity=55 time=0\n",
      "note_off channel=9 note=42 velocity=64 time=0\n",
      "note_on channel=9 note=69 velocity=44 time=0\n",
      "note_off channel=9 note=69 velocity=64 time=0\n",
      "note_off channel=6 note=64 velocity=64 time=0\n",
      "note_off channel=6 note=69 velocity=64 time=0\n",
      "note_on channel=6 note=57 velocity=59 time=0\n",
      "note_on channel=10 note=52 velocity=11 time=3\n",
      "note_off channel=10 note=52 velocity=64 time=8\n",
      "note_off channel=6 note=57 velocity=64 time=5\n",
      "note_on channel=6 note=69 velocity=76 time=6\n",
      "note_on channel=10 note=57 velocity=63 time=0\n",
      "note_on channel=1 note=33 velocity=82 time=1\n",
      "note_on channel=6 note=64 velocity=76 time=0\n",
      "note_on channel=10 note=61 velocity=61 time=0\n",
      "note_on channel=9 note=69 velocity=41 time=1\n",
      "note_off channel=9 note=69 velocity=64 time=0\n",
      "note_off channel=10 note=57 velocity=64 time=10\n",
      "note_off channel=10 note=61 velocity=64 time=3\n",
      "note_off channel=6 note=64 velocity=64 time=1\n",
      "note_off channel=6 note=69 velocity=64 time=0\n",
      "note_off channel=0 note=57 velocity=64 time=3\n",
      "note_off channel=0 note=61 velocity=64 time=4\n",
      "note_on channel=10 note=61 velocity=59 time=1\n",
      "note_on channel=10 note=57 velocity=63 time=0\n",
      "note_off channel=1 note=33 velocity=64 time=1\n",
      "note_on channel=1 note=40 velocity=72 time=0\n",
      "note_off channel=0 note=64 velocity=64 time=0\n",
      "note_on channel=6 note=69 velocity=63 time=0\n",
      "note_on channel=6 note=64 velocity=76 time=0\n",
      "note_on channel=9 note=46 velocity=40 time=1\n",
      "note_off channel=9 note=46 velocity=64 time=0\n",
      "note_on channel=9 note=69 velocity=66 time=0\n",
      "note_off channel=9 note=69 velocity=64 time=0\n",
      "note_off channel=6 note=64 velocity=64 time=19\n",
      "note_on channel=9 note=69 velocity=39 time=4\n",
      "note_off channel=9 note=69 velocity=64 time=0\n",
      "note_off channel=1 note=40 velocity=64 time=0\n",
      "note_on channel=1 note=42 velocity=71 time=1\n",
      "note_on channel=6 note=57 velocity=62 time=0\n",
      "note_off channel=10 note=57 velocity=64 time=0\n",
      "note_on channel=10 note=52 velocity=58 time=0\n",
      "note_on channel=0 note=93 velocity=109 time=2\n",
      "note_on channel=0 note=88 velocity=109 time=0\n",
      "note_on channel=0 note=85 velocity=109 time=0\n",
      "note_off channel=10 note=61 velocity=64 time=0\n",
      "note_off channel=6 note=69 velocity=64 time=4\n",
      "note_off channel=0 note=85 velocity=64 time=4\n",
      "note_off channel=0 note=88 velocity=64 time=0\n",
      "note_off channel=0 note=93 velocity=64 time=1\n",
      "note_off channel=10 note=52 velocity=64 time=9\n",
      "note_off channel=6 note=57 velocity=64 time=1\n",
      "note_off channel=1 note=42 velocity=64 time=1\n",
      "note_on channel=9 note=42 velocity=63 time=1\n",
      "note_off channel=9 note=42 velocity=64 time=0\n",
      "note_on channel=6 note=68 velocity=65 time=0\n",
      "note_on channel=10 note=57 velocity=63 time=0\n",
      "note_on channel=10 note=61 velocity=60 time=0\n",
      "note_on channel=9 note=40 velocity=111 time=1\n",
      "note_off channel=9 note=40 velocity=64 time=0\n",
      "note_on channel=9 note=69 velocity=46 time=0\n",
      "note_off channel=9 note=69 velocity=64 time=0\n",
      "note_on channel=1 note=45 velocity=77 time=0\n",
      "note_on channel=6 note=64 velocity=77 time=0\n",
      "note_off channel=7 note=61 velocity=64 time=0\n",
      "note_off channel=7 note=69 velocity=64 time=0\n",
      "note_on channel=7 note=68 velocity=69 time=0\n",
      "note_on channel=7 note=59 velocity=86 time=0\n",
      "note_on channel=0 note=93 velocity=107 time=1\n",
      "note_on channel=0 note=85 velocity=107 time=0\n",
      "note_on channel=0 note=88 velocity=107 time=0\n",
      "note_off channel=6 note=68 velocity=64 time=21\n",
      "note_off channel=10 note=61 velocity=64 time=0\n",
      "note_off channel=10 note=57 velocity=64 time=1\n",
      "note_on channel=9 note=42 velocity=44 time=1\n",
      "note_off channel=9 note=42 velocity=64 time=0\n",
      "note_on channel=9 note=69 velocity=42 time=0\n",
      "note_off channel=9 note=69 velocity=64 time=0\n",
      "note_off channel=6 note=64 velocity=64 time=0\n",
      "note_on channel=10 note=52 velocity=56 time=0\n",
      "note_off channel=10 note=52 velocity=64 time=12\n",
      "note_off channel=0 note=88 velocity=64 time=9\n",
      "note_off channel=0 note=85 velocity=64 time=1\n",
      "note_on channel=10 note=57 velocity=67 time=1\n",
      "note_on channel=9 note=46 velocity=43 time=1\n",
      "note_off channel=9 note=46 velocity=64 time=0\n",
      "note_on channel=9 note=69 velocity=65 time=0\n",
      "note_off channel=9 note=69 velocity=64 time=0\n",
      "note_off channel=0 note=93 velocity=64 time=0\n",
      "note_on channel=10 note=61 velocity=63 time=0\n",
      "note_on channel=6 note=68 velocity=74 time=1\n",
      "note_on channel=6 note=64 velocity=70 time=0\n",
      "note_off channel=10 note=61 velocity=64 time=16\n",
      "note_off channel=10 note=57 velocity=64 time=3\n",
      "note_on channel=9 note=69 velocity=38 time=3\n",
      "note_off channel=9 note=69 velocity=64 time=0\n",
      "note_on channel=10 note=57 velocity=59 time=1\n",
      "note_on channel=10 note=61 velocity=65 time=1\n",
      "note_on channel=0 note=88 velocity=108 time=1\n",
      "note_on channel=0 note=92 velocity=108 time=0\n",
      "note_on channel=0 note=83 velocity=108 time=0\n",
      "note_off channel=6 note=64 velocity=64 time=2\n",
      "note_off channel=0 note=92 velocity=64 time=8\n",
      "note_off channel=6 note=68 velocity=64 time=1\n",
      "note_off channel=0 note=88 velocity=64 time=1\n",
      "note_off channel=1 note=45 velocity=64 time=3\n",
      "note_off channel=4 note=69 velocity=64 time=6\n",
      "note_on channel=9 note=42 velocity=56 time=0\n",
      "note_off channel=9 note=42 velocity=64 time=0\n",
      "note_on channel=9 note=69 velocity=45 time=0\n",
      "note_off channel=9 note=69 velocity=64 time=0\n",
      "note_on channel=1 note=33 velocity=87 time=0\n",
      "note_off channel=4 note=61 velocity=64 time=1\n",
      "note_on channel=4 note=69 velocity=88 time=0\n",
      "note_on channel=4 note=62 velocity=88 time=0\n",
      "note_on channel=9 note=36 velocity=111 time=0\n",
      "note_off channel=9 note=36 velocity=64 time=0\n",
      "note_off channel=7 note=59 velocity=64 time=0\n",
      "note_off channel=7 note=68 velocity=64 time=0\n",
      "note_off channel=7 note=64 velocity=64 time=0\n",
      "note_on channel=7 note=62 velocity=71 time=0\n",
      "note_on channel=7 note=57 velocity=79 time=0\n",
      "note_on channel=7 note=66 velocity=72 time=0\n",
      "note_on channel=0 note=92 velocity=107 time=1\n",
      "note_on channel=6 note=57 velocity=63 time=0\n",
      "note_on channel=10 note=54 velocity=61 time=0\n",
      "note_on channel=0 note=88 velocity=107 time=1\n",
      "note_off channel=10 note=57 velocity=64 time=5\n",
      "note_off channel=10 note=61 velocity=64 time=3\n",
      "note_off channel=10 note=54 velocity=64 time=12\n",
      "note_on channel=9 note=42 velocity=43 time=2\n",
      "note_off channel=9 note=42 velocity=64 time=0\n",
      "note_on channel=9 note=69 velocity=40 time=0\n",
      "note_off channel=9 note=69 velocity=64 time=0\n",
      "note_on channel=6 note=66 velocity=63 time=0\n",
      "note_on channel=6 note=69 velocity=61 time=1\n",
      "note_on channel=10 note=62 velocity=83 time=0\n",
      "note_on channel=10 note=57 velocity=64 time=0\n",
      "note_off channel=6 note=57 velocity=64 time=3\n",
      "note_off channel=6 note=66 velocity=64 time=11\n",
      "note_off channel=10 note=57 velocity=64 time=1\n",
      "note_on channel=9 note=46 velocity=44 time=7\n",
      "note_off channel=9 note=46 velocity=64 time=0\n",
      "note_on channel=9 note=69 velocity=67 time=1\n",
      "note_off channel=9 note=69 velocity=64 time=0\n",
      "note_off channel=0 note=83 velocity=64 time=0\n",
      "note_on channel=6 note=66 velocity=71 time=0\n",
      "note_off channel=3 note=69 velocity=64 time=1\n",
      "note_on channel=10 note=57 velocity=61 time=0\n",
      "note_off channel=1 note=33 velocity=64 time=2\n",
      "note_off channel=0 note=88 velocity=64 time=0\n",
      "note_off channel=0 note=92 velocity=64 time=1\n",
      "<meta message lyrics text='\\n' time=6>\n",
      "note_off channel=6 note=69 velocity=64 time=7\n",
      "note_off channel=6 note=66 velocity=64 time=2\n",
      "note_on channel=1 note=33 velocity=84 time=3\n",
      "note_on channel=9 note=36 velocity=111 time=2\n",
      "note_off channel=9 note=36 velocity=64 time=0\n",
      "note_on channel=9 note=69 velocity=39 time=0\n",
      "note_off channel=9 note=69 velocity=64 time=0\n",
      "note_on channel=6 note=57 velocity=61 time=0\n",
      "note_on channel=0 note=90 velocity=106 time=1\n",
      "note_on channel=0 note=86 velocity=106 time=0\n",
      "note_on channel=0 note=81 velocity=106 time=0\n",
      "note_off channel=10 note=57 velocity=64 time=0\n",
      "note_on channel=10 note=54 velocity=57 time=0\n",
      "note_off channel=10 note=62 velocity=64 time=2\n",
      "note_off channel=0 note=86 velocity=64 time=8\n",
      "note_off channel=0 note=81 velocity=64 time=1\n",
      "note_off channel=1 note=33 velocity=64 time=1\n",
      "note_off channel=0 note=90 velocity=64 time=0\n",
      "note_off channel=10 note=54 velocity=64 time=4\n",
      "note_on channel=1 note=33 velocity=100 time=5\n",
      "note_on channel=9 note=40 velocity=104 time=2\n",
      "note_off channel=9 note=40 velocity=64 time=0\n",
      "note_on channel=9 note=42 velocity=53 time=0\n",
      "note_off channel=9 note=42 velocity=64 time=0\n",
      "note_on channel=9 note=69 velocity=51 time=0\n",
      "note_off channel=9 note=69 velocity=64 time=0\n",
      "note_on channel=0 note=81 velocity=106 time=0\n",
      "note_on channel=0 note=90 velocity=106 time=0\n",
      "note_on channel=0 note=86 velocity=106 time=0\n",
      "note_on channel=6 note=69 velocity=66 time=0\n",
      "note_on channel=6 note=66 velocity=83 time=0\n",
      "note_off channel=6 note=57 velocity=64 time=1\n",
      "note_on channel=10 note=62 velocity=77 time=0\n",
      "note_on channel=10 note=57 velocity=63 time=0\n",
      "note_off channel=6 note=66 velocity=64 time=12\n",
      "note_off channel=6 note=69 velocity=64 time=2\n",
      "note_off channel=10 note=57 velocity=64 time=4\n",
      "note_off channel=10 note=62 velocity=64 time=4\n",
      "note_on channel=6 note=57 velocity=72 time=1\n",
      "note_on channel=9 note=69 velocity=48 time=1\n",
      "note_off channel=9 note=69 velocity=64 time=0\n",
      "note_off channel=1 note=33 velocity=64 time=9\n",
      "note_off channel=6 note=57 velocity=64 time=7\n",
      "note_on channel=6 note=66 velocity=75 time=5\n",
      "note_on channel=6 note=69 velocity=66 time=0\n",
      "note_on channel=1 note=33 velocity=93 time=1\n",
      "note_on channel=9 note=36 velocity=104 time=1\n",
      "note_off channel=9 note=36 velocity=64 time=0\n",
      "note_on channel=9 note=46 velocity=44 time=0\n",
      "note_off channel=9 note=46 velocity=64 time=0\n",
      "note_on channel=9 note=69 velocity=62 time=0\n",
      "note_off channel=9 note=69 velocity=64 time=0\n",
      "note_on channel=10 note=57 velocity=63 time=0\n",
      "note_on channel=10 note=62 velocity=76 time=0\n",
      "note_off channel=6 note=69 velocity=64 time=11\n",
      "note_off channel=6 note=66 velocity=64 time=1\n",
      "note_off channel=10 note=57 velocity=64 time=1\n",
      "note_off channel=10 note=62 velocity=64 time=3\n",
      "note_on channel=6 note=69 velocity=63 time=7\n",
      "note_on channel=6 note=66 velocity=75 time=0\n",
      "note_on channel=9 note=69 velocity=47 time=1\n",
      "note_off channel=9 note=69 velocity=64 time=0\n",
      "note_on channel=10 note=57 velocity=64 time=0\n",
      "note_on channel=10 note=62 velocity=61 time=1\n",
      "note_off channel=1 note=33 velocity=64 time=17\n",
      "note_off channel=6 note=66 velocity=64 time=4\n",
      "note_off channel=10 note=62 velocity=64 time=1\n",
      "note_off channel=10 note=57 velocity=64 time=0\n",
      "note_on channel=9 note=36 velocity=104 time=1\n",
      "note_off channel=9 note=36 velocity=64 time=0\n",
      "note_on channel=9 note=42 velocity=66 time=0\n",
      "note_off channel=9 note=42 velocity=64 time=0\n",
      "note_on channel=9 note=69 velocity=48 time=0\n",
      "note_off channel=9 note=69 velocity=64 time=0\n",
      "note_off channel=6 note=69 velocity=64 time=0\n",
      "note_on channel=6 note=57 velocity=59 time=0\n",
      "note_on channel=10 note=54 velocity=38 time=3\n",
      "note_off channel=10 note=54 velocity=64 time=15\n",
      "note_on channel=1 note=33 velocity=77 time=4\n",
      "note_off channel=6 note=57 velocity=64 time=0\n",
      "note_on channel=6 note=69 velocity=73 time=1\n",
      "note_on channel=6 note=66 velocity=81 time=0\n",
      "note_on channel=9 note=40 velocity=102 time=1\n",
      "note_off channel=9 note=40 velocity=64 time=0\n",
      "note_on channel=9 note=69 velocity=48 time=0\n",
      "note_off channel=9 note=69 velocity=64 time=0\n",
      "note_on channel=10 note=62 velocity=75 time=0\n",
      "note_on channel=10 note=57 velocity=67 time=0\n",
      "note_off channel=6 note=66 velocity=64 time=11\n",
      "note_off channel=10 note=57 velocity=64 time=3\n",
      "note_off channel=6 note=69 velocity=64 time=1\n",
      "note_off channel=1 note=33 velocity=64 time=7\n",
      "note_on channel=1 note=28 velocity=67 time=0\n",
      "note_on channel=9 note=69 velocity=64 time=2\n",
      "note_off channel=9 note=69 velocity=64 time=0\n",
      "note_on channel=6 note=69 velocity=63 time=0\n",
      "note_on channel=6 note=66 velocity=81 time=0\n",
      "note_on channel=10 note=57 velocity=59 time=0\n",
      "note_off channel=1 note=28 velocity=64 time=22\n",
      "note_on channel=1 note=29 velocity=83 time=0\n",
      "note_off channel=10 note=57 velocity=64 time=1\n",
      "note_off channel=10 note=62 velocity=64 time=0\n",
      "note_on channel=10 note=54 velocity=59 time=0\n",
      "note_on channel=9 note=69 velocity=45 time=1\n",
      "note_off channel=9 note=69 velocity=64 time=0\n",
      "note_off channel=6 note=69 velocity=64 time=0\n",
      "note_on channel=6 note=57 velocity=64 time=0\n",
      "note_off channel=6 note=66 velocity=64 time=3\n",
      "note_off channel=1 note=29 velocity=64 time=19\n",
      "note_on channel=1 note=30 velocity=100 time=1\n",
      "note_on channel=6 note=69 velocity=71 time=0\n",
      "note_on channel=6 note=66 velocity=77 time=0\n",
      "note_off channel=10 note=54 velocity=64 time=0\n",
      "note_on channel=9 note=40 velocity=107 time=1\n",
      "note_off channel=9 note=40 velocity=64 time=0\n",
      "note_on channel=9 note=42 velocity=65 time=0\n",
      "note_off channel=9 note=42 velocity=64 time=0\n",
      "note_on channel=9 note=69 velocity=55 time=0\n",
      "note_off channel=9 note=69 velocity=64 time=0\n",
      "note_on channel=10 note=57 velocity=67 time=0\n",
      "note_on channel=10 note=62 velocity=71 time=0\n",
      "note_off channel=6 note=57 velocity=64 time=1\n",
      "note_off channel=1 note=30 velocity=64 time=14\n",
      "note_off channel=0 note=81 velocity=64 time=1\n",
      "note_off channel=0 note=86 velocity=64 time=2\n",
      "note_off channel=0 note=90 velocity=64 time=1\n",
      "note_off channel=10 note=62 velocity=64 time=1\n",
      "note_off channel=6 note=66 velocity=64 time=1\n",
      "note_off channel=6 note=69 velocity=64 time=0\n",
      "note_off channel=10 note=57 velocity=64 time=1\n",
      "note_on channel=9 note=69 velocity=40 time=2\n",
      "note_off channel=9 note=69 velocity=64 time=0\n",
      "note_on channel=1 note=30 velocity=85 time=0\n",
      "note_on channel=10 note=54 velocity=60 time=0\n",
      "note_off channel=10 note=54 velocity=64 time=11\n",
      "note_off channel=1 note=30 velocity=64 time=9\n",
      "note_on channel=1 note=33 velocity=86 time=3\n",
      "note_on channel=6 note=66 velocity=77 time=0\n",
      "note_on channel=6 note=69 velocity=75 time=0\n",
      "note_on channel=10 note=57 velocity=65 time=0\n",
      "note_on channel=10 note=62 velocity=77 time=0\n",
      "note_on channel=9 note=46 velocity=42 time=1\n",
      "note_off channel=9 note=46 velocity=64 time=0\n",
      "note_on channel=9 note=69 velocity=65 time=0\n",
      "note_off channel=9 note=69 velocity=64 time=0\n",
      "note_off channel=10 note=57 velocity=64 time=15\n",
      "note_off channel=1 note=33 velocity=64 time=8\n",
      "note_on channel=1 note=30 velocity=77 time=0\n",
      "note_on channel=10 note=57 velocity=58 time=0\n",
      "note_on channel=9 note=69 velocity=42 time=1\n",
      "note_off channel=9 note=69 velocity=64 time=0\n",
      "note_off channel=6 note=66 velocity=64 time=11\n",
      "note_off channel=6 note=69 velocity=64 time=1\n",
      "note_off channel=1 note=30 velocity=64 time=7\n",
      "note_off channel=10 note=57 velocity=64 time=0\n",
      "note_off channel=8 note=81 velocity=64 time=2\n",
      "note_on channel=1 note=33 velocity=87 time=1\n",
      "note_on channel=9 note=36 velocity=111 time=1\n",
      "note_off channel=9 note=36 velocity=64 time=0\n",
      "note_off channel=10 note=62 velocity=64 time=0\n",
      "note_on channel=10 note=52 velocity=61 time=0\n",
      "note_on channel=8 note=80 velocity=67 time=0\n",
      "<meta message lyrics text='Danc' time=1>\n",
      "note_on channel=3 note=68 velocity=110 time=0\n",
      "note_off channel=4 note=62 velocity=64 time=0\n",
      "note_off channel=4 note=69 velocity=64 time=0\n",
      "note_on channel=4 note=61 velocity=86 time=0\n",
      "note_on channel=4 note=68 velocity=110 time=0\n",
      "note_on channel=9 note=42 velocity=66 time=0\n",
      "note_off channel=9 note=42 velocity=64 time=0\n",
      "note_on channel=9 note=69 velocity=37 time=0\n",
      "note_off channel=9 note=69 velocity=64 time=0\n",
      "note_on channel=0 note=56 velocity=80 time=0\n",
      "note_on channel=0 note=59 velocity=101 time=0\n",
      "note_on channel=0 note=64 velocity=93 time=0\n",
      "note_on channel=6 note=57 velocity=67 time=0\n",
      "note_off channel=7 note=66 velocity=64 time=0\n",
      "note_off channel=7 note=57 velocity=64 time=0\n",
      "note_off channel=7 note=62 velocity=64 time=0\n",
      "note_on channel=7 note=56 velocity=70 time=0\n",
      "note_on channel=7 note=64 velocity=85 time=0\n",
      "note_on channel=7 note=59 velocity=80 time=0\n",
      "note_on channel=10 note=57 velocity=67 time=22\n",
      "note_on channel=9 note=42 velocity=45 time=1\n",
      "note_off channel=9 note=42 velocity=64 time=0\n",
      "note_on channel=10 note=61 velocity=61 time=0\n",
      "note_on channel=9 note=69 velocity=40 time=1\n",
      "note_off channel=9 note=69 velocity=64 time=0\n",
      "note_off channel=6 note=57 velocity=64 time=0\n",
      "note_on channel=6 note=68 velocity=72 time=0\n",
      "note_on channel=6 note=64 velocity=77 time=0\n",
      "note_off channel=6 note=64 velocity=64 time=12\n",
      "note_off channel=10 note=61 velocity=64 time=0\n",
      "note_off channel=10 note=57 velocity=64 time=0\n",
      "note_off channel=6 note=68 velocity=64 time=2\n",
      "note_off channel=10 note=52 velocity=64 time=2\n",
      "note_on channel=10 note=57 velocity=66 time=6\n",
      "note_on channel=9 note=46 velocity=50 time=1\n",
      "note_off channel=9 note=46 velocity=64 time=0\n",
      "note_on channel=6 note=68 velocity=59 time=0\n",
      "note_on channel=10 note=61 velocity=61 time=0\n",
      "note_on channel=9 note=69 velocity=64 time=1\n",
      "note_off channel=9 note=69 velocity=64 time=0\n",
      "note_off channel=0 note=59 velocity=64 time=0\n",
      "note_on channel=6 note=64 velocity=75 time=0\n",
      "note_off channel=1 note=33 velocity=64 time=2\n",
      "note_off channel=0 note=56 velocity=64 time=9\n",
      "note_off channel=8 note=80 velocity=64 time=7\n",
      "note_on channel=8 note=81 velocity=81 time=1\n",
      "note_off channel=3 note=68 velocity=64 time=1\n",
      "note_on channel=1 note=33 velocity=84 time=1\n",
      "note_off channel=4 note=61 velocity=64 time=2\n",
      "note_off channel=10 note=61 velocity=64 time=0\n",
      "note_on channel=10 note=52 velocity=60 time=0\n",
      "<meta message lyrics text='ing ' time=1>\n",
      "note_on channel=3 note=69 velocity=105 time=0\n",
      "note_off channel=4 note=68 velocity=64 time=0\n",
      "note_on channel=4 note=61 velocity=85 time=0\n",
      "note_on channel=4 note=69 velocity=105 time=0\n",
      "note_on channel=9 note=36 velocity=110 time=0\n",
      "note_off channel=9 note=36 velocity=64 time=0\n",
      "note_on channel=9 note=69 velocity=39 time=0\n",
      "note_off channel=9 note=69 velocity=64 time=0\n",
      "note_on channel=0 note=57 velocity=75 time=0\n",
      "note_on channel=0 note=61 velocity=76 time=0\n",
      "note_off channel=6 note=68 velocity=64 time=0\n",
      "note_on channel=6 note=57 velocity=65 time=0\n",
      "note_off channel=10 note=57 velocity=64 time=0\n",
      "note_off channel=7 note=59 velocity=64 time=0\n",
      "note_off channel=7 note=56 velocity=64 time=0\n",
      "note_on channel=7 note=61 velocity=72 time=0\n",
      "note_on channel=7 note=57 velocity=86 time=0\n",
      "note_off channel=6 note=64 velocity=64 time=3\n",
      "note_off channel=1 note=33 velocity=64 time=10\n",
      "note_off channel=6 note=57 velocity=64 time=3\n",
      "note_off channel=10 note=52 velocity=64 time=3\n",
      "note_on channel=1 note=33 velocity=100 time=2\n",
      "note_on channel=9 note=40 velocity=107 time=2\n",
      "note_off channel=9 note=40 velocity=64 time=0\n",
      "note_on channel=9 note=42 velocity=57 time=0\n",
      "note_off channel=9 note=42 velocity=64 time=0\n",
      "note_on channel=9 note=69 velocity=53 time=1\n",
      "note_off channel=9 note=69 velocity=64 time=0\n",
      "note_on channel=6 note=68 velocity=75 time=0\n",
      "note_on channel=6 note=64 velocity=79 time=0\n",
      "note_on channel=10 note=57 velocity=75 time=0\n",
      "note_on channel=10 note=61 velocity=69 time=0\n",
      "note_off channel=0 note=61 velocity=64 time=2\n",
      "note_off channel=0 note=57 velocity=64 time=2\n",
      "note_off channel=0 note=64 velocity=64 time=1\n",
      "note_off channel=6 note=68 velocity=64 time=14\n",
      "note_off channel=3 note=69 velocity=64 time=1\n",
      "note_off channel=10 note=61 velocity=64 time=0\n",
      "note_off channel=10 note=57 velocity=64 time=0\n",
      "note_off channel=6 note=64 velocity=64 time=2\n",
      "note_on channel=10 note=52 velocity=57 time=0\n",
      "note_on channel=9 note=69 velocity=40 time=2\n",
      "note_off channel=9 note=69 velocity=64 time=0\n",
      "note_on channel=6 note=57 velocity=59 time=0\n",
      "note_off channel=1 note=33 velocity=64 time=17\n",
      "note_off channel=6 note=57 velocity=64 time=0\n",
      "note_off channel=8 note=81 velocity=64 time=5\n",
      "<meta message lyrics text='queen, ' time=1>\n",
      "<meta message lyrics text='\\r' time=0>\n",
      "note_on channel=3 note=69 velocity=109 time=0\n",
      "note_off channel=4 note=69 velocity=64 time=0\n",
      "note_off channel=4 note=61 velocity=64 time=0\n",
      "note_on channel=1 note=33 velocity=108 time=0\n",
      "note_on channel=0 note=57 velocity=93 time=0\n",
      "note_on channel=0 note=64 velocity=93 time=0\n",
      "note_on channel=0 note=61 velocity=85 time=0\n",
      "note_on channel=4 note=69 velocity=109 time=1\n",
      "note_on channel=4 note=61 velocity=85 time=0\n",
      "note_on channel=9 note=36 velocity=102 time=0\n",
      "note_off channel=9 note=36 velocity=64 time=0\n",
      "note_on channel=9 note=46 velocity=42 time=0\n",
      "note_off channel=9 note=46 velocity=64 time=0\n",
      "note_on channel=9 note=69 velocity=63 time=0\n",
      "note_off channel=9 note=69 velocity=64 time=0\n",
      "note_on channel=6 note=69 velocity=74 time=0\n",
      "note_on channel=6 note=64 velocity=79 time=0\n",
      "note_on channel=10 note=57 velocity=68 time=0\n",
      "note_on channel=10 note=61 velocity=62 time=0\n",
      "note_on channel=8 note=81 velocity=78 time=1\n",
      "note_off channel=10 note=52 velocity=64 time=3\n",
      "note_off channel=10 note=57 velocity=64 time=8\n",
      "note_off channel=6 note=64 velocity=64 time=2\n",
      "note_off channel=10 note=61 velocity=64 time=1\n",
      "note_on channel=9 note=69 velocity=39 time=9\n",
      "note_off channel=9 note=69 velocity=64 time=0\n",
      "note_on channel=6 note=64 velocity=76 time=0\n",
      "note_on channel=10 note=57 velocity=62 time=0\n",
      "note_on channel=10 note=61 velocity=56 time=0\n",
      "note_off channel=10 note=57 velocity=64 time=18\n",
      "note_off channel=10 note=61 velocity=64 time=2\n",
      "note_on channel=9 note=36 velocity=111 time=4\n",
      "note_off channel=9 note=36 velocity=64 time=0\n",
      "note_on channel=9 note=42 velocity=54 time=0\n",
      "note_off channel=9 note=42 velocity=64 time=0\n",
      "note_on channel=9 note=69 velocity=39 time=0\n",
      "note_off channel=9 note=69 velocity=64 time=0\n",
      "note_off channel=6 note=64 velocity=64 time=0\n",
      "note_off channel=6 note=69 velocity=64 time=0\n",
      "note_on channel=6 note=57 velocity=58 time=0\n",
      "note_on channel=10 note=52 velocity=58 time=1\n",
      "note_off channel=10 note=52 velocity=64 time=9\n",
      "note_off channel=6 note=57 velocity=64 time=9\n",
      "note_on channel=6 note=69 velocity=75 time=4\n",
      "note_on channel=6 note=64 velocity=81 time=0\n",
      "note_on channel=10 note=57 velocity=74 time=0\n",
      "note_on channel=10 note=61 velocity=65 time=0\n",
      "note_on channel=9 note=69 velocity=46 time=1\n",
      "note_off channel=9 note=69 velocity=64 time=0\n",
      "note_off channel=1 note=33 velocity=64 time=8\n",
      "note_off channel=10 note=61 velocity=64 time=4\n",
      "note_off channel=10 note=57 velocity=64 time=0\n",
      "note_off channel=6 note=64 velocity=64 time=2\n",
      "note_off channel=6 note=69 velocity=64 time=2\n",
      "note_on channel=6 note=69 velocity=69 time=7\n",
      "note_on channel=10 note=57 velocity=61 time=0\n",
      "note_on channel=10 note=61 velocity=60 time=0\n",
      "note_on channel=9 note=46 velocity=40 time=1\n",
      "note_off channel=9 note=46 velocity=64 time=0\n",
      "note_on channel=9 note=69 velocity=64 time=0\n",
      "note_off channel=9 note=69 velocity=64 time=0\n",
      "note_on channel=1 note=40 velocity=82 time=0\n",
      "note_on channel=6 note=64 velocity=71 time=0\n",
      "note_off channel=0 note=61 velocity=64 time=10\n",
      "note_off channel=0 note=64 velocity=64 time=0\n",
      "note_off channel=0 note=57 velocity=64 time=6\n",
      "note_off channel=6 note=69 velocity=64 time=5\n",
      "note_off channel=1 note=40 velocity=64 time=2\n",
      "note_on channel=1 note=42 velocity=72 time=0\n",
      "note_off channel=10 note=57 velocity=64 time=0\n",
      "note_on channel=9 note=69 velocity=44 time=1\n",
      "note_off channel=9 note=69 velocity=64 time=0\n",
      "note_on channel=6 note=57 velocity=59 time=0\n",
      "note_on channel=10 note=52 velocity=58 time=0\n",
      "note_off channel=10 note=61 velocity=64 time=1\n",
      "note_on channel=0 note=93 velocity=81 time=1\n",
      "note_on channel=0 note=88 velocity=118 time=0\n",
      "note_on channel=0 note=85 velocity=106 time=0\n",
      "note_off channel=6 note=64 velocity=64 time=4\n",
      "note_off channel=0 note=85 velocity=64 time=6\n",
      "note_off channel=0 note=88 velocity=64 time=1\n",
      "note_off channel=10 note=52 velocity=64 time=1\n",
      "note_off channel=0 note=93 velocity=64 time=3\n",
      "note_on channel=6 note=64 velocity=75 time=6\n",
      "note_on channel=6 note=69 velocity=75 time=0\n",
      "note_on channel=10 note=57 velocity=65 time=0\n",
      "note_on channel=10 note=61 velocity=61 time=0\n",
      "note_on channel=9 note=40 velocity=107 time=1\n",
      "note_off channel=9 note=40 velocity=64 time=0\n",
      "note_on channel=9 note=42 velocity=61 time=0\n",
      "note_off channel=9 note=42 velocity=64 time=0\n",
      "note_on channel=9 note=69 velocity=46 time=0\n",
      "note_off channel=9 note=69 velocity=64 time=0\n",
      "note_off channel=1 note=42 velocity=64 time=0\n",
      "note_on channel=1 note=45 velocity=86 time=0\n",
      "note_on channel=0 note=93 velocity=80 time=2\n",
      "note_on channel=0 note=85 velocity=83 time=0\n",
      "note_on channel=0 note=88 velocity=101 time=0\n",
      "note_off channel=6 note=57 velocity=64 time=2\n",
      "note_off channel=6 note=69 velocity=64 time=16\n",
      "note_off channel=10 note=61 velocity=64 time=3\n",
      "note_off channel=10 note=57 velocity=64 time=0\n",
      "note_on channel=9 note=69 velocity=38 time=1\n",
      "note_off channel=9 note=69 velocity=64 time=0\n",
      "note_on channel=10 note=52 velocity=58 time=0\n",
      "note_off channel=6 note=64 velocity=64 time=4\n",
      "note_off channel=10 note=52 velocity=64 time=10\n",
      "note_off channel=3 note=69 velocity=64 time=8\n",
      "note_on channel=6 note=64 velocity=68 time=1\n",
      "note_on channel=6 note=69 velocity=77 time=0\n",
      "note_on channel=10 note=57 velocity=72 time=0\n",
      "note_on channel=10 note=61 velocity=65 time=0\n",
      "note_on channel=9 note=46 velocity=43 time=1\n",
      "note_off channel=9 note=46 velocity=64 time=0\n",
      "note_on channel=9 note=69 velocity=65 time=0\n",
      "note_off channel=9 note=69 velocity=64 time=0\n",
      "note_off channel=10 note=61 velocity=64 time=11\n",
      "note_off channel=10 note=57 velocity=64 time=0\n",
      "note_on channel=10 note=57 velocity=65 time=12\n",
      "note_on channel=9 note=69 velocity=37 time=1\n",
      "note_off channel=9 note=69 velocity=64 time=0\n",
      "note_on channel=10 note=61 velocity=61 time=0\n",
      "note_off channel=6 note=69 velocity=64 time=8\n",
      "note_off channel=0 note=88 velocity=64 time=4\n",
      "note_off channel=6 note=64 velocity=64 time=0\n",
      "note_off channel=0 note=85 velocity=64 time=5\n",
      "note_off channel=0 note=93 velocity=64 time=1\n",
      "note_off channel=1 note=45 velocity=64 time=4\n",
      "note_on channel=9 note=42 velocity=65 time=1\n",
      "note_off channel=9 note=42 velocity=64 time=0\n",
      "note_on channel=6 note=57 velocity=61 time=0\n",
      "<meta message lyrics text='feel ' time=1>\n",
      "note_on channel=3 note=68 velocity=110 time=0\n",
      "note_off channel=4 note=61 velocity=64 time=0\n",
      "note_off channel=4 note=69 velocity=64 time=0\n",
      "note_on channel=4 note=62 velocity=86 time=0\n",
      "note_on channel=4 note=68 velocity=110 time=0\n",
      "note_on channel=9 note=36 velocity=110 time=0\n",
      "note_off channel=9 note=36 velocity=64 time=0\n",
      "note_on channel=9 note=69 velocity=39 time=0\n",
      "note_off channel=9 note=69 velocity=64 time=0\n",
      "note_on channel=1 note=33 velocity=91 time=0\n",
      "note_on channel=0 note=57 velocity=83 time=0\n",
      "note_on channel=0 note=66 velocity=71 time=0\n",
      "note_on channel=0 note=62 velocity=85 time=0\n",
      "note_on channel=10 note=54 velocity=58 time=0\n",
      "note_off channel=7 note=61 velocity=64 time=0\n",
      "note_off channel=7 note=64 velocity=64 time=0\n",
      "note_on channel=7 note=66 velocity=73 time=0\n",
      "note_on channel=7 note=62 velocity=84 time=0\n",
      "note_off channel=8 note=81 velocity=64 time=1\n",
      "note_off channel=10 note=57 velocity=64 time=1\n",
      "note_on channel=8 note=80 velocity=69 time=0\n",
      "note_off channel=10 note=61 velocity=64 time=1\n",
      "note_off channel=10 note=54 velocity=64 time=19\n",
      "note_on channel=9 note=42 velocity=44 time=1\n",
      "note_off channel=9 note=42 velocity=64 time=0\n",
      "note_on channel=6 note=66 velocity=67 time=0\n",
      "note_on channel=9 note=69 velocity=39 time=1\n",
      "note_off channel=9 note=69 velocity=64 time=0\n",
      "note_on channel=6 note=69 velocity=60 time=0\n",
      "note_on channel=10 note=62 velocity=76 time=0\n",
      "note_on channel=10 note=57 velocity=65 time=0\n",
      "note_off channel=6 note=57 velocity=64 time=7\n",
      "note_off channel=6 note=69 velocity=64 time=3\n",
      "note_off channel=10 note=57 velocity=64 time=2\n",
      "note_off channel=6 note=66 velocity=64 time=1\n",
      "note_off channel=10 note=62 velocity=64 time=4\n",
      "note_off channel=0 note=57 velocity=64 time=2\n",
      "note_on channel=9 note=69 velocity=67 time=4\n",
      "note_off channel=9 note=69 velocity=64 time=0\n",
      "note_on channel=6 note=66 velocity=67 time=0\n",
      "note_on channel=6 note=69 velocity=62 time=0\n",
      "note_on channel=9 note=46 velocity=54 time=1\n",
      "note_off channel=9 note=46 velocity=64 time=0\n",
      "note_off channel=0 note=62 velocity=64 time=0\n",
      "note_on channel=10 note=57 velocity=65 time=0\n",
      "note_on channel=10 note=62 velocity=69 time=1\n",
      "note_off channel=0 note=66 velocity=64 time=3\n",
      "note_off channel=1 note=33 velocity=64 time=2\n",
      "note_off channel=8 note=80 velocity=64 time=14\n",
      "note_off channel=3 note=68 velocity=64 time=1\n",
      "note_on channel=8 note=81 velocity=87 time=0\n",
      "note_off channel=10 note=57 velocity=64 time=1\n",
      "note_off channel=4 note=62 velocity=64 time=1\n",
      "note_on channel=9 note=69 velocity=42 time=0\n",
      "note_off channel=9 note=69 velocity=64 time=0\n",
      "note_on channel=1 note=33 velocity=79 time=0\n",
      "note_off channel=6 note=69 velocity=64 time=0\n",
      "note_off channel=6 note=66 velocity=64 time=0\n",
      "note_on channel=10 note=54 velocity=60 time=0\n",
      "<meta message lyrics text='the ' time=1>\n",
      "note_on channel=3 note=69 velocity=105 time=0\n",
      "note_off channel=4 note=68 velocity=64 time=0\n",
      "note_on channel=4 note=62 velocity=87 time=0\n",
      "note_on channel=4 note=69 velocity=105 time=0\n",
      "note_on channel=9 note=36 velocity=102 time=0\n",
      "note_off channel=9 note=36 velocity=64 time=0\n",
      "note_on channel=6 note=57 velocity=61 time=0\n",
      "note_on channel=0 note=57 velocity=83 time=1\n",
      "note_on channel=0 note=62 velocity=87 time=0\n",
      "note_on channel=0 note=66 velocity=76 time=0\n",
      "note_off channel=10 note=62 velocity=64 time=0\n",
      "note_off channel=1 note=33 velocity=64 time=14\n",
      "note_off channel=10 note=54 velocity=64 time=2\n",
      "note_off channel=6 note=57 velocity=64 time=3\n",
      "note_off channel=0 note=62 velocity=64 time=2\n",
      "note_on channel=9 note=40 velocity=107 time=1\n",
      "note_off channel=9 note=40 velocity=64 time=0\n",
      "note_on channel=1 note=33 velocity=87 time=0\n",
      "note_on channel=6 note=69 velocity=74 time=0\n",
      "note_on channel=9 note=42 velocity=56 time=1\n",
      "note_off channel=9 note=42 velocity=64 time=0\n",
      "note_on channel=9 note=69 velocity=49 time=0\n",
      "note_off channel=9 note=69 velocity=64 time=0\n",
      "note_off channel=0 note=66 velocity=64 time=0\n",
      "note_off channel=0 note=57 velocity=64 time=0\n",
      "note_on channel=6 note=66 velocity=77 time=0\n",
      "note_on channel=10 note=62 velocity=75 time=0\n",
      "note_on channel=10 note=57 velocity=64 time=0\n",
      "note_off channel=3 note=69 velocity=64 time=16\n",
      "note_off channel=6 note=66 velocity=64 time=4\n",
      "note_off channel=10 note=62 velocity=64 time=0\n",
      "note_off channel=10 note=57 velocity=64 time=1\n",
      "note_off channel=6 note=69 velocity=64 time=2\n",
      "note_on channel=9 note=69 velocity=47 time=1\n",
      "note_off channel=9 note=69 velocity=64 time=0\n",
      "note_on channel=6 note=57 velocity=63 time=0\n",
      "note_on channel=10 note=54 velocity=58 time=1\n",
      "note_off channel=8 note=81 velocity=64 time=2\n",
      "note_off channel=1 note=33 velocity=64 time=4\n",
      "note_off channel=10 note=54 velocity=64 time=6\n",
      "note_off channel=6 note=57 velocity=64 time=5\n",
      "note_off channel=4 note=69 velocity=64 time=5\n",
      "note_off channel=4 note=62 velocity=64 time=0\n",
      "note_on channel=1 note=33 velocity=89 time=0\n",
      "note_on channel=6 note=69 velocity=66 time=0\n",
      "note_on channel=6 note=66 velocity=72 time=0\n",
      "note_on channel=10 note=57 velocity=62 time=0\n",
      "<meta message lyrics text='beat ' time=1>\n",
      "note_on channel=3 note=69 velocity=109 time=0\n",
      "note_on channel=4 note=62 velocity=87 time=0\n",
      "note_on channel=4 note=69 velocity=109 time=0\n",
      "note_on channel=9 note=36 velocity=107 time=0\n",
      "note_off channel=9 note=36 velocity=64 time=0\n",
      "note_on channel=9 note=46 velocity=43 time=0\n",
      "note_off channel=9 note=46 velocity=64 time=0\n",
      "note_on channel=9 note=69 velocity=69 time=0\n",
      "note_off channel=9 note=69 velocity=64 time=0\n",
      "note_on channel=0 note=57 velocity=89 time=0\n",
      "note_on channel=0 note=66 velocity=81 time=0\n",
      "note_on channel=0 note=62 velocity=99 time=0\n",
      "note_on channel=10 note=62 velocity=75 time=0\n",
      "note_on channel=8 note=81 velocity=81 time=0\n",
      "note_off channel=10 note=57 velocity=64 time=12\n",
      "note_off channel=6 note=66 velocity=64 time=2\n",
      "note_off channel=10 note=62 velocity=64 time=1\n",
      "note_off channel=6 note=69 velocity=64 time=1\n",
      "note_on channel=6 note=69 velocity=64 time=7\n",
      "note_on channel=10 note=62 velocity=62 time=0\n",
      "note_on channel=9 note=69 velocity=49 time=1\n",
      "note_off channel=9 note=69 velocity=64 time=0\n",
      "note_on channel=6 note=66 velocity=76 time=0\n",
      "note_on channel=10 note=57 velocity=63 time=0\n",
      "note_off channel=10 note=57 velocity=64 time=17\n",
      "note_off channel=1 note=33 velocity=64 time=3\n",
      "note_off channel=10 note=62 velocity=64 time=0\n",
      "note_off channel=6 note=66 velocity=64 time=3\n",
      "note_off channel=6 note=69 velocity=64 time=0\n",
      "note_on channel=9 note=36 velocity=111 time=1\n",
      "note_off channel=9 note=36 velocity=64 time=0\n",
      "note_on channel=9 note=42 velocity=63 time=0\n",
      "note_off channel=9 note=42 velocity=64 time=0\n",
      "note_on channel=9 note=69 velocity=50 time=0\n",
      "note_off channel=9 note=69 velocity=64 time=0\n",
      "note_on channel=6 note=57 velocity=59 time=0\n",
      "note_on channel=10 note=54 velocity=60 time=0\n",
      "note_off channel=6 note=57 velocity=64 time=13\n",
      "note_off channel=10 note=54 velocity=64 time=1\n",
      "note_on channel=1 note=33 velocity=77 time=8\n",
      "note_on channel=6 note=69 velocity=71 time=0\n",
      "note_on channel=6 note=66 velocity=77 time=0\n",
      "note_on channel=10 note=62 velocity=74 time=0\n",
      "note_on channel=10 note=57 velocity=71 time=0\n",
      "note_on channel=9 note=69 velocity=46 time=2\n",
      "note_off channel=9 note=69 velocity=64 time=0\n",
      "note_off channel=10 note=57 velocity=64 time=10\n",
      "note_off channel=6 note=66 velocity=64 time=1\n",
      "note_off channel=10 note=62 velocity=64 time=4\n",
      "note_off channel=3 note=69 velocity=64 time=1\n",
      "note_off channel=6 note=69 velocity=64 time=0\n",
      "note_off channel=1 note=33 velocity=64 time=5\n",
      "note_on channel=1 note=28 velocity=69 time=0\n",
      "note_off channel=4 note=62 velocity=64 time=2\n",
      "note_on channel=6 note=66 velocity=73 time=0\n",
      "note_on channel=6 note=69 velocity=65 time=0\n",
      "note_on channel=10 note=57 velocity=64 time=0\n",
      "note_on channel=10 note=62 velocity=75 time=0\n",
      "note_off channel=8 note=81 velocity=64 time=0\n",
      "<meta message lyrics text='from ' time=1>\n",
      "note_on channel=3 note=71 velocity=107 time=0\n",
      "note_off channel=4 note=69 velocity=64 time=0\n",
      "note_on channel=4 note=62 velocity=87 time=0\n",
      "note_on channel=4 note=71 velocity=107 time=0\n",
      "note_on channel=9 note=46 velocity=43 time=0\n",
      "note_off channel=9 note=46 velocity=64 time=0\n",
      "note_on channel=9 note=69 velocity=71 time=0\n",
      "note_off channel=9 note=69 velocity=64 time=0\n",
      "note_on channel=8 note=83 velocity=85 time=0\n",
      "note_off channel=0 note=57 velocity=64 time=12\n",
      "note_off channel=0 note=62 velocity=64 time=5\n",
      "note_off channel=0 note=66 velocity=64 time=0\n",
      "note_off channel=1 note=28 velocity=64 time=4\n",
      "note_off channel=6 note=66 velocity=64 time=0\n",
      "note_on channel=1 note=29 velocity=82 time=1\n",
      "note_on channel=6 note=57 velocity=60 time=0\n",
      "note_off channel=10 note=62 velocity=64 time=0\n",
      "note_off channel=6 note=69 velocity=64 time=1\n",
      "note_on channel=9 note=69 velocity=40 time=1\n",
      "note_off channel=9 note=69 velocity=64 time=0\n",
      "note_on channel=0 note=90 velocity=106 time=0\n",
      "note_on channel=0 note=93 velocity=106 time=0\n",
      "note_on channel=0 note=86 velocity=106 time=0\n",
      "note_on channel=10 note=54 velocity=52 time=0\n",
      "note_off channel=10 note=57 velocity=64 time=2\n",
      "note_off channel=0 note=86 velocity=64 time=9\n",
      "note_off channel=0 note=93 velocity=64 time=2\n",
      "note_off channel=0 note=90 velocity=64 time=1\n",
      "note_off channel=10 note=54 velocity=64 time=5\n",
      "note_off channel=1 note=29 velocity=64 time=3\n",
      "note_on channel=6 note=66 velocity=76 time=0\n",
      "note_on channel=9 note=42 velocity=61 time=1\n",
      "note_off channel=9 note=42 velocity=64 time=0\n",
      "note_on channel=1 note=30 velocity=96 time=0\n",
      "note_on channel=6 note=69 velocity=71 time=0\n",
      "note_on channel=9 note=40 velocity=110 time=1\n",
      "note_off channel=9 note=40 velocity=64 time=0\n",
      "note_on channel=9 note=69 velocity=52 time=0\n",
      "note_off channel=9 note=69 velocity=64 time=0\n",
      "note_on channel=0 note=93 velocity=105 time=0\n",
      "note_on channel=0 note=86 velocity=105 time=0\n",
      "note_on channel=0 note=90 velocity=105 time=0\n",
      "note_on channel=10 note=57 velocity=71 time=0\n",
      "note_on channel=10 note=62 velocity=71 time=0\n",
      "note_off channel=1 note=30 velocity=64 time=15\n",
      "note_off channel=6 note=57 velocity=64 time=5\n",
      "note_off channel=10 note=62 velocity=64 time=0\n",
      "note_off channel=8 note=83 velocity=64 time=0\n",
      "note_on channel=8 note=81 velocity=73 time=1\n",
      "note_on channel=1 note=30 velocity=81 time=2\n",
      "note_on channel=10 note=54 velocity=65 time=0\n",
      "note_on channel=9 note=42 velocity=43 time=1\n",
      "note_off channel=9 note=42 velocity=64 time=0\n",
      "note_on channel=9 note=69 velocity=43 time=0\n",
      "note_off channel=9 note=69 velocity=64 time=0\n",
      "note_off channel=10 note=57 velocity=64 time=0\n",
      "note_off channel=6 note=69 velocity=64 time=1\n",
      "note_off channel=6 note=66 velocity=64 time=0\n",
      "note_off channel=10 note=54 velocity=64 time=14\n",
      "note_off channel=3 note=71 velocity=64 time=5\n",
      "note_off channel=1 note=30 velocity=64 time=1\n",
      "<meta message lyrics text='the ' time=1>\n",
      "note_on channel=3 note=69 velocity=107 time=0\n",
      "note_on channel=1 note=33 velocity=77 time=1\n",
      "note_on channel=6 note=69 velocity=74 time=0\n",
      "note_on channel=6 note=66 velocity=67 time=0\n",
      "note_on channel=10 note=57 velocity=63 time=0\n",
      "note_off channel=4 note=71 velocity=64 time=1\n",
      "note_off channel=4 note=62 velocity=64 time=0\n",
      "note_on channel=4 note=69 velocity=107 time=0\n",
      "note_on channel=4 note=59 velocity=88 time=0\n",
      "note_on channel=9 note=46 velocity=45 time=0\n",
      "note_off channel=9 note=46 velocity=64 time=0\n",
      "note_on channel=9 note=69 velocity=64 time=0\n",
      "note_off channel=9 note=69 velocity=64 time=0\n",
      "note_on channel=10 note=62 velocity=64 time=0\n",
      "note_off channel=10 note=62 velocity=64 time=8\n",
      "note_off channel=10 note=57 velocity=64 time=4\n",
      "note_off channel=1 note=33 velocity=64 time=11\n",
      "note_on channel=1 note=30 velocity=95 time=0\n",
      "note_on channel=10 note=57 velocity=60 time=0\n",
      "note_on channel=9 note=69 velocity=43 time=1\n",
      "note_off channel=9 note=69 velocity=64 time=0\n",
      "note_on channel=10 note=62 velocity=67 time=0\n",
      "note_off channel=0 note=90 velocity=64 time=3\n",
      "note_off channel=0 note=86 velocity=64 time=0\n",
      "note_off channel=0 note=93 velocity=64 time=0\n",
      "note_off channel=6 note=69 velocity=64 time=5\n",
      "note_off channel=6 note=66 velocity=64 time=4\n",
      "note_off channel=10 note=57 velocity=64 time=7\n",
      "note_off channel=10 note=62 velocity=64 time=2\n",
      "note_on channel=9 note=36 velocity=110 time=2\n",
      "note_off channel=9 note=36 velocity=64 time=0\n",
      "note_on channel=9 note=42 velocity=65 time=0\n",
      "note_off channel=9 note=42 velocity=64 time=0\n",
      "note_off channel=1 note=30 velocity=64 time=0\n",
      "note_on channel=1 note=33 velocity=78 time=0\n",
      "note_on channel=0 note=56 velocity=73 time=0\n",
      "note_on channel=0 note=64 velocity=78 time=0\n",
      "note_off channel=8 note=81 velocity=64 time=0\n",
      "<meta message lyrics text='tam' time=1>\n",
      "note_off channel=3 note=69 velocity=64 time=0\n",
      "note_on channel=3 note=71 velocity=110 time=0\n",
      "note_off channel=4 note=59 velocity=64 time=0\n",
      "note_off channel=4 note=69 velocity=64 time=0\n",
      "note_on channel=4 note=68 velocity=79 time=0\n",
      "note_on channel=4 note=64 velocity=88 time=0\n",
      "note_on channel=4 note=71 velocity=110 time=0\n",
      "note_on channel=6 note=57 velocity=79 time=0\n",
      "note_on channel=8 note=83 velocity=81 time=0\n",
      "note_off channel=7 note=62 velocity=64 time=0\n",
      "note_off channel=7 note=66 velocity=64 time=0\n",
      "note_off channel=7 note=57 velocity=64 time=0\n",
      "note_on channel=7 note=59 velocity=81 time=0\n",
      "note_on channel=7 note=68 velocity=74 time=0\n",
      "note_on channel=7 note=64 velocity=82 time=0\n",
      "note_on channel=9 note=69 velocity=47 time=1\n",
      "note_off channel=9 note=69 velocity=64 time=0\n",
      "note_off channel=6 note=57 velocity=64 time=11\n",
      "note_on channel=10 note=59 velocity=71 time=11\n",
      "note_on channel=10 note=64 velocity=64 time=0\n",
      "note_on channel=9 note=42 velocity=45 time=1\n",
      "note_off channel=9 note=42 velocity=64 time=0\n",
      "note_on channel=6 note=68 velocity=58 time=0\n",
      "note_on channel=6 note=64 velocity=71 time=0\n",
      "note_on channel=9 note=69 velocity=45 time=1\n",
      "note_off channel=9 note=69 velocity=64 time=0\n",
      "note_off channel=10 note=59 velocity=64 time=11\n",
      "note_off channel=6 note=64 velocity=64 time=2\n",
      "note_off channel=10 note=64 velocity=64 time=0\n",
      "note_on channel=9 note=46 velocity=51 time=9\n",
      "note_off channel=9 note=46 velocity=64 time=0\n",
      "note_on channel=10 note=59 velocity=61 time=0\n",
      "note_on channel=10 note=64 velocity=64 time=0\n",
      "note_on channel=9 note=69 velocity=66 time=1\n",
      "note_off channel=9 note=69 velocity=64 time=0\n",
      "note_on channel=6 note=64 velocity=85 time=0\n",
      "note_off channel=1 note=33 velocity=64 time=5\n",
      "note_off channel=0 note=56 velocity=64 time=9\n",
      "note_off channel=0 note=64 velocity=64 time=5\n",
      "note_off channel=8 note=83 velocity=64 time=3\n",
      "note_off channel=4 note=64 velocity=64 time=1\n",
      "note_on channel=9 note=36 velocity=107 time=0\n",
      "note_off channel=9 note=36 velocity=64 time=0\n",
      "note_on channel=1 note=33 velocity=71 time=0\n",
      "note_off channel=10 note=64 velocity=64 time=0\n",
      "note_off channel=10 note=59 velocity=64 time=0\n",
      "note_off channel=3 note=71 velocity=64 time=1\n",
      "note_off channel=4 note=71 velocity=64 time=0\n",
      "note_off channel=4 note=68 velocity=64 time=0\n",
      "note_on channel=4 note=69 velocity=87 time=0\n",
      "note_on channel=4 note=64 velocity=88 time=0\n",
      "note_on channel=4 note=73 velocity=109 time=0\n",
      "note_on channel=9 note=69 velocity=43 time=0\n",
      "note_off channel=9 note=69 velocity=64 time=0\n",
      "note_on channel=10 note=56 velocity=58 time=0\n",
      "note_off channel=7 note=68 velocity=64 time=0\n",
      "note_off channel=7 note=59 velocity=64 time=0\n",
      "note_on channel=7 note=69 velocity=77 time=0\n",
      "note_on channel=7 note=61 velocity=73 time=0\n",
      "<meta message lyrics text='bou' time=1>\n",
      "note_on channel=3 note=73 velocity=109 time=0\n",
      "note_on channel=0 note=61 velocity=75 time=0\n",
      "note_on channel=0 note=64 velocity=89 time=0\n",
      "note_on channel=6 note=57 velocity=64 time=0\n",
      "note_on channel=8 note=85 velocity=68 time=0\n",
      "note_off channel=6 note=64 velocity=64 time=3\n",
      "note_off channel=6 note=68 velocity=64 time=4\n",
      "note_off channel=6 note=57 velocity=64 time=4\n",
      "note_off channel=1 note=33 velocity=64 time=4\n",
      "note_on channel=9 note=40 velocity=104 time=6\n",
      "note_off channel=9 note=40 velocity=64 time=0\n",
      "note_off channel=10 note=56 velocity=64 time=1\n",
      "note_on channel=10 note=59 velocity=72 time=0\n",
      "note_on channel=10 note=64 velocity=70 time=0\n",
      "note_on channel=9 note=42 velocity=63 time=1\n",
      "note_off channel=9 note=42 velocity=64 time=0\n",
      "note_on channel=9 note=69 velocity=50 time=0\n",
      "note_off channel=9 note=69 velocity=64 time=0\n",
      "note_on channel=1 note=33 velocity=97 time=0\n",
      "note_on channel=6 note=68 velocity=65 time=0\n",
      "note_on channel=6 note=64 velocity=79 time=0\n",
      "note_off channel=3 note=73 velocity=64 time=3\n",
      "note_off channel=0 note=64 velocity=64 time=1\n",
      "note_off channel=0 note=61 velocity=64 time=0\n",
      "note_off channel=10 note=59 velocity=64 time=7\n",
      "note_off channel=6 note=64 velocity=64 time=3\n",
      "note_off channel=10 note=64 velocity=64 time=1\n",
      "note_off channel=6 note=68 velocity=64 time=1\n",
      "note_on channel=10 note=56 velocity=56 time=6\n",
      "note_on channel=6 note=57 velocity=68 time=1\n",
      "note_on channel=9 note=69 velocity=46 time=1\n",
      "note_off channel=9 note=69 velocity=64 time=0\n",
      "note_off channel=1 note=33 velocity=64 time=6\n",
      "note_off channel=6 note=57 velocity=64 time=7\n",
      "note_off channel=8 note=85 velocity=64 time=3\n",
      "note_on channel=10 note=59 velocity=75 time=6\n",
      "note_on channel=10 note=64 velocity=73 time=0\n",
      "note_off channel=4 note=73 velocity=64 time=1\n",
      "note_off channel=4 note=64 velocity=64 time=0\n",
      "note_off channel=4 note=69 velocity=64 time=0\n",
      "note_on channel=9 note=36 velocity=107 time=0\n",
      "note_off channel=9 note=36 velocity=64 time=0\n",
      "note_on channel=1 note=33 velocity=86 time=0\n",
      "note_on channel=6 note=64 velocity=79 time=0\n",
      "note_on channel=6 note=68 velocity=62 time=0\n",
      "note_on channel=4 note=69 velocity=90 time=1\n",
      "note_on channel=4 note=64 velocity=88 time=0\n",
      "note_on channel=4 note=73 velocity=110 time=0\n",
      "note_on channel=9 note=46 velocity=47 time=0\n",
      "note_off channel=9 note=46 velocity=64 time=0\n",
      "note_on channel=9 note=69 velocity=62 time=0\n",
      "note_off channel=9 note=69 velocity=64 time=0\n",
      "note_on channel=0 note=64 velocity=89 time=0\n",
      "note_on channel=0 note=61 velocity=85 time=0\n",
      "note_on channel=8 note=85 velocity=67 time=0\n",
      "<meta message lyrics text='rine, ' time=1>\n",
      "note_on channel=3 note=73 velocity=110 time=0\n",
      "note_off channel=10 note=59 velocity=64 time=13\n",
      "note_off channel=6 note=68 velocity=64 time=2\n",
      "note_off channel=10 note=56 velocity=64 time=4\n",
      "note_on channel=10 note=57 velocity=72 time=3\n",
      "note_on channel=10 note=61 velocity=75 time=0\n",
      "note_on channel=9 note=69 velocity=47 time=1\n",
      "note_off channel=9 note=69 velocity=64 time=0\n",
      "note_on channel=6 note=69 velocity=74 time=0\n",
      "note_off channel=1 note=33 velocity=64 time=18\n",
      "note_on channel=9 note=36 velocity=110 time=5\n",
      "note_off channel=9 note=36 velocity=64 time=0\n",
      "note_on channel=9 note=42 velocity=54 time=1\n",
      "note_off channel=9 note=42 velocity=64 time=0\n",
      "note_on channel=9 note=69 velocity=47 time=0\n",
      "note_off channel=9 note=69 velocity=64 time=0\n",
      "note_on channel=1 note=33 velocity=84 time=23\n",
      "note_on channel=9 note=69 velocity=43 time=1\n",
      "note_off channel=9 note=69 velocity=64 time=0\n",
      "note_off channel=10 note=64 velocity=64 time=14\n",
      "note_off channel=10 note=57 velocity=64 time=4\n",
      "note_off channel=0 note=61 velocity=64 time=1\n",
      "note_off channel=10 note=61 velocity=64 time=0\n",
      "note_off channel=0 note=64 velocity=64 time=4\n",
      "note_on channel=9 note=46 velocity=40 time=1\n",
      "note_off channel=9 note=46 velocity=64 time=0\n",
      "note_on channel=9 note=69 velocity=71 time=0\n",
      "note_off channel=9 note=69 velocity=64 time=0\n",
      "note_on channel=6 note=57 velocity=67 time=0\n",
      "note_off channel=6 note=69 velocity=64 time=4\n",
      "note_off channel=6 note=64 velocity=64 time=0\n",
      "note_off channel=6 note=57 velocity=64 time=6\n",
      "note_on channel=9 note=69 velocity=39 time=14\n",
      "note_off channel=9 note=69 velocity=64 time=0\n",
      "note_on channel=0 note=93 velocity=103 time=1\n",
      "note_on channel=0 note=88 velocity=103 time=1\n",
      "note_on channel=0 note=97 velocity=103 time=0\n",
      "note_off channel=0 note=97 velocity=64 time=10\n",
      "note_off channel=0 note=93 velocity=64 time=1\n",
      "note_off channel=0 note=88 velocity=64 time=1\n",
      "note_off channel=3 note=73 velocity=64 time=7\n",
      "note_off channel=4 note=64 velocity=64 time=2\n",
      "note_on channel=9 note=40 velocity=104 time=0\n",
      "note_off channel=9 note=40 velocity=64 time=0\n",
      "note_on channel=6 note=68 velocity=73 time=0\n",
      "note_on channel=6 note=64 velocity=85 time=0\n",
      "note_off channel=4 note=73 velocity=64 time=1\n",
      "note_off channel=4 note=69 velocity=64 time=0\n",
      "note_on channel=4 note=64 velocity=88 time=0\n",
      "note_on channel=4 note=68 velocity=74 time=0\n",
      "note_on channel=4 note=71 velocity=110 time=0\n",
      "note_on channel=9 note=42 velocity=61 time=0\n",
      "note_off channel=9 note=42 velocity=64 time=0\n",
      "note_on channel=9 note=69 velocity=52 time=0\n",
      "note_off channel=9 note=69 velocity=64 time=0\n",
      "note_off channel=1 note=33 velocity=64 time=0\n",
      "note_on channel=1 note=32 velocity=83 time=0\n",
      "note_on channel=0 note=97 velocity=103 time=0\n",
      "note_on channel=0 note=88 velocity=103 time=0\n",
      "note_off channel=7 note=61 velocity=64 time=0\n",
      "note_off channel=7 note=69 velocity=64 time=0\n",
      "note_on channel=7 note=68 velocity=75 time=0\n",
      "note_on channel=7 note=59 velocity=84 time=0\n",
      "<meta message lyrics text='oh ' time=1>\n",
      "note_on channel=3 note=71 velocity=110 time=0\n",
      "note_on channel=0 note=93 velocity=103 time=0\n",
      "note_on channel=9 note=42 velocity=44 time=23\n",
      "note_off channel=9 note=42 velocity=64 time=0\n",
      "note_on channel=9 note=69 velocity=45 time=0\n",
      "note_off channel=9 note=69 velocity=64 time=0\n",
      "note_on channel=9 note=46 velocity=51 time=23\n",
      "note_off channel=9 note=46 velocity=64 time=0\n",
      "note_off channel=6 note=64 velocity=64 time=0\n",
      "note_on channel=9 note=69 velocity=67 time=1\n",
      "note_off channel=9 note=69 velocity=64 time=0\n",
      "note_on channel=6 note=57 velocity=65 time=0\n",
      "note_off channel=0 note=93 velocity=64 time=1\n",
      "note_off channel=0 note=88 velocity=64 time=3\n",
      "note_off channel=0 note=97 velocity=64 time=0\n",
      "note_off channel=6 note=68 velocity=64 time=0\n",
      "note_off channel=6 note=57 velocity=64 time=4\n",
      "note_on channel=9 note=69 velocity=41 time=16\n",
      "note_off channel=9 note=69 velocity=64 time=0\n",
      "note_on channel=0 note=95 velocity=103 time=1\n",
      "note_on channel=0 note=92 velocity=103 time=0\n",
      "note_on channel=0 note=88 velocity=103 time=0\n",
      "note_off channel=7 note=59 velocity=64 time=6\n",
      "note_off channel=0 note=92 velocity=64 time=4\n",
      "note_off channel=7 note=64 velocity=64 time=0\n",
      "note_off channel=0 note=88 velocity=64 time=1\n",
      "note_off channel=0 note=95 velocity=64 time=1\n",
      "note_off channel=3 note=71 velocity=64 time=3\n",
      "note_off channel=1 note=32 velocity=64 time=2\n",
      "note_on channel=1 note=30 velocity=76 time=4\n",
      "note_on channel=9 note=36 velocity=112 time=1\n",
      "note_off channel=9 note=36 velocity=64 time=0\n",
      "note_on channel=9 note=42 velocity=63 time=0\n",
      "note_off channel=9 note=42 velocity=64 time=0\n",
      "note_on channel=0 note=88 velocity=104 time=0\n",
      "note_off channel=4 note=71 velocity=64 time=1\n",
      "note_off channel=4 note=68 velocity=64 time=0\n",
      "note_off channel=4 note=64 velocity=64 time=0\n",
      "note_on channel=4 note=57 velocity=78 time=0\n",
      "note_on channel=4 note=69 velocity=78 time=0\n",
      "note_on channel=4 note=73 velocity=109 time=0\n",
      "note_on channel=9 note=69 velocity=52 time=0\n",
      "note_off channel=9 note=69 velocity=64 time=0\n",
      "note_on channel=0 note=92 velocity=104 time=0\n",
      "note_on channel=0 note=95 velocity=104 time=0\n",
      "note_on channel=6 note=66 velocity=87 time=0\n",
      "note_on channel=7 note=57 velocity=80 time=0\n",
      "note_on channel=7 note=66 velocity=78 time=0\n",
      "note_on channel=7 note=62 velocity=65 time=0\n",
      "<meta message lyrics text='yeah. ' time=1>\n",
      "<meta message lyrics text='\\r' time=0>\n",
      "note_on channel=3 note=73 velocity=109 time=0\n",
      "note_on channel=6 note=62 velocity=79 time=0\n",
      "note_off channel=8 note=85 velocity=64 time=2\n",
      "note_off channel=7 note=68 velocity=64 time=0\n",
      "note_on channel=9 note=42 velocity=47 time=20\n",
      "note_off channel=9 note=42 velocity=64 time=0\n",
      "note_off channel=4 note=73 velocity=64 time=1\n",
      "note_off channel=4 note=69 velocity=64 time=0\n",
      "note_on channel=4 note=68 velocity=78 time=0\n",
      "note_on channel=4 note=71 velocity=107 time=0\n",
      "note_on channel=9 note=69 velocity=43 time=0\n",
      "note_off channel=9 note=69 velocity=64 time=0\n",
      "note_off channel=3 note=73 velocity=64 time=1\n",
      "note_on channel=3 note=71 velocity=107 time=1\n",
      "note_off channel=1 note=30 velocity=64 time=15\n",
      "note_off channel=3 note=71 velocity=64 time=5\n",
      "note_on channel=9 note=46 velocity=47 time=0\n",
      "note_off channel=9 note=46 velocity=64 time=0\n",
      "note_off channel=0 note=92 velocity=64 time=0\n",
      "note_off channel=4 note=71 velocity=64 time=2\n",
      "note_off channel=4 note=68 velocity=64 time=0\n",
      "note_on channel=4 note=66 velocity=79 time=0\n",
      "note_on channel=4 note=69 velocity=105 time=0\n",
      "note_on channel=9 note=69 velocity=69 time=0\n",
      "note_off channel=9 note=69 velocity=64 time=0\n",
      "note_off channel=0 note=95 velocity=64 time=0\n",
      "note_on channel=3 note=69 velocity=105 time=2\n",
      "note_off channel=0 note=88 velocity=64 time=2\n",
      "note_on channel=1 note=30 velocity=76 time=18\n",
      "note_on channel=9 note=36 velocity=102 time=2\n",
      "note_off channel=9 note=36 velocity=64 time=0\n",
      "note_on channel=9 note=69 velocity=49 time=0\n",
      "note_off channel=9 note=69 velocity=64 time=0\n",
      "note_on channel=0 note=86 velocity=106 time=1\n",
      "note_on channel=0 note=93 velocity=106 time=0\n",
      "note_on channel=0 note=90 velocity=106 time=0\n",
      "note_off channel=6 note=62 velocity=64 time=3\n",
      "note_off channel=0 note=90 velocity=64 time=5\n",
      "note_off channel=1 note=30 velocity=64 time=1\n",
      "note_off channel=0 note=93 velocity=64 time=0\n",
      "note_off channel=0 note=86 velocity=64 time=2\n",
      "note_on channel=1 note=30 velocity=103 time=10\n",
      "note_on channel=9 note=42 velocity=59 time=1\n",
      "note_off channel=9 note=42 velocity=64 time=0\n",
      "note_on channel=9 note=40 velocity=94 time=1\n",
      "note_off channel=9 note=40 velocity=64 time=0\n",
      "note_on channel=9 note=69 velocity=50 time=0\n",
      "note_off channel=9 note=69 velocity=64 time=0\n",
      "note_on channel=0 note=93 velocity=107 time=0\n",
      "note_on channel=0 note=86 velocity=107 time=0\n",
      "note_on channel=0 note=90 velocity=107 time=0\n",
      "note_off channel=6 note=66 velocity=64 time=8\n",
      "note_off channel=0 note=90 velocity=64 time=4\n",
      "note_off channel=0 note=93 velocity=64 time=2\n",
      "note_off channel=0 note=86 velocity=64 time=3\n",
      "note_on channel=9 note=69 velocity=43 time=7\n",
      "note_off channel=9 note=69 velocity=64 time=0\n",
      "<meta message lyrics text='\\n' time=9>\n",
      "note_off channel=1 note=30 velocity=64 time=10\n",
      "note_on channel=1 note=28 velocity=86 time=4\n",
      "note_on channel=6 note=64 velocity=73 time=0\n",
      "note_off channel=4 note=66 velocity=64 time=1\n",
      "note_on channel=4 note=64 velocity=81 time=0\n",
      "note_on channel=9 note=36 velocity=104 time=0\n",
      "note_off channel=9 note=36 velocity=64 time=0\n",
      "note_on channel=9 note=46 velocity=41 time=0\n",
      "note_off channel=9 note=46 velocity=64 time=0\n",
      "note_on channel=9 note=69 velocity=63 time=0\n",
      "note_off channel=9 note=69 velocity=64 time=0\n",
      "note_on channel=6 note=61 velocity=74 time=0\n",
      "note_off channel=7 note=62 velocity=64 time=0\n",
      "note_off channel=7 note=66 velocity=64 time=0\n",
      "note_on channel=7 note=64 velocity=85 time=0\n",
      "note_on channel=7 note=61 velocity=71 time=0\n",
      "note_on channel=0 note=88 velocity=107 time=1\n",
      "note_on channel=0 note=85 velocity=107 time=0\n",
      "note_on channel=9 note=69 velocity=43 time=23\n",
      "note_off channel=9 note=69 velocity=64 time=0\n",
      "note_on channel=9 note=42 velocity=70 time=23\n",
      "note_off channel=9 note=42 velocity=64 time=0\n",
      "note_off channel=1 note=28 velocity=64 time=0\n",
      "note_on channel=9 note=36 velocity=104 time=1\n",
      "note_off channel=9 note=36 velocity=64 time=0\n",
      "note_on channel=9 note=69 velocity=49 time=0\n",
      "note_off channel=9 note=69 velocity=64 time=0\n",
      "note_on channel=9 note=40 velocity=104 time=23\n",
      "note_off channel=9 note=40 velocity=64 time=0\n",
      "note_on channel=1 note=28 velocity=87 time=0\n",
      "note_on channel=9 note=69 velocity=41 time=1\n",
      "note_off channel=9 note=69 velocity=64 time=0\n",
      "note_off channel=1 note=28 velocity=64 time=12\n",
      "note_on channel=9 note=69 velocity=67 time=12\n",
      "note_off channel=9 note=69 velocity=64 time=0\n",
      "note_on channel=1 note=28 velocity=89 time=0\n",
      "note_on channel=9 note=69 velocity=44 time=24\n",
      "note_off channel=9 note=69 velocity=64 time=0\n",
      "note_off channel=1 note=28 velocity=64 time=19\n",
      "note_on channel=9 note=42 velocity=73 time=4\n",
      "note_off channel=9 note=42 velocity=64 time=0\n",
      "note_on channel=9 note=40 velocity=110 time=1\n",
      "note_off channel=9 note=40 velocity=64 time=0\n",
      "note_on channel=9 note=69 velocity=59 time=0\n",
      "note_off channel=9 note=69 velocity=64 time=0\n",
      "note_on channel=1 note=35 velocity=83 time=0\n",
      "note_off channel=3 note=69 velocity=64 time=4\n",
      "note_on channel=9 note=69 velocity=47 time=20\n",
      "note_off channel=9 note=69 velocity=64 time=0\n",
      "note_off channel=1 note=35 velocity=64 time=0\n",
      "note_on channel=1 note=37 velocity=74 time=0\n",
      "note_off channel=1 note=37 velocity=64 time=18\n",
      "note_on channel=1 note=40 velocity=78 time=5\n",
      "note_on channel=9 note=46 velocity=43 time=1\n",
      "note_off channel=9 note=46 velocity=64 time=0\n",
      "note_on channel=9 note=69 velocity=68 time=0\n",
      "note_off channel=9 note=69 velocity=64 time=0\n",
      "note_off channel=0 note=85 velocity=64 time=4\n",
      "note_off channel=0 note=88 velocity=64 time=3\n",
      "note_off channel=6 note=61 velocity=64 time=10\n",
      "note_off channel=6 note=64 velocity=64 time=4\n",
      "note_on channel=9 note=69 velocity=41 time=3\n",
      "note_off channel=9 note=69 velocity=64 time=0\n",
      "note_on channel=9 note=42 velocity=57 time=21\n",
      "note_off channel=9 note=42 velocity=64 time=0\n",
      "note_off channel=7 note=64 velocity=64 time=2\n",
      "<meta message lyrics text='You ' time=1>\n",
      "note_on channel=3 note=73 velocity=112 time=0\n",
      "note_off channel=4 note=64 velocity=64 time=0\n",
      "note_off channel=4 note=69 velocity=64 time=0\n",
      "note_off channel=4 note=57 velocity=64 time=0\n",
      "note_on channel=4 note=68 velocity=73 time=0\n",
      "note_on channel=4 note=73 velocity=106 time=0\n",
      "note_on channel=9 note=36 velocity=112 time=0\n",
      "note_off channel=9 note=36 velocity=64 time=0\n",
      "note_on channel=9 note=69 velocity=38 time=0\n",
      "note_off channel=9 note=69 velocity=64 time=0\n",
      "note_off channel=1 note=40 velocity=64 time=0\n",
      "note_on channel=1 note=28 velocity=124 time=0\n",
      "note_on channel=6 note=64 velocity=75 time=0\n",
      "note_on channel=6 note=56 velocity=75 time=0\n",
      "note_on channel=6 note=59 velocity=75 time=0\n",
      "note_on channel=10 note=56 velocity=79 time=0\n",
      "note_on channel=10 note=59 velocity=85 time=0\n",
      "note_on channel=8 note=68 velocity=76 time=0\n",
      "note_on channel=8 note=80 velocity=76 time=0\n",
      "note_off channel=7 note=61 velocity=64 time=0\n",
      "note_off channel=7 note=57 velocity=64 time=0\n",
      "note_on channel=7 note=64 velocity=69 time=0\n",
      "note_on channel=7 note=59 velocity=81 time=0\n",
      "note_on channel=7 note=56 velocity=71 time=0\n",
      "note_on channel=9 note=42 velocity=43 time=23\n",
      "note_off channel=9 note=42 velocity=64 time=0\n",
      "note_on channel=9 note=69 velocity=41 time=0\n",
      "note_off channel=9 note=69 velocity=64 time=0\n",
      "note_on channel=9 note=46 velocity=53 time=24\n",
      "note_off channel=9 note=46 velocity=64 time=0\n",
      "note_on channel=9 note=69 velocity=48 time=0\n",
      "note_off channel=9 note=69 velocity=64 time=0\n",
      "note_on channel=9 note=54 velocity=44 time=0\n",
      "note_off channel=9 note=54 velocity=64 time=0\n",
      "note_off channel=1 note=28 velocity=64 time=4\n",
      "note_off channel=6 note=59 velocity=64 time=8\n",
      "note_off channel=6 note=64 velocity=64 time=0\n",
      "note_off channel=10 note=59 velocity=64 time=3\n",
      "note_off channel=10 note=56 velocity=64 time=1\n",
      "note_off channel=6 note=56 velocity=64 time=5\n",
      "note_on channel=9 note=69 velocity=49 time=3\n",
      "note_off channel=9 note=69 velocity=64 time=0\n",
      "note_on channel=9 note=36 velocity=90 time=1\n",
      "note_off channel=9 note=36 velocity=64 time=0\n",
      "note_on channel=9 note=54 velocity=28 time=0\n",
      "note_off channel=9 note=54 velocity=64 time=0\n",
      "note_on channel=1 note=28 velocity=85 time=0\n",
      "note_on channel=0 note=56 velocity=73 time=0\n",
      "note_on channel=0 note=64 velocity=82 time=0\n",
      "note_on channel=10 note=59 velocity=93 time=0\n",
      "note_on channel=10 note=56 velocity=64 time=0\n",
      "note_on channel=6 note=59 velocity=69 time=2\n",
      "note_on channel=6 note=64 velocity=71 time=0\n",
      "note_on channel=6 note=56 velocity=48 time=1\n",
      "note_off channel=6 note=64 velocity=64 time=7\n",
      "note_off channel=6 note=59 velocity=64 time=0\n",
      "note_off channel=1 note=28 velocity=64 time=1\n",
      "note_off channel=10 note=59 velocity=64 time=4\n",
      "note_off channel=0 note=56 velocity=64 time=1\n",
      "note_off channel=0 note=64 velocity=64 time=1\n",
      "note_off channel=3 note=73 velocity=64 time=3\n",
      "<meta message lyrics text='can ' time=3>\n",
      "note_on channel=3 note=71 velocity=106 time=0\n",
      "note_off channel=4 note=68 velocity=64 time=0\n",
      "note_on channel=9 note=40 velocity=88 time=0\n",
      "note_off channel=9 note=40 velocity=64 time=0\n",
      "note_on channel=9 note=69 velocity=41 time=0\n",
      "note_off channel=9 note=69 velocity=64 time=0\n",
      "note_on channel=1 note=28 velocity=96 time=0\n",
      "note_off channel=4 note=73 velocity=64 time=1\n",
      "note_on channel=4 note=71 velocity=107 time=0\n",
      "note_on channel=4 note=68 velocity=74 time=0\n",
      "note_on channel=9 note=42 velocity=47 time=0\n",
      "note_off channel=9 note=42 velocity=64 time=0\n",
      "note_on channel=6 note=59 velocity=87 time=0\n",
      "note_on channel=6 note=64 velocity=72 time=0\n",
      "note_off channel=10 note=56 velocity=64 time=1\n",
      "note_off channel=6 note=64 velocity=64 time=10\n",
      "note_off channel=6 note=59 velocity=64 time=1\n",
      "note_off channel=6 note=56 velocity=64 time=2\n",
      "note_on channel=9 note=69 velocity=47 time=9\n",
      "note_off channel=9 note=69 velocity=64 time=0\n",
      "note_off channel=3 note=71 velocity=64 time=8\n",
      "note_off channel=1 note=28 velocity=64 time=4\n",
      "note_off channel=4 note=68 velocity=64 time=12\n",
      "note_off channel=4 note=71 velocity=64 time=0\n",
      "note_on channel=9 note=36 velocity=104 time=0\n",
      "note_off channel=9 note=36 velocity=64 time=0\n",
      "note_on channel=9 note=54 velocity=56 time=0\n",
      "note_off channel=9 note=54 velocity=64 time=0\n",
      "note_on channel=0 note=56 velocity=73 time=0\n",
      "note_on channel=0 note=64 velocity=76 time=0\n",
      "<meta message lyrics text='dance, ' time=1>\n",
      "note_on channel=3 note=71 velocity=108 time=0\n",
      "note_on channel=4 note=68 velocity=72 time=0\n",
      "note_on channel=4 note=71 velocity=107 time=0\n",
      "note_on channel=9 note=46 velocity=51 time=0\n",
      "note_off channel=9 note=46 velocity=64 time=0\n",
      "note_on channel=9 note=69 velocity=62 time=0\n",
      "note_off channel=9 note=69 velocity=64 time=0\n",
      "note_on channel=1 note=28 velocity=108 time=0\n",
      "note_on channel=6 note=59 velocity=86 time=0\n",
      "note_on channel=6 note=56 velocity=68 time=0\n",
      "note_on channel=6 note=64 velocity=74 time=0\n",
      "note_on channel=10 note=56 velocity=68 time=0\n",
      "note_on channel=10 note=59 velocity=87 time=0\n",
      "note_on channel=9 note=69 velocity=48 time=24\n",
      "note_off channel=9 note=69 velocity=64 time=0\n",
      "note_on channel=9 note=54 velocity=32 time=0\n",
      "note_off channel=9 note=54 velocity=64 time=0\n",
      "note_off channel=1 note=28 velocity=64 time=14\n",
      "note_on channel=9 note=36 velocity=107 time=9\n",
      "note_off channel=9 note=36 velocity=64 time=0\n",
      "note_on channel=9 note=42 velocity=52 time=1\n",
      "note_off channel=9 note=42 velocity=64 time=0\n",
      "note_on channel=9 note=69 velocity=36 time=0\n",
      "note_off channel=9 note=69 velocity=64 time=0\n",
      "note_off channel=6 note=64 velocity=64 time=0\n",
      "note_off channel=6 note=56 velocity=64 time=4\n",
      "note_off channel=6 note=59 velocity=64 time=0\n",
      "note_off channel=10 note=56 velocity=64 time=15\n",
      "note_off channel=10 note=59 velocity=64 time=1\n",
      "note_on channel=9 note=69 velocity=48 time=4\n",
      "note_off channel=9 note=69 velocity=64 time=0\n",
      "note_on channel=6 note=59 velocity=75 time=1\n",
      "note_on channel=6 note=64 velocity=74 time=0\n",
      "note_on channel=6 note=56 velocity=60 time=0\n",
      "note_off channel=6 note=59 velocity=64 time=12\n",
      "note_off channel=6 note=64 velocity=64 time=1\n",
      "note_off channel=8 note=80 velocity=64 time=7\n",
      "note_off channel=8 note=68 velocity=64 time=0\n",
      "note_on channel=8 note=76 velocity=75 time=1\n",
      "note_on channel=8 note=64 velocity=75 time=0\n",
      "note_on channel=9 note=46 velocity=46 time=1\n",
      "note_off channel=9 note=46 velocity=64 time=0\n",
      "note_on channel=9 note=54 velocity=53 time=0\n",
      "note_off channel=9 note=54 velocity=64 time=0\n",
      "note_on channel=1 note=40 velocity=93 time=0\n",
      "note_on channel=6 note=64 velocity=56 time=0\n",
      "note_on channel=6 note=59 velocity=95 time=0\n",
      "note_on channel=10 note=59 velocity=95 time=0\n",
      "note_on channel=10 note=56 velocity=71 time=0\n",
      "note_on channel=9 note=69 velocity=62 time=1\n",
      "note_off channel=9 note=69 velocity=64 time=0\n",
      "note_off channel=8 note=64 velocity=64 time=20\n",
      "note_off channel=8 note=76 velocity=64 time=0\n",
      "note_off channel=1 note=40 velocity=64 time=1\n",
      "note_on channel=8 note=78 velocity=67 time=0\n",
      "note_on channel=8 note=66 velocity=67 time=0\n",
      "note_on channel=1 note=35 velocity=73 time=2\n",
      "note_on channel=9 note=69 velocity=52 time=1\n",
      "note_off channel=9 note=69 velocity=64 time=0\n",
      "note_on channel=9 note=54 velocity=47 time=0\n",
      "note_off channel=9 note=54 velocity=64 time=0\n",
      "note_off channel=6 note=56 velocity=64 time=2\n",
      "note_off channel=6 note=64 velocity=64 time=1\n",
      "note_off channel=10 note=56 velocity=64 time=4\n",
      "note_off channel=6 note=59 velocity=64 time=1\n",
      "note_off channel=10 note=59 velocity=64 time=6\n",
      "note_off channel=8 note=66 velocity=64 time=7\n",
      "note_off channel=8 note=78 velocity=64 time=0\n",
      "note_off channel=1 note=35 velocity=64 time=1\n",
      "note_on channel=8 note=80 velocity=70 time=0\n",
      "note_on channel=8 note=68 velocity=70 time=0\n",
      "note_on channel=9 note=42 velocity=47 time=1\n",
      "note_off channel=9 note=42 velocity=64 time=0\n",
      "note_on channel=1 note=40 velocity=84 time=0\n",
      "note_on channel=9 note=40 velocity=104 time=1\n",
      "note_off channel=9 note=40 velocity=64 time=0\n",
      "note_on channel=9 note=69 velocity=34 time=0\n",
      "note_off channel=9 note=69 velocity=64 time=0\n",
      "note_on channel=6 note=64 velocity=86 time=0\n",
      "note_on channel=6 note=56 velocity=69 time=0\n",
      "note_on channel=6 note=59 velocity=86 time=0\n",
      "note_on channel=10 note=59 velocity=100 time=0\n",
      "note_on channel=10 note=56 velocity=74 time=0\n",
      "note_off channel=1 note=40 velocity=64 time=18\n",
      "note_off channel=8 note=68 velocity=64 time=3\n",
      "note_off channel=8 note=80 velocity=64 time=0\n",
      "note_on channel=1 note=35 velocity=69 time=1\n",
      "note_on channel=8 note=81 velocity=75 time=0\n",
      "note_on channel=8 note=69 velocity=75 time=0\n",
      "note_on channel=9 note=42 velocity=43 time=1\n",
      "note_off channel=9 note=42 velocity=64 time=0\n",
      "note_on channel=9 note=69 velocity=43 time=1\n",
      "note_off channel=9 note=69 velocity=64 time=0\n",
      "note_off channel=6 note=64 velocity=64 time=4\n",
      "note_off channel=6 note=56 velocity=64 time=3\n",
      "note_off channel=6 note=59 velocity=64 time=1\n",
      "note_off channel=1 note=35 velocity=64 time=6\n",
      "note_off channel=0 note=56 velocity=64 time=2\n",
      "note_off channel=0 note=64 velocity=64 time=6\n",
      "note_off channel=10 note=56 velocity=64 time=0\n",
      "note_on channel=1 note=35 velocity=87 time=1\n",
      "note_on channel=6 note=56 velocity=62 time=0\n",
      "note_on channel=6 note=59 velocity=83 time=0\n",
      "note_off channel=3 note=71 velocity=64 time=1\n",
      "note_on channel=9 note=46 velocity=47 time=0\n",
      "note_off channel=9 note=46 velocity=64 time=0\n",
      "note_on channel=9 note=69 velocity=63 time=0\n",
      "note_off channel=9 note=69 velocity=64 time=0\n",
      "note_on channel=9 note=54 velocity=78 time=0\n",
      "note_off channel=9 note=54 velocity=64 time=0\n",
      "note_on channel=6 note=64 velocity=70 time=0\n",
      "note_off channel=10 note=59 velocity=64 time=4\n",
      "note_off channel=6 note=59 velocity=64 time=8\n",
      "note_off channel=6 note=64 velocity=64 time=2\n",
      "note_off channel=1 note=35 velocity=64 time=1\n",
      "note_on channel=6 note=64 velocity=66 time=7\n",
      "note_on channel=1 note=36 velocity=85 time=1\n",
      "note_on channel=6 note=59 velocity=83 time=0\n",
      "note_on channel=9 note=69 velocity=59 time=1\n",
      "note_off channel=9 note=69 velocity=64 time=0\n",
      "note_on channel=9 note=54 velocity=31 time=1\n",
      "note_off channel=9 note=54 velocity=64 time=0\n",
      "note_off channel=6 note=59 velocity=64 time=10\n",
      "note_off channel=6 note=56 velocity=64 time=0\n",
      "note_off channel=6 note=64 velocity=64 time=2\n",
      "note_off channel=1 note=36 velocity=64 time=7\n",
      "note_off channel=8 note=69 velocity=64 time=2\n",
      "note_off channel=8 note=81 velocity=64 time=0\n",
      "<meta message lyrics text='you ' time=1>\n",
      "note_on channel=3 note=73 velocity=110 time=0\n",
      "note_off channel=4 note=68 velocity=64 time=0\n",
      "note_on channel=9 note=69 velocity=36 time=0\n",
      "note_off channel=9 note=69 velocity=64 time=0\n",
      "note_on channel=1 note=37 velocity=78 time=0\n",
      "note_on channel=6 note=61 velocity=85 time=0\n",
      "note_on channel=10 note=56 velocity=69 time=0\n",
      "note_on channel=10 note=61 velocity=77 time=0\n",
      "note_on channel=8 note=80 velocity=65 time=0\n",
      "note_on channel=8 note=68 velocity=65 time=0\n",
      "note_off channel=4 note=71 velocity=64 time=1\n",
      "note_on channel=4 note=68 velocity=75 time=0\n",
      "note_on channel=4 note=73 velocity=104 time=0\n",
      "note_on channel=9 note=36 velocity=111 time=0\n",
      "note_off channel=9 note=36 velocity=64 time=0\n",
      "note_on channel=9 note=42 velocity=57 time=0\n",
      "note_off channel=9 note=42 velocity=64 time=0\n",
      "note_on channel=0 note=65 velocity=73 time=0\n",
      "note_on channel=0 note=61 velocity=74 time=0\n",
      "note_off channel=7 note=59 velocity=64 time=0\n",
      "note_off channel=7 note=64 velocity=64 time=0\n",
      "note_on channel=7 note=61 velocity=64 time=0\n",
      "note_on channel=7 note=65 velocity=70 time=0\n",
      "note_on channel=6 note=65 velocity=66 time=2\n",
      "note_on channel=9 note=42 velocity=39 time=22\n",
      "note_off channel=9 note=42 velocity=64 time=0\n",
      "note_on channel=9 note=69 velocity=44 time=0\n",
      "note_off channel=9 note=69 velocity=64 time=0\n",
      "note_off channel=6 note=65 velocity=64 time=19\n",
      "note_on channel=9 note=46 velocity=46 time=4\n",
      "note_off channel=9 note=46 velocity=64 time=0\n",
      "note_on channel=9 note=69 velocity=71 time=1\n",
      "note_off channel=9 note=69 velocity=64 time=0\n",
      "note_on channel=9 note=54 velocity=70 time=0\n",
      "note_off channel=9 note=54 velocity=64 time=0\n",
      "note_off channel=6 note=61 velocity=64 time=0\n",
      "note_off channel=1 note=37 velocity=64 time=6\n",
      "note_off channel=0 note=61 velocity=64 time=0\n",
      "note_off channel=10 note=61 velocity=64 time=0\n",
      "note_off channel=10 note=56 velocity=64 time=0\n",
      "note_off channel=0 note=65 velocity=64 time=5\n",
      "note_on channel=6 note=65 velocity=74 time=11\n",
      "note_on channel=9 note=69 velocity=44 time=1\n",
      "note_off channel=9 note=69 velocity=64 time=0\n",
      "note_on channel=6 note=61 velocity=69 time=0\n",
      "note_on channel=6 note=56 velocity=69 time=0\n",
      "note_on channel=9 note=36 velocity=107 time=1\n",
      "note_off channel=9 note=36 velocity=64 time=0\n",
      "note_on channel=1 note=37 velocity=84 time=0\n",
      "note_on channel=10 note=56 velocity=67 time=0\n",
      "note_on channel=10 note=61 velocity=76 time=0\n",
      "note_on channel=9 note=54 velocity=33 time=1\n",
      "note_off channel=9 note=54 velocity=64 time=0\n",
      "note_on channel=0 note=61 velocity=73 time=0\n",
      "note_on channel=0 note=65 velocity=80 time=0\n",
      "note_off channel=6 note=56 velocity=64 time=10\n",
      "note_off channel=6 note=61 velocity=64 time=0\n",
      "note_off channel=6 note=65 velocity=64 time=1\n",
      "note_off channel=1 note=37 velocity=64 time=4\n",
      "note_off channel=0 note=61 velocity=64 time=1\n",
      "note_off channel=3 note=73 velocity=64 time=2\n",
      "note_on channel=6 note=65 velocity=71 time=2\n",
      "<meta message lyrics text='can ' time=1>\n",
      "note_on channel=3 note=71 velocity=106 time=0\n",
      "note_on channel=6 note=61 velocity=76 time=0\n",
      "note_on channel=6 note=56 velocity=59 time=0\n",
      "note_off channel=4 note=68 velocity=64 time=1\n",
      "note_on channel=9 note=40 velocity=104 time=0\n",
      "note_off channel=9 note=40 velocity=64 time=0\n",
      "note_on channel=9 note=42 velocity=42 time=0\n",
      "note_off channel=9 note=42 velocity=64 time=0\n",
      "note_off channel=0 note=65 velocity=64 time=0\n",
      "note_off channel=4 note=73 velocity=64 time=1\n",
      "note_on channel=4 note=71 velocity=106 time=0\n",
      "note_on channel=4 note=68 velocity=73 time=0\n",
      "note_on channel=9 note=69 velocity=40 time=0\n",
      "note_off channel=9 note=69 velocity=64 time=0\n",
      "note_on channel=1 note=37 velocity=84 time=0\n",
      "note_off channel=10 note=61 velocity=64 time=0\n",
      "note_off channel=10 note=56 velocity=64 time=2\n",
      "note_off channel=6 note=61 velocity=64 time=12\n",
      "note_off channel=6 note=65 velocity=64 time=4\n",
      "note_off channel=6 note=56 velocity=64 time=2\n",
      "note_off channel=3 note=71 velocity=64 time=3\n",
      "note_on channel=9 note=69 velocity=42 time=1\n",
      "note_off channel=9 note=69 velocity=64 time=0\n",
      "note_off channel=1 note=37 velocity=64 time=6\n",
      "<meta message lyrics text='ji-' time=16>\n",
      "note_on channel=3 note=71 velocity=107 time=0\n",
      "note_on channel=6 note=65 velocity=77 time=0\n",
      "note_off channel=4 note=68 velocity=64 time=1\n",
      "note_off channel=4 note=71 velocity=64 time=0\n",
      "note_on channel=9 note=46 velocity=45 time=0\n",
      "note_off channel=9 note=46 velocity=64 time=0\n",
      "note_on channel=0 note=61 velocity=77 time=0\n",
      "note_on channel=0 note=65 velocity=80 time=0\n",
      "note_on channel=6 note=61 velocity=70 time=0\n",
      "note_on channel=6 note=56 velocity=75 time=0\n",
      "note_on channel=10 note=56 velocity=81 time=0\n",
      "note_on channel=10 note=61 velocity=83 time=0\n",
      "note_on channel=4 note=71 velocity=109 time=1\n",
      "note_on channel=4 note=68 velocity=74 time=0\n",
      "note_on channel=9 note=36 velocity=102 time=0\n",
      "note_off channel=9 note=36 velocity=64 time=0\n",
      "note_on channel=9 note=69 velocity=66 time=0\n",
      "note_off channel=9 note=69 velocity=64 time=0\n",
      "note_on channel=9 note=54 velocity=70 time=0\n",
      "note_off channel=9 note=54 velocity=64 time=0\n",
      "note_on channel=1 note=37 velocity=87 time=0\n",
      "note_on channel=9 note=69 velocity=45 time=24\n",
      "note_off channel=9 note=69 velocity=64 time=0\n",
      "note_on channel=9 note=54 velocity=45 time=0\n",
      "note_off channel=9 note=54 velocity=64 time=0\n",
      "note_off channel=1 note=37 velocity=64 time=19\n",
      "note_off channel=6 note=61 velocity=64 time=2\n",
      "note_on channel=9 note=36 velocity=110 time=3\n",
      "note_off channel=9 note=36 velocity=64 time=0\n",
      "note_on channel=9 note=42 velocity=45 time=0\n",
      "note_off channel=9 note=42 velocity=64 time=0\n",
      "note_on channel=9 note=69 velocity=36 time=0\n",
      "note_off channel=9 note=69 velocity=64 time=0\n",
      "note_off channel=6 note=65 velocity=64 time=0\n",
      "note_off channel=6 note=56 velocity=64 time=1\n",
      "note_off channel=10 note=61 velocity=64 time=6\n",
      "note_off channel=10 note=56 velocity=64 time=1\n",
      "note_off channel=8 note=68 velocity=64 time=3\n",
      "note_off channel=8 note=80 velocity=64 time=0\n",
      "note_on channel=9 note=69 velocity=41 time=13\n",
      "note_off channel=9 note=69 velocity=64 time=0\n",
      "note_on channel=6 note=61 velocity=71 time=1\n",
      "note_on channel=6 note=65 velocity=70 time=1\n",
      "note_on channel=6 note=56 velocity=59 time=1\n",
      "note_off channel=6 note=65 velocity=64 time=10\n",
      "note_off channel=6 note=61 velocity=64 time=0\n",
      "note_off channel=3 note=71 velocity=64 time=8\n",
      "note_on channel=10 note=56 velocity=66 time=0\n",
      "note_on channel=10 note=61 velocity=76 time=1\n",
      "note_on channel=8 note=80 velocity=71 time=0\n",
      "note_on channel=8 note=68 velocity=71 time=0\n",
      "note_on channel=9 note=46 velocity=41 time=1\n",
      "note_off channel=9 note=46 velocity=64 time=0\n",
      "note_on channel=9 note=54 velocity=68 time=0\n",
      "note_off channel=9 note=54 velocity=64 time=0\n",
      "note_on channel=6 note=65 velocity=74 time=0\n",
      "<meta message lyrics text='ive, ' time=1>\n",
      "<meta message lyrics text='\\r' time=0>\n",
      "note_on channel=3 note=73 velocity=107 time=0\n",
      "note_off channel=4 note=68 velocity=64 time=0\n",
      "note_off channel=4 note=71 velocity=64 time=0\n",
      "note_on channel=4 note=69 velocity=86 time=0\n",
      "note_on channel=4 note=73 velocity=104 time=0\n",
      "note_on channel=9 note=69 velocity=71 time=0\n",
      "note_off channel=9 note=69 velocity=64 time=0\n",
      "note_on channel=1 note=38 velocity=96 time=0\n",
      "note_on channel=6 note=61 velocity=75 time=0\n",
      "note_off channel=8 note=68 velocity=64 time=21\n",
      "note_off channel=8 note=80 velocity=64 time=0\n",
      "note_off channel=1 note=38 velocity=64 time=1\n",
      "note_on channel=8 note=81 velocity=79 time=0\n",
      "note_on channel=8 note=69 velocity=79 time=0\n",
      "note_on channel=9 note=69 velocity=52 time=1\n",
      "note_off channel=9 note=69 velocity=64 time=0\n",
      "note_on channel=9 note=54 velocity=40 time=1\n",
      "note_off channel=9 note=54 velocity=64 time=0\n",
      "note_on channel=1 note=39 velocity=81 time=0\n",
      "note_off channel=6 note=56 velocity=64 time=1\n",
      "note_off channel=6 note=61 velocity=64 time=1\n",
      "note_off channel=6 note=65 velocity=64 time=5\n",
      "note_off channel=10 note=61 velocity=64 time=7\n",
      "note_off channel=10 note=56 velocity=64 time=0\n",
      "note_off channel=8 note=69 velocity=64 time=7\n",
      "note_off channel=8 note=81 velocity=64 time=0\n",
      "note_off channel=1 note=39 velocity=64 time=1\n",
      "note_on channel=8 note=83 velocity=86 time=0\n",
      "note_on channel=8 note=71 velocity=86 time=0\n",
      "note_on channel=1 note=40 velocity=83 time=1\n",
      "note_on channel=10 note=56 velocity=73 time=0\n",
      "note_on channel=9 note=40 velocity=107 time=1\n",
      "note_off channel=9 note=40 velocity=64 time=0\n",
      "note_on channel=9 note=42 velocity=48 time=0\n",
      "note_off channel=9 note=42 velocity=64 time=0\n",
      "note_on channel=6 note=65 velocity=79 time=0\n",
      "note_on channel=6 note=61 velocity=71 time=0\n",
      "note_on channel=6 note=56 velocity=72 time=0\n",
      "note_on channel=10 note=61 velocity=77 time=0\n",
      "note_off channel=1 note=40 velocity=64 time=22\n",
      "note_off channel=8 note=71 velocity=64 time=0\n",
      "note_off channel=8 note=83 velocity=64 time=0\n",
      "note_on channel=9 note=69 velocity=44 time=1\n",
      "note_off channel=9 note=69 velocity=64 time=0\n",
      "note_on channel=1 note=39 velocity=70 time=0\n",
      "note_on channel=8 note=85 velocity=79 time=0\n",
      "note_on channel=8 note=73 velocity=79 time=0\n",
      "note_off channel=6 note=61 velocity=64 time=3\n",
      "note_off channel=6 note=65 velocity=64 time=5\n",
      "note_off channel=6 note=56 velocity=64 time=1\n",
      "note_on channel=9 note=69 velocity=69 time=15\n",
      "note_off channel=9 note=69 velocity=64 time=0\n",
      "note_on channel=9 note=54 velocity=68 time=0\n",
      "note_off channel=9 note=54 velocity=64 time=0\n",
      "note_off channel=1 note=39 velocity=64 time=0\n",
      "note_on channel=1 note=40 velocity=84 time=0\n",
      "note_on channel=6 note=65 velocity=63 time=0\n",
      "note_on channel=9 note=46 velocity=42 time=1\n",
      "note_off channel=9 note=46 velocity=64 time=0\n",
      "note_on channel=6 note=56 velocity=60 time=0\n",
      "note_on channel=6 note=61 velocity=64 time=0\n",
      "note_off channel=0 note=65 velocity=64 time=1\n",
      "note_off channel=0 note=61 velocity=64 time=0\n",
      "note_off channel=6 note=61 velocity=64 time=11\n",
      "note_off channel=10 note=61 velocity=64 time=0\n",
      "note_off channel=10 note=56 velocity=64 time=1\n",
      "note_off channel=6 note=65 velocity=64 time=5\n",
      "note_on channel=9 note=69 velocity=49 time=5\n",
      "note_off channel=9 note=69 velocity=64 time=0\n",
      "note_off channel=1 note=40 velocity=64 time=0\n",
      "note_on channel=1 note=41 velocity=80 time=0\n",
      "note_on channel=9 note=54 velocity=33 time=1\n",
      "note_off channel=9 note=54 velocity=64 time=0\n",
      "note_on channel=6 note=61 velocity=62 time=0\n",
      "note_off channel=6 note=61 velocity=64 time=9\n",
      "note_off channel=6 note=56 velocity=64 time=0\n",
      "note_off channel=3 note=73 velocity=64 time=10\n",
      "note_on channel=10 note=57 velocity=81 time=3\n",
      "note_off channel=8 note=73 velocity=64 time=0\n",
      "note_off channel=8 note=85 velocity=64 time=0\n",
      "note_off channel=4 note=69 velocity=64 time=1\n",
      "note_on channel=9 note=42 velocity=46 time=0\n",
      "note_off channel=9 note=42 velocity=64 time=0\n",
      "note_off channel=1 note=41 velocity=64 time=0\n",
      "note_on channel=1 note=42 velocity=82 time=0\n",
      "note_on channel=0 note=66 velocity=71 time=0\n",
      "note_on channel=10 note=61 velocity=71 time=0\n",
      "note_on channel=8 note=81 velocity=81 time=0\n",
      "note_on channel=8 note=69 velocity=81 time=0\n",
      "<meta message lyrics text='hav' time=1>\n",
      "note_on channel=3 note=69 velocity=105 time=0\n",
      "note_off channel=4 note=73 velocity=64 time=0\n",
      "note_on channel=4 note=66 velocity=85 time=0\n",
      "note_on channel=4 note=69 velocity=106 time=0\n",
      "note_on channel=9 note=36 velocity=111 time=0\n",
      "note_off channel=9 note=36 velocity=64 time=0\n",
      "note_on channel=9 note=69 velocity=35 time=0\n",
      "note_off channel=9 note=69 velocity=64 time=0\n",
      "note_on channel=0 note=57 velocity=72 time=0\n",
      "note_on channel=6 note=66 velocity=98 time=0\n",
      "note_on channel=6 note=61 velocity=71 time=0\n",
      "note_on channel=6 note=57 velocity=85 time=0\n",
      "note_off channel=7 note=65 velocity=64 time=0\n",
      "note_off channel=7 note=56 velocity=64 time=0\n",
      "note_on channel=7 note=57 velocity=75 time=0\n",
      "note_on channel=7 note=66 velocity=60 time=0\n",
      "note_on channel=9 note=42 velocity=42 time=23\n",
      "note_off channel=9 note=42 velocity=64 time=0\n",
      "note_on channel=9 note=69 velocity=43 time=1\n",
      "note_off channel=9 note=69 velocity=64 time=0\n",
      "note_off channel=1 note=42 velocity=64 time=19\n",
      "note_on channel=9 note=54 velocity=68 time=4\n",
      "note_off channel=9 note=54 velocity=64 time=0\n",
      "note_on channel=9 note=46 velocity=44 time=1\n",
      "note_off channel=9 note=46 velocity=64 time=0\n",
      "note_on channel=9 note=69 velocity=74 time=0\n",
      "note_off channel=9 note=69 velocity=64 time=0\n",
      "note_off channel=10 note=57 velocity=64 time=1\n",
      "note_off channel=10 note=61 velocity=64 time=2\n",
      "note_off channel=6 note=61 velocity=64 time=1\n",
      "note_off channel=6 note=66 velocity=64 time=0\n",
      "note_off channel=6 note=57 velocity=64 time=4\n",
      "note_off channel=0 note=57 velocity=64 time=3\n",
      "note_off channel=0 note=66 velocity=64 time=0\n",
      "note_off channel=3 note=69 velocity=64 time=9\n",
      "note_off channel=8 note=69 velocity=64 time=2\n",
      "note_off channel=8 note=81 velocity=64 time=0\n",
      "note_off channel=4 note=66 velocity=64 time=1\n",
      "note_on channel=8 note=83 velocity=83 time=0\n",
      "note_on channel=8 note=71 velocity=83 time=0\n",
      "<meta message lyrics text='ing ' time=1>\n",
      "note_on channel=3 note=71 velocity=110 time=0\n",
      "note_off channel=4 note=69 velocity=64 time=0\n",
      "note_on channel=4 note=71 velocity=106 time=0\n",
      "note_on channel=4 note=66 velocity=86 time=0\n",
      "note_on channel=9 note=36 velocity=107 time=0\n",
      "note_off channel=9 note=36 velocity=64 time=0\n",
      "note_on channel=9 note=69 velocity=39 time=0\n",
      "note_off channel=9 note=69 velocity=64 time=0\n",
      "note_on channel=9 note=54 velocity=34 time=0\n",
      "note_off channel=9 note=54 velocity=64 time=0\n",
      "note_on channel=1 note=37 velocity=74 time=0\n",
      "note_on channel=6 note=66 velocity=74 time=0\n",
      "note_on channel=6 note=61 velocity=76 time=0\n",
      "note_on channel=6 note=57 velocity=70 time=0\n",
      "note_on channel=10 note=61 velocity=90 time=0\n",
      "note_on channel=10 note=57 velocity=83 time=0\n",
      "note_on channel=0 note=66 velocity=68 time=1\n",
      "note_on channel=0 note=57 velocity=67 time=0\n",
      "note_off channel=6 note=66 velocity=64 time=9\n",
      "note_off channel=6 note=61 velocity=64 time=1\n",
      "note_off channel=10 note=57 velocity=64 time=5\n",
      "note_off channel=0 note=66 velocity=64 time=5\n",
      "note_off channel=0 note=57 velocity=64 time=1\n",
      "note_on channel=6 note=66 velocity=74 time=0\n",
      "note_on channel=9 note=40 velocity=102 time=1\n",
      "note_off channel=9 note=40 velocity=64 time=0\n",
      "note_on channel=9 note=42 velocity=50 time=0\n",
      "note_off channel=9 note=42 velocity=64 time=0\n",
      "note_on channel=6 note=61 velocity=68 time=0\n",
      "note_off channel=1 note=37 velocity=64 time=1\n",
      "note_on channel=1 note=42 velocity=79 time=0\n",
      "note_on channel=9 note=69 velocity=42 time=1\n",
      "note_off channel=9 note=69 velocity=64 time=0\n",
      "note_off channel=10 note=61 velocity=64 time=5\n",
      "note_off channel=6 note=61 velocity=64 time=9\n",
      "note_off channel=6 note=66 velocity=64 time=4\n",
      "note_off channel=6 note=57 velocity=64 time=1\n",
      "note_on channel=9 note=69 velocity=36 time=5\n",
      "note_off channel=9 note=69 velocity=64 time=0\n",
      "note_off channel=1 note=42 velocity=64 time=2\n",
      "note_off channel=3 note=71 velocity=64 time=13\n",
      "note_off channel=8 note=71 velocity=64 time=5\n",
      "note_off channel=8 note=83 velocity=64 time=0\n",
      "<meta message lyrics text='the ' time=1>\n",
      "note_on channel=3 note=68 velocity=105 time=0\n",
      "note_on channel=8 note=80 velocity=70 time=0\n",
      "note_on channel=8 note=68 velocity=70 time=0\n",
      "note_off channel=4 note=66 velocity=64 time=1\n",
      "note_on channel=9 note=36 velocity=104 time=0\n",
      "note_off channel=9 note=36 velocity=64 time=0\n",
      "note_on channel=9 note=46 velocity=47 time=0\n",
      "note_off channel=9 note=46 velocity=64 time=0\n",
      "note_on channel=9 note=54 velocity=78 time=0\n",
      "note_off channel=9 note=54 velocity=64 time=0\n",
      "note_on channel=1 note=42 velocity=83 time=0\n",
      "note_on channel=0 note=57 velocity=79 time=0\n",
      "note_on channel=0 note=66 velocity=85 time=0\n",
      "note_on channel=6 note=66 velocity=87 time=0\n",
      "note_on channel=10 note=57 velocity=85 time=0\n",
      "note_off channel=4 note=71 velocity=64 time=1\n",
      "note_on channel=4 note=68 velocity=105 time=0\n",
      "note_on channel=4 note=66 velocity=85 time=0\n",
      "note_on channel=6 note=61 velocity=86 time=0\n",
      "note_on channel=6 note=57 velocity=87 time=0\n",
      "note_on channel=10 note=61 velocity=83 time=0\n",
      "note_on channel=9 note=69 velocity=74 time=1\n",
      "note_off channel=9 note=69 velocity=64 time=0\n",
      "note_on channel=9 note=69 velocity=42 time=23\n",
      "note_off channel=9 note=69 velocity=64 time=0\n",
      "note_on channel=9 note=54 velocity=29 time=0\n",
      "note_off channel=9 note=54 velocity=64 time=0\n",
      "note_off channel=1 note=42 velocity=64 time=10\n",
      "note_off channel=8 note=68 velocity=64 time=12\n",
      "note_off channel=8 note=80 velocity=64 time=0\n",
      "note_off channel=4 note=66 velocity=64 time=1\n",
      "note_off channel=6 note=66 velocity=64 time=0\n",
      "note_on channel=8 note=81 velocity=87 time=0\n",
      "note_on channel=8 note=69 velocity=87 time=0\n",
      "<meta message lyrics text='time ' time=1>\n",
      "note_off channel=3 note=68 velocity=64 time=0\n",
      "note_on channel=3 note=69 velocity=103 time=0\n",
      "note_off channel=4 note=68 velocity=64 time=0\n",
      "note_on channel=4 note=66 velocity=86 time=0\n",
      "note_on channel=4 note=69 velocity=107 time=0\n",
      "note_on channel=9 note=36 velocity=112 time=0\n",
      "note_off channel=9 note=36 velocity=64 time=0\n",
      "note_on channel=9 note=42 velocity=52 time=0\n",
      "note_off channel=9 note=42 velocity=64 time=0\n",
      "note_on channel=9 note=69 velocity=44 time=0\n",
      "note_off channel=9 note=69 velocity=64 time=0\n",
      "note_off channel=6 note=61 velocity=64 time=0\n",
      "note_off channel=6 note=57 velocity=64 time=1\n",
      "note_off channel=10 note=61 velocity=64 time=9\n",
      "note_off channel=10 note=57 velocity=64 time=1\n",
      "note_on channel=9 note=69 velocity=41 time=13\n",
      "note_off channel=9 note=69 velocity=64 time=0\n",
      "note_on channel=1 note=37 velocity=79 time=0\n",
      "note_on channel=6 note=66 velocity=90 time=0\n",
      "note_on channel=6 note=61 velocity=87 time=0\n",
      "note_on channel=6 note=57 velocity=77 time=1\n",
      "note_off channel=6 note=61 velocity=64 time=7\n",
      "note_off channel=6 note=66 velocity=64 time=4\n",
      "note_off channel=1 note=37 velocity=64 time=10\n",
      "note_on channel=6 note=66 velocity=57 time=0\n",
      "note_on channel=9 note=54 velocity=63 time=1\n",
      "note_off channel=9 note=54 velocity=64 time=0\n",
      "note_on channel=6 note=61 velocity=69 time=0\n",
      "note_on channel=10 note=57 velocity=74 time=0\n",
      "note_on channel=10 note=61 velocity=83 time=0\n",
      "note_on channel=9 note=46 velocity=44 time=1\n",
      "note_off channel=9 note=46 velocity=64 time=0\n",
      "note_on channel=9 note=69 velocity=66 time=0\n",
      "note_off channel=9 note=69 velocity=64 time=0\n",
      "note_on channel=1 note=42 velocity=77 time=0\n",
      "note_off channel=3 note=69 velocity=64 time=17\n",
      "note_off channel=6 note=61 velocity=64 time=1\n",
      "note_off channel=8 note=69 velocity=64 time=3\n",
      "note_off channel=8 note=81 velocity=64 time=0\n",
      "note_on channel=8 note=83 velocity=92 time=1\n",
      "note_on channel=8 note=71 velocity=92 time=0\n",
      "<meta message lyrics text='of ' time=1>\n",
      "note_on channel=3 note=71 velocity=106 time=0\n",
      "note_off channel=4 note=66 velocity=64 time=0\n",
      "note_on channel=9 note=69 velocity=39 time=0\n",
      "note_off channel=9 note=69 velocity=64 time=0\n",
      "note_off channel=6 note=66 velocity=64 time=0\n",
      "note_off channel=4 note=69 velocity=64 time=1\n",
      "note_on channel=4 note=71 velocity=109 time=0\n",
      "note_on channel=4 note=66 velocity=87 time=0\n",
      "note_on channel=9 note=54 velocity=35 time=0\n",
      "note_off channel=9 note=54 velocity=64 time=0\n",
      "note_off channel=6 note=57 velocity=64 time=0\n",
      "note_off channel=1 note=42 velocity=64 time=8\n",
      "note_off channel=10 note=61 velocity=64 time=5\n",
      "note_off channel=10 note=57 velocity=64 time=1\n",
      "note_on channel=9 note=42 velocity=49 time=9\n",
      "note_off channel=9 note=42 velocity=64 time=0\n",
      "note_on channel=6 note=66 velocity=86 time=0\n",
      "note_on channel=6 note=57 velocity=75 time=0\n",
      "note_on channel=9 note=40 velocity=111 time=1\n",
      "note_off channel=9 note=40 velocity=64 time=0\n",
      "note_on channel=9 note=69 velocity=46 time=0\n",
      "note_off channel=9 note=69 velocity=64 time=0\n",
      "note_on channel=6 note=61 velocity=79 time=0\n",
      "note_on channel=10 note=57 velocity=74 time=0\n",
      "note_on channel=10 note=61 velocity=73 time=0\n",
      "note_on channel=1 note=42 velocity=78 time=23\n",
      "note_on channel=9 note=42 velocity=43 time=1\n",
      "note_off channel=9 note=42 velocity=64 time=0\n",
      "note_on channel=9 note=69 velocity=42 time=0\n",
      "note_off channel=9 note=69 velocity=64 time=0\n",
      "note_off channel=0 note=57 velocity=64 time=5\n",
      "note_off channel=6 note=61 velocity=64 time=2\n",
      "note_off channel=0 note=66 velocity=64 time=1\n",
      "note_off channel=6 note=66 velocity=64 time=1\n",
      "note_off channel=6 note=57 velocity=64 time=1\n",
      "note_off channel=10 note=61 velocity=64 time=10\n",
      "note_off channel=8 note=71 velocity=64 time=1\n",
      "note_off channel=8 note=83 velocity=64 time=0\n",
      "note_off channel=3 note=71 velocity=64 time=1\n",
      "note_on channel=8 note=80 velocity=63 time=0\n",
      "note_on channel=8 note=68 velocity=63 time=0\n",
      "<meta message lyrics text='your ' time=1>\n",
      "note_on channel=3 note=68 velocity=102 time=0\n",
      "note_off channel=4 note=66 velocity=64 time=0\n",
      "note_on channel=9 note=54 velocity=63 time=0\n",
      "note_off channel=9 note=54 velocity=64 time=0\n",
      "note_off channel=1 note=42 velocity=64 time=0\n",
      "note_on channel=1 note=40 velocity=93 time=0\n",
      "note_on channel=6 note=66 velocity=72 time=0\n",
      "note_on channel=6 note=61 velocity=68 time=0\n",
      "note_off channel=4 note=71 velocity=64 time=1\n",
      "note_on channel=4 note=68 velocity=104 time=0\n",
      "note_on channel=4 note=66 velocity=87 time=0\n",
      "note_on channel=9 note=46 velocity=43 time=0\n",
      "note_off channel=9 note=46 velocity=64 time=0\n",
      "note_on channel=9 note=69 velocity=65 time=0\n",
      "note_off channel=9 note=69 velocity=64 time=0\n",
      "note_on channel=6 note=57 velocity=64 time=0\n",
      "note_off channel=6 note=66 velocity=64 time=8\n",
      "note_off channel=10 note=57 velocity=64 time=3\n",
      "note_off channel=6 note=61 velocity=64 time=1\n",
      "note_off channel=6 note=57 velocity=64 time=5\n",
      "note_on channel=9 note=69 velocity=38 time=6\n",
      "note_off channel=9 note=69 velocity=64 time=0\n",
      "note_on channel=6 note=66 velocity=74 time=0\n",
      "note_on channel=6 note=57 velocity=53 time=0\n",
      "note_on channel=6 note=61 velocity=72 time=0\n",
      "note_on channel=9 note=54 velocity=37 time=1\n",
      "note_off channel=9 note=54 velocity=64 time=0\n",
      "note_off channel=3 note=68 velocity=64 time=8\n",
      "note_off channel=6 note=66 velocity=64 time=3\n",
      "note_off channel=6 note=61 velocity=64 time=1\n",
      "note_off channel=6 note=57 velocity=64 time=2\n",
      "note_off channel=1 note=40 velocity=64 time=5\n",
      "note_off channel=8 note=68 velocity=64 time=3\n",
      "note_off channel=8 note=80 velocity=64 time=0\n",
      "note_on channel=9 note=36 velocity=112 time=1\n",
      "note_off channel=9 note=36 velocity=64 time=0\n",
      "note_on channel=9 note=69 velocity=45 time=0\n",
      "note_off channel=9 note=69 velocity=64 time=0\n",
      "note_on channel=1 note=39 velocity=89 time=0\n",
      "note_on channel=0 note=57 velocity=80 time=0\n",
      "note_on channel=0 note=66 velocity=80 time=0\n",
      "note_on channel=6 note=57 velocity=65 time=0\n",
      "note_on channel=6 note=66 velocity=77 time=0\n",
      "note_on channel=6 note=63 velocity=67 time=0\n",
      "note_on channel=10 note=59 velocity=86 time=0\n",
      "note_on channel=10 note=63 velocity=86 time=0\n",
      "note_on channel=8 note=81 velocity=89 time=0\n",
      "note_on channel=8 note=69 velocity=89 time=0\n",
      "<meta message lyrics text='life. ' time=1>\n",
      "<meta message lyrics text='\\r' time=0>\n",
      "note_on channel=3 note=69 velocity=105 time=0\n",
      "note_off channel=4 note=66 velocity=64 time=0\n",
      "note_off channel=4 note=68 velocity=64 time=0\n",
      "note_on channel=4 note=63 velocity=86 time=0\n",
      "note_on channel=4 note=69 velocity=108 time=0\n",
      "note_on channel=9 note=42 velocity=57 time=0\n",
      "note_off channel=9 note=42 velocity=64 time=0\n",
      "note_off channel=7 note=57 velocity=64 time=0\n",
      "note_off channel=7 note=61 velocity=64 time=0\n",
      "note_on channel=7 note=63 velocity=63 time=0\n",
      "note_on channel=7 note=59 velocity=86 time=0\n",
      "note_off channel=3 note=69 velocity=64 time=23\n",
      "note_on channel=3 note=68 velocity=100 time=0\n",
      "note_off channel=4 note=69 velocity=64 time=1\n",
      "note_on channel=4 note=68 velocity=103 time=0\n",
      "note_on channel=9 note=42 velocity=40 time=0\n",
      "note_off channel=9 note=42 velocity=64 time=0\n",
      "note_on channel=9 note=69 velocity=40 time=0\n",
      "note_off channel=9 note=69 velocity=64 time=0\n",
      "note_on channel=9 note=46 velocity=44 time=22\n",
      "note_off channel=9 note=46 velocity=64 time=0\n",
      "note_on channel=9 note=54 velocity=68 time=1\n",
      "note_off channel=9 note=54 velocity=64 time=0\n",
      "note_off channel=3 note=68 velocity=64 time=1\n",
      "note_on channel=3 note=66 velocity=110 time=0\n",
      "note_off channel=4 note=68 velocity=64 time=0\n",
      "note_on channel=4 note=66 velocity=102 time=0\n",
      "note_on channel=9 note=69 velocity=67 time=0\n",
      "note_off channel=9 note=69 velocity=64 time=0\n",
      "note_off channel=1 note=39 velocity=64 time=0\n",
      "note_off channel=6 note=66 velocity=64 time=3\n",
      "note_off channel=6 note=63 velocity=64 time=1\n",
      "note_off channel=0 note=57 velocity=64 time=3\n",
      "note_off channel=6 note=57 velocity=64 time=0\n",
      "note_off channel=10 note=63 velocity=64 time=2\n",
      "note_off channel=0 note=66 velocity=64 time=1\n",
      "note_off channel=10 note=59 velocity=64 time=3\n",
      "<meta message lyrics text='\\n' time=4>\n",
      "note_on channel=6 note=66 velocity=75 time=5\n",
      "note_on channel=6 note=57 velocity=81 time=0\n",
      "note_on channel=6 note=63 velocity=63 time=0\n",
      "note_off channel=8 note=69 velocity=64 time=0\n",
      "note_off channel=8 note=81 velocity=64 time=0\n",
      "note_on channel=1 note=39 velocity=74 time=1\n",
      "note_on channel=8 note=83 velocity=87 time=0\n",
      "note_on channel=8 note=71 velocity=87 time=0\n",
      "note_on channel=9 note=36 velocity=107 time=1\n",
      "note_off channel=9 note=36 velocity=64 time=0\n",
      "note_on channel=9 note=69 velocity=39 time=0\n",
      "note_off channel=9 note=69 velocity=64 time=0\n",
      "note_on channel=9 note=54 velocity=33 time=0\n",
      "note_off channel=9 note=54 velocity=64 time=0\n",
      "note_on channel=0 note=57 velocity=69 time=0\n",
      "note_on channel=0 note=66 velocity=60 time=0\n",
      "note_on channel=10 note=59 velocity=74 time=0\n",
      "note_on channel=10 note=63 velocity=63 time=1\n",
      "note_off channel=6 note=63 velocity=64 time=8\n",
      "note_off channel=6 note=57 velocity=64 time=1\n",
      "note_off channel=6 note=66 velocity=64 time=0\n",
      "note_off channel=0 note=66 velocity=64 time=6\n",
      "note_off channel=0 note=57 velocity=64 time=1\n",
      "note_off channel=10 note=63 velocity=64 time=1\n",
      "note_off channel=1 note=39 velocity=64 time=1\n",
      "note_on channel=6 note=57 velocity=73 time=2\n",
      "note_on channel=6 note=66 velocity=81 time=0\n",
      "note_on channel=6 note=63 velocity=68 time=1\n",
      "note_off channel=10 note=59 velocity=64 time=0\n",
      "note_on channel=9 note=40 velocity=110 time=1\n",
      "note_off channel=9 note=40 velocity=64 time=0\n",
      "note_on channel=9 note=42 velocity=47 time=0\n",
      "note_off channel=9 note=42 velocity=64 time=0\n",
      "note_on channel=9 note=69 velocity=51 time=1\n",
      "note_off channel=9 note=69 velocity=64 time=0\n",
      "note_on channel=1 note=39 velocity=100 time=0\n",
      "note_off channel=6 note=63 velocity=64 time=10\n",
      "note_off channel=6 note=66 velocity=64 time=2\n",
      "note_off channel=6 note=57 velocity=64 time=9\n",
      "note_on channel=9 note=69 velocity=48 time=4\n",
      "note_off channel=9 note=69 velocity=64 time=0\n",
      "note_off channel=1 note=39 velocity=64 time=5\n",
      "note_off channel=8 note=71 velocity=64 time=13\n",
      "note_off channel=8 note=83 velocity=64 time=0\n",
      "note_on channel=6 note=66 velocity=86 time=2\n",
      "note_off channel=3 note=66 velocity=64 time=1\n",
      "note_on channel=6 note=63 velocity=74 time=0\n",
      "note_on channel=6 note=57 velocity=87 time=0\n",
      "note_on channel=8 note=85 velocity=79 time=0\n",
      "note_on channel=8 note=73 velocity=79 time=0\n",
      "note_on channel=9 note=46 velocity=42 time=1\n",
      "note_off channel=9 note=46 velocity=64 time=0\n",
      "note_on channel=9 note=54 velocity=68 time=0\n",
      "note_off channel=9 note=54 velocity=64 time=0\n",
      "note_on channel=9 note=36 velocity=104 time=1\n",
      "note_off channel=9 note=36 velocity=64 time=0\n",
      "note_on channel=9 note=69 velocity=62 time=0\n",
      "note_off channel=9 note=69 velocity=64 time=0\n",
      "note_on channel=1 note=39 velocity=77 time=0\n",
      "note_on channel=0 note=66 velocity=75 time=0\n",
      "note_on channel=0 note=57 velocity=79 time=0\n",
      "note_on channel=10 note=59 velocity=79 time=0\n",
      "note_on channel=10 note=63 velocity=87 time=0\n",
      "note_on channel=9 note=69 velocity=47 time=24\n",
      "note_off channel=9 note=69 velocity=64 time=0\n",
      "note_on channel=9 note=54 velocity=37 time=0\n",
      "note_off channel=9 note=54 velocity=64 time=0\n",
      "note_off channel=6 note=63 velocity=64 time=13\n",
      "note_off channel=6 note=66 velocity=64 time=1\n",
      "note_off channel=6 note=57 velocity=64 time=5\n",
      "note_off channel=1 note=39 velocity=64 time=2\n",
      "note_on channel=9 note=42 velocity=54 time=2\n",
      "note_off channel=9 note=42 velocity=64 time=0\n",
      "note_off channel=8 note=73 velocity=64 time=0\n",
      "note_off channel=8 note=85 velocity=64 time=0\n",
      "note_off channel=4 note=66 velocity=64 time=1\n",
      "note_on channel=4 note=73 velocity=104 time=0\n",
      "note_on channel=9 note=36 velocity=107 time=0\n",
      "note_off channel=9 note=36 velocity=64 time=0\n",
      "note_on channel=9 note=69 velocity=48 time=0\n",
      "note_off channel=9 note=69 velocity=64 time=0\n",
      "note_on channel=8 note=87 velocity=79 time=0\n",
      "note_on channel=8 note=75 velocity=79 time=0\n",
      "<meta message lyrics text='Ooh, ' time=1>\n",
      "note_on channel=3 note=73 velocity=106 time=0\n",
      "note_off channel=10 note=63 velocity=64 time=0\n",
      "note_off channel=10 note=59 velocity=64 time=1\n",
      "note_on channel=9 note=40 velocity=102 time=21\n",
      "note_off channel=9 note=40 velocity=64 time=0\n",
      "note_on channel=9 note=69 velocity=48 time=1\n",
      "note_off channel=9 note=69 velocity=64 time=0\n",
      "note_on channel=1 note=39 velocity=73 time=0\n",
      "note_on channel=6 note=57 velocity=93 time=0\n",
      "note_on channel=6 note=66 velocity=64 time=0\n",
      "note_on channel=6 note=63 velocity=54 time=0\n",
      "note_off channel=6 note=63 velocity=64 time=8\n",
      "note_off channel=1 note=39 velocity=64 time=11\n",
      "note_on channel=1 note=39 velocity=80 time=3\n",
      "note_on channel=6 note=63 velocity=69 time=0\n",
      "note_on channel=10 note=59 velocity=87 time=1\n",
      "note_on channel=10 note=63 velocity=93 time=0\n",
      "note_on channel=9 note=69 velocity=64 time=1\n",
      "note_off channel=9 note=69 velocity=64 time=0\n",
      "note_on channel=9 note=54 velocity=68 time=0\n",
      "note_off channel=9 note=54 velocity=64 time=0\n",
      "note_off channel=6 note=66 velocity=64 time=13\n",
      "note_off channel=6 note=63 velocity=64 time=2\n",
      "note_off channel=8 note=75 velocity=64 time=1\n",
      "note_off channel=8 note=87 velocity=64 time=0\n",
      "note_off channel=3 note=73 velocity=64 time=5\n",
      "<meta message lyrics text='ooh, ' time=1>\n",
      "note_on channel=3 note=71 velocity=110 time=0\n",
      "note_on channel=8 note=88 velocity=76 time=0\n",
      "note_on channel=8 note=76 velocity=76 time=0\n",
      "note_off channel=4 note=73 velocity=64 time=2\n",
      "note_on channel=4 note=71 velocity=108 time=0\n",
      "note_on channel=9 note=69 velocity=45 time=0\n",
      "note_off channel=9 note=69 velocity=64 time=0\n",
      "note_on channel=9 note=54 velocity=38 time=0\n",
      "note_off channel=9 note=54 velocity=64 time=0\n",
      "note_off channel=1 note=39 velocity=64 time=2\n",
      "note_off channel=6 note=57 velocity=64 time=3\n",
      "note_off channel=10 note=63 velocity=64 time=9\n",
      "note_off channel=10 note=59 velocity=64 time=4\n",
      "note_on channel=9 note=40 velocity=110 time=5\n",
      "note_off channel=9 note=40 velocity=64 time=0\n",
      "note_on channel=9 note=42 velocity=54 time=0\n",
      "note_off channel=9 note=42 velocity=64 time=0\n",
      "note_on channel=6 note=66 velocity=87 time=0\n",
      "note_on channel=6 note=57 velocity=86 time=0\n",
      "note_on channel=6 note=63 velocity=71 time=0\n",
      "note_on channel=9 note=69 velocity=55 time=1\n",
      "note_off channel=9 note=69 velocity=64 time=0\n",
      "note_on channel=1 note=39 velocity=77 time=0\n",
      "note_on channel=10 note=63 velocity=81 time=1\n",
      "note_on channel=10 note=59 velocity=83 time=0\n",
      "note_off channel=0 note=57 velocity=64 time=11\n",
      "note_off channel=0 note=66 velocity=64 time=0\n",
      "note_on channel=9 note=69 velocity=40 time=12\n",
      "note_off channel=9 note=69 velocity=64 time=0\n",
      "note_off channel=6 note=63 velocity=64 time=3\n",
      "note_off channel=6 note=66 velocity=64 time=4\n",
      "note_off channel=6 note=57 velocity=64 time=1\n",
      "note_off channel=1 note=39 velocity=64 time=8\n",
      "note_off channel=10 note=63 velocity=64 time=1\n",
      "note_off channel=10 note=59 velocity=64 time=4\n",
      "note_off channel=8 note=76 velocity=64 time=0\n",
      "note_off channel=8 note=88 velocity=64 time=0\n",
      "note_off channel=3 note=71 velocity=64 time=1\n",
      "note_on channel=8 note=90 velocity=73 time=0\n",
      "note_on channel=8 note=78 velocity=73 time=0\n",
      "note_on channel=3 note=69 velocity=106 time=1\n",
      "note_on channel=9 note=54 velocity=63 time=0\n",
      "note_off channel=9 note=54 velocity=64 time=0\n",
      "note_on channel=6 note=66 velocity=87 time=0\n",
      "note_on channel=6 note=63 velocity=65 time=0\n",
      "note_on channel=6 note=57 velocity=74 time=0\n",
      "note_off channel=4 note=71 velocity=64 time=1\n",
      "note_on channel=4 note=69 velocity=107 time=0\n",
      "note_on channel=9 note=46 velocity=43 time=0\n",
      "note_off channel=9 note=46 velocity=64 time=0\n",
      "note_on channel=9 note=69 velocity=65 time=0\n",
      "note_off channel=9 note=69 velocity=64 time=0\n",
      "note_on channel=1 note=39 velocity=84 time=0\n",
      "note_off channel=6 note=63 velocity=64 time=10\n",
      "note_off channel=6 note=66 velocity=64 time=2\n",
      "note_on channel=6 note=66 velocity=83 time=10\n",
      "note_on channel=6 note=63 velocity=72 time=1\n",
      "note_on channel=9 note=69 velocity=42 time=1\n",
      "note_off channel=9 note=69 velocity=64 time=0\n",
      "note_on channel=9 note=54 velocity=33 time=0\n",
      "note_off channel=9 note=54 velocity=64 time=0\n",
      "note_off channel=6 note=63 velocity=64 time=14\n",
      "note_off channel=6 note=66 velocity=64 time=0\n",
      "note_off channel=6 note=57 velocity=64 time=0\n",
      "note_off channel=1 note=39 velocity=64 time=1\n",
      "note_off channel=3 note=69 velocity=64 time=8\n",
      "note_on channel=9 note=36 velocity=113 time=0\n",
      "note_off channel=9 note=36 velocity=64 time=0\n",
      "note_on channel=9 note=42 velocity=55 time=0\n",
      "note_off channel=9 note=42 velocity=64 time=0\n",
      "<meta message lyrics text='see ' time=1>\n",
      "note_on channel=3 note=68 velocity=105 time=0\n",
      "note_off channel=4 note=69 velocity=64 time=0\n",
      "note_off channel=4 note=63 velocity=64 time=0\n",
      "note_on channel=4 note=62 velocity=78 time=0\n",
      "note_on channel=4 note=68 velocity=107 time=0\n",
      "note_on channel=9 note=69 velocity=37 time=0\n",
      "note_off channel=9 note=69 velocity=64 time=0\n",
      "note_on channel=1 note=38 velocity=91 time=0\n",
      "note_on channel=0 note=64 velocity=78 time=0\n",
      "note_on channel=0 note=69 velocity=78 time=0\n",
      "note_on channel=10 note=54 velocity=60 time=0\n",
      "note_off channel=8 note=78 velocity=64 time=0\n",
      "note_off channel=8 note=90 velocity=64 time=0\n",
      "note_off channel=7 note=59 velocity=64 time=0\n",
      "note_off channel=7 note=63 velocity=64 time=0\n",
      "note_off channel=7 note=66 velocity=64 time=0\n",
      "note_on channel=7 note=54 velocity=67 time=0\n",
      "note_on channel=7 note=57 velocity=81 time=0\n",
      "note_on channel=7 note=64 velocity=77 time=0\n",
      "note_on channel=8 note=88 velocity=73 time=1\n",
      "note_on channel=8 note=76 velocity=73 time=0\n",
      "note_off channel=10 note=54 velocity=64 time=19\n",
      "note_on channel=9 note=42 velocity=42 time=3\n",
      "note_off channel=9 note=42 velocity=64 time=0\n",
      "note_on channel=10 note=57 velocity=65 time=0\n",
      "note_on channel=10 note=64 velocity=67 time=0\n",
      "note_on channel=9 note=69 velocity=40 time=1\n",
      "note_off channel=9 note=69 velocity=64 time=0\n",
      "note_on channel=6 note=69 velocity=69 time=0\n",
      "note_on channel=6 note=66 velocity=93 time=0\n",
      "note_on channel=6 note=62 velocity=75 time=0\n",
      "note_off channel=6 note=66 velocity=64 time=13\n",
      "note_off channel=6 note=62 velocity=64 time=1\n",
      "note_on channel=9 note=46 velocity=47 time=9\n",
      "note_off channel=9 note=46 velocity=64 time=0\n",
      "note_on channel=9 note=54 velocity=65 time=0\n",
      "note_off channel=9 note=54 velocity=64 time=0\n",
      "note_off channel=1 note=38 velocity=64 time=0\n",
      "note_on channel=6 note=62 velocity=56 time=0\n",
      "note_on channel=6 note=66 velocity=75 time=0\n",
      "note_on channel=9 note=69 velocity=64 time=1\n",
      "note_off channel=9 note=69 velocity=64 time=0\n",
      "note_off channel=0 note=69 velocity=64 time=11\n",
      "note_off channel=0 note=64 velocity=64 time=5\n",
      "note_off channel=6 note=69 velocity=64 time=4\n",
      "note_off channel=6 note=66 velocity=64 time=1\n",
      "<meta message lyrics text='that ' time=2>\n",
      "note_off channel=3 note=68 velocity=64 time=0\n",
      "note_on channel=3 note=69 velocity=107 time=0\n",
      "note_on channel=9 note=54 velocity=40 time=0\n",
      "note_off channel=9 note=54 velocity=64 time=0\n",
      "note_off channel=10 note=64 velocity=64 time=0\n",
      "note_off channel=4 note=68 velocity=64 time=1\n",
      "note_off channel=4 note=62 velocity=64 time=0\n",
      "note_on channel=4 note=69 velocity=107 time=0\n",
      "note_on channel=4 note=64 velocity=83 time=0\n",
      "note_on channel=9 note=36 velocity=102 time=0\n",
      "note_off channel=9 note=36 velocity=64 time=0\n",
      "note_on channel=9 note=69 velocity=39 time=0\n",
      "note_off channel=9 note=69 velocity=64 time=0\n",
      "note_on channel=1 note=38 velocity=86 time=0\n",
      "note_on channel=6 note=57 velocity=71 time=0\n",
      "note_off channel=10 note=57 velocity=64 time=0\n",
      "note_on channel=0 note=64 velocity=72 time=1\n",
      "note_on channel=0 note=69 velocity=79 time=0\n",
      "note_on channel=10 note=54 velocity=58 time=0\n",
      "note_off channel=6 note=62 velocity=64 time=1\n",
      "note_off channel=10 note=54 velocity=64 time=14\n",
      "note_off channel=6 note=57 velocity=64 time=1\n",
      "note_off channel=1 note=38 velocity=64 time=1\n",
      "note_off channel=0 note=64 velocity=64 time=4\n",
      "note_on channel=9 note=40 velocity=98 time=1\n",
      "note_off channel=9 note=40 velocity=64 time=0\n",
      "note_on channel=9 note=42 velocity=53 time=0\n",
      "note_off channel=9 note=42 velocity=64 time=0\n",
      "note_off channel=0 note=69 velocity=64 time=0\n",
      "note_on channel=6 note=62 velocity=71 time=0\n",
      "note_on channel=10 note=64 velocity=68 time=0\n",
      "note_on channel=10 note=57 velocity=77 time=0\n",
      "note_on channel=9 note=69 velocity=53 time=1\n",
      "note_off channel=9 note=69 velocity=64 time=0\n",
      "note_on channel=1 note=38 velocity=91 time=0\n",
      "note_on channel=6 note=66 velocity=86 time=0\n",
      "note_on channel=6 note=69 velocity=74 time=0\n",
      "note_off channel=3 note=69 velocity=64 time=15\n",
      "note_on channel=10 note=54 velocity=54 time=8\n",
      "note_on channel=9 note=69 velocity=40 time=1\n",
      "note_off channel=9 note=69 velocity=64 time=0\n",
      "note_on channel=6 note=57 velocity=59 time=0\n",
      "note_off channel=6 note=66 velocity=64 time=1\n",
      "note_off channel=6 note=69 velocity=64 time=2\n",
      "note_off channel=10 note=57 velocity=64 time=0\n",
      "note_off channel=6 note=62 velocity=64 time=1\n",
      "note_off channel=10 note=64 velocity=64 time=1\n",
      "note_off channel=1 note=38 velocity=64 time=1\n",
      "note_off channel=10 note=54 velocity=64 time=8\n",
      "note_off channel=6 note=57 velocity=64 time=2\n",
      "<meta message lyrics text='girl, ' time=7>\n",
      "note_on channel=3 note=69 velocity=108 time=0\n",
      "note_off channel=4 note=64 velocity=64 time=0\n",
      "note_off channel=4 note=69 velocity=64 time=0\n",
      "note_on channel=9 note=46 velocity=48 time=0\n",
      "note_off channel=9 note=46 velocity=64 time=0\n",
      "note_on channel=0 note=69 velocity=73 time=0\n",
      "note_on channel=0 note=64 velocity=75 time=0\n",
      "note_on channel=6 note=69 velocity=67 time=0\n",
      "note_on channel=6 note=62 velocity=72 time=0\n",
      "note_on channel=6 note=66 velocity=81 time=0\n",
      "note_on channel=10 note=64 velocity=73 time=0\n",
      "note_on channel=10 note=57 velocity=69 time=0\n",
      "note_on channel=4 note=69 velocity=107 time=1\n",
      "note_on channel=4 note=64 velocity=85 time=0\n",
      "note_on channel=9 note=36 velocity=107 time=0\n",
      "note_off channel=9 note=36 velocity=64 time=0\n",
      "note_on channel=9 note=69 velocity=63 time=0\n",
      "note_off channel=9 note=69 velocity=64 time=0\n",
      "note_on channel=9 note=54 velocity=68 time=0\n",
      "note_off channel=9 note=54 velocity=64 time=0\n",
      "note_on channel=1 note=38 velocity=95 time=0\n",
      "note_off channel=6 note=66 velocity=64 time=11\n",
      "note_off channel=10 note=57 velocity=64 time=0\n",
      "note_off channel=6 note=62 velocity=64 time=1\n",
      "note_off channel=6 note=69 velocity=64 time=0\n",
      "note_on channel=6 note=62 velocity=65 time=11\n",
      "note_on channel=6 note=69 velocity=63 time=0\n",
      "note_on channel=6 note=66 velocity=75 time=0\n",
      "note_on channel=10 note=57 velocity=62 time=0\n",
      "note_on channel=9 note=69 velocity=39 time=1\n",
      "note_off channel=9 note=69 velocity=64 time=0\n",
      "note_on channel=9 note=54 velocity=41 time=0\n",
      "note_off channel=9 note=54 velocity=64 time=0\n",
      "note_off channel=1 note=38 velocity=64 time=19\n",
      "note_off channel=6 note=66 velocity=64 time=3\n",
      "note_off channel=6 note=69 velocity=64 time=1\n",
      "note_off channel=10 note=57 velocity=64 time=0\n",
      "note_off channel=10 note=64 velocity=64 time=0\n",
      "note_on channel=9 note=36 velocity=110 time=1\n",
      "note_off channel=9 note=36 velocity=64 time=0\n",
      "note_on channel=9 note=42 velocity=51 time=0\n",
      "note_off channel=9 note=42 velocity=64 time=0\n",
      "note_on channel=9 note=69 velocity=39 time=0\n",
      "note_off channel=9 note=69 velocity=64 time=0\n",
      "note_on channel=6 note=57 velocity=59 time=0\n",
      "note_off channel=6 note=62 velocity=64 time=1\n",
      "note_off channel=6 note=57 velocity=64 time=11\n",
      "note_on channel=10 note=57 velocity=72 time=11\n",
      "note_on channel=10 note=64 velocity=70 time=0\n",
      "note_on channel=9 note=69 velocity=46 time=1\n",
      "note_off channel=9 note=69 velocity=64 time=0\n",
      "note_on channel=1 note=33 velocity=76 time=0\n",
      "note_on channel=6 note=62 velocity=73 time=0\n",
      "note_on channel=6 note=69 velocity=75 time=0\n",
      "note_on channel=6 note=66 velocity=81 time=0\n",
      "note_off channel=10 note=57 velocity=64 time=13\n",
      "note_off channel=1 note=33 velocity=64 time=3\n",
      "note_off channel=10 note=64 velocity=64 time=2\n",
      "note_off channel=6 note=69 velocity=64 time=1\n",
      "note_off channel=6 note=62 velocity=64 time=0\n",
      "note_off channel=6 note=66 velocity=64 time=1\n",
      "note_on channel=6 note=57 velocity=58 time=3\n",
      "note_on channel=9 note=46 velocity=43 time=1\n",
      "note_off channel=9 note=46 velocity=64 time=0\n",
      "note_on channel=9 note=69 velocity=64 time=0\n",
      "note_off channel=9 note=69 velocity=64 time=0\n",
      "note_on channel=9 note=54 velocity=57 time=0\n",
      "note_off channel=9 note=54 velocity=64 time=0\n",
      "note_on channel=1 note=38 velocity=95 time=0\n",
      "note_off channel=6 note=57 velocity=64 time=7\n",
      "note_on channel=9 note=54 velocity=33 time=16\n",
      "note_off channel=9 note=54 velocity=64 time=0\n",
      "note_on channel=9 note=69 velocity=44 time=1\n",
      "note_off channel=9 note=69 velocity=64 time=0\n",
      "note_on channel=6 note=57 velocity=58 time=1\n",
      "note_off channel=6 note=57 velocity=64 time=20\n",
      "note_on channel=10 note=57 velocity=67 time=1\n",
      "note_on channel=6 note=62 velocity=95 time=1\n",
      "note_on channel=6 note=69 velocity=76 time=0\n",
      "note_on channel=10 note=64 velocity=68 time=0\n",
      "note_on channel=9 note=40 velocity=104 time=1\n",
      "note_off channel=9 note=40 velocity=64 time=0\n",
      "note_on channel=9 note=42 velocity=51 time=0\n",
      "note_off channel=9 note=42 velocity=64 time=0\n",
      "note_on channel=9 note=69 velocity=46 time=0\n",
      "note_off channel=9 note=69 velocity=64 time=0\n",
      "note_on channel=6 note=66 velocity=98 time=0\n",
      "note_off channel=1 note=38 velocity=64 time=3\n",
      "note_on channel=9 note=42 velocity=40 time=21\n",
      "note_off channel=9 note=42 velocity=64 time=0\n",
      "note_on channel=9 note=69 velocity=38 time=0\n",
      "note_off channel=9 note=69 velocity=64 time=0\n",
      "note_on channel=1 note=37 velocity=80 time=0\n",
      "note_off channel=3 note=69 velocity=64 time=11\n",
      "note_on channel=9 note=54 velocity=56 time=12\n",
      "note_off channel=9 note=54 velocity=64 time=0\n",
      "note_on channel=9 note=46 velocity=50 time=1\n",
      "note_off channel=9 note=46 velocity=64 time=0\n",
      "note_on channel=9 note=69 velocity=65 time=0\n",
      "note_off channel=9 note=69 velocity=64 time=0\n",
      "note_off channel=0 note=64 velocity=64 time=6\n",
      "note_off channel=0 note=69 velocity=64 time=5\n",
      "note_on channel=9 note=54 velocity=46 time=12\n",
      "note_off channel=9 note=54 velocity=64 time=0\n",
      "note_on channel=9 note=69 velocity=37 time=1\n",
      "note_off channel=9 note=69 velocity=64 time=0\n",
      "note_off channel=6 note=66 velocity=64 time=12\n",
      "note_off channel=6 note=69 velocity=64 time=2\n",
      "note_off channel=1 note=37 velocity=64 time=2\n",
      "note_off channel=6 note=62 velocity=64 time=0\n",
      "<meta message lyrics text='watch ' time=6>\n",
      "note_on channel=3 note=68 velocity=107 time=0\n",
      "note_off channel=4 note=64 velocity=64 time=1\n",
      "note_on channel=9 note=36 velocity=113 time=0\n",
      "note_off channel=9 note=36 velocity=64 time=0\n",
      "note_on channel=1 note=35 velocity=91 time=0\n",
      "note_off channel=4 note=69 velocity=64 time=1\n",
      "note_on channel=4 note=68 velocity=104 time=0\n",
      "note_on channel=4 note=62 velocity=77 time=0\n",
      "note_on channel=4 note=64 velocity=76 time=0\n",
      "note_on channel=9 note=42 velocity=51 time=0\n",
      "note_off channel=9 note=42 velocity=64 time=0\n",
      "note_on channel=9 note=69 velocity=39 time=0\n",
      "note_off channel=9 note=69 velocity=64 time=0\n",
      "note_on channel=0 note=69 velocity=73 time=0\n",
      "note_on channel=0 note=64 velocity=78 time=0\n",
      "note_off channel=7 note=64 velocity=64 time=0\n",
      "note_on channel=7 note=62 velocity=70 time=0\n",
      "note_off channel=10 note=57 velocity=64 time=1\n",
      "note_off channel=10 note=64 velocity=64 time=2\n",
      "note_on channel=6 note=69 velocity=68 time=20\n",
      "note_on channel=6 note=66 velocity=95 time=0\n",
      "note_on channel=6 note=62 velocity=87 time=0\n",
      "note_on channel=10 note=57 velocity=64 time=0\n",
      "note_on channel=10 note=64 velocity=65 time=0\n",
      "note_on channel=9 note=42 velocity=40 time=1\n",
      "note_off channel=9 note=42 velocity=64 time=0\n",
      "note_on channel=9 note=69 velocity=39 time=0\n",
      "note_off channel=9 note=69 velocity=64 time=0\n",
      "note_off channel=10 note=57 velocity=64 time=9\n",
      "note_off channel=6 note=66 velocity=64 time=1\n",
      "note_off channel=6 note=62 velocity=64 time=1\n",
      "note_off channel=6 note=69 velocity=64 time=0\n",
      "note_on channel=6 note=62 velocity=63 time=11\n",
      "note_on channel=6 note=66 velocity=81 time=0\n",
      "note_on channel=10 note=57 velocity=63 time=0\n",
      "note_on channel=9 note=69 velocity=67 time=1\n",
      "note_off channel=9 note=69 velocity=64 time=0\n",
      "note_on channel=9 note=54 velocity=57 time=0\n",
      "note_off channel=9 note=54 velocity=64 time=0\n",
      "note_on channel=6 note=69 velocity=63 time=0\n",
      "note_on channel=9 note=46 velocity=53 time=1\n"
     ]
    },
    {
     "name": "stdout",
     "output_type": "stream",
     "text": [
      "note_off channel=9 note=46 velocity=64 time=0\n",
      "note_off channel=0 note=69 velocity=64 time=8\n",
      "note_off channel=0 note=64 velocity=64 time=4\n",
      "note_off channel=1 note=35 velocity=64 time=4\n",
      "<meta message lyrics text='that ' time=6>\n",
      "note_off channel=3 note=68 velocity=64 time=0\n",
      "note_on channel=3 note=69 velocity=105 time=0\n",
      "note_off channel=10 note=64 velocity=64 time=0\n",
      "note_off channel=4 note=62 velocity=64 time=1\n",
      "note_on channel=9 note=36 velocity=107 time=0\n",
      "note_off channel=9 note=36 velocity=64 time=0\n",
      "note_on channel=9 note=69 velocity=42 time=0\n",
      "note_off channel=9 note=69 velocity=64 time=0\n",
      "note_on channel=9 note=54 velocity=37 time=0\n",
      "note_off channel=9 note=54 velocity=64 time=0\n",
      "note_on channel=1 note=30 velocity=100 time=0\n",
      "note_off channel=4 note=68 velocity=64 time=1\n",
      "note_on channel=4 note=69 velocity=107 time=0\n",
      "note_on channel=4 note=62 velocity=78 time=0\n",
      "note_on channel=0 note=64 velocity=77 time=0\n",
      "note_on channel=0 note=69 velocity=69 time=0\n",
      "note_on channel=10 note=54 velocity=57 time=0\n",
      "note_off channel=6 note=69 velocity=64 time=1\n",
      "note_off channel=6 note=66 velocity=64 time=0\n",
      "note_on channel=6 note=57 velocity=63 time=0\n",
      "note_off channel=10 note=57 velocity=64 time=0\n",
      "note_off channel=6 note=62 velocity=64 time=5\n",
      "note_off channel=10 note=54 velocity=64 time=3\n",
      "note_off channel=1 note=30 velocity=64 time=3\n",
      "note_off channel=6 note=57 velocity=64 time=3\n",
      "note_off channel=0 note=64 velocity=64 time=1\n",
      "note_off channel=0 note=69 velocity=64 time=1\n",
      "note_on channel=6 note=69 velocity=68 time=5\n",
      "note_on channel=10 note=57 velocity=59 time=0\n",
      "note_on channel=10 note=64 velocity=65 time=0\n",
      "note_on channel=9 note=40 velocity=104 time=1\n",
      "note_off channel=9 note=40 velocity=64 time=0\n",
      "note_on channel=1 note=35 velocity=86 time=0\n",
      "note_on channel=6 note=62 velocity=73 time=0\n",
      "note_on channel=6 note=66 velocity=67 time=0\n",
      "note_on channel=9 note=42 velocity=45 time=1\n",
      "note_off channel=9 note=42 velocity=64 time=0\n",
      "note_on channel=9 note=69 velocity=49 time=0\n",
      "note_off channel=9 note=69 velocity=64 time=0\n",
      "note_off channel=3 note=69 velocity=64 time=15\n",
      "note_on channel=9 note=69 velocity=47 time=9\n",
      "note_off channel=9 note=69 velocity=64 time=0\n",
      "note_off channel=6 note=66 velocity=64 time=0\n",
      "note_on channel=6 note=57 velocity=56 time=0\n",
      "note_off channel=6 note=62 velocity=64 time=1\n",
      "note_off channel=6 note=69 velocity=64 time=0\n",
      "note_off channel=10 note=64 velocity=64 time=1\n",
      "note_off channel=1 note=35 velocity=64 time=2\n",
      "note_off channel=10 note=57 velocity=64 time=2\n",
      "note_off channel=6 note=57 velocity=64 time=12\n",
      "note_on channel=9 note=36 velocity=110 time=4\n",
      "note_off channel=9 note=36 velocity=64 time=0\n",
      "note_off channel=4 note=62 velocity=64 time=1\n",
      "note_off channel=4 note=69 velocity=64 time=0\n",
      "note_on channel=9 note=46 velocity=43 time=0\n",
      "note_off channel=9 note=46 velocity=64 time=0\n",
      "note_on channel=9 note=54 velocity=70 time=0\n",
      "note_off channel=9 note=54 velocity=64 time=0\n",
      "note_on channel=1 note=35 velocity=91 time=0\n",
      "note_on channel=0 note=64 velocity=80 time=0\n",
      "note_on channel=0 note=69 velocity=75 time=0\n",
      "note_on channel=6 note=69 velocity=65 time=0\n",
      "note_on channel=6 note=62 velocity=69 time=0\n",
      "note_on channel=6 note=66 velocity=76 time=0\n",
      "note_on channel=10 note=64 velocity=71 time=0\n",
      "note_on channel=10 note=57 velocity=66 time=0\n",
      "<meta message lyrics text='scene, ' time=1>\n",
      "<meta message lyrics text='\\r' time=0>\n",
      "note_on channel=3 note=69 velocity=107 time=0\n",
      "note_on channel=4 note=69 velocity=106 time=0\n",
      "note_on channel=4 note=62 velocity=79 time=0\n",
      "note_on channel=9 note=69 velocity=69 time=0\n",
      "note_off channel=9 note=69 velocity=64 time=0\n",
      "note_off channel=6 note=66 velocity=64 time=11\n",
      "note_off channel=6 note=62 velocity=64 time=0\n",
      "note_off channel=10 note=57 velocity=64 time=1\n",
      "note_off channel=6 note=69 velocity=64 time=2\n",
      "note_on channel=6 note=69 velocity=62 time=8\n",
      "note_on channel=6 note=66 velocity=79 time=0\n",
      "note_on channel=6 note=62 velocity=65 time=0\n",
      "note_on channel=9 note=54 velocity=38 time=1\n",
      "note_off channel=9 note=54 velocity=64 time=0\n",
      "note_on channel=10 note=57 velocity=63 time=0\n",
      "note_on channel=9 note=69 velocity=49 time=1\n",
      "note_off channel=9 note=69 velocity=64 time=0\n",
      "note_off channel=6 note=66 velocity=64 time=22\n",
      "note_off channel=6 note=69 velocity=64 time=0\n",
      "note_on channel=9 note=36 velocity=112 time=1\n",
      "note_off channel=9 note=36 velocity=64 time=0\n",
      "note_off channel=10 note=57 velocity=64 time=0\n",
      "note_on channel=9 note=42 velocity=54 time=1\n",
      "note_off channel=9 note=42 velocity=64 time=0\n",
      "note_on channel=9 note=69 velocity=50 time=0\n",
      "note_off channel=9 note=69 velocity=64 time=0\n",
      "note_on channel=6 note=57 velocity=59 time=0\n",
      "note_off channel=10 note=64 velocity=64 time=0\n",
      "note_off channel=6 note=62 velocity=64 time=1\n",
      "note_off channel=6 note=57 velocity=64 time=13\n",
      "note_off channel=3 note=69 velocity=64 time=5\n",
      "note_on channel=6 note=62 velocity=79 time=4\n",
      "note_on channel=6 note=69 velocity=73 time=0\n",
      "note_on channel=6 note=66 velocity=75 time=0\n",
      "note_on channel=10 note=57 velocity=64 time=0\n",
      "note_on channel=10 note=64 velocity=72 time=0\n",
      "note_on channel=9 note=69 velocity=46 time=1\n",
      "note_off channel=9 note=69 velocity=64 time=0\n",
      "note_off channel=1 note=35 velocity=64 time=10\n",
      "note_off channel=10 note=57 velocity=64 time=4\n",
      "note_off channel=10 note=64 velocity=64 time=2\n",
      "note_off channel=6 note=62 velocity=64 time=2\n",
      "note_off channel=6 note=66 velocity=64 time=1\n",
      "note_off channel=6 note=69 velocity=64 time=0\n",
      "note_on channel=6 note=57 velocity=58 time=3\n",
      "note_on channel=9 note=46 velocity=44 time=1\n",
      "note_off channel=9 note=46 velocity=64 time=0\n",
      "note_on channel=9 note=54 velocity=65 time=0\n",
      "note_off channel=9 note=54 velocity=64 time=0\n",
      "note_on channel=1 note=30 velocity=103 time=0\n",
      "note_on channel=9 note=69 velocity=71 time=1\n",
      "note_off channel=9 note=69 velocity=64 time=0\n",
      "note_off channel=6 note=57 velocity=64 time=4\n",
      "note_off channel=1 note=30 velocity=64 time=12\n",
      "note_on channel=9 note=54 velocity=44 time=7\n",
      "note_off channel=9 note=54 velocity=64 time=0\n",
      "note_on channel=1 note=35 velocity=89 time=0\n",
      "note_on channel=9 note=69 velocity=40 time=1\n",
      "note_off channel=9 note=69 velocity=64 time=0\n",
      "note_on channel=6 note=57 velocity=55 time=0\n",
      "note_on channel=10 note=54 velocity=48 time=1\n",
      "note_off channel=10 note=54 velocity=64 time=11\n",
      "note_off channel=4 note=62 velocity=64 time=11\n",
      "note_on channel=9 note=40 velocity=104 time=0\n",
      "note_off channel=9 note=40 velocity=64 time=0\n",
      "note_off channel=1 note=35 velocity=64 time=0\n",
      "note_on channel=1 note=28 velocity=89 time=0\n",
      "note_on channel=6 note=69 velocity=73 time=0\n",
      "note_on channel=6 note=62 velocity=90 time=0\n",
      "note_on channel=6 note=66 velocity=85 time=0\n",
      "note_on channel=10 note=64 velocity=72 time=0\n",
      "note_on channel=10 note=57 velocity=81 time=0\n",
      "<meta message lyrics text='dig ' time=1>\n",
      "note_on channel=3 note=71 velocity=106 time=0\n",
      "note_off channel=4 note=69 velocity=64 time=0\n",
      "note_on channel=4 note=62 velocity=79 time=0\n",
      "note_on channel=4 note=71 velocity=105 time=0\n",
      "note_on channel=9 note=42 velocity=48 time=0\n",
      "note_off channel=9 note=42 velocity=64 time=0\n",
      "note_on channel=9 note=69 velocity=52 time=0\n",
      "note_off channel=9 note=69 velocity=64 time=0\n",
      "note_off channel=6 note=57 velocity=64 time=2\n",
      "<meta message lyrics text='in ' time=21>\n",
      "note_off channel=3 note=71 velocity=64 time=0\n",
      "note_on channel=3 note=69 velocity=106 time=0\n",
      "note_off channel=4 note=62 velocity=64 time=0\n",
      "note_off channel=4 note=71 velocity=64 time=1\n",
      "note_on channel=4 note=62 velocity=79 time=0\n",
      "note_on channel=4 note=69 velocity=103 time=0\n",
      "note_on channel=9 note=69 velocity=43 time=0\n",
      "note_off channel=9 note=69 velocity=64 time=0\n",
      "note_on channel=9 note=54 velocity=63 time=23\n",
      "note_off channel=9 note=54 velocity=64 time=0\n",
      "note_off channel=1 note=28 velocity=64 time=0\n",
      "note_on channel=1 note=30 velocity=93 time=0\n",
      "note_on channel=9 note=46 velocity=43 time=1\n",
      "note_off channel=9 note=46 velocity=64 time=0\n",
      "note_on channel=9 note=69 velocity=64 time=0\n",
      "note_off channel=9 note=69 velocity=64 time=0\n",
      "note_off channel=7 note=54 velocity=64 time=0\n",
      "note_off channel=0 note=64 velocity=64 time=2\n",
      "note_off channel=0 note=69 velocity=64 time=1\n",
      "note_off channel=3 note=69 velocity=64 time=18\n",
      "note_off channel=4 note=62 velocity=64 time=2\n",
      "<meta message lyrics text='the ' time=1>\n",
      "note_on channel=3 note=68 velocity=100 time=0\n",
      "note_off channel=4 note=69 velocity=64 time=0\n",
      "note_on channel=4 note=62 velocity=78 time=0\n",
      "note_on channel=4 note=68 velocity=104 time=0\n",
      "note_on channel=9 note=69 velocity=43 time=0\n",
      "note_off channel=9 note=69 velocity=64 time=0\n",
      "note_on channel=9 note=54 velocity=42 time=0\n",
      "note_off channel=9 note=54 velocity=64 time=0\n",
      "note_off channel=6 note=69 velocity=64 time=15\n",
      "note_off channel=6 note=66 velocity=64 time=1\n",
      "note_off channel=1 note=30 velocity=64 time=2\n",
      "note_off channel=6 note=62 velocity=64 time=0\n",
      "note_off channel=3 note=68 velocity=64 time=1\n",
      "note_off channel=4 note=68 velocity=64 time=4\n",
      "note_off channel=4 note=62 velocity=64 time=0\n",
      "note_on channel=9 note=36 velocity=111 time=0\n",
      "note_off channel=9 note=36 velocity=64 time=0\n",
      "note_on channel=9 note=42 velocity=53 time=0\n",
      "note_off channel=9 note=42 velocity=64 time=0\n",
      "note_on channel=4 note=62 velocity=78 time=1\n",
      "note_on channel=4 note=68 velocity=105 time=0\n",
      "note_on channel=1 note=33 velocity=108 time=0\n",
      "note_on channel=0 note=69 velocity=73 time=0\n",
      "note_on channel=0 note=64 velocity=80 time=0\n",
      "note_on channel=6 note=57 velocity=60 time=0\n",
      "note_on channel=7 note=64 velocity=75 time=0\n",
      "note_on channel=13 note=45 velocity=72 time=0\n",
      "note_on channel=9 note=69 velocity=47 time=1\n",
      "note_off channel=9 note=69 velocity=64 time=0\n",
      "<meta message lyrics text='danc' time=1>\n",
      "note_on channel=3 note=68 velocity=106 time=0\n",
      "note_off channel=10 note=57 velocity=64 time=0\n",
      "note_off channel=10 note=64 velocity=64 time=3\n",
      "note_on channel=9 note=42 velocity=43 time=18\n",
      "note_off channel=9 note=42 velocity=64 time=0\n",
      "note_on channel=6 note=64 velocity=76 time=0\n",
      "note_on channel=6 note=69 velocity=74 time=0\n",
      "note_on channel=6 note=62 velocity=72 time=0\n",
      "note_on channel=10 note=62 velocity=74 time=0\n",
      "note_on channel=10 note=57 velocity=65 time=0\n",
      "note_on channel=9 note=69 velocity=45 time=2\n",
      "note_off channel=9 note=69 velocity=64 time=0\n",
      "note_off channel=6 note=57 velocity=64 time=0\n",
      "note_off channel=6 note=64 velocity=64 time=10\n",
      "note_off channel=10 note=62 velocity=64 time=3\n",
      "note_on channel=10 note=62 velocity=58 time=8\n",
      "note_on channel=9 note=46 velocity=45 time=1\n",
      "note_off channel=9 note=46 velocity=64 time=0\n",
      "note_on channel=9 note=54 velocity=70 time=0\n",
      "note_off channel=9 note=54 velocity=64 time=0\n",
      "note_on channel=6 note=64 velocity=67 time=0\n",
      "note_on channel=9 note=69 velocity=66 time=1\n",
      "note_off channel=9 note=69 velocity=64 time=0\n",
      "note_off channel=1 note=33 velocity=64 time=4\n",
      "note_off channel=0 note=69 velocity=64 time=2\n",
      "note_off channel=0 note=64 velocity=64 time=4\n",
      "note_off channel=6 note=69 velocity=64 time=9\n",
      "note_off channel=3 note=68 velocity=64 time=3\n",
      "note_off channel=6 note=62 velocity=64 time=0\n",
      "note_off channel=10 note=62 velocity=64 time=0\n",
      "note_on channel=1 note=33 velocity=80 time=1\n",
      "note_off channel=10 note=57 velocity=64 time=0\n",
      "<meta message lyrics text='ing ' time=1>\n",
      "note_on channel=3 note=69 velocity=108 time=0\n",
      "note_off channel=4 note=68 velocity=64 time=0\n",
      "note_off channel=4 note=62 velocity=64 time=0\n",
      "note_on channel=4 note=61 velocity=78 time=0\n",
      "note_on channel=4 note=69 velocity=106 time=0\n",
      "note_on channel=9 note=36 velocity=104 time=0\n",
      "note_off channel=9 note=36 velocity=64 time=0\n",
      "note_on channel=9 note=69 velocity=43 time=0\n",
      "note_off channel=9 note=69 velocity=64 time=0\n",
      "note_on channel=9 note=54 velocity=47 time=0\n",
      "note_off channel=9 note=54 velocity=64 time=0\n",
      "note_on channel=0 note=64 velocity=80 time=0\n",
      "note_on channel=0 note=57 velocity=76 time=0\n",
      "note_on channel=0 note=62 velocity=87 time=0\n",
      "note_on channel=0 note=69 velocity=71 time=0\n",
      "note_off channel=6 note=64 velocity=64 time=0\n",
      "note_on channel=6 note=57 velocity=59 time=0\n",
      "note_off channel=0 note=69 velocity=64 time=16\n",
      "note_off channel=1 note=33 velocity=64 time=1\n",
      "note_off channel=6 note=57 velocity=64 time=0\n",
      "note_on channel=9 note=42 velocity=52 time=6\n",
      "note_off channel=9 note=42 velocity=64 time=0\n",
      "note_on channel=6 note=62 velocity=83 time=0\n",
      "note_on channel=6 note=69 velocity=77 time=0\n",
      "note_on channel=6 note=64 velocity=83 time=0\n",
      "note_on channel=10 note=57 velocity=69 time=0\n",
      "note_on channel=10 note=62 velocity=81 time=0\n",
      "note_on channel=9 note=40 velocity=107 time=1\n",
      "note_off channel=9 note=40 velocity=64 time=0\n",
      "note_on channel=9 note=69 velocity=50 time=0\n",
      "note_off channel=9 note=69 velocity=64 time=0\n",
      "note_on channel=1 note=33 velocity=108 time=0\n",
      "note_off channel=0 note=62 velocity=64 time=1\n",
      "note_off channel=0 note=64 velocity=64 time=7\n",
      "note_off channel=6 note=64 velocity=64 time=8\n",
      "note_off channel=0 note=57 velocity=64 time=2\n",
      "note_off channel=6 note=69 velocity=64 time=1\n",
      "note_off channel=6 note=62 velocity=64 time=1\n",
      "note_off channel=3 note=69 velocity=64 time=2\n",
      "note_on channel=9 note=69 velocity=46 time=2\n",
      "note_off channel=9 note=69 velocity=64 time=0\n",
      "note_on channel=6 note=57 velocity=60 time=0\n",
      "note_off channel=10 note=62 velocity=64 time=4\n",
      "note_off channel=10 note=57 velocity=64 time=3\n",
      "note_off channel=1 note=33 velocity=64 time=2\n",
      "note_off channel=6 note=57 velocity=64 time=8\n",
      "note_off channel=4 note=69 velocity=64 time=6\n",
      "note_off channel=4 note=61 velocity=64 time=0\n",
      "note_on channel=9 note=54 velocity=65 time=0\n",
      "note_off channel=9 note=54 velocity=64 time=0\n",
      "note_on channel=1 note=33 velocity=84 time=0\n",
      "note_on channel=0 note=64 velocity=87 time=0\n",
      "<meta message lyrics text='queen. ' time=1>\n",
      "<meta message lyrics text='\\r' time=0>\n",
      "note_on channel=3 note=69 velocity=107 time=0\n",
      "note_on channel=4 note=61 velocity=77 time=0\n",
      "note_on channel=4 note=69 velocity=105 time=0\n",
      "note_on channel=9 note=36 velocity=102 time=0\n",
      "note_off channel=9 note=36 velocity=64 time=0\n",
      "note_on channel=9 note=46 velocity=42 time=0\n",
      "note_off channel=9 note=46 velocity=64 time=0\n",
      "note_on channel=9 note=69 velocity=62 time=0\n",
      "note_off channel=9 note=69 velocity=64 time=0\n",
      "note_on channel=0 note=57 velocity=87 time=0\n",
      "note_on channel=0 note=61 velocity=79 time=0\n",
      "note_on channel=0 note=69 velocity=71 time=0\n",
      "note_on channel=10 note=61 velocity=64 time=0\n",
      "note_on channel=10 note=57 velocity=64 time=0\n",
      "note_off channel=7 note=62 velocity=64 time=0\n",
      "note_on channel=7 note=61 velocity=73 time=0\n",
      "note_on channel=6 note=64 velocity=90 time=1\n",
      "note_on channel=6 note=69 velocity=73 time=0\n",
      "note_on channel=6 note=61 velocity=67 time=0\n",
      "note_off channel=10 note=61 velocity=64 time=11\n",
      "note_off channel=6 note=64 velocity=64 time=5\n",
      "note_on channel=9 note=69 velocity=47 time=7\n",
      "note_off channel=9 note=69 velocity=64 time=0\n",
      "note_on channel=9 note=54 velocity=39 time=0\n",
      "note_off channel=9 note=54 velocity=64 time=0\n",
      "note_on channel=6 note=64 velocity=60 time=0\n",
      "note_on channel=10 note=61 velocity=64 time=0\n",
      "note_off channel=1 note=33 velocity=64 time=19\n",
      "note_off channel=6 note=69 velocity=64 time=1\n",
      "note_off channel=10 note=61 velocity=64 time=0\n",
      "note_off channel=6 note=64 velocity=64 time=1\n",
      "note_off channel=6 note=61 velocity=64 time=0\n",
      "note_off channel=10 note=57 velocity=64 time=0\n",
      "note_on channel=9 note=36 velocity=107 time=3\n",
      "note_off channel=9 note=36 velocity=64 time=0\n",
      "note_on channel=9 note=42 velocity=53 time=0\n",
      "note_off channel=9 note=42 velocity=64 time=0\n",
      "note_on channel=9 note=69 velocity=47 time=0\n",
      "note_off channel=9 note=69 velocity=64 time=0\n",
      "note_on channel=6 note=57 velocity=59 time=0\n",
      "note_off channel=6 note=57 velocity=64 time=15\n",
      "note_on channel=10 note=57 velocity=70 time=7\n",
      "note_on channel=10 note=61 velocity=79 time=0\n",
      "note_on channel=6 note=69 velocity=74 time=1\n",
      "note_on channel=9 note=69 velocity=43 time=1\n",
      "note_off channel=9 note=69 velocity=64 time=0\n",
      "note_on channel=1 note=33 velocity=100 time=0\n",
      "note_on channel=6 note=61 velocity=63 time=0\n",
      "note_on channel=6 note=64 velocity=86 time=0\n",
      "note_off channel=10 note=61 velocity=64 time=12\n",
      "note_off channel=10 note=57 velocity=64 time=5\n",
      "note_off channel=1 note=33 velocity=64 time=1\n",
      "note_off channel=6 note=69 velocity=64 time=1\n",
      "note_off channel=6 note=64 velocity=64 time=2\n",
      "note_on channel=9 note=54 velocity=57 time=2\n",
      "note_off channel=9 note=54 velocity=64 time=0\n",
      "note_off channel=6 note=61 velocity=64 time=0\n",
      "note_on channel=9 note=46 velocity=45 time=1\n",
      "note_off channel=9 note=46 velocity=64 time=0\n",
      "note_on channel=9 note=69 velocity=71 time=0\n",
      "note_off channel=9 note=69 velocity=64 time=0\n",
      "note_on channel=1 note=33 velocity=93 time=0\n",
      "note_on channel=6 note=57 velocity=58 time=0\n",
      "note_off channel=6 note=57 velocity=64 time=8\n",
      "note_off channel=0 note=57 velocity=64 time=7\n",
      "note_off channel=0 note=61 velocity=64 time=4\n",
      "note_on channel=9 note=69 velocity=39 time=5\n",
      "note_off channel=9 note=69 velocity=64 time=0\n",
      "note_on channel=9 note=54 velocity=42 time=0\n",
      "note_off channel=9 note=54 velocity=64 time=0\n",
      "note_off channel=0 note=64 velocity=64 time=0\n",
      "note_on channel=0 note=93 velocity=83 time=0\n",
      "note_on channel=0 note=88 velocity=120 time=0\n",
      "note_on channel=0 note=85 velocity=101 time=0\n",
      "note_on channel=10 note=52 velocity=58 time=0\n",
      "note_off channel=0 note=69 velocity=64 time=1\n",
      "note_on channel=6 note=57 velocity=56 time=1\n",
      "note_off channel=0 note=85 velocity=64 time=6\n",
      "note_off channel=10 note=52 velocity=64 time=3\n",
      "note_off channel=0 note=88 velocity=64 time=1\n",
      "note_off channel=6 note=57 velocity=64 time=3\n",
      "note_off channel=0 note=93 velocity=64 time=1\n",
      "note_off channel=1 note=33 velocity=64 time=2\n",
      "note_on channel=9 note=42 velocity=56 time=4\n",
      "note_off channel=9 note=42 velocity=64 time=0\n",
      "note_on channel=1 note=40 velocity=81 time=1\n",
      "note_on channel=10 note=57 velocity=77 time=0\n",
      "note_on channel=10 note=61 velocity=85 time=0\n",
      "note_on channel=9 note=40 velocity=104 time=1\n",
      "note_off channel=9 note=40 velocity=64 time=0\n",
      "note_on channel=9 note=69 velocity=52 time=0\n",
      "note_off channel=9 note=69 velocity=64 time=0\n",
      "note_on channel=0 note=93 velocity=66 time=0\n",
      "note_on channel=0 note=88 velocity=99 time=0\n",
      "note_on channel=0 note=85 velocity=92 time=0\n",
      "note_on channel=6 note=69 velocity=81 time=0\n",
      "note_on channel=6 note=61 velocity=71 time=0\n",
      "note_on channel=6 note=64 velocity=90 time=0\n",
      "note_on channel=9 note=42 velocity=41 time=23\n",
      "note_off channel=9 note=42 velocity=64 time=0\n",
      "note_off channel=1 note=40 velocity=64 time=0\n",
      "note_on channel=1 note=42 velocity=72 time=0\n",
      "note_on channel=9 note=69 velocity=45 time=1\n",
      "note_off channel=9 note=69 velocity=64 time=0\n",
      "note_off channel=1 note=42 velocity=64 time=22\n",
      "note_on channel=9 note=46 velocity=47 time=1\n",
      "note_off channel=9 note=46 velocity=64 time=0\n",
      "note_on channel=9 note=54 velocity=39 time=0\n",
      "note_off channel=9 note=54 velocity=64 time=0\n",
      "note_on channel=1 note=45 velocity=77 time=0\n",
      "note_on channel=9 note=69 velocity=67 time=1\n",
      "note_off channel=9 note=69 velocity=64 time=0\n",
      "note_off channel=0 note=88 velocity=64 time=3\n",
      "note_off channel=0 note=85 velocity=64 time=1\n",
      "note_off channel=0 note=93 velocity=64 time=3\n",
      "note_on channel=9 note=54 velocity=41 time=16\n",
      "note_off channel=9 note=54 velocity=64 time=0\n",
      "note_on channel=9 note=69 velocity=41 time=1\n",
      "note_off channel=9 note=69 velocity=64 time=0\n",
      "note_on channel=0 note=83 velocity=106 time=0\n",
      "note_on channel=0 note=92 velocity=78 time=0\n",
      "note_on channel=0 note=88 velocity=81 time=0\n",
      "note_off channel=0 note=88 velocity=64 time=7\n",
      "note_off channel=0 note=92 velocity=64 time=4\n",
      "note_off channel=0 note=83 velocity=64 time=1\n",
      "note_off channel=6 note=64 velocity=64 time=4\n",
      "note_off channel=6 note=69 velocity=64 time=1\n",
      "note_off channel=8 note=76 velocity=64 time=1\n",
      "note_off channel=8 note=88 velocity=64 time=0\n",
      "note_off channel=6 note=61 velocity=64 time=4\n",
      "note_off channel=4 note=69 velocity=64 time=1\n",
      "note_off channel=4 note=64 velocity=64 time=0\n",
      "note_on channel=9 note=36 velocity=110 time=0\n",
      "note_off channel=9 note=36 velocity=64 time=0\n",
      "note_on channel=9 note=42 velocity=51 time=0\n",
      "note_off channel=9 note=42 velocity=64 time=0\n",
      "note_off channel=4 note=61 velocity=64 time=1\n",
      "note_on channel=4 note=64 velocity=76 time=0\n",
      "note_on channel=4 note=69 velocity=76 time=0\n",
      "note_on channel=4 note=62 velocity=76 time=0\n",
      "note_on channel=9 note=69 velocity=52 time=0\n",
      "note_off channel=9 note=69 velocity=64 time=0\n",
      "note_off channel=1 note=45 velocity=64 time=0\n",
      "note_on channel=1 note=33 velocity=87 time=0\n",
      "note_on channel=6 note=57 velocity=62 time=0\n",
      "note_off channel=10 note=61 velocity=64 time=0\n",
      "note_off channel=7 note=61 velocity=64 time=0\n",
      "note_off channel=7 note=64 velocity=64 time=0\n",
      "note_on channel=7 note=66 velocity=71 time=0\n",
      "note_on channel=7 note=62 velocity=79 time=0\n",
      "note_on channel=0 note=92 velocity=99 time=1\n",
      "note_on channel=0 note=83 velocity=93 time=1\n",
      "note_on channel=0 note=88 velocity=106 time=0\n",
      "note_off channel=10 note=57 velocity=64 time=2\n",
      "note_on channel=9 note=42 velocity=42 time=19\n",
      "note_off channel=9 note=42 velocity=64 time=0\n",
      "note_on channel=9 note=69 velocity=43 time=1\n",
      "note_off channel=9 note=69 velocity=64 time=0\n",
      "note_on channel=6 note=62 velocity=73 time=0\n",
      "note_on channel=6 note=69 velocity=66 time=0\n",
      "note_on channel=6 note=66 velocity=63 time=0\n",
      "note_on channel=10 note=62 velocity=69 time=0\n",
      "note_on channel=10 note=57 velocity=64 time=0\n",
      "note_off channel=6 note=57 velocity=64 time=4\n",
      "note_off channel=3 note=69 velocity=64 time=1\n",
      "note_off channel=6 note=66 velocity=64 time=6\n",
      "note_off channel=6 note=62 velocity=64 time=1\n",
      "note_off channel=10 note=62 velocity=64 time=1\n",
      "note_off channel=6 note=69 velocity=64 time=1\n",
      "note_on channel=6 note=69 velocity=62 time=8\n",
      "note_on channel=9 note=46 velocity=46 time=1\n",
      "note_off channel=9 note=46 velocity=64 time=0\n",
      "note_on channel=9 note=54 velocity=78 time=0\n",
      "note_off channel=9 note=54 velocity=64 time=0\n",
      "note_on channel=6 note=62 velocity=74 time=0\n",
      "note_on channel=6 note=66 velocity=81 time=0\n",
      "note_on channel=10 note=62 velocity=66 time=0\n",
      "note_on channel=9 note=69 velocity=69 time=1\n",
      "note_off channel=9 note=69 velocity=64 time=0\n",
      "note_off channel=1 note=33 velocity=64 time=0\n",
      "note_off channel=0 note=88 velocity=64 time=4\n",
      "note_off channel=0 note=83 velocity=64 time=1\n",
      "note_off channel=0 note=92 velocity=64 time=1\n",
      "note_off channel=6 note=66 velocity=64 time=16\n",
      "note_off channel=10 note=62 velocity=64 time=0\n",
      "note_off channel=10 note=57 velocity=64 time=0\n",
      "note_on channel=1 note=33 velocity=82 time=1\n",
      "note_on channel=9 note=36 velocity=102 time=1\n",
      "note_off channel=9 note=36 velocity=64 time=0\n",
      "note_on channel=9 note=69 velocity=49 time=0\n",
      "note_off channel=9 note=69 velocity=64 time=0\n",
      "note_on channel=9 note=54 velocity=41 time=0\n",
      "note_off channel=9 note=54 velocity=64 time=0\n",
      "note_on channel=10 note=54 velocity=52 time=0\n",
      "note_on channel=0 note=90 velocity=101 time=1\n",
      "note_on channel=0 note=86 velocity=99 time=0\n",
      "note_on channel=6 note=57 velocity=60 time=0\n",
      "note_on channel=0 note=81 velocity=92 time=1\n",
      "note_off channel=6 note=62 velocity=64 time=1\n",
      "note_off channel=6 note=69 velocity=64 time=2\n",
      "note_off channel=10 note=54 velocity=64 time=5\n",
      "note_off channel=0 note=86 velocity=64 time=2\n",
      "note_off channel=0 note=81 velocity=64 time=1\n",
      "note_off channel=0 note=90 velocity=64 time=0\n",
      "note_off channel=1 note=33 velocity=64 time=2\n",
      "note_off channel=6 note=57 velocity=64 time=2\n",
      "note_on channel=10 note=62 velocity=79 time=5\n",
      "note_on channel=10 note=57 velocity=69 time=0\n",
      "note_on channel=1 note=33 velocity=97 time=1\n",
      "note_on channel=9 note=40 velocity=101 time=1\n",
      "note_off channel=9 note=40 velocity=64 time=0\n",
      "note_on channel=9 note=42 velocity=57 time=0\n",
      "note_off channel=9 note=42 velocity=64 time=0\n",
      "note_on channel=9 note=69 velocity=50 time=0\n",
      "note_off channel=9 note=69 velocity=64 time=0\n",
      "note_on channel=6 note=69 velocity=76 time=0\n",
      "note_on channel=6 note=62 velocity=93 time=0\n",
      "note_on channel=6 note=66 velocity=86 time=0\n",
      "note_on channel=0 note=81 velocity=93 time=1\n",
      "note_on channel=0 note=86 velocity=114 time=0\n",
      "note_on channel=0 note=90 velocity=110 time=0\n",
      "note_off channel=6 note=66 velocity=64 time=19\n",
      "note_off channel=10 note=62 velocity=64 time=1\n",
      "note_off channel=10 note=57 velocity=64 time=1\n",
      "note_on channel=10 note=54 velocity=45 time=0\n",
      "note_on channel=9 note=69 velocity=43 time=2\n",
      "note_off channel=9 note=69 velocity=64 time=0\n",
      "note_on channel=6 note=57 velocity=59 time=0\n",
      "note_off channel=6 note=62 velocity=64 time=1\n",
      "note_off channel=6 note=69 velocity=64 time=1\n",
      "note_off channel=1 note=33 velocity=64 time=6\n",
      "note_off channel=10 note=54 velocity=64 time=2\n",
      "note_off channel=6 note=57 velocity=64 time=8\n",
      "note_on channel=10 note=62 velocity=74 time=4\n",
      "note_on channel=9 note=46 velocity=49 time=1\n",
      "note_off channel=9 note=46 velocity=64 time=0\n",
      "note_on channel=9 note=54 velocity=70 time=0\n",
      "note_off channel=9 note=54 velocity=64 time=0\n",
      "note_on channel=1 note=33 velocity=91 time=0\n",
      "note_on channel=6 note=69 velocity=67 time=0\n",
      "note_on channel=6 note=62 velocity=70 time=0\n",
      "note_on channel=6 note=66 velocity=75 time=0\n",
      "note_on channel=10 note=57 velocity=67 time=0\n",
      "note_on channel=9 note=36 velocity=104 time=1\n",
      "note_off channel=9 note=36 velocity=64 time=0\n",
      "note_on channel=9 note=69 velocity=63 time=0\n",
      "note_off channel=9 note=69 velocity=64 time=0\n",
      "note_off channel=6 note=66 velocity=64 time=9\n",
      "note_off channel=6 note=62 velocity=64 time=2\n",
      "note_off channel=6 note=69 velocity=64 time=0\n",
      "note_off channel=10 note=62 velocity=64 time=0\n",
      "note_off channel=10 note=57 velocity=64 time=3\n",
      "note_on channel=6 note=69 velocity=65 time=8\n",
      "note_on channel=6 note=66 velocity=77 time=1\n",
      "note_on channel=6 note=62 velocity=68 time=0\n",
      "note_on channel=10 note=57 velocity=63 time=0\n",
      "note_on channel=10 note=62 velocity=70 time=0\n",
      "note_on channel=9 note=69 velocity=43 time=1\n",
      "note_off channel=9 note=69 velocity=64 time=0\n",
      "note_on channel=9 note=54 velocity=37 time=0\n",
      "note_off channel=9 note=54 velocity=64 time=0\n",
      "note_off channel=1 note=33 velocity=64 time=19\n",
      "note_off channel=6 note=66 velocity=64 time=1\n",
      "note_off channel=6 note=62 velocity=64 time=2\n",
      "note_off channel=6 note=69 velocity=64 time=0\n",
      "note_off channel=10 note=62 velocity=64 time=0\n",
      "note_on channel=9 note=36 velocity=107 time=1\n",
      "note_off channel=9 note=36 velocity=64 time=0\n",
      "note_on channel=9 note=42 velocity=67 time=0\n",
      "note_off channel=9 note=42 velocity=64 time=0\n",
      "note_on channel=6 note=57 velocity=59 time=0\n",
      "note_on channel=9 note=69 velocity=49 time=1\n",
      "note_off channel=9 note=69 velocity=64 time=0\n",
      "note_off channel=10 note=57 velocity=64 time=1\n",
      "note_off channel=6 note=57 velocity=64 time=13\n",
      "note_on channel=1 note=33 velocity=105 time=8\n",
      "note_on channel=6 note=62 velocity=73 time=0\n",
      "note_on channel=6 note=69 velocity=74 time=0\n",
      "note_on channel=6 note=66 velocity=74 time=0\n",
      "note_on channel=10 note=57 velocity=67 time=0\n",
      "note_on channel=10 note=62 velocity=75 time=0\n",
      "note_on channel=9 note=40 velocity=102 time=1\n",
      "note_off channel=9 note=40 velocity=64 time=0\n",
      "note_on channel=9 note=69 velocity=41 time=1\n",
      "note_off channel=9 note=69 velocity=64 time=0\n",
      "note_off channel=10 note=62 velocity=64 time=10\n",
      "note_off channel=10 note=57 velocity=64 time=3\n",
      "note_off channel=1 note=33 velocity=64 time=5\n",
      "note_off channel=6 note=66 velocity=64 time=0\n",
      "note_off channel=6 note=69 velocity=64 time=2\n",
      "note_off channel=6 note=62 velocity=64 time=0\n",
      "note_on channel=1 note=28 velocity=69 time=2\n",
      "note_on channel=9 note=54 velocity=70 time=1\n",
      "note_off channel=9 note=54 velocity=64 time=0\n",
      "note_on channel=9 note=69 velocity=67 time=1\n",
      "note_off channel=9 note=69 velocity=64 time=0\n",
      "note_off channel=1 note=28 velocity=64 time=22\n",
      "note_on channel=1 note=29 velocity=82 time=0\n",
      "note_on channel=6 note=57 velocity=58 time=1\n",
      "note_on channel=10 note=54 velocity=59 time=0\n",
      "note_on channel=9 note=69 velocity=44 time=1\n",
      "note_off channel=9 note=69 velocity=64 time=0\n",
      "note_on channel=9 note=54 velocity=41 time=0\n",
      "note_off channel=9 note=54 velocity=64 time=0\n",
      "note_off channel=10 note=54 velocity=64 time=11\n",
      "note_off channel=6 note=57 velocity=64 time=6\n",
      "note_off channel=1 note=29 velocity=64 time=5\n",
      "note_on channel=10 note=57 velocity=77 time=0\n",
      "note_on channel=10 note=62 velocity=81 time=0\n",
      "note_on channel=9 note=40 velocity=107 time=1\n",
      "note_off channel=9 note=40 velocity=64 time=0\n",
      "note_on channel=9 note=42 velocity=63 time=0\n",
      "note_off channel=9 note=42 velocity=64 time=0\n",
      "note_on channel=6 note=69 velocity=79 time=0\n",
      "note_on channel=6 note=66 velocity=100 time=0\n",
      "note_on channel=6 note=62 velocity=100 time=0\n",
      "note_on channel=9 note=69 velocity=59 time=1\n",
      "note_off channel=9 note=69 velocity=64 time=0\n",
      "note_on channel=1 note=30 velocity=114 time=0\n",
      "note_on channel=5 note=73 velocity=93 time=2\n",
      "note_off channel=0 note=81 velocity=64 time=0\n",
      "note_off channel=0 note=86 velocity=64 time=5\n",
      "note_off channel=0 note=90 velocity=64 time=4\n",
      "note_off channel=1 note=30 velocity=64 time=5\n",
      "note_on channel=9 note=69 velocity=47 time=8\n",
      "note_off channel=9 note=69 velocity=64 time=0\n",
      "note_on channel=1 note=30 velocity=84 time=0\n",
      "note_off channel=5 note=73 velocity=64 time=2\n",
      "note_on channel=5 note=71 velocity=94 time=1\n",
      "note_off channel=13 note=45 velocity=64 time=5\n",
      "note_off channel=1 note=30 velocity=64 time=12\n",
      "note_on channel=9 note=46 velocity=48 time=3\n",
      "note_off channel=9 note=46 velocity=64 time=0\n",
      "note_on channel=9 note=54 velocity=65 time=0\n",
      "note_off channel=9 note=54 velocity=64 time=0\n",
      "note_on channel=1 note=33 velocity=77 time=0\n",
      "note_on channel=9 note=69 velocity=68 time=1\n",
      "note_off channel=9 note=69 velocity=64 time=0\n",
      "note_off channel=10 note=57 velocity=64 time=12\n",
      "note_off channel=10 note=62 velocity=64 time=8\n",
      "note_off channel=1 note=33 velocity=64 time=3\n",
      "note_on channel=1 note=30 velocity=73 time=0\n",
      "note_off channel=4 note=62 velocity=64 time=1\n",
      "note_off channel=4 note=69 velocity=64 time=0\n",
      "note_off channel=4 note=64 velocity=64 time=0\n",
      "note_on channel=9 note=69 velocity=41 time=0\n",
      "note_off channel=9 note=69 velocity=64 time=0\n",
      "note_on channel=9 note=54 velocity=49 time=0\n",
      "note_off channel=9 note=54 velocity=64 time=0\n",
      "note_on channel=13 note=40 velocity=60 time=0\n",
      "note_off channel=5 note=71 velocity=64 time=5\n",
      "note_on channel=5 note=69 velocity=80 time=1\n",
      "note_off channel=6 note=66 velocity=64 time=8\n",
      "note_off channel=6 note=62 velocity=64 time=1\n",
      "note_off channel=6 note=69 velocity=64 time=3\n",
      "note_off channel=1 note=30 velocity=64 time=5\n",
      "note_on channel=11 note=45 velocity=74 time=0\n",
      "note_off channel=13 note=40 velocity=64 time=0\n",
      "note_on channel=9 note=36 velocity=112 time=1\n",
      "note_off channel=9 note=36 velocity=64 time=0\n",
      "note_on channel=9 note=42 velocity=56 time=0\n",
      "note_off channel=9 note=42 velocity=64 time=0\n",
      "note_on channel=9 note=69 velocity=38 time=0\n",
      "note_off channel=9 note=69 velocity=64 time=0\n",
      "note_on channel=1 note=33 velocity=100 time=0\n",
      "note_on channel=0 note=69 velocity=73 time=0\n",
      "note_on channel=0 note=64 velocity=80 time=0\n",
      "note_on channel=6 note=57 velocity=60 time=0\n",
      "note_off channel=7 note=62 velocity=64 time=0\n",
      "note_off channel=7 note=66 velocity=64 time=0\n",
      "note_on channel=7 note=64 velocity=75 time=0\n",
      "note_on channel=13 note=45 velocity=71 time=0\n",
      "note_off channel=5 note=69 velocity=64 time=5\n",
      "note_on channel=5 note=71 velocity=97 time=1\n",
      "note_off channel=11 note=45 velocity=64 time=3\n",
      "note_on channel=9 note=42 velocity=45 time=14\n",
      "note_off channel=9 note=42 velocity=64 time=0\n",
      "note_on channel=9 note=69 velocity=41 time=0\n",
      "note_off channel=9 note=69 velocity=64 time=0\n",
      "note_on channel=6 note=64 velocity=76 time=0\n",
      "note_on channel=6 note=69 velocity=74 time=0\n",
      "note_on channel=6 note=62 velocity=72 time=0\n",
      "note_on channel=10 note=62 velocity=74 time=0\n",
      "note_on channel=10 note=57 velocity=65 time=0\n",
      "note_off channel=6 note=57 velocity=64 time=2\n",
      "note_off channel=6 note=64 velocity=64 time=10\n",
      "note_off channel=10 note=62 velocity=64 time=3\n",
      "note_on channel=10 note=62 velocity=58 time=8\n",
      "note_on channel=9 note=46 velocity=50 time=1\n",
      "note_off channel=9 note=46 velocity=64 time=0\n",
      "note_on channel=9 note=69 velocity=48 time=0\n",
      "note_off channel=9 note=69 velocity=64 time=0\n",
      "note_on channel=9 note=54 velocity=44 time=0\n",
      "note_off channel=9 note=54 velocity=64 time=0\n",
      "note_on channel=6 note=64 velocity=67 time=0\n",
      "note_off channel=1 note=33 velocity=64 time=2\n",
      "note_off channel=0 note=69 velocity=64 time=5\n",
      "note_off channel=0 note=64 velocity=64 time=4\n",
      "note_off channel=6 note=69 velocity=64 time=9\n",
      "note_off channel=6 note=62 velocity=64 time=3\n",
      "note_off channel=10 note=62 velocity=64 time=0\n",
      "note_on channel=9 note=69 velocity=49 time=1\n",
      "note_off channel=9 note=69 velocity=64 time=0\n",
      "note_off channel=10 note=57 velocity=64 time=0\n",
      "note_on channel=9 note=36 velocity=107 time=1\n",
      "note_off channel=9 note=36 velocity=64 time=0\n",
      "note_on channel=9 note=54 velocity=28 time=0\n",
      "note_off channel=9 note=54 velocity=64 time=0\n",
      "note_on channel=1 note=33 velocity=82 time=0\n",
      "note_on channel=0 note=64 velocity=80 time=0\n",
      "note_on channel=0 note=57 velocity=76 time=0\n",
      "note_on channel=0 note=62 velocity=87 time=0\n",
      "note_on channel=0 note=69 velocity=71 time=0\n",
      "note_off channel=6 note=64 velocity=64 time=0\n",
      "note_on channel=6 note=57 velocity=59 time=0\n",
      "note_off channel=5 note=71 velocity=64 time=2\n",
      "note_on channel=5 note=73 velocity=85 time=2\n",
      "note_off channel=1 note=33 velocity=64 time=10\n",
      "note_off channel=0 note=69 velocity=64 time=2\n",
      "note_off channel=6 note=57 velocity=64 time=1\n",
      "note_on channel=9 note=40 velocity=101 time=6\n",
      "note_off channel=9 note=40 velocity=64 time=0\n",
      "note_on channel=9 note=69 velocity=41 time=0\n",
      "note_off channel=9 note=69 velocity=64 time=0\n",
      "note_on channel=6 note=62 velocity=83 time=0\n",
      "note_on channel=6 note=69 velocity=77 time=0\n",
      "note_on channel=6 note=64 velocity=83 time=0\n",
      "note_on channel=10 note=57 velocity=69 time=0\n",
      "note_on channel=10 note=62 velocity=81 time=0\n",
      "note_on channel=9 note=42 velocity=49 time=1\n",
      "note_off channel=9 note=42 velocity=64 time=0\n",
      "note_on channel=1 note=33 velocity=86 time=0\n",
      "note_off channel=0 note=62 velocity=64 time=1\n",
      "note_off channel=0 note=64 velocity=64 time=7\n",
      "note_off channel=6 note=64 velocity=64 time=8\n",
      "note_off channel=0 note=57 velocity=64 time=2\n",
      "note_off channel=6 note=69 velocity=64 time=1\n",
      "note_off channel=6 note=62 velocity=64 time=1\n",
      "note_on channel=9 note=69 velocity=47 time=3\n",
      "note_off channel=9 note=69 velocity=64 time=0\n",
      "note_on channel=6 note=57 velocity=60 time=1\n",
      "note_off channel=10 note=62 velocity=64 time=4\n",
      "note_off channel=10 note=57 velocity=64 time=3\n",
      "note_off channel=1 note=33 velocity=64 time=3\n",
      "note_off channel=6 note=57 velocity=64 time=7\n",
      "note_on channel=9 note=36 velocity=101 time=6\n",
      "note_off channel=9 note=36 velocity=64 time=0\n",
      "note_on channel=9 note=54 velocity=56 time=0\n",
      "note_off channel=9 note=54 velocity=64 time=0\n",
      "note_on channel=0 note=64 velocity=87 time=0\n",
      "note_on channel=9 note=46 velocity=42 time=1\n",
      "note_off channel=9 note=46 velocity=64 time=0\n",
      "note_on channel=9 note=69 velocity=62 time=0\n",
      "note_off channel=9 note=69 velocity=64 time=0\n",
      "note_on channel=1 note=33 velocity=93 time=0\n",
      "note_on channel=0 note=57 velocity=87 time=0\n",
      "note_on channel=0 note=61 velocity=79 time=0\n",
      "note_on channel=0 note=69 velocity=71 time=0\n",
      "note_on channel=10 note=61 velocity=64 time=0\n",
      "note_on channel=10 note=57 velocity=64 time=0\n",
      "note_on channel=7 note=61 velocity=73 time=0\n",
      "note_on channel=6 note=64 velocity=90 time=1\n",
      "note_on channel=6 note=69 velocity=73 time=0\n",
      "note_on channel=6 note=61 velocity=67 time=0\n",
      "note_off channel=10 note=61 velocity=64 time=11\n",
      "note_off channel=6 note=64 velocity=64 time=5\n",
      "note_on channel=9 note=69 velocity=48 time=7\n",
      "note_off channel=9 note=69 velocity=64 time=0\n",
      "note_on channel=9 note=54 velocity=32 time=0\n",
      "note_off channel=9 note=54 velocity=64 time=0\n",
      "note_on channel=6 note=64 velocity=60 time=0\n",
      "note_on channel=10 note=61 velocity=64 time=0\n",
      "note_off channel=6 note=69 velocity=64 time=20\n",
      "note_off channel=10 note=61 velocity=64 time=0\n",
      "note_off channel=1 note=33 velocity=64 time=1\n",
      "note_off channel=6 note=64 velocity=64 time=0\n",
      "note_off channel=6 note=61 velocity=64 time=0\n",
      "note_off channel=10 note=57 velocity=64 time=0\n",
      "note_on channel=9 note=42 velocity=51 time=2\n",
      "note_off channel=9 note=42 velocity=64 time=0\n",
      "note_on channel=9 note=36 velocity=107 time=1\n",
      "note_off channel=9 note=36 velocity=64 time=0\n",
      "note_on channel=9 note=69 velocity=36 time=0\n",
      "note_off channel=9 note=69 velocity=64 time=0\n",
      "note_on channel=6 note=57 velocity=59 time=0\n",
      "note_off channel=6 note=57 velocity=64 time=15\n",
      "note_on channel=10 note=57 velocity=70 time=7\n",
      "note_on channel=10 note=61 velocity=79 time=0\n",
      "note_on channel=1 note=33 velocity=89 time=1\n",
      "note_on channel=6 note=69 velocity=74 time=0\n",
      "note_on channel=9 note=69 velocity=48 time=1\n",
      "note_off channel=9 note=69 velocity=64 time=0\n",
      "note_on channel=6 note=61 velocity=63 time=0\n",
      "note_on channel=6 note=64 velocity=86 time=0\n",
      "note_off channel=10 note=61 velocity=64 time=12\n",
      "note_off channel=1 note=33 velocity=64 time=4\n",
      "note_off channel=10 note=57 velocity=64 time=1\n",
      "note_off channel=6 note=69 velocity=64 time=2\n",
      "note_off channel=6 note=64 velocity=64 time=2\n",
      "note_on channel=9 note=46 velocity=42 time=2\n",
      "note_off channel=9 note=46 velocity=64 time=0\n",
      "note_on channel=9 note=54 velocity=53 time=0\n",
      "note_off channel=9 note=54 velocity=64 time=0\n",
      "note_off channel=6 note=61 velocity=64 time=0\n",
      "note_on channel=9 note=69 velocity=62 time=1\n",
      "note_off channel=9 note=69 velocity=64 time=0\n",
      "note_on channel=1 note=33 velocity=89 time=0\n",
      "note_on channel=6 note=57 velocity=58 time=0\n",
      "note_off channel=6 note=57 velocity=64 time=8\n",
      "note_off channel=0 note=57 velocity=64 time=7\n",
      "note_off channel=0 note=61 velocity=64 time=4\n",
      "note_on channel=9 note=69 velocity=52 time=5\n",
      "note_off channel=9 note=69 velocity=64 time=0\n",
      "note_on channel=9 note=54 velocity=47 time=0\n",
      "note_off channel=9 note=54 velocity=64 time=0\n",
      "note_off channel=0 note=64 velocity=64 time=0\n",
      "note_on channel=0 note=93 velocity=83 time=0\n",
      "note_on channel=0 note=88 velocity=120 time=0\n",
      "note_on channel=0 note=85 velocity=101 time=0\n",
      "note_on channel=10 note=52 velocity=58 time=0\n",
      "note_on channel=13 note=40 velocity=61 time=0\n",
      "note_off channel=0 note=69 velocity=64 time=1\n",
      "note_off channel=13 note=45 velocity=64 time=0\n",
      "note_on channel=6 note=57 velocity=56 time=1\n",
      "note_off channel=0 note=85 velocity=64 time=6\n",
      "note_off channel=10 note=52 velocity=64 time=3\n",
      "note_off channel=0 note=88 velocity=64 time=1\n",
      "note_off channel=6 note=57 velocity=64 time=3\n",
      "note_off channel=0 note=93 velocity=64 time=1\n",
      "note_off channel=1 note=33 velocity=64 time=4\n",
      "note_off channel=13 note=40 velocity=64 time=1\n",
      "note_on channel=13 note=45 velocity=66 time=1\n",
      "note_on channel=1 note=40 velocity=77 time=1\n",
      "note_on channel=10 note=57 velocity=77 time=0\n",
      "note_on channel=10 note=61 velocity=85 time=0\n",
      "note_off channel=5 note=73 velocity=64 time=1\n",
      "note_on channel=5 note=71 velocity=96 time=0\n",
      "note_on channel=9 note=40 velocity=107 time=0\n",
      "note_off channel=9 note=40 velocity=64 time=0\n",
      "note_on channel=9 note=42 velocity=41 time=0\n",
      "note_off channel=9 note=42 velocity=64 time=0\n",
      "note_on channel=9 note=69 velocity=34 time=0\n",
      "note_off channel=9 note=69 velocity=64 time=0\n",
      "note_on channel=0 note=93 velocity=66 time=0\n",
      "note_on channel=0 note=88 velocity=99 time=0\n",
      "note_on channel=0 note=85 velocity=92 time=0\n",
      "note_on channel=6 note=69 velocity=81 time=0\n",
      "note_on channel=6 note=61 velocity=71 time=0\n",
      "note_on channel=6 note=64 velocity=90 time=0\n",
      "note_off channel=1 note=40 velocity=64 time=23\n",
      "note_on channel=1 note=42 velocity=69 time=0\n",
      "note_on channel=9 note=42 velocity=44 time=1\n",
      "note_off channel=9 note=42 velocity=64 time=0\n",
      "note_on channel=9 note=69 velocity=43 time=0\n",
      "note_off channel=9 note=69 velocity=64 time=0\n",
      "note_off channel=13 note=45 velocity=64 time=1\n",
      "note_off channel=1 note=42 velocity=64 time=18\n",
      "note_on channel=1 note=45 velocity=81 time=4\n",
      "note_on channel=13 note=45 velocity=69 time=0\n",
      "note_on channel=9 note=46 velocity=45 time=1\n",
      "note_off channel=9 note=46 velocity=64 time=0\n",
      "note_on channel=9 note=69 velocity=63 time=0\n",
      "note_off channel=9 note=69 velocity=64 time=0\n",
      "note_on channel=9 note=54 velocity=78 time=0\n",
      "note_off channel=9 note=54 velocity=64 time=0\n",
      "note_off channel=0 note=88 velocity=64 time=3\n",
      "note_off channel=0 note=85 velocity=64 time=1\n",
      "note_off channel=0 note=93 velocity=64 time=3\n",
      "note_on channel=9 note=69 velocity=59 time=17\n",
      "note_off channel=9 note=69 velocity=64 time=0\n",
      "note_on channel=0 note=83 velocity=106 time=0\n",
      "note_on channel=0 note=92 velocity=78 time=0\n",
      "note_on channel=0 note=88 velocity=81 time=0\n",
      "note_on channel=9 note=54 velocity=31 time=1\n",
      "note_off channel=9 note=54 velocity=64 time=0\n",
      "note_off channel=0 note=88 velocity=64 time=6\n",
      "note_off channel=0 note=92 velocity=64 time=4\n",
      "note_off channel=0 note=83 velocity=64 time=1\n",
      "note_off channel=6 note=64 velocity=64 time=4\n",
      "note_off channel=6 note=69 velocity=64 time=1\n",
      "note_off channel=6 note=61 velocity=64 time=5\n",
      "note_on channel=9 note=36 velocity=104 time=1\n",
      "note_off channel=9 note=36 velocity=64 time=0\n",
      "note_on channel=9 note=42 velocity=54 time=0\n",
      "note_off channel=9 note=42 velocity=64 time=0\n",
      "note_on channel=9 note=69 velocity=36 time=0\n",
      "note_off channel=9 note=69 velocity=64 time=0\n",
      "note_off channel=5 note=71 velocity=64 time=1\n",
      "note_off channel=1 note=45 velocity=64 time=0\n",
      "note_on channel=1 note=33 velocity=110 time=0\n",
      "note_on channel=6 note=57 velocity=62 time=0\n",
      "note_off channel=10 note=61 velocity=64 time=0\n",
      "note_off channel=7 note=61 velocity=64 time=0\n",
      "note_off channel=7 note=64 velocity=64 time=0\n",
      "note_on channel=7 note=66 velocity=71 time=0\n",
      "note_on channel=7 note=62 velocity=79 time=0\n",
      "note_on channel=5 note=74 velocity=95 time=1\n",
      "note_on channel=0 note=92 velocity=99 time=0\n",
      "note_on channel=0 note=83 velocity=93 time=1\n",
      "note_on channel=0 note=88 velocity=106 time=0\n",
      "note_off channel=10 note=57 velocity=64 time=2\n",
      "note_on channel=9 note=42 velocity=41 time=19\n",
      "note_off channel=9 note=42 velocity=64 time=0\n",
      "note_on channel=9 note=69 velocity=44 time=1\n",
      "note_off channel=9 note=69 velocity=64 time=0\n",
      "note_on channel=6 note=62 velocity=73 time=0\n",
      "note_on channel=6 note=69 velocity=66 time=0\n",
      "note_on channel=6 note=66 velocity=63 time=0\n",
      "note_on channel=10 note=62 velocity=69 time=0\n",
      "note_on channel=10 note=57 velocity=64 time=0\n",
      "note_off channel=6 note=57 velocity=64 time=4\n",
      "note_off channel=6 note=66 velocity=64 time=7\n",
      "note_off channel=6 note=62 velocity=64 time=1\n",
      "note_off channel=10 note=62 velocity=64 time=1\n",
      "note_off channel=6 note=69 velocity=64 time=1\n",
      "note_off channel=1 note=33 velocity=64 time=8\n",
      "note_on channel=6 note=69 velocity=62 time=0\n",
      "note_on channel=6 note=62 velocity=74 time=1\n",
      "note_on channel=6 note=66 velocity=81 time=0\n",
      "note_on channel=10 note=62 velocity=66 time=0\n",
      "note_on channel=9 note=46 velocity=46 time=1\n",
      "note_off channel=9 note=46 velocity=64 time=0\n",
      "note_on channel=9 note=69 velocity=71 time=0\n",
      "note_off channel=9 note=69 velocity=64 time=0\n",
      "note_on channel=9 note=54 velocity=70 time=0\n",
      "note_off channel=9 note=54 velocity=64 time=0\n",
      "note_off channel=0 note=88 velocity=64 time=4\n",
      "note_off channel=0 note=83 velocity=64 time=1\n",
      "note_off channel=0 note=92 velocity=64 time=1\n",
      "note_on channel=1 note=33 velocity=77 time=16\n",
      "note_off channel=6 note=66 velocity=64 time=0\n",
      "note_off channel=10 note=62 velocity=64 time=0\n",
      "note_off channel=10 note=57 velocity=64 time=0\n",
      "note_on channel=9 note=69 velocity=44 time=1\n",
      "note_off channel=9 note=69 velocity=64 time=0\n",
      "note_on channel=9 note=36 velocity=104 time=1\n",
      "note_off channel=9 note=36 velocity=64 time=0\n",
      "note_on channel=10 note=54 velocity=52 time=0\n",
      "note_on channel=9 note=54 velocity=33 time=1\n",
      "note_off channel=9 note=54 velocity=64 time=0\n",
      "note_on channel=0 note=90 velocity=101 time=0\n",
      "note_on channel=0 note=86 velocity=99 time=0\n",
      "note_on channel=6 note=57 velocity=60 time=0\n",
      "note_on channel=0 note=81 velocity=92 time=1\n",
      "note_off channel=6 note=62 velocity=64 time=1\n",
      "note_off channel=6 note=69 velocity=64 time=2\n",
      "note_off channel=10 note=54 velocity=64 time=5\n",
      "note_off channel=0 note=86 velocity=64 time=2\n",
      "note_off channel=0 note=81 velocity=64 time=1\n",
      "note_off channel=0 note=90 velocity=64 time=0\n",
      "note_off channel=1 note=33 velocity=64 time=1\n",
      "note_off channel=6 note=57 velocity=64 time=3\n",
      "note_on channel=10 note=62 velocity=79 time=5\n",
      "note_on channel=10 note=57 velocity=69 time=0\n",
      "note_on channel=1 note=33 velocity=95 time=1\n",
      "note_on channel=9 note=40 velocity=107 time=1\n",
      "note_off channel=9 note=40 velocity=64 time=0\n",
      "note_on channel=9 note=42 velocity=61 time=0\n",
      "note_off channel=9 note=42 velocity=64 time=0\n",
      "note_on channel=9 note=69 velocity=40 time=0\n",
      "note_off channel=9 note=69 velocity=64 time=0\n",
      "note_on channel=6 note=69 velocity=76 time=0\n",
      "note_on channel=6 note=62 velocity=93 time=0\n",
      "note_on channel=6 note=66 velocity=86 time=0\n",
      "note_on channel=0 note=81 velocity=93 time=1\n",
      "note_on channel=0 note=86 velocity=114 time=0\n",
      "note_on channel=0 note=90 velocity=110 time=0\n",
      "note_off channel=6 note=66 velocity=64 time=19\n",
      "note_off channel=10 note=62 velocity=64 time=1\n",
      "note_off channel=10 note=57 velocity=64 time=1\n",
      "note_on channel=10 note=54 velocity=45 time=0\n",
      "note_on channel=9 note=69 velocity=42 time=2\n",
      "note_off channel=9 note=69 velocity=64 time=0\n",
      "note_on channel=6 note=57 velocity=59 time=0\n",
      "note_off channel=6 note=62 velocity=64 time=1\n",
      "note_off channel=6 note=69 velocity=64 time=1\n",
      "note_off channel=10 note=54 velocity=64 time=8\n",
      "note_off channel=1 note=33 velocity=64 time=3\n",
      "note_off channel=6 note=57 velocity=64 time=5\n",
      "note_on channel=10 note=62 velocity=74 time=4\n",
      "note_on channel=1 note=33 velocity=97 time=1\n",
      "note_on channel=6 note=69 velocity=67 time=0\n",
      "note_on channel=6 note=62 velocity=70 time=0\n",
      "note_on channel=6 note=66 velocity=75 time=0\n",
      "note_on channel=10 note=57 velocity=67 time=0\n",
      "note_on channel=9 note=36 velocity=104 time=1\n",
      "note_off channel=9 note=36 velocity=64 time=0\n",
      "note_on channel=9 note=46 velocity=44 time=0\n",
      "note_off channel=9 note=46 velocity=64 time=0\n",
      "note_on channel=9 note=69 velocity=66 time=0\n",
      "note_off channel=9 note=69 velocity=64 time=0\n",
      "note_on channel=9 note=54 velocity=70 time=0\n",
      "note_off channel=9 note=54 velocity=64 time=0\n",
      "note_off channel=6 note=66 velocity=64 time=9\n",
      "note_off channel=6 note=62 velocity=64 time=2\n",
      "note_off channel=6 note=69 velocity=64 time=0\n",
      "note_off channel=10 note=62 velocity=64 time=0\n",
      "note_off channel=10 note=57 velocity=64 time=3\n",
      "note_on channel=6 note=69 velocity=65 time=8\n",
      "note_on channel=6 note=66 velocity=77 time=1\n",
      "note_on channel=6 note=62 velocity=68 time=0\n",
      "note_on channel=10 note=57 velocity=63 time=0\n",
      "note_on channel=10 note=62 velocity=70 time=0\n",
      "note_on channel=9 note=69 velocity=45 time=1\n",
      "note_off channel=9 note=69 velocity=64 time=0\n",
      "note_on channel=9 note=54 velocity=45 time=0\n",
      "note_off channel=9 note=54 velocity=64 time=0\n",
      "note_off channel=1 note=33 velocity=64 time=10\n",
      "note_off channel=6 note=66 velocity=64 time=10\n",
      "note_off channel=6 note=62 velocity=64 time=2\n",
      "note_off channel=6 note=69 velocity=64 time=0\n",
      "note_off channel=10 note=62 velocity=64 time=0\n",
      "note_on channel=6 note=57 velocity=59 time=1\n",
      "note_on channel=9 note=36 velocity=101 time=1\n",
      "note_off channel=9 note=36 velocity=64 time=0\n",
      "note_on channel=9 note=42 velocity=61 time=0\n",
      "note_off channel=9 note=42 velocity=64 time=0\n",
      "note_on channel=9 note=69 velocity=36 time=0\n",
      "note_off channel=9 note=69 velocity=64 time=0\n",
      "note_off channel=10 note=57 velocity=64 time=1\n",
      "note_off channel=6 note=57 velocity=64 time=13\n",
      "note_on channel=1 note=33 velocity=93 time=8\n",
      "note_on channel=6 note=62 velocity=73 time=0\n",
      "note_on channel=6 note=69 velocity=74 time=0\n",
      "note_on channel=6 note=66 velocity=74 time=0\n",
      "note_on channel=10 note=57 velocity=67 time=0\n",
      "note_on channel=10 note=62 velocity=75 time=0\n",
      "note_on channel=9 note=40 velocity=107 time=2\n",
      "note_off channel=9 note=40 velocity=64 time=0\n",
      "note_on channel=9 note=69 velocity=41 time=0\n",
      "note_off channel=9 note=69 velocity=64 time=0\n",
      "note_off channel=10 note=62 velocity=64 time=10\n",
      "note_off channel=10 note=57 velocity=64 time=3\n",
      "note_off channel=13 note=45 velocity=64 time=2\n",
      "note_off channel=6 note=66 velocity=64 time=3\n",
      "note_off channel=6 note=69 velocity=64 time=2\n",
      "note_off channel=6 note=62 velocity=64 time=0\n",
      "note_off channel=1 note=33 velocity=64 time=2\n",
      "note_on channel=1 note=28 velocity=75 time=0\n",
      "note_on channel=9 note=54 velocity=68 time=1\n",
      "note_off channel=9 note=54 velocity=64 time=0\n",
      "note_on channel=9 note=69 velocity=71 time=1\n",
      "note_off channel=9 note=69 velocity=64 time=0\n",
      "note_off channel=1 note=28 velocity=64 time=22\n",
      "note_on channel=9 note=69 velocity=52 time=1\n",
      "note_off channel=9 note=69 velocity=64 time=0\n",
      "note_on channel=1 note=29 velocity=84 time=0\n",
      "note_on channel=6 note=57 velocity=58 time=0\n",
      "note_on channel=10 note=54 velocity=59 time=0\n",
      "note_on channel=13 note=40 velocity=67 time=0\n",
      "note_on channel=9 note=54 velocity=40 time=1\n",
      "note_off channel=9 note=54 velocity=64 time=0\n",
      "note_off channel=10 note=54 velocity=64 time=11\n",
      "note_off channel=6 note=57 velocity=64 time=6\n",
      "note_off channel=5 note=74 velocity=64 time=1\n",
      "note_on channel=5 note=73 velocity=80 time=2\n",
      "note_off channel=1 note=29 velocity=64 time=1\n",
      "note_on channel=10 note=57 velocity=77 time=1\n",
      "note_on channel=10 note=62 velocity=81 time=0\n",
      "note_on channel=9 note=40 velocity=104 time=1\n",
      "note_off channel=9 note=40 velocity=64 time=0\n",
      "note_on channel=6 note=69 velocity=79 time=0\n",
      "note_on channel=6 note=66 velocity=100 time=0\n",
      "note_on channel=6 note=62 velocity=100 time=0\n",
      "note_off channel=13 note=40 velocity=64 time=0\n",
      "note_on channel=13 note=45 velocity=62 time=0\n",
      "note_on channel=9 note=42 velocity=59 time=1\n",
      "note_off channel=9 note=42 velocity=64 time=0\n",
      "note_on channel=9 note=69 velocity=56 time=0\n",
      "note_off channel=9 note=69 velocity=64 time=0\n",
      "note_on channel=1 note=30 velocity=89 time=0\n",
      "note_off channel=0 note=81 velocity=64 time=2\n",
      "note_off channel=0 note=86 velocity=64 time=5\n",
      "note_off channel=0 note=90 velocity=64 time=4\n",
      "note_off channel=1 note=30 velocity=64 time=6\n",
      "note_on channel=9 note=69 velocity=44 time=6\n",
      "note_off channel=9 note=69 velocity=64 time=0\n",
      "note_off channel=5 note=73 velocity=64 time=1\n",
      "note_on channel=1 note=30 velocity=84 time=0\n",
      "note_on channel=5 note=71 velocity=99 time=1\n",
      "note_off channel=13 note=45 velocity=64 time=1\n",
      "note_off channel=1 note=30 velocity=64 time=17\n",
      "note_on channel=9 note=69 velocity=69 time=4\n",
      "note_off channel=9 note=69 velocity=64 time=0\n",
      "note_on channel=9 note=54 velocity=68 time=0\n",
      "note_off channel=9 note=54 velocity=64 time=0\n",
      "note_on channel=9 note=46 velocity=44 time=1\n",
      "note_off channel=9 note=46 velocity=64 time=0\n",
      "note_on channel=1 note=33 velocity=87 time=0\n",
      "note_off channel=7 note=57 velocity=64 time=0\n",
      "note_on channel=13 note=45 velocity=87 time=0\n",
      "note_off channel=10 note=57 velocity=64 time=12\n",
      "note_off channel=10 note=62 velocity=64 time=8\n",
      "note_on channel=9 note=69 velocity=49 time=3\n",
      "note_off channel=9 note=69 velocity=64 time=0\n",
      "note_off channel=5 note=71 velocity=64 time=1\n",
      "note_on channel=9 note=54 velocity=33 time=0\n",
      "note_off channel=9 note=54 velocity=64 time=0\n",
      "note_off channel=1 note=33 velocity=64 time=0\n",
      "note_on channel=1 note=30 velocity=118 time=0\n",
      "note_on channel=5 note=69 velocity=83 time=1\n",
      "note_off channel=6 note=66 velocity=64 time=13\n",
      "note_off channel=6 note=62 velocity=64 time=1\n",
      "note_off channel=6 note=69 velocity=64 time=3\n",
      "note_off channel=1 note=30 velocity=64 time=2\n",
      "note_on channel=9 note=36 velocity=112 time=3\n",
      "note_off channel=9 note=36 velocity=64 time=0\n",
      "note_on channel=9 note=42 velocity=54 time=0\n",
      "note_off channel=9 note=42 velocity=64 time=0\n",
      "note_on channel=11 note=45 velocity=74 time=0\n",
      "note_on channel=9 note=69 velocity=38 time=1\n",
      "note_off channel=9 note=69 velocity=64 time=0\n",
      "note_on channel=1 note=33 velocity=85 time=0\n",
      "note_off channel=7 note=62 velocity=64 time=0\n",
      "note_off channel=7 note=66 velocity=64 time=0\n",
      "note_on channel=7 note=64 velocity=74 time=0\n",
      "note_on channel=7 note=61 velocity=58 time=0\n",
      "note_off channel=5 note=69 velocity=64 time=1\n",
      "note_on channel=5 note=71 velocity=103 time=1\n",
      "note_off channel=11 note=45 velocity=64 time=7\n",
      "note_on channel=9 note=42 velocity=44 time=14\n",
      "note_off channel=9 note=42 velocity=64 time=0\n",
      "note_on channel=9 note=69 velocity=41 time=0\n",
      "note_off channel=9 note=69 velocity=64 time=0\n",
      "note_on channel=11 note=45 velocity=68 time=0\n",
      "note_off channel=11 note=45 velocity=64 time=15\n",
      "note_off channel=1 note=33 velocity=64 time=6\n",
      "note_on channel=11 note=57 velocity=74 time=2\n",
      "note_on channel=9 note=46 velocity=47 time=1\n",
      "note_off channel=9 note=46 velocity=64 time=0\n",
      "note_on channel=9 note=69 velocity=48 time=0\n",
      "note_off channel=9 note=69 velocity=64 time=0\n",
      "note_on channel=9 note=54 velocity=44 time=0\n",
      "note_off channel=9 note=54 velocity=64 time=0\n",
      "note_off channel=11 note=57 velocity=64 time=21\n",
      "note_on channel=11 note=45 velocity=60 time=2\n",
      "note_on channel=9 note=36 velocity=107 time=1\n",
      "note_off channel=9 note=36 velocity=64 time=0\n",
      "note_on channel=9 note=69 velocity=49 time=0\n",
      "note_off channel=9 note=69 velocity=64 time=0\n",
      "note_on channel=9 note=54 velocity=28 time=1\n",
      "note_off channel=9 note=54 velocity=64 time=0\n",
      "note_on channel=1 note=33 velocity=86 time=0\n",
      "note_off channel=5 note=71 velocity=64 time=5\n",
      "note_on channel=5 note=73 velocity=87 time=1\n",
      "note_off channel=11 note=45 velocity=64 time=3\n",
      "note_on channel=11 note=57 velocity=74 time=13\n",
      "note_on channel=9 note=40 velocity=98 time=1\n",
      "note_off channel=9 note=40 velocity=64 time=0\n",
      "note_on channel=9 note=42 velocity=56 time=0\n",
      "note_off channel=9 note=42 velocity=64 time=0\n",
      "note_on channel=9 note=69 velocity=41 time=0\n",
      "note_off channel=9 note=69 velocity=64 time=0\n",
      "note_off channel=11 note=57 velocity=64 time=12\n",
      "note_off channel=1 note=33 velocity=64 time=5\n",
      "note_on channel=9 note=69 velocity=47 time=7\n",
      "note_off channel=9 note=69 velocity=64 time=0\n",
      "note_on channel=11 note=45 velocity=63 time=1\n",
      "note_off channel=11 note=45 velocity=64 time=13\n",
      "note_on channel=11 note=57 velocity=81 time=9\n",
      "note_on channel=9 note=36 velocity=102 time=1\n",
      "note_off channel=9 note=36 velocity=64 time=0\n",
      "note_on channel=9 note=54 velocity=56 time=0\n",
      "note_off channel=9 note=54 velocity=64 time=0\n",
      "note_on channel=1 note=33 velocity=100 time=0\n",
      "note_on channel=9 note=46 velocity=45 time=1\n",
      "note_off channel=9 note=46 velocity=64 time=0\n",
      "note_on channel=9 note=69 velocity=62 time=0\n",
      "note_off channel=9 note=69 velocity=64 time=0\n",
      "note_off channel=11 note=57 velocity=64 time=11\n",
      "note_on channel=11 note=57 velocity=68 time=11\n",
      "note_on channel=9 note=69 velocity=48 time=2\n",
      "note_off channel=9 note=69 velocity=64 time=0\n",
      "note_on channel=9 note=54 velocity=32 time=0\n",
      "note_off channel=9 note=54 velocity=64 time=0\n",
      "note_off channel=11 note=57 velocity=64 time=17\n",
      "note_on channel=11 note=45 velocity=58 time=5\n",
      "note_on channel=9 note=36 velocity=111 time=1\n",
      "note_off channel=9 note=36 velocity=64 time=0\n",
      "note_on channel=9 note=42 velocity=53 time=1\n",
      "note_off channel=9 note=42 velocity=64 time=0\n",
      "note_on channel=9 note=69 velocity=36 time=0\n",
      "note_off channel=9 note=69 velocity=64 time=0\n",
      "note_off channel=11 note=45 velocity=64 time=6\n",
      "note_off channel=1 note=33 velocity=64 time=5\n",
      "note_on channel=11 note=57 velocity=74 time=11\n",
      "note_on channel=9 note=69 velocity=48 time=2\n",
      "note_off channel=9 note=69 velocity=64 time=0\n",
      "note_on channel=0 note=57 velocity=91 time=1\n",
      "note_on channel=6 note=57 velocity=68 time=1\n",
      "note_off channel=11 note=57 velocity=64 time=8\n",
      "note_off channel=6 note=57 velocity=64 time=4\n",
      "note_on channel=11 note=45 velocity=53 time=8\n",
      "note_on channel=9 note=54 velocity=53 time=1\n",
      "note_off channel=9 note=54 velocity=64 time=0\n",
      "note_on channel=1 note=40 velocity=74 time=0\n",
      "note_on channel=0 note=66 velocity=92 time=0\n",
      "note_on channel=0 note=62 velocity=82 time=0\n",
      "note_on channel=6 note=69 velocity=76 time=0\n",
      "note_on channel=6 note=66 velocity=79 time=0\n",
      "note_on channel=6 note=62 velocity=76 time=0\n",
      "note_on channel=9 note=46 velocity=43 time=1\n",
      "note_off channel=9 note=46 velocity=64 time=0\n",
      "note_on channel=9 note=69 velocity=62 time=0\n",
      "note_off channel=9 note=69 velocity=64 time=0\n",
      "note_off channel=11 note=45 velocity=64 time=4\n",
      "note_off channel=1 note=40 velocity=64 time=18\n",
      "note_on channel=1 note=42 velocity=71 time=1\n",
      "note_on channel=9 note=69 velocity=52 time=1\n",
      "note_off channel=9 note=69 velocity=64 time=0\n",
      "note_on channel=9 note=54 velocity=47 time=0\n",
      "note_off channel=9 note=54 velocity=64 time=0\n",
      "note_on channel=11 note=45 velocity=61 time=0\n",
      "note_off channel=0 note=57 velocity=64 time=6\n",
      "note_off channel=0 note=62 velocity=64 time=4\n",
      "note_off channel=0 note=66 velocity=64 time=0\n",
      "note_off channel=6 note=62 velocity=64 time=1\n",
      "note_off channel=6 note=66 velocity=64 time=0\n",
      "note_off channel=6 note=69 velocity=64 time=0\n",
      "note_off channel=11 note=45 velocity=64 time=4\n",
      "note_off channel=1 note=42 velocity=64 time=2\n",
      "note_on channel=9 note=42 velocity=55 time=6\n",
      "note_off channel=9 note=42 velocity=64 time=0\n",
      "note_on channel=1 note=45 velocity=82 time=0\n",
      "note_on channel=9 note=40 velocity=110 time=1\n",
      "note_off channel=9 note=40 velocity=64 time=0\n",
      "note_on channel=9 note=69 velocity=34 time=0\n",
      "note_off channel=9 note=69 velocity=64 time=0\n",
      "note_on channel=0 note=66 velocity=96 time=0\n",
      "note_on channel=0 note=62 velocity=93 time=0\n",
      "note_on channel=0 note=57 velocity=85 time=0\n",
      "note_on channel=6 note=69 velocity=77 time=0\n",
      "note_on channel=6 note=66 velocity=87 time=0\n",
      "note_on channel=6 note=62 velocity=86 time=0\n",
      "note_on channel=11 note=57 velocity=93 time=0\n",
      "note_on channel=9 note=42 velocity=43 time=23\n",
      "note_off channel=9 note=42 velocity=64 time=0\n",
      "note_on channel=9 note=69 velocity=43 time=1\n",
      "note_off channel=9 note=69 velocity=64 time=0\n",
      "note_off channel=1 note=45 velocity=64 time=23\n",
      "note_on channel=1 note=33 velocity=82 time=0\n",
      "note_on channel=9 note=46 velocity=51 time=1\n",
      "note_off channel=9 note=46 velocity=64 time=0\n",
      "note_on channel=9 note=69 velocity=63 time=0\n",
      "note_off channel=9 note=69 velocity=64 time=0\n",
      "note_on channel=9 note=54 velocity=78 time=0\n",
      "note_off channel=9 note=54 velocity=64 time=0\n",
      "note_off channel=0 note=57 velocity=64 time=9\n",
      "note_off channel=0 note=62 velocity=64 time=0\n",
      "note_off channel=6 note=62 velocity=64 time=0\n",
      "note_off channel=6 note=69 velocity=64 time=1\n",
      "note_off channel=0 note=66 velocity=64 time=2\n",
      "note_off channel=6 note=66 velocity=64 time=0\n",
      "note_on channel=9 note=69 velocity=59 time=12\n",
      "note_off channel=9 note=69 velocity=64 time=0\n",
      "note_on channel=9 note=54 velocity=31 time=1\n",
      "note_off channel=9 note=54 velocity=64 time=0\n",
      "note_off channel=1 note=33 velocity=64 time=2\n",
      "note_on channel=9 note=42 velocity=59 time=20\n",
      "note_off channel=9 note=42 velocity=64 time=0\n",
      "note_on channel=9 note=69 velocity=36 time=0\n",
      "note_off channel=9 note=69 velocity=64 time=0\n",
      "note_on channel=11 note=45 velocity=67 time=0\n",
      "note_on channel=9 note=36 velocity=110 time=1\n",
      "note_off channel=9 note=36 velocity=64 time=0\n",
      "note_on channel=1 note=33 velocity=100 time=0\n",
      "note_off channel=11 note=57 velocity=64 time=1\n",
      "note_off channel=11 note=45 velocity=64 time=8\n",
      "note_on channel=11 note=45 velocity=63 time=13\n",
      "note_on channel=9 note=42 velocity=42 time=1\n",
      "note_off channel=9 note=42 velocity=64 time=0\n",
      "note_on channel=9 note=69 velocity=44 time=1\n",
      "note_off channel=9 note=69 velocity=64 time=0\n",
      "note_off channel=11 note=45 velocity=64 time=16\n",
      "note_on channel=9 note=46 velocity=50 time=6\n",
      "note_off channel=9 note=46 velocity=64 time=0\n",
      "note_on channel=11 note=57 velocity=79 time=1\n",
      "note_on channel=9 note=69 velocity=71 time=1\n",
      "note_off channel=9 note=69 velocity=64 time=0\n",
      "note_on channel=9 note=54 velocity=70 time=0\n",
      "note_off channel=9 note=54 velocity=64 time=0\n",
      "note_off channel=1 note=33 velocity=64 time=0\n",
      "<meta message lyrics text='\\n' time=9>\n",
      "note_off channel=11 note=57 velocity=64 time=9\n",
      "note_on channel=11 note=45 velocity=56 time=4\n",
      "note_on channel=9 note=69 velocity=44 time=1\n",
      "note_off channel=9 note=69 velocity=64 time=0\n",
      "note_on channel=9 note=36 velocity=102 time=1\n",
      "note_off channel=9 note=36 velocity=64 time=0\n",
      "note_on channel=9 note=54 velocity=33 time=1\n",
      "note_off channel=9 note=54 velocity=64 time=0\n",
      "note_on channel=1 note=33 velocity=84 time=0\n",
      "note_off channel=11 note=45 velocity=64 time=11\n",
      "note_on channel=11 note=57 velocity=77 time=10\n",
      "note_on channel=9 note=40 velocity=104 time=1\n",
      "note_off channel=9 note=40 velocity=64 time=0\n",
      "note_on channel=9 note=42 velocity=48 time=0\n",
      "note_off channel=9 note=42 velocity=64 time=0\n",
      "note_on channel=9 note=69 velocity=40 time=1\n",
      "note_off channel=9 note=69 velocity=64 time=0\n",
      "note_off channel=11 note=57 velocity=64 time=10\n",
      "note_off channel=1 note=33 velocity=64 time=12\n",
      "note_on channel=11 note=57 velocity=68 time=0\n",
      "note_on channel=9 note=69 velocity=42 time=2\n",
      "note_off channel=9 note=69 velocity=64 time=0\n",
      "note_off channel=11 note=57 velocity=64 time=21\n",
      "note_on channel=9 note=36 velocity=107 time=2\n",
      "note_off channel=9 note=36 velocity=64 time=0\n",
      "note_on channel=9 note=46 velocity=43 time=0\n",
      "note_off channel=9 note=46 velocity=64 time=0\n",
      "note_on channel=11 note=45 velocity=58 time=0\n",
      "note_on channel=9 note=69 velocity=66 time=1\n",
      "note_off channel=9 note=69 velocity=64 time=0\n",
      "note_on channel=9 note=54 velocity=70 time=0\n",
      "note_off channel=9 note=54 velocity=64 time=0\n",
      "note_on channel=1 note=33 velocity=97 time=0\n",
      "note_off channel=11 note=45 velocity=64 time=11\n",
      "note_on channel=11 note=57 velocity=74 time=11\n",
      "note_on channel=9 note=69 velocity=45 time=2\n",
      "note_off channel=9 note=69 velocity=64 time=0\n",
      "note_on channel=9 note=54 velocity=45 time=0\n",
      "note_off channel=9 note=54 velocity=64 time=0\n",
      "note_off channel=11 note=57 velocity=64 time=12\n",
      "note_on channel=11 note=45 velocity=60 time=8\n",
      "note_on channel=9 note=36 velocity=107 time=4\n",
      "note_off channel=9 note=36 velocity=64 time=0\n",
      "note_on channel=9 note=42 velocity=55 time=0\n",
      "note_off channel=9 note=42 velocity=64 time=0\n",
      "note_on channel=9 note=69 velocity=36 time=0\n",
      "note_off channel=9 note=69 velocity=64 time=0\n",
      "note_off channel=11 note=45 velocity=64 time=4\n",
      "note_off channel=1 note=33 velocity=64 time=13\n",
      "note_on channel=9 note=40 velocity=102 time=6\n",
      "note_off channel=9 note=40 velocity=64 time=0\n",
      "note_on channel=11 note=57 velocity=71 time=0\n",
      "note_on channel=9 note=69 velocity=41 time=1\n",
      "note_off channel=9 note=69 velocity=64 time=0\n",
      "note_on channel=0 note=57 velocity=67 time=0\n",
      "note_on channel=6 note=57 velocity=67 time=1\n",
      "note_off channel=6 note=57 velocity=64 time=11\n",
      "note_off channel=11 note=57 velocity=64 time=3\n",
      "note_on channel=0 note=66 velocity=101 time=7\n",
      "note_on channel=6 note=69 velocity=70 time=0\n",
      "note_on channel=9 note=54 velocity=68 time=1\n",
      "note_off channel=9 note=54 velocity=64 time=0\n",
      "note_on channel=0 note=62 velocity=87 time=0\n",
      "note_on channel=6 note=62 velocity=76 time=0\n",
      "note_on channel=6 note=66 velocity=85 time=0\n",
      "note_on channel=11 note=45 velocity=65 time=0\n",
      "note_on channel=9 note=69 velocity=71 time=1\n",
      "note_off channel=9 note=69 velocity=64 time=0\n",
      "note_on channel=1 note=40 velocity=81 time=0\n",
      "note_off channel=11 note=45 velocity=64 time=4\n",
      "note_off channel=5 note=73 velocity=64 time=5\n",
      "note_on channel=9 note=69 velocity=52 time=14\n",
      "note_off channel=9 note=69 velocity=64 time=0\n",
      "note_on channel=9 note=54 velocity=40 time=1\n",
      "note_off channel=9 note=54 velocity=64 time=0\n",
      "note_off channel=1 note=40 velocity=64 time=0\n",
      "note_on channel=1 note=42 velocity=70 time=0\n",
      "note_on channel=11 note=45 velocity=60 time=0\n",
      "note_off channel=0 note=57 velocity=64 time=4\n",
      "note_off channel=0 note=62 velocity=64 time=2\n",
      "note_off channel=6 note=66 velocity=64 time=3\n",
      "note_off channel=6 note=62 velocity=64 time=0\n",
      "note_off channel=6 note=69 velocity=64 time=0\n",
      "note_off channel=0 note=66 velocity=64 time=1\n",
      "note_off channel=11 note=45 velocity=64 time=0\n",
      "note_off channel=1 note=42 velocity=64 time=9\n",
      "note_on channel=11 note=57 velocity=95 time=4\n",
      "note_off channel=13 note=45 velocity=64 time=0\n",
      "note_on channel=9 note=40 velocity=111 time=1\n",
      "note_off channel=9 note=40 velocity=64 time=0\n",
      "note_on channel=9 note=42 velocity=61 time=0\n",
      "note_off channel=9 note=42 velocity=64 time=0\n",
      "note_on channel=1 note=45 velocity=84 time=0\n",
      "note_on channel=0 note=57 velocity=91 time=0\n",
      "note_on channel=0 note=66 velocity=106 time=0\n",
      "note_on channel=0 note=62 velocity=92 time=0\n",
      "note_on channel=6 note=69 velocity=75 time=0\n",
      "note_on channel=6 note=66 velocity=87 time=0\n",
      "note_on channel=6 note=62 velocity=76 time=0\n",
      "note_on channel=9 note=69 velocity=44 time=23\n",
      "note_off channel=9 note=69 velocity=64 time=0\n",
      "note_off channel=6 note=62 velocity=64 time=17\n",
      "note_off channel=7 note=61 velocity=64 time=3\n",
      "note_off channel=1 note=45 velocity=64 time=1\n",
      "note_off channel=0 note=57 velocity=64 time=1\n",
      "note_off channel=0 note=62 velocity=64 time=1\n",
      "note_off channel=6 note=66 velocity=64 time=0\n",
      "note_on channel=9 note=69 velocity=69 time=1\n",
      "note_off channel=9 note=69 velocity=64 time=0\n",
      "note_on channel=9 note=54 velocity=68 time=0\n",
      "note_off channel=9 note=54 velocity=64 time=0\n",
      "note_on channel=1 note=28 velocity=73 time=0\n",
      "note_off channel=0 note=66 velocity=64 time=0\n",
      "note_on channel=9 note=46 velocity=41 time=1\n",
      "note_off channel=9 note=46 velocity=64 time=0\n",
      "note_off channel=6 note=69 velocity=64 time=0\n",
      "note_off channel=7 note=64 velocity=64 time=7\n",
      "note_off channel=11 note=57 velocity=64 time=15\n",
      "note_on channel=9 note=69 velocity=49 time=1\n",
      "note_off channel=9 note=69 velocity=64 time=0\n",
      "note_off channel=1 note=28 velocity=64 time=0\n",
      "note_on channel=1 note=30 velocity=78 time=0\n",
      "note_on channel=9 note=54 velocity=33 time=1\n",
      "note_off channel=9 note=54 velocity=64 time=0\n",
      "note_off channel=1 note=30 velocity=64 time=21\n",
      "note_on channel=11 note=57 velocity=87 time=0\n",
      "<meta message lyrics text=\"You're \" time=2>\n",
      "note_on channel=3 note=61 velocity=104 time=0\n",
      "note_on channel=4 note=61 velocity=52 time=0\n",
      "note_off channel=11 note=57 velocity=64 time=0\n",
      "note_on channel=9 note=36 velocity=112 time=1\n",
      "note_off channel=9 note=36 velocity=64 time=0\n",
      "note_on channel=9 note=42 velocity=55 time=0\n",
      "note_off channel=9 note=42 velocity=64 time=0\n",
      "note_on channel=9 note=69 velocity=38 time=0\n",
      "note_off channel=9 note=69 velocity=64 time=0\n",
      "note_on channel=1 note=33 velocity=89 time=0\n",
      "note_on channel=0 note=61 velocity=93 time=0\n",
      "note_on channel=0 note=57 velocity=78 time=0\n",
      "note_on channel=0 note=64 velocity=77 time=0\n",
      "note_on channel=6 note=52 velocity=58 time=0\n",
      "note_on channel=11 note=57 velocity=83 time=0\n",
      "note_on channel=7 note=64 velocity=84 time=0\n",
      "note_on channel=7 note=61 velocity=73 time=0\n",
      "note_on channel=7 note=57 velocity=73 time=0\n",
      "note_off channel=11 note=57 velocity=64 time=11\n",
      "note_on channel=9 note=42 velocity=35 time=11\n",
      "note_off channel=9 note=42 velocity=64 time=0\n",
      "note_on channel=9 note=69 velocity=41 time=1\n",
      "note_off channel=9 note=69 velocity=64 time=0\n",
      "note_on channel=6 note=57 velocity=58 time=0\n",
      "note_on channel=11 note=57 velocity=71 time=0\n",
      "note_on channel=6 note=61 velocity=55 time=1\n",
      "note_off channel=6 note=52 velocity=64 time=10\n",
      "note_off channel=11 note=57 velocity=64 time=3\n",
      "note_off channel=6 note=57 velocity=64 time=2\n",
      "note_on channel=6 note=57 velocity=45 time=7\n",
      "note_on channel=9 note=46 velocity=41 time=1\n",
      "note_off channel=9 note=46 velocity=64 time=0\n",
      "note_on channel=9 note=69 velocity=48 time=0\n",
      "note_off channel=9 note=69 velocity=64 time=0\n",
      "note_on channel=9 note=54 velocity=44 time=0\n",
      "note_off channel=9 note=54 velocity=64 time=0\n",
      "note_on channel=11 note=61 velocity=90 time=0\n",
      "note_off channel=1 note=33 velocity=64 time=3\n",
      "<meta message lyrics text='a ' time=2>\n",
      "note_on channel=3 note=64 velocity=103 time=0\n",
      "note_off channel=4 note=61 velocity=64 time=0\n",
      "note_on channel=4 note=64 velocity=51 time=0\n",
      "note_off channel=3 note=61 velocity=64 time=3\n",
      "note_off channel=0 note=57 velocity=64 time=1\n",
      "note_off channel=0 note=61 velocity=64 time=0\n",
      "note_off channel=11 note=61 velocity=64 time=2\n",
      "note_off channel=0 note=64 velocity=64 time=2\n",
      "note_off channel=3 note=64 velocity=64 time=7\n",
      "note_off channel=6 note=61 velocity=64 time=1\n",
      "note_off channel=6 note=57 velocity=64 time=2\n",
      "note_on channel=9 note=69 velocity=49 time=1\n",
      "note_off channel=9 note=69 velocity=64 time=0\n",
      "note_on channel=1 note=33 velocity=79 time=0\n",
      "note_on channel=0 note=57 velocity=82 time=0\n",
      "note_on channel=0 note=64 velocity=78 time=0\n",
      "note_on channel=11 note=61 velocity=60 time=0\n",
      "note_on channel=9 note=36 velocity=104 time=1\n",
      "note_off channel=9 note=36 velocity=64 time=0\n",
      "note_on channel=9 note=54 velocity=28 time=0\n",
      "note_off channel=9 note=54 velocity=64 time=0\n",
      "note_on channel=0 note=61 velocity=73 time=0\n",
      "note_on channel=6 note=52 velocity=54 time=0\n",
      "note_off channel=4 note=64 velocity=64 time=4\n",
      "<meta message lyrics text='teas' time=1>\n",
      "note_on channel=3 note=64 velocity=104 time=0\n",
      "note_on channel=4 note=64 velocity=52 time=0\n",
      "note_off channel=11 note=61 velocity=64 time=6\n",
      "note_off channel=0 note=57 velocity=64 time=1\n",
      "note_off channel=0 note=61 velocity=64 time=1\n",
      "note_off channel=1 note=33 velocity=64 time=2\n",
      "note_off channel=0 note=64 velocity=64 time=0\n",
      "note_off channel=6 note=52 velocity=64 time=1\n",
      "note_on channel=9 note=40 velocity=85 time=7\n",
      "note_off channel=9 note=40 velocity=64 time=0\n",
      "note_on channel=9 note=69 velocity=41 time=0\n",
      "note_off channel=9 note=69 velocity=64 time=0\n",
      "note_on channel=1 note=33 velocity=83 time=0\n",
      "note_on channel=6 note=57 velocity=65 time=0\n",
      "note_on channel=6 note=61 velocity=59 time=0\n",
      "note_on channel=11 note=57 velocity=65 time=0\n",
      "note_on channel=9 note=42 velocity=47 time=1\n",
      "note_off channel=9 note=42 velocity=64 time=0\n",
      "note_off channel=3 note=64 velocity=64 time=9\n",
      "note_off channel=11 note=57 velocity=64 time=2\n",
      "note_on channel=9 note=69 velocity=47 time=12\n",
      "note_off channel=9 note=69 velocity=64 time=0\n",
      "note_off channel=6 note=61 velocity=64 time=0\n",
      "note_off channel=6 note=57 velocity=64 time=0\n",
      "note_on channel=6 note=52 velocity=54 time=0\n",
      "note_on channel=11 note=57 velocity=69 time=0\n",
      "note_off channel=4 note=64 velocity=64 time=3\n",
      "<meta message lyrics text='er, ' time=1>\n",
      "note_on channel=3 note=64 velocity=104 time=0\n",
      "note_on channel=4 note=64 velocity=52 time=0\n",
      "note_off channel=1 note=33 velocity=64 time=6\n",
      "note_off channel=6 note=52 velocity=64 time=1\n",
      "note_off channel=11 note=57 velocity=64 time=2\n",
      "note_off channel=3 note=64 velocity=64 time=3\n",
      "note_on channel=9 note=54 velocity=56 time=8\n",
      "note_off channel=9 note=54 velocity=64 time=0\n",
      "note_on channel=1 note=33 velocity=86 time=0\n",
      "note_on channel=0 note=64 velocity=76 time=0\n",
      "note_on channel=0 note=61 velocity=93 time=0\n",
      "note_on channel=0 note=57 velocity=89 time=0\n",
      "note_on channel=6 note=57 velocity=63 time=0\n",
      "note_on channel=6 note=61 velocity=57 time=0\n",
      "note_on channel=11 note=61 velocity=99 time=0\n",
      "note_on channel=9 note=36 velocity=101 time=1\n",
      "note_off channel=9 note=36 velocity=64 time=0\n",
      "note_on channel=9 note=46 velocity=51 time=0\n",
      "note_off channel=9 note=46 velocity=64 time=0\n",
      "note_on channel=9 note=69 velocity=62 time=0\n",
      "note_off channel=9 note=69 velocity=64 time=0\n",
      "note_off channel=4 note=64 velocity=64 time=2\n",
      "<meta message lyrics text='you ' time=1>\n",
      "note_on channel=3 note=64 velocity=104 time=0\n",
      "note_on channel=4 note=64 velocity=52 time=0\n",
      "note_off channel=6 note=61 velocity=64 time=7\n",
      "note_off channel=11 note=61 velocity=64 time=0\n",
      "note_off channel=6 note=57 velocity=64 time=3\n",
      "note_on channel=6 note=57 velocity=56 time=9\n",
      "note_on channel=6 note=61 velocity=55 time=1\n",
      "note_on channel=11 note=61 velocity=68 time=0\n",
      "note_on channel=9 note=69 velocity=48 time=1\n",
      "note_off channel=9 note=69 velocity=64 time=0\n",
      "note_on channel=9 note=54 velocity=32 time=0\n",
      "note_off channel=9 note=54 velocity=64 time=0\n",
      "note_off channel=3 note=64 velocity=64 time=9\n",
      "note_off channel=11 note=61 velocity=64 time=2\n",
      "note_off channel=1 note=33 velocity=64 time=5\n",
      "note_off channel=6 note=61 velocity=64 time=0\n",
      "note_off channel=6 note=57 velocity=64 time=2\n",
      "note_on channel=11 note=57 velocity=76 time=5\n",
      "note_on channel=9 note=36 velocity=107 time=1\n",
      "note_off channel=9 note=36 velocity=64 time=0\n",
      "note_on channel=9 note=42 velocity=49 time=0\n",
      "note_off channel=9 note=42 velocity=64 time=0\n",
      "note_on channel=9 note=69 velocity=36 time=0\n",
      "note_off channel=9 note=69 velocity=64 time=0\n",
      "note_off channel=4 note=64 velocity=64 time=2\n",
      "<meta message lyrics text='turn ' time=1>\n",
      "note_on channel=3 note=64 velocity=104 time=0\n",
      "note_on channel=4 note=64 velocity=52 time=0\n",
      "note_off channel=11 note=57 velocity=64 time=8\n",
      "note_on channel=1 note=33 velocity=83 time=12\n",
      "note_on channel=6 note=57 velocity=62 time=0\n",
      "note_on channel=6 note=61 velocity=61 time=0\n",
      "note_off channel=3 note=64 velocity=64 time=1\n",
      "note_on channel=9 note=69 velocity=48 time=0\n",
      "note_off channel=9 note=69 velocity=64 time=0\n",
      "note_on channel=11 note=57 velocity=68 time=0\n",
      "note_off channel=1 note=33 velocity=64 time=11\n",
      "note_off channel=6 note=57 velocity=64 time=0\n",
      "note_off channel=6 note=61 velocity=64 time=1\n",
      "note_off channel=11 note=57 velocity=64 time=4\n",
      "note_off channel=4 note=64 velocity=64 time=7\n",
      "note_on channel=9 note=54 velocity=53 time=0\n",
      "note_off channel=9 note=54 velocity=64 time=0\n",
      "note_on channel=1 note=33 velocity=93 time=0\n",
      "note_on channel=11 note=61 velocity=97 time=0\n",
      "<meta message lyrics text=\"'em \" time=1>\n",
      "note_on channel=3 note=64 velocity=105 time=0\n",
      "note_on channel=4 note=64 velocity=52 time=0\n",
      "note_on channel=9 note=46 velocity=42 time=0\n",
      "note_off channel=9 note=46 velocity=64 time=0\n",
      "note_on channel=9 note=69 velocity=62 time=0\n",
      "note_off channel=9 note=69 velocity=64 time=0\n",
      "note_off channel=11 note=61 velocity=64 time=10\n",
      "note_on channel=11 note=61 velocity=73 time=13\n",
      "note_on channel=9 note=69 velocity=52 time=1\n",
      "note_off channel=9 note=69 velocity=64 time=0\n",
      "note_on channel=9 note=54 velocity=47 time=0\n",
      "note_off channel=9 note=54 velocity=64 time=0\n",
      "note_on channel=6 note=52 velocity=54 time=0\n",
      "note_off channel=6 note=52 velocity=64 time=10\n",
      "note_off channel=11 note=61 velocity=64 time=1\n",
      "note_off channel=1 note=33 velocity=64 time=11\n",
      "note_off channel=3 note=64 velocity=64 time=1\n",
      "note_on channel=9 note=40 velocity=107 time=0\n",
      "note_off channel=9 note=40 velocity=64 time=0\n",
      "note_on channel=9 note=42 velocity=46 time=0\n",
      "note_off channel=9 note=42 velocity=64 time=0\n",
      "note_on channel=1 note=40 velocity=77 time=0\n",
      "note_on channel=6 note=57 velocity=71 time=0\n",
      "note_on channel=6 note=61 velocity=66 time=0\n",
      "note_on channel=11 note=57 velocity=76 time=0\n",
      "note_on channel=9 note=69 velocity=34 time=1\n",
      "note_off channel=9 note=69 velocity=64 time=0\n",
      "<meta message lyrics text='on, ' time=2>\n",
      "<meta message lyrics text='\\r' time=0>\n",
      "note_on channel=3 note=66 velocity=108 time=0\n",
      "note_off channel=4 note=64 velocity=64 time=0\n",
      "note_on channel=4 note=66 velocity=54 time=0\n",
      "note_off channel=11 note=57 velocity=64 time=9\n",
      "note_off channel=1 note=40 velocity=64 time=12\n",
      "note_on channel=1 note=42 velocity=73 time=0\n",
      "note_on channel=9 note=42 velocity=40 time=1\n",
      "note_off channel=9 note=42 velocity=64 time=0\n",
      "note_on channel=9 note=69 velocity=43 time=0\n",
      "note_off channel=9 note=69 velocity=64 time=0\n",
      "note_on channel=11 note=57 velocity=67 time=0\n",
      "note_off channel=6 note=61 velocity=64 time=12\n",
      "note_off channel=6 note=57 velocity=64 time=0\n",
      "note_off channel=11 note=57 velocity=64 time=4\n",
      "note_off channel=1 note=42 velocity=64 time=3\n",
      "note_off channel=0 note=64 velocity=64 time=3\n",
      "note_on channel=1 note=45 velocity=80 time=1\n",
      "note_off channel=0 note=61 velocity=64 time=0\n",
      "note_on channel=9 note=46 velocity=53 time=1\n",
      "note_off channel=9 note=46 velocity=64 time=0\n",
      "note_on channel=9 note=69 velocity=63 time=0\n",
      "note_off channel=9 note=69 velocity=64 time=0\n",
      "note_on channel=9 note=54 velocity=78 time=0\n",
      "note_off channel=9 note=54 velocity=64 time=0\n",
      "note_off channel=0 note=57 velocity=64 time=0\n",
      "note_on channel=6 note=57 velocity=61 time=0\n",
      "note_on channel=6 note=61 velocity=54 time=0\n",
      "note_on channel=11 note=61 velocity=108 time=0\n",
      "note_off channel=11 note=61 velocity=64 time=10\n",
      "note_off channel=6 note=61 velocity=64 time=1\n",
      "note_off channel=6 note=57 velocity=64 time=3\n",
      "note_on channel=9 note=69 velocity=59 time=10\n",
      "note_off channel=9 note=69 velocity=64 time=0\n",
      "note_on channel=6 note=57 velocity=54 time=0\n",
      "note_on channel=6 note=61 velocity=56 time=0\n",
      "note_on channel=11 note=61 velocity=74 time=0\n",
      "note_on channel=9 note=54 velocity=31 time=1\n",
      "note_off channel=9 note=54 velocity=64 time=0\n",
      "note_off channel=11 note=61 velocity=64 time=11\n",
      "note_off channel=6 note=61 velocity=64 time=7\n",
      "note_off channel=6 note=57 velocity=64 time=0\n",
      "note_on channel=9 note=69 velocity=36 time=4\n",
      "note_off channel=9 note=69 velocity=64 time=0\n",
      "note_on channel=2 note=69 velocity=96 time=0\n",
      "note_on channel=11 note=54 velocity=100 time=0\n",
      "note_on channel=9 note=36 velocity=107 time=1\n",
      "note_off channel=9 note=36 velocity=64 time=0\n",
      "note_off channel=1 note=45 velocity=64 time=0\n",
      "note_on channel=1 note=33 velocity=100 time=0\n",
      "note_on channel=0 note=62 velocity=96 time=0\n",
      "note_on channel=0 note=57 velocity=89 time=0\n",
      "note_on channel=0 note=66 velocity=75 time=0\n",
      "note_on channel=6 note=54 velocity=53 time=0\n",
      "note_off channel=7 note=61 velocity=64 time=0\n",
      "note_off channel=7 note=64 velocity=64 time=0\n",
      "note_on channel=7 note=62 velocity=85 time=0\n",
      "note_on channel=7 note=66 velocity=79 time=0\n",
      "note_on channel=9 note=42 velocity=57 time=1\n",
      "note_off channel=9 note=42 velocity=64 time=0\n",
      "note_off channel=11 note=54 velocity=64 time=10\n",
      "note_off channel=6 note=54 velocity=64 time=9\n",
      "note_on channel=2 note=78 velocity=96 time=2\n",
      "note_off channel=2 note=69 velocity=64 time=1\n",
      "note_on channel=6 note=57 velocity=66 time=0\n",
      "note_on channel=9 note=69 velocity=44 time=1\n",
      "note_off channel=9 note=69 velocity=64 time=0\n",
      "note_on channel=6 note=62 velocity=63 time=0\n",
      "note_on channel=11 note=54 velocity=76 time=0\n",
      "note_on channel=9 note=42 velocity=40 time=1\n",
      "note_off channel=9 note=42 velocity=64 time=0\n",
      "note_off channel=6 note=62 velocity=64 time=11\n",
      "note_off channel=6 note=57 velocity=64 time=0\n",
      "note_off channel=11 note=54 velocity=64 time=1\n",
      "note_on channel=2 note=74 velocity=93 time=10\n",
      "note_on channel=9 note=46 velocity=40 time=1\n",
      "note_off channel=9 note=46 velocity=64 time=0\n",
      "note_on channel=9 note=69 velocity=71 time=0\n",
      "note_off channel=9 note=69 velocity=64 time=0\n",
      "note_on channel=9 note=54 velocity=70 time=0\n",
      "note_off channel=9 note=54 velocity=64 time=0\n",
      "note_off channel=1 note=33 velocity=64 time=0\n",
      "note_on channel=6 note=57 velocity=53 time=0\n",
      "note_on channel=6 note=62 velocity=59 time=0\n",
      "note_on channel=11 note=57 velocity=93 time=0\n",
      "note_off channel=0 note=57 velocity=64 time=4\n",
      "note_off channel=0 note=62 velocity=64 time=0\n",
      "note_off channel=2 note=78 velocity=64 time=2\n",
      "note_off channel=0 note=66 velocity=64 time=5\n",
      "note_off channel=11 note=57 velocity=64 time=2\n",
      "note_off channel=6 note=62 velocity=64 time=3\n",
      "note_off channel=6 note=57 velocity=64 time=3\n",
      "note_on channel=9 note=69 velocity=44 time=4\n",
      "note_off channel=9 note=69 velocity=64 time=0\n",
      "note_on channel=1 note=33 velocity=75 time=0\n",
      "note_on channel=2 note=69 velocity=81 time=0\n",
      "note_on channel=9 note=36 velocity=102 time=1\n",
      "note_off channel=9 note=36 velocity=64 time=0\n",
      "note_on channel=0 note=57 velocity=91 time=0\n",
      "note_on channel=0 note=66 velocity=73 time=0\n",
      "note_on channel=0 note=62 velocity=91 time=0\n",
      "note_on channel=6 note=54 velocity=53 time=0\n",
      "note_on channel=11 note=57 velocity=63 time=0\n",
      "note_on channel=9 note=54 velocity=33 time=1\n",
      "note_off channel=9 note=54 velocity=64 time=0\n",
      "note_off channel=2 note=74 velocity=64 time=0\n",
      "note_off channel=0 note=66 velocity=64 time=7\n",
      "note_off channel=1 note=33 velocity=64 time=1\n",
      "note_off channel=0 note=57 velocity=64 time=1\n",
      "note_off channel=0 note=62 velocity=64 time=1\n",
      "note_off channel=6 note=54 velocity=64 time=2\n",
      "note_off channel=11 note=57 velocity=64 time=0\n",
      "note_on channel=1 note=33 velocity=97 time=10\n",
      "note_on channel=2 note=78 velocity=103 time=0\n",
      "note_on channel=6 note=57 velocity=67 time=0\n",
      "note_on channel=6 note=62 velocity=76 time=0\n",
      "note_on channel=11 note=54 velocity=93 time=0\n",
      "note_on channel=9 note=40 velocity=101 time=1\n",
      "note_off channel=9 note=40 velocity=64 time=0\n",
      "note_on channel=9 note=42 velocity=40 time=0\n",
      "note_off channel=9 note=42 velocity=64 time=0\n",
      "note_on channel=9 note=69 velocity=40 time=0\n",
      "note_off channel=9 note=69 velocity=64 time=0\n",
      "note_off channel=2 note=69 velocity=64 time=5\n",
      "note_off channel=11 note=54 velocity=64 time=6\n",
      "note_off channel=6 note=62 velocity=64 time=3\n",
      "note_off channel=6 note=57 velocity=64 time=3\n",
      "note_on channel=6 note=54 velocity=56 time=5\n",
      "note_on channel=9 note=69 velocity=42 time=2\n",
      "note_off channel=9 note=69 velocity=64 time=0\n",
      "note_on channel=2 note=74 velocity=93 time=0\n",
      "note_on channel=11 note=54 velocity=66 time=0\n",
      "note_off channel=2 note=78 velocity=64 time=4\n",
      "note_off channel=1 note=33 velocity=64 time=5\n",
      "note_off channel=6 note=54 velocity=64 time=1\n",
      "note_off channel=11 note=54 velocity=64 time=6\n",
      "note_off channel=2 note=74 velocity=64 time=4\n",
      "note_on channel=0 note=57 velocity=87 time=3\n",
      "note_on channel=0 note=62 velocity=101 time=0\n",
      "note_on channel=0 note=66 velocity=80 time=0\n",
      "note_on channel=2 note=81 velocity=88 time=0\n",
      "note_on channel=9 note=46 velocity=44 time=1\n",
      "note_off channel=9 note=46 velocity=64 time=0\n",
      "note_on channel=9 note=69 velocity=66 time=0\n",
      "note_off channel=9 note=69 velocity=64 time=0\n",
      "note_on channel=9 note=54 velocity=70 time=0\n",
      "note_off channel=9 note=54 velocity=64 time=0\n",
      "note_on channel=1 note=33 velocity=95 time=0\n",
      "note_on channel=6 note=57 velocity=66 time=0\n",
      "note_on channel=6 note=62 velocity=67 time=0\n",
      "note_on channel=11 note=57 velocity=95 time=0\n",
      "note_on channel=9 note=36 velocity=102 time=1\n",
      "note_off channel=9 note=36 velocity=64 time=0\n",
      "note_off channel=11 note=57 velocity=64 time=13\n",
      "note_off channel=6 note=62 velocity=64 time=1\n",
      "note_off channel=6 note=57 velocity=64 time=1\n",
      "note_on channel=6 note=62 velocity=58 time=7\n",
      "note_on channel=6 note=57 velocity=54 time=0\n",
      "note_on channel=9 note=69 velocity=45 time=1\n",
      "note_off channel=9 note=69 velocity=64 time=0\n",
      "note_on channel=9 note=54 velocity=45 time=0\n",
      "note_off channel=9 note=54 velocity=64 time=0\n",
      "note_on channel=2 note=78 velocity=93 time=0\n",
      "note_on channel=11 note=57 velocity=62 time=0\n",
      "note_off channel=2 note=81 velocity=64 time=5\n",
      "note_off channel=11 note=57 velocity=64 time=9\n",
      "note_off channel=6 note=57 velocity=64 time=5\n",
      "note_off channel=6 note=62 velocity=64 time=0\n",
      "note_on channel=2 note=74 velocity=86 time=4\n",
      "note_on channel=11 note=54 velocity=90 time=0\n",
      "note_on channel=9 note=69 velocity=36 time=1\n",
      "note_off channel=9 note=69 velocity=64 time=0\n",
      "note_off channel=2 note=78 velocity=64 time=0\n",
      "note_on channel=9 note=36 velocity=110 time=1\n",
      "note_off channel=9 note=36 velocity=64 time=0\n",
      "note_on channel=9 note=42 velocity=52 time=0\n",
      "note_off channel=9 note=42 velocity=64 time=0\n",
      "note_off channel=11 note=54 velocity=64 time=10\n",
      "note_off channel=1 note=33 velocity=64 time=6\n",
      "note_on channel=9 note=69 velocity=41 time=7\n",
      "note_off channel=9 note=69 velocity=64 time=0\n",
      "note_on channel=1 note=28 velocity=76 time=0\n",
      "note_on channel=2 note=81 velocity=94 time=0\n",
      "note_on channel=6 note=57 velocity=65 time=0\n",
      "note_on channel=6 note=62 velocity=68 time=0\n",
      "note_on channel=11 note=54 velocity=64 time=0\n",
      "note_off channel=2 note=74 velocity=64 time=4\n",
      "note_off channel=11 note=54 velocity=64 time=9\n",
      "note_off channel=6 note=62 velocity=64 time=1\n",
      "note_off channel=6 note=57 velocity=64 time=1\n",
      "note_off channel=1 note=28 velocity=64 time=7\n",
      "note_on channel=9 note=54 velocity=68 time=1\n",
      "note_off channel=9 note=54 velocity=64 time=0\n",
      "note_on channel=1 note=29 velocity=96 time=0\n",
      "note_on channel=9 note=46 velocity=47 time=1\n",
      "note_off channel=9 note=46 velocity=64 time=0\n",
      "note_on channel=9 note=69 velocity=71 time=0\n",
      "note_off channel=9 note=69 velocity=64 time=0\n",
      "note_on channel=2 note=78 velocity=84 time=0\n",
      "note_on channel=11 note=57 velocity=98 time=0\n",
      "note_off channel=2 note=81 velocity=64 time=5\n",
      "note_off channel=11 note=57 velocity=64 time=7\n",
      "note_on channel=9 note=69 velocity=52 time=11\n",
      "note_off channel=9 note=69 velocity=64 time=0\n",
      "note_on channel=2 note=74 velocity=85 time=0\n",
      "note_on channel=9 note=54 velocity=40 time=1\n",
      "note_off channel=9 note=54 velocity=64 time=0\n",
      "note_off channel=2 note=78 velocity=64 time=0\n",
      "note_on channel=6 note=54 velocity=52 time=0\n",
      "note_on channel=11 note=57 velocity=67 time=0\n",
      "note_off channel=3 note=66 velocity=64 time=14\n",
      "note_off channel=11 note=57 velocity=64 time=0\n",
      "note_off channel=6 note=54 velocity=64 time=2\n",
      "note_off channel=1 note=29 velocity=64 time=3\n",
      "note_on channel=1 note=30 velocity=96 time=4\n",
      "note_off channel=2 note=74 velocity=64 time=0\n",
      "note_on channel=6 note=57 velocity=71 time=0\n",
      "note_on channel=11 note=54 velocity=98 time=0\n",
      "note_on channel=9 note=40 velocity=104 time=1\n",
      "note_off channel=9 note=40 velocity=64 time=0\n",
      "note_on channel=2 note=81 velocity=92 time=0\n",
      "note_on channel=6 note=62 velocity=81 time=0\n",
      "note_on channel=9 note=42 velocity=43 time=1\n",
      "note_off channel=9 note=42 velocity=64 time=0\n",
      "note_off channel=11 note=54 velocity=64 time=9\n",
      "note_off channel=4 note=66 velocity=64 time=4\n",
      "note_on channel=9 note=69 velocity=44 time=9\n",
      "note_off channel=9 note=69 velocity=64 time=0\n",
      "note_on channel=2 note=80 velocity=79 time=1\n",
      "note_on channel=11 note=54 velocity=73 time=0\n",
      "note_off channel=2 note=81 velocity=64 time=2\n",
      "note_off channel=6 note=62 velocity=64 time=10\n",
      "note_off channel=6 note=57 velocity=64 time=0\n",
      "note_off channel=11 note=54 velocity=64 time=4\n",
      "note_off channel=0 note=62 velocity=64 time=1\n",
      "note_on channel=9 note=69 velocity=69 time=6\n",
      "note_off channel=9 note=69 velocity=64 time=0\n",
      "note_on channel=9 note=54 velocity=68 time=0\n",
      "note_off channel=9 note=54 velocity=64 time=0\n",
      "note_off channel=1 note=30 velocity=64 time=0\n",
      "note_on channel=1 note=33 velocity=79 time=0\n",
      "note_on channel=11 note=57 velocity=90 time=0\n",
      "note_on channel=9 note=46 velocity=42 time=1\n",
      "note_off channel=9 note=46 velocity=64 time=0\n",
      "note_off channel=2 note=80 velocity=64 time=0\n",
      "note_on channel=2 note=76 velocity=90 time=0\n",
      "note_on channel=6 note=62 velocity=63 time=0\n",
      "note_on channel=6 note=57 velocity=60 time=0\n",
      "note_off channel=0 note=57 velocity=64 time=3\n",
      "note_off channel=0 note=66 velocity=64 time=6\n",
      "note_off channel=11 note=57 velocity=64 time=2\n",
      "note_off channel=6 note=57 velocity=64 time=3\n",
      "note_off channel=6 note=62 velocity=64 time=0\n",
      "note_on channel=9 note=69 velocity=49 time=9\n",
      "note_off channel=9 note=69 velocity=64 time=0\n",
      "note_off channel=1 note=33 velocity=64 time=0\n",
      "note_on channel=1 note=30 velocity=70 time=0\n",
      "note_on channel=11 note=57 velocity=67 time=0\n",
      "note_on channel=9 note=54 velocity=33 time=1\n",
      "note_off channel=9 note=54 velocity=64 time=0\n",
      "note_on channel=6 note=62 velocity=60 time=0\n",
      "note_on channel=6 note=57 velocity=54 time=0\n",
      "note_off channel=11 note=57 velocity=64 time=11\n",
      "note_off channel=6 note=57 velocity=64 time=5\n",
      "note_off channel=6 note=62 velocity=64 time=0\n",
      "note_on channel=9 note=42 velocity=52 time=7\n",
      "note_off channel=9 note=42 velocity=64 time=0\n",
      "note_off channel=1 note=30 velocity=64 time=0\n",
      "note_on channel=1 note=33 velocity=89 time=0\n",
      "note_on channel=0 note=57 velocity=72 time=0\n",
      "note_on channel=0 note=64 velocity=91 time=0\n",
      "note_on channel=9 note=36 velocity=107 time=1\n",
      "note_off channel=9 note=36 velocity=64 time=0\n",
      "note_on channel=9 note=69 velocity=35 time=0\n",
      "note_off channel=9 note=69 velocity=64 time=0\n",
      "note_on channel=0 note=61 velocity=80 time=0\n",
      "note_on channel=2 note=73 velocity=91 time=0\n",
      "note_on channel=6 note=52 velocity=57 time=0\n",
      "note_on channel=11 note=57 velocity=70 time=0\n",
      "note_off channel=7 note=66 velocity=64 time=0\n",
      "note_off channel=7 note=62 velocity=64 time=0\n",
      "note_on channel=7 note=61 velocity=69 time=0\n",
      "note_on channel=7 note=64 velocity=91 time=0\n",
      "<meta message lyrics text='leave ' time=1>\n",
      "note_on channel=3 note=61 velocity=104 time=0\n",
      "note_on channel=4 note=61 velocity=52 time=0\n",
      "note_off channel=2 note=76 velocity=64 time=2\n",
      "note_off channel=11 note=57 velocity=64 time=10\n",
      "note_off channel=6 note=52 velocity=64 time=5\n",
      "note_on channel=9 note=42 velocity=43 time=5\n",
      "note_off channel=9 note=42 velocity=64 time=0\n",
      "note_on channel=9 note=69 velocity=43 time=1\n",
      "note_off channel=9 note=69 velocity=64 time=0\n",
      "note_on channel=6 note=61 velocity=66 time=0\n",
      "note_on channel=6 note=57 velocity=60 time=0\n",
      "note_on channel=11 note=57 velocity=72 time=0\n",
      "note_off channel=6 note=57 velocity=64 time=14\n",
      "note_off channel=6 note=61 velocity=64 time=0\n",
      "note_off channel=11 note=57 velocity=64 time=1\n",
      "note_on channel=9 note=46 velocity=45 time=8\n",
      "note_off channel=9 note=46 velocity=64 time=0\n",
      "note_on channel=9 note=54 velocity=68 time=0\n",
      "note_off channel=9 note=54 velocity=64 time=0\n",
      "<meta message lyrics text=\"'em \" time=1>\n"
     ]
    },
    {
     "name": "stdout",
     "output_type": "stream",
     "text": [
      "note_on channel=3 note=64 velocity=103 time=0\n",
      "note_off channel=4 note=61 velocity=64 time=0\n",
      "note_on channel=4 note=64 velocity=51 time=0\n",
      "note_on channel=9 note=69 velocity=74 time=0\n",
      "note_off channel=9 note=69 velocity=64 time=0\n",
      "note_on channel=6 note=57 velocity=67 time=0\n",
      "note_on channel=6 note=61 velocity=54 time=0\n",
      "note_on channel=11 note=61 velocity=98 time=0\n",
      "note_off channel=1 note=33 velocity=64 time=2\n",
      "note_off channel=3 note=61 velocity=64 time=1\n",
      "note_off channel=0 note=57 velocity=64 time=1\n",
      "note_off channel=0 note=61 velocity=64 time=4\n",
      "note_off channel=0 note=64 velocity=64 time=0\n",
      "note_off channel=11 note=61 velocity=64 time=4\n",
      "note_off channel=3 note=64 velocity=64 time=6\n",
      "note_off channel=6 note=57 velocity=64 time=0\n",
      "note_off channel=6 note=61 velocity=64 time=1\n",
      "note_on channel=9 note=36 velocity=107 time=5\n",
      "note_off channel=9 note=36 velocity=64 time=0\n",
      "note_on channel=9 note=69 velocity=39 time=0\n",
      "note_off channel=9 note=69 velocity=64 time=0\n",
      "note_on channel=9 note=54 velocity=34 time=0\n",
      "note_off channel=9 note=54 velocity=64 time=0\n",
      "note_on channel=1 note=33 velocity=87 time=0\n",
      "note_on channel=0 note=57 velocity=83 time=0\n",
      "note_on channel=0 note=64 velocity=85 time=0\n",
      "note_on channel=0 note=61 velocity=73 time=0\n",
      "note_on channel=6 note=52 velocity=54 time=0\n",
      "note_on channel=11 note=61 velocity=64 time=0\n",
      "note_off channel=4 note=64 velocity=64 time=4\n",
      "<meta message lyrics text='burn' time=1>\n",
      "note_on channel=3 note=64 velocity=104 time=0\n",
      "note_on channel=4 note=64 velocity=52 time=0\n",
      "note_off channel=2 note=73 velocity=64 time=3\n",
      "note_off channel=6 note=52 velocity=64 time=2\n",
      "note_off channel=11 note=61 velocity=64 time=2\n",
      "note_off channel=1 note=33 velocity=64 time=3\n",
      "note_off channel=0 note=64 velocity=64 time=0\n",
      "note_off channel=0 note=61 velocity=64 time=1\n",
      "note_off channel=0 note=57 velocity=64 time=0\n",
      "note_on channel=9 note=40 velocity=90 time=7\n",
      "note_off channel=9 note=40 velocity=64 time=0\n",
      "note_on channel=6 note=61 velocity=67 time=0\n",
      "note_on channel=6 note=57 velocity=71 time=0\n",
      "note_on channel=11 note=57 velocity=74 time=0\n",
      "note_on channel=9 note=42 velocity=51 time=1\n",
      "note_off channel=9 note=42 velocity=64 time=0\n",
      "note_on channel=1 note=33 velocity=91 time=0\n",
      "note_on channel=9 note=69 velocity=42 time=1\n",
      "note_off channel=9 note=69 velocity=64 time=0\n",
      "note_off channel=3 note=64 velocity=64 time=8\n",
      "note_off channel=11 note=57 velocity=64 time=2\n",
      "note_off channel=6 note=57 velocity=64 time=5\n",
      "note_off channel=6 note=61 velocity=64 time=3\n",
      "note_on channel=6 note=52 velocity=47 time=4\n",
      "note_on channel=11 note=57 velocity=73 time=1\n",
      "note_on channel=9 note=69 velocity=36 time=1\n",
      "note_off channel=9 note=69 velocity=64 time=0\n",
      "note_off channel=4 note=64 velocity=64 time=1\n",
      "note_off channel=1 note=33 velocity=64 time=0\n",
      "<meta message lyrics text='ing, ' time=1>\n",
      "note_on channel=3 note=64 velocity=104 time=0\n",
      "note_on channel=4 note=64 velocity=52 time=0\n",
      "note_off channel=6 note=52 velocity=64 time=4\n",
      "note_off channel=3 note=64 velocity=64 time=8\n",
      "note_off channel=11 note=57 velocity=64 time=3\n",
      "note_on channel=9 note=36 velocity=101 time=5\n",
      "note_off channel=9 note=36 velocity=64 time=0\n",
      "note_on channel=9 note=54 velocity=78 time=0\n",
      "note_off channel=9 note=54 velocity=64 time=0\n",
      "note_on channel=1 note=33 velocity=84 time=0\n",
      "note_on channel=0 note=57 velocity=83 time=0\n",
      "note_on channel=0 note=64 velocity=91 time=0\n",
      "note_on channel=0 note=61 velocity=81 time=0\n",
      "note_on channel=6 note=57 velocity=66 time=0\n",
      "note_on channel=6 note=61 velocity=60 time=0\n",
      "note_on channel=11 note=61 velocity=97 time=0\n",
      "note_on channel=9 note=46 velocity=43 time=1\n",
      "note_off channel=9 note=46 velocity=64 time=0\n",
      "note_off channel=4 note=64 velocity=64 time=1\n",
      "note_on channel=9 note=69 velocity=74 time=0\n",
      "note_off channel=9 note=69 velocity=64 time=0\n",
      "<meta message lyrics text='and ' time=1>\n",
      "note_on channel=3 note=64 velocity=105 time=0\n",
      "note_on channel=4 note=64 velocity=52 time=0\n",
      "note_off channel=11 note=61 velocity=64 time=9\n",
      "note_off channel=6 note=61 velocity=64 time=1\n",
      "note_off channel=6 note=57 velocity=64 time=0\n",
      "note_on channel=6 note=61 velocity=56 time=11\n",
      "note_on channel=6 note=57 velocity=63 time=0\n",
      "note_on channel=11 note=61 velocity=64 time=0\n",
      "note_on channel=9 note=69 velocity=42 time=1\n",
      "note_off channel=9 note=69 velocity=64 time=0\n",
      "note_on channel=9 note=54 velocity=29 time=0\n",
      "note_off channel=9 note=54 velocity=64 time=0\n",
      "note_off channel=3 note=64 velocity=64 time=4\n",
      "note_off channel=11 note=61 velocity=64 time=7\n",
      "note_off channel=6 note=57 velocity=64 time=5\n",
      "note_off channel=6 note=61 velocity=64 time=4\n",
      "note_off channel=1 note=33 velocity=64 time=1\n",
      "note_on channel=11 note=57 velocity=83 time=2\n",
      "note_on channel=9 note=36 velocity=111 time=1\n",
      "note_off channel=9 note=36 velocity=64 time=0\n",
      "note_on channel=9 note=42 velocity=50 time=0\n",
      "note_off channel=9 note=42 velocity=64 time=0\n",
      "note_on channel=9 note=69 velocity=44 time=0\n",
      "note_off channel=9 note=69 velocity=64 time=0\n",
      "note_on channel=6 note=52 velocity=52 time=0\n",
      "note_off channel=4 note=64 velocity=64 time=3\n",
      "<meta message lyrics text='then ' time=1>\n",
      "note_on channel=3 note=64 velocity=107 time=0\n",
      "note_on channel=4 note=64 velocity=53 time=0\n",
      "note_off channel=6 note=52 velocity=64 time=4\n",
      "note_off channel=11 note=57 velocity=64 time=3\n",
      "note_on channel=1 note=33 velocity=95 time=12\n",
      "note_on channel=6 note=57 velocity=65 time=0\n",
      "note_on channel=6 note=61 velocity=59 time=0\n",
      "note_on channel=9 note=69 velocity=41 time=1\n",
      "note_off channel=9 note=69 velocity=64 time=0\n",
      "note_on channel=11 note=57 velocity=71 time=0\n",
      "note_off channel=3 note=64 velocity=64 time=9\n",
      "note_off channel=6 note=57 velocity=64 time=2\n",
      "note_off channel=6 note=61 velocity=64 time=2\n",
      "note_off channel=1 note=33 velocity=64 time=1\n",
      "note_off channel=11 note=57 velocity=64 time=2\n",
      "note_on channel=1 note=33 velocity=95 time=6\n",
      "note_on channel=9 note=54 velocity=63 time=1\n",
      "note_off channel=9 note=54 velocity=64 time=0\n",
      "note_on channel=9 note=46 velocity=43 time=1\n",
      "note_off channel=9 note=46 velocity=64 time=0\n",
      "note_on channel=9 note=69 velocity=66 time=0\n",
      "note_off channel=9 note=69 velocity=64 time=0\n",
      "note_on channel=11 note=61 velocity=111 time=0\n",
      "note_off channel=4 note=64 velocity=64 time=1\n",
      "<meta message lyrics text=\"you're \" time=1>\n",
      "note_on channel=3 note=64 velocity=106 time=0\n",
      "note_on channel=4 note=64 velocity=53 time=0\n",
      "note_off channel=11 note=61 velocity=64 time=10\n",
      "note_on channel=9 note=69 velocity=39 time=11\n",
      "note_off channel=9 note=69 velocity=64 time=0\n",
      "note_on channel=6 note=52 velocity=54 time=0\n",
      "note_on channel=9 note=54 velocity=35 time=1\n",
      "note_off channel=9 note=54 velocity=64 time=0\n",
      "note_on channel=11 note=61 velocity=70 time=0\n",
      "note_off channel=6 note=52 velocity=64 time=7\n",
      "note_off channel=11 note=61 velocity=64 time=6\n",
      "note_off channel=1 note=33 velocity=64 time=2\n",
      "note_on channel=1 note=40 velocity=75 time=7\n",
      "note_on channel=6 note=57 velocity=74 time=1\n",
      "note_on channel=6 note=61 velocity=81 time=0\n",
      "note_on channel=9 note=40 velocity=102 time=1\n",
      "note_off channel=9 note=40 velocity=64 time=0\n",
      "note_on channel=9 note=42 velocity=56 time=0\n",
      "note_off channel=9 note=42 velocity=64 time=0\n",
      "note_on channel=9 note=69 velocity=46 time=0\n",
      "note_off channel=9 note=69 velocity=64 time=0\n",
      "note_on channel=11 note=57 velocity=87 time=0\n",
      "note_off channel=11 note=57 velocity=64 time=12\n",
      "note_off channel=1 note=40 velocity=64 time=10\n",
      "note_on channel=1 note=42 velocity=71 time=1\n",
      "note_on channel=9 note=69 velocity=42 time=1\n",
      "note_off channel=9 note=69 velocity=64 time=0\n",
      "note_on channel=11 note=57 velocity=68 time=0\n",
      "note_off channel=0 note=61 velocity=64 time=15\n",
      "note_off channel=0 note=57 velocity=64 time=2\n",
      "note_off channel=11 note=57 velocity=64 time=2\n",
      "note_off channel=1 note=42 velocity=64 time=3\n",
      "note_on channel=9 note=46 velocity=42 time=1\n",
      "note_off channel=9 note=46 velocity=64 time=0\n",
      "note_on channel=9 note=54 velocity=63 time=0\n",
      "note_off channel=9 note=54 velocity=64 time=0\n",
      "note_on channel=1 note=45 velocity=80 time=0\n",
      "note_off channel=0 note=64 velocity=64 time=0\n",
      "note_on channel=6 note=52 velocity=57 time=0\n",
      "note_on channel=11 note=61 velocity=108 time=0\n",
      "note_on channel=9 note=69 velocity=65 time=1\n",
      "note_off channel=9 note=69 velocity=64 time=0\n",
      "note_off channel=7 note=61 velocity=64 time=0\n",
      "note_off channel=7 note=57 velocity=64 time=0\n",
      "note_off channel=3 note=64 velocity=64 time=2\n",
      "note_off channel=6 note=52 velocity=64 time=5\n",
      "note_off channel=11 note=61 velocity=64 time=2\n",
      "note_on channel=9 note=69 velocity=38 time=14\n",
      "note_off channel=9 note=69 velocity=64 time=0\n",
      "note_on channel=11 note=61 velocity=73 time=0\n",
      "note_on channel=9 note=54 velocity=37 time=1\n",
      "note_off channel=9 note=54 velocity=64 time=0\n",
      "note_off channel=11 note=61 velocity=64 time=11\n",
      "note_off channel=6 note=61 velocity=64 time=6\n",
      "note_off channel=1 note=45 velocity=64 time=2\n",
      "note_off channel=6 note=57 velocity=64 time=1\n",
      "note_on channel=9 note=36 velocity=104 time=3\n",
      "note_off channel=9 note=36 velocity=64 time=0\n",
      "note_on channel=9 note=42 velocity=47 time=0\n",
      "note_off channel=9 note=42 velocity=64 time=0\n",
      "note_on channel=9 note=69 velocity=45 time=0\n",
      "note_off channel=9 note=69 velocity=64 time=0\n",
      "note_on channel=0 note=57 velocity=89 time=0\n",
      "note_on channel=0 note=61 velocity=81 time=0\n",
      "note_on channel=0 note=66 velocity=79 time=0\n",
      "note_on channel=6 note=54 velocity=60 time=0\n",
      "note_on channel=11 note=54 velocity=111 time=0\n",
      "<meta message lyrics text='gone. ' time=1>\n",
      "<meta message lyrics text='\\r' time=0>\n",
      "note_on channel=3 note=61 velocity=104 time=0\n",
      "note_off channel=4 note=64 velocity=64 time=0\n",
      "note_on channel=4 note=66 velocity=98 time=0\n",
      "note_on channel=4 note=61 velocity=52 time=0\n",
      "note_on channel=1 note=42 velocity=72 time=0\n",
      "note_off channel=7 note=64 velocity=64 time=0\n",
      "note_on channel=7 note=61 velocity=69 time=0\n",
      "note_on channel=7 note=57 velocity=72 time=0\n",
      "note_on channel=7 note=54 velocity=71 time=0\n",
      "note_off channel=6 note=54 velocity=64 time=9\n",
      "note_off channel=11 note=54 velocity=64 time=2\n",
      "note_on channel=9 note=42 velocity=40 time=12\n",
      "note_off channel=9 note=42 velocity=64 time=0\n",
      "note_on channel=11 note=54 velocity=64 time=0\n",
      "note_on channel=9 note=69 velocity=40 time=1\n",
      "note_off channel=9 note=69 velocity=64 time=0\n",
      "note_on channel=6 note=57 velocity=67 time=0\n",
      "note_on channel=6 note=54 velocity=48 time=0\n",
      "note_on channel=6 note=61 velocity=58 time=0\n",
      "note_off channel=6 note=61 velocity=64 time=11\n",
      "note_off channel=6 note=54 velocity=64 time=1\n",
      "note_off channel=6 note=57 velocity=64 time=4\n",
      "note_off channel=11 note=54 velocity=64 time=3\n",
      "note_on channel=9 note=46 velocity=48 time=4\n",
      "note_off channel=9 note=46 velocity=64 time=0\n",
      "note_on channel=9 note=54 velocity=68 time=0\n",
      "note_off channel=9 note=54 velocity=64 time=0\n",
      "note_on channel=11 note=57 velocity=77 time=0\n",
      "note_on channel=11 note=55 velocity=75 time=0\n",
      "note_on channel=9 note=69 velocity=67 time=1\n",
      "note_off channel=9 note=69 velocity=64 time=0\n",
      "note_on channel=6 note=57 velocity=62 time=0\n",
      "note_on channel=6 note=54 velocity=45 time=0\n",
      "note_on channel=6 note=61 velocity=59 time=0\n",
      "note_off channel=0 note=57 velocity=64 time=5\n",
      "note_off channel=0 note=61 velocity=64 time=3\n",
      "note_off channel=11 note=55 velocity=64 time=0\n",
      "note_off channel=11 note=57 velocity=64 time=2\n",
      "note_off channel=0 note=66 velocity=64 time=1\n",
      "note_off channel=6 note=57 velocity=64 time=6\n",
      "note_off channel=6 note=61 velocity=64 time=1\n",
      "note_off channel=6 note=54 velocity=64 time=1\n",
      "note_on channel=9 note=36 velocity=101 time=4\n",
      "note_off channel=9 note=36 velocity=64 time=0\n",
      "note_on channel=11 note=57 velocity=74 time=0\n",
      "note_on channel=9 note=69 velocity=39 time=1\n",
      "note_off channel=9 note=69 velocity=64 time=0\n",
      "note_on channel=9 note=54 velocity=33 time=0\n",
      "note_off channel=9 note=54 velocity=64 time=0\n",
      "note_off channel=1 note=42 velocity=64 time=0\n",
      "note_on channel=1 note=37 velocity=71 time=0\n",
      "note_on channel=0 note=66 velocity=82 time=0\n",
      "note_on channel=0 note=61 velocity=79 time=0\n",
      "note_on channel=0 note=57 velocity=82 time=0\n",
      "note_on channel=6 note=54 velocity=66 time=0\n",
      "note_off channel=6 note=54 velocity=64 time=9\n",
      "note_off channel=0 note=57 velocity=64 time=2\n",
      "note_off channel=11 note=57 velocity=64 time=0\n",
      "note_off channel=0 note=66 velocity=64 time=2\n",
      "note_off channel=0 note=61 velocity=64 time=2\n",
      "note_on channel=9 note=40 velocity=104 time=7\n",
      "note_off channel=9 note=40 velocity=64 time=0\n",
      "note_on channel=9 note=42 velocity=53 time=1\n",
      "note_off channel=9 note=42 velocity=64 time=0\n",
      "note_on channel=11 note=54 velocity=100 time=0\n",
      "note_on channel=9 note=69 velocity=51 time=1\n",
      "note_off channel=9 note=69 velocity=64 time=0\n",
      "note_off channel=1 note=37 velocity=64 time=0\n",
      "note_on channel=1 note=42 velocity=77 time=0\n",
      "note_on channel=6 note=57 velocity=71 time=0\n",
      "note_on channel=6 note=54 velocity=57 time=0\n",
      "note_on channel=6 note=61 velocity=56 time=0\n",
      "note_off channel=11 note=54 velocity=64 time=11\n",
      "note_off channel=6 note=61 velocity=64 time=4\n",
      "note_off channel=6 note=54 velocity=64 time=1\n",
      "note_off channel=6 note=57 velocity=64 time=0\n",
      "note_on channel=11 note=54 velocity=85 time=8\n",
      "note_on channel=9 note=69 velocity=48 time=1\n",
      "note_off channel=9 note=69 velocity=64 time=0\n",
      "note_off channel=1 note=42 velocity=64 time=3\n",
      "<meta message lyrics text='\\n' time=4>\n",
      "note_off channel=11 note=54 velocity=64 time=6\n",
      "note_on channel=9 note=36 velocity=98 time=9\n",
      "note_off channel=9 note=36 velocity=64 time=0\n",
      "note_on channel=9 note=46 velocity=44 time=0\n",
      "note_off channel=9 note=46 velocity=64 time=0\n",
      "note_on channel=9 note=54 velocity=68 time=0\n",
      "note_off channel=9 note=54 velocity=64 time=0\n",
      "note_on channel=0 note=57 velocity=91 time=0\n",
      "note_on channel=6 note=57 velocity=71 time=0\n",
      "note_on channel=9 note=69 velocity=62 time=1\n",
      "note_off channel=9 note=69 velocity=64 time=0\n",
      "note_on channel=1 note=42 velocity=79 time=0\n",
      "note_on channel=0 note=61 velocity=89 time=0\n",
      "note_on channel=0 note=66 velocity=80 time=0\n",
      "note_on channel=6 note=61 velocity=63 time=0\n",
      "note_on channel=6 note=54 velocity=53 time=0\n",
      "note_on channel=11 note=57 velocity=98 time=0\n",
      "note_off channel=6 note=61 velocity=64 time=11\n",
      "note_off channel=11 note=57 velocity=64 time=1\n",
      "note_off channel=6 note=57 velocity=64 time=2\n",
      "note_off channel=6 note=54 velocity=64 time=3\n",
      "note_on channel=9 note=69 velocity=47 time=7\n",
      "note_off channel=9 note=69 velocity=64 time=0\n",
      "note_on channel=9 note=54 velocity=37 time=0\n",
      "note_off channel=9 note=54 velocity=64 time=0\n",
      "note_on channel=6 note=57 velocity=69 time=0\n",
      "note_on channel=6 note=54 velocity=40 time=0\n",
      "note_on channel=6 note=61 velocity=65 time=0\n",
      "note_on channel=11 note=57 velocity=69 time=0\n",
      "note_off channel=11 note=57 velocity=64 time=13\n",
      "note_off channel=1 note=42 velocity=64 time=3\n",
      "note_off channel=6 note=61 velocity=64 time=3\n",
      "note_off channel=6 note=54 velocity=64 time=1\n",
      "note_off channel=6 note=57 velocity=64 time=0\n",
      "note_on channel=9 note=42 velocity=52 time=3\n",
      "note_off channel=9 note=42 velocity=64 time=0\n",
      "note_on channel=11 note=54 velocity=90 time=0\n",
      "note_on channel=9 note=36 velocity=101 time=1\n",
      "note_off channel=9 note=36 velocity=64 time=0\n",
      "note_on channel=9 note=69 velocity=48 time=0\n",
      "note_off channel=9 note=69 velocity=64 time=0\n",
      "note_on channel=6 note=54 velocity=57 time=1\n",
      "note_off channel=6 note=54 velocity=64 time=8\n",
      "note_off channel=11 note=54 velocity=64 time=2\n",
      "note_on channel=9 note=40 velocity=102 time=12\n",
      "note_off channel=9 note=40 velocity=64 time=0\n",
      "note_on channel=9 note=69 velocity=48 time=1\n",
      "note_off channel=9 note=69 velocity=64 time=0\n",
      "note_on channel=6 note=57 velocity=76 time=0\n",
      "note_on channel=6 note=61 velocity=60 time=0\n",
      "note_on channel=6 note=54 velocity=57 time=0\n",
      "note_on channel=11 note=54 velocity=64 time=0\n",
      "note_off channel=6 note=54 velocity=64 time=11\n",
      "note_off channel=6 note=61 velocity=64 time=1\n",
      "note_off channel=6 note=57 velocity=64 time=0\n",
      "note_off channel=3 note=61 velocity=64 time=4\n",
      "note_off channel=11 note=54 velocity=64 time=0\n",
      "note_on channel=1 note=42 velocity=79 time=6\n",
      "note_on channel=11 note=57 velocity=98 time=1\n",
      "note_on channel=9 note=69 velocity=64 time=1\n",
      "note_off channel=9 note=69 velocity=64 time=0\n",
      "note_on channel=9 note=54 velocity=68 time=0\n",
      "note_off channel=9 note=54 velocity=64 time=0\n",
      "note_off channel=11 note=57 velocity=64 time=11\n",
      "note_off channel=0 note=66 velocity=64 time=10\n",
      "note_off channel=1 note=42 velocity=64 time=1\n",
      "note_on channel=1 note=37 velocity=70 time=1\n",
      "note_on channel=11 note=57 velocity=72 time=0\n",
      "note_on channel=9 note=69 velocity=45 time=1\n",
      "note_off channel=9 note=69 velocity=64 time=0\n",
      "note_on channel=9 note=54 velocity=38 time=0\n",
      "note_off channel=9 note=54 velocity=64 time=0\n",
      "note_on channel=0 note=81 velocity=85 time=0\n",
      "note_on channel=0 note=69 velocity=93 time=0\n",
      "note_on channel=6 note=54 velocity=55 time=0\n",
      "note_off channel=6 note=54 velocity=64 time=5\n",
      "control_change channel=0 control=64 value=127 time=6\n",
      "note_off channel=11 note=57 velocity=64 time=2\n",
      "note_off channel=0 note=69 velocity=64 time=2\n",
      "note_off channel=1 note=37 velocity=64 time=4\n",
      "note_off channel=0 note=81 velocity=64 time=0\n",
      "note_on channel=11 note=54 velocity=90 time=3\n",
      "note_on channel=9 note=40 velocity=102 time=1\n",
      "note_off channel=9 note=40 velocity=64 time=0\n",
      "note_on channel=1 note=42 velocity=73 time=0\n",
      "note_on channel=6 note=57 velocity=85 time=0\n",
      "note_on channel=6 note=54 velocity=65 time=0\n",
      "note_on channel=6 note=61 velocity=56 time=0\n",
      "note_on channel=9 note=42 velocity=59 time=1\n",
      "note_off channel=9 note=42 velocity=64 time=0\n",
      "note_on channel=9 note=69 velocity=55 time=0\n",
      "note_off channel=9 note=69 velocity=64 time=0\n",
      "note_off channel=4 note=61 velocity=64 time=6\n",
      "note_off channel=4 note=66 velocity=64 time=1\n",
      "note_off channel=11 note=54 velocity=64 time=1\n",
      "note_off channel=1 note=42 velocity=64 time=4\n",
      "note_off channel=0 note=57 velocity=64 time=8\n",
      "note_off channel=0 note=61 velocity=64 time=2\n",
      "note_on channel=11 note=54 velocity=69 time=0\n",
      "note_on channel=1 note=42 velocity=76 time=1\n",
      "note_on channel=9 note=69 velocity=40 time=1\n",
      "note_off channel=9 note=69 velocity=64 time=0\n",
      "note_on channel=0 note=80 velocity=77 time=0\n",
      "note_on channel=0 note=68 velocity=99 time=0\n",
      "note_off channel=0 note=68 velocity=64 time=9\n",
      "note_off channel=0 note=80 velocity=64 time=0\n",
      "note_off channel=11 note=54 velocity=64 time=8\n",
      "note_on channel=11 note=57 velocity=93 time=5\n",
      "note_on channel=9 note=54 velocity=63 time=1\n",
      "note_off channel=9 note=54 velocity=64 time=0\n",
      "note_off channel=1 note=42 velocity=64 time=0\n",
      "note_on channel=1 note=37 velocity=70 time=0\n",
      "note_on channel=9 note=46 velocity=40 time=1\n",
      "note_off channel=9 note=46 velocity=64 time=0\n",
      "note_on channel=9 note=69 velocity=65 time=0\n",
      "note_off channel=9 note=69 velocity=64 time=0\n",
      "note_off channel=7 note=54 velocity=64 time=0\n",
      "note_off channel=7 note=57 velocity=64 time=0\n",
      "note_off channel=6 note=54 velocity=64 time=6\n",
      "note_off channel=6 note=57 velocity=64 time=1\n",
      "note_off channel=11 note=57 velocity=64 time=3\n",
      "note_on channel=11 note=57 velocity=71 time=12\n",
      "note_off channel=1 note=37 velocity=64 time=1\n",
      "note_on channel=9 note=69 velocity=42 time=1\n",
      "note_off channel=9 note=69 velocity=64 time=0\n",
      "note_on channel=9 note=54 velocity=33 time=0\n",
      "note_off channel=9 note=54 velocity=64 time=0\n",
      "note_on channel=1 note=35 velocity=78 time=0\n",
      "note_on channel=0 note=76 velocity=77 time=0\n",
      "note_on channel=0 note=64 velocity=80 time=0\n",
      "note_off channel=6 note=61 velocity=64 time=4\n",
      "control_change channel=0 control=64 value=0 time=3\n",
      "note_off channel=0 note=76 velocity=64 time=1\n",
      "note_off channel=0 note=64 velocity=64 time=1\n",
      "note_off channel=11 note=57 velocity=64 time=2\n",
      "note_off channel=1 note=35 velocity=64 time=6\n",
      "note_on channel=6 note=56 velocity=63 time=5\n",
      "note_on channel=13 note=40 velocity=85 time=0\n",
      "note_on channel=9 note=36 velocity=111 time=1\n",
      "note_off channel=9 note=36 velocity=64 time=0\n",
      "note_on channel=1 note=28 velocity=84 time=0\n",
      "note_on channel=0 note=76 velocity=85 time=0\n",
      "note_on channel=0 note=64 velocity=91 time=0\n",
      "note_on channel=6 note=52 velocity=58 time=0\n",
      "note_on channel=6 note=59 velocity=74 time=0\n",
      "note_on channel=11 note=52 velocity=79 time=0\n",
      "<meta message lyrics text='Look' time=1>\n",
      "note_on channel=3 note=59 velocity=108 time=0\n",
      "note_on channel=4 note=59 velocity=54 time=0\n",
      "note_on channel=9 note=42 velocity=56 time=0\n",
      "note_off channel=9 note=42 velocity=64 time=0\n",
      "note_on channel=9 note=69 velocity=37 time=0\n",
      "note_off channel=9 note=69 velocity=64 time=0\n",
      "note_on channel=0 note=59 velocity=85 time=0\n",
      "note_on channel=0 note=56 velocity=65 time=0\n",
      "note_on channel=0 note=68 velocity=73 time=0\n",
      "note_off channel=7 note=61 velocity=64 time=0\n",
      "note_on channel=7 note=52 velocity=84 time=0\n",
      "note_off channel=0 note=68 velocity=64 time=3\n",
      "note_off channel=11 note=52 velocity=64 time=6\n",
      "note_on channel=9 note=42 velocity=41 time=15\n",
      "note_off channel=9 note=42 velocity=64 time=0\n",
      "note_on channel=9 note=69 velocity=40 time=0\n",
      "note_off channel=9 note=69 velocity=64 time=0\n",
      "note_on channel=11 note=52 velocity=61 time=0\n",
      "note_off channel=11 note=52 velocity=64 time=7\n",
      "note_off channel=13 note=40 velocity=64 time=8\n",
      "note_off channel=3 note=59 velocity=64 time=1\n",
      "note_on channel=9 note=46 velocity=40 time=6\n",
      "note_off channel=9 note=46 velocity=64 time=0\n",
      "note_off channel=4 note=59 velocity=64 time=1\n",
      "note_on channel=9 note=54 velocity=65 time=0\n",
      "note_off channel=9 note=54 velocity=64 time=0\n",
      "<meta message lyrics text='ing ' time=1>\n",
      "note_on channel=3 note=59 velocity=102 time=0\n",
      "note_on channel=4 note=59 velocity=51 time=0\n",
      "note_on channel=9 note=69 velocity=64 time=0\n",
      "note_off channel=9 note=69 velocity=64 time=0\n",
      "note_on channel=11 note=52 velocity=95 time=0\n",
      "note_on channel=13 note=40 velocity=69 time=0\n",
      "note_off channel=0 note=76 velocity=64 time=1\n",
      "note_off channel=1 note=28 velocity=64 time=6\n",
      "note_off channel=6 note=52 velocity=64 time=0\n",
      "note_off channel=11 note=52 velocity=64 time=2\n",
      "note_off channel=0 note=64 velocity=64 time=1\n",
      "note_off channel=6 note=59 velocity=64 time=0\n",
      "note_off channel=6 note=56 velocity=64 time=1\n",
      "note_off channel=13 note=40 velocity=64 time=1\n",
      "note_off channel=3 note=59 velocity=64 time=5\n",
      "note_off channel=4 note=59 velocity=64 time=6\n",
      "note_on channel=9 note=36 velocity=90 time=0\n",
      "note_off channel=9 note=36 velocity=64 time=0\n",
      "note_on channel=9 note=54 velocity=40 time=0\n",
      "note_off channel=9 note=54 velocity=64 time=0\n",
      "note_on channel=0 note=64 velocity=80 time=0\n",
      "note_on channel=0 note=68 velocity=74 time=0\n",
      "note_on channel=0 note=76 velocity=82 time=0\n",
      "note_on channel=0 note=71 velocity=99 time=0\n",
      "note_on channel=11 note=52 velocity=98 time=0\n",
      "note_on channel=13 note=40 velocity=73 time=0\n",
      "<meta message lyrics text='out ' time=1>\n",
      "note_on channel=3 note=59 velocity=108 time=0\n",
      "note_on channel=4 note=59 velocity=54 time=0\n",
      "note_on channel=9 note=69 velocity=39 time=0\n",
      "note_off channel=9 note=69 velocity=64 time=0\n",
      "note_on channel=1 note=28 velocity=72 time=0\n",
      "note_on channel=6 note=56 velocity=61 time=0\n",
      "note_on channel=6 note=59 velocity=77 time=0\n",
      "note_on channel=6 note=52 velocity=56 time=0\n",
      "note_off channel=6 note=52 velocity=64 time=10\n",
      "note_off channel=1 note=28 velocity=64 time=1\n",
      "note_off channel=6 note=59 velocity=64 time=0\n",
      "note_off channel=11 note=52 velocity=64 time=0\n",
      "note_off channel=0 note=71 velocity=64 time=1\n",
      "note_off channel=0 note=68 velocity=64 time=2\n",
      "note_off channel=6 note=56 velocity=64 time=4\n",
      "note_off channel=13 note=40 velocity=64 time=1\n",
      "note_on channel=9 note=40 velocity=101 time=4\n",
      "note_off channel=9 note=40 velocity=64 time=0\n",
      "note_on channel=9 note=42 velocity=54 time=0\n",
      "note_off channel=9 note=42 velocity=64 time=0\n",
      "note_on channel=9 note=69 velocity=53 time=1\n",
      "note_off channel=9 note=69 velocity=64 time=0\n",
      "note_on channel=1 note=28 velocity=83 time=0\n",
      "note_on channel=11 note=52 velocity=74 time=0\n",
      "note_off channel=0 note=64 velocity=64 time=3\n",
      "note_off channel=0 note=76 velocity=64 time=5\n",
      "note_off channel=11 note=52 velocity=64 time=4\n",
      "note_off channel=3 note=59 velocity=64 time=5\n",
      "note_off channel=4 note=59 velocity=64 time=7\n",
      "note_on channel=9 note=69 velocity=40 time=0\n",
      "note_off channel=9 note=69 velocity=64 time=0\n",
      "note_on channel=11 note=52 velocity=71 time=0\n",
      "note_on channel=13 note=40 velocity=76 time=0\n",
      "<meta message lyrics text='for ' time=1>\n",
      "note_on channel=3 note=59 velocity=101 time=0\n",
      "note_on channel=4 note=59 velocity=50 time=0\n",
      "note_off channel=1 note=28 velocity=64 time=2\n",
      "note_off channel=11 note=52 velocity=64 time=7\n",
      "note_off channel=13 note=40 velocity=64 time=2\n",
      "note_off channel=3 note=59 velocity=64 time=5\n",
      "note_on channel=1 note=28 velocity=86 time=6\n",
      "note_on channel=0 note=64 velocity=100 time=0\n",
      "note_on channel=0 note=76 velocity=100 time=0\n",
      "note_on channel=0 note=71 velocity=100 time=0\n",
      "note_on channel=0 note=68 velocity=100 time=0\n",
      "note_on channel=6 note=52 velocity=55 time=0\n",
      "note_on channel=6 note=56 velocity=63 time=0\n",
      "note_on channel=11 note=52 velocity=100 time=0\n",
      "note_on channel=13 note=40 velocity=75 time=0\n",
      "note_off channel=4 note=59 velocity=64 time=1\n",
      "note_on channel=9 note=36 velocity=102 time=0\n",
      "note_off channel=9 note=36 velocity=64 time=0\n",
      "note_on channel=9 note=46 velocity=40 time=0\n",
      "note_off channel=9 note=46 velocity=64 time=0\n",
      "note_on channel=9 note=69 velocity=63 time=0\n",
      "note_off channel=9 note=69 velocity=64 time=0\n",
      "note_on channel=9 note=54 velocity=68 time=0\n",
      "note_off channel=9 note=54 velocity=64 time=0\n",
      "note_on channel=6 note=59 velocity=81 time=0\n",
      "<meta message lyrics text='an' time=1>\n",
      "note_on channel=3 note=59 velocity=108 time=0\n",
      "note_on channel=4 note=59 velocity=54 time=0\n",
      "note_off channel=11 note=52 velocity=64 time=7\n",
      "note_off channel=0 note=59 velocity=64 time=8\n",
      "note_on channel=11 note=52 velocity=100 time=7\n",
      "note_on channel=9 note=69 velocity=39 time=1\n",
      "note_off channel=9 note=69 velocity=64 time=0\n",
      "note_on channel=9 note=54 velocity=41 time=0\n",
      "note_off channel=9 note=54 velocity=64 time=0\n",
      "note_off channel=11 note=52 velocity=64 time=9\n",
      "note_off channel=6 note=59 velocity=64 time=5\n",
      "note_off channel=6 note=56 velocity=64 time=1\n",
      "note_off channel=3 note=59 velocity=64 time=3\n",
      "note_off channel=1 note=28 velocity=64 time=1\n",
      "note_off channel=6 note=52 velocity=64 time=0\n",
      "control_change channel=0 control=64 value=127 time=4\n",
      "note_on channel=11 note=52 velocity=90 time=0\n",
      "note_on channel=9 note=36 velocity=107 time=1\n",
      "note_off channel=9 note=36 velocity=64 time=0\n",
      "note_on channel=9 note=42 velocity=54 time=0\n",
      "note_off channel=9 note=42 velocity=64 time=0\n",
      "note_on channel=9 note=69 velocity=39 time=0\n",
      "note_off channel=9 note=69 velocity=64 time=0\n",
      "note_on channel=1 note=35 velocity=70 time=0\n",
      "note_on channel=0 note=59 velocity=85 time=0\n",
      "<meta message lyrics text='oth' time=1>\n",
      "note_on channel=3 note=61 velocity=102 time=0\n",
      "note_off channel=4 note=59 velocity=64 time=0\n",
      "note_on channel=4 note=61 velocity=51 time=0\n",
      "note_off channel=11 note=52 velocity=64 time=11\n",
      "note_on channel=9 note=69 velocity=46 time=12\n",
      "note_off channel=9 note=69 velocity=64 time=0\n",
      "note_on channel=6 note=57 velocity=74 time=0\n",
      "note_on channel=6 note=59 velocity=85 time=0\n",
      "note_on channel=6 note=52 velocity=55 time=0\n",
      "note_on channel=10 note=57 velocity=90 time=0\n",
      "note_on channel=10 note=59 velocity=95 time=0\n",
      "note_on channel=10 note=52 velocity=68 time=0\n",
      "note_on channel=11 note=52 velocity=67 time=0\n",
      "note_off channel=0 note=59 velocity=64 time=2\n",
      "note_off channel=0 note=64 velocity=64 time=3\n",
      "note_off channel=3 note=61 velocity=64 time=5\n",
      "note_off channel=1 note=35 velocity=64 time=1\n",
      "note_off channel=6 note=59 velocity=64 time=0\n",
      "note_off channel=11 note=52 velocity=64 time=0\n",
      "note_off channel=6 note=57 velocity=64 time=2\n",
      "note_off channel=0 note=68 velocity=64 time=2\n",
      "note_off channel=0 note=71 velocity=64 time=1\n",
      "note_off channel=0 note=76 velocity=64 time=3\n",
      "note_on channel=0 note=64 velocity=72 time=4\n",
      "note_off channel=4 note=61 velocity=64 time=1\n",
      "note_on channel=9 note=46 velocity=44 time=0\n",
      "note_off channel=9 note=46 velocity=64 time=0\n",
      "note_on channel=9 note=69 velocity=64 time=0\n",
      "note_off channel=9 note=69 velocity=64 time=0\n",
      "note_on channel=9 note=54 velocity=57 time=0\n",
      "note_off channel=9 note=54 velocity=64 time=0\n",
      "note_on channel=1 note=40 velocity=74 time=0\n",
      "note_on channel=6 note=57 velocity=66 time=0\n",
      "note_on channel=6 note=59 velocity=76 time=0\n",
      "note_on channel=11 note=52 velocity=100 time=0\n",
      "<meta message lyrics text='er, ' time=1>\n",
      "<meta message lyrics text='\\r' time=0>\n",
      "note_on channel=3 note=61 velocity=109 time=0\n",
      "note_on channel=4 note=61 velocity=54 time=0\n",
      "control_change channel=0 control=64 value=0 time=7\n",
      "note_off channel=11 note=52 velocity=64 time=0\n",
      "note_off channel=6 note=59 velocity=64 time=4\n",
      "note_off channel=6 note=57 velocity=64 time=2\n",
      "note_off channel=10 note=52 velocity=64 time=1\n",
      "note_off channel=10 note=59 velocity=64 time=0\n",
      "note_off channel=10 note=57 velocity=64 time=1\n",
      "note_on channel=9 note=54 velocity=33 time=7\n",
      "note_off channel=9 note=54 velocity=64 time=0\n",
      "note_on channel=0 note=81 velocity=99 time=0\n",
      "note_on channel=9 note=69 velocity=44 time=1\n",
      "note_off channel=9 note=69 velocity=64 time=0\n",
      "note_on channel=0 note=69 velocity=81 time=0\n",
      "note_on channel=6 note=57 velocity=65 time=0\n",
      "note_on channel=6 note=59 velocity=72 time=0\n",
      "note_on channel=10 note=57 velocity=81 time=0\n",
      "note_on channel=10 note=59 velocity=86 time=0\n",
      "note_on channel=11 note=52 velocity=95 time=0\n",
      "note_on channel=10 note=52 velocity=74 time=1\n",
      "note_off channel=1 note=40 velocity=64 time=7\n",
      "note_off channel=6 note=52 velocity=64 time=2\n",
      "note_off channel=11 note=52 velocity=64 time=0\n",
      "note_off channel=6 note=59 velocity=64 time=1\n",
      "note_off channel=6 note=57 velocity=64 time=3\n",
      "note_off channel=0 note=81 velocity=64 time=7\n",
      "note_on channel=9 note=42 velocity=61 time=2\n",
      "note_off channel=9 note=42 velocity=64 time=0\n",
      "note_on channel=6 note=52 velocity=45 time=0\n",
      "note_on channel=9 note=69 velocity=46 time=1\n",
      "note_off channel=9 note=69 velocity=64 time=0\n",
      "note_on channel=1 note=42 velocity=74 time=0\n",
      "note_on channel=6 note=57 velocity=62 time=0\n",
      "note_on channel=11 note=52 velocity=85 time=0\n",
      "note_on channel=9 note=40 velocity=102 time=1\n",
      "note_off channel=9 note=40 velocity=64 time=0\n",
      "note_off channel=0 note=69 velocity=64 time=0\n",
      "note_on channel=6 note=59 velocity=69 time=0\n",
      "note_off channel=10 note=57 velocity=64 time=7\n",
      "note_off channel=6 note=59 velocity=64 time=2\n",
      "note_off channel=11 note=52 velocity=64 time=0\n",
      "note_off channel=10 note=52 velocity=64 time=1\n",
      "note_off channel=6 note=57 velocity=64 time=1\n",
      "note_off channel=3 note=61 velocity=64 time=1\n",
      "note_off channel=10 note=59 velocity=64 time=3\n",
      "note_off channel=6 note=52 velocity=64 time=5\n",
      "note_on channel=9 note=42 velocity=44 time=3\n",
      "note_off channel=9 note=42 velocity=64 time=0\n",
      "note_on channel=9 note=69 velocity=38 time=0\n",
      "note_off channel=9 note=69 velocity=64 time=0\n",
      "note_off channel=1 note=42 velocity=64 time=0\n",
      "note_on channel=1 note=44 velocity=70 time=0\n",
      "note_on channel=0 note=80 velocity=93 time=0\n",
      "note_on channel=0 note=68 velocity=93 time=0\n",
      "note_on channel=0 note=59 velocity=93 time=0\n",
      "note_on channel=6 note=57 velocity=63 time=0\n",
      "note_on channel=6 note=59 velocity=69 time=0\n",
      "note_on channel=10 note=59 velocity=60 time=0\n",
      "note_on channel=10 note=56 velocity=71 time=0\n",
      "note_on channel=11 note=52 velocity=67 time=0\n",
      "note_on channel=6 note=52 velocity=55 time=1\n",
      "note_on channel=10 note=52 velocity=75 time=0\n",
      "note_off channel=0 note=64 velocity=64 time=3\n",
      "note_off channel=4 note=61 velocity=64 time=2\n",
      "control_change channel=0 control=64 value=127 time=2\n",
      "note_off channel=11 note=52 velocity=64 time=0\n",
      "note_off channel=6 note=59 velocity=64 time=1\n",
      "note_off channel=6 note=57 velocity=64 time=1\n",
      "note_off channel=0 note=80 velocity=64 time=2\n",
      "note_off channel=0 note=68 velocity=64 time=1\n",
      "note_off channel=1 note=44 velocity=64 time=7\n",
      "note_on channel=9 note=54 velocity=56 time=3\n",
      "note_off channel=9 note=54 velocity=64 time=0\n",
      "note_on channel=11 note=52 velocity=112 time=0\n",
      "note_on channel=9 note=46 velocity=46 time=1\n",
      "note_off channel=9 note=46 velocity=64 time=0\n",
      "note_on channel=9 note=69 velocity=65 time=0\n",
      "note_off channel=9 note=69 velocity=64 time=0\n",
      "note_on channel=1 note=47 velocity=79 time=0\n",
      "note_on channel=6 note=56 velocity=64 time=0\n",
      "note_on channel=6 note=59 velocity=66 time=0\n",
      "note_off channel=11 note=52 velocity=64 time=8\n",
      "note_off channel=13 note=40 velocity=64 time=1\n",
      "note_off channel=6 note=59 velocity=64 time=3\n",
      "note_off channel=0 note=56 velocity=64 time=3\n",
      "note_off channel=6 note=56 velocity=64 time=0\n",
      "note_off channel=0 note=59 velocity=64 time=1\n",
      "note_off channel=6 note=52 velocity=64 time=1\n",
      "note_on channel=9 note=54 velocity=46 time=6\n",
      "note_off channel=9 note=54 velocity=64 time=0\n",
      "note_on channel=11 note=52 velocity=93 time=0\n",
      "note_on channel=9 note=69 velocity=37 time=1\n",
      "note_off channel=9 note=69 velocity=64 time=0\n",
      "note_on channel=0 note=76 velocity=81 time=0\n",
      "note_on channel=0 note=64 velocity=83 time=0\n",
      "control_change channel=0 control=64 value=0 time=1\n",
      "note_off channel=10 note=59 velocity=64 time=3\n",
      "note_off channel=10 note=52 velocity=64 time=1\n",
      "note_off channel=10 note=56 velocity=64 time=3\n",
      "note_off channel=11 note=52 velocity=64 time=0\n",
      "note_off channel=0 note=76 velocity=64 time=2\n",
      "note_off channel=0 note=64 velocity=64 time=1\n",
      "note_on channel=13 note=40 velocity=87 time=11\n",
      "note_on channel=11 note=52 velocity=76 time=1\n",
      "<meta message lyrics text='an' time=1>\n",
      "note_on channel=3 note=59 velocity=110 time=0\n",
      "note_on channel=4 note=59 velocity=55 time=0\n",
      "note_on channel=9 note=36 velocity=107 time=0\n",
      "note_off channel=9 note=36 velocity=64 time=0\n",
      "note_on channel=9 note=42 velocity=53 time=0\n",
      "note_off channel=9 note=42 velocity=64 time=0\n",
      "note_on channel=9 note=69 velocity=39 time=0\n",
      "note_off channel=9 note=69 velocity=64 time=0\n",
      "note_off channel=1 note=47 velocity=64 time=0\n",
      "note_on channel=1 note=28 velocity=96 time=0\n",
      "note_on channel=0 note=76 velocity=87 time=0\n",
      "note_on channel=0 note=64 velocity=87 time=0\n",
      "note_on channel=0 note=59 velocity=87 time=0\n",
      "note_on channel=0 note=68 velocity=87 time=0\n",
      "note_on channel=0 note=56 velocity=87 time=0\n",
      "note_on channel=0 note=71 velocity=87 time=0\n",
      "note_on channel=6 note=52 velocity=65 time=0\n",
      "note_on channel=6 note=56 velocity=74 time=0\n",
      "note_on channel=6 note=59 velocity=83 time=0\n",
      "note_off channel=11 note=52 velocity=64 time=11\n",
      "note_on channel=9 note=69 velocity=39 time=13\n",
      "note_off channel=9 note=69 velocity=64 time=0\n",
      "note_on channel=11 note=52 velocity=77 time=0\n",
      "note_on channel=9 note=42 velocity=40 time=1\n",
      "note_off channel=9 note=42 velocity=64 time=0\n",
      "note_off channel=11 note=52 velocity=64 time=9\n",
      "note_off channel=3 note=59 velocity=64 time=5\n",
      "note_off channel=13 note=40 velocity=64 time=2\n",
      "note_off channel=1 note=28 velocity=64 time=4\n",
      "note_off channel=4 note=59 velocity=64 time=1\n",
      "<meta message lyrics text='y' time=1>\n",
      "note_on channel=3 note=59 velocity=104 time=0\n",
      "note_on channel=4 note=59 velocity=52 time=0\n",
      "note_on channel=9 note=69 velocity=67 time=0\n",
      "note_off channel=9 note=69 velocity=64 time=0\n",
      "note_on channel=9 note=54 velocity=57 time=0\n",
      "note_off channel=9 note=54 velocity=64 time=0\n",
      "note_on channel=13 note=40 velocity=63 time=0\n",
      "note_on channel=9 note=46 velocity=49 time=1\n",
      "note_off channel=9 note=46 velocity=64 time=0\n",
      "note_on channel=11 note=52 velocity=108 time=0\n",
      "note_off channel=0 note=59 velocity=64 time=4\n",
      "note_off channel=0 note=68 velocity=64 time=3\n",
      "note_off channel=0 note=71 velocity=64 time=2\n",
      "note_off channel=11 note=52 velocity=64 time=0\n",
      "note_off channel=6 note=56 velocity=64 time=1\n",
      "note_off channel=6 note=59 velocity=64 time=1\n",
      "note_off channel=13 note=40 velocity=64 time=0\n",
      "note_off channel=0 note=76 velocity=64 time=2\n",
      "note_off channel=3 note=59 velocity=64 time=1\n",
      "note_off channel=6 note=52 velocity=64 time=0\n",
      "note_off channel=0 note=64 velocity=64 time=2\n",
      "note_off channel=4 note=59 velocity=64 time=7\n",
      "note_on channel=9 note=69 velocity=42 time=0\n",
      "note_off channel=9 note=69 velocity=64 time=0\n",
      "note_on channel=9 note=54 velocity=37 time=0\n",
      "note_off channel=9 note=54 velocity=64 time=0\n",
      "<meta message lyrics text='one ' time=1>\n",
      "note_on channel=3 note=59 velocity=108 time=0\n",
      "note_on channel=4 note=59 velocity=54 time=0\n",
      "note_on channel=9 note=36 velocity=88 time=0\n",
      "note_off channel=9 note=36 velocity=64 time=0\n",
      "note_on channel=1 note=28 velocity=75 time=0\n",
      "note_on channel=0 note=59 velocity=93 time=0\n",
      "note_on channel=0 note=68 velocity=82 time=0\n",
      "note_on channel=0 note=71 velocity=104 time=0\n",
      "note_on channel=0 note=64 velocity=81 time=0\n",
      "note_on channel=0 note=76 velocity=82 time=0\n",
      "note_on channel=11 note=52 velocity=100 time=0\n",
      "note_on channel=13 note=40 velocity=68 time=0\n",
      "note_on channel=6 note=56 velocity=56 time=1\n",
      "note_on channel=6 note=59 velocity=66 time=0\n",
      "note_on channel=6 note=52 velocity=66 time=0\n",
      "note_off channel=11 note=52 velocity=64 time=9\n",
      "note_off channel=1 note=28 velocity=64 time=1\n",
      "note_off channel=6 note=59 velocity=64 time=4\n",
      "note_off channel=6 note=56 velocity=64 time=1\n",
      "note_off channel=0 note=71 velocity=64 time=1\n",
      "note_off channel=0 note=68 velocity=64 time=0\n",
      "note_off channel=0 note=76 velocity=64 time=3\n",
      "note_on channel=11 note=52 velocity=85 time=2\n",
      "note_on channel=9 note=40 velocity=104 time=1\n",
      "note_off channel=9 note=40 velocity=64 time=0\n",
      "note_on channel=9 note=42 velocity=42 time=1\n",
      "note_off channel=9 note=42 velocity=64 time=0\n",
      "note_on channel=9 note=69 velocity=49 time=0\n",
      "note_off channel=9 note=69 velocity=64 time=0\n",
      "note_on channel=1 note=28 velocity=82 time=0\n",
      "note_off channel=0 note=64 velocity=64 time=3\n",
      "note_off channel=13 note=40 velocity=64 time=0\n",
      "note_off channel=11 note=52 velocity=64 time=6\n",
      "note_off channel=6 note=52 velocity=64 time=1\n",
      "note_off channel=3 note=59 velocity=64 time=4\n",
      "note_on channel=11 note=52 velocity=69 time=8\n",
      "note_off channel=4 note=59 velocity=64 time=2\n",
      "note_on channel=9 note=69 velocity=47 time=0\n",
      "note_off channel=9 note=69 velocity=64 time=0\n",
      "note_on channel=13 note=40 velocity=86 time=0\n",
      "<meta message lyrics text='will ' time=1>\n",
      "note_on channel=3 note=59 velocity=103 time=0\n",
      "note_on channel=4 note=59 velocity=51 time=0\n",
      "note_off channel=1 note=28 velocity=64 time=3\n",
      "note_off channel=11 note=52 velocity=64 time=4\n",
      "note_off channel=13 note=40 velocity=64 time=4\n",
      "note_off channel=3 note=59 velocity=64 time=6\n",
      "note_on channel=11 note=52 velocity=114 time=4\n",
      "<meta message lyrics text='do. ' time=1>\n",
      "<meta message lyrics text='\\r' time=0>\n",
      "note_on channel=3 note=61 velocity=110 time=0\n",
      "note_off channel=4 note=59 velocity=64 time=0\n",
      "note_on channel=4 note=61 velocity=55 time=0\n",
      "note_on channel=9 note=36 velocity=101 time=0\n",
      "note_off channel=9 note=36 velocity=64 time=0\n",
      "note_on channel=9 note=54 velocity=70 time=0\n",
      "note_off channel=9 note=54 velocity=64 time=0\n",
      "note_on channel=1 note=32 velocity=70 time=0\n",
      "note_on channel=9 note=46 velocity=44 time=1\n",
      "note_off channel=9 note=46 velocity=64 time=0\n",
      "note_on channel=9 note=69 velocity=69 time=0\n",
      "note_off channel=9 note=69 velocity=64 time=0\n",
      "note_on channel=0 note=76 velocity=96 time=0\n",
      "note_on channel=0 note=64 velocity=89 time=0\n",
      "note_on channel=0 note=68 velocity=78 time=0\n",
      "note_on channel=0 note=71 velocity=106 time=0\n",
      "note_on channel=6 note=52 velocity=63 time=0\n",
      "note_on channel=6 note=56 velocity=72 time=0\n",
      "note_on channel=6 note=59 velocity=72 time=0\n",
      "note_on channel=13 note=40 velocity=74 time=0\n",
      "note_off channel=11 note=52 velocity=64 time=6\n",
      "control_change channel=0 control=64 value=127 time=3\n",
      "note_on channel=9 note=54 velocity=38 time=14\n",
      "note_off channel=9 note=54 velocity=64 time=0\n",
      "note_on channel=11 note=52 velocity=95 time=0\n",
      "note_on channel=9 note=69 velocity=49 time=1\n",
      "note_off channel=9 note=69 velocity=64 time=0\n",
      "note_off channel=0 note=59 velocity=64 time=8\n",
      "note_off channel=11 note=52 velocity=64 time=1\n",
      "note_off channel=6 note=59 velocity=64 time=7\n",
      "note_off channel=6 note=56 velocity=64 time=2\n",
      "note_off channel=0 note=68 velocity=64 time=1\n",
      "note_off channel=6 note=52 velocity=64 time=0\n",
      "note_off channel=1 note=32 velocity=64 time=1\n",
      "note_off channel=0 note=64 velocity=64 time=1\n",
      "note_on channel=11 note=52 velocity=90 time=1\n",
      "note_on channel=9 note=36 velocity=110 time=1\n",
      "note_off channel=9 note=36 velocity=64 time=0\n",
      "note_on channel=1 note=35 velocity=87 time=0\n",
      "note_off channel=0 note=76 velocity=64 time=0\n",
      "note_off channel=0 note=71 velocity=64 time=0\n",
      "<meta message lyrics text='\\n' time=1>\n",
      "note_on channel=9 note=42 velocity=45 time=0\n",
      "note_off channel=9 note=42 velocity=64 time=0\n",
      "note_on channel=9 note=69 velocity=50 time=0\n",
      "note_off channel=9 note=69 velocity=64 time=0\n",
      "note_off channel=11 note=52 velocity=64 time=10\n",
      "note_off channel=0 note=56 velocity=64 time=9\n",
      "note_on channel=6 note=57 velocity=77 time=3\n",
      "note_on channel=0 note=76 velocity=80 time=1\n",
      "note_on channel=0 note=68 velocity=73 time=0\n",
      "note_on channel=6 note=59 velocity=77 time=0\n",
      "note_on channel=6 note=52 velocity=61 time=0\n",
      "note_on channel=10 note=57 velocity=86 time=0\n",
      "note_on channel=10 note=52 velocity=63 time=0\n",
      "note_on channel=10 note=59 velocity=86 time=0\n",
      "note_on channel=9 note=69 velocity=46 time=1\n",
      "note_off channel=9 note=69 velocity=64 time=0\n",
      "note_on channel=0 note=71 velocity=85 time=0\n",
      "note_on channel=0 note=64 velocity=76 time=0\n",
      "note_on channel=11 note=52 velocity=75 time=0\n",
      "note_off channel=3 note=61 velocity=64 time=8\n",
      "note_off channel=11 note=52 velocity=64 time=1\n",
      "note_off channel=6 note=59 velocity=64 time=1\n",
      "note_off channel=6 note=57 velocity=64 time=0\n",
      "note_off channel=0 note=68 velocity=64 time=8\n",
      "note_off channel=0 note=76 velocity=64 time=4\n",
      "note_on channel=6 note=57 velocity=66 time=0\n",
      "note_on channel=9 note=54 velocity=65 time=1\n",
      "note_off channel=9 note=54 velocity=64 time=0\n",
      "note_off channel=1 note=35 velocity=64 time=0\n",
      "note_on channel=1 note=40 velocity=76 time=0\n",
      "note_off channel=0 note=71 velocity=64 time=0\n",
      "note_on channel=0 note=59 velocity=82 time=0\n",
      "note_on channel=6 note=59 velocity=69 time=0\n",
      "note_on channel=11 note=52 velocity=120 time=0\n",
      "note_on channel=9 note=46 velocity=40 time=1\n",
      "note_off channel=9 note=46 velocity=64 time=0\n",
      "note_on channel=9 note=69 velocity=71 time=0\n",
      "note_off channel=9 note=69 velocity=64 time=0\n",
      "note_off channel=0 note=64 velocity=64 time=3\n",
      "note_off channel=11 note=52 velocity=64 time=5\n",
      "note_off channel=10 note=52 velocity=64 time=1\n",
      "note_off channel=6 note=59 velocity=64 time=1\n",
      "note_off channel=4 note=61 velocity=64 time=2\n",
      "note_off channel=6 note=57 velocity=64 time=0\n",
      "note_off channel=0 note=59 velocity=64 time=1\n",
      "note_off channel=10 note=59 velocity=64 time=0\n",
      "note_off channel=10 note=57 velocity=64 time=1\n",
      "control_change channel=0 control=64 value=0 time=8\n",
      "note_on channel=9 note=54 velocity=44 time=1\n",
      "note_off channel=9 note=54 velocity=64 time=0\n",
      "note_on channel=6 note=57 velocity=63 time=0\n",
      "note_on channel=6 note=59 velocity=68 time=0\n",
      "note_on channel=9 note=69 velocity=40 time=1\n",
      "note_off channel=9 note=69 velocity=64 time=0\n",
      "note_on channel=10 note=52 velocity=74 time=0\n",
      "note_on channel=10 note=57 velocity=79 time=0\n",
      "note_on channel=10 note=59 velocity=90 time=0\n",
      "note_on channel=11 note=52 velocity=98 time=0\n",
      "note_on channel=0 note=59 velocity=85 time=1\n",
      "note_off channel=11 note=52 velocity=64 time=8\n",
      "note_off channel=6 note=59 velocity=64 time=1\n",
      "note_off channel=6 note=57 velocity=64 time=1\n",
      "note_off channel=1 note=40 velocity=64 time=8\n",
      "note_off channel=6 note=52 velocity=64 time=1\n",
      "note_on channel=9 note=40 velocity=104 time=3\n",
      "note_off channel=9 note=40 velocity=64 time=0\n",
      "note_on channel=9 note=42 velocity=49 time=0\n",
      "note_off channel=9 note=42 velocity=64 time=0\n",
      "note_on channel=1 note=42 velocity=70 time=0\n",
      "note_on channel=0 note=64 velocity=110 time=0\n",
      "note_on channel=0 note=71 velocity=110 time=0\n",
      "note_on channel=0 note=68 velocity=110 time=0\n",
      "note_on channel=0 note=76 velocity=110 time=0\n",
      "note_on channel=6 note=52 velocity=52 time=0\n",
      "note_on channel=6 note=57 velocity=68 time=0\n",
      "<meta message lyrics text=\"You're \" time=1>\n",
      "note_on channel=3 note=59 velocity=108 time=0\n",
      "note_on channel=4 note=59 velocity=54 time=0\n",
      "note_on channel=9 note=69 velocity=52 time=0\n",
      "note_off channel=9 note=69 velocity=64 time=0\n",
      "note_on channel=6 note=59 velocity=72 time=0\n",
      "note_on channel=11 note=52 velocity=71 time=0\n",
      "note_off channel=10 note=57 velocity=64 time=5\n",
      "note_off channel=10 note=59 velocity=64 time=4\n",
      "note_off channel=10 note=52 velocity=64 time=0\n",
      "note_off channel=0 note=59 velocity=64 time=1\n",
      "note_off channel=6 note=59 velocity=64 time=0\n",
      "note_off channel=11 note=52 velocity=64 time=1\n",
      "note_off channel=6 note=57 velocity=64 time=1\n",
      "note_off channel=1 note=42 velocity=64 time=8\n",
      "note_off channel=6 note=52 velocity=64 time=0\n",
      "note_on channel=9 note=42 velocity=40 time=3\n",
      "note_off channel=9 note=42 velocity=64 time=0\n",
      "note_on channel=9 note=69 velocity=43 time=1\n",
      "note_off channel=9 note=69 velocity=64 time=0\n",
      "note_on channel=1 note=44 velocity=74 time=0\n",
      "note_on channel=6 note=57 velocity=66 time=0\n",
      "note_on channel=6 note=59 velocity=69 time=0\n",
      "note_on channel=6 note=52 velocity=56 time=0\n",
      "note_on channel=10 note=56 velocity=79 time=0\n",
      "note_on channel=10 note=59 velocity=79 time=0\n",
      "note_on channel=10 note=52 velocity=74 time=0\n",
      "note_on channel=11 note=52 velocity=75 time=0\n",
      "<meta message lyrics text='in ' time=2>\n",
      "note_off channel=3 note=59 velocity=64 time=0\n",
      "note_on channel=3 note=57 velocity=106 time=0\n",
      "note_off channel=4 note=59 velocity=64 time=0\n",
      "note_on channel=4 note=57 velocity=53 time=0\n",
      "note_off channel=6 note=59 velocity=64 time=8\n",
      "note_off channel=6 note=57 velocity=64 time=0\n",
      "note_off channel=11 note=52 velocity=64 time=1\n",
      "note_on channel=9 note=54 velocity=63 time=12\n",
      "note_off channel=9 note=54 velocity=64 time=0\n",
      "note_off channel=1 note=44 velocity=64 time=0\n",
      "note_on channel=0 note=59 velocity=91 time=0\n",
      "note_on channel=9 note=46 velocity=47 time=1\n",
      "note_off channel=9 note=46 velocity=64 time=0\n",
      "note_on channel=9 note=69 velocity=64 time=0\n",
      "note_off channel=9 note=69 velocity=64 time=0\n",
      "note_on channel=1 note=47 velocity=87 time=0\n",
      "note_on channel=6 note=59 velocity=67 time=0\n",
      "note_on channel=6 note=56 velocity=71 time=0\n",
      "note_on channel=11 note=52 velocity=120 time=0\n",
      "note_off channel=7 note=52 velocity=64 time=0\n",
      "note_off channel=0 note=68 velocity=64 time=8\n",
      "note_off channel=0 note=59 velocity=64 time=1\n",
      "note_off channel=11 note=52 velocity=64 time=0\n",
      "note_off channel=6 note=59 velocity=64 time=1\n",
      "note_off channel=13 note=40 velocity=64 time=0\n",
      "note_off channel=0 note=64 velocity=64 time=1\n",
      "note_off channel=0 note=71 velocity=64 time=0\n",
      "note_off channel=6 note=52 velocity=64 time=0\n",
      "note_off channel=0 note=76 velocity=64 time=1\n",
      "note_off channel=6 note=56 velocity=64 time=2\n",
      "note_on channel=0 note=59 velocity=91 time=9\n",
      "note_on channel=9 note=69 velocity=43 time=1\n",
      "note_off channel=9 note=69 velocity=64 time=0\n",
      "note_on channel=9 note=54 velocity=42 time=0\n",
      "note_off channel=9 note=54 velocity=64 time=0\n",
      "note_on channel=11 note=52 velocity=100 time=0\n",
      "<meta message lyrics text='the ' time=1>\n",
      "note_off channel=3 note=57 velocity=64 time=0\n",
      "note_on channel=3 note=56 velocity=107 time=0\n",
      "note_off channel=4 note=57 velocity=64 time=0\n",
      "note_on channel=4 note=56 velocity=53 time=0\n",
      "note_off channel=10 note=52 velocity=64 time=3\n",
      "note_off channel=10 note=56 velocity=64 time=0\n",
      "note_off channel=10 note=59 velocity=64 time=3\n",
      "note_off channel=11 note=52 velocity=64 time=4\n",
      "note_off channel=0 note=59 velocity=64 time=4\n",
      "control_change channel=0 control=64 value=127 time=4\n",
      "note_off channel=1 note=47 velocity=64 time=2\n",
      "note_on channel=0 note=64 velocity=78 time=1\n",
      "note_on channel=0 note=71 velocity=101 time=0\n",
      "note_on channel=0 note=68 velocity=85 time=0\n",
      "note_on channel=0 note=76 velocity=93 time=0\n",
      "note_on channel=13 note=40 velocity=87 time=0\n",
      "note_on channel=9 note=42 velocity=47 time=1\n",
      "note_off channel=9 note=42 velocity=64 time=0\n",
      "note_on channel=9 note=36 velocity=104 time=1\n",
      "note_off channel=9 note=36 velocity=64 time=0\n",
      "note_on channel=1 note=28 velocity=86 time=0\n",
      "note_on channel=6 note=52 velocity=57 time=0\n",
      "note_on channel=6 note=56 velocity=74 time=0\n",
      "note_on channel=6 note=59 velocity=85 time=0\n",
      "note_on channel=11 note=52 velocity=117 time=0\n",
      "note_on channel=7 note=64 velocity=81 time=0\n",
      "note_on channel=7 note=52 velocity=75 time=0\n",
      "<meta message lyrics text='mood ' time=1>\n",
      "note_off channel=3 note=56 velocity=64 time=0\n",
      "note_on channel=3 note=52 velocity=103 time=0\n",
      "note_off channel=4 note=56 velocity=64 time=0\n",
      "note_on channel=4 note=52 velocity=51 time=0\n",
      "note_on channel=9 note=69 velocity=47 time=0\n",
      "note_off channel=9 note=69 velocity=64 time=0\n",
      "note_on channel=9 note=42 velocity=38 time=22\n",
      "note_off channel=9 note=42 velocity=64 time=0\n",
      "note_on channel=9 note=69 velocity=45 time=2\n",
      "note_off channel=9 note=69 velocity=64 time=0\n",
      "note_off channel=0 note=64 velocity=64 time=5\n",
      "note_off channel=0 note=71 velocity=64 time=4\n",
      "note_off channel=0 note=76 velocity=64 time=0\n",
      "note_off channel=11 note=52 velocity=64 time=2\n",
      "note_off channel=0 note=68 velocity=64 time=2\n",
      "note_on channel=0 note=59 velocity=82 time=8\n",
      "note_on channel=9 note=54 velocity=70 time=1\n",
      "note_off channel=9 note=54 velocity=64 time=0\n",
      "note_on channel=9 note=46 velocity=47 time=1\n",
      "note_off channel=9 note=46 velocity=64 time=0\n",
      "note_on channel=9 note=69 velocity=66 time=0\n",
      "note_off channel=9 note=69 velocity=64 time=0\n",
      "note_off channel=6 note=56 velocity=64 time=2\n",
      "control_change channel=0 control=64 value=0 time=2\n",
      "note_off channel=0 note=59 velocity=64 time=2\n",
      "note_off channel=3 note=52 velocity=64 time=1\n",
      "note_off channel=6 note=52 velocity=64 time=5\n",
      "note_off channel=6 note=59 velocity=64 time=7\n",
      "note_off channel=13 note=40 velocity=64 time=3\n",
      "note_off channel=1 note=28 velocity=64 time=1\n",
      "note_on channel=1 note=30 velocity=79 time=0\n",
      "note_on channel=0 note=78 velocity=91 time=0\n",
      "note_on channel=0 note=66 velocity=101 time=0\n",
      "note_on channel=13 note=42 velocity=66 time=0\n",
      "<meta message lyrics text='for ' time=1>\n",
      "note_on channel=3 note=54 velocity=109 time=0\n",
      "note_off channel=4 note=52 velocity=64 time=0\n",
      "note_on channel=4 note=54 velocity=54 time=0\n",
      "note_on channel=9 note=36 velocity=98 time=0\n",
      "note_off channel=9 note=36 velocity=64 time=0\n",
      "note_on channel=9 note=69 velocity=43 time=0\n",
      "note_off channel=9 note=69 velocity=64 time=0\n",
      "note_on channel=9 note=54 velocity=47 time=0\n",
      "note_off channel=9 note=54 velocity=64 time=0\n",
      "note_on channel=0 note=69 velocity=91 time=0\n",
      "note_on channel=0 note=73 velocity=82 time=0\n",
      "note_on channel=6 note=57 velocity=63 time=0\n",
      "note_on channel=6 note=54 velocity=69 time=0\n",
      "note_on channel=6 note=61 velocity=60 time=0\n",
      "note_on channel=11 note=54 velocity=100 time=0\n",
      "note_off channel=3 note=54 velocity=64 time=12\n",
      "note_off channel=0 note=69 velocity=64 time=0\n",
      "note_off channel=11 note=54 velocity=64 time=0\n",
      "note_off channel=0 note=78 velocity=64 time=3\n",
      "note_off channel=0 note=66 velocity=64 time=0\n",
      "note_off channel=0 note=73 velocity=64 time=2\n",
      "note_off channel=13 note=42 velocity=64 time=2\n",
      "note_off channel=1 note=30 velocity=64 time=2\n",
      "note_off channel=4 note=54 velocity=64 time=2\n",
      "note_on channel=9 note=40 velocity=101 time=0\n",
      "note_off channel=9 note=40 velocity=64 time=0\n",
      "<meta message lyrics text='a ' time=1>\n",
      "note_on channel=3 note=54 velocity=108 time=0\n",
      "note_on channel=4 note=54 velocity=54 time=0\n",
      "note_on channel=9 note=42 velocity=54 time=0\n",
      "note_off channel=9 note=42 velocity=64 time=0\n",
      "note_on channel=9 note=69 velocity=50 time=0\n",
      "note_off channel=9 note=69 velocity=64 time=0\n",
      "note_off channel=7 note=52 velocity=64 time=0\n",
      "note_off channel=7 note=64 velocity=64 time=0\n",
      "note_on channel=7 note=66 velocity=71 time=0\n",
      "note_on channel=7 note=54 velocity=70 time=0\n",
      "note_off channel=6 note=54 velocity=64 time=1\n",
      "note_off channel=6 note=61 velocity=64 time=2\n",
      "note_off channel=6 note=57 velocity=64 time=1\n",
      "note_on channel=9 note=69 velocity=46 time=20\n",
      "note_off channel=9 note=69 velocity=64 time=0\n",
      "note_off channel=3 note=54 velocity=64 time=11\n",
      "note_on channel=13 note=42 velocity=83 time=11\n",
      "note_on channel=9 note=36 velocity=104 time=1\n",
      "note_off channel=9 note=36 velocity=64 time=0\n",
      "note_on channel=9 note=54 velocity=65 time=0\n",
      "note_off channel=9 note=54 velocity=64 time=0\n",
      "note_on channel=6 note=54 velocity=78 time=0\n",
      "note_on channel=6 note=57 velocity=78 time=0\n",
      "note_on channel=6 note=61 velocity=85 time=0\n",
      "note_on channel=11 note=54 velocity=112 time=0\n",
      "note_on channel=9 note=46 velocity=44 time=1\n",
      "note_off channel=9 note=46 velocity=64 time=0\n",
      "note_on channel=9 note=69 velocity=62 time=0\n",
      "note_off channel=9 note=69 velocity=64 time=0\n",
      "note_on channel=1 note=30 velocity=105 time=0\n",
      "note_on channel=0 note=78 velocity=123 time=0\n",
      "note_on channel=0 note=66 velocity=114 time=0\n",
      "note_on channel=0 note=73 velocity=96 time=0\n",
      "note_on channel=0 note=69 velocity=114 time=0\n",
      "note_off channel=4 note=54 velocity=64 time=1\n",
      "<meta message lyrics text='dance. ' time=1>\n",
      "<meta message lyrics text='\\r' time=0>\n",
      "note_on channel=3 note=54 velocity=105 time=0\n",
      "note_on channel=4 note=54 velocity=52 time=0\n",
      "note_on channel=9 note=69 velocity=47 time=22\n",
      "note_off channel=9 note=69 velocity=64 time=0\n",
      "note_on channel=9 note=54 velocity=39 time=0\n",
      "note_off channel=9 note=54 velocity=64 time=0\n",
      "note_on channel=9 note=36 velocity=107 time=24\n",
      "note_off channel=9 note=36 velocity=64 time=0\n",
      "note_on channel=9 note=42 velocity=52 time=0\n",
      "note_off channel=9 note=42 velocity=64 time=0\n",
      "note_on channel=9 note=69 velocity=47 time=0\n",
      "note_off channel=9 note=69 velocity=64 time=0\n",
      "note_on channel=0 note=30 velocity=86 time=23\n",
      "note_on channel=9 note=40 velocity=94 time=1\n",
      "note_off channel=9 note=40 velocity=64 time=0\n",
      "note_on channel=9 note=69 velocity=43 time=0\n",
      "note_off channel=9 note=69 velocity=64 time=0\n",
      "note_off channel=1 note=30 velocity=64 time=3\n",
      "note_off channel=0 note=30 velocity=64 time=16\n",
      "control_change channel=0 control=64 value=127 time=0\n",
      "note_on channel=0 note=49 velocity=83 time=1\n",
      "note_on channel=1 note=30 velocity=85 time=2\n",
      "note_on channel=9 note=54 velocity=57 time=1\n",
      "note_off channel=9 note=54 velocity=64 time=0\n",
      "note_on channel=0 note=42 velocity=83 time=0\n",
      "note_on channel=9 note=69 velocity=71 time=1\n",
      "note_off channel=9 note=69 velocity=64 time=0\n",
      "note_off channel=11 note=54 velocity=64 time=4\n",
      "note_off channel=1 note=30 velocity=64 time=9\n",
      "note_on channel=0 note=54 velocity=81 time=7\n",
      "note_on channel=1 note=30 velocity=78 time=3\n",
      "note_on channel=0 note=30 velocity=81 time=0\n",
      "note_on channel=9 note=69 velocity=39 time=1\n",
      "note_off channel=9 note=69 velocity=64 time=0\n",
      "note_on channel=9 note=54 velocity=42 time=0\n",
      "note_off channel=9 note=54 velocity=64 time=0\n",
      "note_off channel=0 note=49 velocity=64 time=3\n",
      "note_off channel=0 note=42 velocity=64 time=2\n",
      "note_off channel=0 note=66 velocity=64 time=11\n",
      "note_off channel=0 note=69 velocity=64 time=5\n",
      "note_on channel=9 note=42 velocity=63 time=2\n",
      "note_off channel=9 note=42 velocity=64 time=0\n",
      "note_off channel=1 note=30 velocity=64 time=0\n",
      "note_on channel=1 note=42 velocity=93 time=0\n",
      "note_on channel=9 note=40 velocity=104 time=1\n",
      "note_off channel=9 note=40 velocity=64 time=0\n",
      "note_on channel=9 note=69 velocity=52 time=0\n",
      "note_off channel=9 note=69 velocity=64 time=0\n",
      "note_off channel=0 note=30 velocity=64 time=0\n",
      "note_on channel=0 note=42 velocity=83 time=0\n",
      "note_on channel=0 note=57 velocity=83 time=0\n",
      "note_off channel=0 note=73 velocity=64 time=1\n",
      "note_off channel=0 note=78 velocity=64 time=5\n",
      "note_off channel=0 note=54 velocity=64 time=2\n",
      "note_off channel=1 note=42 velocity=64 time=15\n",
      "note_on channel=1 note=37 velocity=73 time=0\n",
      "note_on channel=9 note=69 velocity=45 time=1\n",
      "note_off channel=9 note=69 velocity=64 time=0\n",
      "note_off channel=0 note=57 velocity=64 time=0\n",
      "note_on channel=0 note=30 velocity=86 time=0\n",
      "note_on channel=0 note=61 velocity=86 time=1\n",
      "note_off channel=0 note=42 velocity=64 time=2\n",
      "note_off channel=1 note=37 velocity=64 time=15\n",
      "note_off channel=6 note=54 velocity=64 time=2\n",
      "note_off channel=6 note=57 velocity=64 time=1\n",
      "note_on channel=1 note=30 velocity=89 time=1\n",
      "note_on channel=9 note=54 velocity=39 time=1\n",
      "note_off channel=9 note=54 velocity=64 time=0\n",
      "note_off channel=6 note=61 velocity=64 time=0\n",
      "note_on channel=9 note=46 velocity=48 time=1\n",
      "note_off channel=9 note=46 velocity=64 time=0\n",
      "note_on channel=9 note=69 velocity=67 time=0\n",
      "note_off channel=9 note=69 velocity=64 time=0\n",
      "note_on channel=0 note=42 velocity=92 time=0\n",
      "note_on channel=0 note=66 velocity=92 time=1\n",
      "note_off channel=0 note=30 velocity=64 time=1\n",
      "control_change channel=0 control=64 value=0 time=1\n",
      "note_off channel=0 note=61 velocity=64 time=4\n",
      "note_off channel=3 note=54 velocity=64 time=14\n",
      "note_on channel=9 note=54 velocity=41 time=2\n",
      "note_off channel=9 note=54 velocity=64 time=0\n",
      "note_on channel=0 note=30 velocity=96 time=0\n",
      "note_on channel=9 note=69 velocity=41 time=1\n",
      "note_off channel=9 note=69 velocity=64 time=0\n",
      "note_off channel=0 note=42 velocity=64 time=0\n",
      "note_off channel=0 note=66 velocity=64 time=2\n",
      "note_on channel=0 note=69 velocity=97 time=0\n",
      "note_off channel=4 note=54 velocity=64 time=16\n",
      "note_on channel=6 note=52 velocity=58 time=4\n",
      "note_on channel=9 note=36 velocity=107 time=1\n",
      "note_off channel=9 note=36 velocity=64 time=0\n",
      "note_on channel=9 note=42 velocity=52 time=0\n",
      "note_off channel=9 note=42 velocity=64 time=0\n",
      "note_off channel=1 note=30 velocity=64 time=0\n",
      "note_on channel=0 note=76 velocity=101 time=0\n",
      "note_on channel=0 note=80 velocity=117 time=0\n",
      "note_on channel=0 note=83 velocity=120 time=0\n",
      "note_on channel=0 note=88 velocity=101 time=0\n",
      "note_on channel=6 note=56 velocity=66 time=0\n",
      "note_on channel=6 note=59 velocity=88 time=0\n",
      "note_on channel=9 note=69 velocity=52 time=1\n",
      "note_off channel=9 note=69 velocity=64 time=0\n",
      "note_on channel=1 note=28 velocity=84 time=0\n",
      "note_off channel=0 note=30 velocity=64 time=2\n",
      "note_on channel=0 note=68 velocity=93 time=1\n",
      "note_off channel=13 note=42 velocity=64 time=0\n",
      "note_off channel=0 note=69 velocity=64 time=3\n",
      "control_change channel=0 control=64 value=127 time=2\n",
      "note_on channel=9 note=42 velocity=40 time=16\n",
      "note_off channel=9 note=42 velocity=64 time=0\n",
      "note_on channel=9 note=69 velocity=43 time=0\n",
      "note_off channel=9 note=69 velocity=64 time=0\n",
      "note_off channel=0 note=76 velocity=64 time=12\n",
      "note_off channel=0 note=83 velocity=64 time=1\n",
      "note_off channel=0 note=80 velocity=64 time=1\n",
      "note_off channel=0 note=88 velocity=64 time=1\n",
      "note_on channel=9 note=54 velocity=78 time=8\n",
      "note_off channel=9 note=54 velocity=64 time=0\n",
      "note_on channel=9 note=46 velocity=43 time=1\n",
      "note_off channel=9 note=46 velocity=64 time=0\n",
      "note_on channel=9 note=69 velocity=69 time=0\n",
      "note_off channel=9 note=69 velocity=64 time=0\n",
      "control_change channel=0 control=64 value=0 time=20\n",
      "note_off channel=1 note=28 velocity=64 time=2\n",
      "note_off channel=6 note=56 velocity=64 time=0\n",
      "note_off channel=6 note=59 velocity=64 time=1\n",
      "note_on channel=6 note=61 velocity=63 time=0\n",
      "note_on channel=6 note=57 velocity=66 time=0\n",
      "note_on channel=9 note=36 velocity=104 time=1\n",
      "note_off channel=9 note=36 velocity=64 time=0\n",
      "note_on channel=9 note=69 velocity=49 time=0\n",
      "note_off channel=9 note=69 velocity=64 time=0\n",
      "note_on channel=9 note=54 velocity=41 time=0\n",
      "note_off channel=9 note=54 velocity=64 time=0\n",
      "note_on channel=1 note=30 velocity=86 time=0\n",
      "note_on channel=0 note=90 velocity=89 time=0\n",
      "note_on channel=0 note=78 velocity=110 time=0\n",
      "note_on channel=0 note=85 velocity=76 time=0\n",
      "note_on channel=0 note=81 velocity=91 time=0\n",
      "note_on channel=6 note=54 velocity=54 time=0\n",
      "note_on channel=0 note=66 velocity=87 time=4\n",
      "note_off channel=6 note=52 velocity=64 time=0\n",
      "note_off channel=0 note=68 velocity=64 time=3\n",
      "note_off channel=0 note=81 velocity=64 time=5\n",
      "note_off channel=6 note=54 velocity=64 time=0\n",
      "note_off channel=0 note=85 velocity=64 time=1\n",
      "note_off channel=6 note=57 velocity=64 time=0\n",
      "note_off channel=6 note=61 velocity=64 time=2\n",
      "note_off channel=0 note=78 velocity=64 time=4\n",
      "note_off channel=1 note=30 velocity=64 time=4\n",
      "note_on channel=9 note=40 velocity=94 time=1\n",
      "note_off channel=9 note=40 velocity=64 time=0\n",
      "note_on channel=9 note=42 velocity=43 time=0\n",
      "note_off channel=9 note=42 velocity=64 time=0\n",
      "note_on channel=9 note=69 velocity=50 time=0\n",
      "note_off channel=9 note=69 velocity=64 time=0\n",
      "note_off channel=0 note=90 velocity=64 time=2\n",
      "note_off channel=0 note=66 velocity=64 time=0\n",
      "note_on channel=9 note=69 velocity=43 time=22\n",
      "note_off channel=9 note=69 velocity=64 time=0\n",
      "note_on channel=6 note=54 velocity=88 time=22\n",
      "note_on channel=6 note=57 velocity=66 time=0\n",
      "note_on channel=6 note=61 velocity=64 time=0\n",
      "note_on channel=9 note=54 velocity=70 time=1\n",
      "note_off channel=9 note=54 velocity=64 time=0\n",
      "note_on channel=1 note=30 velocity=121 time=0\n",
      "note_on channel=0 note=81 velocity=118 time=0\n",
      "note_on channel=0 note=78 velocity=123 time=0\n",
      "note_on channel=0 note=90 velocity=106 time=0\n",
      "note_on channel=0 note=85 velocity=80 time=0\n",
      "note_on channel=0 note=66 velocity=89 time=0\n",
      "note_on channel=9 note=69 velocity=63 time=1\n",
      "note_off channel=9 note=69 velocity=64 time=0\n",
      "note_on channel=9 note=36 velocity=102 time=1\n",
      "note_off channel=9 note=36 velocity=64 time=0\n",
      "note_on channel=9 note=46 velocity=42 time=0\n",
      "note_off channel=9 note=46 velocity=64 time=0\n",
      "note_on channel=9 note=69 velocity=43 time=23\n",
      "note_off channel=9 note=69 velocity=64 time=0\n",
      "note_on channel=9 note=54 velocity=37 time=0\n",
      "note_off channel=9 note=54 velocity=64 time=0\n",
      "<meta message lyrics text='And ' time=23>\n",
      "note_on channel=3 note=57 velocity=108 time=0\n",
      "note_on channel=4 note=57 velocity=54 time=0\n",
      "note_on channel=9 note=69 velocity=49 time=1\n",
      "note_off channel=9 note=69 velocity=64 time=0\n",
      "note_on channel=9 note=36 velocity=102 time=1\n",
      "note_off channel=9 note=36 velocity=64 time=0\n",
      "note_on channel=9 note=42 velocity=57 time=0\n",
      "note_off channel=9 note=42 velocity=64 time=0\n",
      "note_on channel=9 note=40 velocity=98 time=23\n",
      "note_off channel=9 note=40 velocity=64 time=0\n",
      "note_on channel=9 note=69 velocity=41 time=0\n",
      "note_off channel=9 note=69 velocity=64 time=0\n",
      "note_on channel=9 note=54 velocity=70 time=23\n",
      "note_off channel=9 note=54 velocity=64 time=0\n",
      "note_on channel=9 note=69 velocity=67 time=1\n",
      "note_off channel=9 note=69 velocity=64 time=0\n",
      "note_off channel=3 note=57 velocity=64 time=19\n",
      "<meta message lyrics text='when ' time=4>\n",
      "note_on channel=3 note=59 velocity=108 time=0\n",
      "note_off channel=4 note=57 velocity=64 time=0\n",
      "note_on channel=4 note=59 velocity=54 time=0\n",
      "note_on channel=9 note=69 velocity=44 time=1\n",
      "note_off channel=9 note=69 velocity=64 time=0\n",
      "note_on channel=9 note=54 velocity=41 time=0\n",
      "note_off channel=9 note=54 velocity=64 time=0\n",
      "note_on channel=9 note=40 velocity=107 time=24\n",
      "note_off channel=9 note=40 velocity=64 time=0\n",
      "note_on channel=9 note=42 velocity=70 time=0\n",
      "note_off channel=9 note=42 velocity=64 time=0\n",
      "note_on channel=9 note=69 velocity=59 time=0\n",
      "note_off channel=9 note=69 velocity=64 time=0\n",
      "note_off channel=0 note=66 velocity=64 time=9\n",
      "note_off channel=6 note=57 velocity=64 time=9\n",
      "note_off channel=6 note=54 velocity=64 time=3\n",
      "note_off channel=6 note=61 velocity=64 time=2\n",
      "note_on channel=9 note=69 velocity=47 time=1\n",
      "note_off channel=9 note=69 velocity=64 time=0\n",
      "note_off channel=1 note=30 velocity=64 time=18\n",
      "<meta message lyrics text='you ' time=4>\n",
      "note_off channel=3 note=59 velocity=64 time=0\n",
      "note_on channel=3 note=61 velocity=106 time=0\n",
      "note_off channel=4 note=59 velocity=64 time=0\n",
      "note_on channel=4 note=61 velocity=53 time=0\n",
      "note_on channel=9 note=54 velocity=65 time=1\n",
      "note_off channel=9 note=54 velocity=64 time=0\n",
      "note_on channel=9 note=46 velocity=42 time=1\n",
      "note_off channel=9 note=46 velocity=64 time=0\n",
      "note_on channel=9 note=69 velocity=68 time=0\n",
      "note_off channel=9 note=69 velocity=64 time=0\n",
      "note_off channel=0 note=78 velocity=64 time=11\n",
      "note_off channel=0 note=81 velocity=64 time=5\n",
      "note_off channel=0 note=85 velocity=64 time=3\n",
      "note_on channel=9 note=69 velocity=41 time=5\n",
      "note_off channel=9 note=69 velocity=64 time=0\n",
      "note_on channel=9 note=54 velocity=49 time=0\n",
      "note_off channel=9 note=54 velocity=64 time=0\n",
      "note_off channel=0 note=90 velocity=64 time=2\n",
      "note_off channel=3 note=61 velocity=64 time=6\n",
      "note_on channel=9 note=36 velocity=111 time=15\n",
      "note_off channel=9 note=36 velocity=64 time=0\n",
      "note_on channel=9 note=42 velocity=54 time=0\n",
      "note_off channel=9 note=42 velocity=64 time=0\n",
      "note_on channel=1 note=35 velocity=97 time=0\n",
      "note_off channel=4 note=61 velocity=64 time=1\n",
      "note_on channel=9 note=69 velocity=38 time=0\n",
      "note_off channel=9 note=69 velocity=64 time=0\n",
      "note_on channel=0 note=64 velocity=96 time=0\n",
      "note_on channel=0 note=61 velocity=82 time=0\n",
      "note_on channel=0 note=57 velocity=83 time=0\n",
      "note_on channel=6 note=57 velocity=66 time=0\n",
      "note_on channel=6 note=61 velocity=72 time=0\n",
      "note_on channel=6 note=64 velocity=75 time=0\n",
      "note_off channel=7 note=54 velocity=64 time=0\n",
      "note_off channel=7 note=66 velocity=64 time=0\n",
      "note_on channel=7 note=57 velocity=70 time=0\n",
      "note_on channel=7 note=64 velocity=81 time=0\n",
      "note_on channel=7 note=61 velocity=74 time=0\n",
      "<meta message lyrics text='get ' time=1>\n",
      "note_on channel=3 note=61 velocity=108 time=0\n",
      "note_on channel=4 note=61 velocity=54 time=0\n",
      "note_on channel=9 note=42 velocity=40 time=22\n",
      "note_off channel=9 note=42 velocity=64 time=0\n",
      "note_on channel=9 note=69 velocity=41 time=0\n",
      "note_off channel=9 note=69 velocity=64 time=0\n",
      "note_on channel=9 note=46 velocity=43 time=24\n",
      "note_off channel=9 note=46 velocity=64 time=0\n",
      "note_on channel=9 note=69 velocity=48 time=0\n",
      "note_off channel=9 note=69 velocity=64 time=0\n",
      "note_on channel=9 note=54 velocity=44 time=0\n",
      "note_off channel=9 note=54 velocity=64 time=0\n",
      "note_off channel=1 note=35 velocity=64 time=9\n",
      "note_off channel=3 note=61 velocity=64 time=4\n",
      "note_off channel=6 note=64 velocity=64 time=4\n",
      "<meta message lyrics text='the ' time=5>\n",
      "note_on channel=3 note=62 velocity=102 time=0\n",
      "note_off channel=4 note=61 velocity=64 time=0\n",
      "note_on channel=4 note=62 velocity=51 time=0\n",
      "note_on channel=9 note=69 velocity=49 time=2\n",
      "note_off channel=9 note=69 velocity=64 time=0\n",
      "note_on channel=1 note=35 velocity=87 time=0\n",
      "note_off channel=0 note=64 velocity=64 time=0\n",
      "note_on channel=9 note=36 velocity=104 time=1\n",
      "note_off channel=9 note=36 velocity=64 time=0\n",
      "note_on channel=9 note=54 velocity=28 time=0\n",
      "note_off channel=9 note=54 velocity=64 time=0\n",
      "note_on channel=6 note=66 velocity=63 time=0\n",
      "note_off channel=7 note=64 velocity=64 time=0\n",
      "note_on channel=7 note=66 velocity=74 time=0\n",
      "note_on channel=7 note=62 velocity=84 time=0\n",
      "note_on channel=0 note=62 velocity=104 time=1\n",
      "note_off channel=6 note=61 velocity=64 time=0\n",
      "note_on channel=6 note=62 velocity=79 time=0\n",
      "note_on channel=0 note=66 velocity=79 time=1\n",
      "note_off channel=0 note=61 velocity=64 time=3\n",
      "note_off channel=6 note=62 velocity=64 time=8\n",
      "note_off channel=1 note=35 velocity=64 time=2\n",
      "note_off channel=6 note=66 velocity=64 time=1\n",
      "note_on channel=9 note=40 velocity=90 time=7\n",
      "note_off channel=9 note=40 velocity=64 time=0\n",
      "note_on channel=9 note=69 velocity=41 time=0\n",
      "note_off channel=9 note=69 velocity=64 time=0\n",
      "note_on channel=1 note=35 velocity=96 time=0\n",
      "note_on channel=9 note=42 velocity=52 time=1\n",
      "note_off channel=9 note=42 velocity=64 time=0\n",
      "note_off channel=7 note=61 velocity=64 time=0\n",
      "note_off channel=0 note=66 velocity=64 time=5\n",
      "note_off channel=0 note=62 velocity=64 time=2\n",
      "note_off channel=0 note=57 velocity=64 time=10\n",
      "note_off channel=6 note=57 velocity=64 time=2\n",
      "note_off channel=3 note=62 velocity=64 time=3\n",
      "note_on channel=9 note=69 velocity=47 time=1\n",
      "note_off channel=9 note=69 velocity=64 time=0\n",
      "note_off channel=1 note=35 velocity=64 time=0\n",
      "note_off channel=4 note=62 velocity=64 time=24\n",
      "note_on channel=9 note=54 velocity=56 time=0\n",
      "note_off channel=9 note=54 velocity=64 time=0\n",
      "note_on channel=1 note=35 velocity=91 time=0\n",
      "<meta message lyrics text='chance, ' time=1>\n",
      "<meta message lyrics text='\\r' time=0>\n",
      "note_on channel=3 note=62 velocity=107 time=0\n",
      "note_on channel=4 note=62 velocity=53 time=0\n",
      "note_on channel=9 note=36 velocity=98 time=0\n",
      "note_off channel=9 note=36 velocity=64 time=0\n",
      "note_on channel=9 note=46 velocity=41 time=0\n",
      "note_off channel=9 note=46 velocity=64 time=0\n",
      "note_on channel=9 note=69 velocity=62 time=0\n",
      "note_off channel=9 note=69 velocity=64 time=0\n",
      "note_on channel=0 note=66 velocity=101 time=0\n",
      "note_on channel=0 note=57 velocity=87 time=0\n",
      "note_on channel=0 note=62 velocity=101 time=0\n",
      "note_on channel=6 note=57 velocity=63 time=0\n",
      "note_on channel=6 note=66 velocity=74 time=0\n",
      "note_on channel=6 note=62 velocity=79 time=0\n",
      "note_on channel=9 note=69 velocity=48 time=24\n",
      "note_off channel=9 note=69 velocity=64 time=0\n",
      "note_on channel=9 note=54 velocity=32 time=0\n",
      "note_off channel=9 note=54 velocity=64 time=0\n",
      "note_on channel=9 note=36 velocity=110 time=24\n",
      "note_off channel=9 note=36 velocity=64 time=0\n",
      "note_on channel=9 note=42 velocity=59 time=0\n",
      "note_off channel=9 note=42 velocity=64 time=0\n",
      "note_on channel=9 note=69 velocity=36 time=0\n",
      "note_off channel=9 note=69 velocity=64 time=0\n",
      "note_off channel=1 note=35 velocity=64 time=20\n",
      "note_on channel=1 note=30 velocity=70 time=2\n",
      "note_on channel=9 note=69 velocity=48 time=2\n",
      "note_off channel=9 note=69 velocity=64 time=0\n",
      "note_off channel=1 note=30 velocity=64 time=20\n",
      "note_on channel=1 note=35 velocity=87 time=1\n",
      "note_on channel=9 note=54 velocity=53 time=2\n",
      "note_off channel=9 note=54 velocity=64 time=0\n",
      "note_on channel=9 note=46 velocity=45 time=1\n",
      "note_off channel=9 note=46 velocity=64 time=0\n",
      "note_on channel=9 note=69 velocity=62 time=0\n",
      "note_off channel=9 note=69 velocity=64 time=0\n",
      "note_off channel=1 note=35 velocity=64 time=22\n",
      "note_on channel=1 note=30 velocity=84 time=1\n",
      "note_on channel=9 note=69 velocity=52 time=1\n",
      "note_off channel=9 note=69 velocity=64 time=0\n",
      "note_on channel=9 note=54 velocity=47 time=0\n",
      "note_off channel=9 note=54 velocity=64 time=0\n",
      "note_off channel=6 note=62 velocity=64 time=16\n",
      "note_off channel=6 note=66 velocity=64 time=6\n",
      "note_on channel=9 note=42 velocity=54 time=1\n",
      "note_off channel=9 note=42 velocity=64 time=0\n",
      "note_off channel=1 note=30 velocity=64 time=0\n",
      "note_on channel=1 note=35 velocity=93 time=0\n",
      "note_off channel=6 note=57 velocity=64 time=0\n",
      "note_on channel=9 note=40 velocity=98 time=1\n",
      "note_off channel=9 note=40 velocity=64 time=0\n",
      "note_on channel=9 note=69 velocity=34 time=0\n",
      "note_off channel=9 note=69 velocity=64 time=0\n",
      "<meta message lyrics text='\\n' time=1>\n",
      "note_on channel=9 note=42 velocity=41 time=23\n",
      "note_off channel=9 note=42 velocity=64 time=0\n",
      "note_on channel=9 note=69 velocity=43 time=0\n",
      "note_off channel=9 note=69 velocity=64 time=0\n",
      "note_off channel=0 note=62 velocity=64 time=7\n",
      "note_off channel=0 note=57 velocity=64 time=3\n",
      "note_off channel=0 note=66 velocity=64 time=2\n",
      "note_off channel=1 note=35 velocity=64 time=11\n",
      "note_on channel=1 note=30 velocity=118 time=0\n",
      "note_on channel=9 note=46 velocity=49 time=1\n",
      "note_off channel=9 note=46 velocity=64 time=0\n",
      "note_on channel=9 note=69 velocity=63 time=0\n",
      "note_off channel=9 note=69 velocity=64 time=0\n",
      "note_on channel=9 note=54 velocity=78 time=0\n",
      "note_off channel=9 note=54 velocity=64 time=0\n",
      "note_off channel=3 note=62 velocity=64 time=21\n",
      "note_on channel=9 note=69 velocity=59 time=3\n",
      "note_off channel=9 note=69 velocity=64 time=0\n",
      "note_on channel=6 note=56 velocity=59 time=0\n",
      "note_on channel=9 note=54 velocity=31 time=1\n",
      "note_off channel=9 note=54 velocity=64 time=0\n",
      "note_off channel=1 note=30 velocity=64 time=19\n",
      "note_on channel=9 note=42 velocity=52 time=3\n",
      "note_off channel=9 note=42 velocity=64 time=0\n",
      "note_on channel=9 note=69 velocity=36 time=0\n",
      "note_off channel=9 note=69 velocity=64 time=0\n",
      "note_on channel=1 note=28 velocity=85 time=0\n",
      "note_on channel=6 note=64 velocity=81 time=0\n",
      "note_on channel=8 note=71 velocity=95 time=0\n",
      "note_on channel=9 note=36 velocity=107 time=1\n",
      "note_off channel=9 note=36 velocity=64 time=0\n",
      "note_on channel=0 note=64 velocity=93 time=0\n",
      "note_on channel=0 note=59 velocity=104 time=0\n",
      "note_on channel=0 note=56 velocity=79 time=0\n",
      "note_on channel=6 note=59 velocity=87 time=0\n",
      "note_off channel=7 note=57 velocity=64 time=0\n",
      "note_off channel=7 note=66 velocity=64 time=0\n",
      "note_off channel=7 note=62 velocity=64 time=0\n",
      "note_on channel=7 note=56 velocity=74 time=0\n",
      "note_on channel=7 note=64 velocity=76 time=0\n",
      "note_on channel=7 note=59 velocity=80 time=0\n",
      "note_on channel=9 note=42 velocity=40 time=23\n",
      "note_off channel=9 note=42 velocity=64 time=0\n",
      "note_on channel=9 note=69 velocity=44 time=1\n",
      "note_off channel=9 note=69 velocity=64 time=0\n",
      "note_on channel=8 note=73 velocity=85 time=2\n",
      "note_off channel=8 note=71 velocity=64 time=3\n",
      "note_off channel=6 note=64 velocity=64 time=4\n",
      "note_off channel=4 note=62 velocity=64 time=1\n",
      "note_off channel=8 note=73 velocity=64 time=7\n",
      "note_off channel=6 note=59 velocity=64 time=4\n",
      "note_on channel=9 note=46 velocity=45 time=2\n",
      "note_off channel=9 note=46 velocity=64 time=0\n",
      "note_on channel=9 note=69 velocity=71 time=1\n",
      "note_off channel=9 note=69 velocity=64 time=0\n",
      "note_on channel=9 note=54 velocity=70 time=0\n",
      "note_off channel=9 note=54 velocity=64 time=0\n",
      "note_off channel=6 note=56 velocity=64 time=2\n",
      "note_on channel=8 note=73 velocity=67 time=0\n",
      "note_off channel=1 note=28 velocity=64 time=1\n",
      "note_off channel=8 note=73 velocity=64 time=11\n",
      "note_on channel=9 note=69 velocity=44 time=9\n",
      "note_off channel=9 note=69 velocity=64 time=0\n",
      "note_on channel=1 note=28 velocity=83 time=0\n",
      "note_on channel=8 note=73 velocity=73 time=0\n",
      "note_on channel=9 note=36 velocity=94 time=1\n",
      "note_off channel=9 note=36 velocity=64 time=0\n",
      "note_on channel=6 note=59 velocity=72 time=0\n",
      "note_on channel=6 note=64 velocity=67 time=0\n",
      "note_on channel=6 note=56 velocity=58 time=0\n",
      "note_on channel=9 note=54 velocity=33 time=1\n",
      "note_off channel=9 note=54 velocity=64 time=0\n",
      "note_off channel=6 note=64 velocity=64 time=8\n",
      "note_off channel=1 note=28 velocity=64 time=3\n",
      "note_off channel=6 note=56 velocity=64 time=0\n",
      "note_off channel=6 note=59 velocity=64 time=0\n",
      "note_off channel=8 note=73 velocity=64 time=0\n",
      "note_on channel=8 note=73 velocity=85 time=10\n",
      "note_on channel=9 note=40 velocity=101 time=1\n",
      "note_off channel=9 note=40 velocity=64 time=0\n",
      "note_on channel=1 note=28 velocity=84 time=0\n",
      "note_on channel=9 note=42 velocity=49 time=1\n",
      "note_off channel=9 note=42 velocity=64 time=0\n",
      "note_on channel=9 note=69 velocity=40 time=0\n",
      "note_off channel=9 note=69 velocity=64 time=0\n",
      "note_off channel=8 note=73 velocity=64 time=21\n",
      "note_on channel=8 note=74 velocity=102 time=1\n",
      "note_off channel=1 note=28 velocity=64 time=1\n",
      "note_on channel=9 note=69 velocity=42 time=1\n",
      "note_off channel=9 note=69 velocity=64 time=0\n",
      "note_off channel=8 note=74 velocity=64 time=12\n",
      "note_on channel=1 note=28 velocity=84 time=10\n",
      "note_on channel=8 note=74 velocity=89 time=0\n",
      "note_on channel=9 note=36 velocity=104 time=2\n",
      "note_off channel=9 note=36 velocity=64 time=0\n",
      "note_on channel=9 note=46 velocity=43 time=0\n",
      "note_off channel=9 note=46 velocity=64 time=0\n",
      "note_on channel=9 note=69 velocity=66 time=0\n",
      "note_off channel=9 note=69 velocity=64 time=0\n",
      "note_on channel=9 note=54 velocity=70 time=0\n",
      "note_off channel=9 note=54 velocity=64 time=0\n",
      "note_on channel=6 note=59 velocity=77 time=1\n",
      "note_on channel=6 note=64 velocity=77 time=0\n",
      "note_on channel=6 note=56 velocity=60 time=0\n",
      "note_off channel=8 note=74 velocity=64 time=13\n",
      "note_on channel=8 note=74 velocity=83 time=6\n",
      "note_on channel=9 note=69 velocity=45 time=4\n",
      "note_off channel=9 note=69 velocity=64 time=0\n",
      "note_on channel=9 note=54 velocity=45 time=0\n",
      "note_off channel=9 note=54 velocity=64 time=0\n",
      "note_off channel=8 note=74 velocity=64 time=11\n",
      "note_on channel=8 note=74 velocity=92 time=12\n",
      "note_on channel=4 note=62 velocity=84 time=1\n",
      "note_on channel=4 note=64 velocity=107 time=0\n",
      "note_on channel=9 note=36 velocity=107 time=0\n",
      "note_off channel=9 note=36 velocity=64 time=0\n",
      "note_on channel=9 note=42 velocity=59 time=0\n",
      "note_off channel=9 note=42 velocity=64 time=0\n",
      "note_on channel=9 note=69 velocity=36 time=0\n",
      "note_off channel=9 note=69 velocity=64 time=0\n",
      "<meta message lyrics text='you ' time=1>\n",
      "note_on channel=3 note=64 velocity=107 time=0\n",
      "note_off channel=1 note=28 velocity=64 time=2\n",
      "note_off channel=8 note=74 velocity=64 time=17\n",
      "note_on channel=8 note=76 velocity=83 time=1\n",
      "note_on channel=9 note=69 velocity=41 time=3\n",
      "note_off channel=9 note=69 velocity=64 time=0\n",
      "note_on channel=1 note=28 velocity=79 time=0\n",
      "note_off channel=8 note=76 velocity=64 time=9\n",
      "note_off channel=1 note=28 velocity=64 time=11\n",
      "note_on channel=1 note=30 velocity=87 time=2\n",
      "note_on channel=8 note=76 velocity=87 time=0\n",
      "note_on channel=9 note=54 velocity=68 time=1\n",
      "note_off channel=9 note=54 velocity=64 time=0\n",
      "note_on channel=9 note=46 velocity=45 time=1\n",
      "note_off channel=9 note=46 velocity=64 time=0\n",
      "note_on channel=9 note=69 velocity=71 time=0\n",
      "note_off channel=9 note=69 velocity=64 time=0\n",
      "note_off channel=8 note=76 velocity=64 time=18\n",
      "note_on channel=8 note=78 velocity=78 time=1\n",
      "note_off channel=4 note=62 velocity=64 time=4\n",
      "note_on channel=9 note=69 velocity=52 time=0\n",
      "note_off channel=9 note=69 velocity=64 time=0\n",
      "note_off channel=4 note=64 velocity=64 time=1\n",
      "note_on channel=4 note=62 velocity=84 time=0\n",
      "note_on channel=4 note=66 velocity=109 time=0\n",
      "note_on channel=9 note=54 velocity=40 time=0\n",
      "note_off channel=9 note=54 velocity=64 time=0\n",
      "<meta message lyrics text='are ' time=1>\n",
      "note_off channel=3 note=64 velocity=64 time=0\n",
      "note_on channel=3 note=66 velocity=109 time=0\n",
      "note_off channel=8 note=78 velocity=64 time=8\n",
      "note_on channel=8 note=78 velocity=90 time=12\n",
      "note_on channel=9 note=42 velocity=54 time=2\n",
      "note_off channel=9 note=42 velocity=64 time=0\n",
      "note_off channel=1 note=30 velocity=64 time=0\n",
      "note_on channel=9 note=40 velocity=102 time=1\n",
      "note_off channel=9 note=40 velocity=64 time=0\n",
      "note_on channel=9 note=69 velocity=56 time=0\n",
      "note_off channel=9 note=69 velocity=64 time=0\n",
      "note_on channel=1 note=32 velocity=103 time=0\n",
      "note_off channel=6 note=56 velocity=64 time=5\n",
      "note_off channel=6 note=59 velocity=64 time=0\n",
      "note_off channel=6 note=64 velocity=64 time=2\n",
      "note_off channel=8 note=78 velocity=64 time=12\n",
      "note_on channel=8 note=80 velocity=65 time=1\n",
      "note_on channel=9 note=42 velocity=40 time=3\n",
      "note_off channel=9 note=42 velocity=64 time=0\n",
      "note_on channel=9 note=69 velocity=44 time=0\n",
      "note_off channel=9 note=69 velocity=64 time=0\n",
      "note_off channel=0 note=56 velocity=64 time=0\n",
      "note_off channel=0 note=59 velocity=64 time=1\n",
      "note_off channel=0 note=64 velocity=64 time=1\n",
      "note_off channel=8 note=80 velocity=64 time=12\n",
      "note_off channel=1 note=32 velocity=64 time=7\n",
      "note_off channel=3 note=66 velocity=64 time=1\n",
      "note_on channel=8 note=80 velocity=73 time=0\n",
      "note_off channel=4 note=62 velocity=64 time=2\n",
      "note_on channel=9 note=69 velocity=69 time=0\n",
      "note_off channel=9 note=69 velocity=64 time=0\n",
      "note_on channel=9 note=54 velocity=68 time=0\n",
      "note_off channel=9 note=54 velocity=64 time=0\n",
      "note_on channel=1 note=28 velocity=84 time=0\n",
      "<meta message lyrics text='the ' time=1>\n",
      "note_on channel=3 note=68 velocity=102 time=0\n",
      "note_off channel=4 note=66 velocity=64 time=0\n",
      "note_on channel=4 note=62 velocity=85 time=0\n",
      "note_on channel=4 note=68 velocity=102 time=0\n",
      "note_on channel=9 note=46 velocity=47 time=0\n",
      "note_off channel=9 note=46 velocity=64 time=0\n",
      "note_off channel=8 note=80 velocity=64 time=11\n",
      "note_on channel=8 note=80 velocity=73 time=9\n",
      "note_on channel=9 note=69 velocity=49 time=3\n",
      "note_off channel=9 note=69 velocity=64 time=0\n",
      "note_on channel=9 note=54 velocity=33 time=1\n",
      "note_off channel=9 note=54 velocity=64 time=0\n",
      "note_off channel=3 note=68 velocity=64 time=9\n",
      "note_off channel=8 note=80 velocity=64 time=9\n",
      "note_off channel=4 note=68 velocity=64 time=5\n",
      "note_off channel=4 note=62 velocity=64 time=0\n",
      "note_off channel=1 note=28 velocity=64 time=0\n",
      "note_on channel=8 note=80 velocity=67 time=0\n",
      "note_off channel=7 note=59 velocity=64 time=0\n",
      "note_off channel=7 note=64 velocity=64 time=0\n",
      "note_off channel=7 note=56 velocity=64 time=0\n",
      "note_on channel=4 note=62 velocity=85 time=1\n",
      "note_on channel=4 note=68 velocity=107 time=0\n",
      "note_on channel=9 note=36 velocity=112 time=0\n",
      "note_off channel=9 note=36 velocity=64 time=0\n",
      "note_on channel=9 note=42 velocity=62 time=0\n",
      "note_off channel=9 note=42 velocity=64 time=0\n",
      "note_on channel=9 note=69 velocity=38 time=0\n",
      "note_off channel=9 note=69 velocity=64 time=0\n",
      "note_on channel=1 note=33 velocity=100 time=0\n",
      "note_on channel=0 note=56 velocity=77 time=0\n",
      "note_on channel=0 note=59 velocity=96 time=0\n",
      "note_on channel=0 note=64 velocity=85 time=0\n",
      "note_on channel=6 note=57 velocity=67 time=0\n",
      "note_on channel=10 note=52 velocity=59 time=0\n",
      "note_on channel=7 note=56 velocity=75 time=0\n",
      "note_on channel=7 note=64 velocity=84 time=0\n",
      "note_on channel=7 note=59 velocity=77 time=0\n",
      "<meta message lyrics text='danc' time=1>\n",
      "note_on channel=3 note=68 velocity=107 time=0\n",
      "note_on channel=6 note=68 velocity=74 time=21\n",
      "note_on channel=6 note=64 velocity=73 time=0\n",
      "note_on channel=9 note=69 velocity=41 time=1\n",
      "note_off channel=9 note=69 velocity=64 time=0\n",
      "note_on channel=9 note=42 velocity=47 time=1\n",
      "note_off channel=9 note=42 velocity=64 time=0\n",
      "note_on channel=10 note=59 velocity=60 time=1\n",
      "note_on channel=10 note=57 velocity=63 time=0\n",
      "note_off channel=6 note=57 velocity=64 time=7\n",
      "note_off channel=6 note=64 velocity=64 time=1\n",
      "note_off channel=10 note=52 velocity=64 time=3\n",
      "note_off channel=10 note=57 velocity=64 time=1\n",
      "note_off channel=10 note=59 velocity=64 time=0\n",
      "note_off channel=6 note=68 velocity=64 time=4\n",
      "note_on channel=6 note=68 velocity=62 time=5\n",
      "note_on channel=9 note=46 velocity=56 time=1\n",
      "note_off channel=9 note=46 velocity=64 time=0\n",
      "note_on channel=9 note=69 velocity=48 time=0\n",
      "note_off channel=9 note=69 velocity=64 time=0\n",
      "note_on channel=6 note=64 velocity=74 time=0\n",
      "note_on channel=10 note=57 velocity=58 time=1\n",
      "note_on channel=10 note=59 velocity=62 time=0\n",
      "note_off channel=1 note=33 velocity=64 time=4\n",
      "note_off channel=0 note=56 velocity=64 time=11\n",
      "note_off channel=3 note=68 velocity=64 time=2\n",
      "note_off channel=0 note=59 velocity=64 time=2\n",
      "note_on channel=9 note=69 velocity=49 time=4\n",
      "note_off channel=9 note=69 velocity=64 time=0\n",
      "note_on channel=6 note=57 velocity=62 time=0\n",
      "note_off channel=4 note=68 velocity=64 time=1\n",
      "note_off channel=4 note=62 velocity=64 time=0\n",
      "note_on channel=4 note=61 velocity=85 time=0\n",
      "note_on channel=4 note=69 velocity=103 time=0\n",
      "note_on channel=9 note=36 velocity=102 time=0\n",
      "note_off channel=9 note=36 velocity=64 time=0\n",
      "note_on channel=1 note=33 velocity=86 time=0\n",
      "note_on channel=10 note=52 velocity=53 time=0\n",
      "note_off channel=7 note=59 velocity=64 time=0\n",
      "note_off channel=7 note=56 velocity=64 time=0\n",
      "note_on channel=7 note=61 velocity=70 time=0\n",
      "note_on channel=7 note=57 velocity=85 time=0\n",
      "<meta message lyrics text='ing ' time=1>\n",
      "note_on channel=3 note=69 velocity=103 time=0\n",
      "note_on channel=0 note=57 velocity=91 time=0\n",
      "note_off channel=8 note=80 velocity=64 time=0\n",
      "note_on channel=0 note=61 velocity=75 time=1\n",
      "note_on channel=8 note=81 velocity=87 time=0\n",
      "note_off channel=10 note=57 velocity=64 time=1\n",
      "note_off channel=10 note=59 velocity=64 time=1\n",
      "note_off channel=6 note=68 velocity=64 time=2\n",
      "note_off channel=6 note=64 velocity=64 time=1\n",
      "note_off channel=1 note=33 velocity=64 time=5\n",
      "note_off channel=6 note=57 velocity=64 time=4\n",
      "note_off channel=10 note=52 velocity=64 time=5\n",
      "note_off channel=0 note=61 velocity=64 time=1\n",
      "note_on channel=9 note=40 velocity=102 time=1\n",
      "note_off channel=9 note=40 velocity=64 time=0\n",
      "note_on channel=9 note=42 velocity=54 time=0\n",
      "note_off channel=9 note=42 velocity=64 time=0\n",
      "note_on channel=9 note=69 velocity=41 time=0\n",
      "note_off channel=9 note=69 velocity=64 time=0\n",
      "note_on channel=1 note=33 velocity=87 time=0\n",
      "note_on channel=6 note=68 velocity=67 time=1\n",
      "note_on channel=6 note=64 velocity=75 time=0\n",
      "note_on channel=10 note=59 velocity=55 time=0\n",
      "note_on channel=10 note=57 velocity=60 time=0\n",
      "note_off channel=0 note=57 velocity=64 time=1\n",
      "note_off channel=0 note=64 velocity=64 time=2\n",
      "note_off channel=6 note=68 velocity=64 time=17\n",
      "note_off channel=3 note=69 velocity=64 time=2\n",
      "note_on channel=9 note=69 velocity=47 time=1\n",
      "note_off channel=9 note=69 velocity=64 time=0\n",
      "note_off channel=10 note=57 velocity=64 time=1\n",
      "note_on channel=10 note=52 velocity=60 time=0\n",
      "note_on channel=6 note=57 velocity=54 time=1\n",
      "note_off channel=10 note=59 velocity=64 time=0\n",
      "note_off channel=6 note=64 velocity=64 time=1\n",
      "note_off channel=1 note=33 velocity=64 time=5\n",
      "note_off channel=8 note=81 velocity=64 time=8\n",
      "note_off channel=6 note=57 velocity=64 time=2\n",
      "note_off channel=10 note=52 velocity=64 time=2\n",
      "note_off channel=4 note=69 velocity=64 time=4\n",
      "note_off channel=4 note=61 velocity=64 time=0\n",
      "note_on channel=9 note=46 velocity=49 time=0\n",
      "note_off channel=9 note=46 velocity=64 time=0\n",
      "note_on channel=1 note=33 velocity=84 time=0\n",
      "note_on channel=4 note=61 velocity=85 time=1\n",
      "note_on channel=4 note=69 velocity=108 time=0\n",
      "note_on channel=9 note=36 velocity=104 time=0\n",
      "note_off channel=9 note=36 velocity=64 time=0\n",
      "note_on channel=9 note=69 velocity=62 time=0\n",
      "note_off channel=9 note=69 velocity=64 time=0\n",
      "note_on channel=0 note=57 velocity=89 time=0\n",
      "note_on channel=0 note=61 velocity=87 time=0\n",
      "note_on channel=0 note=64 velocity=89 time=0\n",
      "note_on channel=6 note=69 velocity=74 time=0\n",
      "note_on channel=10 note=61 velocity=63 time=0\n",
      "note_on channel=10 note=57 velocity=69 time=0\n",
      "<meta message lyrics text='queen, ' time=1>\n",
      "<meta message lyrics text='\\r' time=0>\n",
      "note_on channel=3 note=69 velocity=108 time=0\n",
      "note_on channel=6 note=64 velocity=81 time=0\n",
      "note_on channel=8 note=81 velocity=81 time=6\n",
      "note_off channel=10 note=57 velocity=64 time=9\n",
      "note_off channel=6 note=64 velocity=64 time=1\n",
      "note_off channel=6 note=69 velocity=64 time=2\n",
      "note_on channel=10 note=57 velocity=51 time=4\n",
      "note_on channel=9 note=69 velocity=48 time=1\n",
      "note_off channel=9 note=69 velocity=64 time=0\n",
      "note_on channel=6 note=69 velocity=49 time=0\n",
      "note_on channel=6 note=64 velocity=72 time=1\n",
      "note_off channel=1 note=33 velocity=64 time=21\n",
      "note_on channel=9 note=36 velocity=110 time=2\n",
      "note_off channel=9 note=36 velocity=64 time=0\n",
      "note_on channel=9 note=42 velocity=46 time=0\n",
      "note_off channel=9 note=42 velocity=64 time=0\n",
      "note_on channel=9 note=69 velocity=36 time=0\n",
      "note_off channel=9 note=69 velocity=64 time=0\n",
      "note_off channel=10 note=61 velocity=64 time=0\n",
      "note_on channel=10 note=52 velocity=59 time=0\n",
      "note_on channel=6 note=57 velocity=61 time=1\n",
      "note_off channel=6 note=69 velocity=64 time=1\n",
      "note_off channel=10 note=57 velocity=64 time=2\n",
      "note_off channel=6 note=64 velocity=64 time=1\n",
      "note_off channel=10 note=52 velocity=64 time=6\n",
      "note_off channel=6 note=57 velocity=64 time=4\n",
      "note_on channel=10 note=57 velocity=62 time=7\n",
      "note_on channel=10 note=61 velocity=60 time=0\n",
      "note_on channel=1 note=33 velocity=89 time=1\n",
      "note_on channel=9 note=69 velocity=48 time=1\n",
      "note_off channel=9 note=69 velocity=64 time=0\n",
      "note_on channel=6 note=69 velocity=72 time=0\n",
      "note_on channel=6 note=64 velocity=76 time=1\n",
      "note_off channel=10 note=61 velocity=64 time=11\n",
      "note_off channel=6 note=64 velocity=64 time=3\n",
      "note_off channel=10 note=57 velocity=64 time=2\n",
      "note_off channel=1 note=33 velocity=64 time=2\n",
      "note_on channel=10 note=57 velocity=58 time=2\n",
      "note_on channel=1 note=40 velocity=73 time=1\n",
      "note_on channel=10 note=61 velocity=61 time=0\n",
      "note_on channel=6 note=64 velocity=61 time=1\n",
      "note_on channel=9 note=46 velocity=53 time=1\n",
      "note_off channel=9 note=46 velocity=64 time=0\n",
      "note_on channel=9 note=69 velocity=62 time=0\n",
      "note_off channel=9 note=69 velocity=64 time=0\n",
      "note_off channel=0 note=64 velocity=64 time=19\n",
      "note_off channel=0 note=61 velocity=64 time=0\n",
      "note_off channel=0 note=57 velocity=64 time=0\n",
      "note_off channel=1 note=40 velocity=64 time=3\n",
      "note_on channel=1 note=42 velocity=72 time=1\n",
      "note_on channel=9 note=69 velocity=52 time=1\n",
      "note_off channel=9 note=69 velocity=64 time=0\n",
      "note_on channel=0 note=93 velocity=82 time=1\n",
      "note_on channel=0 note=88 velocity=114 time=0\n",
      "note_on channel=6 note=57 velocity=67 time=0\n",
      "note_on channel=10 note=52 velocity=63 time=0\n",
      "note_on channel=0 note=85 velocity=101 time=1\n",
      "note_off channel=6 note=64 velocity=64 time=6\n",
      "note_off channel=6 note=69 velocity=64 time=0\n",
      "note_off channel=10 note=57 velocity=64 time=0\n",
      "note_off channel=10 note=61 velocity=64 time=2\n",
      "note_off channel=0 note=85 velocity=64 time=2\n",
      "note_off channel=0 note=88 velocity=64 time=0\n",
      "note_off channel=10 note=52 velocity=64 time=0\n",
      "note_off channel=0 note=93 velocity=64 time=3\n",
      "note_off channel=6 note=57 velocity=64 time=3\n",
      "note_off channel=1 note=42 velocity=64 time=2\n",
      "note_on channel=1 note=45 velocity=82 time=3\n",
      "note_on channel=10 note=57 velocity=62 time=0\n",
      "note_on channel=10 note=61 velocity=62 time=0\n",
      "note_on channel=9 note=40 velocity=110 time=1\n",
      "note_off channel=9 note=40 velocity=64 time=0\n",
      "note_on channel=9 note=42 velocity=56 time=0\n",
      "note_off channel=9 note=42 velocity=64 time=0\n",
      "note_on channel=9 note=69 velocity=34 time=0\n",
      "note_off channel=9 note=69 velocity=64 time=0\n",
      "note_on channel=6 note=64 velocity=69 time=0\n",
      "note_on channel=0 note=93 velocity=75 time=1\n",
      "note_on channel=0 note=85 velocity=91 time=0\n",
      "note_on channel=0 note=88 velocity=110 time=0\n",
      "note_on channel=6 note=69 velocity=68 time=0\n",
      "note_off channel=3 note=69 velocity=64 time=22\n",
      "note_on channel=9 note=69 velocity=43 time=1\n",
      "note_off channel=9 note=69 velocity=64 time=0\n",
      "note_off channel=6 note=64 velocity=64 time=3\n",
      "note_off channel=6 note=69 velocity=64 time=13\n",
      "note_off channel=10 note=57 velocity=64 time=4\n",
      "note_on channel=9 note=46 velocity=45 time=4\n",
      "note_off channel=9 note=46 velocity=64 time=0\n",
      "note_on channel=9 note=69 velocity=63 time=0\n",
      "note_off channel=9 note=69 velocity=64 time=0\n",
      "note_off channel=10 note=61 velocity=64 time=2\n",
      "note_on channel=9 note=69 velocity=59 time=22\n",
      "note_off channel=9 note=69 velocity=64 time=0\n",
      "note_off channel=0 note=88 velocity=64 time=16\n",
      "note_off channel=0 note=85 velocity=64 time=2\n",
      "note_off channel=0 note=93 velocity=64 time=1\n",
      "note_off channel=8 note=81 velocity=64 time=1\n",
      "note_on channel=8 note=80 velocity=71 time=1\n",
      "note_on channel=9 note=36 velocity=104 time=2\n",
      "note_off channel=9 note=36 velocity=64 time=0\n",
      "note_on channel=9 note=42 velocity=70 time=0\n",
      "note_off channel=9 note=42 velocity=64 time=0\n",
      "note_on channel=9 note=69 velocity=36 time=0\n",
      "note_off channel=9 note=69 velocity=64 time=0\n",
      "note_off channel=1 note=45 velocity=64 time=0\n",
      "note_on channel=1 note=33 velocity=96 time=0\n",
      "note_on channel=6 note=57 velocity=64 time=0\n",
      "note_on channel=10 note=54 velocity=58 time=0\n",
      "<meta message lyrics text='young ' time=1>\n",
      "note_on channel=3 note=68 velocity=107 time=0\n",
      "note_off channel=4 note=69 velocity=64 time=0\n",
      "note_off channel=4 note=61 velocity=64 time=0\n",
      "note_on channel=4 note=62 velocity=87 time=0\n",
      "note_on channel=4 note=68 velocity=107 time=0\n",
      "note_on channel=0 note=57 velocity=81 time=0\n",
      "note_on channel=0 note=66 velocity=78 time=0\n",
      "note_on channel=0 note=62 velocity=92 time=0\n",
      "note_off channel=7 note=61 velocity=64 time=0\n",
      "note_off channel=7 note=64 velocity=64 time=0\n",
      "note_on channel=7 note=66 velocity=73 time=0\n",
      "note_on channel=7 note=62 velocity=81 time=0\n",
      "note_on channel=6 note=66 velocity=77 time=22\n",
      "note_on channel=6 note=69 velocity=62 time=1\n",
      "note_on channel=9 note=42 velocity=45 time=1\n",
      "note_off channel=9 note=42 velocity=64 time=0\n",
      "note_on channel=9 note=69 velocity=44 time=0\n",
      "note_off channel=9 note=69 velocity=64 time=0\n",
      "note_on channel=10 note=57 velocity=68 time=0\n",
      "note_on channel=10 note=62 velocity=69 time=0\n",
      "note_off channel=6 note=57 velocity=64 time=1\n",
      "note_off channel=10 note=54 velocity=64 time=2\n",
      "note_off channel=6 note=69 velocity=64 time=6\n",
      "note_off channel=6 note=66 velocity=64 time=1\n",
      "note_off channel=10 note=57 velocity=64 time=4\n",
      "note_on channel=6 note=69 velocity=64 time=8\n",
      "note_on channel=6 note=66 velocity=81 time=1\n",
      "note_on channel=10 note=57 velocity=59 time=0\n",
      "note_on channel=9 note=46 velocity=46 time=1\n",
      "note_off channel=9 note=46 velocity=64 time=0\n",
      "note_on channel=9 note=69 velocity=71 time=0\n",
      "note_off channel=9 note=69 velocity=64 time=0\n",
      "note_off channel=1 note=33 velocity=64 time=3\n",
      "note_off channel=0 note=57 velocity=64 time=5\n",
      "note_off channel=0 note=62 velocity=64 time=3\n",
      "note_off channel=0 note=66 velocity=64 time=2\n",
      "note_off channel=3 note=68 velocity=64 time=4\n",
      "note_off channel=8 note=80 velocity=64 time=2\n",
      "note_on channel=8 note=81 velocity=88 time=1\n",
      "note_off channel=4 note=62 velocity=64 time=3\n",
      "note_on channel=9 note=69 velocity=44 time=0\n",
      "note_off channel=9 note=69 velocity=64 time=0\n",
      "note_on channel=1 note=33 velocity=105 time=0\n",
      "note_on channel=6 note=57 velocity=60 time=0\n",
      "note_on channel=10 note=54 velocity=54 time=0\n",
      "<meta message lyrics text='and ' time=1>\n",
      "note_on channel=3 note=69 velocity=104 time=0\n",
      "note_off channel=4 note=68 velocity=64 time=0\n",
      "note_on channel=4 note=62 velocity=87 time=0\n",
      "note_on channel=4 note=69 velocity=104 time=0\n",
      "note_on channel=9 note=36 velocity=107 time=0\n",
      "note_off channel=9 note=36 velocity=64 time=0\n",
      "note_on channel=0 note=62 velocity=92 time=1\n",
      "note_on channel=0 note=57 velocity=82 time=0\n",
      "note_on channel=0 note=66 velocity=71 time=0\n",
      "note_off channel=6 note=66 velocity=64 time=0\n",
      "note_off channel=10 note=62 velocity=64 time=0\n",
      "note_off channel=10 note=57 velocity=64 time=2\n",
      "note_off channel=6 note=69 velocity=64 time=2\n",
      "note_off channel=10 note=54 velocity=64 time=9\n",
      "note_off channel=1 note=33 velocity=64 time=1\n",
      "note_off channel=6 note=57 velocity=64 time=3\n",
      "note_off channel=0 note=62 velocity=64 time=1\n",
      "note_off channel=0 note=57 velocity=64 time=1\n",
      "note_off channel=0 note=66 velocity=64 time=1\n",
      "note_on channel=6 note=66 velocity=71 time=1\n",
      "note_on channel=10 note=57 velocity=62 time=0\n",
      "note_on channel=9 note=40 velocity=101 time=1\n",
      "note_off channel=9 note=40 velocity=64 time=0\n",
      "note_on channel=1 note=33 velocity=89 time=0\n",
      "note_on channel=6 note=69 velocity=62 time=0\n",
      "note_on channel=10 note=62 velocity=58 time=0\n",
      "note_on channel=9 note=42 velocity=54 time=1\n",
      "note_off channel=9 note=42 velocity=64 time=0\n",
      "note_on channel=9 note=69 velocity=40 time=0\n",
      "note_off channel=9 note=69 velocity=64 time=0\n",
      "note_off channel=3 note=69 velocity=64 time=8\n",
      "note_off channel=6 note=69 velocity=64 time=10\n",
      "note_off channel=6 note=66 velocity=64 time=2\n",
      "note_off channel=10 note=62 velocity=64 time=1\n",
      "note_on channel=6 note=57 velocity=63 time=2\n",
      "note_on channel=10 note=54 velocity=47 time=0\n",
      "note_on channel=9 note=69 velocity=42 time=1\n",
      "note_off channel=9 note=69 velocity=64 time=0\n",
      "note_off channel=10 note=57 velocity=64 time=2\n",
      "note_off channel=1 note=33 velocity=64 time=1\n",
      "note_off channel=8 note=81 velocity=64 time=4\n",
      "note_off channel=10 note=54 velocity=64 time=8\n",
      "note_off channel=6 note=57 velocity=64 time=1\n",
      "note_on channel=1 note=33 velocity=95 time=6\n",
      "<meta message lyrics text='sweet, ' time=1>\n",
      "note_on channel=3 note=69 velocity=108 time=0\n",
      "note_off channel=4 note=69 velocity=64 time=0\n",
      "note_off channel=4 note=62 velocity=64 time=0\n",
      "note_on channel=6 note=66 velocity=71 time=0\n",
      "note_on channel=10 note=62 velocity=76 time=0\n",
      "note_on channel=10 note=57 velocity=63 time=0\n",
      "note_on channel=4 note=69 velocity=108 time=1\n",
      "note_on channel=4 note=62 velocity=87 time=0\n",
      "note_on channel=9 note=36 velocity=101 time=0\n",
      "note_off channel=9 note=36 velocity=64 time=0\n",
      "note_on channel=9 note=46 velocity=40 time=0\n",
      "note_off channel=9 note=46 velocity=64 time=0\n",
      "note_on channel=9 note=69 velocity=66 time=0\n",
      "note_off channel=9 note=69 velocity=64 time=0\n",
      "note_on channel=0 note=57 velocity=89 time=0\n",
      "note_on channel=0 note=66 velocity=80 time=0\n",
      "note_on channel=0 note=62 velocity=99 time=0\n",
      "note_on channel=6 note=69 velocity=63 time=0\n",
      "note_on channel=8 note=81 velocity=79 time=0\n",
      "note_off channel=6 note=69 velocity=64 time=13\n",
      "note_off channel=6 note=66 velocity=64 time=4\n",
      "note_on channel=6 note=66 velocity=53 time=6\n",
      "note_on channel=9 note=69 velocity=45 time=1\n",
      "note_off channel=9 note=69 velocity=64 time=0\n",
      "note_on channel=6 note=69 velocity=59 time=0\n",
      "note_off channel=1 note=33 velocity=64 time=18\n",
      "note_off channel=10 note=62 velocity=64 time=3\n",
      "note_on channel=10 note=54 velocity=54 time=2\n",
      "note_on channel=9 note=36 velocity=101 time=1\n",
      "note_off channel=9 note=36 velocity=64 time=0\n",
      "note_on channel=9 note=42 velocity=54 time=0\n",
      "note_off channel=9 note=42 velocity=64 time=0\n",
      "note_on channel=9 note=69 velocity=36 time=0\n",
      "note_off channel=9 note=69 velocity=64 time=0\n",
      "note_off channel=6 note=69 velocity=64 time=0\n",
      "note_on channel=6 note=57 velocity=61 time=0\n",
      "note_off channel=10 note=57 velocity=64 time=0\n",
      "note_off channel=6 note=66 velocity=64 time=1\n",
      "note_off channel=10 note=54 velocity=64 time=8\n",
      "note_off channel=6 note=57 velocity=64 time=7\n",
      "note_on channel=1 note=33 velocity=76 time=6\n",
      "note_on channel=6 note=69 velocity=63 time=0\n",
      "note_on channel=9 note=40 velocity=94 time=1\n",
      "note_off channel=9 note=40 velocity=64 time=0\n",
      "note_on channel=6 note=66 velocity=68 time=0\n",
      "note_on channel=10 note=57 velocity=60 time=0\n",
      "note_on channel=9 note=69 velocity=41 time=1\n",
      "note_off channel=9 note=69 velocity=64 time=0\n",
      "note_on channel=10 note=62 velocity=74 time=0\n",
      "note_off channel=3 note=69 velocity=64 time=13\n",
      "note_off channel=10 note=57 velocity=64 time=2\n",
      "note_off channel=8 note=81 velocity=64 time=3\n",
      "note_off channel=1 note=33 velocity=64 time=2\n",
      "note_on channel=8 note=83 velocity=81 time=0\n",
      "note_on channel=1 note=28 velocity=69 time=1\n",
      "<meta message lyrics text='on' time=1>\n",
      "note_on channel=3 note=71 velocity=105 time=0\n",
      "note_off channel=4 note=62 velocity=64 time=1\n",
      "note_on channel=10 note=57 velocity=60 time=0\n",
      "note_off channel=4 note=69 velocity=64 time=1\n",
      "note_on channel=4 note=71 velocity=105 time=0\n",
      "note_on channel=4 note=62 velocity=87 time=0\n",
      "note_on channel=9 note=69 velocity=71 time=0\n",
      "note_off channel=9 note=69 velocity=64 time=0\n",
      "note_off channel=0 note=62 velocity=64 time=3\n",
      "note_off channel=0 note=57 velocity=64 time=0\n",
      "note_off channel=0 note=66 velocity=64 time=4\n",
      "note_off channel=1 note=28 velocity=64 time=14\n",
      "note_on channel=1 note=29 velocity=78 time=0\n",
      "note_on channel=9 note=69 velocity=52 time=2\n",
      "note_off channel=9 note=69 velocity=64 time=0\n",
      "note_off channel=6 note=69 velocity=64 time=0\n",
      "note_on channel=0 note=90 velocity=114 time=1\n",
      "note_on channel=0 note=93 velocity=83 time=0\n",
      "note_on channel=0 note=86 velocity=104 time=0\n",
      "note_on channel=6 note=57 velocity=58 time=1\n",
      "note_off channel=10 note=62 velocity=64 time=0\n",
      "note_on channel=10 note=54 velocity=61 time=0\n",
      "note_off channel=6 note=66 velocity=64 time=2\n",
      "note_off channel=10 note=57 velocity=64 time=6\n",
      "note_off channel=0 note=86 velocity=64 time=2\n",
      "note_off channel=0 note=90 velocity=64 time=1\n",
      "note_off channel=0 note=93 velocity=64 time=1\n",
      "note_off channel=10 note=54 velocity=64 time=5\n",
      "note_on channel=9 note=42 velocity=70 time=4\n",
      "note_off channel=9 note=42 velocity=64 time=0\n",
      "note_off channel=1 note=29 velocity=64 time=0\n",
      "note_on channel=1 note=30 velocity=118 time=1\n",
      "note_on channel=6 note=66 velocity=74 time=0\n",
      "note_on channel=6 note=69 velocity=68 time=0\n",
      "note_on channel=9 note=40 velocity=111 time=1\n",
      "note_off channel=9 note=40 velocity=64 time=0\n",
      "note_on channel=0 note=93 velocity=91 time=0\n",
      "note_on channel=0 note=86 velocity=99 time=0\n",
      "note_on channel=0 note=90 velocity=91 time=0\n",
      "note_on channel=10 note=57 velocity=64 time=0\n",
      "note_on channel=10 note=62 velocity=76 time=0\n",
      "note_off channel=6 note=57 velocity=64 time=3\n",
      "note_off channel=1 note=30 velocity=64 time=8\n",
      "note_on channel=9 note=69 velocity=44 time=12\n",
      "note_off channel=9 note=69 velocity=64 time=0\n",
      "note_on channel=1 note=30 velocity=87 time=0\n",
      "note_off channel=10 note=62 velocity=64 time=1\n",
      "note_on channel=10 note=54 velocity=61 time=0\n",
      "note_off channel=6 note=69 velocity=64 time=3\n",
      "note_off channel=6 note=66 velocity=64 time=1\n",
      "note_off channel=10 note=57 velocity=64 time=0\n",
      "note_off channel=10 note=54 velocity=64 time=8\n",
      "note_off channel=3 note=71 velocity=64 time=10\n",
      "note_off channel=1 note=30 velocity=64 time=0\n",
      "<meta message lyrics text='ly ' time=1>\n",
      "note_on channel=3 note=69 velocity=107 time=0\n",
      "note_off channel=4 note=62 velocity=64 time=0\n",
      "note_on channel=9 note=46 velocity=53 time=0\n",
      "note_off channel=9 note=46 velocity=64 time=0\n",
      "note_on channel=9 note=69 velocity=69 time=0\n",
      "note_off channel=9 note=69 velocity=64 time=0\n",
      "note_on channel=1 note=33 velocity=77 time=0\n",
      "note_off channel=4 note=71 velocity=64 time=1\n",
      "note_on channel=4 note=69 velocity=107 time=0\n",
      "note_on channel=4 note=62 velocity=79 time=0\n",
      "note_on channel=6 note=69 velocity=63 time=0\n",
      "note_on channel=6 note=66 velocity=72 time=0\n",
      "note_on channel=10 note=57 velocity=61 time=0\n",
      "note_on channel=10 note=62 velocity=65 time=0\n",
      "note_off channel=8 note=83 velocity=64 time=3\n",
      "note_on channel=8 note=81 velocity=81 time=1\n",
      "note_off channel=10 note=62 velocity=64 time=9\n",
      "note_off channel=10 note=57 velocity=64 time=2\n",
      "note_on channel=9 note=69 velocity=49 time=8\n",
      "note_off channel=9 note=69 velocity=64 time=0\n",
      "note_off channel=1 note=33 velocity=64 time=0\n",
      "note_on channel=1 note=30 velocity=66 time=0\n",
      "note_on channel=10 note=62 velocity=65 time=1\n",
      "note_on channel=10 note=57 velocity=61 time=0\n",
      "note_off channel=6 note=69 velocity=64 time=16\n",
      "note_off channel=6 note=66 velocity=64 time=1\n",
      "note_off channel=7 note=57 velocity=64 time=2\n",
      "note_off channel=0 note=90 velocity=64 time=3\n",
      "note_off channel=0 note=86 velocity=64 time=0\n",
      "note_off channel=3 note=69 velocity=64 time=1\n",
      "note_on channel=9 note=42 velocity=55 time=0\n",
      "note_off channel=9 note=42 velocity=64 time=0\n",
      "note_off channel=1 note=30 velocity=64 time=0\n",
      "note_on channel=1 note=33 velocity=96 time=0\n",
      "note_off channel=0 note=93 velocity=64 time=0\n",
      "<meta message lyrics text='sev' time=1>\n",
      "note_on channel=3 note=68 velocity=108 time=0\n",
      "note_off channel=4 note=62 velocity=64 time=0\n",
      "note_off channel=4 note=69 velocity=64 time=0\n",
      "note_on channel=4 note=61 velocity=78 time=0\n",
      "note_on channel=4 note=68 velocity=108 time=0\n",
      "note_on channel=9 note=36 velocity=112 time=0\n",
      "note_off channel=9 note=36 velocity=64 time=0\n",
      "note_on channel=9 note=69 velocity=35 time=0\n",
      "note_off channel=9 note=69 velocity=64 time=0\n",
      "note_on channel=0 note=56 velocity=75 time=0\n",
      "note_on channel=0 note=64 velocity=83 time=0\n",
      "note_on channel=0 note=59 velocity=101 time=0\n",
      "note_on channel=6 note=57 velocity=59 time=0\n",
      "note_on channel=10 note=52 velocity=58 time=0\n",
      "note_on channel=8 note=80 velocity=65 time=0\n",
      "note_off channel=7 note=62 velocity=64 time=0\n",
      "note_off channel=7 note=66 velocity=64 time=0\n",
      "note_on channel=7 note=59 velocity=84 time=0\n",
      "note_on channel=7 note=64 velocity=79 time=0\n",
      "note_on channel=7 note=68 velocity=75 time=0\n",
      "note_off channel=10 note=57 velocity=64 time=1\n",
      "note_off channel=8 note=81 velocity=64 time=2\n",
      "note_off channel=10 note=62 velocity=64 time=3\n",
      "note_on channel=9 note=42 velocity=47 time=17\n",
      "note_off channel=9 note=42 velocity=64 time=0\n",
      "note_off channel=6 note=57 velocity=64 time=0\n",
      "note_on channel=9 note=69 velocity=43 time=1\n",
      "note_off channel=9 note=69 velocity=64 time=0\n",
      "note_on channel=6 note=68 velocity=65 time=0\n",
      "note_on channel=6 note=64 velocity=76 time=0\n",
      "note_on channel=10 note=59 velocity=59 time=0\n",
      "note_on channel=10 note=57 velocity=55 time=0\n",
      "note_off channel=10 note=57 velocity=64 time=13\n",
      "note_off channel=10 note=52 velocity=64 time=0\n",
      "note_off channel=6 note=64 velocity=64 time=3\n",
      "note_on channel=9 note=46 velocity=42 time=7\n",
      "note_off channel=9 note=46 velocity=64 time=0\n",
      "note_on channel=9 note=69 velocity=74 time=1\n",
      "note_off channel=9 note=69 velocity=64 time=0\n",
      "note_on channel=10 note=57 velocity=59 time=0\n",
      "note_on channel=6 note=64 velocity=81 time=1\n",
      "note_off channel=1 note=33 velocity=64 time=2\n",
      "note_off channel=0 note=59 velocity=64 time=10\n",
      "note_off channel=8 note=80 velocity=64 time=6\n",
      "note_on channel=8 note=81 velocity=87 time=1\n",
      "note_off channel=3 note=68 velocity=64 time=1\n",
      "note_on channel=1 note=33 velocity=84 time=1\n",
      "<meta message lyrics text='en' time=1>\n",
      "note_on channel=3 note=69 velocity=106 time=0\n",
      "note_off channel=4 note=61 velocity=64 time=0\n",
      "note_off channel=0 note=56 velocity=64 time=0\n",
      "note_off channel=4 note=68 velocity=64 time=1\n",
      "note_on channel=4 note=69 velocity=106 time=0\n",
      "note_on channel=4 note=61 velocity=87 time=0\n",
      "note_on channel=9 note=36 velocity=107 time=0\n",
      "note_off channel=9 note=36 velocity=64 time=0\n",
      "note_on channel=9 note=69 velocity=39 time=0\n",
      "note_off channel=9 note=69 velocity=64 time=0\n",
      "note_on channel=0 note=57 velocity=80 time=0\n",
      "note_on channel=0 note=61 velocity=69 time=0\n",
      "note_on channel=6 note=57 velocity=63 time=0\n",
      "note_on channel=10 note=52 velocity=61 time=0\n",
      "note_off channel=7 note=68 velocity=64 time=0\n",
      "note_off channel=7 note=59 velocity=64 time=0\n",
      "note_on channel=7 note=69 velocity=81 time=0\n",
      "note_on channel=7 note=61 velocity=73 time=0\n",
      "note_off channel=6 note=68 velocity=64 time=1\n",
      "note_off channel=10 note=59 velocity=64 time=0\n",
      "note_off channel=6 note=64 velocity=64 time=4\n",
      "note_off channel=10 note=57 velocity=64 time=0\n",
      "note_off channel=1 note=33 velocity=64 time=9\n",
      "note_off channel=10 note=52 velocity=64 time=1\n",
      "note_off channel=6 note=57 velocity=64 time=1\n",
      "note_on channel=1 note=33 velocity=93 time=6\n",
      "note_on channel=9 note=40 velocity=107 time=1\n",
      "note_off channel=9 note=40 velocity=64 time=0\n",
      "note_on channel=9 note=42 velocity=57 time=0\n",
      "note_off channel=9 note=42 velocity=64 time=0\n",
      "note_on channel=6 note=69 velocity=74 time=1\n",
      "note_on channel=6 note=64 velocity=74 time=0\n",
      "note_on channel=10 note=59 velocity=66 time=0\n",
      "note_on channel=10 note=57 velocity=66 time=0\n",
      "note_on channel=9 note=69 velocity=42 time=1\n",
      "note_off channel=9 note=69 velocity=64 time=0\n",
      "note_off channel=3 note=69 velocity=64 time=4\n",
      "note_off channel=0 note=61 velocity=64 time=1\n",
      "note_off channel=0 note=57 velocity=64 time=0\n",
      "note_off channel=0 note=64 velocity=64 time=14\n",
      "note_off channel=6 note=64 velocity=64 time=1\n",
      "note_off channel=10 note=57 velocity=64 time=0\n",
      "note_off channel=6 note=69 velocity=64 time=1\n",
      "note_off channel=10 note=59 velocity=64 time=0\n",
      "note_on channel=6 note=57 velocity=63 time=1\n",
      "note_on channel=10 note=52 velocity=53 time=1\n",
      "note_off channel=8 note=81 velocity=64 time=0\n",
      "note_on channel=9 note=69 velocity=36 time=1\n",
      "note_off channel=9 note=69 velocity=64 time=0\n",
      "note_off channel=1 note=33 velocity=64 time=9\n",
      "note_on channel=8 note=81 velocity=87 time=11\n",
      "note_off channel=6 note=57 velocity=64 time=1\n",
      "<meta message lyrics text='teen. ' time=1>\n",
      "<meta message lyrics text='\\r' time=0>\n",
      "note_on channel=3 note=69 velocity=110 time=0\n",
      "note_off channel=4 note=61 velocity=64 time=0\n",
      "note_off channel=4 note=69 velocity=64 time=0\n",
      "note_on channel=1 note=33 velocity=114 time=0\n",
      "note_on channel=10 note=57 velocity=63 time=0\n",
      "note_on channel=10 note=61 velocity=63 time=0\n",
      "note_on channel=4 note=69 velocity=110 time=1\n",
      "note_on channel=4 note=61 velocity=88 time=0\n",
      "note_on channel=9 note=36 velocity=102 time=0\n",
      "note_off channel=9 note=36 velocity=64 time=0\n",
      "note_on channel=9 note=46 velocity=40 time=0\n",
      "note_off channel=9 note=46 velocity=64 time=0\n",
      "note_on channel=6 note=64 velocity=74 time=0\n",
      "note_on channel=6 note=69 velocity=73 time=0\n",
      "note_on channel=9 note=69 velocity=74 time=1\n",
      "note_off channel=9 note=69 velocity=64 time=0\n",
      "note_on channel=0 note=64 velocity=91 time=0\n",
      "note_on channel=0 note=57 velocity=87 time=0\n",
      "note_on channel=0 note=61 velocity=81 time=0\n",
      "note_off channel=10 note=52 velocity=64 time=0\n",
      "note_off channel=6 note=64 velocity=64 time=11\n",
      "note_off channel=10 note=57 velocity=64 time=3\n",
      "note_off channel=10 note=61 velocity=64 time=2\n",
      "note_on channel=10 note=57 velocity=57 time=6\n",
      "note_on channel=10 note=61 velocity=49 time=0\n",
      "note_on channel=9 note=69 velocity=42 time=1\n",
      "note_off channel=9 note=69 velocity=64 time=0\n",
      "note_on channel=6 note=64 velocity=70 time=0\n",
      "note_off channel=1 note=33 velocity=64 time=23\n",
      "note_off channel=10 note=61 velocity=64 time=0\n",
      "note_off channel=10 note=57 velocity=64 time=0\n",
      "note_on channel=9 note=36 velocity=111 time=1\n",
      "note_off channel=9 note=36 velocity=64 time=0\n",
      "note_on channel=9 note=42 velocity=55 time=0\n",
      "note_off channel=9 note=42 velocity=64 time=0\n",
      "note_on channel=9 note=69 velocity=44 time=0\n",
      "note_off channel=9 note=69 velocity=64 time=0\n",
      "note_off channel=6 note=64 velocity=64 time=0\n",
      "note_off channel=6 note=69 velocity=64 time=0\n",
      "note_on channel=6 note=57 velocity=59 time=0\n",
      "note_on channel=10 note=52 velocity=11 time=3\n",
      "note_off channel=10 note=52 velocity=64 time=8\n",
      "note_off channel=6 note=57 velocity=64 time=5\n",
      "note_on channel=6 note=69 velocity=76 time=6\n",
      "note_on channel=10 note=57 velocity=63 time=0\n",
      "note_on channel=1 note=33 velocity=82 time=1\n",
      "note_on channel=6 note=64 velocity=76 time=0\n",
      "note_on channel=10 note=61 velocity=61 time=0\n",
      "note_on channel=9 note=69 velocity=41 time=1\n",
      "note_off channel=9 note=69 velocity=64 time=0\n",
      "note_off channel=10 note=57 velocity=64 time=10\n",
      "note_off channel=10 note=61 velocity=64 time=3\n",
      "note_off channel=6 note=64 velocity=64 time=1\n",
      "note_off channel=6 note=69 velocity=64 time=0\n",
      "note_off channel=0 note=57 velocity=64 time=3\n",
      "note_off channel=0 note=61 velocity=64 time=4\n",
      "note_on channel=10 note=61 velocity=59 time=1\n",
      "note_on channel=10 note=57 velocity=63 time=0\n",
      "note_off channel=1 note=33 velocity=64 time=1\n",
      "note_on channel=1 note=40 velocity=72 time=0\n",
      "note_off channel=0 note=64 velocity=64 time=0\n",
      "note_on channel=6 note=69 velocity=63 time=0\n",
      "note_on channel=6 note=64 velocity=76 time=0\n",
      "note_on channel=9 note=46 velocity=40 time=1\n",
      "note_off channel=9 note=46 velocity=64 time=0\n",
      "note_on channel=9 note=69 velocity=66 time=0\n",
      "note_off channel=9 note=69 velocity=64 time=0\n",
      "note_off channel=6 note=64 velocity=64 time=19\n",
      "note_on channel=9 note=69 velocity=39 time=4\n",
      "note_off channel=9 note=69 velocity=64 time=0\n",
      "note_off channel=1 note=40 velocity=64 time=0\n",
      "note_on channel=1 note=42 velocity=71 time=1\n",
      "note_on channel=6 note=57 velocity=62 time=0\n",
      "note_off channel=10 note=57 velocity=64 time=0\n",
      "note_on channel=10 note=52 velocity=58 time=0\n",
      "note_on channel=0 note=93 velocity=109 time=2\n",
      "note_on channel=0 note=88 velocity=109 time=0\n",
      "note_on channel=0 note=85 velocity=109 time=0\n",
      "note_off channel=10 note=61 velocity=64 time=0\n",
      "note_off channel=6 note=69 velocity=64 time=4\n",
      "note_off channel=0 note=85 velocity=64 time=4\n",
      "note_off channel=0 note=88 velocity=64 time=0\n",
      "note_off channel=0 note=93 velocity=64 time=1\n",
      "note_off channel=10 note=52 velocity=64 time=9\n",
      "note_off channel=6 note=57 velocity=64 time=1\n",
      "note_off channel=1 note=42 velocity=64 time=1\n",
      "note_on channel=9 note=42 velocity=63 time=1\n",
      "note_off channel=9 note=42 velocity=64 time=0\n",
      "note_on channel=6 note=68 velocity=65 time=0\n",
      "note_on channel=10 note=57 velocity=63 time=0\n",
      "note_on channel=10 note=61 velocity=60 time=0\n",
      "note_on channel=9 note=40 velocity=111 time=1\n",
      "note_off channel=9 note=40 velocity=64 time=0\n",
      "note_on channel=9 note=69 velocity=46 time=0\n",
      "note_off channel=9 note=69 velocity=64 time=0\n",
      "note_on channel=1 note=45 velocity=77 time=0\n",
      "note_on channel=6 note=64 velocity=77 time=0\n",
      "note_off channel=7 note=61 velocity=64 time=0\n",
      "note_off channel=7 note=69 velocity=64 time=0\n",
      "note_on channel=7 note=68 velocity=69 time=0\n",
      "note_on channel=7 note=59 velocity=86 time=0\n",
      "note_on channel=0 note=93 velocity=107 time=1\n",
      "note_on channel=0 note=85 velocity=107 time=0\n",
      "note_on channel=0 note=88 velocity=107 time=0\n",
      "note_off channel=6 note=68 velocity=64 time=21\n",
      "note_off channel=10 note=61 velocity=64 time=0\n",
      "note_off channel=10 note=57 velocity=64 time=1\n",
      "note_on channel=9 note=42 velocity=44 time=1\n",
      "note_off channel=9 note=42 velocity=64 time=0\n",
      "note_on channel=9 note=69 velocity=42 time=0\n",
      "note_off channel=9 note=69 velocity=64 time=0\n"
     ]
    },
    {
     "name": "stdout",
     "output_type": "stream",
     "text": [
      "note_off channel=6 note=64 velocity=64 time=0\n",
      "note_on channel=10 note=52 velocity=56 time=0\n",
      "note_off channel=10 note=52 velocity=64 time=12\n",
      "note_off channel=0 note=88 velocity=64 time=9\n",
      "note_off channel=0 note=85 velocity=64 time=1\n",
      "note_on channel=10 note=57 velocity=67 time=1\n",
      "note_on channel=9 note=46 velocity=43 time=1\n",
      "note_off channel=9 note=46 velocity=64 time=0\n",
      "note_on channel=9 note=69 velocity=65 time=0\n",
      "note_off channel=9 note=69 velocity=64 time=0\n",
      "note_off channel=0 note=93 velocity=64 time=0\n",
      "note_on channel=10 note=61 velocity=63 time=0\n",
      "note_on channel=6 note=68 velocity=74 time=1\n",
      "note_on channel=6 note=64 velocity=70 time=0\n",
      "note_off channel=10 note=61 velocity=64 time=16\n",
      "note_off channel=10 note=57 velocity=64 time=3\n",
      "note_on channel=9 note=69 velocity=38 time=3\n",
      "note_off channel=9 note=69 velocity=64 time=0\n",
      "note_on channel=10 note=57 velocity=59 time=1\n",
      "note_on channel=10 note=61 velocity=65 time=1\n",
      "note_on channel=0 note=88 velocity=108 time=1\n",
      "note_on channel=0 note=92 velocity=108 time=0\n",
      "note_on channel=0 note=83 velocity=108 time=0\n",
      "note_off channel=6 note=64 velocity=64 time=2\n",
      "note_off channel=0 note=92 velocity=64 time=8\n",
      "note_off channel=6 note=68 velocity=64 time=1\n",
      "note_off channel=0 note=88 velocity=64 time=1\n",
      "note_off channel=1 note=45 velocity=64 time=3\n",
      "note_off channel=4 note=69 velocity=64 time=6\n",
      "note_on channel=9 note=42 velocity=56 time=0\n",
      "note_off channel=9 note=42 velocity=64 time=0\n",
      "note_on channel=9 note=69 velocity=45 time=0\n",
      "note_off channel=9 note=69 velocity=64 time=0\n",
      "note_on channel=1 note=33 velocity=87 time=0\n",
      "note_off channel=4 note=61 velocity=64 time=1\n",
      "note_on channel=4 note=69 velocity=88 time=0\n",
      "note_on channel=4 note=62 velocity=88 time=0\n",
      "note_on channel=9 note=36 velocity=111 time=0\n",
      "note_off channel=9 note=36 velocity=64 time=0\n",
      "note_off channel=7 note=59 velocity=64 time=0\n",
      "note_off channel=7 note=68 velocity=64 time=0\n",
      "note_off channel=7 note=64 velocity=64 time=0\n",
      "note_on channel=7 note=62 velocity=71 time=0\n",
      "note_on channel=7 note=57 velocity=79 time=0\n",
      "note_on channel=7 note=66 velocity=72 time=0\n",
      "note_on channel=0 note=92 velocity=107 time=1\n",
      "note_on channel=6 note=57 velocity=63 time=0\n",
      "note_on channel=10 note=54 velocity=61 time=0\n",
      "note_on channel=0 note=88 velocity=107 time=1\n",
      "note_off channel=10 note=57 velocity=64 time=5\n",
      "note_off channel=10 note=61 velocity=64 time=3\n",
      "note_off channel=10 note=54 velocity=64 time=12\n",
      "note_on channel=9 note=42 velocity=43 time=2\n",
      "note_off channel=9 note=42 velocity=64 time=0\n",
      "note_on channel=9 note=69 velocity=40 time=0\n",
      "note_off channel=9 note=69 velocity=64 time=0\n",
      "note_on channel=6 note=66 velocity=63 time=0\n",
      "note_on channel=6 note=69 velocity=61 time=1\n",
      "note_on channel=10 note=62 velocity=83 time=0\n",
      "note_on channel=10 note=57 velocity=64 time=0\n",
      "note_off channel=6 note=57 velocity=64 time=3\n",
      "note_off channel=6 note=66 velocity=64 time=11\n",
      "note_off channel=10 note=57 velocity=64 time=1\n",
      "note_on channel=9 note=46 velocity=44 time=7\n",
      "note_off channel=9 note=46 velocity=64 time=0\n",
      "note_on channel=9 note=69 velocity=67 time=1\n",
      "note_off channel=9 note=69 velocity=64 time=0\n",
      "note_off channel=0 note=83 velocity=64 time=0\n",
      "note_on channel=6 note=66 velocity=71 time=0\n",
      "note_off channel=3 note=69 velocity=64 time=1\n",
      "note_on channel=10 note=57 velocity=61 time=0\n",
      "note_off channel=1 note=33 velocity=64 time=2\n",
      "note_off channel=0 note=88 velocity=64 time=0\n",
      "note_off channel=0 note=92 velocity=64 time=1\n",
      "<meta message lyrics text='\\n' time=6>\n",
      "note_off channel=6 note=69 velocity=64 time=7\n",
      "note_off channel=6 note=66 velocity=64 time=2\n",
      "note_on channel=1 note=33 velocity=84 time=3\n",
      "note_on channel=9 note=36 velocity=111 time=2\n",
      "note_off channel=9 note=36 velocity=64 time=0\n",
      "note_on channel=9 note=69 velocity=39 time=0\n",
      "note_off channel=9 note=69 velocity=64 time=0\n",
      "note_on channel=6 note=57 velocity=61 time=0\n",
      "note_on channel=0 note=90 velocity=106 time=1\n",
      "note_on channel=0 note=86 velocity=106 time=0\n",
      "note_on channel=0 note=81 velocity=106 time=0\n",
      "note_off channel=10 note=57 velocity=64 time=0\n",
      "note_on channel=10 note=54 velocity=57 time=0\n",
      "note_off channel=10 note=62 velocity=64 time=2\n",
      "note_off channel=0 note=86 velocity=64 time=8\n",
      "note_off channel=0 note=81 velocity=64 time=1\n",
      "note_off channel=1 note=33 velocity=64 time=1\n",
      "note_off channel=0 note=90 velocity=64 time=0\n",
      "note_off channel=10 note=54 velocity=64 time=4\n",
      "note_on channel=1 note=33 velocity=100 time=5\n",
      "note_on channel=9 note=40 velocity=104 time=2\n",
      "note_off channel=9 note=40 velocity=64 time=0\n",
      "note_on channel=9 note=42 velocity=53 time=0\n",
      "note_off channel=9 note=42 velocity=64 time=0\n",
      "note_on channel=9 note=69 velocity=51 time=0\n",
      "note_off channel=9 note=69 velocity=64 time=0\n",
      "note_on channel=0 note=81 velocity=106 time=0\n",
      "note_on channel=0 note=90 velocity=106 time=0\n",
      "note_on channel=0 note=86 velocity=106 time=0\n",
      "note_on channel=6 note=69 velocity=66 time=0\n",
      "note_on channel=6 note=66 velocity=83 time=0\n",
      "note_off channel=6 note=57 velocity=64 time=1\n",
      "note_on channel=10 note=62 velocity=77 time=0\n",
      "note_on channel=10 note=57 velocity=63 time=0\n",
      "note_off channel=6 note=66 velocity=64 time=12\n",
      "note_off channel=6 note=69 velocity=64 time=2\n",
      "note_off channel=10 note=57 velocity=64 time=4\n",
      "note_off channel=10 note=62 velocity=64 time=4\n",
      "note_on channel=6 note=57 velocity=72 time=1\n",
      "note_on channel=9 note=69 velocity=48 time=1\n",
      "note_off channel=9 note=69 velocity=64 time=0\n",
      "note_off channel=1 note=33 velocity=64 time=9\n",
      "note_off channel=6 note=57 velocity=64 time=7\n",
      "note_on channel=6 note=66 velocity=75 time=5\n",
      "note_on channel=6 note=69 velocity=66 time=0\n",
      "note_on channel=1 note=33 velocity=93 time=1\n",
      "note_on channel=9 note=36 velocity=104 time=1\n",
      "note_off channel=9 note=36 velocity=64 time=0\n",
      "note_on channel=9 note=46 velocity=44 time=0\n",
      "note_off channel=9 note=46 velocity=64 time=0\n",
      "note_on channel=9 note=69 velocity=62 time=0\n",
      "note_off channel=9 note=69 velocity=64 time=0\n",
      "note_on channel=10 note=57 velocity=63 time=0\n",
      "note_on channel=10 note=62 velocity=76 time=0\n",
      "note_off channel=6 note=69 velocity=64 time=11\n",
      "note_off channel=6 note=66 velocity=64 time=1\n",
      "note_off channel=10 note=57 velocity=64 time=1\n",
      "note_off channel=10 note=62 velocity=64 time=3\n",
      "note_on channel=6 note=69 velocity=63 time=7\n",
      "note_on channel=6 note=66 velocity=75 time=0\n",
      "note_on channel=9 note=69 velocity=47 time=1\n",
      "note_off channel=9 note=69 velocity=64 time=0\n",
      "note_on channel=10 note=57 velocity=64 time=0\n",
      "note_on channel=10 note=62 velocity=61 time=1\n",
      "note_off channel=1 note=33 velocity=64 time=17\n",
      "note_off channel=6 note=66 velocity=64 time=4\n",
      "note_off channel=10 note=62 velocity=64 time=1\n",
      "note_off channel=10 note=57 velocity=64 time=0\n",
      "note_on channel=9 note=36 velocity=104 time=1\n",
      "note_off channel=9 note=36 velocity=64 time=0\n",
      "note_on channel=9 note=42 velocity=66 time=0\n",
      "note_off channel=9 note=42 velocity=64 time=0\n",
      "note_on channel=9 note=69 velocity=48 time=0\n",
      "note_off channel=9 note=69 velocity=64 time=0\n",
      "note_off channel=6 note=69 velocity=64 time=0\n",
      "note_on channel=6 note=57 velocity=59 time=0\n",
      "note_on channel=10 note=54 velocity=38 time=3\n",
      "note_off channel=10 note=54 velocity=64 time=15\n",
      "note_on channel=1 note=33 velocity=77 time=4\n",
      "note_off channel=6 note=57 velocity=64 time=0\n",
      "note_on channel=6 note=69 velocity=73 time=1\n",
      "note_on channel=6 note=66 velocity=81 time=0\n",
      "note_on channel=9 note=40 velocity=102 time=1\n",
      "note_off channel=9 note=40 velocity=64 time=0\n",
      "note_on channel=9 note=69 velocity=48 time=0\n",
      "note_off channel=9 note=69 velocity=64 time=0\n",
      "note_on channel=10 note=62 velocity=75 time=0\n",
      "note_on channel=10 note=57 velocity=67 time=0\n",
      "note_off channel=6 note=66 velocity=64 time=11\n",
      "note_off channel=10 note=57 velocity=64 time=3\n",
      "note_off channel=6 note=69 velocity=64 time=1\n",
      "note_off channel=1 note=33 velocity=64 time=7\n",
      "note_on channel=1 note=28 velocity=67 time=0\n",
      "note_on channel=9 note=69 velocity=64 time=2\n",
      "note_off channel=9 note=69 velocity=64 time=0\n",
      "note_on channel=6 note=69 velocity=63 time=0\n",
      "note_on channel=6 note=66 velocity=81 time=0\n",
      "note_on channel=10 note=57 velocity=59 time=0\n",
      "note_off channel=1 note=28 velocity=64 time=22\n",
      "note_on channel=1 note=29 velocity=83 time=0\n",
      "note_off channel=10 note=57 velocity=64 time=1\n",
      "note_off channel=10 note=62 velocity=64 time=0\n",
      "note_on channel=10 note=54 velocity=59 time=0\n",
      "note_on channel=9 note=69 velocity=45 time=1\n",
      "note_off channel=9 note=69 velocity=64 time=0\n",
      "note_off channel=6 note=69 velocity=64 time=0\n",
      "note_on channel=6 note=57 velocity=64 time=0\n",
      "note_off channel=6 note=66 velocity=64 time=3\n",
      "note_off channel=1 note=29 velocity=64 time=19\n",
      "note_on channel=1 note=30 velocity=100 time=1\n",
      "note_on channel=6 note=69 velocity=71 time=0\n",
      "note_on channel=6 note=66 velocity=77 time=0\n",
      "note_off channel=10 note=54 velocity=64 time=0\n",
      "note_on channel=9 note=40 velocity=107 time=1\n",
      "note_off channel=9 note=40 velocity=64 time=0\n",
      "note_on channel=9 note=42 velocity=65 time=0\n",
      "note_off channel=9 note=42 velocity=64 time=0\n",
      "note_on channel=9 note=69 velocity=55 time=0\n",
      "note_off channel=9 note=69 velocity=64 time=0\n",
      "note_on channel=10 note=57 velocity=67 time=0\n",
      "note_on channel=10 note=62 velocity=71 time=0\n",
      "note_off channel=6 note=57 velocity=64 time=1\n",
      "note_off channel=1 note=30 velocity=64 time=14\n",
      "note_off channel=0 note=81 velocity=64 time=1\n",
      "note_off channel=0 note=86 velocity=64 time=2\n",
      "note_off channel=0 note=90 velocity=64 time=1\n",
      "note_off channel=10 note=62 velocity=64 time=1\n",
      "note_off channel=6 note=66 velocity=64 time=1\n",
      "note_off channel=6 note=69 velocity=64 time=0\n",
      "note_off channel=10 note=57 velocity=64 time=1\n",
      "note_on channel=9 note=69 velocity=40 time=2\n",
      "note_off channel=9 note=69 velocity=64 time=0\n",
      "note_on channel=1 note=30 velocity=85 time=0\n",
      "note_on channel=10 note=54 velocity=60 time=0\n",
      "note_off channel=10 note=54 velocity=64 time=11\n",
      "note_off channel=1 note=30 velocity=64 time=9\n",
      "note_on channel=1 note=33 velocity=86 time=3\n",
      "note_on channel=6 note=66 velocity=77 time=0\n",
      "note_on channel=6 note=69 velocity=75 time=0\n",
      "note_on channel=10 note=57 velocity=65 time=0\n",
      "note_on channel=10 note=62 velocity=77 time=0\n",
      "note_on channel=9 note=46 velocity=42 time=1\n",
      "note_off channel=9 note=46 velocity=64 time=0\n",
      "note_on channel=9 note=69 velocity=65 time=0\n",
      "note_off channel=9 note=69 velocity=64 time=0\n",
      "note_off channel=10 note=57 velocity=64 time=15\n",
      "note_off channel=1 note=33 velocity=64 time=8\n",
      "note_on channel=1 note=30 velocity=77 time=0\n",
      "note_on channel=10 note=57 velocity=58 time=0\n",
      "note_on channel=9 note=69 velocity=42 time=1\n",
      "note_off channel=9 note=69 velocity=64 time=0\n",
      "note_off channel=6 note=66 velocity=64 time=11\n",
      "note_off channel=6 note=69 velocity=64 time=1\n",
      "note_off channel=1 note=30 velocity=64 time=7\n",
      "note_off channel=10 note=57 velocity=64 time=0\n",
      "note_off channel=8 note=81 velocity=64 time=2\n",
      "note_on channel=1 note=33 velocity=87 time=1\n",
      "note_on channel=9 note=36 velocity=111 time=1\n",
      "note_off channel=9 note=36 velocity=64 time=0\n",
      "note_off channel=10 note=62 velocity=64 time=0\n",
      "note_on channel=10 note=52 velocity=61 time=0\n",
      "note_on channel=8 note=80 velocity=67 time=0\n",
      "<meta message lyrics text='Danc' time=1>\n",
      "note_on channel=3 note=68 velocity=110 time=0\n",
      "note_off channel=4 note=62 velocity=64 time=0\n",
      "note_off channel=4 note=69 velocity=64 time=0\n",
      "note_on channel=4 note=61 velocity=86 time=0\n",
      "note_on channel=4 note=68 velocity=110 time=0\n",
      "note_on channel=9 note=42 velocity=66 time=0\n",
      "note_off channel=9 note=42 velocity=64 time=0\n",
      "note_on channel=9 note=69 velocity=37 time=0\n",
      "note_off channel=9 note=69 velocity=64 time=0\n",
      "note_on channel=0 note=56 velocity=80 time=0\n",
      "note_on channel=0 note=59 velocity=101 time=0\n",
      "note_on channel=0 note=64 velocity=93 time=0\n",
      "note_on channel=6 note=57 velocity=67 time=0\n",
      "note_off channel=7 note=66 velocity=64 time=0\n",
      "note_off channel=7 note=57 velocity=64 time=0\n",
      "note_off channel=7 note=62 velocity=64 time=0\n",
      "note_on channel=7 note=56 velocity=70 time=0\n",
      "note_on channel=7 note=64 velocity=85 time=0\n",
      "note_on channel=7 note=59 velocity=80 time=0\n",
      "note_on channel=10 note=57 velocity=67 time=22\n",
      "note_on channel=9 note=42 velocity=45 time=1\n",
      "note_off channel=9 note=42 velocity=64 time=0\n",
      "note_on channel=10 note=61 velocity=61 time=0\n",
      "note_on channel=9 note=69 velocity=40 time=1\n",
      "note_off channel=9 note=69 velocity=64 time=0\n",
      "note_off channel=6 note=57 velocity=64 time=0\n",
      "note_on channel=6 note=68 velocity=72 time=0\n",
      "note_on channel=6 note=64 velocity=77 time=0\n",
      "note_off channel=6 note=64 velocity=64 time=12\n",
      "note_off channel=10 note=61 velocity=64 time=0\n",
      "note_off channel=10 note=57 velocity=64 time=0\n",
      "note_off channel=6 note=68 velocity=64 time=2\n",
      "note_off channel=10 note=52 velocity=64 time=2\n",
      "note_on channel=10 note=57 velocity=66 time=6\n",
      "note_on channel=9 note=46 velocity=50 time=1\n",
      "note_off channel=9 note=46 velocity=64 time=0\n",
      "note_on channel=6 note=68 velocity=59 time=0\n",
      "note_on channel=10 note=61 velocity=61 time=0\n",
      "note_on channel=9 note=69 velocity=64 time=1\n",
      "note_off channel=9 note=69 velocity=64 time=0\n",
      "note_off channel=0 note=59 velocity=64 time=0\n",
      "note_on channel=6 note=64 velocity=75 time=0\n",
      "note_off channel=1 note=33 velocity=64 time=2\n",
      "note_off channel=0 note=56 velocity=64 time=9\n",
      "note_off channel=8 note=80 velocity=64 time=7\n",
      "note_on channel=8 note=81 velocity=81 time=1\n",
      "note_off channel=3 note=68 velocity=64 time=1\n",
      "note_on channel=1 note=33 velocity=84 time=1\n",
      "note_off channel=4 note=61 velocity=64 time=2\n",
      "note_off channel=10 note=61 velocity=64 time=0\n",
      "note_on channel=10 note=52 velocity=60 time=0\n",
      "<meta message lyrics text='ing ' time=1>\n",
      "note_on channel=3 note=69 velocity=105 time=0\n",
      "note_off channel=4 note=68 velocity=64 time=0\n",
      "note_on channel=4 note=61 velocity=85 time=0\n",
      "note_on channel=4 note=69 velocity=105 time=0\n",
      "note_on channel=9 note=36 velocity=110 time=0\n",
      "note_off channel=9 note=36 velocity=64 time=0\n",
      "note_on channel=9 note=69 velocity=39 time=0\n",
      "note_off channel=9 note=69 velocity=64 time=0\n",
      "note_on channel=0 note=57 velocity=75 time=0\n",
      "note_on channel=0 note=61 velocity=76 time=0\n",
      "note_off channel=6 note=68 velocity=64 time=0\n",
      "note_on channel=6 note=57 velocity=65 time=0\n",
      "note_off channel=10 note=57 velocity=64 time=0\n",
      "note_off channel=7 note=59 velocity=64 time=0\n",
      "note_off channel=7 note=56 velocity=64 time=0\n",
      "note_on channel=7 note=61 velocity=72 time=0\n",
      "note_on channel=7 note=57 velocity=86 time=0\n",
      "note_off channel=6 note=64 velocity=64 time=3\n",
      "note_off channel=1 note=33 velocity=64 time=10\n",
      "note_off channel=6 note=57 velocity=64 time=3\n",
      "note_off channel=10 note=52 velocity=64 time=3\n",
      "note_on channel=1 note=33 velocity=100 time=2\n",
      "note_on channel=9 note=40 velocity=107 time=2\n",
      "note_off channel=9 note=40 velocity=64 time=0\n",
      "note_on channel=9 note=42 velocity=57 time=0\n",
      "note_off channel=9 note=42 velocity=64 time=0\n",
      "note_on channel=9 note=69 velocity=53 time=1\n",
      "note_off channel=9 note=69 velocity=64 time=0\n",
      "note_on channel=6 note=68 velocity=75 time=0\n",
      "note_on channel=6 note=64 velocity=79 time=0\n",
      "note_on channel=10 note=57 velocity=75 time=0\n",
      "note_on channel=10 note=61 velocity=69 time=0\n",
      "note_off channel=0 note=61 velocity=64 time=2\n",
      "note_off channel=0 note=57 velocity=64 time=2\n",
      "note_off channel=0 note=64 velocity=64 time=1\n",
      "note_off channel=6 note=68 velocity=64 time=14\n",
      "note_off channel=3 note=69 velocity=64 time=1\n",
      "note_off channel=10 note=61 velocity=64 time=0\n",
      "note_off channel=10 note=57 velocity=64 time=0\n",
      "note_off channel=6 note=64 velocity=64 time=2\n",
      "note_on channel=10 note=52 velocity=57 time=0\n",
      "note_on channel=9 note=69 velocity=40 time=2\n",
      "note_off channel=9 note=69 velocity=64 time=0\n",
      "note_on channel=6 note=57 velocity=59 time=0\n",
      "note_off channel=1 note=33 velocity=64 time=17\n",
      "note_off channel=6 note=57 velocity=64 time=0\n",
      "note_off channel=8 note=81 velocity=64 time=5\n",
      "<meta message lyrics text='queen, ' time=1>\n",
      "<meta message lyrics text='\\r' time=0>\n",
      "note_on channel=3 note=69 velocity=109 time=0\n",
      "note_off channel=4 note=69 velocity=64 time=0\n",
      "note_off channel=4 note=61 velocity=64 time=0\n",
      "note_on channel=1 note=33 velocity=108 time=0\n",
      "note_on channel=0 note=57 velocity=93 time=0\n",
      "note_on channel=0 note=64 velocity=93 time=0\n",
      "note_on channel=0 note=61 velocity=85 time=0\n",
      "note_on channel=4 note=69 velocity=109 time=1\n",
      "note_on channel=4 note=61 velocity=85 time=0\n",
      "note_on channel=9 note=36 velocity=102 time=0\n",
      "note_off channel=9 note=36 velocity=64 time=0\n",
      "note_on channel=9 note=46 velocity=42 time=0\n",
      "note_off channel=9 note=46 velocity=64 time=0\n",
      "note_on channel=9 note=69 velocity=63 time=0\n",
      "note_off channel=9 note=69 velocity=64 time=0\n",
      "note_on channel=6 note=69 velocity=74 time=0\n",
      "note_on channel=6 note=64 velocity=79 time=0\n",
      "note_on channel=10 note=57 velocity=68 time=0\n",
      "note_on channel=10 note=61 velocity=62 time=0\n",
      "note_on channel=8 note=81 velocity=78 time=1\n",
      "note_off channel=10 note=52 velocity=64 time=3\n",
      "note_off channel=10 note=57 velocity=64 time=8\n",
      "note_off channel=6 note=64 velocity=64 time=2\n",
      "note_off channel=10 note=61 velocity=64 time=1\n",
      "note_on channel=9 note=69 velocity=39 time=9\n",
      "note_off channel=9 note=69 velocity=64 time=0\n",
      "note_on channel=6 note=64 velocity=76 time=0\n",
      "note_on channel=10 note=57 velocity=62 time=0\n",
      "note_on channel=10 note=61 velocity=56 time=0\n",
      "note_off channel=10 note=57 velocity=64 time=18\n",
      "note_off channel=10 note=61 velocity=64 time=2\n",
      "note_on channel=9 note=36 velocity=111 time=4\n",
      "note_off channel=9 note=36 velocity=64 time=0\n",
      "note_on channel=9 note=42 velocity=54 time=0\n",
      "note_off channel=9 note=42 velocity=64 time=0\n",
      "note_on channel=9 note=69 velocity=39 time=0\n",
      "note_off channel=9 note=69 velocity=64 time=0\n",
      "note_off channel=6 note=64 velocity=64 time=0\n",
      "note_off channel=6 note=69 velocity=64 time=0\n",
      "note_on channel=6 note=57 velocity=58 time=0\n",
      "note_on channel=10 note=52 velocity=58 time=1\n",
      "note_off channel=10 note=52 velocity=64 time=9\n",
      "note_off channel=6 note=57 velocity=64 time=9\n",
      "note_on channel=6 note=69 velocity=75 time=4\n",
      "note_on channel=6 note=64 velocity=81 time=0\n",
      "note_on channel=10 note=57 velocity=74 time=0\n",
      "note_on channel=10 note=61 velocity=65 time=0\n",
      "note_on channel=9 note=69 velocity=46 time=1\n",
      "note_off channel=9 note=69 velocity=64 time=0\n",
      "note_off channel=1 note=33 velocity=64 time=8\n",
      "note_off channel=10 note=61 velocity=64 time=4\n",
      "note_off channel=10 note=57 velocity=64 time=0\n",
      "note_off channel=6 note=64 velocity=64 time=2\n",
      "note_off channel=6 note=69 velocity=64 time=2\n",
      "note_on channel=6 note=69 velocity=69 time=7\n",
      "note_on channel=10 note=57 velocity=61 time=0\n",
      "note_on channel=10 note=61 velocity=60 time=0\n",
      "note_on channel=9 note=46 velocity=40 time=1\n",
      "note_off channel=9 note=46 velocity=64 time=0\n",
      "note_on channel=9 note=69 velocity=64 time=0\n",
      "note_off channel=9 note=69 velocity=64 time=0\n",
      "note_on channel=1 note=40 velocity=82 time=0\n",
      "note_on channel=6 note=64 velocity=71 time=0\n",
      "note_off channel=0 note=61 velocity=64 time=10\n",
      "note_off channel=0 note=64 velocity=64 time=0\n",
      "note_off channel=0 note=57 velocity=64 time=6\n",
      "note_off channel=6 note=69 velocity=64 time=5\n",
      "note_off channel=1 note=40 velocity=64 time=2\n",
      "note_on channel=1 note=42 velocity=72 time=0\n",
      "note_off channel=10 note=57 velocity=64 time=0\n",
      "note_on channel=9 note=69 velocity=44 time=1\n",
      "note_off channel=9 note=69 velocity=64 time=0\n",
      "note_on channel=6 note=57 velocity=59 time=0\n",
      "note_on channel=10 note=52 velocity=58 time=0\n",
      "note_off channel=10 note=61 velocity=64 time=1\n",
      "note_on channel=0 note=93 velocity=81 time=1\n",
      "note_on channel=0 note=88 velocity=118 time=0\n",
      "note_on channel=0 note=85 velocity=106 time=0\n",
      "note_off channel=6 note=64 velocity=64 time=4\n",
      "note_off channel=0 note=85 velocity=64 time=6\n",
      "note_off channel=0 note=88 velocity=64 time=1\n",
      "note_off channel=10 note=52 velocity=64 time=1\n",
      "note_off channel=0 note=93 velocity=64 time=3\n",
      "note_on channel=6 note=64 velocity=75 time=6\n",
      "note_on channel=6 note=69 velocity=75 time=0\n",
      "note_on channel=10 note=57 velocity=65 time=0\n",
      "note_on channel=10 note=61 velocity=61 time=0\n",
      "note_on channel=9 note=40 velocity=107 time=1\n",
      "note_off channel=9 note=40 velocity=64 time=0\n",
      "note_on channel=9 note=42 velocity=61 time=0\n",
      "note_off channel=9 note=42 velocity=64 time=0\n",
      "note_on channel=9 note=69 velocity=46 time=0\n",
      "note_off channel=9 note=69 velocity=64 time=0\n",
      "note_off channel=1 note=42 velocity=64 time=0\n",
      "note_on channel=1 note=45 velocity=86 time=0\n",
      "note_on channel=0 note=93 velocity=80 time=2\n",
      "note_on channel=0 note=85 velocity=83 time=0\n",
      "note_on channel=0 note=88 velocity=101 time=0\n",
      "note_off channel=6 note=57 velocity=64 time=2\n",
      "note_off channel=6 note=69 velocity=64 time=16\n",
      "note_off channel=10 note=61 velocity=64 time=3\n",
      "note_off channel=10 note=57 velocity=64 time=0\n",
      "note_on channel=9 note=69 velocity=38 time=1\n",
      "note_off channel=9 note=69 velocity=64 time=0\n",
      "note_on channel=10 note=52 velocity=58 time=0\n",
      "note_off channel=6 note=64 velocity=64 time=4\n",
      "note_off channel=10 note=52 velocity=64 time=10\n",
      "note_off channel=3 note=69 velocity=64 time=8\n",
      "note_on channel=6 note=64 velocity=68 time=1\n",
      "note_on channel=6 note=69 velocity=77 time=0\n",
      "note_on channel=10 note=57 velocity=72 time=0\n",
      "note_on channel=10 note=61 velocity=65 time=0\n",
      "note_on channel=9 note=46 velocity=43 time=1\n",
      "note_off channel=9 note=46 velocity=64 time=0\n",
      "note_on channel=9 note=69 velocity=65 time=0\n",
      "note_off channel=9 note=69 velocity=64 time=0\n",
      "note_off channel=10 note=61 velocity=64 time=11\n",
      "note_off channel=10 note=57 velocity=64 time=0\n",
      "note_on channel=10 note=57 velocity=65 time=12\n",
      "note_on channel=9 note=69 velocity=37 time=1\n",
      "note_off channel=9 note=69 velocity=64 time=0\n",
      "note_on channel=10 note=61 velocity=61 time=0\n",
      "note_off channel=6 note=69 velocity=64 time=8\n",
      "note_off channel=0 note=88 velocity=64 time=4\n",
      "note_off channel=6 note=64 velocity=64 time=0\n",
      "note_off channel=0 note=85 velocity=64 time=5\n",
      "note_off channel=0 note=93 velocity=64 time=1\n",
      "note_off channel=1 note=45 velocity=64 time=4\n",
      "note_on channel=9 note=42 velocity=65 time=1\n",
      "note_off channel=9 note=42 velocity=64 time=0\n",
      "note_on channel=6 note=57 velocity=61 time=0\n",
      "<meta message lyrics text='feel ' time=1>\n",
      "note_on channel=3 note=68 velocity=110 time=0\n",
      "note_off channel=4 note=61 velocity=64 time=0\n",
      "note_off channel=4 note=69 velocity=64 time=0\n",
      "note_on channel=4 note=62 velocity=86 time=0\n",
      "note_on channel=4 note=68 velocity=110 time=0\n",
      "note_on channel=9 note=36 velocity=110 time=0\n",
      "note_off channel=9 note=36 velocity=64 time=0\n",
      "note_on channel=9 note=69 velocity=39 time=0\n",
      "note_off channel=9 note=69 velocity=64 time=0\n",
      "note_on channel=1 note=33 velocity=91 time=0\n",
      "note_on channel=0 note=57 velocity=83 time=0\n",
      "note_on channel=0 note=66 velocity=71 time=0\n",
      "note_on channel=0 note=62 velocity=85 time=0\n",
      "note_on channel=10 note=54 velocity=58 time=0\n",
      "note_off channel=7 note=61 velocity=64 time=0\n",
      "note_off channel=7 note=64 velocity=64 time=0\n",
      "note_on channel=7 note=66 velocity=73 time=0\n",
      "note_on channel=7 note=62 velocity=84 time=0\n",
      "note_off channel=8 note=81 velocity=64 time=1\n",
      "note_off channel=10 note=57 velocity=64 time=1\n",
      "note_on channel=8 note=80 velocity=69 time=0\n",
      "note_off channel=10 note=61 velocity=64 time=1\n",
      "note_off channel=10 note=54 velocity=64 time=19\n",
      "note_on channel=9 note=42 velocity=44 time=1\n",
      "note_off channel=9 note=42 velocity=64 time=0\n",
      "note_on channel=6 note=66 velocity=67 time=0\n",
      "note_on channel=9 note=69 velocity=39 time=1\n",
      "note_off channel=9 note=69 velocity=64 time=0\n",
      "note_on channel=6 note=69 velocity=60 time=0\n",
      "note_on channel=10 note=62 velocity=76 time=0\n",
      "note_on channel=10 note=57 velocity=65 time=0\n",
      "note_off channel=6 note=57 velocity=64 time=7\n",
      "note_off channel=6 note=69 velocity=64 time=3\n",
      "note_off channel=10 note=57 velocity=64 time=2\n",
      "note_off channel=6 note=66 velocity=64 time=1\n",
      "note_off channel=10 note=62 velocity=64 time=4\n",
      "note_off channel=0 note=57 velocity=64 time=2\n",
      "note_on channel=9 note=69 velocity=67 time=4\n",
      "note_off channel=9 note=69 velocity=64 time=0\n",
      "note_on channel=6 note=66 velocity=67 time=0\n",
      "note_on channel=6 note=69 velocity=62 time=0\n",
      "note_on channel=9 note=46 velocity=54 time=1\n",
      "note_off channel=9 note=46 velocity=64 time=0\n",
      "note_off channel=0 note=62 velocity=64 time=0\n",
      "note_on channel=10 note=57 velocity=65 time=0\n",
      "note_on channel=10 note=62 velocity=69 time=1\n",
      "note_off channel=0 note=66 velocity=64 time=3\n",
      "note_off channel=1 note=33 velocity=64 time=2\n",
      "note_off channel=8 note=80 velocity=64 time=14\n",
      "note_off channel=3 note=68 velocity=64 time=1\n",
      "note_on channel=8 note=81 velocity=87 time=0\n",
      "note_off channel=10 note=57 velocity=64 time=1\n",
      "note_off channel=4 note=62 velocity=64 time=1\n",
      "note_on channel=9 note=69 velocity=42 time=0\n",
      "note_off channel=9 note=69 velocity=64 time=0\n",
      "note_on channel=1 note=33 velocity=79 time=0\n",
      "note_off channel=6 note=69 velocity=64 time=0\n",
      "note_off channel=6 note=66 velocity=64 time=0\n",
      "note_on channel=10 note=54 velocity=60 time=0\n",
      "<meta message lyrics text='the ' time=1>\n",
      "note_on channel=3 note=69 velocity=105 time=0\n",
      "note_off channel=4 note=68 velocity=64 time=0\n",
      "note_on channel=4 note=62 velocity=87 time=0\n",
      "note_on channel=4 note=69 velocity=105 time=0\n",
      "note_on channel=9 note=36 velocity=102 time=0\n",
      "note_off channel=9 note=36 velocity=64 time=0\n",
      "note_on channel=6 note=57 velocity=61 time=0\n",
      "note_on channel=0 note=57 velocity=83 time=1\n",
      "note_on channel=0 note=62 velocity=87 time=0\n",
      "note_on channel=0 note=66 velocity=76 time=0\n",
      "note_off channel=10 note=62 velocity=64 time=0\n",
      "note_off channel=1 note=33 velocity=64 time=14\n",
      "note_off channel=10 note=54 velocity=64 time=2\n",
      "note_off channel=6 note=57 velocity=64 time=3\n",
      "note_off channel=0 note=62 velocity=64 time=2\n",
      "note_on channel=9 note=40 velocity=107 time=1\n",
      "note_off channel=9 note=40 velocity=64 time=0\n",
      "note_on channel=1 note=33 velocity=87 time=0\n",
      "note_on channel=6 note=69 velocity=74 time=0\n",
      "note_on channel=9 note=42 velocity=56 time=1\n",
      "note_off channel=9 note=42 velocity=64 time=0\n",
      "note_on channel=9 note=69 velocity=49 time=0\n",
      "note_off channel=9 note=69 velocity=64 time=0\n",
      "note_off channel=0 note=66 velocity=64 time=0\n",
      "note_off channel=0 note=57 velocity=64 time=0\n",
      "note_on channel=6 note=66 velocity=77 time=0\n",
      "note_on channel=10 note=62 velocity=75 time=0\n",
      "note_on channel=10 note=57 velocity=64 time=0\n",
      "note_off channel=3 note=69 velocity=64 time=16\n",
      "note_off channel=6 note=66 velocity=64 time=4\n",
      "note_off channel=10 note=62 velocity=64 time=0\n",
      "note_off channel=10 note=57 velocity=64 time=1\n",
      "note_off channel=6 note=69 velocity=64 time=2\n",
      "note_on channel=9 note=69 velocity=47 time=1\n",
      "note_off channel=9 note=69 velocity=64 time=0\n",
      "note_on channel=6 note=57 velocity=63 time=0\n",
      "note_on channel=10 note=54 velocity=58 time=1\n",
      "note_off channel=8 note=81 velocity=64 time=2\n",
      "note_off channel=1 note=33 velocity=64 time=4\n",
      "note_off channel=10 note=54 velocity=64 time=6\n",
      "note_off channel=6 note=57 velocity=64 time=5\n",
      "note_off channel=4 note=69 velocity=64 time=5\n",
      "note_off channel=4 note=62 velocity=64 time=0\n",
      "note_on channel=1 note=33 velocity=89 time=0\n",
      "note_on channel=6 note=69 velocity=66 time=0\n",
      "note_on channel=6 note=66 velocity=72 time=0\n",
      "note_on channel=10 note=57 velocity=62 time=0\n",
      "<meta message lyrics text='beat ' time=1>\n",
      "note_on channel=3 note=69 velocity=109 time=0\n",
      "note_on channel=4 note=62 velocity=87 time=0\n",
      "note_on channel=4 note=69 velocity=109 time=0\n",
      "note_on channel=9 note=36 velocity=107 time=0\n",
      "note_off channel=9 note=36 velocity=64 time=0\n",
      "note_on channel=9 note=46 velocity=43 time=0\n",
      "note_off channel=9 note=46 velocity=64 time=0\n",
      "note_on channel=9 note=69 velocity=69 time=0\n",
      "note_off channel=9 note=69 velocity=64 time=0\n",
      "note_on channel=0 note=57 velocity=89 time=0\n",
      "note_on channel=0 note=66 velocity=81 time=0\n",
      "note_on channel=0 note=62 velocity=99 time=0\n",
      "note_on channel=10 note=62 velocity=75 time=0\n",
      "note_on channel=8 note=81 velocity=81 time=0\n",
      "note_off channel=10 note=57 velocity=64 time=12\n",
      "note_off channel=6 note=66 velocity=64 time=2\n",
      "note_off channel=10 note=62 velocity=64 time=1\n",
      "note_off channel=6 note=69 velocity=64 time=1\n",
      "note_on channel=6 note=69 velocity=64 time=7\n",
      "note_on channel=10 note=62 velocity=62 time=0\n",
      "note_on channel=9 note=69 velocity=49 time=1\n",
      "note_off channel=9 note=69 velocity=64 time=0\n",
      "note_on channel=6 note=66 velocity=76 time=0\n",
      "note_on channel=10 note=57 velocity=63 time=0\n",
      "note_off channel=10 note=57 velocity=64 time=17\n",
      "note_off channel=1 note=33 velocity=64 time=3\n",
      "note_off channel=10 note=62 velocity=64 time=0\n",
      "note_off channel=6 note=66 velocity=64 time=3\n",
      "note_off channel=6 note=69 velocity=64 time=0\n",
      "note_on channel=9 note=36 velocity=111 time=1\n",
      "note_off channel=9 note=36 velocity=64 time=0\n",
      "note_on channel=9 note=42 velocity=63 time=0\n",
      "note_off channel=9 note=42 velocity=64 time=0\n",
      "note_on channel=9 note=69 velocity=50 time=0\n",
      "note_off channel=9 note=69 velocity=64 time=0\n",
      "note_on channel=6 note=57 velocity=59 time=0\n",
      "note_on channel=10 note=54 velocity=60 time=0\n",
      "note_off channel=6 note=57 velocity=64 time=13\n",
      "note_off channel=10 note=54 velocity=64 time=1\n",
      "note_on channel=1 note=33 velocity=77 time=8\n",
      "note_on channel=6 note=69 velocity=71 time=0\n",
      "note_on channel=6 note=66 velocity=77 time=0\n",
      "note_on channel=10 note=62 velocity=74 time=0\n",
      "note_on channel=10 note=57 velocity=71 time=0\n",
      "note_on channel=9 note=69 velocity=46 time=2\n",
      "note_off channel=9 note=69 velocity=64 time=0\n",
      "note_off channel=10 note=57 velocity=64 time=10\n",
      "note_off channel=6 note=66 velocity=64 time=1\n",
      "note_off channel=10 note=62 velocity=64 time=4\n",
      "note_off channel=3 note=69 velocity=64 time=1\n",
      "note_off channel=6 note=69 velocity=64 time=0\n",
      "note_off channel=1 note=33 velocity=64 time=5\n",
      "note_on channel=1 note=28 velocity=69 time=0\n",
      "note_off channel=4 note=62 velocity=64 time=2\n",
      "note_on channel=6 note=66 velocity=73 time=0\n",
      "note_on channel=6 note=69 velocity=65 time=0\n",
      "note_on channel=10 note=57 velocity=64 time=0\n",
      "note_on channel=10 note=62 velocity=75 time=0\n",
      "note_off channel=8 note=81 velocity=64 time=0\n",
      "<meta message lyrics text='from ' time=1>\n",
      "note_on channel=3 note=71 velocity=107 time=0\n",
      "note_off channel=4 note=69 velocity=64 time=0\n",
      "note_on channel=4 note=62 velocity=87 time=0\n",
      "note_on channel=4 note=71 velocity=107 time=0\n",
      "note_on channel=9 note=46 velocity=43 time=0\n",
      "note_off channel=9 note=46 velocity=64 time=0\n",
      "note_on channel=9 note=69 velocity=71 time=0\n",
      "note_off channel=9 note=69 velocity=64 time=0\n",
      "note_on channel=8 note=83 velocity=85 time=0\n",
      "note_off channel=0 note=57 velocity=64 time=12\n",
      "note_off channel=0 note=62 velocity=64 time=5\n",
      "note_off channel=0 note=66 velocity=64 time=0\n",
      "note_off channel=1 note=28 velocity=64 time=4\n",
      "note_off channel=6 note=66 velocity=64 time=0\n",
      "note_on channel=1 note=29 velocity=82 time=1\n",
      "note_on channel=6 note=57 velocity=60 time=0\n",
      "note_off channel=10 note=62 velocity=64 time=0\n",
      "note_off channel=6 note=69 velocity=64 time=1\n",
      "note_on channel=9 note=69 velocity=40 time=1\n",
      "note_off channel=9 note=69 velocity=64 time=0\n",
      "note_on channel=0 note=90 velocity=106 time=0\n",
      "note_on channel=0 note=93 velocity=106 time=0\n",
      "note_on channel=0 note=86 velocity=106 time=0\n",
      "note_on channel=10 note=54 velocity=52 time=0\n",
      "note_off channel=10 note=57 velocity=64 time=2\n",
      "note_off channel=0 note=86 velocity=64 time=9\n",
      "note_off channel=0 note=93 velocity=64 time=2\n",
      "note_off channel=0 note=90 velocity=64 time=1\n",
      "note_off channel=10 note=54 velocity=64 time=5\n",
      "note_off channel=1 note=29 velocity=64 time=3\n",
      "note_on channel=6 note=66 velocity=76 time=0\n",
      "note_on channel=9 note=42 velocity=61 time=1\n",
      "note_off channel=9 note=42 velocity=64 time=0\n",
      "note_on channel=1 note=30 velocity=96 time=0\n",
      "note_on channel=6 note=69 velocity=71 time=0\n",
      "note_on channel=9 note=40 velocity=110 time=1\n",
      "note_off channel=9 note=40 velocity=64 time=0\n",
      "note_on channel=9 note=69 velocity=52 time=0\n",
      "note_off channel=9 note=69 velocity=64 time=0\n",
      "note_on channel=0 note=93 velocity=105 time=0\n",
      "note_on channel=0 note=86 velocity=105 time=0\n",
      "note_on channel=0 note=90 velocity=105 time=0\n",
      "note_on channel=10 note=57 velocity=71 time=0\n",
      "note_on channel=10 note=62 velocity=71 time=0\n",
      "note_off channel=1 note=30 velocity=64 time=15\n",
      "note_off channel=6 note=57 velocity=64 time=5\n",
      "note_off channel=10 note=62 velocity=64 time=0\n",
      "note_off channel=8 note=83 velocity=64 time=0\n",
      "note_on channel=8 note=81 velocity=73 time=1\n",
      "note_on channel=1 note=30 velocity=81 time=2\n",
      "note_on channel=10 note=54 velocity=65 time=0\n",
      "note_on channel=9 note=42 velocity=43 time=1\n",
      "note_off channel=9 note=42 velocity=64 time=0\n",
      "note_on channel=9 note=69 velocity=43 time=0\n",
      "note_off channel=9 note=69 velocity=64 time=0\n",
      "note_off channel=10 note=57 velocity=64 time=0\n",
      "note_off channel=6 note=69 velocity=64 time=1\n",
      "note_off channel=6 note=66 velocity=64 time=0\n",
      "note_off channel=10 note=54 velocity=64 time=14\n",
      "note_off channel=3 note=71 velocity=64 time=5\n",
      "note_off channel=1 note=30 velocity=64 time=1\n",
      "<meta message lyrics text='the ' time=1>\n",
      "note_on channel=3 note=69 velocity=107 time=0\n",
      "note_on channel=1 note=33 velocity=77 time=1\n",
      "note_on channel=6 note=69 velocity=74 time=0\n",
      "note_on channel=6 note=66 velocity=67 time=0\n",
      "note_on channel=10 note=57 velocity=63 time=0\n",
      "note_off channel=4 note=71 velocity=64 time=1\n",
      "note_off channel=4 note=62 velocity=64 time=0\n",
      "note_on channel=4 note=69 velocity=107 time=0\n",
      "note_on channel=4 note=59 velocity=88 time=0\n",
      "note_on channel=9 note=46 velocity=45 time=0\n",
      "note_off channel=9 note=46 velocity=64 time=0\n",
      "note_on channel=9 note=69 velocity=64 time=0\n",
      "note_off channel=9 note=69 velocity=64 time=0\n",
      "note_on channel=10 note=62 velocity=64 time=0\n",
      "note_off channel=10 note=62 velocity=64 time=8\n",
      "note_off channel=10 note=57 velocity=64 time=4\n",
      "note_off channel=1 note=33 velocity=64 time=11\n",
      "note_on channel=1 note=30 velocity=95 time=0\n",
      "note_on channel=10 note=57 velocity=60 time=0\n",
      "note_on channel=9 note=69 velocity=43 time=1\n",
      "note_off channel=9 note=69 velocity=64 time=0\n",
      "note_on channel=10 note=62 velocity=67 time=0\n",
      "note_off channel=0 note=90 velocity=64 time=3\n",
      "note_off channel=0 note=86 velocity=64 time=0\n",
      "note_off channel=0 note=93 velocity=64 time=0\n",
      "note_off channel=6 note=69 velocity=64 time=5\n",
      "note_off channel=6 note=66 velocity=64 time=4\n",
      "note_off channel=10 note=57 velocity=64 time=7\n",
      "note_off channel=10 note=62 velocity=64 time=2\n",
      "note_on channel=9 note=36 velocity=110 time=2\n",
      "note_off channel=9 note=36 velocity=64 time=0\n",
      "note_on channel=9 note=42 velocity=65 time=0\n",
      "note_off channel=9 note=42 velocity=64 time=0\n",
      "note_off channel=1 note=30 velocity=64 time=0\n",
      "note_on channel=1 note=33 velocity=78 time=0\n",
      "note_on channel=0 note=56 velocity=73 time=0\n",
      "note_on channel=0 note=64 velocity=78 time=0\n",
      "note_off channel=8 note=81 velocity=64 time=0\n",
      "<meta message lyrics text='tam' time=1>\n",
      "note_off channel=3 note=69 velocity=64 time=0\n",
      "note_on channel=3 note=71 velocity=110 time=0\n",
      "note_off channel=4 note=59 velocity=64 time=0\n",
      "note_off channel=4 note=69 velocity=64 time=0\n",
      "note_on channel=4 note=68 velocity=79 time=0\n",
      "note_on channel=4 note=64 velocity=88 time=0\n",
      "note_on channel=4 note=71 velocity=110 time=0\n",
      "note_on channel=6 note=57 velocity=79 time=0\n",
      "note_on channel=8 note=83 velocity=81 time=0\n",
      "note_off channel=7 note=62 velocity=64 time=0\n",
      "note_off channel=7 note=66 velocity=64 time=0\n",
      "note_off channel=7 note=57 velocity=64 time=0\n",
      "note_on channel=7 note=59 velocity=81 time=0\n",
      "note_on channel=7 note=68 velocity=74 time=0\n",
      "note_on channel=7 note=64 velocity=82 time=0\n",
      "note_on channel=9 note=69 velocity=47 time=1\n",
      "note_off channel=9 note=69 velocity=64 time=0\n",
      "note_off channel=6 note=57 velocity=64 time=11\n",
      "note_on channel=10 note=59 velocity=71 time=11\n",
      "note_on channel=10 note=64 velocity=64 time=0\n",
      "note_on channel=9 note=42 velocity=45 time=1\n",
      "note_off channel=9 note=42 velocity=64 time=0\n",
      "note_on channel=6 note=68 velocity=58 time=0\n",
      "note_on channel=6 note=64 velocity=71 time=0\n",
      "note_on channel=9 note=69 velocity=45 time=1\n",
      "note_off channel=9 note=69 velocity=64 time=0\n",
      "note_off channel=10 note=59 velocity=64 time=11\n",
      "note_off channel=6 note=64 velocity=64 time=2\n",
      "note_off channel=10 note=64 velocity=64 time=0\n",
      "note_on channel=9 note=46 velocity=51 time=9\n",
      "note_off channel=9 note=46 velocity=64 time=0\n",
      "note_on channel=10 note=59 velocity=61 time=0\n",
      "note_on channel=10 note=64 velocity=64 time=0\n",
      "note_on channel=9 note=69 velocity=66 time=1\n",
      "note_off channel=9 note=69 velocity=64 time=0\n",
      "note_on channel=6 note=64 velocity=85 time=0\n",
      "note_off channel=1 note=33 velocity=64 time=5\n",
      "note_off channel=0 note=56 velocity=64 time=9\n",
      "note_off channel=0 note=64 velocity=64 time=5\n",
      "note_off channel=8 note=83 velocity=64 time=3\n",
      "note_off channel=4 note=64 velocity=64 time=1\n",
      "note_on channel=9 note=36 velocity=107 time=0\n",
      "note_off channel=9 note=36 velocity=64 time=0\n",
      "note_on channel=1 note=33 velocity=71 time=0\n",
      "note_off channel=10 note=64 velocity=64 time=0\n",
      "note_off channel=10 note=59 velocity=64 time=0\n",
      "note_off channel=3 note=71 velocity=64 time=1\n",
      "note_off channel=4 note=71 velocity=64 time=0\n",
      "note_off channel=4 note=68 velocity=64 time=0\n",
      "note_on channel=4 note=69 velocity=87 time=0\n",
      "note_on channel=4 note=64 velocity=88 time=0\n",
      "note_on channel=4 note=73 velocity=109 time=0\n",
      "note_on channel=9 note=69 velocity=43 time=0\n",
      "note_off channel=9 note=69 velocity=64 time=0\n",
      "note_on channel=10 note=56 velocity=58 time=0\n",
      "note_off channel=7 note=68 velocity=64 time=0\n",
      "note_off channel=7 note=59 velocity=64 time=0\n",
      "note_on channel=7 note=69 velocity=77 time=0\n",
      "note_on channel=7 note=61 velocity=73 time=0\n",
      "<meta message lyrics text='bou' time=1>\n",
      "note_on channel=3 note=73 velocity=109 time=0\n",
      "note_on channel=0 note=61 velocity=75 time=0\n",
      "note_on channel=0 note=64 velocity=89 time=0\n",
      "note_on channel=6 note=57 velocity=64 time=0\n",
      "note_on channel=8 note=85 velocity=68 time=0\n",
      "note_off channel=6 note=64 velocity=64 time=3\n",
      "note_off channel=6 note=68 velocity=64 time=4\n",
      "note_off channel=6 note=57 velocity=64 time=4\n",
      "note_off channel=1 note=33 velocity=64 time=4\n",
      "note_on channel=9 note=40 velocity=104 time=6\n",
      "note_off channel=9 note=40 velocity=64 time=0\n",
      "note_off channel=10 note=56 velocity=64 time=1\n",
      "note_on channel=10 note=59 velocity=72 time=0\n",
      "note_on channel=10 note=64 velocity=70 time=0\n",
      "note_on channel=9 note=42 velocity=63 time=1\n",
      "note_off channel=9 note=42 velocity=64 time=0\n",
      "note_on channel=9 note=69 velocity=50 time=0\n",
      "note_off channel=9 note=69 velocity=64 time=0\n",
      "note_on channel=1 note=33 velocity=97 time=0\n",
      "note_on channel=6 note=68 velocity=65 time=0\n",
      "note_on channel=6 note=64 velocity=79 time=0\n",
      "note_off channel=3 note=73 velocity=64 time=3\n",
      "note_off channel=0 note=64 velocity=64 time=1\n",
      "note_off channel=0 note=61 velocity=64 time=0\n",
      "note_off channel=10 note=59 velocity=64 time=7\n",
      "note_off channel=6 note=64 velocity=64 time=3\n",
      "note_off channel=10 note=64 velocity=64 time=1\n",
      "note_off channel=6 note=68 velocity=64 time=1\n",
      "note_on channel=10 note=56 velocity=56 time=6\n",
      "note_on channel=6 note=57 velocity=68 time=1\n",
      "note_on channel=9 note=69 velocity=46 time=1\n",
      "note_off channel=9 note=69 velocity=64 time=0\n",
      "note_off channel=1 note=33 velocity=64 time=6\n",
      "note_off channel=6 note=57 velocity=64 time=7\n",
      "note_off channel=8 note=85 velocity=64 time=3\n",
      "note_on channel=10 note=59 velocity=75 time=6\n",
      "note_on channel=10 note=64 velocity=73 time=0\n",
      "note_off channel=4 note=73 velocity=64 time=1\n",
      "note_off channel=4 note=64 velocity=64 time=0\n",
      "note_off channel=4 note=69 velocity=64 time=0\n",
      "note_on channel=9 note=36 velocity=107 time=0\n",
      "note_off channel=9 note=36 velocity=64 time=0\n",
      "note_on channel=1 note=33 velocity=86 time=0\n",
      "note_on channel=6 note=64 velocity=79 time=0\n",
      "note_on channel=6 note=68 velocity=62 time=0\n",
      "note_on channel=4 note=69 velocity=90 time=1\n",
      "note_on channel=4 note=64 velocity=88 time=0\n",
      "note_on channel=4 note=73 velocity=110 time=0\n",
      "note_on channel=9 note=46 velocity=47 time=0\n",
      "note_off channel=9 note=46 velocity=64 time=0\n",
      "note_on channel=9 note=69 velocity=62 time=0\n",
      "note_off channel=9 note=69 velocity=64 time=0\n",
      "note_on channel=0 note=64 velocity=89 time=0\n",
      "note_on channel=0 note=61 velocity=85 time=0\n",
      "note_on channel=8 note=85 velocity=67 time=0\n",
      "<meta message lyrics text='rine, ' time=1>\n",
      "note_on channel=3 note=73 velocity=110 time=0\n",
      "note_off channel=10 note=59 velocity=64 time=13\n",
      "note_off channel=6 note=68 velocity=64 time=2\n",
      "note_off channel=10 note=56 velocity=64 time=4\n",
      "note_on channel=10 note=57 velocity=72 time=3\n",
      "note_on channel=10 note=61 velocity=75 time=0\n",
      "note_on channel=9 note=69 velocity=47 time=1\n",
      "note_off channel=9 note=69 velocity=64 time=0\n",
      "note_on channel=6 note=69 velocity=74 time=0\n",
      "note_off channel=1 note=33 velocity=64 time=18\n",
      "note_on channel=9 note=36 velocity=110 time=5\n",
      "note_off channel=9 note=36 velocity=64 time=0\n",
      "note_on channel=9 note=42 velocity=54 time=1\n",
      "note_off channel=9 note=42 velocity=64 time=0\n",
      "note_on channel=9 note=69 velocity=47 time=0\n",
      "note_off channel=9 note=69 velocity=64 time=0\n",
      "note_on channel=1 note=33 velocity=84 time=23\n",
      "note_on channel=9 note=69 velocity=43 time=1\n",
      "note_off channel=9 note=69 velocity=64 time=0\n",
      "note_off channel=10 note=64 velocity=64 time=14\n",
      "note_off channel=10 note=57 velocity=64 time=4\n",
      "note_off channel=0 note=61 velocity=64 time=1\n",
      "note_off channel=10 note=61 velocity=64 time=0\n",
      "note_off channel=0 note=64 velocity=64 time=4\n",
      "note_on channel=9 note=46 velocity=40 time=1\n",
      "note_off channel=9 note=46 velocity=64 time=0\n",
      "note_on channel=9 note=69 velocity=71 time=0\n",
      "note_off channel=9 note=69 velocity=64 time=0\n",
      "note_on channel=6 note=57 velocity=67 time=0\n",
      "note_off channel=6 note=69 velocity=64 time=4\n",
      "note_off channel=6 note=64 velocity=64 time=0\n",
      "note_off channel=6 note=57 velocity=64 time=6\n",
      "note_on channel=9 note=69 velocity=39 time=14\n",
      "note_off channel=9 note=69 velocity=64 time=0\n",
      "note_on channel=0 note=93 velocity=103 time=1\n",
      "note_on channel=0 note=88 velocity=103 time=1\n",
      "note_on channel=0 note=97 velocity=103 time=0\n",
      "note_off channel=0 note=97 velocity=64 time=10\n",
      "note_off channel=0 note=93 velocity=64 time=1\n",
      "note_off channel=0 note=88 velocity=64 time=1\n",
      "note_off channel=3 note=73 velocity=64 time=7\n",
      "note_off channel=4 note=64 velocity=64 time=2\n",
      "note_on channel=9 note=40 velocity=104 time=0\n",
      "note_off channel=9 note=40 velocity=64 time=0\n",
      "note_on channel=6 note=68 velocity=73 time=0\n",
      "note_on channel=6 note=64 velocity=85 time=0\n",
      "note_off channel=4 note=73 velocity=64 time=1\n",
      "note_off channel=4 note=69 velocity=64 time=0\n",
      "note_on channel=4 note=64 velocity=88 time=0\n",
      "note_on channel=4 note=68 velocity=74 time=0\n",
      "note_on channel=4 note=71 velocity=110 time=0\n",
      "note_on channel=9 note=42 velocity=61 time=0\n",
      "note_off channel=9 note=42 velocity=64 time=0\n",
      "note_on channel=9 note=69 velocity=52 time=0\n",
      "note_off channel=9 note=69 velocity=64 time=0\n",
      "note_off channel=1 note=33 velocity=64 time=0\n",
      "note_on channel=1 note=32 velocity=83 time=0\n",
      "note_on channel=0 note=97 velocity=103 time=0\n",
      "note_on channel=0 note=88 velocity=103 time=0\n",
      "note_off channel=7 note=61 velocity=64 time=0\n",
      "note_off channel=7 note=69 velocity=64 time=0\n",
      "note_on channel=7 note=68 velocity=75 time=0\n",
      "note_on channel=7 note=59 velocity=84 time=0\n",
      "<meta message lyrics text='oh ' time=1>\n",
      "note_on channel=3 note=71 velocity=110 time=0\n",
      "note_on channel=0 note=93 velocity=103 time=0\n",
      "note_on channel=9 note=42 velocity=44 time=23\n",
      "note_off channel=9 note=42 velocity=64 time=0\n",
      "note_on channel=9 note=69 velocity=45 time=0\n",
      "note_off channel=9 note=69 velocity=64 time=0\n",
      "note_on channel=9 note=46 velocity=51 time=23\n",
      "note_off channel=9 note=46 velocity=64 time=0\n",
      "note_off channel=6 note=64 velocity=64 time=0\n",
      "note_on channel=9 note=69 velocity=67 time=1\n",
      "note_off channel=9 note=69 velocity=64 time=0\n",
      "note_on channel=6 note=57 velocity=65 time=0\n",
      "note_off channel=0 note=93 velocity=64 time=1\n",
      "note_off channel=0 note=88 velocity=64 time=3\n",
      "note_off channel=0 note=97 velocity=64 time=0\n",
      "note_off channel=6 note=68 velocity=64 time=0\n",
      "note_off channel=6 note=57 velocity=64 time=4\n",
      "note_on channel=9 note=69 velocity=41 time=16\n",
      "note_off channel=9 note=69 velocity=64 time=0\n",
      "note_on channel=0 note=95 velocity=103 time=1\n",
      "note_on channel=0 note=92 velocity=103 time=0\n",
      "note_on channel=0 note=88 velocity=103 time=0\n",
      "note_off channel=7 note=59 velocity=64 time=6\n",
      "note_off channel=0 note=92 velocity=64 time=4\n",
      "note_off channel=7 note=64 velocity=64 time=0\n",
      "note_off channel=0 note=88 velocity=64 time=1\n",
      "note_off channel=0 note=95 velocity=64 time=1\n",
      "note_off channel=3 note=71 velocity=64 time=3\n",
      "note_off channel=1 note=32 velocity=64 time=2\n",
      "note_on channel=1 note=30 velocity=76 time=4\n",
      "note_on channel=9 note=36 velocity=112 time=1\n",
      "note_off channel=9 note=36 velocity=64 time=0\n",
      "note_on channel=9 note=42 velocity=63 time=0\n",
      "note_off channel=9 note=42 velocity=64 time=0\n",
      "note_on channel=0 note=88 velocity=104 time=0\n",
      "note_off channel=4 note=71 velocity=64 time=1\n",
      "note_off channel=4 note=68 velocity=64 time=0\n",
      "note_off channel=4 note=64 velocity=64 time=0\n",
      "note_on channel=4 note=57 velocity=78 time=0\n",
      "note_on channel=4 note=69 velocity=78 time=0\n",
      "note_on channel=4 note=73 velocity=109 time=0\n",
      "note_on channel=9 note=69 velocity=52 time=0\n",
      "note_off channel=9 note=69 velocity=64 time=0\n",
      "note_on channel=0 note=92 velocity=104 time=0\n",
      "note_on channel=0 note=95 velocity=104 time=0\n",
      "note_on channel=6 note=66 velocity=87 time=0\n",
      "note_on channel=7 note=57 velocity=80 time=0\n",
      "note_on channel=7 note=66 velocity=78 time=0\n",
      "note_on channel=7 note=62 velocity=65 time=0\n",
      "<meta message lyrics text='yeah. ' time=1>\n",
      "<meta message lyrics text='\\r' time=0>\n",
      "note_on channel=3 note=73 velocity=109 time=0\n",
      "note_on channel=6 note=62 velocity=79 time=0\n",
      "note_off channel=8 note=85 velocity=64 time=2\n",
      "note_off channel=7 note=68 velocity=64 time=0\n",
      "note_on channel=9 note=42 velocity=47 time=20\n",
      "note_off channel=9 note=42 velocity=64 time=0\n",
      "note_off channel=4 note=73 velocity=64 time=1\n",
      "note_off channel=4 note=69 velocity=64 time=0\n",
      "note_on channel=4 note=68 velocity=78 time=0\n",
      "note_on channel=4 note=71 velocity=107 time=0\n",
      "note_on channel=9 note=69 velocity=43 time=0\n",
      "note_off channel=9 note=69 velocity=64 time=0\n",
      "note_off channel=3 note=73 velocity=64 time=1\n",
      "note_on channel=3 note=71 velocity=107 time=1\n",
      "note_off channel=1 note=30 velocity=64 time=15\n",
      "note_off channel=3 note=71 velocity=64 time=5\n",
      "note_on channel=9 note=46 velocity=47 time=0\n",
      "note_off channel=9 note=46 velocity=64 time=0\n",
      "note_off channel=0 note=92 velocity=64 time=0\n",
      "note_off channel=4 note=71 velocity=64 time=2\n",
      "note_off channel=4 note=68 velocity=64 time=0\n",
      "note_on channel=4 note=66 velocity=79 time=0\n",
      "note_on channel=4 note=69 velocity=105 time=0\n",
      "note_on channel=9 note=69 velocity=69 time=0\n",
      "note_off channel=9 note=69 velocity=64 time=0\n",
      "note_off channel=0 note=95 velocity=64 time=0\n",
      "note_on channel=3 note=69 velocity=105 time=2\n",
      "note_off channel=0 note=88 velocity=64 time=2\n",
      "note_on channel=1 note=30 velocity=76 time=18\n",
      "note_on channel=9 note=36 velocity=102 time=2\n",
      "note_off channel=9 note=36 velocity=64 time=0\n",
      "note_on channel=9 note=69 velocity=49 time=0\n",
      "note_off channel=9 note=69 velocity=64 time=0\n",
      "note_on channel=0 note=86 velocity=106 time=1\n",
      "note_on channel=0 note=93 velocity=106 time=0\n",
      "note_on channel=0 note=90 velocity=106 time=0\n",
      "note_off channel=6 note=62 velocity=64 time=3\n",
      "note_off channel=0 note=90 velocity=64 time=5\n",
      "note_off channel=1 note=30 velocity=64 time=1\n",
      "note_off channel=0 note=93 velocity=64 time=0\n",
      "note_off channel=0 note=86 velocity=64 time=2\n",
      "note_on channel=1 note=30 velocity=103 time=10\n",
      "note_on channel=9 note=42 velocity=59 time=1\n",
      "note_off channel=9 note=42 velocity=64 time=0\n",
      "note_on channel=9 note=40 velocity=94 time=1\n",
      "note_off channel=9 note=40 velocity=64 time=0\n",
      "note_on channel=9 note=69 velocity=50 time=0\n",
      "note_off channel=9 note=69 velocity=64 time=0\n",
      "note_on channel=0 note=93 velocity=107 time=0\n",
      "note_on channel=0 note=86 velocity=107 time=0\n",
      "note_on channel=0 note=90 velocity=107 time=0\n",
      "note_off channel=6 note=66 velocity=64 time=8\n",
      "note_off channel=0 note=90 velocity=64 time=4\n",
      "note_off channel=0 note=93 velocity=64 time=2\n",
      "note_off channel=0 note=86 velocity=64 time=3\n",
      "note_on channel=9 note=69 velocity=43 time=7\n",
      "note_off channel=9 note=69 velocity=64 time=0\n",
      "<meta message lyrics text='\\n' time=9>\n",
      "note_off channel=1 note=30 velocity=64 time=10\n",
      "note_on channel=1 note=28 velocity=86 time=4\n",
      "note_on channel=6 note=64 velocity=73 time=0\n",
      "note_off channel=4 note=66 velocity=64 time=1\n",
      "note_on channel=4 note=64 velocity=81 time=0\n",
      "note_on channel=9 note=36 velocity=104 time=0\n",
      "note_off channel=9 note=36 velocity=64 time=0\n",
      "note_on channel=9 note=46 velocity=41 time=0\n",
      "note_off channel=9 note=46 velocity=64 time=0\n",
      "note_on channel=9 note=69 velocity=63 time=0\n",
      "note_off channel=9 note=69 velocity=64 time=0\n",
      "note_on channel=6 note=61 velocity=74 time=0\n",
      "note_off channel=7 note=62 velocity=64 time=0\n",
      "note_off channel=7 note=66 velocity=64 time=0\n",
      "note_on channel=7 note=64 velocity=85 time=0\n",
      "note_on channel=7 note=61 velocity=71 time=0\n",
      "note_on channel=0 note=88 velocity=107 time=1\n",
      "note_on channel=0 note=85 velocity=107 time=0\n",
      "note_on channel=9 note=69 velocity=43 time=23\n",
      "note_off channel=9 note=69 velocity=64 time=0\n",
      "note_on channel=9 note=42 velocity=70 time=23\n",
      "note_off channel=9 note=42 velocity=64 time=0\n",
      "note_off channel=1 note=28 velocity=64 time=0\n",
      "note_on channel=9 note=36 velocity=104 time=1\n",
      "note_off channel=9 note=36 velocity=64 time=0\n",
      "note_on channel=9 note=69 velocity=49 time=0\n",
      "note_off channel=9 note=69 velocity=64 time=0\n",
      "note_on channel=9 note=40 velocity=104 time=23\n",
      "note_off channel=9 note=40 velocity=64 time=0\n",
      "note_on channel=1 note=28 velocity=87 time=0\n",
      "note_on channel=9 note=69 velocity=41 time=1\n",
      "note_off channel=9 note=69 velocity=64 time=0\n",
      "note_off channel=1 note=28 velocity=64 time=12\n",
      "note_on channel=9 note=69 velocity=67 time=12\n",
      "note_off channel=9 note=69 velocity=64 time=0\n",
      "note_on channel=1 note=28 velocity=89 time=0\n",
      "note_on channel=9 note=69 velocity=44 time=24\n",
      "note_off channel=9 note=69 velocity=64 time=0\n",
      "note_off channel=1 note=28 velocity=64 time=19\n",
      "note_on channel=9 note=42 velocity=73 time=4\n",
      "note_off channel=9 note=42 velocity=64 time=0\n",
      "note_on channel=9 note=40 velocity=110 time=1\n",
      "note_off channel=9 note=40 velocity=64 time=0\n",
      "note_on channel=9 note=69 velocity=59 time=0\n",
      "note_off channel=9 note=69 velocity=64 time=0\n",
      "note_on channel=1 note=35 velocity=83 time=0\n",
      "note_off channel=3 note=69 velocity=64 time=4\n",
      "note_on channel=9 note=69 velocity=47 time=20\n",
      "note_off channel=9 note=69 velocity=64 time=0\n",
      "note_off channel=1 note=35 velocity=64 time=0\n",
      "note_on channel=1 note=37 velocity=74 time=0\n",
      "note_off channel=1 note=37 velocity=64 time=18\n",
      "note_on channel=1 note=40 velocity=78 time=5\n",
      "note_on channel=9 note=46 velocity=43 time=1\n",
      "note_off channel=9 note=46 velocity=64 time=0\n",
      "note_on channel=9 note=69 velocity=68 time=0\n",
      "note_off channel=9 note=69 velocity=64 time=0\n",
      "note_off channel=0 note=85 velocity=64 time=4\n",
      "note_off channel=0 note=88 velocity=64 time=3\n",
      "note_off channel=6 note=61 velocity=64 time=10\n",
      "note_off channel=6 note=64 velocity=64 time=4\n",
      "note_on channel=9 note=69 velocity=41 time=3\n",
      "note_off channel=9 note=69 velocity=64 time=0\n",
      "note_on channel=9 note=42 velocity=57 time=21\n",
      "note_off channel=9 note=42 velocity=64 time=0\n",
      "note_off channel=7 note=64 velocity=64 time=2\n",
      "<meta message lyrics text='You ' time=1>\n",
      "note_on channel=3 note=73 velocity=112 time=0\n",
      "note_off channel=4 note=64 velocity=64 time=0\n",
      "note_off channel=4 note=69 velocity=64 time=0\n",
      "note_off channel=4 note=57 velocity=64 time=0\n",
      "note_on channel=4 note=68 velocity=73 time=0\n",
      "note_on channel=4 note=73 velocity=106 time=0\n",
      "note_on channel=9 note=36 velocity=112 time=0\n",
      "note_off channel=9 note=36 velocity=64 time=0\n",
      "note_on channel=9 note=42 velocity=62 time=0\n",
      "note_off channel=9 note=42 velocity=64 time=0\n",
      "note_on channel=9 note=69 velocity=38 time=0\n",
      "note_off channel=9 note=69 velocity=64 time=0\n",
      "note_off channel=1 note=40 velocity=64 time=0\n",
      "note_on channel=1 note=28 velocity=124 time=0\n",
      "note_on channel=6 note=64 velocity=75 time=0\n",
      "note_on channel=6 note=56 velocity=75 time=0\n",
      "note_on channel=6 note=59 velocity=75 time=0\n",
      "note_on channel=10 note=56 velocity=79 time=0\n",
      "note_on channel=10 note=59 velocity=85 time=0\n",
      "note_on channel=8 note=68 velocity=76 time=0\n",
      "note_on channel=8 note=80 velocity=76 time=0\n",
      "note_off channel=7 note=61 velocity=64 time=0\n",
      "note_off channel=7 note=57 velocity=64 time=0\n",
      "note_on channel=7 note=64 velocity=69 time=0\n",
      "note_on channel=7 note=59 velocity=81 time=0\n",
      "note_on channel=7 note=56 velocity=71 time=0\n",
      "note_on channel=9 note=69 velocity=41 time=23\n",
      "note_off channel=9 note=69 velocity=64 time=0\n",
      "note_on channel=9 note=42 velocity=47 time=1\n",
      "note_off channel=9 note=42 velocity=64 time=0\n",
      "note_on channel=9 note=46 velocity=56 time=23\n",
      "note_off channel=9 note=46 velocity=64 time=0\n",
      "note_on channel=9 note=69 velocity=48 time=0\n",
      "note_off channel=9 note=69 velocity=64 time=0\n",
      "note_on channel=9 note=54 velocity=44 time=0\n",
      "note_off channel=9 note=54 velocity=64 time=0\n",
      "note_off channel=1 note=28 velocity=64 time=4\n",
      "note_off channel=6 note=59 velocity=64 time=8\n",
      "note_off channel=6 note=64 velocity=64 time=0\n",
      "note_off channel=10 note=59 velocity=64 time=3\n",
      "note_off channel=10 note=56 velocity=64 time=1\n",
      "note_off channel=6 note=56 velocity=64 time=5\n",
      "note_on channel=9 note=69 velocity=49 time=3\n",
      "note_off channel=9 note=69 velocity=64 time=0\n",
      "note_on channel=9 note=36 velocity=102 time=1\n",
      "note_off channel=9 note=36 velocity=64 time=0\n",
      "note_on channel=9 note=54 velocity=28 time=0\n",
      "note_off channel=9 note=54 velocity=64 time=0\n",
      "note_on channel=1 note=28 velocity=85 time=0\n",
      "note_on channel=0 note=56 velocity=73 time=0\n",
      "note_on channel=0 note=64 velocity=82 time=0\n",
      "note_on channel=10 note=59 velocity=93 time=0\n",
      "note_on channel=10 note=56 velocity=64 time=0\n",
      "note_on channel=6 note=59 velocity=69 time=2\n",
      "note_on channel=6 note=64 velocity=71 time=0\n",
      "note_on channel=6 note=56 velocity=48 time=1\n",
      "note_off channel=6 note=64 velocity=64 time=7\n",
      "note_off channel=6 note=59 velocity=64 time=0\n",
      "note_off channel=1 note=28 velocity=64 time=1\n",
      "note_off channel=10 note=59 velocity=64 time=4\n",
      "note_off channel=0 note=56 velocity=64 time=1\n",
      "note_off channel=0 note=64 velocity=64 time=1\n",
      "note_off channel=3 note=73 velocity=64 time=3\n",
      "<meta message lyrics text='can ' time=3>\n",
      "note_on channel=3 note=71 velocity=106 time=0\n",
      "note_off channel=4 note=68 velocity=64 time=0\n",
      "note_on channel=9 note=40 velocity=102 time=0\n",
      "note_off channel=9 note=40 velocity=64 time=0\n",
      "note_on channel=9 note=42 velocity=54 time=0\n",
      "note_off channel=9 note=42 velocity=64 time=0\n",
      "note_on channel=9 note=69 velocity=41 time=0\n",
      "note_off channel=9 note=69 velocity=64 time=0\n",
      "note_on channel=1 note=28 velocity=96 time=0\n",
      "note_off channel=4 note=73 velocity=64 time=1\n",
      "note_on channel=4 note=71 velocity=107 time=0\n",
      "note_on channel=4 note=68 velocity=74 time=0\n",
      "note_on channel=6 note=59 velocity=87 time=0\n",
      "note_on channel=6 note=64 velocity=72 time=0\n",
      "note_off channel=10 note=56 velocity=64 time=1\n",
      "note_off channel=6 note=64 velocity=64 time=10\n",
      "note_off channel=6 note=59 velocity=64 time=1\n",
      "note_off channel=6 note=56 velocity=64 time=2\n",
      "note_on channel=9 note=69 velocity=47 time=9\n",
      "note_off channel=9 note=69 velocity=64 time=0\n",
      "note_off channel=3 note=71 velocity=64 time=8\n",
      "note_off channel=1 note=28 velocity=64 time=4\n",
      "note_off channel=4 note=68 velocity=64 time=12\n",
      "note_off channel=4 note=71 velocity=64 time=0\n",
      "note_on channel=9 note=46 velocity=49 time=0\n",
      "note_off channel=9 note=46 velocity=64 time=0\n",
      "note_on channel=9 note=54 velocity=56 time=0\n",
      "note_off channel=9 note=54 velocity=64 time=0\n",
      "note_on channel=0 note=56 velocity=73 time=0\n",
      "note_on channel=0 note=64 velocity=76 time=0\n",
      "<meta message lyrics text='dance, ' time=1>\n",
      "note_on channel=3 note=71 velocity=108 time=0\n",
      "note_on channel=4 note=68 velocity=72 time=0\n",
      "note_on channel=4 note=71 velocity=107 time=0\n",
      "note_on channel=9 note=36 velocity=104 time=0\n",
      "note_off channel=9 note=36 velocity=64 time=0\n",
      "note_on channel=9 note=69 velocity=62 time=0\n",
      "note_off channel=9 note=69 velocity=64 time=0\n",
      "note_on channel=1 note=28 velocity=108 time=0\n",
      "note_on channel=6 note=59 velocity=86 time=0\n",
      "note_on channel=6 note=56 velocity=68 time=0\n",
      "note_on channel=6 note=64 velocity=74 time=0\n",
      "note_on channel=10 note=56 velocity=68 time=0\n",
      "note_on channel=10 note=59 velocity=87 time=0\n",
      "note_on channel=9 note=69 velocity=48 time=24\n",
      "note_off channel=9 note=69 velocity=64 time=0\n",
      "note_on channel=9 note=54 velocity=32 time=0\n",
      "note_off channel=9 note=54 velocity=64 time=0\n",
      "note_off channel=1 note=28 velocity=64 time=14\n",
      "note_on channel=9 note=36 velocity=110 time=10\n",
      "note_off channel=9 note=36 velocity=64 time=0\n",
      "note_on channel=9 note=42 velocity=46 time=0\n",
      "note_off channel=9 note=42 velocity=64 time=0\n",
      "note_on channel=9 note=69 velocity=36 time=0\n",
      "note_off channel=9 note=69 velocity=64 time=0\n",
      "note_off channel=6 note=64 velocity=64 time=0\n",
      "note_off channel=6 note=56 velocity=64 time=4\n",
      "note_off channel=6 note=59 velocity=64 time=0\n",
      "note_off channel=10 note=56 velocity=64 time=15\n",
      "note_off channel=10 note=59 velocity=64 time=1\n",
      "note_on channel=9 note=69 velocity=48 time=4\n",
      "note_off channel=9 note=69 velocity=64 time=0\n",
      "note_on channel=6 note=59 velocity=75 time=1\n",
      "note_on channel=6 note=64 velocity=74 time=0\n",
      "note_on channel=6 note=56 velocity=60 time=0\n",
      "note_off channel=6 note=59 velocity=64 time=12\n",
      "note_off channel=6 note=64 velocity=64 time=1\n",
      "note_off channel=8 note=80 velocity=64 time=7\n",
      "note_off channel=8 note=68 velocity=64 time=0\n",
      "note_on channel=8 note=76 velocity=75 time=1\n",
      "note_on channel=8 note=64 velocity=75 time=0\n",
      "note_on channel=9 note=54 velocity=53 time=1\n",
      "note_off channel=9 note=54 velocity=64 time=0\n",
      "note_on channel=1 note=40 velocity=93 time=0\n",
      "note_on channel=6 note=64 velocity=56 time=0\n",
      "note_on channel=6 note=59 velocity=95 time=0\n",
      "note_on channel=10 note=59 velocity=95 time=0\n",
      "note_on channel=10 note=56 velocity=71 time=0\n",
      "note_on channel=9 note=46 velocity=53 time=1\n",
      "note_off channel=9 note=46 velocity=64 time=0\n",
      "note_on channel=9 note=69 velocity=62 time=0\n",
      "note_off channel=9 note=69 velocity=64 time=0\n",
      "note_off channel=8 note=64 velocity=64 time=20\n",
      "note_off channel=8 note=76 velocity=64 time=0\n",
      "note_off channel=1 note=40 velocity=64 time=1\n",
      "note_on channel=8 note=78 velocity=67 time=0\n",
      "note_on channel=8 note=66 velocity=67 time=0\n",
      "note_on channel=1 note=35 velocity=73 time=2\n",
      "note_on channel=9 note=69 velocity=52 time=1\n",
      "note_off channel=9 note=69 velocity=64 time=0\n",
      "note_on channel=9 note=54 velocity=47 time=0\n",
      "note_off channel=9 note=54 velocity=64 time=0\n",
      "note_off channel=6 note=56 velocity=64 time=2\n",
      "note_off channel=6 note=64 velocity=64 time=1\n",
      "note_off channel=10 note=56 velocity=64 time=4\n",
      "note_off channel=6 note=59 velocity=64 time=1\n",
      "note_off channel=10 note=59 velocity=64 time=6\n",
      "note_off channel=8 note=66 velocity=64 time=7\n",
      "note_off channel=8 note=78 velocity=64 time=0\n",
      "note_off channel=1 note=35 velocity=64 time=1\n",
      "note_on channel=8 note=80 velocity=70 time=0\n",
      "note_on channel=8 note=68 velocity=70 time=0\n",
      "note_on channel=1 note=40 velocity=84 time=1\n",
      "note_on channel=9 note=40 velocity=110 time=1\n",
      "note_off channel=9 note=40 velocity=64 time=0\n",
      "note_on channel=9 note=42 velocity=56 time=0\n",
      "note_off channel=9 note=42 velocity=64 time=0\n",
      "note_on channel=9 note=69 velocity=34 time=0\n",
      "note_off channel=9 note=69 velocity=64 time=0\n",
      "note_on channel=6 note=64 velocity=86 time=0\n",
      "note_on channel=6 note=56 velocity=69 time=0\n",
      "note_on channel=6 note=59 velocity=86 time=0\n",
      "note_on channel=10 note=59 velocity=100 time=0\n",
      "note_on channel=10 note=56 velocity=74 time=0\n",
      "note_off channel=1 note=40 velocity=64 time=18\n",
      "note_off channel=8 note=68 velocity=64 time=3\n",
      "note_off channel=8 note=80 velocity=64 time=0\n",
      "note_on channel=1 note=35 velocity=69 time=1\n",
      "note_on channel=8 note=81 velocity=75 time=0\n",
      "note_on channel=8 note=69 velocity=75 time=0\n",
      "note_on channel=9 note=69 velocity=43 time=2\n",
      "note_off channel=9 note=69 velocity=64 time=0\n",
      "note_off channel=6 note=64 velocity=64 time=4\n",
      "note_off channel=6 note=56 velocity=64 time=3\n",
      "note_off channel=6 note=59 velocity=64 time=1\n",
      "note_off channel=1 note=35 velocity=64 time=6\n",
      "note_off channel=0 note=56 velocity=64 time=2\n",
      "note_off channel=0 note=64 velocity=64 time=6\n",
      "note_off channel=10 note=56 velocity=64 time=0\n",
      "note_on channel=1 note=35 velocity=87 time=1\n",
      "note_on channel=6 note=56 velocity=62 time=0\n",
      "note_on channel=6 note=59 velocity=83 time=0\n",
      "note_off channel=3 note=71 velocity=64 time=1\n",
      "note_on channel=9 note=46 velocity=45 time=0\n",
      "note_off channel=9 note=46 velocity=64 time=0\n",
      "note_on channel=9 note=69 velocity=63 time=0\n",
      "note_off channel=9 note=69 velocity=64 time=0\n",
      "note_on channel=9 note=54 velocity=78 time=0\n",
      "note_off channel=9 note=54 velocity=64 time=0\n",
      "note_on channel=6 note=64 velocity=70 time=0\n",
      "note_off channel=10 note=59 velocity=64 time=4\n",
      "note_off channel=6 note=59 velocity=64 time=8\n",
      "note_off channel=6 note=64 velocity=64 time=2\n",
      "note_off channel=1 note=35 velocity=64 time=1\n",
      "note_on channel=6 note=64 velocity=66 time=7\n",
      "note_on channel=1 note=36 velocity=85 time=1\n",
      "note_on channel=6 note=59 velocity=83 time=0\n",
      "note_on channel=9 note=69 velocity=59 time=1\n",
      "note_off channel=9 note=69 velocity=64 time=0\n",
      "note_on channel=9 note=54 velocity=31 time=1\n",
      "note_off channel=9 note=54 velocity=64 time=0\n",
      "note_off channel=6 note=59 velocity=64 time=10\n",
      "note_off channel=6 note=56 velocity=64 time=0\n",
      "note_off channel=6 note=64 velocity=64 time=2\n",
      "note_off channel=1 note=36 velocity=64 time=7\n",
      "note_off channel=8 note=69 velocity=64 time=2\n",
      "note_off channel=8 note=81 velocity=64 time=0\n",
      "<meta message lyrics text='you ' time=1>\n",
      "note_on channel=3 note=73 velocity=110 time=0\n",
      "note_off channel=4 note=68 velocity=64 time=0\n",
      "note_on channel=9 note=36 velocity=104 time=0\n",
      "note_off channel=9 note=36 velocity=64 time=0\n",
      "note_on channel=9 note=42 velocity=70 time=0\n",
      "note_off channel=9 note=42 velocity=64 time=0\n",
      "note_on channel=9 note=69 velocity=36 time=0\n",
      "note_off channel=9 note=69 velocity=64 time=0\n",
      "note_on channel=1 note=37 velocity=78 time=0\n",
      "note_on channel=6 note=61 velocity=85 time=0\n",
      "note_on channel=10 note=56 velocity=69 time=0\n",
      "note_on channel=10 note=61 velocity=77 time=0\n",
      "note_on channel=8 note=80 velocity=65 time=0\n",
      "note_on channel=8 note=68 velocity=65 time=0\n",
      "note_off channel=4 note=71 velocity=64 time=1\n",
      "note_on channel=4 note=68 velocity=75 time=0\n",
      "note_on channel=4 note=73 velocity=104 time=0\n",
      "note_on channel=0 note=65 velocity=73 time=0\n",
      "note_on channel=0 note=61 velocity=74 time=0\n",
      "note_off channel=7 note=59 velocity=64 time=0\n",
      "note_off channel=7 note=64 velocity=64 time=0\n",
      "note_on channel=7 note=61 velocity=64 time=0\n",
      "note_on channel=7 note=65 velocity=70 time=0\n",
      "note_on channel=6 note=65 velocity=66 time=2\n",
      "note_on channel=9 note=42 velocity=45 time=22\n",
      "note_off channel=9 note=42 velocity=64 time=0\n",
      "note_on channel=9 note=69 velocity=44 time=0\n",
      "note_off channel=9 note=69 velocity=64 time=0\n",
      "note_off channel=6 note=65 velocity=64 time=19\n",
      "note_on channel=9 note=46 velocity=46 time=5\n",
      "note_off channel=9 note=46 velocity=64 time=0\n",
      "note_on channel=9 note=69 velocity=71 time=0\n",
      "note_off channel=9 note=69 velocity=64 time=0\n",
      "note_on channel=9 note=54 velocity=70 time=0\n",
      "note_off channel=9 note=54 velocity=64 time=0\n",
      "note_off channel=6 note=61 velocity=64 time=0\n",
      "note_off channel=1 note=37 velocity=64 time=6\n",
      "note_off channel=0 note=61 velocity=64 time=0\n",
      "note_off channel=10 note=61 velocity=64 time=0\n",
      "note_off channel=10 note=56 velocity=64 time=0\n",
      "note_off channel=0 note=65 velocity=64 time=5\n",
      "note_on channel=6 note=65 velocity=74 time=11\n",
      "note_on channel=9 note=69 velocity=44 time=1\n",
      "note_off channel=9 note=69 velocity=64 time=0\n",
      "note_on channel=6 note=61 velocity=69 time=0\n",
      "note_on channel=6 note=56 velocity=69 time=0\n",
      "note_on channel=9 note=36 velocity=107 time=1\n",
      "note_off channel=9 note=36 velocity=64 time=0\n",
      "note_on channel=1 note=37 velocity=84 time=0\n",
      "note_on channel=10 note=56 velocity=67 time=0\n",
      "note_on channel=10 note=61 velocity=76 time=0\n",
      "note_on channel=9 note=54 velocity=33 time=1\n",
      "note_off channel=9 note=54 velocity=64 time=0\n",
      "note_on channel=0 note=61 velocity=73 time=0\n",
      "note_on channel=0 note=65 velocity=80 time=0\n",
      "note_off channel=6 note=56 velocity=64 time=10\n",
      "note_off channel=6 note=61 velocity=64 time=0\n",
      "note_off channel=6 note=65 velocity=64 time=1\n",
      "note_off channel=1 note=37 velocity=64 time=4\n",
      "note_off channel=0 note=61 velocity=64 time=1\n",
      "note_off channel=3 note=73 velocity=64 time=2\n",
      "note_on channel=6 note=65 velocity=71 time=2\n",
      "<meta message lyrics text='can ' time=1>\n",
      "note_on channel=3 note=71 velocity=106 time=0\n",
      "note_on channel=6 note=61 velocity=76 time=0\n",
      "note_on channel=6 note=56 velocity=59 time=0\n",
      "note_off channel=4 note=68 velocity=64 time=1\n",
      "note_on channel=9 note=40 velocity=101 time=0\n",
      "note_off channel=9 note=40 velocity=64 time=0\n",
      "note_off channel=0 note=65 velocity=64 time=0\n",
      "note_off channel=4 note=73 velocity=64 time=1\n",
      "note_on channel=4 note=71 velocity=106 time=0\n",
      "note_on channel=4 note=68 velocity=73 time=0\n",
      "note_on channel=9 note=42 velocity=54 time=0\n",
      "note_off channel=9 note=42 velocity=64 time=0\n",
      "note_on channel=9 note=69 velocity=40 time=0\n",
      "note_off channel=9 note=69 velocity=64 time=0\n",
      "note_on channel=1 note=37 velocity=84 time=0\n",
      "note_off channel=10 note=61 velocity=64 time=0\n",
      "note_off channel=10 note=56 velocity=64 time=2\n",
      "note_off channel=6 note=61 velocity=64 time=12\n",
      "note_off channel=6 note=65 velocity=64 time=4\n",
      "note_off channel=6 note=56 velocity=64 time=2\n",
      "note_off channel=3 note=71 velocity=64 time=3\n",
      "note_on channel=9 note=69 velocity=42 time=1\n",
      "note_off channel=9 note=69 velocity=64 time=0\n",
      "note_off channel=1 note=37 velocity=64 time=6\n",
      "<meta message lyrics text='ji-' time=16>\n",
      "note_on channel=3 note=71 velocity=107 time=0\n",
      "note_on channel=6 note=65 velocity=77 time=0\n",
      "note_off channel=4 note=68 velocity=64 time=1\n",
      "note_off channel=4 note=71 velocity=64 time=0\n",
      "note_on channel=0 note=61 velocity=77 time=0\n",
      "note_on channel=0 note=65 velocity=80 time=0\n",
      "note_on channel=6 note=61 velocity=70 time=0\n",
      "note_on channel=6 note=56 velocity=75 time=0\n",
      "note_on channel=10 note=56 velocity=81 time=0\n",
      "note_on channel=10 note=61 velocity=83 time=0\n",
      "note_on channel=4 note=71 velocity=109 time=1\n",
      "note_on channel=4 note=68 velocity=74 time=0\n",
      "note_on channel=9 note=36 velocity=101 time=0\n",
      "note_off channel=9 note=36 velocity=64 time=0\n",
      "note_on channel=9 note=46 velocity=40 time=0\n",
      "note_off channel=9 note=46 velocity=64 time=0\n",
      "note_on channel=9 note=69 velocity=66 time=0\n",
      "note_off channel=9 note=69 velocity=64 time=0\n",
      "note_on channel=9 note=54 velocity=70 time=0\n",
      "note_off channel=9 note=54 velocity=64 time=0\n",
      "note_on channel=1 note=37 velocity=87 time=0\n",
      "note_on channel=9 note=69 velocity=45 time=24\n",
      "note_off channel=9 note=69 velocity=64 time=0\n",
      "note_on channel=9 note=54 velocity=45 time=0\n",
      "note_off channel=9 note=54 velocity=64 time=0\n",
      "note_off channel=1 note=37 velocity=64 time=19\n",
      "note_off channel=6 note=61 velocity=64 time=2\n",
      "note_on channel=9 note=36 velocity=101 time=3\n",
      "note_off channel=9 note=36 velocity=64 time=0\n",
      "note_on channel=9 note=42 velocity=54 time=0\n",
      "note_off channel=9 note=42 velocity=64 time=0\n",
      "note_on channel=9 note=69 velocity=36 time=0\n",
      "note_off channel=9 note=69 velocity=64 time=0\n",
      "note_off channel=6 note=65 velocity=64 time=0\n",
      "note_off channel=6 note=56 velocity=64 time=1\n",
      "note_off channel=10 note=61 velocity=64 time=6\n",
      "note_off channel=10 note=56 velocity=64 time=1\n",
      "note_off channel=8 note=68 velocity=64 time=3\n",
      "note_off channel=8 note=80 velocity=64 time=0\n",
      "note_on channel=9 note=40 velocity=94 time=12\n",
      "note_off channel=9 note=40 velocity=64 time=0\n",
      "note_on channel=9 note=69 velocity=41 time=1\n",
      "note_off channel=9 note=69 velocity=64 time=0\n",
      "note_on channel=6 note=61 velocity=71 time=1\n",
      "note_on channel=6 note=65 velocity=70 time=1\n",
      "note_on channel=6 note=56 velocity=59 time=1\n",
      "note_off channel=6 note=65 velocity=64 time=10\n",
      "note_off channel=6 note=61 velocity=64 time=0\n",
      "note_off channel=3 note=71 velocity=64 time=8\n",
      "note_on channel=10 note=56 velocity=66 time=0\n",
      "note_on channel=10 note=61 velocity=76 time=1\n",
      "note_on channel=8 note=80 velocity=71 time=0\n",
      "note_on channel=8 note=68 velocity=71 time=0\n",
      "note_on channel=9 note=54 velocity=68 time=1\n",
      "note_off channel=9 note=54 velocity=64 time=0\n",
      "note_on channel=6 note=65 velocity=74 time=0\n",
      "<meta message lyrics text='ive, ' time=1>\n",
      "<meta message lyrics text='\\r' time=0>\n",
      "note_on channel=3 note=73 velocity=107 time=0\n",
      "note_off channel=4 note=68 velocity=64 time=0\n",
      "note_off channel=4 note=71 velocity=64 time=0\n",
      "note_on channel=4 note=69 velocity=86 time=0\n",
      "note_on channel=4 note=73 velocity=104 time=0\n",
      "note_on channel=9 note=69 velocity=71 time=0\n",
      "note_off channel=9 note=69 velocity=64 time=0\n",
      "note_on channel=1 note=38 velocity=96 time=0\n",
      "note_on channel=6 note=61 velocity=75 time=0\n",
      "note_off channel=8 note=68 velocity=64 time=21\n",
      "note_off channel=8 note=80 velocity=64 time=0\n",
      "note_off channel=1 note=38 velocity=64 time=1\n",
      "note_on channel=8 note=81 velocity=79 time=0\n",
      "note_on channel=8 note=69 velocity=79 time=0\n",
      "note_on channel=9 note=69 velocity=52 time=1\n",
      "note_off channel=9 note=69 velocity=64 time=0\n",
      "note_on channel=9 note=54 velocity=40 time=1\n",
      "note_off channel=9 note=54 velocity=64 time=0\n",
      "note_on channel=1 note=39 velocity=81 time=0\n",
      "note_off channel=6 note=56 velocity=64 time=1\n",
      "note_off channel=6 note=61 velocity=64 time=1\n",
      "note_off channel=6 note=65 velocity=64 time=5\n",
      "note_off channel=10 note=61 velocity=64 time=7\n",
      "note_off channel=10 note=56 velocity=64 time=0\n",
      "note_off channel=8 note=69 velocity=64 time=7\n",
      "note_off channel=8 note=81 velocity=64 time=0\n",
      "note_on channel=9 note=42 velocity=70 time=1\n",
      "note_off channel=9 note=42 velocity=64 time=0\n",
      "note_off channel=1 note=39 velocity=64 time=0\n",
      "note_on channel=8 note=83 velocity=86 time=0\n",
      "note_on channel=8 note=71 velocity=86 time=0\n",
      "note_on channel=1 note=40 velocity=83 time=1\n",
      "note_on channel=10 note=56 velocity=73 time=0\n",
      "note_on channel=9 note=40 velocity=111 time=1\n",
      "note_off channel=9 note=40 velocity=64 time=0\n",
      "note_on channel=6 note=65 velocity=79 time=0\n",
      "note_on channel=6 note=61 velocity=71 time=0\n",
      "note_on channel=6 note=56 velocity=72 time=0\n",
      "note_on channel=10 note=61 velocity=77 time=0\n",
      "note_off channel=1 note=40 velocity=64 time=22\n",
      "note_off channel=8 note=71 velocity=64 time=0\n",
      "note_off channel=8 note=83 velocity=64 time=0\n",
      "note_on channel=9 note=69 velocity=44 time=1\n",
      "note_off channel=9 note=69 velocity=64 time=0\n",
      "note_on channel=1 note=39 velocity=70 time=0\n",
      "note_on channel=8 note=85 velocity=79 time=0\n",
      "note_on channel=8 note=73 velocity=79 time=0\n",
      "note_off channel=6 note=61 velocity=64 time=3\n",
      "note_off channel=6 note=65 velocity=64 time=5\n",
      "note_off channel=6 note=56 velocity=64 time=1\n",
      "note_on channel=9 note=46 velocity=53 time=15\n",
      "note_off channel=9 note=46 velocity=64 time=0\n",
      "note_on channel=9 note=69 velocity=69 time=0\n",
      "note_off channel=9 note=69 velocity=64 time=0\n",
      "note_on channel=9 note=54 velocity=68 time=0\n",
      "note_off channel=9 note=54 velocity=64 time=0\n",
      "note_off channel=1 note=39 velocity=64 time=0\n",
      "note_on channel=1 note=40 velocity=84 time=0\n",
      "note_on channel=6 note=65 velocity=63 time=0\n",
      "note_on channel=6 note=56 velocity=60 time=1\n",
      "note_on channel=6 note=61 velocity=64 time=0\n",
      "note_off channel=0 note=65 velocity=64 time=1\n",
      "note_off channel=0 note=61 velocity=64 time=0\n",
      "note_off channel=6 note=61 velocity=64 time=11\n",
      "note_off channel=10 note=61 velocity=64 time=0\n",
      "note_off channel=10 note=56 velocity=64 time=1\n",
      "note_off channel=6 note=65 velocity=64 time=5\n",
      "note_on channel=9 note=69 velocity=49 time=5\n",
      "note_off channel=9 note=69 velocity=64 time=0\n",
      "note_off channel=1 note=40 velocity=64 time=0\n",
      "note_on channel=1 note=41 velocity=80 time=0\n",
      "note_on channel=9 note=54 velocity=33 time=1\n",
      "note_off channel=9 note=54 velocity=64 time=0\n",
      "note_on channel=6 note=61 velocity=62 time=0\n",
      "note_off channel=6 note=61 velocity=64 time=9\n",
      "note_off channel=6 note=56 velocity=64 time=0\n",
      "note_off channel=3 note=73 velocity=64 time=10\n",
      "note_on channel=10 note=57 velocity=81 time=3\n",
      "note_off channel=8 note=73 velocity=64 time=0\n",
      "note_off channel=8 note=85 velocity=64 time=0\n",
      "note_off channel=4 note=69 velocity=64 time=1\n",
      "note_on channel=9 note=42 velocity=55 time=0\n",
      "note_off channel=9 note=42 velocity=64 time=0\n",
      "note_off channel=1 note=41 velocity=64 time=0\n",
      "note_on channel=1 note=42 velocity=82 time=0\n",
      "note_on channel=0 note=66 velocity=71 time=0\n",
      "note_on channel=10 note=61 velocity=71 time=0\n",
      "note_on channel=8 note=81 velocity=81 time=0\n",
      "note_on channel=8 note=69 velocity=81 time=0\n",
      "<meta message lyrics text='hav' time=1>\n",
      "note_on channel=3 note=69 velocity=105 time=0\n",
      "note_off channel=4 note=73 velocity=64 time=0\n",
      "note_on channel=4 note=66 velocity=85 time=0\n",
      "note_on channel=4 note=69 velocity=106 time=0\n",
      "note_on channel=9 note=36 velocity=112 time=0\n",
      "note_off channel=9 note=36 velocity=64 time=0\n",
      "note_on channel=9 note=69 velocity=35 time=0\n",
      "note_off channel=9 note=69 velocity=64 time=0\n",
      "note_on channel=0 note=57 velocity=72 time=0\n",
      "note_on channel=6 note=66 velocity=98 time=0\n",
      "note_on channel=6 note=61 velocity=71 time=0\n",
      "note_on channel=6 note=57 velocity=85 time=0\n",
      "note_off channel=7 note=65 velocity=64 time=0\n",
      "note_off channel=7 note=56 velocity=64 time=0\n",
      "note_on channel=7 note=57 velocity=75 time=0\n",
      "note_on channel=7 note=66 velocity=60 time=0\n",
      "note_on channel=9 note=42 velocity=47 time=23\n",
      "note_off channel=9 note=42 velocity=64 time=0\n",
      "note_on channel=9 note=69 velocity=43 time=1\n",
      "note_off channel=9 note=69 velocity=64 time=0\n",
      "note_off channel=1 note=42 velocity=64 time=19\n",
      "note_on channel=9 note=46 velocity=42 time=4\n",
      "note_off channel=9 note=46 velocity=64 time=0\n",
      "note_on channel=9 note=54 velocity=68 time=0\n",
      "note_off channel=9 note=54 velocity=64 time=0\n",
      "note_on channel=9 note=69 velocity=74 time=1\n",
      "note_off channel=9 note=69 velocity=64 time=0\n",
      "note_off channel=10 note=57 velocity=64 time=1\n",
      "note_off channel=10 note=61 velocity=64 time=2\n",
      "note_off channel=6 note=61 velocity=64 time=1\n",
      "note_off channel=6 note=66 velocity=64 time=0\n",
      "note_off channel=6 note=57 velocity=64 time=4\n",
      "note_off channel=0 note=57 velocity=64 time=3\n",
      "note_off channel=0 note=66 velocity=64 time=0\n",
      "note_off channel=3 note=69 velocity=64 time=9\n",
      "note_off channel=8 note=69 velocity=64 time=2\n",
      "note_off channel=8 note=81 velocity=64 time=0\n",
      "note_off channel=4 note=66 velocity=64 time=1\n",
      "note_on channel=8 note=83 velocity=83 time=0\n",
      "note_on channel=8 note=71 velocity=83 time=0\n",
      "<meta message lyrics text='ing ' time=1>\n",
      "note_on channel=3 note=71 velocity=110 time=0\n",
      "note_off channel=4 note=69 velocity=64 time=0\n",
      "note_on channel=4 note=71 velocity=106 time=0\n",
      "note_on channel=4 note=66 velocity=86 time=0\n",
      "note_on channel=9 note=36 velocity=107 time=0\n",
      "note_off channel=9 note=36 velocity=64 time=0\n",
      "note_on channel=9 note=69 velocity=39 time=0\n",
      "note_off channel=9 note=69 velocity=64 time=0\n",
      "note_on channel=9 note=54 velocity=34 time=0\n",
      "note_off channel=9 note=54 velocity=64 time=0\n",
      "note_on channel=1 note=37 velocity=74 time=0\n",
      "note_on channel=6 note=66 velocity=74 time=0\n",
      "note_on channel=6 note=61 velocity=76 time=0\n",
      "note_on channel=6 note=57 velocity=70 time=0\n",
      "note_on channel=10 note=61 velocity=90 time=0\n",
      "note_on channel=10 note=57 velocity=83 time=0\n",
      "note_on channel=0 note=66 velocity=68 time=1\n",
      "note_on channel=0 note=57 velocity=67 time=0\n",
      "note_off channel=6 note=66 velocity=64 time=9\n",
      "note_off channel=6 note=61 velocity=64 time=1\n",
      "note_off channel=10 note=57 velocity=64 time=5\n",
      "note_off channel=0 note=66 velocity=64 time=5\n",
      "note_off channel=0 note=57 velocity=64 time=1\n",
      "note_on channel=6 note=66 velocity=74 time=0\n",
      "note_on channel=9 note=40 velocity=107 time=1\n",
      "note_off channel=9 note=40 velocity=64 time=0\n",
      "note_on channel=9 note=42 velocity=57 time=0\n",
      "note_off channel=9 note=42 velocity=64 time=0\n",
      "note_on channel=6 note=61 velocity=68 time=0\n",
      "note_off channel=1 note=37 velocity=64 time=1\n",
      "note_on channel=1 note=42 velocity=79 time=0\n",
      "note_on channel=9 note=69 velocity=42 time=1\n",
      "note_off channel=9 note=69 velocity=64 time=0\n",
      "note_off channel=10 note=61 velocity=64 time=5\n",
      "note_off channel=6 note=61 velocity=64 time=9\n",
      "note_off channel=6 note=66 velocity=64 time=4\n",
      "note_off channel=6 note=57 velocity=64 time=1\n",
      "note_on channel=9 note=69 velocity=36 time=5\n",
      "note_off channel=9 note=69 velocity=64 time=0\n",
      "note_off channel=1 note=42 velocity=64 time=2\n",
      "note_off channel=3 note=71 velocity=64 time=13\n",
      "note_off channel=8 note=71 velocity=64 time=5\n",
      "note_off channel=8 note=83 velocity=64 time=0\n",
      "<meta message lyrics text='the ' time=1>\n",
      "note_on channel=3 note=68 velocity=105 time=0\n",
      "note_on channel=8 note=80 velocity=70 time=0\n",
      "note_on channel=8 note=68 velocity=70 time=0\n",
      "note_off channel=4 note=66 velocity=64 time=1\n",
      "note_on channel=9 note=54 velocity=78 time=0\n",
      "note_off channel=9 note=54 velocity=64 time=0\n",
      "note_on channel=1 note=42 velocity=83 time=0\n",
      "note_on channel=0 note=57 velocity=79 time=0\n",
      "note_on channel=0 note=66 velocity=85 time=0\n",
      "note_on channel=6 note=66 velocity=87 time=0\n",
      "note_on channel=10 note=57 velocity=85 time=0\n",
      "note_off channel=4 note=71 velocity=64 time=1\n",
      "note_on channel=4 note=68 velocity=105 time=0\n",
      "note_on channel=4 note=66 velocity=85 time=0\n",
      "note_on channel=9 note=36 velocity=102 time=0\n",
      "note_off channel=9 note=36 velocity=64 time=0\n",
      "note_on channel=9 note=46 velocity=40 time=0\n",
      "note_off channel=9 note=46 velocity=64 time=0\n",
      "note_on channel=6 note=61 velocity=86 time=0\n",
      "note_on channel=6 note=57 velocity=87 time=0\n",
      "note_on channel=10 note=61 velocity=83 time=0\n",
      "note_on channel=9 note=69 velocity=74 time=1\n",
      "note_off channel=9 note=69 velocity=64 time=0\n",
      "note_on channel=9 note=69 velocity=42 time=23\n",
      "note_off channel=9 note=69 velocity=64 time=0\n",
      "note_on channel=9 note=54 velocity=29 time=0\n",
      "note_off channel=9 note=54 velocity=64 time=0\n",
      "note_off channel=1 note=42 velocity=64 time=10\n",
      "note_off channel=8 note=68 velocity=64 time=12\n",
      "note_off channel=8 note=80 velocity=64 time=0\n",
      "note_off channel=4 note=66 velocity=64 time=1\n",
      "note_off channel=6 note=66 velocity=64 time=0\n",
      "note_on channel=8 note=81 velocity=87 time=0\n",
      "note_on channel=8 note=69 velocity=87 time=0\n",
      "<meta message lyrics text='time ' time=1>\n",
      "note_off channel=3 note=68 velocity=64 time=0\n",
      "note_on channel=3 note=69 velocity=103 time=0\n",
      "note_off channel=4 note=68 velocity=64 time=0\n",
      "note_on channel=4 note=66 velocity=86 time=0\n",
      "note_on channel=4 note=69 velocity=107 time=0\n",
      "note_on channel=9 note=36 velocity=111 time=0\n",
      "note_off channel=9 note=36 velocity=64 time=0\n",
      "note_on channel=9 note=42 velocity=55 time=0\n",
      "note_off channel=9 note=42 velocity=64 time=0\n",
      "note_on channel=9 note=69 velocity=44 time=0\n",
      "note_off channel=9 note=69 velocity=64 time=0\n",
      "note_off channel=6 note=61 velocity=64 time=0\n",
      "note_off channel=6 note=57 velocity=64 time=1\n",
      "note_off channel=10 note=61 velocity=64 time=9\n",
      "note_off channel=10 note=57 velocity=64 time=1\n",
      "note_on channel=9 note=69 velocity=41 time=13\n",
      "note_off channel=9 note=69 velocity=64 time=0\n",
      "note_on channel=1 note=37 velocity=79 time=0\n",
      "note_on channel=6 note=66 velocity=90 time=0\n",
      "note_on channel=6 note=61 velocity=87 time=0\n",
      "note_on channel=6 note=57 velocity=77 time=1\n",
      "note_off channel=6 note=61 velocity=64 time=7\n",
      "note_off channel=6 note=66 velocity=64 time=4\n",
      "note_off channel=1 note=37 velocity=64 time=10\n",
      "note_on channel=6 note=66 velocity=57 time=0\n",
      "note_on channel=9 note=54 velocity=63 time=1\n",
      "note_off channel=9 note=54 velocity=64 time=0\n",
      "note_on channel=6 note=61 velocity=69 time=0\n",
      "note_on channel=10 note=57 velocity=74 time=0\n",
      "note_on channel=10 note=61 velocity=83 time=0\n",
      "note_on channel=9 note=46 velocity=40 time=1\n",
      "note_off channel=9 note=46 velocity=64 time=0\n",
      "note_on channel=9 note=69 velocity=66 time=0\n",
      "note_off channel=9 note=69 velocity=64 time=0\n",
      "note_on channel=1 note=42 velocity=77 time=0\n",
      "note_off channel=3 note=69 velocity=64 time=17\n",
      "note_off channel=6 note=61 velocity=64 time=1\n",
      "note_off channel=8 note=69 velocity=64 time=3\n",
      "note_off channel=8 note=81 velocity=64 time=0\n",
      "note_on channel=8 note=83 velocity=92 time=1\n",
      "note_on channel=8 note=71 velocity=92 time=0\n",
      "<meta message lyrics text='of ' time=1>\n",
      "note_on channel=3 note=71 velocity=106 time=0\n",
      "note_off channel=4 note=66 velocity=64 time=0\n",
      "note_on channel=9 note=69 velocity=39 time=0\n",
      "note_off channel=9 note=69 velocity=64 time=0\n",
      "note_off channel=6 note=66 velocity=64 time=0\n",
      "note_off channel=4 note=69 velocity=64 time=1\n",
      "note_on channel=4 note=71 velocity=109 time=0\n",
      "note_on channel=4 note=66 velocity=87 time=0\n",
      "note_on channel=9 note=54 velocity=35 time=0\n",
      "note_off channel=9 note=54 velocity=64 time=0\n",
      "note_off channel=6 note=57 velocity=64 time=0\n",
      "note_off channel=1 note=42 velocity=64 time=8\n",
      "note_off channel=10 note=61 velocity=64 time=5\n",
      "note_off channel=10 note=57 velocity=64 time=1\n",
      "note_on channel=9 note=42 velocity=63 time=9\n",
      "note_off channel=9 note=42 velocity=64 time=0\n",
      "note_on channel=6 note=66 velocity=86 time=0\n",
      "note_on channel=6 note=57 velocity=75 time=0\n",
      "note_on channel=9 note=40 velocity=111 time=1\n",
      "note_off channel=9 note=40 velocity=64 time=0\n",
      "note_on channel=9 note=69 velocity=46 time=0\n",
      "note_off channel=9 note=69 velocity=64 time=0\n",
      "note_on channel=6 note=61 velocity=79 time=0\n",
      "note_on channel=10 note=57 velocity=74 time=0\n",
      "note_on channel=10 note=61 velocity=73 time=0\n",
      "note_on channel=1 note=42 velocity=78 time=23\n",
      "note_on channel=9 note=42 velocity=44 time=1\n",
      "note_off channel=9 note=42 velocity=64 time=0\n",
      "note_on channel=9 note=69 velocity=42 time=0\n",
      "note_off channel=9 note=69 velocity=64 time=0\n",
      "note_off channel=0 note=57 velocity=64 time=5\n",
      "note_off channel=6 note=61 velocity=64 time=2\n",
      "note_off channel=0 note=66 velocity=64 time=1\n",
      "note_off channel=6 note=66 velocity=64 time=1\n",
      "note_off channel=6 note=57 velocity=64 time=1\n",
      "note_off channel=10 note=61 velocity=64 time=10\n",
      "note_off channel=8 note=71 velocity=64 time=1\n",
      "note_off channel=8 note=83 velocity=64 time=0\n",
      "note_off channel=3 note=71 velocity=64 time=1\n",
      "note_on channel=8 note=80 velocity=63 time=0\n",
      "note_on channel=8 note=68 velocity=63 time=0\n",
      "<meta message lyrics text='your ' time=1>\n",
      "note_on channel=3 note=68 velocity=102 time=0\n",
      "note_off channel=4 note=66 velocity=64 time=0\n",
      "note_on channel=9 note=54 velocity=63 time=0\n",
      "note_off channel=9 note=54 velocity=64 time=0\n",
      "note_off channel=1 note=42 velocity=64 time=0\n",
      "note_on channel=1 note=40 velocity=93 time=0\n",
      "note_on channel=6 note=66 velocity=72 time=0\n",
      "note_on channel=6 note=61 velocity=68 time=0\n",
      "note_off channel=4 note=71 velocity=64 time=1\n",
      "note_on channel=4 note=68 velocity=104 time=0\n",
      "note_on channel=4 note=66 velocity=87 time=0\n",
      "note_on channel=9 note=46 velocity=43 time=0\n",
      "note_off channel=9 note=46 velocity=64 time=0\n",
      "note_on channel=9 note=69 velocity=65 time=0\n",
      "note_off channel=9 note=69 velocity=64 time=0\n",
      "note_on channel=6 note=57 velocity=64 time=0\n",
      "note_off channel=6 note=66 velocity=64 time=8\n",
      "note_off channel=10 note=57 velocity=64 time=3\n",
      "note_off channel=6 note=61 velocity=64 time=1\n",
      "note_off channel=6 note=57 velocity=64 time=5\n",
      "note_on channel=9 note=69 velocity=38 time=6\n",
      "note_off channel=9 note=69 velocity=64 time=0\n",
      "note_on channel=6 note=66 velocity=74 time=0\n",
      "note_on channel=6 note=57 velocity=53 time=0\n",
      "note_on channel=6 note=61 velocity=72 time=0\n",
      "note_on channel=9 note=54 velocity=37 time=1\n",
      "note_off channel=9 note=54 velocity=64 time=0\n",
      "note_off channel=3 note=68 velocity=64 time=8\n",
      "note_off channel=6 note=66 velocity=64 time=3\n",
      "note_off channel=6 note=61 velocity=64 time=1\n",
      "note_off channel=6 note=57 velocity=64 time=2\n",
      "note_off channel=1 note=40 velocity=64 time=5\n",
      "note_off channel=8 note=68 velocity=64 time=3\n",
      "note_off channel=8 note=80 velocity=64 time=0\n",
      "note_on channel=9 note=42 velocity=56 time=1\n",
      "note_off channel=9 note=42 velocity=64 time=0\n",
      "note_on channel=9 note=69 velocity=45 time=0\n",
      "note_off channel=9 note=69 velocity=64 time=0\n",
      "note_on channel=1 note=39 velocity=89 time=0\n",
      "note_on channel=0 note=57 velocity=80 time=0\n",
      "note_on channel=0 note=66 velocity=80 time=0\n",
      "note_on channel=6 note=57 velocity=65 time=0\n",
      "note_on channel=6 note=66 velocity=77 time=0\n",
      "note_on channel=6 note=63 velocity=67 time=0\n",
      "note_on channel=10 note=59 velocity=86 time=0\n",
      "note_on channel=10 note=63 velocity=86 time=0\n",
      "note_on channel=8 note=81 velocity=89 time=0\n",
      "note_on channel=8 note=69 velocity=89 time=0\n",
      "<meta message lyrics text='life. ' time=1>\n",
      "<meta message lyrics text='\\r' time=0>\n",
      "note_on channel=3 note=69 velocity=105 time=0\n",
      "note_off channel=4 note=66 velocity=64 time=0\n",
      "note_off channel=4 note=68 velocity=64 time=0\n",
      "note_on channel=4 note=63 velocity=86 time=0\n",
      "note_on channel=4 note=69 velocity=108 time=0\n",
      "note_on channel=9 note=36 velocity=111 time=0\n",
      "note_off channel=9 note=36 velocity=64 time=0\n",
      "note_off channel=7 note=57 velocity=64 time=0\n",
      "note_off channel=7 note=61 velocity=64 time=0\n",
      "note_on channel=7 note=63 velocity=63 time=0\n",
      "note_on channel=7 note=59 velocity=86 time=0\n",
      "note_off channel=3 note=69 velocity=64 time=23\n",
      "note_on channel=3 note=68 velocity=100 time=0\n",
      "note_off channel=4 note=69 velocity=64 time=1\n",
      "note_on channel=4 note=68 velocity=103 time=0\n",
      "note_on channel=9 note=42 velocity=43 time=0\n",
      "note_off channel=9 note=42 velocity=64 time=0\n",
      "note_on channel=9 note=69 velocity=40 time=0\n",
      "note_off channel=9 note=69 velocity=64 time=0\n",
      "note_on channel=9 note=46 velocity=44 time=23\n",
      "note_off channel=9 note=46 velocity=64 time=0\n",
      "note_on channel=9 note=54 velocity=68 time=0\n",
      "note_off channel=9 note=54 velocity=64 time=0\n",
      "note_off channel=3 note=68 velocity=64 time=1\n",
      "note_on channel=3 note=66 velocity=110 time=0\n",
      "note_off channel=4 note=68 velocity=64 time=0\n",
      "note_on channel=4 note=66 velocity=102 time=0\n",
      "note_on channel=9 note=69 velocity=67 time=0\n",
      "note_off channel=9 note=69 velocity=64 time=0\n",
      "note_off channel=1 note=39 velocity=64 time=0\n",
      "note_off channel=6 note=66 velocity=64 time=3\n",
      "note_off channel=6 note=63 velocity=64 time=1\n",
      "note_off channel=0 note=57 velocity=64 time=3\n",
      "note_off channel=6 note=57 velocity=64 time=0\n",
      "note_off channel=10 note=63 velocity=64 time=2\n",
      "note_off channel=0 note=66 velocity=64 time=1\n",
      "note_off channel=10 note=59 velocity=64 time=3\n",
      "<meta message lyrics text='\\n' time=4>\n",
      "note_on channel=6 note=66 velocity=75 time=5\n",
      "note_on channel=6 note=57 velocity=81 time=0\n",
      "note_on channel=6 note=63 velocity=63 time=0\n",
      "note_off channel=8 note=69 velocity=64 time=0\n",
      "note_off channel=8 note=81 velocity=64 time=0\n",
      "note_on channel=1 note=39 velocity=74 time=1\n",
      "note_on channel=8 note=83 velocity=87 time=0\n",
      "note_on channel=8 note=71 velocity=87 time=0\n",
      "note_on channel=9 note=36 velocity=111 time=1\n",
      "note_off channel=9 note=36 velocity=64 time=0\n",
      "note_on channel=9 note=69 velocity=39 time=0\n",
      "note_off channel=9 note=69 velocity=64 time=0\n",
      "note_on channel=9 note=54 velocity=33 time=0\n",
      "note_off channel=9 note=54 velocity=64 time=0\n",
      "note_on channel=0 note=57 velocity=69 time=0\n",
      "note_on channel=0 note=66 velocity=60 time=0\n",
      "note_on channel=10 note=59 velocity=74 time=0\n",
      "note_on channel=10 note=63 velocity=63 time=1\n",
      "note_off channel=6 note=63 velocity=64 time=8\n",
      "note_off channel=6 note=57 velocity=64 time=1\n",
      "note_off channel=6 note=66 velocity=64 time=0\n",
      "note_off channel=0 note=66 velocity=64 time=6\n",
      "note_off channel=0 note=57 velocity=64 time=1\n",
      "note_off channel=10 note=63 velocity=64 time=1\n",
      "note_off channel=1 note=39 velocity=64 time=1\n",
      "note_on channel=6 note=57 velocity=73 time=2\n",
      "note_on channel=6 note=66 velocity=81 time=0\n",
      "note_on channel=6 note=63 velocity=68 time=1\n",
      "note_off channel=10 note=59 velocity=64 time=0\n",
      "note_on channel=9 note=40 velocity=104 time=2\n",
      "note_off channel=9 note=40 velocity=64 time=0\n",
      "note_on channel=9 note=42 velocity=53 time=0\n",
      "note_off channel=9 note=42 velocity=64 time=0\n",
      "note_on channel=9 note=69 velocity=51 time=0\n",
      "note_off channel=9 note=69 velocity=64 time=0\n",
      "note_on channel=1 note=39 velocity=100 time=0\n",
      "note_off channel=6 note=63 velocity=64 time=10\n",
      "note_off channel=6 note=66 velocity=64 time=2\n",
      "note_off channel=6 note=57 velocity=64 time=9\n",
      "note_on channel=9 note=69 velocity=48 time=4\n",
      "note_off channel=9 note=69 velocity=64 time=0\n",
      "note_off channel=1 note=39 velocity=64 time=5\n",
      "note_off channel=8 note=71 velocity=64 time=13\n",
      "note_off channel=8 note=83 velocity=64 time=0\n",
      "note_on channel=6 note=66 velocity=86 time=2\n",
      "note_off channel=3 note=66 velocity=64 time=1\n",
      "note_on channel=6 note=63 velocity=74 time=0\n",
      "note_on channel=6 note=57 velocity=87 time=0\n",
      "note_on channel=8 note=85 velocity=79 time=0\n",
      "note_on channel=8 note=73 velocity=79 time=0\n",
      "note_on channel=9 note=54 velocity=68 time=1\n",
      "note_off channel=9 note=54 velocity=64 time=0\n",
      "note_on channel=9 note=36 velocity=104 time=1\n",
      "note_off channel=9 note=36 velocity=64 time=0\n",
      "note_on channel=9 note=46 velocity=44 time=0\n",
      "note_off channel=9 note=46 velocity=64 time=0\n",
      "note_on channel=9 note=69 velocity=62 time=0\n",
      "note_off channel=9 note=69 velocity=64 time=0\n",
      "note_on channel=1 note=39 velocity=77 time=0\n",
      "note_on channel=0 note=66 velocity=75 time=0\n",
      "note_on channel=0 note=57 velocity=79 time=0\n",
      "note_on channel=10 note=59 velocity=79 time=0\n",
      "note_on channel=10 note=63 velocity=87 time=0\n",
      "note_on channel=9 note=69 velocity=47 time=24\n",
      "note_off channel=9 note=69 velocity=64 time=0\n",
      "note_on channel=9 note=54 velocity=37 time=0\n",
      "note_off channel=9 note=54 velocity=64 time=0\n",
      "note_off channel=6 note=63 velocity=64 time=13\n",
      "note_off channel=6 note=66 velocity=64 time=1\n",
      "note_off channel=6 note=57 velocity=64 time=5\n",
      "note_off channel=1 note=39 velocity=64 time=2\n",
      "note_off channel=8 note=73 velocity=64 time=2\n",
      "note_off channel=8 note=85 velocity=64 time=0\n",
      "note_off channel=4 note=66 velocity=64 time=1\n",
      "note_on channel=4 note=73 velocity=104 time=0\n",
      "note_on channel=9 note=36 velocity=104 time=0\n",
      "note_off channel=9 note=36 velocity=64 time=0\n",
      "note_on channel=9 note=42 velocity=66 time=0\n",
      "note_off channel=9 note=42 velocity=64 time=0\n",
      "note_on channel=9 note=69 velocity=48 time=0\n",
      "note_off channel=9 note=69 velocity=64 time=0\n",
      "note_on channel=8 note=87 velocity=79 time=0\n",
      "note_on channel=8 note=75 velocity=79 time=0\n",
      "<meta message lyrics text='Ooh, ' time=1>\n",
      "note_on channel=3 note=73 velocity=106 time=0\n",
      "note_off channel=10 note=63 velocity=64 time=0\n",
      "note_off channel=10 note=59 velocity=64 time=1\n",
      "note_on channel=9 note=40 velocity=102 time=22\n",
      "note_off channel=9 note=40 velocity=64 time=0\n",
      "note_on channel=9 note=69 velocity=48 time=0\n",
      "note_off channel=9 note=69 velocity=64 time=0\n",
      "note_on channel=1 note=39 velocity=73 time=0\n",
      "note_on channel=6 note=57 velocity=93 time=0\n",
      "note_on channel=6 note=66 velocity=64 time=0\n",
      "note_on channel=6 note=63 velocity=54 time=0\n",
      "note_off channel=6 note=63 velocity=64 time=8\n",
      "note_off channel=1 note=39 velocity=64 time=11\n",
      "note_on channel=1 note=39 velocity=80 time=3\n",
      "note_on channel=6 note=63 velocity=69 time=0\n",
      "note_on channel=10 note=59 velocity=87 time=1\n",
      "note_on channel=10 note=63 velocity=93 time=0\n",
      "note_on channel=9 note=69 velocity=64 time=1\n",
      "note_off channel=9 note=69 velocity=64 time=0\n",
      "note_on channel=9 note=54 velocity=68 time=0\n",
      "note_off channel=9 note=54 velocity=64 time=0\n",
      "note_off channel=6 note=66 velocity=64 time=13\n",
      "note_off channel=6 note=63 velocity=64 time=2\n",
      "note_off channel=8 note=75 velocity=64 time=1\n",
      "note_off channel=8 note=87 velocity=64 time=0\n",
      "note_off channel=3 note=73 velocity=64 time=5\n",
      "<meta message lyrics text='ooh, ' time=1>\n",
      "note_on channel=3 note=71 velocity=110 time=0\n",
      "note_on channel=8 note=88 velocity=76 time=0\n",
      "note_on channel=8 note=76 velocity=76 time=0\n",
      "note_off channel=4 note=73 velocity=64 time=2\n",
      "note_on channel=4 note=71 velocity=108 time=0\n",
      "note_on channel=9 note=69 velocity=45 time=0\n",
      "note_off channel=9 note=69 velocity=64 time=0\n",
      "note_on channel=9 note=54 velocity=38 time=0\n",
      "note_off channel=9 note=54 velocity=64 time=0\n",
      "note_off channel=1 note=39 velocity=64 time=2\n",
      "note_off channel=6 note=57 velocity=64 time=3\n",
      "note_off channel=10 note=63 velocity=64 time=9\n",
      "note_off channel=10 note=59 velocity=64 time=4\n",
      "note_on channel=6 note=66 velocity=87 time=5\n",
      "note_on channel=6 note=57 velocity=86 time=0\n",
      "note_on channel=6 note=63 velocity=71 time=0\n",
      "note_on channel=9 note=40 velocity=107 time=1\n",
      "note_off channel=9 note=40 velocity=64 time=0\n",
      "note_on channel=9 note=42 velocity=65 time=0\n",
      "note_off channel=9 note=42 velocity=64 time=0\n",
      "note_on channel=9 note=69 velocity=55 time=0\n",
      "note_off channel=9 note=69 velocity=64 time=0\n",
      "note_on channel=1 note=39 velocity=77 time=0\n",
      "note_on channel=10 note=63 velocity=81 time=1\n",
      "note_on channel=10 note=59 velocity=83 time=0\n",
      "note_off channel=0 note=57 velocity=64 time=11\n",
      "note_off channel=0 note=66 velocity=64 time=0\n",
      "note_on channel=9 note=69 velocity=40 time=12\n",
      "note_off channel=9 note=69 velocity=64 time=0\n",
      "note_off channel=6 note=63 velocity=64 time=3\n",
      "note_off channel=6 note=66 velocity=64 time=4\n",
      "note_off channel=6 note=57 velocity=64 time=1\n",
      "note_off channel=1 note=39 velocity=64 time=8\n",
      "note_off channel=10 note=63 velocity=64 time=1\n",
      "note_off channel=10 note=59 velocity=64 time=4\n",
      "note_off channel=8 note=76 velocity=64 time=0\n",
      "note_off channel=8 note=88 velocity=64 time=0\n",
      "note_off channel=3 note=71 velocity=64 time=1\n",
      "note_on channel=8 note=90 velocity=73 time=0\n",
      "note_on channel=8 note=78 velocity=73 time=0\n",
      "note_on channel=3 note=69 velocity=106 time=1\n",
      "note_on channel=9 note=54 velocity=63 time=0\n",
      "note_off channel=9 note=54 velocity=64 time=0\n",
      "note_on channel=6 note=66 velocity=87 time=0\n",
      "note_on channel=6 note=63 velocity=65 time=0\n",
      "note_on channel=6 note=57 velocity=74 time=0\n",
      "note_off channel=4 note=71 velocity=64 time=1\n",
      "note_on channel=4 note=69 velocity=107 time=0\n",
      "note_on channel=9 note=46 velocity=42 time=0\n",
      "note_off channel=9 note=46 velocity=64 time=0\n",
      "note_on channel=9 note=69 velocity=65 time=0\n",
      "note_off channel=9 note=69 velocity=64 time=0\n",
      "note_on channel=1 note=39 velocity=84 time=0\n",
      "note_off channel=6 note=63 velocity=64 time=10\n",
      "note_off channel=6 note=66 velocity=64 time=2\n",
      "note_on channel=6 note=66 velocity=83 time=10\n",
      "note_on channel=6 note=63 velocity=72 time=1\n",
      "note_on channel=9 note=69 velocity=42 time=1\n",
      "note_off channel=9 note=69 velocity=64 time=0\n",
      "note_on channel=9 note=54 velocity=33 time=0\n",
      "note_off channel=9 note=54 velocity=64 time=0\n",
      "note_off channel=6 note=63 velocity=64 time=14\n",
      "note_off channel=6 note=66 velocity=64 time=0\n",
      "note_off channel=6 note=57 velocity=64 time=0\n",
      "note_off channel=1 note=39 velocity=64 time=1\n",
      "note_off channel=3 note=69 velocity=64 time=8\n",
      "note_on channel=9 note=36 velocity=111 time=0\n",
      "note_off channel=9 note=36 velocity=64 time=0\n",
      "<meta message lyrics text='see ' time=1>\n",
      "note_on channel=3 note=68 velocity=105 time=0\n",
      "note_off channel=4 note=69 velocity=64 time=0\n",
      "note_off channel=4 note=63 velocity=64 time=0\n",
      "note_on channel=4 note=62 velocity=78 time=0\n",
      "note_on channel=4 note=68 velocity=107 time=0\n",
      "note_on channel=9 note=42 velocity=66 time=0\n",
      "note_off channel=9 note=42 velocity=64 time=0\n",
      "note_on channel=9 note=69 velocity=37 time=0\n",
      "note_off channel=9 note=69 velocity=64 time=0\n",
      "note_on channel=1 note=38 velocity=91 time=0\n",
      "note_on channel=0 note=64 velocity=78 time=0\n",
      "note_on channel=0 note=69 velocity=78 time=0\n",
      "note_on channel=10 note=54 velocity=60 time=0\n",
      "note_off channel=8 note=78 velocity=64 time=0\n",
      "note_off channel=8 note=90 velocity=64 time=0\n",
      "note_off channel=7 note=59 velocity=64 time=0\n",
      "note_off channel=7 note=63 velocity=64 time=0\n",
      "note_off channel=7 note=66 velocity=64 time=0\n",
      "note_on channel=7 note=54 velocity=67 time=0\n",
      "note_on channel=7 note=57 velocity=81 time=0\n",
      "note_on channel=7 note=64 velocity=77 time=0\n",
      "note_on channel=8 note=88 velocity=73 time=1\n",
      "note_on channel=8 note=76 velocity=73 time=0\n",
      "note_off channel=10 note=54 velocity=64 time=19\n",
      "note_on channel=9 note=42 velocity=45 time=3\n",
      "note_off channel=9 note=42 velocity=64 time=0\n",
      "note_on channel=10 note=57 velocity=65 time=0\n",
      "note_on channel=10 note=64 velocity=67 time=0\n",
      "note_on channel=9 note=69 velocity=40 time=1\n",
      "note_off channel=9 note=69 velocity=64 time=0\n",
      "note_on channel=6 note=69 velocity=69 time=0\n",
      "note_on channel=6 note=66 velocity=93 time=0\n",
      "note_on channel=6 note=62 velocity=75 time=0\n",
      "note_off channel=6 note=66 velocity=64 time=13\n",
      "note_off channel=6 note=62 velocity=64 time=1\n",
      "note_on channel=9 note=46 velocity=50 time=9\n",
      "note_off channel=9 note=46 velocity=64 time=0\n",
      "note_on channel=9 note=54 velocity=65 time=0\n",
      "note_off channel=9 note=54 velocity=64 time=0\n",
      "note_off channel=1 note=38 velocity=64 time=0\n",
      "note_on channel=6 note=62 velocity=56 time=0\n",
      "note_on channel=6 note=66 velocity=75 time=0\n",
      "note_on channel=9 note=69 velocity=64 time=1\n",
      "note_off channel=9 note=69 velocity=64 time=0\n",
      "note_off channel=0 note=69 velocity=64 time=11\n",
      "note_off channel=0 note=64 velocity=64 time=5\n",
      "note_off channel=6 note=69 velocity=64 time=4\n",
      "note_off channel=6 note=66 velocity=64 time=1\n",
      "<meta message lyrics text='that ' time=2>\n",
      "note_off channel=3 note=68 velocity=64 time=0\n"
     ]
    },
    {
     "name": "stdout",
     "output_type": "stream",
     "text": [
      "note_on channel=3 note=69 velocity=107 time=0\n",
      "note_on channel=9 note=54 velocity=40 time=0\n",
      "note_off channel=9 note=54 velocity=64 time=0\n",
      "note_off channel=10 note=64 velocity=64 time=0\n",
      "note_off channel=4 note=68 velocity=64 time=1\n",
      "note_off channel=4 note=62 velocity=64 time=0\n",
      "note_on channel=4 note=69 velocity=107 time=0\n",
      "note_on channel=4 note=64 velocity=83 time=0\n",
      "note_on channel=9 note=36 velocity=110 time=0\n",
      "note_off channel=9 note=36 velocity=64 time=0\n",
      "note_on channel=9 note=69 velocity=39 time=0\n",
      "note_off channel=9 note=69 velocity=64 time=0\n",
      "note_on channel=1 note=38 velocity=86 time=0\n",
      "note_on channel=6 note=57 velocity=71 time=0\n",
      "note_off channel=10 note=57 velocity=64 time=0\n",
      "note_on channel=0 note=64 velocity=72 time=1\n",
      "note_on channel=0 note=69 velocity=79 time=0\n",
      "note_on channel=10 note=54 velocity=58 time=0\n",
      "note_off channel=6 note=62 velocity=64 time=1\n",
      "note_off channel=10 note=54 velocity=64 time=14\n",
      "note_off channel=6 note=57 velocity=64 time=1\n",
      "note_off channel=1 note=38 velocity=64 time=1\n",
      "note_off channel=0 note=64 velocity=64 time=4\n",
      "note_on channel=9 note=40 velocity=107 time=1\n",
      "note_off channel=9 note=40 velocity=64 time=0\n",
      "note_on channel=9 note=42 velocity=57 time=0\n",
      "note_off channel=9 note=42 velocity=64 time=0\n",
      "note_off channel=0 note=69 velocity=64 time=0\n",
      "note_on channel=6 note=62 velocity=71 time=0\n",
      "note_on channel=10 note=64 velocity=68 time=0\n",
      "note_on channel=10 note=57 velocity=77 time=0\n",
      "note_on channel=9 note=69 velocity=53 time=1\n",
      "note_off channel=9 note=69 velocity=64 time=0\n",
      "note_on channel=1 note=38 velocity=91 time=0\n",
      "note_on channel=6 note=66 velocity=86 time=0\n",
      "note_on channel=6 note=69 velocity=74 time=0\n",
      "note_off channel=3 note=69 velocity=64 time=15\n",
      "note_on channel=10 note=54 velocity=54 time=8\n",
      "note_on channel=9 note=69 velocity=40 time=1\n",
      "note_off channel=9 note=69 velocity=64 time=0\n",
      "note_on channel=6 note=57 velocity=59 time=0\n",
      "note_off channel=6 note=66 velocity=64 time=1\n",
      "note_off channel=6 note=69 velocity=64 time=2\n",
      "note_off channel=10 note=57 velocity=64 time=0\n",
      "note_off channel=6 note=62 velocity=64 time=1\n",
      "note_off channel=10 note=64 velocity=64 time=1\n",
      "note_off channel=1 note=38 velocity=64 time=1\n",
      "note_off channel=10 note=54 velocity=64 time=8\n",
      "note_off channel=6 note=57 velocity=64 time=2\n",
      "<meta message lyrics text='girl, ' time=7>\n",
      "note_on channel=3 note=69 velocity=108 time=0\n",
      "note_off channel=4 note=64 velocity=64 time=0\n",
      "note_off channel=4 note=69 velocity=64 time=0\n",
      "note_on channel=0 note=69 velocity=73 time=0\n",
      "note_on channel=0 note=64 velocity=75 time=0\n",
      "note_on channel=6 note=69 velocity=67 time=0\n",
      "note_on channel=6 note=62 velocity=72 time=0\n",
      "note_on channel=6 note=66 velocity=81 time=0\n",
      "note_on channel=10 note=64 velocity=73 time=0\n",
      "note_on channel=10 note=57 velocity=69 time=0\n",
      "note_on channel=4 note=69 velocity=107 time=1\n",
      "note_on channel=4 note=64 velocity=85 time=0\n",
      "note_on channel=9 note=36 velocity=102 time=0\n",
      "note_off channel=9 note=36 velocity=64 time=0\n",
      "note_on channel=9 note=46 velocity=42 time=0\n",
      "note_off channel=9 note=46 velocity=64 time=0\n",
      "note_on channel=9 note=69 velocity=63 time=0\n",
      "note_off channel=9 note=69 velocity=64 time=0\n",
      "note_on channel=9 note=54 velocity=68 time=0\n",
      "note_off channel=9 note=54 velocity=64 time=0\n",
      "note_on channel=1 note=38 velocity=95 time=0\n",
      "note_off channel=6 note=66 velocity=64 time=11\n",
      "note_off channel=10 note=57 velocity=64 time=0\n",
      "note_off channel=6 note=62 velocity=64 time=1\n",
      "note_off channel=6 note=69 velocity=64 time=0\n",
      "note_on channel=6 note=62 velocity=65 time=11\n",
      "note_on channel=6 note=69 velocity=63 time=0\n",
      "note_on channel=6 note=66 velocity=75 time=0\n",
      "note_on channel=10 note=57 velocity=62 time=0\n",
      "note_on channel=9 note=69 velocity=39 time=1\n",
      "note_off channel=9 note=69 velocity=64 time=0\n",
      "note_on channel=9 note=54 velocity=41 time=0\n",
      "note_off channel=9 note=54 velocity=64 time=0\n",
      "note_off channel=1 note=38 velocity=64 time=19\n",
      "note_off channel=6 note=66 velocity=64 time=3\n",
      "note_off channel=6 note=69 velocity=64 time=1\n",
      "note_off channel=10 note=57 velocity=64 time=0\n",
      "note_off channel=10 note=64 velocity=64 time=0\n",
      "note_on channel=9 note=36 velocity=111 time=1\n",
      "note_off channel=9 note=36 velocity=64 time=0\n",
      "note_on channel=9 note=42 velocity=54 time=0\n",
      "note_off channel=9 note=42 velocity=64 time=0\n",
      "note_on channel=9 note=69 velocity=39 time=0\n",
      "note_off channel=9 note=69 velocity=64 time=0\n",
      "note_on channel=6 note=57 velocity=59 time=0\n",
      "note_off channel=6 note=62 velocity=64 time=1\n",
      "note_off channel=6 note=57 velocity=64 time=11\n",
      "note_on channel=10 note=57 velocity=72 time=11\n",
      "note_on channel=10 note=64 velocity=70 time=0\n",
      "note_on channel=9 note=69 velocity=46 time=1\n",
      "note_off channel=9 note=69 velocity=64 time=0\n",
      "note_on channel=1 note=33 velocity=76 time=0\n",
      "note_on channel=6 note=62 velocity=73 time=0\n",
      "note_on channel=6 note=69 velocity=75 time=0\n",
      "note_on channel=6 note=66 velocity=81 time=0\n",
      "note_off channel=10 note=57 velocity=64 time=13\n",
      "note_off channel=1 note=33 velocity=64 time=3\n",
      "note_off channel=10 note=64 velocity=64 time=2\n",
      "note_off channel=6 note=69 velocity=64 time=1\n",
      "note_off channel=6 note=62 velocity=64 time=0\n",
      "note_off channel=6 note=66 velocity=64 time=1\n",
      "note_on channel=6 note=57 velocity=58 time=3\n",
      "note_on channel=9 note=46 velocity=40 time=1\n",
      "note_off channel=9 note=46 velocity=64 time=0\n",
      "note_on channel=9 note=69 velocity=64 time=0\n",
      "note_off channel=9 note=69 velocity=64 time=0\n",
      "note_on channel=9 note=54 velocity=57 time=0\n",
      "note_off channel=9 note=54 velocity=64 time=0\n",
      "note_on channel=1 note=38 velocity=95 time=0\n",
      "note_off channel=6 note=57 velocity=64 time=7\n",
      "note_on channel=9 note=54 velocity=33 time=16\n",
      "note_off channel=9 note=54 velocity=64 time=0\n",
      "note_on channel=9 note=69 velocity=44 time=1\n",
      "note_off channel=9 note=69 velocity=64 time=0\n",
      "note_on channel=6 note=57 velocity=58 time=1\n",
      "note_off channel=6 note=57 velocity=64 time=20\n",
      "note_on channel=10 note=57 velocity=67 time=1\n",
      "note_on channel=6 note=62 velocity=95 time=1\n",
      "note_on channel=6 note=69 velocity=76 time=0\n",
      "note_on channel=10 note=64 velocity=68 time=0\n",
      "note_on channel=9 note=40 velocity=107 time=1\n",
      "note_off channel=9 note=40 velocity=64 time=0\n",
      "note_on channel=9 note=42 velocity=61 time=0\n",
      "note_off channel=9 note=42 velocity=64 time=0\n",
      "note_on channel=9 note=69 velocity=46 time=0\n",
      "note_off channel=9 note=69 velocity=64 time=0\n",
      "note_on channel=6 note=66 velocity=98 time=0\n",
      "note_off channel=1 note=38 velocity=64 time=3\n",
      "note_on channel=9 note=69 velocity=38 time=21\n",
      "note_off channel=9 note=69 velocity=64 time=0\n",
      "note_on channel=1 note=37 velocity=80 time=0\n",
      "note_off channel=3 note=69 velocity=64 time=11\n",
      "note_on channel=9 note=54 velocity=56 time=12\n",
      "note_off channel=9 note=54 velocity=64 time=0\n",
      "note_on channel=9 note=46 velocity=43 time=1\n",
      "note_off channel=9 note=46 velocity=64 time=0\n",
      "note_on channel=9 note=69 velocity=65 time=0\n",
      "note_off channel=9 note=69 velocity=64 time=0\n",
      "note_off channel=0 note=64 velocity=64 time=6\n",
      "note_off channel=0 note=69 velocity=64 time=5\n",
      "note_on channel=9 note=54 velocity=46 time=12\n",
      "note_off channel=9 note=54 velocity=64 time=0\n",
      "note_on channel=9 note=69 velocity=37 time=1\n",
      "note_off channel=9 note=69 velocity=64 time=0\n",
      "note_off channel=6 note=66 velocity=64 time=12\n",
      "note_off channel=6 note=69 velocity=64 time=2\n",
      "note_off channel=1 note=37 velocity=64 time=2\n",
      "note_off channel=6 note=62 velocity=64 time=0\n",
      "<meta message lyrics text='watch ' time=6>\n",
      "note_on channel=3 note=68 velocity=107 time=0\n",
      "note_off channel=4 note=64 velocity=64 time=1\n",
      "note_on channel=9 note=42 velocity=65 time=0\n",
      "note_off channel=9 note=42 velocity=64 time=0\n",
      "note_on channel=1 note=35 velocity=91 time=0\n",
      "note_off channel=4 note=69 velocity=64 time=1\n",
      "note_on channel=4 note=68 velocity=104 time=0\n",
      "note_on channel=4 note=62 velocity=77 time=0\n",
      "note_on channel=4 note=64 velocity=76 time=0\n",
      "note_on channel=9 note=36 velocity=110 time=0\n",
      "note_off channel=9 note=36 velocity=64 time=0\n",
      "note_on channel=9 note=69 velocity=39 time=0\n",
      "note_off channel=9 note=69 velocity=64 time=0\n",
      "note_on channel=0 note=69 velocity=73 time=0\n",
      "note_on channel=0 note=64 velocity=78 time=0\n",
      "note_off channel=7 note=64 velocity=64 time=0\n",
      "note_on channel=7 note=62 velocity=70 time=0\n",
      "note_off channel=10 note=57 velocity=64 time=1\n",
      "note_off channel=10 note=64 velocity=64 time=2\n",
      "note_on channel=9 note=42 velocity=44 time=20\n",
      "note_off channel=9 note=42 velocity=64 time=0\n",
      "note_on channel=6 note=69 velocity=68 time=0\n",
      "note_on channel=6 note=66 velocity=95 time=0\n",
      "note_on channel=6 note=62 velocity=87 time=0\n",
      "note_on channel=10 note=57 velocity=64 time=0\n",
      "note_on channel=10 note=64 velocity=65 time=0\n",
      "note_on channel=9 note=69 velocity=39 time=1\n",
      "note_off channel=9 note=69 velocity=64 time=0\n",
      "note_off channel=10 note=57 velocity=64 time=9\n",
      "note_off channel=6 note=66 velocity=64 time=1\n",
      "note_off channel=6 note=62 velocity=64 time=1\n",
      "note_off channel=6 note=69 velocity=64 time=0\n",
      "note_on channel=6 note=62 velocity=63 time=11\n",
      "note_on channel=6 note=66 velocity=81 time=0\n",
      "note_on channel=10 note=57 velocity=63 time=0\n",
      "note_on channel=9 note=69 velocity=67 time=1\n",
      "note_off channel=9 note=69 velocity=64 time=0\n",
      "note_on channel=9 note=54 velocity=57 time=0\n",
      "note_off channel=9 note=54 velocity=64 time=0\n",
      "note_on channel=6 note=69 velocity=63 time=0\n",
      "note_on channel=9 note=46 velocity=54 time=1\n",
      "note_off channel=9 note=46 velocity=64 time=0\n",
      "note_off channel=0 note=69 velocity=64 time=8\n",
      "note_off channel=0 note=64 velocity=64 time=4\n",
      "note_off channel=1 note=35 velocity=64 time=4\n",
      "<meta message lyrics text='that ' time=6>\n",
      "note_off channel=3 note=68 velocity=64 time=0\n",
      "note_on channel=3 note=69 velocity=105 time=0\n",
      "note_off channel=10 note=64 velocity=64 time=0\n",
      "note_off channel=4 note=62 velocity=64 time=1\n",
      "note_on channel=9 note=69 velocity=42 time=0\n",
      "note_off channel=9 note=69 velocity=64 time=0\n",
      "note_on channel=9 note=54 velocity=37 time=0\n",
      "note_off channel=9 note=54 velocity=64 time=0\n",
      "note_on channel=1 note=30 velocity=100 time=0\n",
      "note_off channel=4 note=68 velocity=64 time=1\n",
      "note_on channel=4 note=69 velocity=107 time=0\n",
      "note_on channel=4 note=62 velocity=78 time=0\n",
      "note_on channel=9 note=36 velocity=102 time=0\n",
      "note_off channel=9 note=36 velocity=64 time=0\n",
      "note_on channel=0 note=64 velocity=77 time=0\n",
      "note_on channel=0 note=69 velocity=69 time=0\n",
      "note_on channel=10 note=54 velocity=57 time=0\n",
      "note_off channel=6 note=69 velocity=64 time=1\n",
      "note_off channel=6 note=66 velocity=64 time=0\n",
      "note_on channel=6 note=57 velocity=63 time=0\n",
      "note_off channel=10 note=57 velocity=64 time=0\n",
      "note_off channel=6 note=62 velocity=64 time=5\n",
      "note_off channel=10 note=54 velocity=64 time=3\n",
      "note_off channel=1 note=30 velocity=64 time=3\n",
      "note_off channel=6 note=57 velocity=64 time=3\n",
      "note_off channel=0 note=64 velocity=64 time=1\n",
      "note_off channel=0 note=69 velocity=64 time=1\n",
      "note_on channel=6 note=69 velocity=68 time=5\n",
      "note_on channel=10 note=57 velocity=59 time=0\n",
      "note_on channel=10 note=64 velocity=65 time=0\n",
      "note_on channel=9 note=40 velocity=107 time=1\n",
      "note_off channel=9 note=40 velocity=64 time=0\n",
      "note_on channel=1 note=35 velocity=86 time=0\n",
      "note_on channel=6 note=62 velocity=73 time=0\n",
      "note_on channel=6 note=66 velocity=67 time=0\n",
      "note_on channel=9 note=42 velocity=56 time=1\n",
      "note_off channel=9 note=42 velocity=64 time=0\n",
      "note_on channel=9 note=69 velocity=49 time=0\n",
      "note_off channel=9 note=69 velocity=64 time=0\n",
      "note_off channel=3 note=69 velocity=64 time=15\n",
      "note_on channel=9 note=69 velocity=47 time=9\n",
      "note_off channel=9 note=69 velocity=64 time=0\n",
      "note_off channel=6 note=66 velocity=64 time=0\n",
      "note_on channel=6 note=57 velocity=56 time=0\n",
      "note_off channel=6 note=62 velocity=64 time=1\n",
      "note_off channel=6 note=69 velocity=64 time=0\n",
      "note_off channel=10 note=64 velocity=64 time=1\n",
      "note_off channel=1 note=35 velocity=64 time=2\n",
      "note_off channel=10 note=57 velocity=64 time=2\n",
      "note_off channel=6 note=57 velocity=64 time=12\n",
      "note_off channel=4 note=62 velocity=64 time=5\n",
      "note_off channel=4 note=69 velocity=64 time=0\n",
      "note_on channel=9 note=54 velocity=70 time=0\n",
      "note_off channel=9 note=54 velocity=64 time=0\n",
      "note_on channel=1 note=35 velocity=91 time=0\n",
      "note_on channel=0 note=64 velocity=80 time=0\n",
      "note_on channel=0 note=69 velocity=75 time=0\n",
      "note_on channel=6 note=69 velocity=65 time=0\n",
      "note_on channel=6 note=62 velocity=69 time=0\n",
      "note_on channel=6 note=66 velocity=76 time=0\n",
      "note_on channel=10 note=64 velocity=71 time=0\n",
      "note_on channel=10 note=57 velocity=66 time=0\n",
      "<meta message lyrics text='scene, ' time=1>\n",
      "<meta message lyrics text='\\r' time=0>\n",
      "note_on channel=3 note=69 velocity=107 time=0\n",
      "note_on channel=4 note=69 velocity=106 time=0\n",
      "note_on channel=4 note=62 velocity=79 time=0\n",
      "note_on channel=9 note=36 velocity=107 time=0\n",
      "note_off channel=9 note=36 velocity=64 time=0\n",
      "note_on channel=9 note=46 velocity=43 time=0\n",
      "note_off channel=9 note=46 velocity=64 time=0\n",
      "note_on channel=9 note=69 velocity=69 time=0\n",
      "note_off channel=9 note=69 velocity=64 time=0\n",
      "note_off channel=6 note=66 velocity=64 time=11\n",
      "note_off channel=6 note=62 velocity=64 time=0\n",
      "note_off channel=10 note=57 velocity=64 time=1\n",
      "note_off channel=6 note=69 velocity=64 time=2\n",
      "note_on channel=6 note=69 velocity=62 time=8\n",
      "note_on channel=6 note=66 velocity=79 time=0\n",
      "note_on channel=6 note=62 velocity=65 time=0\n",
      "note_on channel=9 note=54 velocity=38 time=1\n",
      "note_off channel=9 note=54 velocity=64 time=0\n",
      "note_on channel=10 note=57 velocity=63 time=0\n",
      "note_on channel=9 note=69 velocity=49 time=1\n",
      "note_off channel=9 note=69 velocity=64 time=0\n",
      "note_off channel=6 note=66 velocity=64 time=22\n",
      "note_off channel=6 note=69 velocity=64 time=0\n",
      "note_off channel=10 note=57 velocity=64 time=1\n",
      "note_on channel=9 note=36 velocity=111 time=1\n",
      "note_off channel=9 note=36 velocity=64 time=0\n",
      "note_on channel=9 note=42 velocity=63 time=0\n",
      "note_off channel=9 note=42 velocity=64 time=0\n",
      "note_on channel=9 note=69 velocity=50 time=0\n",
      "note_off channel=9 note=69 velocity=64 time=0\n",
      "note_on channel=6 note=57 velocity=59 time=0\n",
      "note_off channel=10 note=64 velocity=64 time=0\n",
      "note_off channel=6 note=62 velocity=64 time=1\n",
      "note_off channel=6 note=57 velocity=64 time=13\n",
      "note_off channel=3 note=69 velocity=64 time=5\n",
      "note_on channel=6 note=62 velocity=79 time=4\n",
      "note_on channel=6 note=69 velocity=73 time=0\n",
      "note_on channel=6 note=66 velocity=75 time=0\n",
      "note_on channel=10 note=57 velocity=64 time=0\n",
      "note_on channel=10 note=64 velocity=72 time=0\n",
      "note_on channel=9 note=69 velocity=46 time=1\n",
      "note_off channel=9 note=69 velocity=64 time=0\n",
      "note_off channel=1 note=35 velocity=64 time=10\n",
      "note_off channel=10 note=57 velocity=64 time=4\n",
      "note_off channel=10 note=64 velocity=64 time=2\n",
      "note_off channel=6 note=62 velocity=64 time=2\n",
      "note_off channel=6 note=66 velocity=64 time=1\n",
      "note_off channel=6 note=69 velocity=64 time=0\n",
      "note_on channel=6 note=57 velocity=58 time=3\n",
      "note_on channel=9 note=54 velocity=65 time=1\n",
      "note_off channel=9 note=54 velocity=64 time=0\n",
      "note_on channel=1 note=30 velocity=103 time=0\n",
      "note_on channel=9 note=46 velocity=43 time=1\n",
      "note_off channel=9 note=46 velocity=64 time=0\n",
      "note_on channel=9 note=69 velocity=71 time=0\n",
      "note_off channel=9 note=69 velocity=64 time=0\n",
      "note_off channel=6 note=57 velocity=64 time=4\n",
      "note_off channel=1 note=30 velocity=64 time=12\n",
      "note_on channel=9 note=54 velocity=44 time=7\n",
      "note_off channel=9 note=54 velocity=64 time=0\n",
      "note_on channel=1 note=35 velocity=89 time=0\n",
      "note_on channel=9 note=69 velocity=40 time=1\n",
      "note_off channel=9 note=69 velocity=64 time=0\n",
      "note_on channel=6 note=57 velocity=55 time=0\n",
      "note_on channel=10 note=54 velocity=48 time=1\n",
      "note_off channel=10 note=54 velocity=64 time=11\n",
      "note_off channel=4 note=62 velocity=64 time=11\n",
      "note_on channel=9 note=42 velocity=61 time=0\n",
      "note_off channel=9 note=42 velocity=64 time=0\n",
      "note_off channel=1 note=35 velocity=64 time=0\n",
      "note_on channel=1 note=28 velocity=89 time=0\n",
      "note_on channel=6 note=69 velocity=73 time=0\n",
      "note_on channel=6 note=62 velocity=90 time=0\n",
      "note_on channel=6 note=66 velocity=85 time=0\n",
      "note_on channel=10 note=64 velocity=72 time=0\n",
      "note_on channel=10 note=57 velocity=81 time=0\n",
      "<meta message lyrics text='dig ' time=1>\n",
      "note_on channel=3 note=71 velocity=106 time=0\n",
      "note_off channel=4 note=69 velocity=64 time=0\n",
      "note_on channel=4 note=62 velocity=79 time=0\n",
      "note_on channel=4 note=71 velocity=105 time=0\n",
      "note_on channel=9 note=40 velocity=110 time=0\n",
      "note_off channel=9 note=40 velocity=64 time=0\n",
      "note_on channel=9 note=69 velocity=52 time=0\n",
      "note_off channel=9 note=69 velocity=64 time=0\n",
      "note_off channel=6 note=57 velocity=64 time=2\n",
      "<meta message lyrics text='in ' time=21>\n",
      "note_off channel=3 note=71 velocity=64 time=0\n",
      "note_on channel=3 note=69 velocity=106 time=0\n",
      "note_off channel=4 note=62 velocity=64 time=0\n",
      "note_off channel=4 note=71 velocity=64 time=1\n",
      "note_on channel=4 note=62 velocity=79 time=0\n",
      "note_on channel=4 note=69 velocity=103 time=0\n",
      "note_on channel=9 note=42 velocity=43 time=0\n",
      "note_off channel=9 note=42 velocity=64 time=0\n",
      "note_on channel=9 note=69 velocity=43 time=0\n",
      "note_off channel=9 note=69 velocity=64 time=0\n",
      "note_on channel=9 note=54 velocity=63 time=23\n",
      "note_off channel=9 note=54 velocity=64 time=0\n",
      "note_off channel=1 note=28 velocity=64 time=0\n",
      "note_on channel=1 note=30 velocity=93 time=0\n",
      "note_on channel=9 note=46 velocity=45 time=1\n",
      "note_off channel=9 note=46 velocity=64 time=0\n",
      "note_on channel=9 note=69 velocity=64 time=0\n",
      "note_off channel=9 note=69 velocity=64 time=0\n",
      "note_off channel=7 note=54 velocity=64 time=0\n",
      "note_off channel=0 note=64 velocity=64 time=2\n",
      "note_off channel=0 note=69 velocity=64 time=1\n",
      "note_off channel=3 note=69 velocity=64 time=18\n",
      "note_off channel=4 note=62 velocity=64 time=2\n",
      "<meta message lyrics text='the ' time=1>\n",
      "note_on channel=3 note=68 velocity=100 time=0\n",
      "note_off channel=4 note=69 velocity=64 time=0\n",
      "note_on channel=4 note=62 velocity=78 time=0\n",
      "note_on channel=4 note=68 velocity=104 time=0\n",
      "note_on channel=9 note=69 velocity=43 time=0\n",
      "note_off channel=9 note=69 velocity=64 time=0\n",
      "note_on channel=9 note=54 velocity=42 time=0\n",
      "note_off channel=9 note=54 velocity=64 time=0\n",
      "note_off channel=6 note=69 velocity=64 time=15\n",
      "note_off channel=6 note=66 velocity=64 time=1\n",
      "note_off channel=1 note=30 velocity=64 time=2\n",
      "note_off channel=6 note=62 velocity=64 time=0\n",
      "note_off channel=3 note=68 velocity=64 time=1\n",
      "note_off channel=4 note=68 velocity=64 time=4\n",
      "note_off channel=4 note=62 velocity=64 time=0\n",
      "note_on channel=9 note=36 velocity=110 time=0\n",
      "note_off channel=9 note=36 velocity=64 time=0\n",
      "note_on channel=9 note=42 velocity=65 time=0\n",
      "note_off channel=9 note=42 velocity=64 time=0\n",
      "note_on channel=4 note=62 velocity=78 time=1\n",
      "note_on channel=4 note=68 velocity=105 time=0\n",
      "note_on channel=1 note=33 velocity=108 time=0\n",
      "note_on channel=0 note=69 velocity=73 time=0\n",
      "note_on channel=0 note=64 velocity=80 time=0\n",
      "note_on channel=6 note=57 velocity=60 time=0\n",
      "note_on channel=7 note=64 velocity=75 time=0\n",
      "note_on channel=13 note=45 velocity=72 time=0\n",
      "note_on channel=9 note=69 velocity=47 time=1\n",
      "note_off channel=9 note=69 velocity=64 time=0\n",
      "<meta message lyrics text='danc' time=1>\n",
      "note_on channel=3 note=68 velocity=106 time=0\n",
      "note_off channel=10 note=57 velocity=64 time=0\n",
      "note_off channel=10 note=64 velocity=64 time=3\n",
      "note_on channel=6 note=64 velocity=76 time=18\n",
      "note_on channel=6 note=69 velocity=74 time=0\n",
      "note_on channel=6 note=62 velocity=72 time=0\n",
      "note_on channel=10 note=62 velocity=74 time=0\n",
      "note_on channel=10 note=57 velocity=65 time=0\n",
      "note_on channel=9 note=42 velocity=45 time=1\n",
      "note_off channel=9 note=42 velocity=64 time=0\n",
      "note_on channel=9 note=69 velocity=45 time=1\n",
      "note_off channel=9 note=69 velocity=64 time=0\n",
      "note_off channel=6 note=57 velocity=64 time=0\n",
      "note_off channel=6 note=64 velocity=64 time=10\n",
      "note_off channel=10 note=62 velocity=64 time=3\n",
      "note_on channel=10 note=62 velocity=58 time=8\n",
      "note_on channel=9 note=46 velocity=51 time=1\n",
      "note_off channel=9 note=46 velocity=64 time=0\n",
      "note_on channel=9 note=54 velocity=70 time=0\n",
      "note_off channel=9 note=54 velocity=64 time=0\n",
      "note_on channel=6 note=64 velocity=67 time=0\n",
      "note_on channel=9 note=69 velocity=66 time=1\n",
      "note_off channel=9 note=69 velocity=64 time=0\n",
      "note_off channel=1 note=33 velocity=64 time=4\n",
      "note_off channel=0 note=69 velocity=64 time=2\n",
      "note_off channel=0 note=64 velocity=64 time=4\n",
      "note_off channel=6 note=69 velocity=64 time=9\n",
      "note_off channel=3 note=68 velocity=64 time=3\n",
      "note_off channel=6 note=62 velocity=64 time=0\n",
      "note_off channel=10 note=62 velocity=64 time=0\n",
      "note_on channel=9 note=36 velocity=107 time=1\n",
      "note_off channel=9 note=36 velocity=64 time=0\n",
      "note_on channel=1 note=33 velocity=80 time=0\n",
      "note_off channel=10 note=57 velocity=64 time=0\n",
      "<meta message lyrics text='ing ' time=1>\n",
      "note_on channel=3 note=69 velocity=108 time=0\n",
      "note_off channel=4 note=68 velocity=64 time=0\n",
      "note_off channel=4 note=62 velocity=64 time=0\n",
      "note_on channel=4 note=61 velocity=78 time=0\n",
      "note_on channel=4 note=69 velocity=106 time=0\n",
      "note_on channel=9 note=69 velocity=43 time=0\n",
      "note_off channel=9 note=69 velocity=64 time=0\n",
      "note_on channel=9 note=54 velocity=47 time=0\n",
      "note_off channel=9 note=54 velocity=64 time=0\n",
      "note_on channel=0 note=64 velocity=80 time=0\n",
      "note_on channel=0 note=57 velocity=76 time=0\n",
      "note_on channel=0 note=62 velocity=87 time=0\n",
      "note_on channel=0 note=69 velocity=71 time=0\n",
      "note_off channel=6 note=64 velocity=64 time=0\n",
      "note_on channel=6 note=57 velocity=59 time=0\n",
      "note_off channel=0 note=69 velocity=64 time=16\n",
      "note_off channel=1 note=33 velocity=64 time=1\n",
      "note_off channel=6 note=57 velocity=64 time=0\n",
      "note_on channel=9 note=40 velocity=104 time=5\n",
      "note_off channel=9 note=40 velocity=64 time=0\n",
      "note_on channel=6 note=62 velocity=83 time=1\n",
      "note_on channel=6 note=69 velocity=77 time=0\n",
      "note_on channel=6 note=64 velocity=83 time=0\n",
      "note_on channel=10 note=57 velocity=69 time=0\n",
      "note_on channel=10 note=62 velocity=81 time=0\n",
      "note_on channel=9 note=42 velocity=63 time=1\n",
      "note_off channel=9 note=42 velocity=64 time=0\n",
      "note_on channel=9 note=69 velocity=50 time=0\n",
      "note_off channel=9 note=69 velocity=64 time=0\n",
      "note_on channel=1 note=33 velocity=108 time=0\n",
      "note_off channel=0 note=62 velocity=64 time=1\n",
      "note_off channel=0 note=64 velocity=64 time=7\n",
      "note_off channel=6 note=64 velocity=64 time=8\n",
      "note_off channel=0 note=57 velocity=64 time=2\n",
      "note_off channel=6 note=69 velocity=64 time=1\n",
      "note_off channel=6 note=62 velocity=64 time=1\n",
      "note_off channel=3 note=69 velocity=64 time=2\n",
      "note_on channel=9 note=69 velocity=46 time=2\n",
      "note_off channel=9 note=69 velocity=64 time=0\n",
      "note_on channel=6 note=57 velocity=60 time=0\n",
      "note_off channel=10 note=62 velocity=64 time=4\n",
      "note_off channel=10 note=57 velocity=64 time=3\n",
      "note_off channel=1 note=33 velocity=64 time=2\n",
      "note_off channel=6 note=57 velocity=64 time=8\n",
      "note_off channel=4 note=69 velocity=64 time=6\n",
      "note_off channel=4 note=61 velocity=64 time=0\n",
      "note_on channel=9 note=36 velocity=107 time=0\n",
      "note_off channel=9 note=36 velocity=64 time=0\n",
      "note_on channel=9 note=54 velocity=65 time=0\n",
      "note_off channel=9 note=54 velocity=64 time=0\n",
      "note_on channel=1 note=33 velocity=84 time=0\n",
      "note_on channel=0 note=64 velocity=87 time=0\n",
      "<meta message lyrics text='queen, ' time=1>\n",
      "<meta message lyrics text='\\r' time=0>\n",
      "note_on channel=3 note=69 velocity=107 time=0\n",
      "note_on channel=4 note=61 velocity=77 time=0\n",
      "note_on channel=4 note=69 velocity=105 time=0\n",
      "note_on channel=9 note=46 velocity=47 time=0\n",
      "note_off channel=9 note=46 velocity=64 time=0\n",
      "note_on channel=9 note=69 velocity=62 time=0\n",
      "note_off channel=9 note=69 velocity=64 time=0\n",
      "note_on channel=0 note=57 velocity=87 time=0\n",
      "note_on channel=0 note=61 velocity=79 time=0\n",
      "note_on channel=0 note=69 velocity=71 time=0\n",
      "note_on channel=10 note=61 velocity=64 time=0\n",
      "note_on channel=10 note=57 velocity=64 time=0\n",
      "note_off channel=7 note=62 velocity=64 time=0\n",
      "note_on channel=7 note=61 velocity=73 time=0\n",
      "note_on channel=6 note=64 velocity=90 time=1\n",
      "note_on channel=6 note=69 velocity=73 time=0\n",
      "note_on channel=6 note=61 velocity=67 time=0\n",
      "note_off channel=10 note=61 velocity=64 time=11\n",
      "note_off channel=6 note=64 velocity=64 time=5\n",
      "note_on channel=9 note=69 velocity=47 time=7\n",
      "note_off channel=9 note=69 velocity=64 time=0\n",
      "note_on channel=9 note=54 velocity=39 time=0\n",
      "note_off channel=9 note=54 velocity=64 time=0\n",
      "note_on channel=6 note=64 velocity=60 time=0\n",
      "note_on channel=10 note=61 velocity=64 time=0\n",
      "note_off channel=1 note=33 velocity=64 time=19\n",
      "note_off channel=6 note=69 velocity=64 time=1\n",
      "note_off channel=10 note=61 velocity=64 time=0\n",
      "note_off channel=6 note=64 velocity=64 time=1\n",
      "note_off channel=6 note=61 velocity=64 time=0\n",
      "note_off channel=10 note=57 velocity=64 time=0\n",
      "note_on channel=9 note=36 velocity=110 time=2\n",
      "note_off channel=9 note=36 velocity=64 time=0\n",
      "note_on channel=9 note=42 velocity=54 time=1\n",
      "note_off channel=9 note=42 velocity=64 time=0\n",
      "note_on channel=9 note=69 velocity=47 time=0\n",
      "note_off channel=9 note=69 velocity=64 time=0\n",
      "note_on channel=6 note=57 velocity=59 time=0\n",
      "note_off channel=6 note=57 velocity=64 time=15\n",
      "note_on channel=10 note=57 velocity=70 time=7\n",
      "note_on channel=10 note=61 velocity=79 time=0\n",
      "note_on channel=6 note=69 velocity=74 time=1\n",
      "note_on channel=9 note=69 velocity=43 time=1\n",
      "note_off channel=9 note=69 velocity=64 time=0\n",
      "note_on channel=1 note=33 velocity=100 time=0\n",
      "note_on channel=6 note=61 velocity=63 time=0\n",
      "note_on channel=6 note=64 velocity=86 time=0\n",
      "note_off channel=10 note=61 velocity=64 time=12\n",
      "note_off channel=10 note=57 velocity=64 time=5\n",
      "note_off channel=1 note=33 velocity=64 time=1\n",
      "note_off channel=6 note=69 velocity=64 time=1\n",
      "note_off channel=6 note=64 velocity=64 time=2\n",
      "note_on channel=9 note=54 velocity=57 time=2\n",
      "note_off channel=9 note=54 velocity=64 time=0\n",
      "note_off channel=6 note=61 velocity=64 time=0\n",
      "note_on channel=9 note=46 velocity=40 time=1\n",
      "note_off channel=9 note=46 velocity=64 time=0\n",
      "note_on channel=9 note=69 velocity=71 time=0\n",
      "note_off channel=9 note=69 velocity=64 time=0\n",
      "note_on channel=1 note=33 velocity=93 time=0\n",
      "note_on channel=6 note=57 velocity=58 time=0\n",
      "note_off channel=6 note=57 velocity=64 time=8\n",
      "note_off channel=0 note=57 velocity=64 time=7\n",
      "note_off channel=0 note=61 velocity=64 time=4\n",
      "note_on channel=9 note=69 velocity=39 time=5\n",
      "note_off channel=9 note=69 velocity=64 time=0\n",
      "note_on channel=9 note=54 velocity=42 time=0\n",
      "note_off channel=9 note=54 velocity=64 time=0\n",
      "note_off channel=0 note=64 velocity=64 time=0\n",
      "note_on channel=0 note=93 velocity=83 time=0\n",
      "note_on channel=0 note=88 velocity=120 time=0\n",
      "note_on channel=0 note=85 velocity=101 time=0\n",
      "note_on channel=10 note=52 velocity=58 time=0\n",
      "note_off channel=0 note=69 velocity=64 time=1\n",
      "note_on channel=6 note=57 velocity=56 time=1\n",
      "note_off channel=0 note=85 velocity=64 time=6\n",
      "note_off channel=10 note=52 velocity=64 time=3\n",
      "note_off channel=0 note=88 velocity=64 time=1\n",
      "note_off channel=6 note=57 velocity=64 time=3\n",
      "note_off channel=0 note=93 velocity=64 time=1\n",
      "note_off channel=1 note=33 velocity=64 time=2\n",
      "note_on channel=9 note=40 velocity=104 time=5\n",
      "note_off channel=9 note=40 velocity=64 time=0\n",
      "note_on channel=1 note=40 velocity=81 time=0\n",
      "note_on channel=10 note=57 velocity=77 time=0\n",
      "note_on channel=10 note=61 velocity=85 time=0\n",
      "note_on channel=9 note=42 velocity=61 time=1\n",
      "note_off channel=9 note=42 velocity=64 time=0\n",
      "note_on channel=9 note=69 velocity=52 time=0\n",
      "note_off channel=9 note=69 velocity=64 time=0\n",
      "note_on channel=0 note=93 velocity=66 time=0\n",
      "note_on channel=0 note=88 velocity=99 time=0\n",
      "note_on channel=0 note=85 velocity=92 time=0\n",
      "note_on channel=6 note=69 velocity=81 time=0\n",
      "note_on channel=6 note=61 velocity=71 time=0\n",
      "note_on channel=6 note=64 velocity=90 time=0\n",
      "note_off channel=1 note=40 velocity=64 time=23\n",
      "note_on channel=1 note=42 velocity=72 time=0\n",
      "note_on channel=9 note=42 velocity=44 time=1\n",
      "note_off channel=9 note=42 velocity=64 time=0\n",
      "note_on channel=9 note=69 velocity=45 time=0\n",
      "note_off channel=9 note=69 velocity=64 time=0\n",
      "note_off channel=1 note=42 velocity=64 time=22\n",
      "note_on channel=9 note=46 velocity=51 time=1\n",
      "note_off channel=9 note=46 velocity=64 time=0\n",
      "note_on channel=9 note=54 velocity=39 time=0\n",
      "note_off channel=9 note=54 velocity=64 time=0\n",
      "note_on channel=1 note=45 velocity=77 time=0\n",
      "note_on channel=9 note=69 velocity=67 time=1\n",
      "note_off channel=9 note=69 velocity=64 time=0\n",
      "note_off channel=0 note=88 velocity=64 time=3\n",
      "note_off channel=0 note=85 velocity=64 time=1\n",
      "note_off channel=0 note=93 velocity=64 time=3\n",
      "note_on channel=9 note=54 velocity=41 time=16\n",
      "note_off channel=9 note=54 velocity=64 time=0\n",
      "note_on channel=9 note=69 velocity=41 time=1\n",
      "note_off channel=9 note=69 velocity=64 time=0\n",
      "note_on channel=0 note=83 velocity=106 time=0\n",
      "note_on channel=0 note=92 velocity=78 time=0\n",
      "note_on channel=0 note=88 velocity=81 time=0\n",
      "note_off channel=0 note=88 velocity=64 time=7\n",
      "note_off channel=0 note=92 velocity=64 time=4\n",
      "note_off channel=0 note=83 velocity=64 time=1\n",
      "note_off channel=6 note=64 velocity=64 time=4\n",
      "note_off channel=6 note=69 velocity=64 time=1\n",
      "note_off channel=8 note=76 velocity=64 time=1\n",
      "note_off channel=8 note=88 velocity=64 time=0\n",
      "note_off channel=6 note=61 velocity=64 time=4\n",
      "note_off channel=4 note=69 velocity=64 time=1\n",
      "note_off channel=4 note=64 velocity=64 time=0\n",
      "note_on channel=9 note=36 velocity=112 time=0\n",
      "note_off channel=9 note=36 velocity=64 time=0\n",
      "note_on channel=9 note=42 velocity=63 time=0\n",
      "note_off channel=9 note=42 velocity=64 time=0\n",
      "note_off channel=4 note=61 velocity=64 time=1\n",
      "note_on channel=4 note=64 velocity=76 time=0\n",
      "note_on channel=4 note=69 velocity=76 time=0\n",
      "note_on channel=4 note=62 velocity=76 time=0\n",
      "note_on channel=9 note=69 velocity=52 time=0\n",
      "note_off channel=9 note=69 velocity=64 time=0\n",
      "note_off channel=1 note=45 velocity=64 time=0\n",
      "note_on channel=1 note=33 velocity=87 time=0\n",
      "note_on channel=6 note=57 velocity=62 time=0\n",
      "note_off channel=10 note=61 velocity=64 time=0\n",
      "note_off channel=7 note=61 velocity=64 time=0\n",
      "note_off channel=7 note=64 velocity=64 time=0\n",
      "note_on channel=7 note=66 velocity=71 time=0\n",
      "note_on channel=7 note=62 velocity=79 time=0\n",
      "note_on channel=0 note=92 velocity=99 time=1\n",
      "note_on channel=0 note=83 velocity=93 time=1\n",
      "note_on channel=0 note=88 velocity=106 time=0\n",
      "note_off channel=10 note=57 velocity=64 time=2\n",
      "note_on channel=9 note=42 velocity=47 time=19\n",
      "note_off channel=9 note=42 velocity=64 time=0\n",
      "note_on channel=9 note=69 velocity=43 time=1\n",
      "note_off channel=9 note=69 velocity=64 time=0\n",
      "note_on channel=6 note=62 velocity=73 time=0\n",
      "note_on channel=6 note=69 velocity=66 time=0\n",
      "note_on channel=6 note=66 velocity=63 time=0\n",
      "note_on channel=10 note=62 velocity=69 time=0\n",
      "note_on channel=10 note=57 velocity=64 time=0\n",
      "note_off channel=6 note=57 velocity=64 time=4\n",
      "note_off channel=3 note=69 velocity=64 time=1\n",
      "note_off channel=6 note=66 velocity=64 time=6\n",
      "note_off channel=6 note=62 velocity=64 time=1\n",
      "note_off channel=10 note=62 velocity=64 time=1\n",
      "note_off channel=6 note=69 velocity=64 time=1\n",
      "note_on channel=9 note=46 velocity=47 time=8\n",
      "note_off channel=9 note=46 velocity=64 time=0\n",
      "note_on channel=6 note=69 velocity=62 time=0\n",
      "note_on channel=9 note=54 velocity=78 time=1\n",
      "note_off channel=9 note=54 velocity=64 time=0\n",
      "note_on channel=6 note=62 velocity=74 time=0\n",
      "note_on channel=6 note=66 velocity=81 time=0\n",
      "note_on channel=10 note=62 velocity=66 time=0\n",
      "note_on channel=9 note=69 velocity=69 time=1\n",
      "note_off channel=9 note=69 velocity=64 time=0\n",
      "note_off channel=1 note=33 velocity=64 time=0\n",
      "note_off channel=0 note=88 velocity=64 time=4\n",
      "note_off channel=0 note=83 velocity=64 time=1\n",
      "note_off channel=0 note=92 velocity=64 time=1\n",
      "note_off channel=6 note=66 velocity=64 time=16\n",
      "note_off channel=10 note=62 velocity=64 time=0\n",
      "note_off channel=10 note=57 velocity=64 time=0\n",
      "note_on channel=1 note=33 velocity=82 time=1\n",
      "note_on channel=9 note=36 velocity=102 time=1\n",
      "note_off channel=9 note=36 velocity=64 time=0\n",
      "note_on channel=9 note=69 velocity=49 time=0\n",
      "note_off channel=9 note=69 velocity=64 time=0\n",
      "note_on channel=9 note=54 velocity=41 time=0\n",
      "note_off channel=9 note=54 velocity=64 time=0\n",
      "note_on channel=10 note=54 velocity=52 time=0\n",
      "note_on channel=0 note=90 velocity=101 time=1\n",
      "note_on channel=0 note=86 velocity=99 time=0\n",
      "note_on channel=6 note=57 velocity=60 time=0\n",
      "note_on channel=0 note=81 velocity=92 time=1\n",
      "note_off channel=6 note=62 velocity=64 time=1\n",
      "note_off channel=6 note=69 velocity=64 time=2\n",
      "note_off channel=10 note=54 velocity=64 time=5\n",
      "note_off channel=0 note=86 velocity=64 time=2\n",
      "note_off channel=0 note=81 velocity=64 time=1\n",
      "note_off channel=0 note=90 velocity=64 time=0\n",
      "note_off channel=1 note=33 velocity=64 time=2\n",
      "note_off channel=6 note=57 velocity=64 time=2\n",
      "note_on channel=10 note=62 velocity=79 time=5\n",
      "note_on channel=10 note=57 velocity=69 time=0\n",
      "note_on channel=9 note=42 velocity=59 time=1\n",
      "note_off channel=9 note=42 velocity=64 time=0\n",
      "note_on channel=1 note=33 velocity=97 time=0\n",
      "note_on channel=9 note=40 velocity=94 time=1\n",
      "note_off channel=9 note=40 velocity=64 time=0\n",
      "note_on channel=9 note=69 velocity=50 time=0\n",
      "note_off channel=9 note=69 velocity=64 time=0\n",
      "note_on channel=6 note=69 velocity=76 time=0\n",
      "note_on channel=6 note=62 velocity=93 time=0\n",
      "note_on channel=6 note=66 velocity=86 time=0\n",
      "note_on channel=0 note=81 velocity=93 time=1\n",
      "note_on channel=0 note=86 velocity=114 time=0\n",
      "note_on channel=0 note=90 velocity=110 time=0\n",
      "note_off channel=6 note=66 velocity=64 time=19\n",
      "note_off channel=10 note=62 velocity=64 time=1\n",
      "note_off channel=10 note=57 velocity=64 time=1\n",
      "note_on channel=10 note=54 velocity=45 time=0\n",
      "note_on channel=9 note=69 velocity=43 time=2\n",
      "note_off channel=9 note=69 velocity=64 time=0\n",
      "note_on channel=6 note=57 velocity=59 time=0\n",
      "note_off channel=6 note=62 velocity=64 time=1\n",
      "note_off channel=6 note=69 velocity=64 time=1\n",
      "note_off channel=1 note=33 velocity=64 time=6\n",
      "note_off channel=10 note=54 velocity=64 time=2\n",
      "note_off channel=6 note=57 velocity=64 time=8\n",
      "note_on channel=10 note=62 velocity=74 time=4\n",
      "note_on channel=9 note=54 velocity=70 time=1\n",
      "note_off channel=9 note=54 velocity=64 time=0\n",
      "note_on channel=1 note=33 velocity=91 time=0\n",
      "note_on channel=6 note=69 velocity=67 time=0\n",
      "note_on channel=6 note=62 velocity=70 time=0\n",
      "note_on channel=6 note=66 velocity=75 time=0\n",
      "note_on channel=10 note=57 velocity=67 time=0\n",
      "note_on channel=9 note=36 velocity=104 time=1\n",
      "note_off channel=9 note=36 velocity=64 time=0\n",
      "note_on channel=9 note=46 velocity=41 time=0\n",
      "note_off channel=9 note=46 velocity=64 time=0\n",
      "note_on channel=9 note=69 velocity=63 time=0\n",
      "note_off channel=9 note=69 velocity=64 time=0\n",
      "note_off channel=6 note=66 velocity=64 time=9\n",
      "note_off channel=6 note=62 velocity=64 time=2\n",
      "note_off channel=6 note=69 velocity=64 time=0\n",
      "note_off channel=10 note=62 velocity=64 time=0\n",
      "note_off channel=10 note=57 velocity=64 time=3\n",
      "note_on channel=6 note=69 velocity=65 time=8\n",
      "note_on channel=6 note=66 velocity=77 time=1\n",
      "note_on channel=6 note=62 velocity=68 time=0\n",
      "note_on channel=10 note=57 velocity=63 time=0\n",
      "note_on channel=10 note=62 velocity=70 time=0\n",
      "note_on channel=9 note=69 velocity=43 time=1\n",
      "note_off channel=9 note=69 velocity=64 time=0\n",
      "note_on channel=9 note=54 velocity=37 time=0\n",
      "note_off channel=9 note=54 velocity=64 time=0\n",
      "note_off channel=1 note=33 velocity=64 time=19\n",
      "note_off channel=6 note=66 velocity=64 time=1\n",
      "note_off channel=6 note=62 velocity=64 time=2\n",
      "note_off channel=6 note=69 velocity=64 time=0\n",
      "note_off channel=10 note=62 velocity=64 time=0\n",
      "note_on channel=9 note=42 velocity=70 time=1\n",
      "note_off channel=9 note=42 velocity=64 time=0\n",
      "note_on channel=6 note=57 velocity=59 time=0\n",
      "note_on channel=9 note=36 velocity=104 time=1\n",
      "note_off channel=9 note=36 velocity=64 time=0\n",
      "note_on channel=9 note=69 velocity=49 time=0\n",
      "note_off channel=9 note=69 velocity=64 time=0\n",
      "note_off channel=10 note=57 velocity=64 time=1\n",
      "note_off channel=6 note=57 velocity=64 time=13\n",
      "note_on channel=1 note=33 velocity=105 time=8\n",
      "note_on channel=6 note=62 velocity=73 time=0\n",
      "note_on channel=6 note=69 velocity=74 time=0\n",
      "note_on channel=6 note=66 velocity=74 time=0\n",
      "note_on channel=10 note=57 velocity=67 time=0\n",
      "note_on channel=10 note=62 velocity=75 time=0\n",
      "note_on channel=9 note=40 velocity=104 time=1\n",
      "note_off channel=9 note=40 velocity=64 time=0\n",
      "note_on channel=9 note=69 velocity=41 time=1\n",
      "note_off channel=9 note=69 velocity=64 time=0\n",
      "note_off channel=10 note=62 velocity=64 time=10\n",
      "note_off channel=10 note=57 velocity=64 time=3\n",
      "note_off channel=1 note=33 velocity=64 time=5\n",
      "note_off channel=6 note=66 velocity=64 time=0\n",
      "note_off channel=6 note=69 velocity=64 time=2\n",
      "note_off channel=6 note=62 velocity=64 time=0\n",
      "note_on channel=1 note=28 velocity=69 time=2\n",
      "note_on channel=9 note=54 velocity=70 time=1\n",
      "note_off channel=9 note=54 velocity=64 time=0\n",
      "note_on channel=9 note=69 velocity=67 time=1\n",
      "note_off channel=9 note=69 velocity=64 time=0\n",
      "note_off channel=1 note=28 velocity=64 time=22\n",
      "note_on channel=1 note=29 velocity=82 time=0\n",
      "note_on channel=6 note=57 velocity=58 time=1\n",
      "note_on channel=10 note=54 velocity=59 time=0\n",
      "note_on channel=9 note=69 velocity=44 time=1\n",
      "note_off channel=9 note=69 velocity=64 time=0\n",
      "note_on channel=9 note=54 velocity=41 time=0\n",
      "note_off channel=9 note=54 velocity=64 time=0\n",
      "note_off channel=10 note=54 velocity=64 time=11\n",
      "note_off channel=6 note=57 velocity=64 time=6\n",
      "note_off channel=1 note=29 velocity=64 time=5\n",
      "note_on channel=10 note=57 velocity=77 time=0\n",
      "note_on channel=10 note=62 velocity=81 time=0\n",
      "note_on channel=9 note=42 velocity=73 time=1\n",
      "note_off channel=9 note=42 velocity=64 time=0\n",
      "note_on channel=6 note=69 velocity=79 time=0\n",
      "note_on channel=6 note=66 velocity=100 time=0\n",
      "note_on channel=6 note=62 velocity=100 time=0\n",
      "note_on channel=9 note=40 velocity=110 time=1\n",
      "note_off channel=9 note=40 velocity=64 time=0\n",
      "note_on channel=9 note=69 velocity=59 time=0\n",
      "note_off channel=9 note=69 velocity=64 time=0\n",
      "note_on channel=1 note=30 velocity=114 time=0\n",
      "note_on channel=5 note=73 velocity=93 time=2\n",
      "note_off channel=0 note=81 velocity=64 time=0\n",
      "note_off channel=0 note=86 velocity=64 time=5\n",
      "note_off channel=0 note=90 velocity=64 time=4\n",
      "note_off channel=1 note=30 velocity=64 time=5\n",
      "note_on channel=9 note=69 velocity=47 time=8\n",
      "note_off channel=9 note=69 velocity=64 time=0\n",
      "note_on channel=1 note=30 velocity=84 time=0\n",
      "note_off channel=5 note=73 velocity=64 time=2\n",
      "note_on channel=5 note=71 velocity=94 time=1\n",
      "note_off channel=13 note=45 velocity=64 time=5\n",
      "note_off channel=1 note=30 velocity=64 time=12\n",
      "note_on channel=9 note=54 velocity=65 time=3\n",
      "note_off channel=9 note=54 velocity=64 time=0\n",
      "note_on channel=1 note=33 velocity=77 time=0\n",
      "note_on channel=9 note=46 velocity=43 time=1\n",
      "note_off channel=9 note=46 velocity=64 time=0\n",
      "note_on channel=9 note=69 velocity=68 time=0\n",
      "note_off channel=9 note=69 velocity=64 time=0\n",
      "note_off channel=10 note=57 velocity=64 time=12\n",
      "note_off channel=10 note=62 velocity=64 time=8\n",
      "note_off channel=1 note=33 velocity=64 time=3\n",
      "note_on channel=1 note=30 velocity=73 time=0\n",
      "note_off channel=4 note=62 velocity=64 time=1\n",
      "note_off channel=4 note=69 velocity=64 time=0\n",
      "note_off channel=4 note=64 velocity=64 time=0\n",
      "note_on channel=9 note=69 velocity=41 time=0\n",
      "note_off channel=9 note=69 velocity=64 time=0\n",
      "note_on channel=9 note=54 velocity=49 time=0\n",
      "note_off channel=9 note=54 velocity=64 time=0\n",
      "note_on channel=13 note=40 velocity=60 time=0\n",
      "note_off channel=5 note=71 velocity=64 time=5\n",
      "note_on channel=5 note=69 velocity=80 time=1\n",
      "note_off channel=6 note=66 velocity=64 time=8\n",
      "note_off channel=6 note=62 velocity=64 time=1\n",
      "note_off channel=6 note=69 velocity=64 time=3\n",
      "note_on channel=9 note=42 velocity=57 time=3\n",
      "note_off channel=9 note=42 velocity=64 time=0\n",
      "note_off channel=1 note=30 velocity=64 time=2\n",
      "note_on channel=11 note=45 velocity=74 time=0\n",
      "note_off channel=13 note=40 velocity=64 time=0\n",
      "note_on channel=9 note=36 velocity=112 time=1\n",
      "note_off channel=9 note=36 velocity=64 time=0\n",
      "note_on channel=9 note=69 velocity=38 time=0\n",
      "note_off channel=9 note=69 velocity=64 time=0\n",
      "note_on channel=1 note=33 velocity=100 time=0\n",
      "note_on channel=0 note=69 velocity=73 time=0\n",
      "note_on channel=0 note=64 velocity=80 time=0\n",
      "note_on channel=6 note=57 velocity=60 time=0\n",
      "note_off channel=7 note=62 velocity=64 time=0\n",
      "note_off channel=7 note=66 velocity=64 time=0\n",
      "note_on channel=7 note=64 velocity=75 time=0\n",
      "note_on channel=13 note=45 velocity=71 time=0\n",
      "note_off channel=5 note=69 velocity=64 time=5\n",
      "note_on channel=5 note=71 velocity=97 time=1\n",
      "note_off channel=11 note=45 velocity=64 time=3\n",
      "note_on channel=9 note=42 velocity=43 time=14\n",
      "note_off channel=9 note=42 velocity=64 time=0\n",
      "note_on channel=9 note=69 velocity=41 time=0\n",
      "note_off channel=9 note=69 velocity=64 time=0\n",
      "note_on channel=6 note=64 velocity=76 time=0\n",
      "note_on channel=6 note=69 velocity=74 time=0\n",
      "note_on channel=6 note=62 velocity=72 time=0\n",
      "note_on channel=10 note=62 velocity=74 time=0\n",
      "note_on channel=10 note=57 velocity=65 time=0\n",
      "note_off channel=6 note=57 velocity=64 time=2\n",
      "note_off channel=6 note=64 velocity=64 time=10\n",
      "note_off channel=10 note=62 velocity=64 time=3\n",
      "note_on channel=10 note=62 velocity=58 time=8\n",
      "note_on channel=9 note=46 velocity=53 time=1\n",
      "note_off channel=9 note=46 velocity=64 time=0\n",
      "note_on channel=9 note=69 velocity=48 time=0\n",
      "note_off channel=9 note=69 velocity=64 time=0\n",
      "note_on channel=9 note=54 velocity=44 time=0\n",
      "note_off channel=9 note=54 velocity=64 time=0\n",
      "note_on channel=6 note=64 velocity=67 time=0\n",
      "note_off channel=1 note=33 velocity=64 time=2\n",
      "note_off channel=0 note=69 velocity=64 time=5\n",
      "note_off channel=0 note=64 velocity=64 time=4\n",
      "note_off channel=6 note=69 velocity=64 time=9\n",
      "note_off channel=6 note=62 velocity=64 time=3\n",
      "note_off channel=10 note=62 velocity=64 time=0\n",
      "note_on channel=9 note=69 velocity=49 time=1\n",
      "note_off channel=9 note=69 velocity=64 time=0\n",
      "note_off channel=10 note=57 velocity=64 time=0\n",
      "note_on channel=9 note=36 velocity=90 time=1\n",
      "note_off channel=9 note=36 velocity=64 time=0\n",
      "note_on channel=9 note=54 velocity=28 time=0\n",
      "note_off channel=9 note=54 velocity=64 time=0\n",
      "note_on channel=1 note=33 velocity=82 time=0\n",
      "note_on channel=0 note=64 velocity=80 time=0\n",
      "note_on channel=0 note=57 velocity=76 time=0\n",
      "note_on channel=0 note=62 velocity=87 time=0\n",
      "note_on channel=0 note=69 velocity=71 time=0\n",
      "note_off channel=6 note=64 velocity=64 time=0\n",
      "note_on channel=6 note=57 velocity=59 time=0\n",
      "note_off channel=5 note=71 velocity=64 time=2\n",
      "note_on channel=5 note=73 velocity=85 time=2\n",
      "note_off channel=1 note=33 velocity=64 time=10\n",
      "note_off channel=0 note=69 velocity=64 time=2\n",
      "note_off channel=6 note=57 velocity=64 time=1\n",
      "note_on channel=9 note=40 velocity=88 time=6\n",
      "note_off channel=9 note=40 velocity=64 time=0\n",
      "note_on channel=9 note=69 velocity=41 time=0\n",
      "note_off channel=9 note=69 velocity=64 time=0\n",
      "note_on channel=6 note=62 velocity=83 time=0\n",
      "note_on channel=6 note=69 velocity=77 time=0\n",
      "note_on channel=6 note=64 velocity=83 time=0\n",
      "note_on channel=10 note=57 velocity=69 time=0\n",
      "note_on channel=10 note=62 velocity=81 time=0\n",
      "note_on channel=9 note=42 velocity=47 time=1\n",
      "note_off channel=9 note=42 velocity=64 time=0\n",
      "note_on channel=1 note=33 velocity=86 time=0\n",
      "note_off channel=0 note=62 velocity=64 time=1\n",
      "note_off channel=0 note=64 velocity=64 time=7\n",
      "note_off channel=6 note=64 velocity=64 time=8\n",
      "note_off channel=0 note=57 velocity=64 time=2\n",
      "note_off channel=6 note=69 velocity=64 time=1\n",
      "note_off channel=6 note=62 velocity=64 time=1\n",
      "note_on channel=9 note=69 velocity=47 time=3\n",
      "note_off channel=9 note=69 velocity=64 time=0\n",
      "note_on channel=6 note=57 velocity=60 time=1\n",
      "note_off channel=10 note=62 velocity=64 time=4\n",
      "note_off channel=10 note=57 velocity=64 time=3\n",
      "note_off channel=1 note=33 velocity=64 time=3\n",
      "note_off channel=6 note=57 velocity=64 time=7\n",
      "note_on channel=9 note=36 velocity=104 time=6\n",
      "note_off channel=9 note=36 velocity=64 time=0\n",
      "note_on channel=9 note=54 velocity=56 time=0\n",
      "note_off channel=9 note=54 velocity=64 time=0\n",
      "note_on channel=0 note=64 velocity=87 time=0\n",
      "note_on channel=9 note=46 velocity=51 time=1\n",
      "note_off channel=9 note=46 velocity=64 time=0\n",
      "note_on channel=9 note=69 velocity=62 time=0\n",
      "note_off channel=9 note=69 velocity=64 time=0\n",
      "note_on channel=1 note=33 velocity=93 time=0\n",
      "note_on channel=0 note=57 velocity=87 time=0\n",
      "note_on channel=0 note=61 velocity=79 time=0\n",
      "note_on channel=0 note=69 velocity=71 time=0\n",
      "note_on channel=10 note=61 velocity=64 time=0\n",
      "note_on channel=10 note=57 velocity=64 time=0\n",
      "note_on channel=7 note=61 velocity=73 time=0\n",
      "note_on channel=6 note=64 velocity=90 time=1\n",
      "note_on channel=6 note=69 velocity=73 time=0\n",
      "note_on channel=6 note=61 velocity=67 time=0\n",
      "note_off channel=10 note=61 velocity=64 time=11\n",
      "note_off channel=6 note=64 velocity=64 time=5\n",
      "note_on channel=9 note=69 velocity=48 time=7\n",
      "note_off channel=9 note=69 velocity=64 time=0\n",
      "note_on channel=9 note=54 velocity=32 time=0\n",
      "note_off channel=9 note=54 velocity=64 time=0\n",
      "note_on channel=6 note=64 velocity=60 time=0\n",
      "note_on channel=10 note=61 velocity=64 time=0\n",
      "note_off channel=6 note=69 velocity=64 time=20\n",
      "note_off channel=10 note=61 velocity=64 time=0\n",
      "note_off channel=1 note=33 velocity=64 time=1\n",
      "note_off channel=6 note=64 velocity=64 time=0\n",
      "note_off channel=6 note=61 velocity=64 time=0\n",
      "note_off channel=10 note=57 velocity=64 time=0\n",
      "note_on channel=9 note=36 velocity=107 time=2\n",
      "note_off channel=9 note=36 velocity=64 time=0\n",
      "note_on channel=9 note=42 velocity=52 time=1\n",
      "note_off channel=9 note=42 velocity=64 time=0\n",
      "note_on channel=9 note=69 velocity=36 time=0\n",
      "note_off channel=9 note=69 velocity=64 time=0\n",
      "note_on channel=6 note=57 velocity=59 time=0\n",
      "note_off channel=6 note=57 velocity=64 time=15\n",
      "note_on channel=10 note=57 velocity=70 time=7\n",
      "note_on channel=10 note=61 velocity=79 time=0\n",
      "note_on channel=1 note=33 velocity=89 time=1\n",
      "note_on channel=6 note=69 velocity=74 time=0\n",
      "note_on channel=9 note=69 velocity=48 time=1\n",
      "note_off channel=9 note=69 velocity=64 time=0\n",
      "note_on channel=6 note=61 velocity=63 time=0\n",
      "note_on channel=6 note=64 velocity=86 time=0\n",
      "note_off channel=10 note=61 velocity=64 time=12\n",
      "note_off channel=1 note=33 velocity=64 time=4\n",
      "note_off channel=10 note=57 velocity=64 time=1\n",
      "note_off channel=6 note=69 velocity=64 time=2\n",
      "note_off channel=6 note=64 velocity=64 time=2\n",
      "note_on channel=9 note=46 velocity=46 time=2\n",
      "note_off channel=9 note=46 velocity=64 time=0\n",
      "note_on channel=9 note=54 velocity=53 time=0\n",
      "note_off channel=9 note=54 velocity=64 time=0\n",
      "note_off channel=6 note=61 velocity=64 time=0\n",
      "note_on channel=9 note=69 velocity=62 time=1\n",
      "note_off channel=9 note=69 velocity=64 time=0\n",
      "note_on channel=1 note=33 velocity=89 time=0\n",
      "note_on channel=6 note=57 velocity=58 time=0\n",
      "note_off channel=6 note=57 velocity=64 time=8\n",
      "note_off channel=0 note=57 velocity=64 time=7\n",
      "note_off channel=0 note=61 velocity=64 time=4\n",
      "note_on channel=9 note=69 velocity=52 time=5\n",
      "note_off channel=9 note=69 velocity=64 time=0\n",
      "note_on channel=9 note=54 velocity=47 time=0\n",
      "note_off channel=9 note=54 velocity=64 time=0\n",
      "note_off channel=0 note=64 velocity=64 time=0\n",
      "note_on channel=0 note=93 velocity=83 time=0\n",
      "note_on channel=0 note=88 velocity=120 time=0\n",
      "note_on channel=0 note=85 velocity=101 time=0\n",
      "note_on channel=10 note=52 velocity=58 time=0\n",
      "note_on channel=13 note=40 velocity=61 time=0\n",
      "note_off channel=0 note=69 velocity=64 time=1\n",
      "note_off channel=13 note=45 velocity=64 time=0\n",
      "note_on channel=6 note=57 velocity=56 time=1\n",
      "note_off channel=0 note=85 velocity=64 time=6\n",
      "note_off channel=10 note=52 velocity=64 time=3\n",
      "note_off channel=0 note=88 velocity=64 time=1\n",
      "note_off channel=6 note=57 velocity=64 time=3\n",
      "note_off channel=0 note=93 velocity=64 time=1\n",
      "note_off channel=1 note=33 velocity=64 time=4\n",
      "note_off channel=13 note=40 velocity=64 time=1\n",
      "note_on channel=13 note=45 velocity=66 time=1\n",
      "note_on channel=9 note=42 velocity=47 time=1\n",
      "note_off channel=9 note=42 velocity=64 time=0\n",
      "note_on channel=1 note=40 velocity=77 time=0\n",
      "note_on channel=10 note=57 velocity=77 time=0\n",
      "note_on channel=10 note=61 velocity=85 time=0\n",
      "note_off channel=5 note=73 velocity=64 time=1\n",
      "note_on channel=5 note=71 velocity=96 time=0\n",
      "note_on channel=9 note=40 velocity=104 time=0\n",
      "note_off channel=9 note=40 velocity=64 time=0\n",
      "note_on channel=9 note=69 velocity=34 time=0\n",
      "note_off channel=9 note=69 velocity=64 time=0\n",
      "note_on channel=0 note=93 velocity=66 time=0\n",
      "note_on channel=0 note=88 velocity=99 time=0\n",
      "note_on channel=0 note=85 velocity=92 time=0\n",
      "note_on channel=6 note=69 velocity=81 time=0\n",
      "note_on channel=6 note=61 velocity=71 time=0\n",
      "note_on channel=6 note=64 velocity=90 time=0\n",
      "note_on channel=9 note=42 velocity=43 time=23\n",
      "note_off channel=9 note=42 velocity=64 time=0\n",
      "note_off channel=1 note=40 velocity=64 time=0\n",
      "note_on channel=1 note=42 velocity=69 time=0\n",
      "note_on channel=9 note=69 velocity=43 time=1\n",
      "note_off channel=9 note=69 velocity=64 time=0\n",
      "note_off channel=13 note=45 velocity=64 time=1\n",
      "note_off channel=1 note=42 velocity=64 time=18\n",
      "note_on channel=1 note=45 velocity=81 time=4\n",
      "note_on channel=13 note=45 velocity=69 time=0\n",
      "note_on channel=9 note=46 velocity=47 time=1\n",
      "note_off channel=9 note=46 velocity=64 time=0\n",
      "note_on channel=9 note=69 velocity=63 time=0\n",
      "note_off channel=9 note=69 velocity=64 time=0\n",
      "note_on channel=9 note=54 velocity=78 time=0\n",
      "note_off channel=9 note=54 velocity=64 time=0\n",
      "note_off channel=0 note=88 velocity=64 time=3\n",
      "note_off channel=0 note=85 velocity=64 time=1\n",
      "note_off channel=0 note=93 velocity=64 time=3\n",
      "note_on channel=9 note=69 velocity=59 time=17\n",
      "note_off channel=9 note=69 velocity=64 time=0\n",
      "note_on channel=0 note=83 velocity=106 time=0\n",
      "note_on channel=0 note=92 velocity=78 time=0\n",
      "note_on channel=0 note=88 velocity=81 time=0\n",
      "note_on channel=9 note=54 velocity=31 time=1\n",
      "note_off channel=9 note=54 velocity=64 time=0\n",
      "note_off channel=0 note=88 velocity=64 time=6\n",
      "note_off channel=0 note=92 velocity=64 time=4\n",
      "note_off channel=0 note=83 velocity=64 time=1\n",
      "note_off channel=6 note=64 velocity=64 time=4\n",
      "note_off channel=6 note=69 velocity=64 time=1\n",
      "note_off channel=6 note=61 velocity=64 time=5\n",
      "note_on channel=9 note=69 velocity=36 time=1\n",
      "note_off channel=9 note=69 velocity=64 time=0\n",
      "note_off channel=5 note=71 velocity=64 time=1\n",
      "note_on channel=9 note=36 velocity=111 time=0\n",
      "note_off channel=9 note=36 velocity=64 time=0\n",
      "note_on channel=9 note=42 velocity=57 time=0\n",
      "note_off channel=9 note=42 velocity=64 time=0\n",
      "note_off channel=1 note=45 velocity=64 time=0\n",
      "note_on channel=1 note=33 velocity=110 time=0\n",
      "note_on channel=6 note=57 velocity=62 time=0\n",
      "note_off channel=10 note=61 velocity=64 time=0\n",
      "note_off channel=7 note=61 velocity=64 time=0\n",
      "note_off channel=7 note=64 velocity=64 time=0\n",
      "note_on channel=7 note=66 velocity=71 time=0\n",
      "note_on channel=7 note=62 velocity=79 time=0\n",
      "note_on channel=5 note=74 velocity=95 time=1\n",
      "note_on channel=0 note=92 velocity=99 time=0\n",
      "note_on channel=0 note=83 velocity=93 time=1\n",
      "note_on channel=0 note=88 velocity=106 time=0\n",
      "note_off channel=10 note=57 velocity=64 time=2\n",
      "note_on channel=9 note=42 velocity=39 time=20\n",
      "note_off channel=9 note=42 velocity=64 time=0\n",
      "note_on channel=9 note=69 velocity=44 time=0\n",
      "note_off channel=9 note=69 velocity=64 time=0\n",
      "note_on channel=6 note=62 velocity=73 time=0\n",
      "note_on channel=6 note=69 velocity=66 time=0\n",
      "note_on channel=6 note=66 velocity=63 time=0\n",
      "note_on channel=10 note=62 velocity=69 time=0\n",
      "note_on channel=10 note=57 velocity=64 time=0\n",
      "note_off channel=6 note=57 velocity=64 time=4\n",
      "note_off channel=6 note=66 velocity=64 time=7\n",
      "note_off channel=6 note=62 velocity=64 time=1\n",
      "note_off channel=10 note=62 velocity=64 time=1\n",
      "note_off channel=6 note=69 velocity=64 time=1\n",
      "note_off channel=1 note=33 velocity=64 time=8\n",
      "note_on channel=6 note=69 velocity=62 time=0\n",
      "note_on channel=9 note=46 velocity=46 time=1\n",
      "note_off channel=9 note=46 velocity=64 time=0\n",
      "note_on channel=6 note=62 velocity=74 time=0\n",
      "note_on channel=6 note=66 velocity=81 time=0\n",
      "note_on channel=10 note=62 velocity=66 time=0\n",
      "note_on channel=9 note=69 velocity=71 time=1\n",
      "note_off channel=9 note=69 velocity=64 time=0\n",
      "note_on channel=9 note=54 velocity=70 time=0\n",
      "note_off channel=9 note=54 velocity=64 time=0\n",
      "note_off channel=0 note=88 velocity=64 time=4\n",
      "note_off channel=0 note=83 velocity=64 time=1\n",
      "note_off channel=0 note=92 velocity=64 time=1\n",
      "note_on channel=1 note=33 velocity=77 time=16\n",
      "note_off channel=6 note=66 velocity=64 time=0\n",
      "note_off channel=10 note=62 velocity=64 time=0\n",
      "note_off channel=10 note=57 velocity=64 time=0\n",
      "note_on channel=9 note=69 velocity=44 time=1\n",
      "note_off channel=9 note=69 velocity=64 time=0\n",
      "note_on channel=9 note=36 velocity=107 time=1\n",
      "note_off channel=9 note=36 velocity=64 time=0\n",
      "note_on channel=10 note=54 velocity=52 time=0\n",
      "note_on channel=9 note=54 velocity=33 time=1\n",
      "note_off channel=9 note=54 velocity=64 time=0\n",
      "note_on channel=0 note=90 velocity=101 time=0\n",
      "note_on channel=0 note=86 velocity=99 time=0\n",
      "note_on channel=6 note=57 velocity=60 time=0\n",
      "note_on channel=0 note=81 velocity=92 time=1\n",
      "note_off channel=6 note=62 velocity=64 time=1\n",
      "note_off channel=6 note=69 velocity=64 time=2\n",
      "note_off channel=10 note=54 velocity=64 time=5\n",
      "note_off channel=0 note=86 velocity=64 time=2\n",
      "note_off channel=0 note=81 velocity=64 time=1\n",
      "note_off channel=0 note=90 velocity=64 time=0\n",
      "note_off channel=1 note=33 velocity=64 time=1\n",
      "note_off channel=6 note=57 velocity=64 time=3\n",
      "note_on channel=10 note=62 velocity=79 time=5\n",
      "note_on channel=10 note=57 velocity=69 time=0\n",
      "note_on channel=9 note=40 velocity=104 time=1\n",
      "note_off channel=9 note=40 velocity=64 time=0\n",
      "note_on channel=9 note=42 velocity=42 time=0\n",
      "note_off channel=9 note=42 velocity=64 time=0\n",
      "note_on channel=1 note=33 velocity=95 time=0\n",
      "note_on channel=9 note=69 velocity=40 time=1\n",
      "note_off channel=9 note=69 velocity=64 time=0\n",
      "note_on channel=6 note=69 velocity=76 time=0\n",
      "note_on channel=6 note=62 velocity=93 time=0\n",
      "note_on channel=6 note=66 velocity=86 time=0\n",
      "note_on channel=0 note=81 velocity=93 time=1\n",
      "note_on channel=0 note=86 velocity=114 time=0\n",
      "note_on channel=0 note=90 velocity=110 time=0\n",
      "note_off channel=6 note=66 velocity=64 time=19\n",
      "note_off channel=10 note=62 velocity=64 time=1\n",
      "note_off channel=10 note=57 velocity=64 time=1\n",
      "note_on channel=10 note=54 velocity=45 time=0\n",
      "note_on channel=9 note=69 velocity=42 time=2\n",
      "note_off channel=9 note=69 velocity=64 time=0\n",
      "note_on channel=6 note=57 velocity=59 time=0\n",
      "note_off channel=6 note=62 velocity=64 time=1\n",
      "note_off channel=6 note=69 velocity=64 time=1\n",
      "note_off channel=10 note=54 velocity=64 time=8\n",
      "note_off channel=1 note=33 velocity=64 time=3\n",
      "note_off channel=6 note=57 velocity=64 time=5\n",
      "note_on channel=10 note=62 velocity=74 time=4\n",
      "note_on channel=9 note=46 velocity=45 time=1\n",
      "note_off channel=9 note=46 velocity=64 time=0\n",
      "note_on channel=1 note=33 velocity=97 time=0\n",
      "note_on channel=6 note=69 velocity=67 time=0\n",
      "note_on channel=6 note=62 velocity=70 time=0\n",
      "note_on channel=6 note=66 velocity=75 time=0\n",
      "note_on channel=10 note=57 velocity=67 time=0\n",
      "note_on channel=9 note=36 velocity=102 time=1\n",
      "note_off channel=9 note=36 velocity=64 time=0\n",
      "note_on channel=9 note=69 velocity=66 time=0\n",
      "note_off channel=9 note=69 velocity=64 time=0\n",
      "note_on channel=9 note=54 velocity=70 time=0\n",
      "note_off channel=9 note=54 velocity=64 time=0\n",
      "note_off channel=6 note=66 velocity=64 time=9\n",
      "note_off channel=6 note=62 velocity=64 time=2\n",
      "note_off channel=6 note=69 velocity=64 time=0\n",
      "note_off channel=10 note=62 velocity=64 time=0\n",
      "note_off channel=10 note=57 velocity=64 time=3\n",
      "note_on channel=6 note=69 velocity=65 time=8\n",
      "note_on channel=6 note=66 velocity=77 time=1\n",
      "note_on channel=6 note=62 velocity=68 time=0\n",
      "note_on channel=10 note=57 velocity=63 time=0\n",
      "note_on channel=10 note=62 velocity=70 time=0\n",
      "note_on channel=9 note=69 velocity=45 time=1\n",
      "note_off channel=9 note=69 velocity=64 time=0\n",
      "note_on channel=9 note=54 velocity=45 time=0\n",
      "note_off channel=9 note=54 velocity=64 time=0\n",
      "note_off channel=1 note=33 velocity=64 time=10\n",
      "note_off channel=6 note=66 velocity=64 time=10\n",
      "note_off channel=6 note=62 velocity=64 time=2\n",
      "note_off channel=6 note=69 velocity=64 time=0\n",
      "note_off channel=10 note=62 velocity=64 time=0\n",
      "note_on channel=6 note=57 velocity=59 time=1\n",
      "note_on channel=9 note=36 velocity=110 time=1\n",
      "note_off channel=9 note=36 velocity=64 time=0\n",
      "note_on channel=9 note=42 velocity=45 time=0\n",
      "note_off channel=9 note=42 velocity=64 time=0\n",
      "note_on channel=9 note=69 velocity=36 time=0\n",
      "note_off channel=9 note=69 velocity=64 time=0\n",
      "note_off channel=10 note=57 velocity=64 time=1\n",
      "note_off channel=6 note=57 velocity=64 time=13\n",
      "note_on channel=1 note=33 velocity=93 time=8\n",
      "note_on channel=6 note=62 velocity=73 time=0\n",
      "note_on channel=6 note=69 velocity=74 time=0\n",
      "note_on channel=6 note=66 velocity=74 time=0\n",
      "note_on channel=10 note=57 velocity=67 time=0\n",
      "note_on channel=10 note=62 velocity=75 time=0\n",
      "note_on channel=9 note=69 velocity=41 time=2\n",
      "note_off channel=9 note=69 velocity=64 time=0\n",
      "note_off channel=10 note=62 velocity=64 time=10\n",
      "note_off channel=10 note=57 velocity=64 time=3\n",
      "note_off channel=13 note=45 velocity=64 time=2\n",
      "note_off channel=6 note=66 velocity=64 time=3\n",
      "note_off channel=6 note=69 velocity=64 time=2\n",
      "note_off channel=6 note=62 velocity=64 time=0\n",
      "note_off channel=1 note=33 velocity=64 time=2\n",
      "note_on channel=1 note=28 velocity=75 time=0\n",
      "note_on channel=9 note=46 velocity=41 time=1\n",
      "note_off channel=9 note=46 velocity=64 time=0\n",
      "note_on channel=9 note=54 velocity=68 time=0\n",
      "note_off channel=9 note=54 velocity=64 time=0\n",
      "note_on channel=9 note=69 velocity=71 time=1\n",
      "note_off channel=9 note=69 velocity=64 time=0\n",
      "note_off channel=1 note=28 velocity=64 time=22\n",
      "note_on channel=9 note=69 velocity=52 time=1\n",
      "note_off channel=9 note=69 velocity=64 time=0\n",
      "note_on channel=1 note=29 velocity=84 time=0\n",
      "note_on channel=6 note=57 velocity=58 time=0\n",
      "note_on channel=10 note=54 velocity=59 time=0\n",
      "note_on channel=13 note=40 velocity=67 time=0\n",
      "note_on channel=9 note=54 velocity=40 time=1\n",
      "note_off channel=9 note=54 velocity=64 time=0\n",
      "note_off channel=10 note=54 velocity=64 time=11\n",
      "note_off channel=6 note=57 velocity=64 time=6\n",
      "note_off channel=5 note=74 velocity=64 time=1\n",
      "note_on channel=5 note=73 velocity=80 time=2\n",
      "note_off channel=1 note=29 velocity=64 time=1\n",
      "note_on channel=10 note=57 velocity=77 time=1\n",
      "note_on channel=10 note=62 velocity=81 time=0\n",
      "note_on channel=6 note=69 velocity=79 time=1\n",
      "note_on channel=6 note=66 velocity=100 time=0\n",
      "note_on channel=6 note=62 velocity=100 time=0\n",
      "note_off channel=13 note=40 velocity=64 time=0\n",
      "note_on channel=13 note=45 velocity=62 time=0\n",
      "<meta message lyrics text='dig ' time=1>\n",
      "note_on channel=3 note=71 velocity=106 time=0\n",
      "note_on channel=4 note=62 velocity=79 time=0\n",
      "note_on channel=4 note=71 velocity=105 time=0\n",
      "note_on channel=9 note=40 velocity=107 time=0\n",
      "note_off channel=9 note=40 velocity=64 time=0\n",
      "note_on channel=9 note=42 velocity=48 time=0\n",
      "note_off channel=9 note=42 velocity=64 time=0\n",
      "note_on channel=9 note=69 velocity=56 time=0\n",
      "note_off channel=9 note=69 velocity=64 time=0\n",
      "note_on channel=1 note=30 velocity=89 time=0\n",
      "note_off channel=0 note=81 velocity=64 time=2\n",
      "note_off channel=0 note=86 velocity=64 time=5\n",
      "note_off channel=0 note=90 velocity=64 time=4\n",
      "note_off channel=1 note=30 velocity=64 time=6\n",
      "<meta message lyrics text='in ' time=6>\n",
      "note_off channel=3 note=71 velocity=64 time=0\n",
      "note_on channel=3 note=69 velocity=106 time=0\n",
      "note_off channel=4 note=62 velocity=64 time=0\n",
      "note_on channel=9 note=69 velocity=44 time=0\n",
      "note_off channel=9 note=69 velocity=64 time=0\n",
      "note_off channel=4 note=71 velocity=64 time=1\n",
      "note_on channel=4 note=62 velocity=79 time=0\n",
      "note_on channel=4 note=69 velocity=103 time=0\n",
      "note_off channel=5 note=73 velocity=64 time=0\n",
      "note_on channel=1 note=30 velocity=84 time=0\n",
      "note_on channel=5 note=71 velocity=99 time=1\n",
      "note_off channel=13 note=45 velocity=64 time=1\n",
      "note_off channel=1 note=30 velocity=64 time=17\n",
      "note_on channel=9 note=69 velocity=69 time=4\n",
      "note_off channel=9 note=69 velocity=64 time=0\n",
      "note_on channel=9 note=54 velocity=68 time=0\n",
      "note_off channel=9 note=54 velocity=64 time=0\n",
      "note_on channel=9 note=46 velocity=42 time=1\n",
      "note_off channel=9 note=46 velocity=64 time=0\n",
      "note_on channel=1 note=33 velocity=87 time=0\n",
      "note_off channel=7 note=57 velocity=64 time=0\n",
      "note_on channel=13 note=45 velocity=87 time=0\n",
      "note_off channel=10 note=57 velocity=64 time=12\n",
      "note_off channel=10 note=62 velocity=64 time=8\n",
      "note_off channel=3 note=69 velocity=64 time=1\n",
      "note_off channel=4 note=62 velocity=64 time=2\n",
      "note_on channel=9 note=69 velocity=49 time=0\n",
      "note_off channel=9 note=69 velocity=64 time=0\n",
      "<meta message lyrics text='the ' time=1>\n",
      "note_on channel=3 note=68 velocity=100 time=0\n",
      "note_off channel=4 note=69 velocity=64 time=0\n",
      "note_on channel=4 note=62 velocity=78 time=0\n",
      "note_on channel=4 note=68 velocity=104 time=0\n",
      "note_off channel=5 note=71 velocity=64 time=0\n",
      "note_on channel=9 note=54 velocity=33 time=0\n",
      "note_off channel=9 note=54 velocity=64 time=0\n",
      "note_off channel=1 note=33 velocity=64 time=0\n",
      "note_on channel=1 note=30 velocity=118 time=0\n",
      "note_on channel=5 note=69 velocity=83 time=1\n",
      "note_off channel=6 note=66 velocity=64 time=13\n",
      "note_off channel=6 note=62 velocity=64 time=1\n",
      "note_off channel=6 note=69 velocity=64 time=3\n",
      "note_off channel=3 note=68 velocity=64 time=1\n",
      "note_off channel=1 note=30 velocity=64 time=1\n",
      "note_off channel=4 note=68 velocity=64 time=3\n",
      "note_off channel=4 note=62 velocity=64 time=0\n",
      "note_on channel=9 note=42 velocity=46 time=0\n",
      "note_off channel=9 note=42 velocity=64 time=0\n",
      "note_on channel=11 note=45 velocity=74 time=0\n",
      "note_on channel=4 note=62 velocity=78 time=1\n",
      "note_on channel=4 note=68 velocity=105 time=0\n",
      "note_on channel=9 note=36 velocity=111 time=0\n",
      "note_off channel=9 note=36 velocity=64 time=0\n",
      "note_on channel=9 note=69 velocity=38 time=0\n",
      "note_off channel=9 note=69 velocity=64 time=0\n",
      "note_on channel=1 note=33 velocity=91 time=0\n",
      "note_off channel=7 note=62 velocity=64 time=0\n",
      "note_off channel=7 note=66 velocity=64 time=0\n",
      "note_on channel=7 note=64 velocity=74 time=0\n",
      "note_on channel=7 note=61 velocity=58 time=0\n",
      "note_off channel=5 note=69 velocity=64 time=1\n",
      "<meta message lyrics text='danc' time=1>\n",
      "note_on channel=3 note=68 velocity=106 time=0\n",
      "note_on channel=5 note=71 velocity=103 time=0\n",
      "note_off channel=11 note=45 velocity=64 time=7\n",
      "note_on channel=9 note=42 velocity=42 time=14\n",
      "note_off channel=9 note=42 velocity=64 time=0\n",
      "note_on channel=9 note=69 velocity=41 time=0\n",
      "note_off channel=9 note=69 velocity=64 time=0\n",
      "note_on channel=11 note=45 velocity=68 time=0\n",
      "note_off channel=11 note=45 velocity=64 time=15\n",
      "note_on channel=11 note=57 velocity=74 time=8\n",
      "note_on channel=9 note=69 velocity=48 time=1\n",
      "note_off channel=9 note=69 velocity=64 time=0\n",
      "note_on channel=9 note=54 velocity=44 time=0\n",
      "note_off channel=9 note=54 velocity=64 time=0\n",
      "note_on channel=9 note=46 velocity=44 time=1\n",
      "note_off channel=9 note=46 velocity=64 time=0\n",
      "note_off channel=1 note=33 velocity=64 time=11\n",
      "note_off channel=11 note=57 velocity=64 time=9\n",
      "note_off channel=3 note=68 velocity=64 time=2\n",
      "note_on channel=11 note=45 velocity=60 time=0\n",
      "note_on channel=9 note=69 velocity=49 time=1\n",
      "note_off channel=9 note=69 velocity=64 time=0\n",
      "<meta message lyrics text='ing ' time=1>\n",
      "note_on channel=3 note=69 velocity=108 time=0\n",
      "note_off channel=4 note=68 velocity=64 time=0\n",
      "note_off channel=4 note=62 velocity=64 time=0\n",
      "note_on channel=4 note=61 velocity=78 time=0\n",
      "note_on channel=4 note=69 velocity=106 time=0\n",
      "note_on channel=9 note=36 velocity=107 time=0\n",
      "note_off channel=9 note=36 velocity=64 time=0\n",
      "note_on channel=9 note=54 velocity=28 time=0\n",
      "note_off channel=9 note=54 velocity=64 time=0\n",
      "note_on channel=1 note=33 velocity=73 time=0\n",
      "note_off channel=5 note=71 velocity=64 time=5\n",
      "note_on channel=5 note=73 velocity=87 time=1\n",
      "note_off channel=11 note=45 velocity=64 time=3\n",
      "note_off channel=1 note=33 velocity=64 time=4\n",
      "note_on channel=11 note=57 velocity=74 time=9\n",
      "note_on channel=9 note=40 velocity=102 time=1\n",
      "note_off channel=9 note=40 velocity=64 time=0\n",
      "note_on channel=9 note=42 velocity=50 time=0\n",
      "note_off channel=9 note=42 velocity=64 time=0\n",
      "note_on channel=9 note=69 velocity=41 time=0\n",
      "note_off channel=9 note=69 velocity=64 time=0\n",
      "note_on channel=1 note=33 velocity=103 time=1\n",
      "note_off channel=11 note=57 velocity=64 time=11\n",
      "note_off channel=3 note=69 velocity=64 time=11\n",
      "note_on channel=9 note=69 velocity=47 time=1\n",
      "note_off channel=9 note=69 velocity=64 time=0\n",
      "note_on channel=11 note=45 velocity=63 time=1\n",
      "note_off channel=11 note=45 velocity=64 time=13\n",
      "note_off channel=1 note=33 velocity=64 time=1\n",
      "note_on channel=11 note=57 velocity=81 time=8\n",
      "note_off channel=4 note=69 velocity=64 time=1\n",
      "note_off channel=4 note=61 velocity=64 time=0\n",
      "note_on channel=9 note=36 velocity=104 time=0\n",
      "note_off channel=9 note=36 velocity=64 time=0\n",
      "note_on channel=9 note=46 velocity=47 time=0\n",
      "note_off channel=9 note=46 velocity=64 time=0\n",
      "note_on channel=9 note=54 velocity=56 time=0\n",
      "note_off channel=9 note=54 velocity=64 time=0\n",
      "<meta message lyrics text='queen. ' time=1>\n",
      "<meta message lyrics text='\\r' time=0>\n",
      "note_on channel=3 note=69 velocity=107 time=0\n",
      "note_on channel=4 note=61 velocity=77 time=0\n",
      "note_on channel=4 note=69 velocity=105 time=0\n",
      "note_on channel=9 note=69 velocity=62 time=0\n",
      "note_off channel=9 note=69 velocity=64 time=0\n",
      "note_on channel=1 note=33 velocity=82 time=0\n",
      "note_off channel=11 note=57 velocity=64 time=11\n",
      "note_on channel=11 note=57 velocity=68 time=11\n",
      "note_on channel=9 note=69 velocity=48 time=2\n",
      "note_off channel=9 note=69 velocity=64 time=0\n",
      "note_on channel=9 note=54 velocity=32 time=0\n",
      "note_off channel=9 note=54 velocity=64 time=0\n",
      "note_off channel=11 note=57 velocity=64 time=17\n",
      "note_off channel=1 note=33 velocity=64 time=4\n",
      "note_on channel=11 note=45 velocity=58 time=1\n",
      "note_on channel=9 note=36 velocity=112 time=2\n",
      "note_off channel=9 note=36 velocity=64 time=0\n",
      "note_on channel=9 note=42 velocity=52 time=0\n",
      "note_off channel=9 note=42 velocity=64 time=0\n",
      "note_on channel=9 note=69 velocity=36 time=0\n",
      "note_off channel=9 note=69 velocity=64 time=0\n",
      "note_off channel=11 note=45 velocity=64 time=6\n",
      "note_on channel=11 note=57 velocity=74 time=16\n",
      "note_on channel=9 note=69 velocity=48 time=2\n",
      "note_off channel=9 note=69 velocity=64 time=0\n",
      "note_on channel=1 note=33 velocity=86 time=0\n",
      "note_on channel=0 note=57 velocity=91 time=1\n",
      "note_on channel=6 note=57 velocity=68 time=1\n",
      "note_off channel=11 note=57 velocity=64 time=8\n",
      "note_off channel=1 note=33 velocity=64 time=3\n",
      "note_off channel=6 note=57 velocity=64 time=1\n",
      "note_on channel=11 note=45 velocity=53 time=8\n",
      "note_on channel=9 note=54 velocity=53 time=1\n",
      "note_off channel=9 note=54 velocity=64 time=0\n",
      "note_on channel=0 note=66 velocity=92 time=0\n",
      "note_on channel=0 note=62 velocity=82 time=0\n",
      "note_on channel=6 note=69 velocity=76 time=0\n",
      "note_on channel=6 note=66 velocity=79 time=0\n",
      "note_on channel=6 note=62 velocity=76 time=0\n",
      "note_on channel=9 note=46 velocity=44 time=1\n",
      "note_off channel=9 note=46 velocity=64 time=0\n",
      "note_on channel=9 note=69 velocity=62 time=0\n",
      "note_off channel=9 note=69 velocity=64 time=0\n",
      "note_on channel=1 note=33 velocity=74 time=0\n",
      "note_off channel=11 note=45 velocity=64 time=4\n",
      "note_on channel=9 note=69 velocity=52 time=20\n",
      "note_off channel=9 note=69 velocity=64 time=0\n",
      "note_on channel=9 note=54 velocity=47 time=0\n",
      "note_off channel=9 note=54 velocity=64 time=0\n",
      "note_on channel=11 note=45 velocity=61 time=0\n",
      "note_off channel=0 note=57 velocity=64 time=6\n",
      "note_off channel=0 note=62 velocity=64 time=4\n",
      "note_off channel=0 note=66 velocity=64 time=0\n",
      "note_off channel=6 note=62 velocity=64 time=1\n",
      "note_off channel=6 note=66 velocity=64 time=0\n",
      "note_off channel=6 note=69 velocity=64 time=0\n",
      "note_off channel=11 note=45 velocity=64 time=4\n",
      "note_off channel=1 note=33 velocity=64 time=5\n",
      "note_on channel=9 note=42 velocity=49 time=3\n",
      "note_off channel=9 note=42 velocity=64 time=0\n",
      "note_on channel=1 note=40 velocity=77 time=0\n",
      "note_on channel=9 note=40 velocity=111 time=1\n",
      "note_off channel=9 note=40 velocity=64 time=0\n",
      "note_on channel=9 note=69 velocity=34 time=0\n",
      "note_off channel=9 note=69 velocity=64 time=0\n",
      "note_on channel=0 note=66 velocity=96 time=0\n",
      "note_on channel=0 note=62 velocity=93 time=0\n",
      "note_on channel=0 note=57 velocity=85 time=0\n",
      "note_on channel=6 note=69 velocity=77 time=0\n",
      "note_on channel=6 note=66 velocity=87 time=0\n",
      "note_on channel=6 note=62 velocity=86 time=0\n",
      "note_on channel=11 note=57 velocity=93 time=0\n",
      "note_off channel=1 note=40 velocity=64 time=23\n",
      "note_on channel=1 note=42 velocity=64 time=0\n",
      "note_on channel=9 note=42 velocity=43 time=1\n",
      "note_off channel=9 note=42 velocity=64 time=0\n",
      "note_on channel=9 note=69 velocity=43 time=0\n",
      "note_off channel=9 note=69 velocity=64 time=0\n",
      "note_off channel=1 note=42 velocity=64 time=18\n",
      "note_on channel=1 note=45 velocity=73 time=5\n",
      "note_on channel=9 note=46 velocity=43 time=1\n",
      "note_off channel=9 note=46 velocity=64 time=0\n",
      "note_on channel=9 note=69 velocity=63 time=0\n",
      "note_off channel=9 note=69 velocity=64 time=0\n",
      "note_on channel=9 note=54 velocity=78 time=0\n",
      "note_off channel=9 note=54 velocity=64 time=0\n",
      "note_off channel=0 note=57 velocity=64 time=9\n",
      "note_off channel=0 note=62 velocity=64 time=0\n",
      "note_off channel=6 note=62 velocity=64 time=0\n",
      "note_off channel=6 note=69 velocity=64 time=1\n",
      "note_off channel=0 note=66 velocity=64 time=2\n",
      "note_off channel=6 note=66 velocity=64 time=0\n",
      "note_on channel=9 note=69 velocity=59 time=12\n",
      "note_off channel=9 note=69 velocity=64 time=0\n",
      "note_on channel=9 note=54 velocity=31 time=1\n",
      "note_off channel=9 note=54 velocity=64 time=0\n",
      "note_on channel=9 note=36 velocity=112 time=22\n",
      "note_off channel=9 note=36 velocity=64 time=0\n",
      "note_on channel=9 note=69 velocity=36 time=0\n",
      "note_off channel=9 note=69 velocity=64 time=0\n",
      "note_on channel=11 note=45 velocity=67 time=0\n",
      "note_off channel=4 note=61 velocity=64 time=1\n",
      "note_on channel=9 note=42 velocity=57 time=0\n",
      "note_off channel=9 note=42 velocity=64 time=0\n",
      "note_off channel=1 note=45 velocity=64 time=0\n",
      "note_on channel=1 note=33 velocity=93 time=0\n",
      "note_off channel=11 note=57 velocity=64 time=1\n",
      "note_off channel=11 note=45 velocity=64 time=8\n",
      "note_on channel=11 note=45 velocity=63 time=13\n",
      "note_on channel=9 note=42 velocity=40 time=2\n",
      "note_off channel=9 note=42 velocity=64 time=0\n",
      "note_on channel=9 note=69 velocity=44 time=0\n",
      "note_off channel=9 note=69 velocity=64 time=0\n",
      "note_off channel=3 note=69 velocity=64 time=5\n",
      "note_off channel=11 note=45 velocity=64 time=11\n",
      "note_on channel=9 note=46 velocity=44 time=6\n",
      "note_off channel=9 note=46 velocity=64 time=0\n",
      "note_off channel=1 note=33 velocity=64 time=1\n",
      "note_on channel=11 note=57 velocity=79 time=0\n",
      "note_on channel=9 note=69 velocity=71 time=1\n",
      "note_off channel=9 note=69 velocity=64 time=0\n",
      "note_on channel=9 note=54 velocity=70 time=0\n",
      "note_off channel=9 note=54 velocity=64 time=0\n",
      "note_off channel=11 note=57 velocity=64 time=18\n",
      "note_on channel=11 note=45 velocity=56 time=4\n",
      "note_on channel=9 note=69 velocity=44 time=1\n",
      "note_off channel=9 note=69 velocity=64 time=0\n",
      "note_on channel=9 note=36 velocity=107 time=1\n",
      "note_off channel=9 note=36 velocity=64 time=0\n",
      "note_on channel=1 note=33 velocity=87 time=0\n",
      "note_on channel=9 note=54 velocity=33 time=1\n",
      "note_off channel=9 note=54 velocity=64 time=0\n",
      "note_off channel=11 note=45 velocity=64 time=11\n",
      "note_off channel=1 note=33 velocity=64 time=3\n",
      "note_on channel=11 note=57 velocity=77 time=7\n",
      "note_on channel=9 note=40 velocity=110 time=1\n",
      "note_off channel=9 note=40 velocity=64 time=0\n",
      "note_on channel=9 note=42 velocity=47 time=0\n",
      "note_off channel=9 note=42 velocity=64 time=0\n",
      "note_on channel=9 note=69 velocity=40 time=1\n",
      "note_off channel=9 note=69 velocity=64 time=0\n",
      "note_on channel=1 note=33 velocity=91 time=0\n",
      "note_off channel=11 note=57 velocity=64 time=10\n",
      "note_on channel=11 note=57 velocity=68 time=12\n",
      "note_on channel=9 note=69 velocity=42 time=2\n",
      "note_off channel=9 note=69 velocity=64 time=0\n",
      "note_off channel=1 note=33 velocity=64 time=3\n",
      "note_off channel=11 note=57 velocity=64 time=18\n",
      "note_on channel=9 note=46 velocity=42 time=2\n",
      "note_off channel=9 note=46 velocity=64 time=0\n",
      "note_on channel=11 note=45 velocity=58 time=0\n",
      "note_on channel=9 note=36 velocity=104 time=1\n",
      "note_off channel=9 note=36 velocity=64 time=0\n",
      "note_on channel=9 note=69 velocity=66 time=0\n",
      "note_off channel=9 note=69 velocity=64 time=0\n",
      "note_on channel=9 note=54 velocity=70 time=0\n",
      "note_off channel=9 note=54 velocity=64 time=0\n",
      "note_on channel=1 note=33 velocity=95 time=0\n",
      "note_off channel=11 note=45 velocity=64 time=11\n",
      "note_on channel=11 note=57 velocity=74 time=11\n",
      "note_on channel=9 note=69 velocity=45 time=2\n",
      "note_off channel=9 note=69 velocity=64 time=0\n",
      "note_on channel=9 note=54 velocity=45 time=0\n",
      "note_off channel=9 note=54 velocity=64 time=0\n",
      "note_off channel=11 note=57 velocity=64 time=12\n",
      "note_off channel=1 note=33 velocity=64 time=4\n",
      "note_on channel=11 note=45 velocity=60 time=4\n",
      "note_on channel=9 note=42 velocity=54 time=3\n",
      "note_off channel=9 note=42 velocity=64 time=0\n",
      "note_on channel=9 note=36 velocity=107 time=1\n",
      "note_off channel=9 note=36 velocity=64 time=0\n",
      "note_on channel=9 note=69 velocity=36 time=0\n",
      "note_off channel=9 note=69 velocity=64 time=0\n",
      "note_off channel=11 note=45 velocity=64 time=4\n",
      "note_on channel=9 note=40 velocity=102 time=19\n",
      "note_off channel=9 note=40 velocity=64 time=0\n",
      "note_on channel=1 note=33 velocity=80 time=0\n",
      "note_on channel=11 note=57 velocity=71 time=0\n",
      "note_on channel=9 note=69 velocity=41 time=1\n",
      "note_off channel=9 note=69 velocity=64 time=0\n",
      "note_on channel=0 note=57 velocity=67 time=0\n",
      "note_on channel=6 note=57 velocity=67 time=1\n",
      "note_off channel=6 note=57 velocity=64 time=11\n",
      "note_off channel=11 note=57 velocity=64 time=3\n",
      "note_off channel=1 note=33 velocity=64 time=7\n",
      "note_on channel=1 note=28 velocity=70 time=0\n",
      "note_on channel=0 note=66 velocity=101 time=0\n",
      "note_on channel=6 note=69 velocity=70 time=0\n",
      "note_on channel=9 note=54 velocity=68 time=1\n",
      "note_off channel=9 note=54 velocity=64 time=0\n",
      "note_on channel=0 note=62 velocity=87 time=0\n",
      "note_on channel=6 note=62 velocity=76 time=0\n",
      "note_on channel=6 note=66 velocity=85 time=0\n",
      "note_on channel=11 note=45 velocity=65 time=0\n",
      "note_on channel=9 note=69 velocity=71 time=1\n",
      "note_off channel=9 note=69 velocity=64 time=0\n",
      "note_off channel=11 note=45 velocity=64 time=4\n",
      "note_off channel=5 note=73 velocity=64 time=5\n",
      "note_off channel=1 note=28 velocity=64 time=13\n",
      "note_on channel=9 note=69 velocity=52 time=1\n",
      "note_off channel=9 note=69 velocity=64 time=0\n",
      "note_on channel=1 note=29 velocity=74 time=0\n",
      "note_on channel=9 note=54 velocity=40 time=1\n",
      "note_off channel=9 note=54 velocity=64 time=0\n",
      "note_on channel=11 note=45 velocity=60 time=0\n",
      "note_off channel=0 note=57 velocity=64 time=4\n",
      "note_off channel=0 note=62 velocity=64 time=2\n",
      "note_off channel=6 note=66 velocity=64 time=3\n"
     ]
    },
    {
     "name": "stdout",
     "output_type": "stream",
     "text": [
      "note_off channel=6 note=62 velocity=64 time=0\n",
      "note_off channel=6 note=69 velocity=64 time=0\n",
      "note_off channel=0 note=66 velocity=64 time=1\n",
      "note_off channel=11 note=45 velocity=64 time=0\n",
      "note_off channel=1 note=29 velocity=64 time=9\n",
      "note_on channel=9 note=40 velocity=110 time=4\n",
      "note_off channel=9 note=40 velocity=64 time=0\n",
      "note_on channel=9 note=42 velocity=54 time=0\n",
      "note_off channel=9 note=42 velocity=64 time=0\n",
      "note_on channel=1 note=30 velocity=93 time=0\n",
      "note_on channel=11 note=57 velocity=95 time=0\n",
      "note_off channel=13 note=45 velocity=64 time=0\n",
      "note_on channel=0 note=57 velocity=91 time=1\n",
      "note_on channel=0 note=66 velocity=106 time=0\n",
      "note_on channel=0 note=62 velocity=92 time=0\n",
      "note_on channel=6 note=69 velocity=75 time=0\n",
      "note_on channel=6 note=66 velocity=87 time=0\n",
      "note_on channel=6 note=62 velocity=76 time=0\n",
      "note_off channel=1 note=30 velocity=64 time=15\n",
      "note_on channel=9 note=69 velocity=44 time=8\n",
      "note_off channel=9 note=69 velocity=64 time=0\n",
      "note_on channel=1 note=30 velocity=86 time=0\n",
      "note_off channel=6 note=62 velocity=64 time=17\n",
      "note_off channel=1 note=30 velocity=64 time=3\n",
      "note_off channel=7 note=61 velocity=64 time=0\n",
      "note_off channel=0 note=57 velocity=64 time=2\n",
      "note_off channel=0 note=62 velocity=64 time=1\n",
      "note_off channel=6 note=66 velocity=64 time=0\n",
      "note_on channel=9 note=69 velocity=69 time=1\n",
      "note_off channel=9 note=69 velocity=64 time=0\n",
      "note_on channel=9 note=54 velocity=68 time=0\n",
      "note_off channel=9 note=54 velocity=64 time=0\n",
      "note_on channel=1 note=33 velocity=84 time=0\n",
      "note_off channel=0 note=66 velocity=64 time=0\n",
      "note_on channel=9 note=46 velocity=43 time=1\n",
      "note_off channel=9 note=46 velocity=64 time=0\n",
      "note_off channel=6 note=69 velocity=64 time=0\n",
      "note_off channel=7 note=64 velocity=64 time=7\n",
      "note_off channel=11 note=57 velocity=64 time=15\n",
      "note_on channel=9 note=69 velocity=49 time=1\n",
      "note_off channel=9 note=69 velocity=64 time=0\n",
      "note_off channel=1 note=33 velocity=64 time=0\n",
      "note_on channel=9 note=54 velocity=33 time=1\n",
      "note_off channel=9 note=54 velocity=64 time=0\n",
      "note_on channel=1 note=30 velocity=89 time=0\n",
      "note_on channel=11 note=57 velocity=87 time=21\n",
      "note_off channel=1 note=30 velocity=64 time=1\n",
      "note_on channel=9 note=42 velocity=55 time=1\n",
      "note_off channel=9 note=42 velocity=64 time=0\n",
      "note_on channel=1 note=33 velocity=85 time=0\n",
      "note_off channel=4 note=69 velocity=64 time=1\n",
      "note_on channel=9 note=36 velocity=104 time=0\n",
      "note_on channel=9 note=69 velocity=52 time=0\n",
      "note_off channel=9 note=69 velocity=64 time=0\n",
      "note_on channel=0 note=69 velocity=73 time=0\n",
      "note_on channel=0 note=64 velocity=80 time=0\n",
      "note_on channel=6 note=57 velocity=60 time=0\n",
      "note_on channel=7 note=64 velocity=75 time=0\n",
      "note_off channel=11 note=57 velocity=64 time=7\n",
      "note_on channel=9 note=42 velocity=42 time=16\n",
      "note_off channel=9 note=42 velocity=64 time=0\n",
      "note_on channel=6 note=64 velocity=76 time=0\n",
      "note_on channel=6 note=69 velocity=74 time=0\n",
      "note_on channel=6 note=62 velocity=72 time=0\n",
      "note_on channel=10 note=62 velocity=74 time=0\n",
      "note_on channel=10 note=57 velocity=65 time=0\n",
      "note_on channel=9 note=69 velocity=43 time=1\n",
      "note_off channel=9 note=69 velocity=64 time=0\n",
      "note_off channel=6 note=57 velocity=64 time=1\n",
      "note_off channel=6 note=64 velocity=64 time=10\n",
      "note_off channel=10 note=62 velocity=64 time=3\n",
      "note_off channel=9 note=36 velocity=64 time=7\n",
      "note_on channel=10 note=62 velocity=58 time=1\n",
      "note_on channel=9 note=46 velocity=46 time=1\n",
      "note_off channel=9 note=46 velocity=64 time=0\n",
      "note_on channel=9 note=54 velocity=78 time=0\n",
      "note_off channel=9 note=54 velocity=64 time=0\n",
      "note_on channel=6 note=64 velocity=67 time=0\n",
      "note_on channel=9 note=69 velocity=69 time=1\n",
      "note_off channel=9 note=69 velocity=64 time=0\n",
      "note_off channel=1 note=33 velocity=64 time=0\n",
      "note_off channel=0 note=69 velocity=64 time=6\n",
      "note_off channel=0 note=64 velocity=64 time=4\n",
      "note_off channel=6 note=69 velocity=64 time=9\n",
      "note_off channel=6 note=62 velocity=64 time=3\n",
      "note_off channel=10 note=62 velocity=64 time=0\n",
      "note_off channel=10 note=57 velocity=64 time=1\n",
      "note_on channel=9 note=36 velocity=69 time=1\n",
      "note_on channel=9 note=69 velocity=49 time=0\n",
      "note_off channel=9 note=69 velocity=64 time=0\n",
      "note_on channel=9 note=54 velocity=41 time=0\n",
      "note_off channel=9 note=54 velocity=64 time=0\n",
      "note_on channel=0 note=64 velocity=80 time=0\n",
      "note_on channel=0 note=57 velocity=76 time=0\n",
      "note_on channel=0 note=62 velocity=87 time=0\n",
      "note_on channel=0 note=69 velocity=71 time=0\n",
      "note_off channel=6 note=64 velocity=64 time=0\n",
      "note_on channel=6 note=57 velocity=59 time=0\n",
      "note_on channel=1 note=33 velocity=84 time=1\n",
      "note_off channel=0 note=69 velocity=64 time=15\n",
      "note_off channel=6 note=57 velocity=64 time=1\n",
      "note_off channel=9 note=36 velocity=64 time=4\n",
      "note_on channel=6 note=62 velocity=83 time=2\n",
      "note_on channel=6 note=69 velocity=77 time=0\n",
      "note_on channel=6 note=64 velocity=83 time=0\n",
      "note_on channel=10 note=57 velocity=69 time=0\n",
      "note_on channel=10 note=62 velocity=81 time=0\n",
      "note_on channel=9 note=40 velocity=98 time=1\n",
      "note_on channel=9 note=42 velocity=57 time=0\n",
      "note_off channel=9 note=42 velocity=64 time=0\n",
      "note_on channel=9 note=69 velocity=50 time=0\n",
      "note_off channel=9 note=69 velocity=64 time=0\n",
      "note_off channel=0 note=62 velocity=64 time=1\n",
      "note_off channel=1 note=33 velocity=64 time=4\n",
      "note_off channel=0 note=64 velocity=64 time=3\n",
      "note_off channel=6 note=64 velocity=64 time=8\n",
      "note_off channel=0 note=57 velocity=64 time=2\n",
      "note_off channel=6 note=69 velocity=64 time=1\n",
      "note_off channel=6 note=62 velocity=64 time=1\n",
      "note_on channel=9 note=69 velocity=43 time=4\n",
      "note_off channel=9 note=69 velocity=64 time=0\n",
      "note_on channel=6 note=57 velocity=60 time=0\n",
      "note_off channel=10 note=62 velocity=64 time=4\n",
      "note_off channel=10 note=57 velocity=64 time=3\n",
      "note_off channel=6 note=57 velocity=64 time=10\n",
      "note_on channel=9 note=51 velocity=49 time=6\n",
      "note_off channel=9 note=51 velocity=64 time=0\n",
      "note_on channel=9 note=54 velocity=70 time=0\n",
      "note_off channel=9 note=54 velocity=64 time=0\n",
      "note_on channel=0 note=64 velocity=87 time=0\n",
      "note_off channel=9 note=40 velocity=64 time=1\n",
      "note_on channel=9 note=69 velocity=63 time=0\n",
      "note_off channel=9 note=69 velocity=64 time=0\n",
      "note_on channel=1 note=33 velocity=87 time=0\n",
      "note_on channel=0 note=57 velocity=87 time=0\n",
      "note_on channel=0 note=61 velocity=79 time=0\n",
      "note_on channel=0 note=69 velocity=71 time=0\n",
      "note_on channel=10 note=61 velocity=64 time=0\n",
      "note_on channel=10 note=57 velocity=64 time=0\n",
      "note_on channel=7 note=61 velocity=73 time=0\n",
      "note_on channel=9 note=36 velocity=107 time=1\n",
      "note_on channel=6 note=64 velocity=90 time=0\n",
      "note_on channel=6 note=69 velocity=73 time=0\n",
      "note_on channel=6 note=61 velocity=67 time=0\n",
      "note_off channel=10 note=61 velocity=64 time=11\n",
      "note_off channel=6 note=64 velocity=64 time=5\n",
      "note_on channel=6 note=64 velocity=60 time=7\n",
      "note_on channel=10 note=61 velocity=64 time=0\n",
      "note_off channel=10 note=61 velocity=64 time=20\n",
      "note_off channel=6 note=64 velocity=64 time=1\n",
      "note_off channel=6 note=61 velocity=64 time=0\n",
      "note_off channel=10 note=57 velocity=64 time=0\n",
      "note_on channel=6 note=57 velocity=59 time=3\n",
      "note_off channel=6 note=57 velocity=64 time=15\n",
      "note_on channel=10 note=57 velocity=70 time=7\n",
      "note_on channel=10 note=61 velocity=79 time=0\n",
      "note_off channel=10 note=61 velocity=64 time=14\n",
      "note_off channel=10 note=57 velocity=64 time=5\n",
      "note_off channel=0 note=57 velocity=64 time=22\n",
      "note_off channel=0 note=61 velocity=64 time=4\n",
      "note_off channel=0 note=64 velocity=64 time=5\n",
      "note_on channel=10 note=52 velocity=58 time=0\n",
      "note_off channel=0 note=69 velocity=64 time=1\n",
      "note_off channel=9 note=36 velocity=64 time=5\n",
      "note_off channel=10 note=52 velocity=64 time=5\n",
      "note_on channel=10 note=57 velocity=77 time=12\n",
      "note_on channel=10 note=61 velocity=85 time=0\n",
      "note_off channel=7 note=61 velocity=64 time=284\n",
      "note_off channel=7 note=64 velocity=64 time=4\n",
      "note_off channel=10 note=57 velocity=64 time=7\n",
      "note_off channel=1 note=33 velocity=64 time=1\n",
      "note_off channel=6 note=69 velocity=64 time=1\n",
      "note_off channel=10 note=61 velocity=64 time=2\n",
      "<meta message end_of_track time=0>\n"
     ]
    }
   ],
   "source": [
    "\n",
    "mid = mido.MidiFile('Dancing.Queen.mid')\n",
    "for i, track in enumerate(mid.tracks):\n",
    "    print('Track {}: {}'.format(i, track.name))\n",
    "    for msg in track:\n",
    "        print(msg)"
   ]
  },
  {
   "cell_type": "code",
   "execution_count": 295,
   "metadata": {},
   "outputs": [
    {
     "name": "stdout",
     "output_type": "stream",
     "text": [
      "(8946, 127)\n"
     ]
    },
    {
     "data": {
      "text/plain": [
       "<matplotlib.image.AxesImage at 0x1c2cf1d8d0>"
      ]
     },
     "execution_count": 295,
     "metadata": {},
     "output_type": "execute_result"
    },
    {
     "data": {
      "image/png": "iVBORw0KGgoAAAANSUhEUgAAAXoAAAD8CAYAAAB5Pm/hAAAABHNCSVQICAgIfAhkiAAAAAlwSFlzAAALEgAACxIB0t1+/AAAADl0RVh0U29mdHdhcmUAbWF0cGxvdGxpYiB2ZXJzaW9uIDMuMC4zLCBodHRwOi8vbWF0cGxvdGxpYi5vcmcvnQurowAAEGBJREFUeJzt3X+s3XV9x/Hnay0FixKoCsEWB27NFM0cpgHUjRDqMkRiMZEN57YGMY0Jm+hcFNwfuGRLNDOiS5xbA2iXEH6sYiDOuUHFwJLRWcQoUJEGFa7tKE5QIgbp9t4f59v12t3ee3t+3HP6Oc9HQu75fs73nPPup9++7ofP9/M931QVkqR2/dK4C5AkjZZBL0mNM+glqXEGvSQ1zqCXpMYZ9JLUOINekho3sqBPcn6Sh5PsSnLlqD5HkjS/jOKCqSTLgO8Avw3MAF8D3lFVDw39wyRJ81o+ovc9E9hVVY8CJLkJ2ADMGfQrcnQdw7EjKkWS2vQMT/2wql660H6jCvrVwOOztmeAs2bvkGQTsAngGFZyVtaPqBRJatOdtfX7i9lvVHP0maPtF+aIqmpzVa2rqnVHcfSIypAkjSroZ4BTZm2vAXaP6LMkSfMYVdB/DVib5LQkK4BLgNtH9FmSpHmMZI6+qvYl+WPgX4BlwPVV9eAoPkuSNL9RnYylqr4EfGlU7y9JWhyvjJWkxhn0ktQ4g16SGmfQS1LjDHpJapxBL0mNM+glqXEGvSQ1zqCXpMYZ9JLUOINekhpn0EtS4wx6SWqcQS9JjTPoJalxBr0kNc6gl6TGGfSS1DiDXpIaZ9BLUuMMeklqnEEvSY0z6CWpcQa9JDXOoJekxvUd9ElOSXJXkp1JHkxyRde+KskdSR7pfp4wvHIlSYdrkBH9PuADVfUq4Gzg8iSnA1cC26pqLbCt25YkjUnfQV9Ve6rq693jZ4CdwGpgA7Cl220LcNGgRUqS+jeUOfokpwJnANuBk6pqD/R+GQAnHuI1m5LsSLLjeZ4bRhmSpDkMHPRJXgh8HnhfVf1ksa+rqs1Vta6q1h3F0YOWIUk6hIGCPslR9EL+hqq6tWt+IsnJ3fMnA3sHK1GSNIhBVt0EuA7YWVWfmPXU7cDG7vFG4Lb+y5MkDWr5AK99I/CHwLeSfKNr+zDwUeCWJJcBjwEXD1aiJGkQfQd9Vf0bkEM8vb7f95UkDZdXxkpS4wx6SWqcQS9JjTPoJalxBr0kNc6gl6TGGfSS1DiDXpIaZ9BLUuMMeklqnEEvSY0z6CWpcQa9JDXOoJekxhn0ktQ4g16SGjfIHaakI8qzbztr3CUclpVf2D6y915sXyy2hlH37aB9caT93c+nn75IVY2glMNzXFbVWfGmVJJ0OO6srfdV1bqF9nPqRpIaZ9BLUuMMeklqnCdjJWnCzD55PIyT8o7oJalxjuglacIMe2mtI3pJatzAQZ9kWZL7k3yx2z4tyfYkjyS5OcmKwcuUJPVrGCP6K4Cds7Y/BlxTVWuBp4DLhvAZkqQ+DRT0SdYAbwGu7bYDnAds7XbZAlw0yGdIkgYz6MnYTwIfBF7Ubb8YeLqq9nXbM8DqAT9jqgz7O0gkqe+gT3IhsLeq7kty7v7mOXad88t0kmwCNgEcw8p+y2iOAS5p2AYZ0b8ReGuSC4BjgOPojfCPT7K8G9WvAXbP9eKq2gxsht6Xmg1QhyRpHn3P0VfVVVW1pqpOBS4BvlJV7wTuAt7e7bYRuG3gKiVJfRvFOvoPAX+aZBe9OfvrRvAZkqRFGsqVsVX1VeCr3eNHgTOH8b6SpMF5ZawkNc6gl6TGGfSS1DiDXpIaZ9BLUuMMeklqnEEvSY0z6CWpcQa9JDXOoJekxhn0ktQ4g16SGmfQS1LjDHpJatxQvqZYOhLsuubssXzuy+6evBuo7T5nrrt+Hp5R/rkmvb6lNG9fvG/rot7DEb0kNS5V4/+td1xW1VlZP+4yJOmIcmdtva+q1i20nyN6SWqcQS9JjTPoJalxBr0kNc6gl6TGGfSS1DgvmNLUGPUFU+e8/sH/e3z3v7/6kPst9kKeYVw0NEzz1T0ptR6qxmFfgDUpf14vmJIkAQNeMJXkeOBa4DVAAe8CHgZuBk4Fvgf8blU9Nd/7eMGUJB2+pbpg6lPAl6vqlcBrgZ3AlcC2qloLbOu2JUlj0nfQJzkOOAe4DqCqfl5VTwMbgC3dbluAiwYtUpLUv0FG9K8AngQ+m+T+JNcmORY4qar2AHQ/TxxCnZKkPg0S9MuB1wGfqaozgJ9yGNM0STYl2ZFkx/M8N0AZkqT5DLK8cgaYqart3fZWekH/RJKTq2pPkpOBvXO9uKo2A5uhdzJ2gDqkRXn2bWeN9P3v+fTfL2q/X7n5PXO2H7w08Fc/9NDANR3K7OWfw/je9sX+2Rfr0sd+6xe251uuOtuh/iyj7EuAz778npG996GOF2DRyysHXXVzD/Duqno4yUeAY7un/quqPprkSmBVVX1wvvdx1Y0kHb7FrroZ9IKpPwFuSLICeBS4lN500C1JLgMeAy4e8DMkSQMYKOir6hvAXL9NHJ5L0oTwylhJapzfdSMNyaFO9q78wvY52/t9v2Hrt77Zhl3rMGqabRj1zVfTKP+uhtEXjuglqXHeHFySjlDeHFySBBj0ktQ8g16SGmfQS1LjDHpJapzr6KfIwWt9h71+ethrnyfdwf3Zz31Eh/GFYos1u77ZnzuMv7dh3I93sX3RT72jXkc/yvsRz9svt3rPWEkSrqOXpCOW6+glSYBBL0nNM+glqXGuutERb74VFdO2Ekiai0GvI95iw/xl975oxJVIS2yRq0adupGkxjmi1xGpn5t87D77mVGVI000R/SS1DhH9DoieZJVWjyDXhNrsd9PYuhL83PqRpIa54heE6Wfk6yS5ueIXpIa54heE8WRuzR8A43ok7w/yYNJHkhyY5JjkpyWZHuSR5LcnGTFsIqVJB2+vkf0SVYD7wVOr6qfJbkFuAS4ALimqm5K8nfAZcBnhlKtmuBqGmlpDTp1sxx4QZLngZXAHuA84Pe757cAH8Gg1ywGuLS0+p66qaofAB8HHqMX8D8G7gOerqp93W4zwOq5Xp9kU5IdSXY8z3P9liFJWsAgUzcnABuA04CngX8E3jzHrnPeq7CqNgOboXcrwX7r0GRyekaaHIOcjH0T8N2qerKqngduBd4AHJ9k/y+QNcDuAWuUJA1gkDn6x4Czk6wEfgasB3YAdwFvB24CNgK3DVqkjjyO1KXJ0XfQV9X2JFuBrwP7gPvpTcX8E3BTkr/s2q4bRqGafN7pSZpMA626qaqrgasPan4UOHOQ95UkDY9XxmpBnliVjmx+140kNc4RvRbkSF06sjmil6TGOaIX4Dy81DKDXoABLrXMqRtJapwjegG/OHXj6F5qiyN6SWqcI/opcvAJ19kjd0fxUrsM+ilimEvTyakbSWqcI/oG+K2RkubjiF6SGueIvgGO2iXNxxG9JDXOEf0R5FBz8Y7oJc3HoD+CGOiS+uHUjSQ1zhH9BHPZpKRhcEQvSY1zRD8BPMkqaZQc0UtS4xzRTwBH7pJGyRG9JDVuwaBPcn2SvUkemNW2KskdSR7pfp7QtSfJ3yTZleSbSV43yuIlSQtbzIj+c8D5B7VdCWyrqrXAtm4b4M3A2u6/TcBnhlOmJKlfCwZ9Vd0N/Oig5g3Alu7xFuCiWe3/UD33AscnOXlYxUqSDl+/c/QnVdUegO7niV37auDxWfvNdG3/T5JNSXYk2fE8z/VZhiRpIcM+GZs52mquHatqc1Wtq6p1R3H0kMuQJO3Xb9A/sX9Kpvu5t2ufAU6Ztd8aYHf/5UmSBtVv0N8ObOwebwRum9X+R93qm7OBH++f4pEkjceCF0wluRE4F3hJkhngauCjwC1JLgMeAy7udv8ScAGwC3gWuHQENUuSDsOCQV9V7zjEU+vn2LeAywctSpI0PF4ZK0mNM+glqXEGvSQ1zqCXpMYZ9JLUOINekhpn0EtS4wx6SWqcQS9JjTPoJalxBr0kNc6gl6TGGfSS1DiDXpIaZ9BLUuMMeklqnEEvSY0z6CWpcQa9JDXOoJekxhn0ktQ4g16SGmfQS1LjDHpJapxBL0mNWzDok1yfZG+SB2a1/XWSbyf5ZpIvJDl+1nNXJdmV5OEkvzOqwiVJi7OYEf3ngPMParsDeE1V/TrwHeAqgCSnA5cAr+5e87dJlg2tWknSYVsw6KvqbuBHB7X9a1Xt6zbvBdZ0jzcAN1XVc1X1XWAXcOYQ65UkHaZhzNG/C/jn7vFq4PFZz810bZKkMVk+yIuT/DmwD7hhf9Mcu9UhXrsJ2ARwDCsHKUOSNI++gz7JRuBCYH1V7Q/zGeCUWbutAXbP9fqq2gxsBjguq+b8ZSBJGlxfUzdJzgc+BLy1qp6d9dTtwCVJjk5yGrAW+I/By5Qk9WvBEX2SG4FzgZckmQGuprfK5mjgjiQA91bVe6rqwSS3AA/Rm9K5vKr+e1TFS5IWlgOzLuNzXFbVWVk/7jIk6YhyZ229r6rWLbSfV8ZKUuMMeklqnEEvSY0z6CWpcQa9JDXOoJekxk3E8sokTwLfB14C/HDM5UwK++IA++IA++IA+wJ+uapeutBOExH0+yXZsZg1odPAvjjAvjjAvjjAvlg8p24kqXEGvSQ1btKCfvO4C5gg9sUB9sUB9sUB9sUiTdQcvSRp+CZtRC9JGrKJCPok5yd5OMmuJFeOu56llOSUJHcl2ZnkwSRXdO2rktyR5JHu5wnjrnWpJFmW5P4kX+y2T0uyveuLm5OsGHeNSyHJ8Um2Jvl2d3y8flqPiyTv7/59PJDkxiTHTOtx0Y+xB32SZcCngTcDpwPvSHL6eKtaUvuAD1TVq4Czgcu7P/+VwLaqWgts67anxRXAzlnbHwOu6friKeCysVS19D4FfLmqXgm8ll6fTN1xkWQ18F5gXVW9BlgGXML0HheHbexBD5wJ7KqqR6vq58BNwIYx17RkqmpPVX29e/wMvX/Mq+n1wZZuty3AReOpcGklWQO8Bbi22w5wHrC122Uq+iLJccA5wHUAVfXzqnqaKT0u6N0k6QVJlgMrgT1M4XHRr0kI+tXA47O2Z7q2qZPkVOAMYDtwUlXtgd4vA+DE8VW2pD4JfBD4n277xcDTVbWv256W4+MVwJPAZ7tprGuTHMsUHhdV9QPg48Bj9AL+x8B9TOdx0ZdJCPrM0TZ1S4GSvBD4PPC+qvrJuOsZhyQXAnur6r7ZzXPsOg3Hx3LgdcBnquoM4KdMwTTNXLrzEBuA04CXAcfSm+o92DQcF32ZhKCfAU6Ztb0G2D2mWsYiyVH0Qv6Gqrq1a34iycnd8ycDe8dV3xJ6I/DWJN+jN4V3Hr0R/vHd/7LD9BwfM8BMVW3vtrfSC/5pPC7eBHy3qp6squeBW4E3MJ3HRV8mIei/BqztzqCvoHeS5fYx17Rkujno64CdVfWJWU/dDmzsHm8Eblvq2pZaVV1VVWuq6lR6x8FXquqdwF3A27vdpqUv/hN4PMmvdU3rgYeYwuOC3pTN2UlWdv9e9vfF1B0X/ZqIC6aSXEBv5LYMuL6q/mrMJS2ZJL8J3AN8iwPz0h+mN09/C/Byegf6xVX1o7EUOQZJzgX+rKouTPIKeiP8VcD9wB9U1XPjrG8pJPkNeielVwCPApfSG5xN3XGR5C+A36O3Su1+4N305uSn7rjox0QEvSRpdCZh6kaSNEIGvSQ1zqCXpMYZ9JLUOINekhpn0EtS4wx6SWqcQS9JjftfPB17OougH0MAAAAASUVORK5CYII=\n",
      "text/plain": [
       "<Figure size 432x288 with 1 Axes>"
      ]
     },
     "metadata": {
      "needs_background": "light"
     },
     "output_type": "display_data"
    }
   ],
   "source": [
    "npMidiArray=np.array(midiArray)\n",
    "print(npMidiArray.shape)\n",
    "plt.imshow(npMidiArray.T[:,100:200],aspect='auto',interpolation='none')"
   ]
  },
  {
   "cell_type": "code",
   "execution_count": null,
   "metadata": {},
   "outputs": [],
   "source": []
  },
  {
   "cell_type": "code",
   "execution_count": null,
   "metadata": {},
   "outputs": [],
   "source": []
  }
 ],
 "metadata": {
  "kernelspec": {
   "display_name": "Python (INFO6010)",
   "language": "python",
   "name": "info6010"
  },
  "language_info": {
   "codemirror_mode": {
    "name": "ipython",
    "version": 3
   },
   "file_extension": ".py",
   "mimetype": "text/x-python",
   "name": "python",
   "nbconvert_exporter": "python",
   "pygments_lexer": "ipython3",
   "version": "3.7.3"
  }
 },
 "nbformat": 4,
 "nbformat_minor": 2
}
